<svg xmlns="http://www.w3.org/2000/svg" height="109" meaning="" viewBox="0 0 109 109" width="109">
<g id="kvg:StrokePaths_0003f" style="fill:none;stroke:#000000;stroke-width:3;stroke-linecap:round;stroke-linejoin:round;">
<g id="kvg:0003f">
	<path d="M32,32.84c2.6-10.26,10.98-17.16,26.34-17.16c12.72,0,22.28,8.49,22.28,21.78c0,15.32-26.23,20.38-26.23,39.45" id="kvg:0003f-s1" />
	<path d="M54.5,88 c -0.83,0 -1.5,0.67 -1.5,1.5 0,0.83 0.67,1.5 1.5,1.5 0.83,0 1.5,-0.67 1.5,-1.5 0,-0.83 -0.67,-1.5 -1.5,-1.5" id="kvg:0003f-s2" />
</g>
</g>
<g id="kvg:StrokeNumbers_0003f" style="font-size:8;fill:#808080">
	<text transform="matrix(1 0 0 1 23.35 35.6)">1</text>
	<text transform="matrix(1 0 0 1 45 88)">2</text>
</g>
</svg>