<svg xmlns="http://www.w3.org/2000/svg" height="109" meaning="" viewBox="0 0 109 109" width="109">
<g id="kvg:StrokePaths_0003a" style="fill:#000000;stroke:#000000;stroke-width:3;stroke-linecap:round;stroke-linejoin:round;">
<g id="kvg:0003a">
	<path d="M54.5,44 c -1.66,0 -3,1.34 -3,3 0,1.66 1.34,3 3,3 1.66,0 3,-1.34 3,-3 0,-1.66 -1.34,-3 -3,-3" id="kvg:0003a-s1" />
	<path d="M54.5,88 c -1.66,0 -3,1.34 -3,3 0,1.66 1.34,3 3,3 1.66,0 3,-1.34 3,-3 0,-1.66 -1.34,-3 -3,-3" id="kvg:0003a-s2" />
</g>
</g>
<g id="kvg:StrokeNumbers_0003a" style="font-size:8;fill:#808080">
	<text transform="matrix(1 0 0 1 45 45)">1</text>
	<text transform="matrix(1 0 0 1 45 88)">2</text>
</g>
</svg>