<svg xmlns="http://www.w3.org/2000/svg" height="109" meaning="" viewBox="0 0 109 109" width="109">
<g id="kvg:StrokePaths_00047" style="fill:none;stroke:#000000;stroke-width:3;stroke-linecap:round;stroke-linejoin:round;">
<g id="kvg:00047">
	<path d="M85.42,32.4c-5.44-13.01-16.93-16.76-31.2-16.76c-14.85,0-32.72,11.85-32.72,36.89c0,27.41,15.34,39.99,33.5,39.99c15.65,0,26.06-6.65,30.97-12.28" id="kvg:00047-s1" />
	<path d="M60.57,55.09c5.2,0,20.23,0,21.82,0c1.59,0,3.47,1.73,3.47,3.47c0,1.74,0,21.25,0,21.25" id="kvg:00047-s2" />
</g>
</g>
<g id="kvg:StrokeNumbers_00047" style="font-size:8;fill:#808080">
	<text transform="matrix(1 0 0 1 84.22 23.99)">1</text>
	<text transform="matrix(1 0 0 1 57.1 51.44)">2</text>
</g>
</svg>