<svg xmlns="http://www.w3.org/2000/svg" xmlns:kvg="http://kanjivg.tagaini.net" height="109" meaning="thirty" viewBox="0 0 109 109" width="109">
<g id="kvg:StrokePaths_04e17" style="fill:none;stroke:#000000;stroke-width:3;stroke-linecap:round;stroke-linejoin:round;">
<g id="kvg:04e17" kvg:element="&#19991;">
	<g id="kvg:04e17-g1" kvg:element="&#21317;">
		<g id="kvg:04e17-g2" kvg:element="&#24318;">
			<g id="kvg:04e17-g3" kvg:element="&#24319;" kvg:part="1" kvg:variant="true">
				<g id="kvg:04e17-g4" kvg:element="&#21313;" kvg:part="1" kvg:radical="tradit">
					<path d="M12.75,51.7c1.52,0.54,4.31,0.68,5.82,0.54c11.18-0.99,53.93-5.49,72.11-5.73c2.53-0.03,4.05,0.26,5.31,0.53" id="kvg:04e17-s1" kvg:type="&#12752;" />
				</g>
			</g>
			<g id="kvg:04e17-g5" kvg:element="&#24029;" kvg:original="&#24027;" kvg:part="1" kvg:variant="true">
				<g id="kvg:04e17-g6" kvg:element="&#20031;" kvg:variant="true">
					<g id="kvg:04e17-g7" kvg:element="&#24319;" kvg:part="2" kvg:variant="true">
						<g id="kvg:04e17-g8" kvg:element="&#20008;" kvg:radical="nelson">
							<path d="M27.75,15.25c1.25,0.5,2,2.25,2.25,3.25c0.16,0.65,0.02,70.25-0.25,77" id="kvg:04e17-s2" kvg:type="&#12753;" />
						</g>
					</g>
				</g>
			</g>
			<g id="kvg:04e17-g9" kvg:element="&#24029;" kvg:original="&#24027;" kvg:part="2" kvg:variant="true">
				<g id="kvg:04e17-g10" kvg:element="&#21313;" kvg:part="2" kvg:radical="tradit">
					<g id="kvg:04e17-g11" kvg:element="&#24319;" kvg:part="3" kvg:variant="true">
						<path d="M52.75,15.25c1.25,0.5,2,2.25,2.25,3.25s0,66.75-0.25,73" id="kvg:04e17-s3" kvg:type="&#12753;" />
					</g>
				</g>
			</g>
		</g>
		<g id="kvg:04e17-g12" kvg:element="&#24029;" kvg:original="&#24027;" kvg:part="3" kvg:variant="true">
			<path d="M77.75,12.75C79,13.25,79.75,15,80,16s0,71.25-0.25,77.5" id="kvg:04e17-s4" kvg:type="&#12753;" />
		</g>
	</g>
	<g id="kvg:04e17-g13" kvg:element="&#24319;" kvg:part="4" kvg:variant="true">
		<path d="M30.5,93.75c7-0.75,43.17-3.8,48.96-3.36" id="kvg:04e17-s5" kvg:type="&#12752;" />
	</g>
</g>
</g>
<g id="kvg:StrokeNumbers_04e17" style="font-size:8;fill:#808080">
	<text transform="matrix(1 0 0 1 5.25 52.88)">1</text>
	<text transform="matrix(1 0 0 1 19.50 16.50)">2</text>
	<text transform="matrix(1 0 0 1 42.75 16.50)">3</text>
	<text transform="matrix(1 0 0 1 70.00 15.40)">4</text>
	<text transform="matrix(1 0 0 1 34.50 89.50)">5</text>
</g>
</svg>