<svg xmlns="http://www.w3.org/2000/svg" xmlns:kvg="http://kanjivg.tagaini.net" height="109" kun="&#12363;.&#12388;" meaning="moreover, also, furthermore" on="&#12471;&#12519;, &#12477;, &#12471;&#12519;&#12454;" viewBox="0 0 109 109" width="109">
<g id="kvg:StrokePaths_04e14" style="fill:none;stroke:#000000;stroke-width:3;stroke-linecap:round;stroke-linejoin:round;">
<g id="kvg:04e14" kvg:element="&#19988;">
	<g id="kvg:04e14-g1" kvg:element="&#26376;" kvg:variant="true">
		<path d="M33.75,19.87c0.75,1.05,1.25,2.3,1.25,3.36c0,4.77,0.3,62.69,0.21,64.96" id="kvg:04e14-s1" kvg:type="&#12753;a" />
		<path d="M35.97,21.78c2.97-0.11,30.42-3.03,32.62-3.2c3.96-0.31,4.97,0.67,4.97,5.05c0,1.51-0.06,40.88-0.06,61.5" id="kvg:04e14-s2" kvg:type="&#12757;b" />
		<path d="M36.32,43.24c10.13-1.02,26.94-2.22,35.84-2.54" id="kvg:04e14-s3" kvg:type="&#12752;a" />
		<path d="M36.42,65c8.83-0.75,26.71-2.29,35.86-2.34" id="kvg:04e14-s4" kvg:type="&#12752;a" />
	</g>
	<g id="kvg:04e14-g2" kvg:element="&#19968;" kvg:radical="general">
		<path d="M16.04,89.56c3.29,0.97,7.12,0.64,10.47,0.41C41.09,89,63.75,87.5,84.62,86.83c3.34-0.11,6.7,0.05,10.01,0.64" id="kvg:04e14-s5" kvg:type="&#12752;" />
	</g>
</g>
</g>
<g id="kvg:StrokeNumbers_04e14" style="font-size:8;fill:#808080">
	<text transform="matrix(1 0 0 1 27.50 28.50)">1</text>
	<text transform="matrix(1 0 0 1 36.50 18.50)">2</text>
	<text transform="matrix(1 0 0 1 38.50 39.50)">3</text>
	<text transform="matrix(1 0 0 1 38.33 61.42)">4</text>
	<text transform="matrix(1 0 0 1 13.50 86.50)">5</text>
</g>
</svg>