<svg xmlns="http://www.w3.org/2000/svg" xmlns:kvg="http://kanjivg.tagaini.net" height="109" meaning="saguaro-like kanji, horn-shaped locks of hair, young, tender" viewBox="0 0 109 109" width="109">
<g id="kvg:StrokePaths_04e31" style="fill:none;stroke:#000000;stroke-width:3;stroke-linecap:round;stroke-linejoin:round;">
<g id="kvg:04e31" kvg:element="&#20017;">
	<g id="kvg:04e31-g1" kvg:position="left">
		<path d="M19.27,28.83c0.98,0.92,1.67,1.99,1.76,5.02c0.15,5.47-0.27,15.4-0.9,26.4C19.99,62.4,20.86,63.36,23,63c7.5-1.25,18.28-2.5,21-2.75" id="kvg:04e31-s1" kvg:type="&#12740;" />
		<g id="kvg:04e31-g2" kvg:element="&#20031;">
			<path d="M42.54,16.75c1.21,1.75,1.81,4.16,1.81,7.08c0,48.67,1.9,62.67-22.3,78.64" id="kvg:04e31-s2" kvg:type="&#12754;" />
		</g>
	</g>
	<g id="kvg:04e31-g3" kvg:position="right">
		<g id="kvg:04e31-g4" kvg:element="&#20008;" kvg:radical="general">
			<path d="M88.77,19.33c0.98,0.92,1.76,1.99,1.76,5.02c0,8.4,0.1,25.15,0.1,36.4" id="kvg:04e31-s3" kvg:type="&#12753;" />
		</g>
		<path d="M66.75,59.5C70,59.5,86.5,57.5,90.75,57" id="kvg:04e31-s4" kvg:type="&#12752;" />
		<path d="M64.27,11.33c0.98,0.92,1.67,1.99,1.76,5.02c0.15,5.47,0.1,68.65,0.1,83.4" id="kvg:04e31-s5" kvg:type="&#12753;" />
	</g>
</g>
</g>
<g id="kvg:StrokeNumbers_04e31" style="font-size:8;fill:#808080">
	<text transform="matrix(1 0 0 1 10.50 29.50)">1</text>
	<text transform="matrix(1 0 0 1 33.50 16.50)">2</text>
	<text transform="matrix(1 0 0 1 80.50 17.50)">3</text>
	<text transform="matrix(1 0 0 1 71.50 55.50)">4</text>
	<text transform="matrix(1 0 0 1 58.50 8.50)">5</text>
</g>
</svg>