<svg xmlns="http://www.w3.org/2000/svg" xmlns:kvg="http://kanjivg.tagaini.net" height="109" kun="&#12402;&#12373;.&#12375;&#12356;" meaning="long time, old story" on="&#12461;&#12517;&#12454;, &#12463;" viewBox="0 0 109 109" width="109">
<g id="kvg:StrokePaths_04e45" style="fill:none;stroke:#000000;stroke-width:3;stroke-linecap:round;stroke-linejoin:round;">
<g id="kvg:04e45" kvg:element="&#20037;">
	<g id="kvg:04e45-g1" kvg:element="&#131210;" kvg:original="&#21241;" kvg:variant="true">
		<g id="kvg:04e45-g2" kvg:element="&#20031;" kvg:radical="general">
			<path d="M43.75,16c0.07,0.91,0.14,2.36-0.13,3.67c-1.62,7.73-10.4,25.2-23.11,35.58" id="kvg:04e45-s1" kvg:type="&#12754;" />
		</g>
		<path d="M43.25,30.38c1.75,0.37,3.25,0.34,5.25,0.1c4-0.48,11.24-2.14,13.44-2.74c4.06-1.11,5.44,0.89,4.31,4.01c-6.23,17.3-25.62,46-51.5,58" id="kvg:04e45-s2" kvg:type="&#12743;" />
	</g>
	<path d="M53.75,56.25c8,6.62,21.72,21.01,29.79,28.59c2.65,2.49,5.58,4.78,8.33,5.78" id="kvg:04e45-s3" kvg:type="&#12751;" />
</g>
</g>
<g id="kvg:StrokeNumbers_04e45" style="font-size:8;fill:#808080">
	<text transform="matrix(1 0 0 1 35.99 18.13)">1</text>
	<text transform="matrix(1 0 0 1 48.75 27.13)">2</text>
	<text transform="matrix(1 0 0 1 63.75 61.63)">3</text>
</g>
</svg>