<svg xmlns="http://www.w3.org/2000/svg" xmlns:kvg="http://kanjivg.tagaini.net" height="109" kun="&#12371;&#12371;&#12398;, &#12371;&#12371;&#12398;.&#12388;" meaning="nine" on="&#12461;&#12517;&#12454;, &#12463;" viewBox="0 0 109 109" width="109">
<g id="kvg:StrokePaths_04e5d" style="fill:none;stroke:#000000;stroke-width:3;stroke-linecap:round;stroke-linejoin:round;">
<g id="kvg:04e5d" kvg:element="&#20061;">
	<g id="kvg:04e5d-g1" kvg:element="&#20031;" kvg:radical="nelson">
		<path d="M41.88,14.38c1,1.38,1.5,3.25,1.5,5.12c0,40.13-9.12,57.5-28.5,68.75" id="kvg:04e5d-s1" kvg:type="&#12754;" />
	</g>
	<g id="kvg:04e5d-g2" kvg:element="&#20057;" kvg:radical="tradit">
		<path d="M13.5,45.75c2.88,0.85,5.78,0.05,8.58-0.66c8.47-2.14,39.88-9.79,40.92-9.84c2.5-0.12,4.75,0.5,4.25,4.75c-0.5,4.25-5.5,20.75-7,32.5c-2.23,17.46,2,19.37,18.21,19.37c13.79,0,19.01-1.07,19.27-10.12" id="kvg:04e5d-s2" kvg:type="&#12744;" />
	</g>
</g>
</g>
<g id="kvg:StrokeNumbers_04e5d" style="font-size:8;fill:#808080">
	<text transform="matrix(1 0 0 1 32.50 14.50)">1</text>
	<text transform="matrix(1 0 0 1 5.50 46.63)">2</text>
</g>
</svg>