<svg xmlns="http://www.w3.org/2000/svg" xmlns:kvg="http://kanjivg.tagaini.net" height="109" kun="&#12356;.&#12358;, &#12371;&#12371;&#12395;" meaning="say" on="&#12454;&#12531;" viewBox="0 0 109 109" width="109">
<g id="kvg:StrokePaths_04e91" style="fill:none;stroke:#000000;stroke-width:3;stroke-linecap:round;stroke-linejoin:round;">
<g id="kvg:04e91" kvg:element="&#20113;">
	<g id="kvg:04e91-g1" kvg:element="&#20108;" kvg:position="top" kvg:radical="general">
		<path d="M29.25,23.2c3.43,0.48,6.61,0.59,10,0.06c8.9-1.4,18.6-2.01,28.76-2.88c3.15-0.37,6.31-0.14,9.49,0.2" id="kvg:04e91-s1" kvg:type="&#12752;" />
		<path d="M15,47.97c4.14,0.62,8.28,1.04,12.38,0.51c17.24-2.23,38.6-3.32,54.1-4.25c4.17-0.33,8.34,0.03,12.51,0.59" id="kvg:04e91-s2" kvg:type="&#12752;" />
	</g>
	<g id="kvg:04e91-g2" kvg:element="&#21430;" kvg:position="bottom">
		<path d="M50.15,50.62c0.49,2.19-0.38,3.73-1.72,5.7C39.88,68.88,34.48,74.43,25.9,84.89c-3.38,4.12-2.64,4.83,1.97,3.81c15.01-3.33,33.08-7.03,49.26-10.59" id="kvg:04e91-s3" kvg:type="&#12764;" />
		<path d="M72.25,67.75c5.86,4.2,14.34,17.18,15.81,23.72" id="kvg:04e91-s4" kvg:type="&#12756;" />
	</g>
</g>
</g>
<g id="kvg:StrokeNumbers_04e91" style="font-size:8;fill:#808080">
	<text transform="matrix(1 0 0 1 22.50 22.50)">1</text>
	<text transform="matrix(1 0 0 1 8.25 47.50)">2</text>
	<text transform="matrix(1 0 0 1 38.50 58.50)">3</text>
	<text transform="matrix(1 0 0 1 65.25 61.63)">4</text>
</g>
</svg>