<svg xmlns="http://www.w3.org/2000/svg" xmlns:kvg="http://kanjivg.tagaini.net" height="109" meaning="foe, enemy, revenge, grudge, feud" viewBox="0 0 109 109" width="109">
<g id="kvg:StrokePaths_04ec7" style="fill:none;stroke:#000000;stroke-width:3;stroke-linecap:round;stroke-linejoin:round;">
<g id="kvg:04ec7" kvg:element="&#20167;">
	<g id="kvg:04ec7-g1" kvg:element="&#20155;" kvg:original="&#20154;" kvg:position="left" kvg:radical="general" kvg:variant="true">
		<path d="M34.47,15.14c0.15,1.2,0.08,2.47-0.39,3.92c-2.96,9.31-12.21,26.19-24.78,39.9" id="kvg:04ec7-s1" kvg:type="&#12754;" />
		<path d="M25.78,41c0.92,0.92,1.26,2,1.26,3.73c0,9.56-0.02,27.79-0.03,40.27C27,89.53,27,93.3,27,95.62" id="kvg:04ec7-s2" kvg:type="&#12753;" />
	</g>
	<g id="kvg:04ec7-g2" kvg:element="&#20061;" kvg:position="right">
		<path d="M58.18,13.62c0.91,0.91,1.18,2.3,1.2,3.48c0.62,43.02-6,65.77-22.88,77.65" id="kvg:04ec7-s3" kvg:type="&#12754;" />
		<g id="kvg:04ec7-g3" kvg:element="&#20057;">
			<path d="M40,39.25c2.75,0.75,4.93,0.4,7.75-0.11c7.5-1.4,25.63-4.99,31-6.12c3.49-0.73,3.78,0.55,3.19,3.84c-1.69,9.51-4.07,26.76-5.69,37.64C74.23,88.04,76,93,85,93c9.75,0,10.25-1.25,10.25-7.75" id="kvg:04ec7-s4" kvg:type="&#12744;" />
		</g>
	</g>
</g>
</g>
<g id="kvg:StrokeNumbers_04ec7" style="font-size:8;fill:#808080">
	<text transform="matrix(1 0 0 1 26.35 14.50)">1</text>
	<text transform="matrix(1 0 0 1 19.66 57.50)">2</text>
	<text transform="matrix(1 0 0 1 48.71 12.50)">3</text>
	<text transform="matrix(1 0 0 1 38.50 35.50)">4</text>
</g>
</svg>