<svg xmlns="http://www.w3.org/2000/svg" xmlns:kvg="http://kanjivg.tagaini.net" height="109" kun="&#12399;&#12383;&#12425;.&#12367;" meaning="surplus or excess, remainder" on="&#12489;&#12454;, &#12522;&#12517;&#12463;, &#12522;&#12461;, &#12525;&#12463;, &#12522;&#12519;&#12463;" viewBox="0 0 109 109" width="109">
<g id="kvg:StrokePaths_04ec2" style="fill:none;stroke:#000000;stroke-width:3;stroke-linecap:round;stroke-linejoin:round;">
<g id="kvg:04ec2" kvg:element="&#20162;">
	<g id="kvg:04ec2-g1" kvg:element="&#20155;" kvg:original="&#20154;" kvg:position="left" kvg:radical="tradit" kvg:variant="true">
		<path d="M32.99,15.39c0.14,1.17,0.24,2.64-0.12,4.08c-2.29,9.09-11.14,26.67-21.81,39" id="kvg:04ec2-s1" kvg:type="&#12754;" />
		<path d="M27.01,39.5c0.63,0.65,0.81,2.1,0.81,3.45c0,13.9-0.31,42.84-0.31,52.18" id="kvg:04ec2-s2" kvg:type="&#12753;" />
	</g>
	<g id="kvg:04ec2-g2" kvg:element="&#21147;" kvg:position="right">
		<path d="M40.41,38.12c1.32,0.77,2.97,0.58,4.15,0.42c11.09-1.52,37.59-5.51,42.89-5.79c5.27-0.28,5.55,2.31,5.39,5.91c-0.59,13.59-4.59,40.84-11.38,53.52c-4.17,7.79-7.7,0.35-9.07-0.77" id="kvg:04ec2-s3" kvg:type="&#12742;" />
		<path d="M68.43,14.18c0.32,1.57,0.38,2.56,0.35,5.12C68.5,40.75,60,74.5,42.39,89.4" id="kvg:04ec2-s4" kvg:type="&#12754;" />
	</g>
</g>
</g>
<g id="kvg:StrokeNumbers_04ec2" style="font-size:8;fill:#808080">
	<text transform="matrix(1 0 0 1 23.50 14.50)">1</text>
	<text transform="matrix(1 0 0 1 20.50 56.50)">2</text>
	<text transform="matrix(1 0 0 1 38.50 34.50)">3</text>
	<text transform="matrix(1 0 0 1 58.50 13.40)">4</text>
</g>
</svg>