<svg xmlns="http://www.w3.org/2000/svg" xmlns:kvg="http://kanjivg.tagaini.net" height="109" meaning="man with shellfish kanji" viewBox="0 0 109 109" width="109">
<g id="kvg:StrokePaths_04ef7" style="fill:none;stroke:#000000;stroke-width:3;stroke-linecap:round;stroke-linejoin:round;">
<g id="kvg:04ef7" kvg:element="&#20215;">
	<g id="kvg:04ef7-g1" kvg:element="&#20155;" kvg:original="&#20154;" kvg:position="left" kvg:radical="general" kvg:variant="true">
		<path d="M31.5,17.39c0.13,1.05,0.23,2.38-0.12,3.67c-2.19,8.2-10.64,24.04-20.82,35.15" id="kvg:04ef7-s1" kvg:type="&#12754;" />
		<path d="M26.03,40c0.59,0.61,0.76,1.97,0.76,3.23c0,13.02-0.29,42.15-0.29,50.9" id="kvg:04ef7-s2" kvg:type="&#12753;" />
	</g>
	<g id="kvg:04ef7-g2" kvg:element="&#20171;" kvg:position="right">
		<g id="kvg:04ef7-g3" kvg:element="&#20154;" kvg:position="top">
			<path d="M62.52,12.25c0.07,0.95,0.25,2.5-0.15,3.83c-2.44,8.24-12.46,26.47-25.87,36.7" id="kvg:04ef7-s3" kvg:type="&#12754;" />
			<path d="M63.04,17.05c5.75,7.42,19.95,21.89,27.35,27.81c1.63,1.31,3.55,2.03,5.11,2.43" id="kvg:04ef7-s4" kvg:type="&#12751;" />
		</g>
		<g id="kvg:04ef7-g4" kvg:position="bottom">
			<g id="kvg:04ef7-g5" kvg:element="&#20031;">
				<path d="M51.98,46.69c0.41,1.29,1,2.31,1,3.92c0,14.75,0.37,33.43-12.33,43.61" id="kvg:04ef7-s5" kvg:type="&#12754;" />
			</g>
			<g id="kvg:04ef7-g6" kvg:element="&#20008;">
				<path d="M75.7,43.77c0.76,0.49,1.22,2.22,1.38,3.2c0.15,0.99,0,43.63-0.15,49.79" id="kvg:04ef7-s6" kvg:type="&#12753;" />
			</g>
		</g>
	</g>
</g>
</g>
<g id="kvg:StrokeNumbers_04ef7" style="font-size:8;fill:#808080">
	<text transform="matrix(1 0 0 1 22.50 16.50)">1</text>
	<text transform="matrix(1 0 0 1 19.50 55.50)">2</text>
	<text transform="matrix(1 0 0 1 53.50 12.50)">3</text>
	<text transform="matrix(1 0 0 1 69.50 21.50)">4</text>
	<text transform="matrix(1 0 0 1 44.50 54.50)">5</text>
	<text transform="matrix(1 0 0 1 65.25 44.50)">6</text>
</g>
</svg>