<svg xmlns="http://www.w3.org/2000/svg" xmlns:kvg="http://kanjivg.tagaini.net" height="109" kun="&#12388;&#12383;.&#12431;&#12427;, &#12388;&#12383;.&#12360;&#12427;, &#12388;&#12383;.&#12358;, &#12388;&#12384;.&#12358;, -&#12389;&#12383;.&#12356;, &#12388;&#12390;" meaning="transmit, go along, walk along, follow, report, communicate, legend, tradition" on="&#12487;&#12531;, &#12486;&#12531;" viewBox="0 0 109 109" width="109">
<g id="kvg:StrokePaths_04f1d" style="fill:none;stroke:#000000;stroke-width:3;stroke-linecap:round;stroke-linejoin:round;">
<g id="kvg:04f1d" kvg:element="&#20253;">
	<g id="kvg:04f1d-g1" kvg:element="&#20155;" kvg:original="&#20154;" kvg:position="left" kvg:radical="general" kvg:variant="true">
		<path d="M31.61,20c0.14,1.25,0.07,2.47-0.47,3.93c-4.39,11.82-9.77,22.13-19.64,36.36" id="kvg:04f1d-s1" kvg:type="&#12754;" />
		<path d="M26.03,41.5c0.97,1,1.5,2.42,1.5,3.88c0,10.94-0.02,30.36-0.03,41.25c0,2.61,0,4.73,0,6.12" id="kvg:04f1d-s2" kvg:type="&#12753;" />
	</g>
	<g id="kvg:04f1d-g2" kvg:element="&#20113;" kvg:phon="&#20113;/&#23560;V" kvg:position="right">
		<g id="kvg:04f1d-g3" kvg:element="&#20108;" kvg:position="top">
			<path d="M46.39,25.58c2.11,0.42,4.35,0.41,6.1,0.18c8.38-1.09,19.82-2.35,27.9-2.79c1.69-0.09,3.39-0.24,5.04,0.19" id="kvg:04f1d-s3" kvg:type="&#12752;" />
			<path d="M38.25,48.83c2.48,0.78,5.36,0.65,7.88,0.36c13.62-1.57,30.24-3.32,42.37-4.31c2.51-0.21,5.01-0.22,7.5,0.25" id="kvg:04f1d-s4" kvg:type="&#12752;" />
		</g>
		<g id="kvg:04f1d-g4" kvg:element="&#21430;" kvg:position="bottom">
			<path d="M64.15,50.85c0.37,1.15,0.35,2.59-0.3,4.04C59.75,64,54.75,73.75,47.43,84.62c-1.94,2.87-1.37,4.72,2.14,3.73c12.31-3.48,20.31-5.98,36.04-10.09" id="kvg:04f1d-s5" kvg:type="&#12764;" />
			<path d="M79.75,68.21c4.66,3.92,11.41,16.05,12.57,22.15" id="kvg:04f1d-s6" kvg:type="&#12756;" />
		</g>
	</g>
</g>
</g>
<g id="kvg:StrokeNumbers_04f1d" style="font-size:8;fill:#808080">
	<text transform="matrix(1 0 0 1 23.25 18.13)">1</text>
	<text transform="matrix(1 0 0 1 20.25 60.50)">2</text>
	<text transform="matrix(1 0 0 1 45.50 22.48)">3</text>
	<text transform="matrix(1 0 0 1 37.50 45.50)">4</text>
	<text transform="matrix(1 0 0 1 54.50 58.50)">5</text>
	<text transform="matrix(1 0 0 1 76.50 64.50)">6</text>
</g>
</svg>