<svg xmlns="http://www.w3.org/2000/svg" xmlns:kvg="http://kanjivg.tagaini.net" height="109" meaning="expand, stretch, extend, lengthen, increase" viewBox="0 0 109 109" width="109">
<g id="kvg:StrokePaths_04f38" style="fill:none;stroke:#000000;stroke-width:3;stroke-linecap:round;stroke-linejoin:round;">
<g id="kvg:04f38" kvg:element="&#20280;">
	<g id="kvg:04f38-g1" kvg:element="&#20155;" kvg:original="&#20154;" kvg:position="left" kvg:radical="general" kvg:variant="true">
		<path d="M34.24,15.89c0.13,1.14,0.24,2.56-0.12,3.96c-2.26,8.83-11.27,25.9-21.81,37.87" id="kvg:04f38-s1" kvg:type="&#12754;" />
		<path d="M28.24,39.25c1.07,1.07,1.09,2.45,1.09,3.85c0,12.73-0.06,33.71-0.07,47.9c0,2.14,0,4.12,0,5.88" id="kvg:04f38-s2" kvg:type="&#12753;" />
	</g>
	<g id="kvg:04f38-g2" kvg:element="&#30003;" kvg:phon="&#30003;" kvg:position="right">
		<g id="kvg:04f38-g3" kvg:element="&#30000;" kvg:partial="true">
			<path d="M42.27,33.43c1.09,1.09,1.48,1.93,1.66,3.59c1.07,10.36,1.63,18.16,2.49,28.22c0.2,2.29,0.37,4.46,0.52,6.43" id="kvg:04f38-s3" kvg:type="&#12753;" />
			<path d="M44.62,35.13c14.51-2.38,33.19-4.53,42.14-5.14c3.48-0.24,4.99,1.6,4.61,4.81c-0.69,5.73-1.83,17.54-3.24,26.52c-0.36,2.28-0.7,4.41-1.01,6.26" id="kvg:04f38-s4" kvg:type="&#12757;a" />
			<path d="M46.39,50.68c10.11-1.43,28.36-3.55,42.72-4.26" id="kvg:04f38-s5" kvg:type="&#12752;a" />
			<path d="M47.56,67.25c12.81-1.38,23.19-2.63,38.77-3.4" id="kvg:04f38-s6" kvg:type="&#12752;a" />
		</g>
		<g id="kvg:04f38-g4" kvg:element="&#20008;">
			<path d="M65.52,13.25c1.12,1.12,1.35,2.38,1.35,4.58c0,9.02-0.08,52.9-0.11,71.8c-0.01,4.51-0.01,7.61-0.01,8.5" id="kvg:04f38-s7" kvg:type="&#12753;" />
		</g>
	</g>
</g>
</g>
<g id="kvg:StrokeNumbers_04f38" style="font-size:8;fill:#808080">
	<text transform="matrix(1 0 0 1 25.50 15.50)">1</text>
	<text transform="matrix(1 0 0 1 21.75 56.50)">2</text>
	<text transform="matrix(1 0 0 1 36.75 43.50)">3</text>
	<text transform="matrix(1 0 0 1 46.50 31.50)">4</text>
	<text transform="matrix(1 0 0 1 50.50 46.55)">5</text>
	<text transform="matrix(1 0 0 1 51.36 63.50)">6</text>
	<text transform="matrix(1 0 0 1 56.50 14.50)">7</text>
</g>
</svg>