<svg xmlns="http://www.w3.org/2000/svg" xmlns:kvg="http://kanjivg.tagaini.net" height="109" meaning="actor, supporting post" viewBox="0 0 109 109" width="109">
<g id="kvg:StrokePaths_04f8f" style="fill:none;stroke:#000000;stroke-width:3;stroke-linecap:round;stroke-linejoin:round;">
<g id="kvg:04f8f" kvg:element="&#20367;">
	<g id="kvg:04f8f-g1" kvg:element="&#20155;" kvg:original="&#20154;" kvg:position="left" kvg:radical="general" kvg:variant="true">
		<path d="M31.99,17.39c0.14,1.13,0.24,2.55-0.12,3.93c-2.34,8.78-11.39,25.75-22.3,37.64" id="kvg:04f8f-s1" kvg:type="&#12754;" />
		<path d="M25.49,41c0.66,0.68,0.84,2.19,0.84,3.58c0,14.46-0.32,41.08-0.32,50.79" id="kvg:04f8f-s2" kvg:type="&#12753;" />
	</g>
	<g id="kvg:04f8f-g2" kvg:element="&#26417;" kvg:position="right">
		<path d="M49.49,20.86c0.03,0.57,0.11,1.64-0.06,2.28c-2.01,8.02-4.98,15.38-10.22,21.85" id="kvg:04f8f-s3" kvg:type="&#12754;" />
		<g id="kvg:04f8f-g3" kvg:element="&#26410;">
			<path d="M48.49,32.5c0.67,0.27,2.41,0.3,3.08,0.27c7.01-0.31,21.48-2.7,30.01-3.6c1.12-0.12,1.8,0.13,2.36,0.27" id="kvg:04f8f-s4" kvg:type="&#12752;" />
			<g id="kvg:04f8f-g4" kvg:element="&#26408;">
				<path d="M35.39,54c0.8,0.24,2.94,0.42,5.07,0.23c8.47-0.73,33.91-4.62,48.59-5.84c2.13-0.18,4.02,0.24,5.35,0.49" id="kvg:04f8f-s5" kvg:type="&#12752;" />
				<path d="M61.98,12.75c1.14,0.49,1.82,2.2,2.05,3.17s0,75.97-0.23,82.08" id="kvg:04f8f-s6" kvg:type="&#12753;" />
				<path d="M63.25,52.54C58.43,63.4,45.97,79.86,35.95,86" id="kvg:04f8f-s7" kvg:type="&#12754;" />
				<path d="M64.35,52.31c4.22,6.65,22.06,25.66,28.35,31.22c1.57,1.39,2.83,2.1,4.35,2.52" id="kvg:04f8f-s8" kvg:type="&#12751;" />
			</g>
		</g>
	</g>
</g>
</g>
<g id="kvg:StrokeNumbers_04f8f" style="font-size:8;fill:#808080">
	<text transform="matrix(1 0 0 1 23.50 16.50)">1</text>
	<text transform="matrix(1 0 0 1 18.50 56.50)">2</text>
	<text transform="matrix(1 0 0 1 40.50 21.50)">3</text>
	<text transform="matrix(1 0 0 1 53.50 29.50)">4</text>
	<text transform="matrix(1 0 0 1 41.50 50.85)">5</text>
	<text transform="matrix(1 0 0 1 52.50 12.50)">6</text>
	<text transform="matrix(1 0 0 1 51.50 62.50)">7</text>
	<text transform="matrix(1 0 0 1 72.50 60.50)">8</text>
</g>
</svg>