<svg xmlns="http://www.w3.org/2000/svg" xmlns:kvg="http://kanjivg.tagaini.net" height="109" meaning="vulgar, customs, manners, worldliness, mundane things" viewBox="0 0 109 109" width="109">
<g id="kvg:StrokePaths_04fd7" style="fill:none;stroke:#000000;stroke-width:3;stroke-linecap:round;stroke-linejoin:round;">
<g id="kvg:04fd7" kvg:element="&#20439;">
	<g id="kvg:04fd7-g1" kvg:element="&#20155;" kvg:original="&#20154;" kvg:position="left" kvg:radical="general" kvg:variant="true">
		<path d="M30.5,17.89c0.12,1.12-0.03,2.27-0.36,3.64c-2.08,8.68-10.1,25.46-19.77,37.22" id="kvg:04fd7-s1" kvg:type="&#12754;" />
		<path d="M24.03,41c0.98,0.98,1.26,2,1.26,3.73c0,10.48,0.06,29.7-0.01,41.27c-0.02,2.8-0.03,5.17-0.03,6.88" id="kvg:04fd7-s2" kvg:type="&#12753;" />
	</g>
	<g id="kvg:04fd7-g2" kvg:element="&#35895;" kvg:phon="&#35895;" kvg:position="right">
		<g id="kvg:04fd7-g3" kvg:position="top">
			<path d="M52.49,20.23c0.08,0.98,0.01,1.61-0.41,2.5c-2.06,4.33-5.67,9.7-12.45,15.89" id="kvg:04fd7-s3" kvg:type="&#12754;" />
			<path d="M75.38,18.12c5.6,3.78,12.41,11,14.33,14.87" id="kvg:04fd7-s4" kvg:type="&#12756;" />
		</g>
		<g id="kvg:04fd7-g4" kvg:position="bottom">
			<path d="M63.45,35.38c0.17,1.12,0.09,2.03-0.4,3.03C58,48.75,50,58.75,36.98,67.71" id="kvg:04fd7-s5" kvg:type="&#12754;" />
			<path d="M64.28,40.1c7.48,6.69,15.41,13.36,21.79,17.74c2.75,1.88,5.18,3.03,8.87,4.47" id="kvg:04fd7-s6" kvg:type="&#12751;" />
			<g id="kvg:04fd7-g5" kvg:element="&#21475;">
				<path d="M46.99,69.23c0.78,0.79,1.15,1.76,1.38,2.86c0.8,3.8,2.39,12.21,3.32,17.3c0.39,2.15,0.67,3.71,0.71,4.07" id="kvg:04fd7-s7" kvg:type="&#12753;" />
				<path d="M48.99,69.96c10.88-1.08,21.01-2.11,27.54-2.92c4.03-0.5,5.65,1.15,4.67,5.1c-1.25,5.02-2.07,9.12-3.33,15.45" id="kvg:04fd7-s8" kvg:type="&#12757;b" />
				<path d="M53.4,90.6c7.08-0.49,13.74-0.97,21.62-1.67c1.28-0.11,2.98-0.1,4.39-0.1" id="kvg:04fd7-s9" kvg:type="&#12752;b" />
			</g>
		</g>
	</g>
</g>
</g>
<g id="kvg:StrokeNumbers_04fd7" style="font-size:8;fill:#808080">
	<text transform="matrix(1 0 0 1 23.25 18.50)">1</text>
	<text transform="matrix(1 0 0 1 17.50 59.50)">2</text>
	<text transform="matrix(1 0 0 1 43.50 19.50)">3</text>
	<text transform="matrix(1 0 0 1 68.25 15.13)">4</text>
	<text transform="matrix(1 0 0 1 54.50 37.50)">5</text>
	<text transform="matrix(1 0 0 1 71.50 42.13)">6</text>
	<text transform="matrix(1 0 0 1 41.25 78.50)">7</text>
	<text transform="matrix(1 0 0 1 52.50 66.50)">8</text>
	<text transform="matrix(1 0 0 1 56.50 87.05)">9</text>
</g>
</svg>