<svg xmlns="http://www.w3.org/2000/svg" xmlns:kvg="http://kanjivg.tagaini.net" height="109" kun="&#12383;&#12367;&#12415;" meaning="skill" on="&#12522;&#12519;&#12454;" viewBox="0 0 109 109" width="109">
<g id="kvg:StrokePaths_05006" style="fill:none;stroke:#000000;stroke-width:3;stroke-linecap:round;stroke-linejoin:round;">
<g id="kvg:05006" kvg:element="&#20486;">
	<g id="kvg:05006-g1" kvg:element="&#20155;" kvg:original="&#20154;" kvg:position="left" kvg:radical="general" kvg:variant="true">
		<path d="M30,15.39c0.12,1.15,0.21,2.59-0.11,4.01c-2,8.93-9.75,26.21-19.09,38.32" id="kvg:05006-s1" kvg:type="&#12754;" />
		<path d="M23.94,39c0.74,0.76,0.95,2.46,0.95,4.04c0,16.29-0.36,41.89-0.36,52.84" id="kvg:05006-s2" kvg:type="&#12753;" />
	</g>
	<g id="kvg:05006-g2" kvg:element="&#20841;" kvg:position="right">
		<path d="M41.47,21.93c1.39,0.44,2.32,0.7,3.7,0.65c6.23-0.2,24.87-3.2,37.83-3.94c1.85-0.11,3.25-0.13,5.33,0.31" id="kvg:05006-s3" kvg:type="&#12752;" />
		<g id="kvg:05006-g3" kvg:element="&#20866;">
			<path d="M37.75,42.27c0.14,0.69,0.97,3.78,1.11,5.18c1.06,10.25,1.31,39.96,1.31,44.57" id="kvg:05006-s4" kvg:type="&#12753;" />
			<path d="M39.06,45.71c9.87-0.96,45.96-5.76,52.17-6.5c2.01-0.24,3.7,0.97,3.63,3.61c-0.35,13.43-2.35,33.93-5.61,46.35c-1.81,6.9-4.63,4.82-7.25,0" id="kvg:05006-s5" kvg:type="&#12742;a" />
		</g>
		<path d="M63.94,23.34c1.01,1.2,1.81,2.65,1.81,4.33c0,0.96-0.6,60.52-0.6,63.17" id="kvg:05006-s6" kvg:type="&#12753;" />
		<g id="kvg:05006-g4" kvg:element="&#20837;">
			<path d="M52.43,58.88c-1.44,3.85-5.18,9.31-8.17,11.49" id="kvg:05006-s7" kvg:type="&#12754;" />
			<path d="M46.8,52.4c0.51,0,0.97,0.42,1.22,0.72c4.07,5.08,8.69,10.3,12.46,13.89c0.43,0.41,0.83,0.55,1.28,0.67" id="kvg:05006-s8" kvg:type="&#12751;" />
		</g>
		<g id="kvg:05006-g5" kvg:element="&#20837;">
			<path d="M78.62,56.3c-1.41,3.5-5.06,8.45-7.99,10.43" id="kvg:05006-s9" kvg:type="&#12754;" />
			<path d="M74.09,50.73c0.49,0,0.97,0.37,1.16,0.69c2.88,4.71,7.23,9.95,11.89,13.24c0.47,0.33,0.8,0.53,1.23,0.64" id="kvg:05006-s10" kvg:type="&#12751;" />
		</g>
	</g>
</g>
</g>
<g id="kvg:StrokeNumbers_05006" style="font-size:8;fill:#808080">
	<text transform="matrix(1 0 0 1 21.50 15.50)">1</text>
	<text transform="matrix(1 0 0 1 17.50 57.50)">2</text>
	<text transform="matrix(1 0 0 1 40.50 19.50)">3</text>
	<text transform="matrix(1 0 0 1 31.50 51.50)">4</text>
	<text transform="matrix(1 0 0 1 41.50 41.50)">5</text>
	<text transform="matrix(1 0 0 1 57.50 31.50)">6</text>
	<text transform="matrix(1 0 0 1 44.69 64.72)">7</text>
	<text transform="matrix(1 0 0 1 51.19 53.65)">8</text>
	<text transform="matrix(1 0 0 1 70.19 60.33)">9</text>
	<text transform="matrix(1 0 0 1 76.50 51.50)">10</text>
</g>
</svg>