<svg xmlns="http://www.w3.org/2000/svg" xmlns:kvg="http://kanjivg.tagaini.net" height="109" kun="&#12379;&#12364;&#12428;" meaning="son, my son" on="&#12469;&#12452;, &#12477;&#12484;, &#12477;&#12481;" viewBox="0 0 109 109" width="109">
<g id="kvg:StrokePaths_05005" style="fill:none;stroke:#000000;stroke-width:3;stroke-linecap:round;stroke-linejoin:round;">
<g id="kvg:05005" kvg:element="&#20485;">
	<g id="kvg:05005-g1" kvg:element="&#20155;" kvg:original="&#20154;" kvg:position="left" kvg:radical="general" kvg:variant="true">
		<path d="M33.49,16.89c0.14,1.1,0.24,2.47-0.12,3.82c-2.34,8.51-11.39,24.97-22.3,36.51" id="kvg:05005-s1" kvg:type="&#12754;" />
		<path d="M24.99,41.5c0.66,0.68,0.84,2.19,0.84,3.58c0,14.46-0.32,38.08-0.32,47.79" id="kvg:05005-s2" kvg:type="&#12753;" />
	</g>
	<g id="kvg:05005-g2" kvg:element="&#21330;" kvg:position="right">
		<g id="kvg:05005-g3" kvg:position="top">
			<g id="kvg:05005-g4" kvg:element="&#20128;">
				<path d="M64.64,13c0.49,0.47,1.3,2.26,1.3,3.19c0,3.41-0.16,6.69-0.06,9.57" id="kvg:05005-s3" kvg:type="&#12753;a" />
				<path d="M40.96,27.81c0.95,0.06,3.14,0.42,4.06,0.33c7.5-0.69,34.16-3.54,43.68-3.72c1.57-0.03,2.38,0.03,3.55,0.42" id="kvg:05005-s4" kvg:type="&#12752;" />
			</g>
			<g id="kvg:05005-g5" kvg:element="&#20174;">
				<g id="kvg:05005-g6" kvg:element="&#20154;" kvg:position="left">
					<path d="M53.61,33.99c0,0.52,0.03,0.94-0.09,1.57c-0.62,3.28-6.49,14.21-11.51,19.06" id="kvg:05005-s5" kvg:type="&#12754;" />
					<path d="M52.55,42.53c3.43,1.49,7.81,5.46,9.48,9.22" id="kvg:05005-s6" kvg:type="&#12751;" />
				</g>
				<g id="kvg:05005-g7" kvg:element="&#20154;" kvg:position="right">
					<path d="M78.85,30.99c0,0.53,0.03,0.95-0.09,1.59c-0.62,3.32-6.51,14.38-11.55,19.29" id="kvg:05005-s7" kvg:type="&#12754;" />
					<path d="M76.11,41.46c4.45,1.91,10.12,6.98,12.29,11.79" id="kvg:05005-s8" kvg:type="&#12751;" />
				</g>
			</g>
		</g>
		<g id="kvg:05005-g8" kvg:element="&#21313;" kvg:position="bottom">
			<path d="M36.5,69.98c1.51,0.54,4.27,0.65,5.78,0.54c14.97-1.02,38.23-3.54,51.45-3.75c2.51-0.04,4.02,0.26,5.27,0.53" id="kvg:05005-s9" kvg:type="&#12752;" />
			<path d="M65.14,59.5c0.67,0.56,2.21,2.5,2.21,5.3c0,1.13-0.09,25.71-0.22,32.7" id="kvg:05005-s10" kvg:type="&#12753;" />
		</g>
	</g>
</g>
</g>
<g id="kvg:StrokeNumbers_05005" style="font-size:8;fill:#808080">
	<text transform="matrix(1 0 0 1 24.50 15.50)">1</text>
	<text transform="matrix(1 0 0 1 18.50 57.50)">2</text>
	<text transform="matrix(1 0 0 1 55.50 10.50)">3</text>
	<text transform="matrix(1 0 0 1 39.50 24.50)">4</text>
	<text transform="matrix(1 0 0 1 45.50 37.50)">5</text>
	<text transform="matrix(1 0 0 1 57.50 43.50)">6</text>
	<text transform="matrix(1 0 0 1 70.50 34.68)">7</text>
	<text transform="matrix(1 0 0 1 82.50 42.50)">8</text>
	<text transform="matrix(1 0 0 1 34.50 66.50)">9</text>
	<text transform="matrix(1 0 0 1 54.44 62.46)">10</text>
</g>
</svg>