<svg xmlns="http://www.w3.org/2000/svg" xmlns:kvg="http://kanjivg.tagaini.net" height="109" kun="&#12383;&#12385;&#12414;&#12385;" meaning="quick, prompt" on="&#12471;&#12517;&#12463;" viewBox="0 0 109 109" width="109">
<g id="kvg:StrokePaths_0500f" style="fill:none;stroke:#000000;stroke-width:3;stroke-linecap:round;stroke-linejoin:round;">
<g id="kvg:0500f" kvg:element="&#20495;">
	<g id="kvg:0500f-g1" kvg:element="&#25912;" kvg:part="1" kvg:position="left">
		<g id="kvg:0500f-g2" kvg:element="&#20155;" kvg:original="&#20154;" kvg:position="left" kvg:variant="true">
			<path d="M29.77,17c0.2,1.95-0.05,4.51-0.69,6.18C25,33.83,19.84,43.83,10.5,56.79" id="kvg:0500f-s1" kvg:type="&#12754;" />
			<path d="M23.53,45c0.47,1,1.25,1.94,1.25,3.23c0,14.27-0.53,33.27-0.53,44.02" id="kvg:0500f-s2" kvg:type="&#12753;" />
		</g>
		<g id="kvg:0500f-g3" kvg:element="&#20008;" kvg:position="right">
			<path d="M36.27,26.83c0.98,0.92,1.67,1.99,1.76,5.02C38.42,46.41,38,80.54,38,85.5" id="kvg:0500f-s3" kvg:type="&#12753;" />
		</g>
	</g>
	<g id="kvg:0500f-g4" kvg:position="right">
		<g id="kvg:0500f-g5" kvg:element="&#25912;" kvg:part="2" kvg:position="top">
			<g id="kvg:0500f-g6" kvg:element="&#25908;" kvg:original="&#25909;" kvg:variant="true">
				<g id="kvg:0500f-g7" kvg:position="top">
					<path d="M59.34,11.64c0.04,0.65,0.08,1.66-0.08,2.59c-1.02,6.01-6.52,19.26-14.77,26.49" id="kvg:0500f-s4" kvg:type="&#12754;" />
					<path d="M59.72,20.34c0.04-0.09,2.34,0.25,3.17,0.24c6.14-0.08,15.61-2.08,20.98-2.68c1.47-0.16,2.38-0.01,2.77,0.04" id="kvg:0500f-s5" kvg:type="&#12752;" />
				</g>
				<g id="kvg:0500f-g8" kvg:element="&#20034;" kvg:position="bottom">
					<g id="kvg:0500f-g9" kvg:element="&#20031;">
						<path d="M80.79,20.53c-0.04,1.22-0.38,3.14-1.27,4.63c-6.76,11.25-13.48,21.85-33.4,32.59" id="kvg:0500f-s6" kvg:type="&#12754;" />
					</g>
					<path d="M54.75,30.38c6.31,1.78,24.32,17.01,35.48,21.38c2.15,0.84,3.52,0.98,5.27,1.07" id="kvg:0500f-s7" kvg:type="&#12751;" />
				</g>
			</g>
		</g>
		<g id="kvg:0500f-g10" kvg:element="&#29356;" kvg:position="bottom" kvg:radical="general">
			<g id="kvg:0500f-g11" kvg:element="&#22823;">
				<path d="M45.82,68.98c0.92,0.34,4.03,0.77,5.79,0.57c8.96-1.02,25.83-2.59,37.37-3.34c1.27-0.08,3.07,0.13,5.91,0.72" id="kvg:0500f-s8" kvg:type="&#12752;" />
				<path d="M66.62,49.75c0.69,0.67,1.24,1.32,1.21,2.65C67.5,70.75,64,87,43.5,96.75" id="kvg:0500f-s9" kvg:type="&#12754;" />
				<path d="M67.07,68.78c5.83,7.35,17.17,19.79,24.61,25.04c1.96,1.38,2.67,1.55,3.57,1.68" id="kvg:0500f-s10" kvg:type="&#12751;" />
			</g>
			<g id="kvg:0500f-g12" kvg:element="&#20022;">
				<path d="M76.51,53.49c4.11,2.86,5.24,5.04,6.51,7.72" id="kvg:0500f-s11" kvg:type="&#12756;" />
			</g>
		</g>
	</g>
</g>
</g>
<g id="kvg:StrokeNumbers_0500f" style="font-size:8;fill:#808080">
	<text transform="matrix(1 0 0 1 21.50 16.50)">1</text>
	<text transform="matrix(1 0 0 1 17.50 57.50)">2</text>
	<text transform="matrix(1 0 0 1 30.50 35.50)">3</text>
	<text transform="matrix(1 0 0 1 51.50 11.50)">4</text>
	<text transform="matrix(1 0 0 1 64.50 17.50)">5</text>
	<text transform="matrix(1 0 0 1 70.50 27.50)">6</text>
	<text transform="matrix(1 0 0 1 60.50 31.50)">7</text>
	<text transform="matrix(1 0 0 1 44.50 65.50)">8</text>
	<text transform="matrix(1 0 0 1 60.25 57.50)">9</text>
	<text transform="matrix(1 0 0 1 76.50 77.50)">10</text>
	<text transform="matrix(1 0 0 1 72.50 62.50)">11</text>
</g>
</svg>