<svg xmlns="http://www.w3.org/2000/svg" xmlns:kvg="http://kanjivg.tagaini.net" height="109" meaning="temporary, interim, assumed (name), informal" viewBox="0 0 109 109" width="109">
<g id="kvg:StrokePaths_05047" style="fill:none;stroke:#000000;stroke-width:3;stroke-linecap:round;stroke-linejoin:round;">
<g id="kvg:05047" kvg:element="&#20551;">
	<g id="kvg:05047-g1" kvg:element="&#20155;" kvg:original="&#20154;" kvg:position="left" kvg:radical="general" kvg:variant="true">
		<path d="M30,17.39c0.13,1.23,0.22,2.78-0.11,4.29C27.75,31.25,19.5,49.75,9.56,62.72" id="kvg:05047-s1" kvg:type="&#12754;" />
		<path d="M23.03,45.5c0.59,0.61,0.76,1.97,0.76,3.23c0,13.02-0.29,40.15-0.29,48.9" id="kvg:05047-s2" kvg:type="&#12753;" />
	</g>
	<g id="kvg:05047-g2" kvg:phon="&#21466;" kvg:position="right">
		<g id="kvg:05047-g3" kvg:position="left">
			<path d="M40.31,21.37c5.69-1.12,11.48-2.6,17.42-3.5c1.49-0.22,2.39,1.04,2.18,2.06c-0.89,4.25-2.66,13.07-3.24,17.78" id="kvg:05047-s3" kvg:type="&#12753;" />
			<path d="M39.97,40.55c4.8-0.54,14.78-2.3,19.19-2.81" id="kvg:05047-s4" kvg:type="&#12757;" />
			<path d="M38.14,18.4c0.86,0.85,1.75,2.31,1.86,3.64c0,15.96,0,65.71-0.25,73.71" id="kvg:05047-s5" kvg:type="&#12752;" />
			<path d="M39.97,58.8c3.82-0.43,8.98-1.63,13.56-2.36C54.7,56.25,57,56,58.17,56.49" id="kvg:05047-s6" kvg:type="&#12752;" />
			<path d="M40.72,77.05c3.82-0.43,9.98-1.63,14.56-2.36c1.17-0.19,2.24,0.16,3.14,0.05" id="kvg:05047-s7" kvg:type="&#12752;" />
		</g>
		<g id="kvg:05047-g4" kvg:position="right">
			<path d="M67.34,18.83c1.1-0.02,3.35,0.48,4.53,0.27C78,18,84.01,16.42,89.31,15.62c1.61-0.24,2.58,1.11,2.35,2.2c-0.96,4.54-2.87,11.33-4.03,16.9" id="kvg:05047-s8" kvg:type="&#12757;" />
			<path d="M66.47,37.78c1.38,0.22,2.18,0.27,3.55,0.09C76,37.09,84.5,35.5,90.82,35.78" id="kvg:05047-s9" kvg:type="&#12752;" />
			<g id="kvg:05047-g5" kvg:element="&#21448;">
				<path d="M65.66,52.36c1.17,0.29,1.32,0.73,3.67,0.29s16.23-3.26,17.85-3.7s2.79,1.61,2.2,3.23C82.48,71.27,70.29,87.81,57.08,95" id="kvg:05047-s10" kvg:type="&#12743;" />
				<path d="M63.75,58.5c3.09,0.88,18.2,24.36,28.96,33.98c1.68,1.5,2.9,2.5,4.46,3" id="kvg:05047-s11" kvg:type="&#12751;" />
			</g>
		</g>
	</g>
</g>
</g>
<g id="kvg:StrokeNumbers_05047" style="font-size:8;fill:#808080">
	<text transform="matrix(1 0 0 1 21.50 16.50)">1</text>
	<text transform="matrix(1 0 0 1 16.50 62.50)">2</text>
	<text transform="matrix(1 0 0 1 42.50 17.50)">3</text>
	<text transform="matrix(1 0 0 1 44.50 35.50)">4</text>
	<text transform="matrix(1 0 0 1 33.25 32.50)">5</text>
	<text transform="matrix(1 0 0 1 44.50 54.50)">6</text>
	<text transform="matrix(1 0 0 1 43.50 72.50)">7</text>
	<text transform="matrix(1 0 0 1 67.50 15.50)">8</text>
	<text transform="matrix(1 0 0 1 66.50 34.50)">9</text>
	<text transform="matrix(1 0 0 1 63.50 48.50)">10</text>
	<text transform="matrix(1 0 0 1 68.50 61.50)">11</text>
</g>
</svg>