<svg xmlns="http://www.w3.org/2000/svg" xmlns:kvg="http://kanjivg.tagaini.net" height="109" meaning="healthy, health, strength, persistence" viewBox="0 0 109 109" width="109">
<g id="kvg:StrokePaths_05065" style="fill:none;stroke:#000000;stroke-width:3;stroke-linecap:round;stroke-linejoin:round;">
<g id="kvg:05065" kvg:element="&#20581;">
	<g id="kvg:05065-g1" kvg:element="&#20155;" kvg:original="&#20154;" kvg:position="left" kvg:radical="general" kvg:variant="true">
		<path d="M29.52,18.25c0.19,1.86-0.05,4.31-0.68,5.9c-3.97,10.18-8.5,19.24-17.59,31.64" id="kvg:05065-s1" kvg:type="&#12754;" />
		<path d="M22.95,42c0.54,0.88,1.22,2.35,1.22,3.79c0,12.75-0.26,29.34-0.35,40.96c-0.02,2.35-0.03,4.5-0.03,6.38" id="kvg:05065-s2" kvg:type="&#12753;" />
	</g>
	<g id="kvg:05065-g2" kvg:element="&#24314;" kvg:phon="&#24314;" kvg:position="right">
		<g id="kvg:05065-g3" kvg:element="&#32895;">
			<g id="kvg:05065-g4" kvg:element="&#11925;" kvg:original="&#24401;" kvg:variant="true">
				<path d="M56.08,26.95c1.54,0.55,2.84,0.7,4.28,0.5c8.52-1.2,17.39-2.35,23.68-2.75c2.04-0.13,3.5,1.03,2.9,2.95c-1.56,4.97-2.94,11.47-4.21,18.17" id="kvg:05065-s3" kvg:type="&#12757;c" />
				<path d="M52.25,38.23c2.3,0.32,4.84,0.19,7.13-0.05c8.5-0.86,21.76-2.16,31.5-2.73c2.23-0.13,4.37-0.2,6.62,0.2" id="kvg:05065-s4" kvg:type="&#12752;" />
				<path d="M57.27,48.86c1.84,0.46,3.75,0.31,5.61,0.16c4.75-0.4,11.59-1.51,18.02-2.31c1.78-0.22,3.33-0.43,5.1-0.07" id="kvg:05065-s5" kvg:type="&#12752;" />
			</g>
			<path d="M56.5,60.42c1.49,0.62,3.44,0.53,5,0.41c6.77-0.51,16.63-1.93,23.27-2.65c1.6-0.17,3.07-0.32,4.65,0.08" id="kvg:05065-s6" kvg:type="&#12752;" />
			<path d="M53.15,72.34c2.23,0.53,4.57,0.29,6.72,0.01c9.35-1.24,19.58-2.42,27.25-2.83c1.99-0.11,3.88-0.22,5.82,0.3" id="kvg:05065-s7" kvg:type="&#12752;" />
			<g id="kvg:05065-g5" kvg:element="&#20008;">
				<path d="M69.55,13c0.91,0.91,1.48,2.25,1.48,3.56c0,0.68,0.08,44.52,0.11,61.32c0,3,0.01,5.14,0.01,6.01" id="kvg:05065-s8" kvg:type="&#12753;" />
			</g>
		</g>
		<g id="kvg:05065-g6" kvg:element="&#24308;" kvg:position="nyo">
			<path d="M30.55,40.44c1.2,0.43,2.75,0.49,3.88,0.29c1.94-0.35,5.44-1.48,8.64-2.99c2.09-0.98,2.93-0.37,1.88,1.93c-1.94,4.26-7.08,13.58-9.87,18.26" id="kvg:05065-s9" kvg:type="&#12743;" />
			<path d="M36.16,58.83c3.71-1.33,5.5-1.72,8.74-2.75c2.6-0.83,3.3,0.67,2.63,3.64C45.12,70.25,41.5,82,31,91.08" id="kvg:05065-s10" kvg:type="&#12743;a" />
			<path d="M32.27,70c7.48,0,19.36,14.25,47.59,23.19c4.47,1.42,7.52,2.31,12.41,3.06" id="kvg:05065-s11" kvg:type="&#12751;" />
		</g>
	</g>
</g>
</g>
<g id="kvg:StrokeNumbers_05065" style="font-size:8;fill:#808080">
	<text transform="matrix(1 0 0 1 19.99 18.13)">1</text>
	<text transform="matrix(1 0 0 1 15.49 61.55)">2</text>
	<text transform="matrix(1 0 0 1 51.49 24.50)">3</text>
	<text transform="matrix(1 0 0 1 49.99 35.50)">4</text>
	<text transform="matrix(1 0 0 1 50.50 47.83)">5</text>
	<text transform="matrix(1 0 0 1 53.50 58.26)">6</text>
	<text transform="matrix(1 0 0 1 52.50 70.50)">7</text>
	<text transform="matrix(1 0 0 1 61.50 14.50)">8</text>
	<text transform="matrix(1 0 0 1 30.50 37.50)">9</text>
	<text transform="matrix(1 0 0 1 42.94 53.45)">10</text>
	<text transform="matrix(1 0 0 1 27.94 67.50)">11</text>
</g>
</svg>