<svg xmlns="http://www.w3.org/2000/svg" xmlns:kvg="http://kanjivg.tagaini.net" height="109" meaning="spy" viewBox="0 0 109 109" width="109">
<g id="kvg:StrokePaths_05075" style="fill:none;stroke:#000000;stroke-width:3;stroke-linecap:round;stroke-linejoin:round;">
<g id="kvg:05075" kvg:element="&#20597;">
	<g id="kvg:05075-g1" kvg:element="&#20155;" kvg:original="&#20154;" kvg:position="left" kvg:radical="general" kvg:variant="true">
		<path d="M33.5,17.89c0.13,1.18,0.32,2.68-0.12,4.1C30.5,31.25,22.5,47.5,12.31,60.72" id="kvg:05075-s1" kvg:type="&#12754;" />
		<path d="M27.28,42.25c0.98,0.98,1.26,2.47,1.26,3.73c0,10.61-0.03,31.26-0.04,43.27c0,2.73,0,5.01,0,6.62" id="kvg:05075-s2" kvg:type="&#12753;" />
	</g>
	<g id="kvg:05075-g2" kvg:element="&#35998;" kvg:phon="&#35998;" kvg:position="right">
		<g id="kvg:05075-g3" kvg:element="&#21340;" kvg:original="&#12488;" kvg:position="top" kvg:variant="true">
			<path d="M64.75,12.38c1.24,1.24,1.54,2.74,1.54,4.46c0,0.95,0.05,15.66,0.05,21.95" id="kvg:05075-s3" kvg:type="&#12753;a" />
			<path d="M67.54,25.08c3.04-0.48,14.71-2.7,17.09-2.89c1.62-0.13,2.68,0,3.9,0" id="kvg:05075-s4" kvg:type="&#12752;b" />
		</g>
		<g id="kvg:05075-g4" kvg:element="&#35997;" kvg:position="bottom">
			<g id="kvg:05075-g5" kvg:element="&#30446;" kvg:position="top">
				<path d="M50.42,39.64c0.97,0.97,1.14,2.13,1.14,3.41c0,3.96,0.04,22.49,0.06,33.42c0.01,2.7-0.12,3.86-0.12,5.4" id="kvg:05075-s5" kvg:type="&#12753;" />
				<path d="M52.49,41.42c2.84-0.25,21.92-2.4,28.26-3.15c3.32-0.39,5.45-0.21,5.4,3.48c-0.06,4.01-0.01,21.64,0.03,31.63c0.01,4,0.02,6.73,0.02,6.8" id="kvg:05075-s6" kvg:type="&#12757;a" />
				<path d="M52.88,52.88c5.66-0.48,27.14-2.61,32-2.77" id="kvg:05075-s7" kvg:type="&#12752;a" />
				<path d="M52.88,66.38c8.48-0.89,23.04-2.35,32.03-2.78" id="kvg:05075-s8" kvg:type="&#12752;a" />
				<path d="M52.71,79.49c9.01-0.88,23.98-1.94,32.2-2.26" id="kvg:05075-s9" kvg:type="&#12752;a" />
			</g>
			<g id="kvg:05075-g6" kvg:position="bottom">
				<path d="M60.31,83.79c0.19,1.08-0.19,2.09-1.06,2.93c-2.64,2.55-9.97,7.93-15.25,11.04" id="kvg:05075-s10" kvg:type="&#12754;" />
				<path d="M75.75,84.75c6.62,3.6,14.44,10.29,16.25,13.6" id="kvg:05075-s11" kvg:type="&#12756;" />
			</g>
		</g>
	</g>
</g>
</g>
<g id="kvg:StrokeNumbers_05075" style="font-size:8;fill:#808080">
	<text transform="matrix(1 0 0 1 26.25 18.13)">1</text>
	<text transform="matrix(1 0 0 1 20.50 59.50)">2</text>
	<text transform="matrix(1 0 0 1 54.75 13.50)">3</text>
	<text transform="matrix(1 0 0 1 71.50 20.50)">4</text>
	<text transform="matrix(1 0 0 1 44.25 48.50)">5</text>
	<text transform="matrix(1 0 0 1 54.75 37.63)">6</text>
	<text transform="matrix(1 0 0 1 57.75 50.50)">7</text>
	<text transform="matrix(1 0 0 1 57.75 62.50)">8</text>
	<text transform="matrix(1 0 0 1 57.75 76.40)">9</text>
	<text transform="matrix(1 0 0 1 44.50 89.83)">10</text>
	<text transform="matrix(1 0 0 1 67.50 91.50)">11</text>
</g>
</svg>