<svg xmlns="http://www.w3.org/2000/svg" xmlns:kvg="http://kanjivg.tagaini.net" height="109" meaning="imitate, follow, emulate" viewBox="0 0 109 109" width="109">
<g id="kvg:StrokePaths_0509a" style="fill:none;stroke:#000000;stroke-width:3;stroke-linecap:round;stroke-linejoin:round;">
<g id="kvg:0509a" kvg:element="&#20634;">
	<g id="kvg:0509a-g1" kvg:element="&#20155;" kvg:original="&#20154;" kvg:position="left" kvg:radical="general" kvg:variant="true">
		<path d="M26.47,15c0.1,1.03,0.17,2.33-0.09,3.6c-1.64,8.04-7.98,23.58-15.63,34.47" id="kvg:0509a-s1" kvg:type="&#12754;" />
		<path d="M21.48,38.11c0.59,0.61,0.76,1.97,0.76,3.23c0,13.02-0.29,43.65-0.29,52.4" id="kvg:0509a-s2" kvg:type="&#12753;" />
	</g>
	<g id="kvg:0509a-g2" kvg:element="&#25928;" kvg:position="right">
		<g id="kvg:0509a-g3" kvg:element="&#20132;" kvg:position="left">
			<g id="kvg:0509a-g4" kvg:element="&#20128;" kvg:position="top">
				<path d="M48.05,15c0.56,0.47,1.48,2.25,1.48,3.18c0,3.65-0.02,8.67-0.08,11.3" id="kvg:0509a-s3" kvg:type="&#12753;a" />
				<path d="M29.99,31.64c1.08,0.08,3.53,0.54,4.58,0.41c8.68-1.06,17.93-3.31,25.39-4.25c1.76-0.22,2.68,0.04,4,0.53" id="kvg:0509a-s4" kvg:type="&#12752;" />
			</g>
			<g id="kvg:0509a-g5" kvg:element="&#29238;" kvg:position="bottom">
				<path d="M41.33,39.27c0.23,0.64-0.01,2.15-0.56,3.2c-2.18,4.16-6.11,8.67-10.55,12.31" id="kvg:0509a-s5" kvg:type="&#12754;" />
				<path d="M51.77,36.43c4.25,3.48,7.76,7.5,9.89,11.73" id="kvg:0509a-s6" kvg:type="&#12756;" />
				<path d="M52.72,50.51c0.3,0.88,0.41,2.45-0.09,4.03c-4.68,14.74-13.08,27.73-23.36,35.69" id="kvg:0509a-s7" kvg:type="&#12754;" />
				<path d="M36.93,58.42c6.09,2.59,14.4,12.89,19.58,23.22" id="kvg:0509a-s8" kvg:type="&#12756;/&#12751;" />
			</g>
		</g>
		<g id="kvg:0509a-g6" kvg:element="&#25909;" kvg:original="&#25908;" kvg:position="right" kvg:variant="true">
			<g id="kvg:0509a-g7" kvg:position="top">
				<path d="M73.64,15.61c0.02,0.64,0.11,1.68-0.04,2.57c-1.11,6.47-3.59,17.42-7.41,25.22" id="kvg:0509a-s9" kvg:type="&#12754;" />
				<path d="M71.81,35.22c1.45,0.48,2.65,0.55,3.43,0.43c4.26-0.66,11.76-3.41,18.15-5c0.96-0.24,2.79-0.23,3.61,0.13" id="kvg:0509a-s10" kvg:type="&#12752;" />
			</g>
			<g id="kvg:0509a-g8" kvg:element="&#20034;" kvg:position="bottom">
				<g id="kvg:0509a-g9" kvg:element="&#20031;">
					<path d="M83.53,38.09c0.46,1.31,0.71,2.24,0.23,4.63c-4.36,21.72-11.87,40.24-28.65,49.52" id="kvg:0509a-s11" kvg:type="&#12754;" />
				</g>
				<path d="M67.14,51.67c5.61,11.08,17.64,28.28,25.93,37.41c1.53,1.68,3.15,2.8,4.43,2.97" id="kvg:0509a-s12" kvg:type="&#12751;" />
			</g>
		</g>
	</g>
</g>
</g>
<g id="kvg:StrokeNumbers_0509a" style="font-size:8;fill:#808080">
	<text transform="matrix(1 0 0 1 18.50 15.50)">1</text>
	<text transform="matrix(1 0 0 1 15.50 56.50)">2</text>
	<text transform="matrix(1 0 0 1 38.50 15.50)">3</text>
	<text transform="matrix(1 0 0 1 29.50 28.50)">4</text>
	<text transform="matrix(1 0 0 1 33.50 41.50)">5</text>
	<text transform="matrix(1 0 0 1 48.50 44.50)">6</text>
	<text transform="matrix(1 0 0 1 45.50 53.50)">7</text>
	<text transform="matrix(1 0 0 1 32.50 66.50)">8</text>
	<text transform="matrix(1 0 0 1 64.50 14.50)">9</text>
	<text transform="matrix(1 0 0 1 75.50 31.50)">10</text>
	<text transform="matrix(1 0 0 1 73.25 44.50)">11</text>
	<text transform="matrix(1 0 0 1 68.50 53.50)">12</text>
</g>
</svg>