<svg xmlns="http://www.w3.org/2000/svg" xmlns:kvg="http://kanjivg.tagaini.net" height="109" meaning="lie, falsehood, deceive, pretend" viewBox="0 0 109 109" width="109">
<g id="kvg:StrokePaths_050de" style="fill:none;stroke:#000000;stroke-width:3;stroke-linecap:round;stroke-linejoin:round;">
<g id="kvg:050de" kvg:element="&#20702;">
	<g id="kvg:050de-g1" kvg:element="&#20155;" kvg:original="&#20154;" kvg:position="left" kvg:radical="general" kvg:variant="true">
		<path d="M35.43,16.5c0.14,1.06,0.25,2.39-0.13,3.7c-2.39,8.25-11.65,24.2-22.8,35.38" id="kvg:050de-s1" kvg:type="&#12754;" />
		<path d="M27.48,41.61c0.59,0.61,0.76,1.97,0.76,3.23c0,13.02-0.29,41.65-0.29,50.4" id="kvg:050de-s2" kvg:type="&#12753;" />
	</g>
	<g id="kvg:050de-g2" kvg:element="&#29234;" kvg:phon="&#29234;" kvg:position="right">
		<g id="kvg:050de-g3" kvg:element="&#11940;" kvg:original="&#29226;" kvg:position="top" kvg:variant="true">
			<path d="M81.46,10.68c0.09,0.29,0.19,0.75-0.19,1.17C79.02,14.3,65.12,19.7,47.46,23" id="kvg:050de-s3" kvg:type="&#12754;" />
			<path d="M47.28,27.43c0.03,0.31,0.06,0.79-0.06,1.24C46.51,31.27,42.4,37,36.79,40.5" id="kvg:050de-s4" kvg:type="&#12754;" />
			<path d="M61.3,24.87c2.16,1.61,5.59,6.63,6.13,9.13" id="kvg:050de-s5" kvg:type="&#12756;" />
			<path d="M78.53,22.12c4.43,2.19,11.44,8.98,12.55,12.38" id="kvg:050de-s6" kvg:type="&#12756;" />
		</g>
		<g id="kvg:050de-g4" kvg:position="bottom">
			<g id="kvg:050de-g5" kvg:element="&#21241;" kvg:part="1">
				<g id="kvg:050de-g6" kvg:element="&#20031;">
					<path d="M47.74,39.75c0.51,1.29,0.75,2.31,0.75,3.92c0,3.14-3.49,31.33-14.43,43.55" id="kvg:050de-s7" kvg:type="&#12754;" />
				</g>
			</g>
			<path d="M49.97,41.67c10.21-1.42,20.73-3.03,27.42-4.12c2.46-0.4,3.97,1.09,3.59,2.45c-0.84,3-2.1,7.5-2.73,10.25" id="kvg:050de-s8" kvg:type="&#12757;" />
			<path d="M47.47,53.42c12.03-0.67,27.52-3.36,35.96-3.62c1.56-0.05,2.97,1.09,2.59,2.45c-0.84,3-2.52,7.5-2.73,9.75" id="kvg:050de-s9" kvg:type="&#12757;" />
			<g id="kvg:050de-g7" kvg:element="&#21241;" kvg:part="2">
				<path d="M44.83,66.75c10.42-0.5,40.48-4.5,44.69-4.5c2.52,0,4.66,0.78,3.99,4.75C92,76,88.5,85.75,84.63,93.75c-2.3,4.75-4.62,3.75-7.15,0.75" id="kvg:050de-s10" kvg:type="&#12742;" />
			</g>
			<g id="kvg:050de-g8" kvg:element="&#28780;" kvg:original="&#28779;" kvg:variant="true">
				<path d="M46.65,76.25c1.53,3.06,3.06,7.65,3.06,12.5" id="kvg:050de-s11" kvg:type="&#12756;" />
				<path d="M57.01,73.83c2.01,2.29,3.92,8.58,4.43,12.13" id="kvg:050de-s12" kvg:type="&#12756;" />
				<path d="M67.22,71.58c1.91,1.7,4.93,6.99,5.41,9.63" id="kvg:050de-s13" kvg:type="&#12756;" />
				<path d="M77.69,68.58c1.9,1.79,4.91,7.35,5.39,10.13" id="kvg:050de-s14" kvg:type="&#12756;" />
			</g>
		</g>
	</g>
</g>
</g>
<g id="kvg:StrokeNumbers_050de" style="font-size:8;fill:#808080">
	<text transform="matrix(1 0 0 1 27.50 15.85)">1</text>
	<text transform="matrix(1 0 0 1 20.50 57.50)">2</text>
	<text transform="matrix(1 0 0 1 71.50 10.50)">3</text>
	<text transform="matrix(1 0 0 1 39.50 30.50)">4</text>
	<text transform="matrix(1 0 0 1 53.50 29.50)">5</text>
	<text transform="matrix(1 0 0 1 70.50 25.50)">6</text>
	<text transform="matrix(1 0 0 1 41.50 47.68)">7</text>
	<text transform="matrix(1 0 0 1 51.50 38.60)">8</text>
	<text transform="matrix(1 0 0 1 53.50 50.50)">9</text>
	<text transform="matrix(1 0 0 1 50.25 62.50)">10</text>
	<text transform="matrix(1 0 0 1 40.25 85.50)">11</text>
	<text transform="matrix(1 0 0 1 49.50 79.80)">12</text>
	<text transform="matrix(1 0 0 1 59.50 75.50)">13</text>
	<text transform="matrix(1 0 0 1 69.50 72.40)">14</text>
</g>
</svg>