<svg xmlns="http://www.w3.org/2000/svg" xmlns:kvg="http://kanjivg.tagaini.net" height="109" meaning="legs radical (no. 10)" viewBox="0 0 109 109" width="109">
<g id="kvg:StrokePaths_0513f" style="fill:none;stroke:#000000;stroke-width:3;stroke-linecap:round;stroke-linejoin:round;">
<g id="kvg:0513f" kvg:element="&#20799;" kvg:radical="general">
	<g id="kvg:0513f-g1" kvg:element="&#20843;" kvg:variant="true">
		<g id="kvg:0513f-g2" kvg:element="&#20031;" kvg:position="left">
			<path d="M41.32,15.75c0.83,2.23,1.43,5.46,1.43,8.25c0,25.45,3.99,60.65-24.25,73.75" id="kvg:0513f-s1" kvg:type="&#12754;" />
		</g>
		<g id="kvg:0513f-g3" kvg:position="right">
			<path d="M63.25,13.25c0.65,1.21,1.3,3.02,1.52,4.63c0.22,1.61-0.65,60.3,0.22,65.13c0.87,4.84,1.52,10.49,4.99,10.89c3.47,0.4,21.78,1.27,24.08-2.28C95.75,89,96,86.07,96,81.62" id="kvg:0513f-s2" kvg:type="&#12767;" />
		</g>
	</g>
</g>
</g>
<g id="kvg:StrokeNumbers_0513f" style="font-size:8;fill:#808080">
	<text transform="matrix(1 0 0 1 31.75 14.13)">1</text>
	<text transform="matrix(1 0 0 1 53.75 11.63)">2</text>
</g>
</svg>