<svg xmlns="http://www.w3.org/2000/svg" xmlns:kvg="http://kanjivg.tagaini.net" height="109" meaning="high &amp; level, lofty, bald, dangerous" viewBox="0 0 109 109" width="109">
<g id="kvg:StrokePaths_05140" style="fill:none;stroke:#000000;stroke-width:3;stroke-linecap:round;stroke-linejoin:round;">
<g id="kvg:05140" kvg:element="&#20800;">
	<g id="kvg:05140-g1" kvg:element="&#19968;" kvg:radical="nelson">
		<path d="M16.38,24.98c1.4,0.54,3.96,0.63,5.36,0.54c14.54-0.91,42.27-6.02,64-6.23c2.33-0.02,4.23,0.26,5.39,0.53" id="kvg:05140-s1" kvg:type="&#12752;" />
	</g>
	<g id="kvg:05140-g2" kvg:element="&#20799;" kvg:original="&#20843;" kvg:radical="tradit">
		<g id="kvg:05140-g3" kvg:element="&#20031;">
			<path d="M42.75,26.5c1,1,0.97,3.9,0.87,6.08c-0.87,19.17-9.48,47.83-22.12,59.17" id="kvg:05140-s2" kvg:type="&#12754;" />
		</g>
		<path d="M62.49,23.37c0.67,1.19,1.23,2.59,1.23,4.43c0,16.68,0.14,34.7,0.14,52.2c0,9.01,0.39,13.33,14.22,13.33c13.43,0,16.73-0.31,17.32-9.42" id="kvg:05140-s3" kvg:type="&#12767;" />
	</g>
</g>
</g>
<g id="kvg:StrokeNumbers_05140" style="font-size:8;fill:#808080">
	<text transform="matrix(1 0 0 1 9.75 22.63)">1</text>
	<text transform="matrix(1 0 0 1 35.25 36.13)">2</text>
	<text transform="matrix(1 0 0 1 71.25 33.13)">3</text>
</g>
</svg>