<svg xmlns="http://www.w3.org/2000/svg" xmlns:kvg="http://kanjivg.tagaini.net" height="109" kun="&#12416;, &#12416;.&#12388;, &#12416;&#12387;.&#12388;, &#12416;&#12356;" meaning="six" on="&#12525;&#12463;, &#12522;&#12463;" viewBox="0 0 109 109" width="109">
<g id="kvg:StrokePaths_0516d" style="fill:none;stroke:#000000;stroke-width:3;stroke-linecap:round;stroke-linejoin:round;">
<g id="kvg:0516d" kvg:element="&#20845;">
	<g id="kvg:0516d-g1" kvg:element="&#20128;" kvg:position="top" kvg:radical="nelson">
		<path d="M51.87,17.5c1.78,1.78,2.71,3.48,2.71,6.5c0,6.46,0.12,9.16,0.12,14.35" id="kvg:0516d-s1" kvg:type="&#12753;a" />
		<path d="M13.5,42.13c3.27,0.74,7.11,0.89,9.93,0.64c21.56-1.9,41.78-5.02,61.41-5.47c4.8-0.11,7.49,0.31,11.06,1.07" id="kvg:0516d-s2" kvg:type="&#12752;" />
	</g>
	<g id="kvg:0516d-g2" kvg:element="&#20843;" kvg:position="bottom" kvg:radical="tradit">
		<path d="M38.11,58.6c0.51,1.37,0.42,3.67-0.49,5.29C33.38,71.38,24,82.38,15.41,88.75" id="kvg:0516d-s3" kvg:type="&#12754;" />
		<path d="M70.16,59.92c9.96,8.61,18.18,18.54,23.16,28.99" id="kvg:0516d-s4" kvg:type="&#12756;/&#12751;" />
	</g>
</g>
</g>
<g id="kvg:StrokeNumbers_0516d" style="font-size:8;fill:#808080">
	<text transform="matrix(1 0 0 1 42.25 17.63)">1</text>
	<text transform="matrix(1 0 0 1 5.50 43.63)">2</text>
	<text transform="matrix(1 0 0 1 27.50 58.63)">3</text>
	<text transform="matrix(1 0 0 1 60.50 58.63)">4</text>
</g>
</svg>