<svg xmlns="http://www.w3.org/2000/svg" xmlns:kvg="http://kanjivg.tagaini.net" height="109" kun="&#12354;&#12365;&#12425;&#12363;" meaning="light, clear, bright" on="&#12465;&#12452;, &#12461;&#12519;&#12454;, &#12477;&#12454;" viewBox="0 0 109 109" width="109">
<g id="kvg:StrokePaths_0518f" style="fill:none;stroke:#000000;stroke-width:3;stroke-linecap:round;stroke-linejoin:round;">
<g id="kvg:0518f" kvg:element="&#20879;">
	<g id="kvg:0518f-g1" kvg:element="&#20866;" kvg:radical="general">
		<path d="M20.25,17.75c0.74,1.25,0.99,2,0.99,4c0,2.26,0.25,69.5,0.25,73.25" id="kvg:0518f-s1" kvg:type="&#12753;" />
		<path d="M21.23,20.25c9.43-1,61.18-5,63.07-5c6.45,0,5.46,3.25,5.46,7.75c0,2.5,0.25,60.5,0.25,66.25c0,10.75-5.26,4.5-8.71,1" id="kvg:0518f-s2" kvg:type="&#12742;a" />
	</g>
	<g id="kvg:0518f-g2" kvg:element="&#20799;" kvg:original="&#20843;" kvg:variant="true">
		<g id="kvg:0518f-g3" kvg:element="&#20031;">
			<path d="M43.91,21.35c0.06,1.15,0.45,1.11,0.43,2.44c-0.09,6.71-4.59,17.96-12.26,23.37" id="kvg:0518f-s3" kvg:type="&#12754;" />
		</g>
		<path d="M60.41,20.37c0.42,0.77,0.76,1.67,0.78,2.86c0.11,5.28-0.3,10.42-0.3,14.01c0,8.39,5.08,7.44,10.07,7.44c5.27,0,8.74-1.08,9.48-1.69c1.57-1.29,1.14-1.94,1.28-4.2" id="kvg:0518f-s4" kvg:type="&#12767;" />
	</g>
	<g id="kvg:0518f-g4" kvg:element="&#21475;">
		<path d="M39,57.64c0.42,0.39,0.85,0.72,1.04,1.21c1.46,3.9,2.71,14.65,3.71,21.65" id="kvg:0518f-s5" kvg:type="&#12753;" />
		<path d="M41.63,59.28C50.25,58,63.25,56,68.19,55.49c1.8-0.19,2.89,1.11,2.63,2.21c-1.18,5.03-1.94,10.52-3.41,16.35" id="kvg:0518f-s6" kvg:type="&#12757;b" />
		<path d="M43.95,77.58c5.8-0.58,17.3-1.58,25.27-2.47" id="kvg:0518f-s7" kvg:type="&#12752;b" />
	</g>
</g>
</g>
<g id="kvg:StrokeNumbers_0518f" style="font-size:8;fill:#808080">
	<text transform="matrix(1 0 0 1 14.25 30.13)">1</text>
	<text transform="matrix(1 0 0 1 24.75 16.50)">2</text>
	<text transform="matrix(1 0 0 1 36.50 29.50)">3</text>
	<text transform="matrix(1 0 0 1 53.50 27.13)">4</text>
	<text transform="matrix(1 0 0 1 33.75 66.50)">5</text>
	<text transform="matrix(1 0 0 1 41.50 55.50)">6</text>
	<text transform="matrix(1 0 0 1 47.50 74.50)">7</text>
</g>
</svg>