<svg xmlns="http://www.w3.org/2000/svg" xmlns:kvg="http://kanjivg.tagaini.net" height="109" kun="&#12414;&#12375;.&#12390;, &#12356;&#12431;.&#12435;&#12420;, &#12362;&#12418;&#12416;&#12365;" meaning="still more, still less" on="&#12461;&#12519;&#12454;" viewBox="0 0 109 109" width="109">
<g id="kvg:StrokePaths_051b5" style="fill:none;stroke:#000000;stroke-width:3;stroke-linecap:round;stroke-linejoin:round;">
<g id="kvg:051b5" kvg:element="&#20917;">
	<g id="kvg:051b5-g1" kvg:element="&#20907;" kvg:original="&#27703;" kvg:position="left" kvg:radical="general">
		<g id="kvg:051b5-g2" kvg:position="top">
			<path d="M17.29,19.75c3.99,1.93,10.3,7.92,11.29,10.91" id="kvg:051b5-s1" kvg:type="&#12756;" />
		</g>
		<g id="kvg:051b5-g3" kvg:position="bottom">
			<path d="M12.98,82.67c1.71,2.05,3.94,1.73,5.13,0c1.16-1.68,8.39-14.17,12.66-23.51" id="kvg:051b5-s2" kvg:type="&#12736;" />
		</g>
	</g>
	<g id="kvg:051b5-g4" kvg:element="&#20804;" kvg:position="right">
		<g id="kvg:051b5-g5" kvg:element="&#21475;" kvg:position="top">
			<path d="M41.21,17.83c0.27,0.92,0.52,1.54,0.67,2.25C43,25.5,45,38.75,46.33,47.84" id="kvg:051b5-s3" kvg:type="&#12753;" />
			<path d="M42.55,19.05c9.46-1.73,33.04-3.6,39.79-4.8c2.3-0.41,4.42,2.1,3.98,4.64C85.21,25.3,84.25,36,81.21,44.03" id="kvg:051b5-s4" kvg:type="&#12757;b" />
			<path d="M46.22,45.52C56.75,44,73.25,42.5,81.48,42.47" id="kvg:051b5-s5" kvg:type="&#12752;b" />
		</g>
		<g id="kvg:051b5-g6" kvg:element="&#20799;" kvg:original="&#20843;" kvg:position="bottom">
			<g id="kvg:051b5-g7" kvg:element="&#20031;">
				<path d="M54.12,48.83c0.08,1.09,0.46,2.78,0.35,4.37C53.75,63,44.25,85.25,27.06,95" id="kvg:051b5-s6" kvg:type="&#12754;" />
			</g>
			<path d="M66.39,46.57c0.58,0.88,1.42,1.95,1.45,4.4c0.07,5.86-0.5,22.51-0.5,31.52c0,9.51,1.4,11.23,15.73,11.23c11.17,0,13.5-2.71,13.5-10.56" id="kvg:051b5-s7" kvg:type="&#12767;" />
		</g>
	</g>
</g>
</g>
<g id="kvg:StrokeNumbers_051b5" style="font-size:8;fill:#808080">
	<text transform="matrix(1 0 0 1 8.50 18.50)">1</text>
	<text transform="matrix(1 0 0 1 5.50 84.50)">2</text>
	<text transform="matrix(1 0 0 1 34.50 26.50)">3</text>
	<text transform="matrix(1 0 0 1 43.50 15.50)">4</text>
	<text transform="matrix(1 0 0 1 50.50 41.50)">5</text>
	<text transform="matrix(1 0 0 1 46.50 56.50)">6</text>
	<text transform="matrix(1 0 0 1 59.50 59.50)">7</text>
</g>
</svg>