<svg xmlns="http://www.w3.org/2000/svg" xmlns:kvg="http://kanjivg.tagaini.net" height="109" kun="&#12362;&#12365;, &#12362;&#12365;&#12388;, &#12385;&#12421;&#12358;.&#12377;&#12427;, &#12431;&#12367;" meaning="offing, open sea, rise high into sky" on="&#12481;&#12517;&#12454;" viewBox="0 0 109 109" width="109">
<g id="kvg:StrokePaths_051b2" style="fill:none;stroke:#000000;stroke-width:3;stroke-linecap:round;stroke-linejoin:round;">
<g id="kvg:051b2" kvg:element="&#20914;">
	<g id="kvg:051b2-g1" kvg:element="&#20907;" kvg:original="&#27700;" kvg:position="left" kvg:radical="general">
		<g id="kvg:051b2-g2" kvg:position="top">
			<path d="M16.29,23.5c4.69,2.06,12.12,8.46,13.29,11.66" id="kvg:051b2-s1" kvg:type="&#12756;" />
		</g>
		<g id="kvg:051b2-g3" kvg:position="bottom">
			<path d="M12.48,84.17c1.27,0.58,3.44,0.23,4.63-1.5c1.16-1.68,8.39-14.17,12.66-23.51" id="kvg:051b2-s2" kvg:type="&#12736;" />
		</g>
	</g>
	<g id="kvg:051b2-g4" kvg:element="&#20013;" kvg:position="right">
		<g id="kvg:051b2-g5" kvg:element="&#21475;">
			<path d="M41.06,39.38c0.48,0.26,1.42,0.86,1.57,1.54c1.09,4.89,2.41,13.56,3.95,22.83" id="kvg:051b2-s3" kvg:type="&#12753;" />
			<path d="M42.95,40.53c13.55-2.03,39.68-4.42,48.38-4.8c3.39-0.15,4.07,2.43,3.65,3.92c-1.44,5.1-2.58,10.04-4.92,18.52" id="kvg:051b2-s4" kvg:type="&#12757;b" />
			<path d="M46.72,62.21c9.75-1.32,31.98-2.74,45.62-4.12" id="kvg:051b2-s5" kvg:type="&#12752;b" />
		</g>
		<g id="kvg:051b2-g6" kvg:element="&#20008;">
			<path d="M65.66,11.75c1.21,0.49,1.94,2.22,2.18,3.21c0.24,0.99,0,77.88-0.24,84.04" id="kvg:051b2-s6" kvg:type="&#12753;" />
		</g>
	</g>
</g>
</g>
<g id="kvg:StrokeNumbers_051b2" style="font-size:8;fill:#808080">
	<text transform="matrix(1 0 0 1 8.50 23.50)">1</text>
	<text transform="matrix(1 0 0 1 4.50 84.50)">2</text>
	<text transform="matrix(1 0 0 1 35.50 47.50)">3</text>
	<text transform="matrix(1 0 0 1 44.50 36.50)">4</text>
	<text transform="matrix(1 0 0 1 51.50 58.33)">5</text>
	<text transform="matrix(1 0 0 1 56.25 13.50)">6</text>
</g>
</svg>