<svg xmlns="http://www.w3.org/2000/svg" xmlns:kvg="http://kanjivg.tagaini.net" height="109" kun="&#12377;&#12378;.&#12375;&#12356;, &#12377;&#12378;.&#12416;, &#12377;&#12378;.&#12420;&#12363;, &#12358;&#12377;.&#12356;, &#12402;&#12420;.&#12377;, &#12414;&#12371;&#12392;&#12395;" meaning="nice and cool" on="&#12522;&#12519;&#12454;" viewBox="0 0 109 109" width="109">
<g id="kvg:StrokePaths_051c9" style="fill:none;stroke:#000000;stroke-width:3;stroke-linecap:round;stroke-linejoin:round;">
<g id="kvg:051c9" kvg:element="&#20937;">
	<g id="kvg:051c9-g1" kvg:element="&#20907;" kvg:original="&#27703;" kvg:position="left" kvg:radical="general">
		<g id="kvg:051c9-g2" kvg:position="top">
			<path d="M16.79,18.25c4.87,1.75,12.58,7.19,13.79,9.91" id="kvg:051c9-s1" kvg:type="&#12756;" />
		</g>
		<g id="kvg:051c9-g3" kvg:position="bottom">
			<path d="M14.48,84.17c2.02,0.58,3.31,0.14,4.63-1.5C22.5,78.5,27.5,69.5,33.27,59.67" id="kvg:051c9-s2" kvg:type="&#12736;" />
		</g>
	</g>
	<g id="kvg:051c9-g4" kvg:element="&#20140;" kvg:position="right">
		<g id="kvg:051c9-g5" kvg:element="&#20128;" kvg:position="top">
			<path d="M64.15,9.92c0.99,0.58,2.62,2.86,2.62,4.06c0,4.42-0.12,6.52-0.12,10.57" id="kvg:051c9-s3" kvg:type="&#12753;a" />
			<path d="M38,27c1.21,0.07,3.97,0.48,5.16,0.39C55,26.5,79.9,22.5,91.26,22.09c2-0.07,3.02-0.04,4.51,0.56" id="kvg:051c9-s4" kvg:type="&#12752;" />
		</g>
		<g id="kvg:051c9-g6" kvg:position="bottom">
			<g id="kvg:051c9-g7" kvg:element="&#21475;">
				<path d="M46.61,39.32c0.56,0.39,1.27,0.67,1.39,1.2c0.85,3.82,2.03,11.74,3.28,18.98" id="kvg:051c9-s5" kvg:type="&#12753;" />
				<path d="M48.47,41.11c8.49-1.49,29.03-3.5,34.8-4.11c2.39-0.25,4.1,1.58,3.14,4.5c-1.07,3.25-1.86,8.75-3.35,13.25" id="kvg:051c9-s6" kvg:type="&#12757;b" />
				<path d="M51.67,58.03C61.25,57.25,75,55.5,85.47,55" id="kvg:051c9-s7" kvg:type="&#12752;b" />
			</g>
			<g id="kvg:051c9-g8" kvg:element="&#23567;">
				<path d="M66.42,59.33c0.08,0.5,1.5,2.61,1.63,5.78c0.21,5.13-0.23,24.23-0.23,28.65c0,9.47-6.47,0.52-7.82-0.79" id="kvg:051c9-s8" kvg:type="&#12762;" />
				<path d="M50.7,70c0.04,0.46,0.08,1.19-0.08,1.85C49.7,75.74,44.5,83,37.14,89.5" id="kvg:051c9-s9" kvg:type="&#12754;" />
				<path d="M81.76,69.25C87.13,73.04,94.55,83.6,95.9,89.5" id="kvg:051c9-s10" kvg:type="&#12756;" />
			</g>
		</g>
	</g>
</g>
</g>
<g id="kvg:StrokeNumbers_051c9" style="font-size:8;fill:#808080">
	<text transform="matrix(1 0 0 1 9.50 18.50)">1</text>
	<text transform="matrix(1 0 0 1 7.50 84.50)">2</text>
	<text transform="matrix(1 0 0 1 55.50 10.50)">3</text>
	<text transform="matrix(1 0 0 1 36.50 23.50)">4</text>
	<text transform="matrix(1 0 0 1 40.50 46.50)">5</text>
	<text transform="matrix(1 0 0 1 50.50 37.50)">6</text>
	<text transform="matrix(1 0 0 1 55.50 54.50)">7</text>
	<text transform="matrix(1 0 0 1 59.44 67.60)">8</text>
	<text transform="matrix(1 0 0 1 41.50 70.50)">9</text>
	<text transform="matrix(1 0 0 1 79.50 66.50)">10</text>
</g>
</svg>