<svg xmlns="http://www.w3.org/2000/svg" xmlns:kvg="http://kanjivg.tagaini.net" height="109" kun="&#12399;&#12376;.&#12417;, &#12399;&#12376;.&#12417;&#12390;, &#12399;&#12388;, &#12399;&#12388;-, &#12358;&#12356;-, -&#12381;.&#12417;&#12427;, -&#12382;.&#12417;" meaning="first time, beginning" on="&#12471;&#12519;" viewBox="0 0 109 109" width="109">
<g id="kvg:StrokePaths_0521d" style="fill:none;stroke:#000000;stroke-width:3;stroke-linecap:round;stroke-linejoin:round;">
<g id="kvg:0521d" kvg:element="&#21021;">
	<g id="kvg:0521d-g1" kvg:element="&#34916;" kvg:original="&#34915;" kvg:position="left" kvg:radical="nelson" kvg:variant="true">
		<path d="M26.95,11.12c2.85,2.32,6.44,5.81,8.88,9.88" id="kvg:0521d-s1" kvg:type="&#12756;" />
		<path d="M13.58,31c1.01,0.45,3.03,0.66,4.76,0.45c5.79-0.69,19.67-4.32,23.24-5.7c2.44-0.94,4.42,1.2,3,3.5c-8.33,13.5-19.83,28.25-32.33,39" id="kvg:0521d-s2" kvg:type="&#12743;" />
		<path d="M31.75,49.86c0.76,0.76,1.27,2.02,1.27,3.89c0,8.76,0.03,27.66,0.05,37.38c0,2.77,0.01,4.79,0.01,5.62" id="kvg:0521d-s3" kvg:type="&#12753;" />
		<path d="M46.5,42.14c0.2,0.85-0.1,1.83-0.5,2.45c-1.2,1.87-4.65,5.45-7.05,7.66" id="kvg:0521d-s4" kvg:type="&#12754;" />
		<path d="M36.75,54.62c3.63,2.45,6.98,5.61,10.08,9.87" id="kvg:0521d-s5" kvg:type="&#12756;" />
	</g>
	<g id="kvg:0521d-g2" kvg:element="&#20992;" kvg:position="right" kvg:radical="tradit">
		<path d="M53.26,37.63c1.84,0.69,4.16,0.6,5.76,0.37c13.11-1.91,23.14-4.14,30.41-4.85c4.73-0.46,6.33,1.37,6.07,4.57c-0.69,8.45-9.17,41.71-15.88,51.21c-4.49,6.36-7.37,2.44-10.61,0.06" id="kvg:0521d-s6" kvg:type="&#12742;" />
		<path d="M70.13,40.12c0.43,1.16,0.34,2.82-0.16,4.31C65.12,58.88,57.38,76.5,43.75,88.08" id="kvg:0521d-s7" kvg:type="&#12754;" />
	</g>
</g>
</g>
<g id="kvg:StrokeNumbers_0521d" style="font-size:8;fill:#808080">
	<text transform="matrix(1 0 0 1 20.50 11.50)">1</text>
	<text transform="matrix(1 0 0 1 5.50 31.50)">2</text>
	<text transform="matrix(1 0 0 1 25.50 65.50)">3</text>
	<text transform="matrix(1 0 0 1 44.25 39.13)">4</text>
	<text transform="matrix(1 0 0 1 36.50 67.50)">5</text>
	<text transform="matrix(1 0 0 1 54.50 34.50)">6</text>
	<text transform="matrix(1 0 0 1 61.50 48.50)">7</text>
</g>
</svg>