<svg xmlns="http://www.w3.org/2000/svg" xmlns:kvg="http://kanjivg.tagaini.net" height="109" meaning="threat, long ages" viewBox="0 0 109 109" width="109">
<g id="kvg:StrokePaths_05227" style="fill:none;stroke:#000000;stroke-width:3;stroke-linecap:round;stroke-linejoin:round;">
<g id="kvg:05227" kvg:element="&#21031;">
	<g id="kvg:05227-g1" kvg:element="&#21435;" kvg:position="left">
		<g id="kvg:05227-g2" kvg:element="&#22303;" kvg:position="top">
			<path d="M17.33,32.84c0.69,0.34,1.96,0.38,2.65,0.34c6.07-0.34,22.1-2.27,31.23-2.79c1.15-0.07,1.84,0.16,2.42,0.33" id="kvg:05227-s1" kvg:type="&#12752;" />
			<path d="M35.67,13c0.09,0.31,1.26,1.63,1.35,3.61c0.43,9.52,0.11,31.2,0.11,34.44" id="kvg:05227-s2" kvg:type="&#12753;a" />
			<path d="M10.25,53c1.05,0.48,2.98,0.62,4.04,0.48c13.46-1.73,29.46-3.23,41.03-4.48c1.74-0.19,2.81,0.23,3.68,0.47" id="kvg:05227-s3" kvg:type="&#12752;" />
		</g>
		<g id="kvg:05227-g3" kvg:element="&#21430;" kvg:position="bottom">
			<path d="M34.72,55.13c0.24,1.09,0.08,2.65-0.21,3.28c-4.51,9.84-9.12,20.11-14.49,27.1c-1.68,2.19-1.43,4.46,1.25,3.66c7.11-2.13,20.56-6.62,30.86-9.9" id="kvg:05227-s4" kvg:type="&#12764;" />
			<path d="M43.78,66.85c3.79,3.25,9.78,13.35,10.72,18.4" id="kvg:05227-s5" kvg:type="&#12756;" />
		</g>
	</g>
	<g id="kvg:05227-g4" kvg:element="&#20992;" kvg:position="right" kvg:radical="general">
		<path d="M58.58,24.82c1.43,0.9,3.22,1.16,4.49,0.98c11.19-1.55,19.77-2.62,25.44-3.54c3.68-0.6,5.57,1.23,5.5,4.37c-0.25,12.87-3,47.62-7.79,63.1c-2.59,8.4-5.72,3.77-9.33-0.4" id="kvg:05227-s6" kvg:type="&#12742;" />
		<path d="M72.01,26.68c0.49,1.82,0.63,4.17,0.4,6.48C70.7,50.25,68,76.75,54.14,94.65" id="kvg:05227-s7" kvg:type="&#12754;" />
	</g>
</g>
</g>
<g id="kvg:StrokeNumbers_05227" style="font-size:8;fill:#808080">
	<text transform="matrix(1 0 0 1 10.50 32.50)">1</text>
	<text transform="matrix(1 0 0 1 24.50 12.55)">2</text>
	<text transform="matrix(1 0 0 1 7.50 49.50)">3</text>
	<text transform="matrix(1 0 0 1 26.25 61.50)">4</text>
	<text transform="matrix(1 0 0 1 45.50 65.50)">5</text>
	<text transform="matrix(1 0 0 1 56.50 21.50)">6</text>
	<text transform="matrix(1 0 0 1 64.50 35.50)">7</text>
</g>
</svg>