<svg xmlns="http://www.w3.org/2000/svg" xmlns:kvg="http://kanjivg.tagaini.net" height="109" kun="&#12356;&#12383;.&#12427;" meaning="arrival, proceed, reach, attain, result in" on="&#12488;&#12454;" viewBox="0 0 109 109" width="109">
<g id="kvg:StrokePaths_05230" style="fill:none;stroke:#000000;stroke-width:3;stroke-linecap:round;stroke-linejoin:round;">
<g id="kvg:05230" kvg:element="&#21040;">
	<g id="kvg:05230-g1" kvg:element="&#33267;" kvg:position="left" kvg:radical="nelson">
		<path d="M14.98,21.46c1.36,0.66,3.81,0.47,5.28,0.31c8.36-0.91,19.61-2.55,29.36-3.09c1.86-0.1,3.78-0.35,5.6,0.18" id="kvg:05230-s1" kvg:type="&#12752;" />
		<g id="kvg:05230-g2" kvg:element="&#21430;">
			<path d="M33.28,23.65c0.47,1.1,0.14,2.49-0.26,2.97c-4.77,5.88-8.27,9.76-13.55,15.9c-1.64,1.91-0.94,3.27,1.59,2.7c5.9-1.35,18.48-4.69,27.78-6.92" id="kvg:05230-s2" kvg:type="&#12764;" />
			<path d="M44.22,29.64c3.61,2.84,9.33,11.68,10.24,16.1" id="kvg:05230-s3" kvg:type="&#12756;" />
		</g>
		<g id="kvg:05230-g3" kvg:element="&#22303;">
			<path d="M18.48,62.25c1.9,0.63,3.85,0.67,5.55,0.47c9.07-1.07,18.96-2.6,24.81-3.68c1.1-0.2,2.04-0.08,2.6,0.11" id="kvg:05230-s4" kvg:type="&#12752;" />
			<path d="M35.17,46.2c0.75,0.75,1.08,2.19,1.08,3.95c0,5.85,0,25.56,0,28.44" id="kvg:05230-s5" kvg:type="&#12753;a" />
			<path d="M14.19,85.08c1.18,1.17,2.66,1.48,4.4,0.83c14.78-5.53,20.03-7.41,35.14-12.88" id="kvg:05230-s6" kvg:type="&#12736;/&#12752;" />
		</g>
	</g>
	<g id="kvg:05230-g4" kvg:element="&#20994;" kvg:original="&#20992;" kvg:phon="&#20992;" kvg:position="right" kvg:radical="tradit" kvg:variant="true">
		<path d="M65.77,28.58c1.14,1.14,1.26,2.54,1.26,4.77c0,10.93-0.01,19.93-0.02,25.9c0,2.16,0,3.93,0,5.25" id="kvg:05230-s7" kvg:type="&#12753;" />
		<path d="M85.27,15.58c1.26,1.26,1.76,2.67,1.76,5.02c0,14.56-0.01,62.41-0.01,67.37c0,13.14-7.21,1.5-8.71,0.25" id="kvg:05230-s8" kvg:type="&#12762;" />
	</g>
</g>
</g>
<g id="kvg:StrokeNumbers_05230" style="font-size:8;fill:#808080">
	<text transform="matrix(1 0 0 1 8.50 20.50)">1</text>
	<text transform="matrix(1 0 0 1 22.50 30.50)">2</text>
	<text transform="matrix(1 0 0 1 38.25 31.50)">3</text>
	<text transform="matrix(1 0 0 1 11.50 62.50)">4</text>
	<text transform="matrix(1 0 0 1 27.50 53.50)">5</text>
	<text transform="matrix(1 0 0 1 6.75 88.50)">6</text>
	<text transform="matrix(1 0 0 1 57.50 28.50)">7</text>
	<text transform="matrix(1 0 0 1 76.50 15.50)">8</text>
</g>
</svg>