<svg xmlns="http://www.w3.org/2000/svg" xmlns:kvg="http://kanjivg.tagaini.net" height="109" kun="&#12356;&#12373;&#12362;" meaning="achievement, merits, success, honor, credit" on="&#12467;&#12454;, &#12463;" viewBox="0 0 109 109" width="109">
<g id="kvg:StrokePaths_0529f" style="fill:none;stroke:#000000;stroke-width:3;stroke-linecap:round;stroke-linejoin:round;">
<g id="kvg:0529f" kvg:element="&#21151;">
	<g id="kvg:0529f-g1" kvg:element="&#24037;" kvg:phon="&#24037;" kvg:position="left" kvg:radical="nelson">
		<path d="M14,33.9c1.75,0.46,3.95,0.37,5.4,0.15c4.58-0.7,12.28-2.56,18.23-3.11c1.31-0.12,3.37-0.06,4.49,0.17" id="kvg:0529f-s1" kvg:type="&#12752;" />
		<path d="M28.57,35.52c1.02,1.02,1.48,1.86,1.48,3.48c0,5.95,0.1,23.88,0.1,28.82" id="kvg:0529f-s2" kvg:type="&#12753;a" />
		<path d="M15.25,74.25c1.38,0.88,2.25,0.62,4-0.25c5.3-2.65,10.88-5.38,20-10.25" id="kvg:0529f-s3" kvg:type="&#12736;/&#12752;" />
	</g>
	<g id="kvg:0529f-g2" kvg:element="&#21147;" kvg:position="right" kvg:radical="tradit">
		<path d="M48.15,39.31c2.47,0.81,5.87,0.79,8.27,0.38c10.11-1.71,27.41-6.1,31.98-7c4.11-0.82,5.01,1.96,4.87,5.41C92.75,50,84.88,77.75,77.35,90.01c-4.34,7.08-7.85,1.74-9.93-0.49" id="kvg:0529f-s4" kvg:type="&#12742;" />
		<path d="M70.89,14.13c0.99,1.24,1.29,3.07,0.83,5.57C66.62,47,59.62,72.88,40.22,89.17" id="kvg:0529f-s5" kvg:type="&#12754;" />
	</g>
</g>
</g>
<g id="kvg:StrokeNumbers_0529f" style="font-size:8;fill:#808080">
	<text transform="matrix(1 0 0 1 6.49 35.50)">1</text>
	<text transform="matrix(1 0 0 1 22.50 44.50)">2</text>
	<text transform="matrix(1 0 0 1 6.50 77.50)">3</text>
	<text transform="matrix(1 0 0 1 48.49 36.50)">4</text>
	<text transform="matrix(1 0 0 1 61.50 14.50)">5</text>
</g>
</svg>