<svg xmlns="http://www.w3.org/2000/svg" xmlns:kvg="http://kanjivg.tagaini.net" height="109" kun="&#12388;&#12363;.&#12428;&#12427;" meaning="become tired, work busily" on="&#12463;" viewBox="0 0 109 109" width="109">
<g id="kvg:StrokePaths_052ac" style="fill:none;stroke:#000000;stroke-width:3;stroke-linecap:round;stroke-linejoin:round;">
<g id="kvg:052ac" kvg:element="&#21164;">
	<g id="kvg:052ac-g1" kvg:element="&#21477;" kvg:position="left">
		<g id="kvg:052ac-g2" kvg:element="&#21241;">
			<g id="kvg:052ac-g3" kvg:element="&#20031;">
				<path d="M26.92,13.85c0.04,0.73,0.09,1.87-0.08,2.92c-1.02,6.15-6.87,19.64-14.87,27.9" id="kvg:052ac-s1" kvg:type="&#12754;" />
			</g>
			<path d="M24.77,30.85c0.72,0.69,1.66,0.69,2.87,0.46c6.86-1.31,20.04-2.79,22.89-3.4c2.15-0.46,3.02,1.59,3.02,4.8C53.51,45.5,49.25,74,40.71,90.38c-2.67,5.11-4.58,3.38-6.96-1.14" id="kvg:052ac-s2" kvg:type="&#12742;" />
		</g>
		<g id="kvg:052ac-g4" kvg:element="&#21475;">
			<path d="M17.39,47.4c0.24,0.31,0.99,1.58,1.1,1.97c0.84,3.12,2.42,16.52,2.99,22.12" id="kvg:052ac-s3" kvg:type="&#12753;" />
			<path d="M18.82,49.03C24,48,32.53,46.21,36.14,45.68c1.32-0.19,2.19,0.91,1.92,2.73c-0.7,4.71-2.48,11.72-3.51,19.33" id="kvg:052ac-s4" kvg:type="&#12757;b" />
			<path d="M21.82,69.85c3.96-0.53,10.48-1.44,15.92-2.25" id="kvg:052ac-s5" kvg:type="&#12752;b" />
		</g>
	</g>
	<g id="kvg:052ac-g5" kvg:element="&#21147;" kvg:position="right" kvg:radical="general">
		<path d="M59.41,36.47c1.9,1.2,3.35,1.67,5.36,1.36c8.73-1.33,20.43-3.84,24.71-4.09c4.27-0.24,4.57,2.03,4.37,5.19C93,52.25,88.25,78.25,80.3,91.53c-3.84,6.42-6.23,0.31-7.34-0.68" id="kvg:052ac-s6" kvg:type="&#12742;" />
		<path d="M74.94,14.68c0.56,1.32,1.16,2.81,0.87,5.47c-2.17,19.71-8.33,58.54-24.17,73.51" id="kvg:052ac-s7" kvg:type="&#12754;" />
	</g>
</g>
</g>
<g id="kvg:StrokeNumbers_052ac" style="font-size:8;fill:#808080">
	<text transform="matrix(1 0 0 1 19.50 14.50)">1</text>
	<text transform="matrix(1 0 0 1 29.50 27.50)">2</text>
	<text transform="matrix(1 0 0 1 11.50 54.50)">3</text>
	<text transform="matrix(1 0 0 1 20.50 45.50)">4</text>
	<text transform="matrix(1 0 0 1 24.50 65.50)">5</text>
	<text transform="matrix(1 0 0 1 60.50 34.50)">6</text>
	<text transform="matrix(1 0 0 1 66.50 14.18)">7</text>
</g>
</svg>