<svg xmlns="http://www.w3.org/2000/svg" xmlns:kvg="http://kanjivg.tagaini.net" height="109" meaning="rush, hurry, be flustered" viewBox="0 0 109 109" width="109">
<g id="kvg:StrokePaths_05306" style="fill:none;stroke:#000000;stroke-width:3;stroke-linecap:round;stroke-linejoin:round;">
<g id="kvg:05306" kvg:element="&#21254;">
	<g id="kvg:05306-g1" kvg:element="&#21247;">
		<g id="kvg:05306-g2" kvg:element="&#21241;" kvg:radical="general">
			<g id="kvg:05306-g3" kvg:element="&#20031;">
				<path d="M38.5,15.5c0.06,0.76,0.33,2.03-0.13,3.05c-3.13,6.95-9.13,19.2-21.13,29.2" id="kvg:05306-s1" kvg:type="&#12754;" />
			</g>
			<path d="M32.75,34.14c1.29,0.67,3.05,0.57,5.16,0.45c6.09-0.34,39.5-3.76,44.66-3.98c5.16-0.22,6.2,2.24,5.42,6.95c-0.77,4.71-6.7,40.4-18.05,53.18c-3.41,3.84-5.21,1.68-8.26-1.12" id="kvg:05306-s2" kvg:type="&#12742;" />
		</g>
		<g id="kvg:05306-g4" kvg:element="&#20031;">
			<path d="M47.5,37.75c0.07,0.65,0.2,1.71-0.14,2.63C44,49.43,36,58.06,22.75,65.5" id="kvg:05306-s3" kvg:type="&#12754;" />
		</g>
		<g id="kvg:05306-g5" kvg:element="&#20031;">
			<path d="M67.44,35.5c0.13,1.26-0.05,3.3-0.76,5.04C62,52,48.32,73.98,24,88.25" id="kvg:05306-s4" kvg:type="&#12754;" />
		</g>
	</g>
	<path d="M31.77,48.08c11.49,3.02,29.67,12.43,32.54,17.13" id="kvg:05306-s5" kvg:type="&#12756;" />
</g>
</g>
<g id="kvg:StrokeNumbers_05306" style="font-size:8;fill:#808080">
	<text transform="matrix(1 0 0 1 30.50 15.50)">1</text>
	<text transform="matrix(1 0 0 1 39.50 31.50)">2</text>
	<text transform="matrix(1 0 0 1 37.50 43.50)">3</text>
	<text transform="matrix(1 0 0 1 58.50 41.50)">4</text>
	<text transform="matrix(1 0 0 1 25.50 50.50)">5</text>
</g>
</svg>