<svg xmlns="http://www.w3.org/2000/svg" xmlns:kvg="http://kanjivg.tagaini.net" height="109" kun="&#12373;&#12435;&#12376;&#12421;&#12358;" meaning="thirty" on="&#12477;&#12454;" viewBox="0 0 109 109" width="109">
<g id="kvg:StrokePaths_05345" style="fill:none;stroke:#000000;stroke-width:3;stroke-linecap:round;stroke-linejoin:round;">
<g id="kvg:05345" kvg:element="&#21317;">
	<g id="kvg:05345-g1" kvg:element="&#24318;">
		<g id="kvg:05345-g2" kvg:element="&#21313;" kvg:part="1" kvg:radical="tradit">
			<path d="M13.75,50.7c1.56,0.54,4.41,0.69,5.96,0.54c10.17-0.99,55.54-5.74,71.84-6.23c2.59-0.08,4.15,0.26,5.45,0.53" id="kvg:05345-s1" kvg:type="&#12752;" />
		</g>
		<g id="kvg:05345-g3" kvg:element="&#24029;" kvg:original="&#24027;" kvg:part="1" kvg:variant="true">
			<g id="kvg:05345-g4" kvg:element="&#20031;">
				<path d="M34.4,20.93c0.84,1.82,1,4.45,1,6.37c0,43.96,0.09,53.46-15.91,65.71" id="kvg:05345-s2" kvg:type="&#12754;" />
			</g>
		</g>
		<g id="kvg:05345-g5" kvg:element="&#24029;" kvg:original="&#24027;" kvg:part="2" kvg:variant="true">
			<g id="kvg:05345-g6" kvg:element="&#21313;" kvg:part="2" kvg:radical="tradit">
				<path d="M53.25,17.63c0.43,0.36,1.33,2.69,1.41,3.4c0.09,0.72-0.05,67.36-0.14,71.85" id="kvg:05345-s3" kvg:type="&#12753;" />
			</g>
		</g>
	</g>
	<g id="kvg:05345-g7" kvg:element="&#24029;" kvg:original="&#24027;" kvg:part="3" kvg:variant="true">
		<g id="kvg:05345-g8" kvg:element="&#20008;" kvg:radical="nelson">
			<path d="M73.31,15.63c0.76,0.45,2.01,2.12,2.01,4.25c0,0.91-0.1,69.65-0.25,75.25" id="kvg:05345-s4" kvg:type="&#12753;" />
		</g>
	</g>
</g>
</g>
<g id="kvg:StrokeNumbers_05345" style="font-size:8;fill:#808080">
	<text transform="matrix(1 0 0 1 7.50 50.50)">1</text>
	<text transform="matrix(1 0 0 1 25.50 20.50)">2</text>
	<text transform="matrix(1 0 0 1 45.50 16.50)">3</text>
	<text transform="matrix(1 0 0 1 66.50 14.50)">4</text>
</g>
</svg>