<svg xmlns="http://www.w3.org/2000/svg" xmlns:kvg="http://kanjivg.tagaini.net" height="109" kun="&#12399;&#12425;" meaning="meadow, original, primitive, field, plain, prairie, tundra, wilderness" on="&#12466;&#12531;" viewBox="0 0 109 109" width="109">
<g id="kvg:StrokePaths_0539f" style="fill:none;stroke:#000000;stroke-width:3;stroke-linecap:round;stroke-linejoin:round;">
<g id="kvg:0539f" kvg:element="&#21407;">
	<g id="kvg:0539f-g1" kvg:element="&#21378;" kvg:position="tare" kvg:radical="general">
		<path d="M25.02,17.86c2.57,0.56,6.76,0.54,9.31,0.31C48.75,16.88,65.5,15,79.88,14.29c4.27-0.21,6.85,0.02,9,0.3" id="kvg:0539f-s1" kvg:type="&#12752;" />
		<path d="M27.75,18.98c0.5,1.02,0.69,2.02,0.65,3.46C27.75,43,25.5,67.5,10.75,83" id="kvg:0539f-s2" kvg:type="&#12754;" />
	</g>
	<g id="kvg:0539f-g2" kvg:element="&#30333;">
		<g id="kvg:0539f-g3" kvg:position="top">
			<path d="M60.15,18.88c0.24,0.93,0.2,1.82-0.13,2.68c-0.76,2.36-2.56,5.94-4.27,8.2" id="kvg:0539f-s3" kvg:type="&#12754;" />
		</g>
		<g id="kvg:0539f-g4" kvg:element="&#26085;" kvg:position="bottom">
			<path d="M38.25,33.25c0.81,0.81,1.63,2.15,1.75,3c0.38,2.62,1.94,13.11,3.04,20.5c0.33,2.2,0.59,3.99,0.7,4.96" id="kvg:0539f-s4" kvg:type="&#12753;" />
			<path d="M40.53,34.54c11.97-1.66,32.85-4.41,39.45-4.96c3.89-0.33,5.14,1.92,4.52,4.92c-0.78,3.75-1.97,11.27-4.39,19.34c-0.46,1.53-0.96,3.09-1.5,4.65" id="kvg:0539f-s5" kvg:type="&#12757;a" />
			<path d="M42.82,46.52c11.18-1.65,33.05-3.97,38.85-4.33" id="kvg:0539f-s6" kvg:type="&#12752;a" />
			<path d="M44.54,58.7c11.46-1.33,23.21-2.2,33.98-2.95" id="kvg:0539f-s7" kvg:type="&#12752;a" />
		</g>
	</g>
	<g id="kvg:0539f-g5" kvg:element="&#23567;">
		<path d="M60.27,59.98c1,1,1.66,2.52,1.66,4.05c0,7.39-0.19,24.98-0.19,27.5c0,7.72-5.62,1.72-7.84-0.62" id="kvg:0539f-s8" kvg:type="&#12762;" />
		<path d="M42.39,70.85c0.14,1.13-0.24,2.37-0.92,3.3c-2.72,3.8-7.23,9.6-17.48,16.35" id="kvg:0539f-s9" kvg:type="&#12754;" />
		<path d="M79.75,72c4.45,2.98,11.01,12.25,12.12,16.88" id="kvg:0539f-s10" kvg:type="&#12756;" />
	</g>
</g>
</g>
<g id="kvg:StrokeNumbers_0539f" style="font-size:8;fill:#808080">
	<text transform="matrix(1 0 0 1 31.50 13.63)">1</text>
	<text transform="matrix(1 0 0 1 20.50 27.13)">2</text>
	<text transform="matrix(1 0 0 1 65.50 25.63)">3</text>
	<text transform="matrix(1 0 0 1 32.50 43.50)">4</text>
	<text transform="matrix(1 0 0 1 42.75 30.50)">5</text>
	<text transform="matrix(1 0 0 1 45.50 43.50)">6</text>
	<text transform="matrix(1 0 0 1 45.50 55.50)">7</text>
	<text transform="matrix(1 0 0 1 54.75 69.50)">8</text>
	<text transform="matrix(1 0 0 1 35.50 72.13)">9</text>
	<text transform="matrix(1 0 0 1 66.50 68.50)">10</text>
</g>
</svg>