<svg xmlns="http://www.w3.org/2000/svg" xmlns:kvg="http://kanjivg.tagaini.net" height="109" meaning="gone, past, quit, leave, elapse, eliminate, divorce" viewBox="0 0 109 109" width="109">
<g id="kvg:StrokePaths_053bb" style="fill:none;stroke:#000000;stroke-width:3;stroke-linecap:round;stroke-linejoin:round;">
<g id="kvg:053bb" kvg:element="&#21435;">
	<g id="kvg:053bb-g1" kvg:element="&#22303;" kvg:position="top" kvg:radical="nelson">
		<path d="M28.38,39c2.81,0.63,6.48,0.28,9.3,0c10.67-1.09,23.05-3.73,35.61-4.63c2.53-0.18,4.97-0.35,7.46,0.17" id="kvg:053bb-s1" kvg:type="&#12752;" />
		<path d="M52.65,13.75c1.36,1.36,1.81,3.09,1.81,5.04c0,11.96,0.14,33.68,0.14,36.86" id="kvg:053bb-s2" kvg:type="&#12753;a" />
		<path d="M12.13,60.35c4.02,0.9,8.1,0.74,12.11,0.19c19.26-2.66,43.18-5.3,60.26-6.23c3.91-0.21,8.63-0.3,11.88,0.3" id="kvg:053bb-s3" kvg:type="&#12752;" />
	</g>
	<g id="kvg:053bb-g2" kvg:element="&#21430;" kvg:position="bottom" kvg:radical="tradit">
		<path d="M50.6,61c0.28,1.25-0.31,3.07-0.85,3.75c-7.25,9.12-12.12,14.42-21.5,22.75c-2.82,2.5-2.39,5.11,2.1,4.19c11.9-2.44,29.15-6.19,46.4-9.94" id="kvg:053bb-s4" kvg:type="&#12764;" />
		<path d="M66.75,70.88c6.99,4.43,17,17.5,19.81,25.09" id="kvg:053bb-s5" kvg:type="&#12756;" />
	</g>
</g>
</g>
<g id="kvg:StrokeNumbers_053bb" style="font-size:8;fill:#808080">
	<text transform="matrix(1 0 0 1 21.50 40.63)">1</text>
	<text transform="matrix(1 0 0 1 43.50 14.50)">2</text>
	<text transform="matrix(1 0 0 1 5.50 60.13)">3</text>
	<text transform="matrix(1 0 0 1 38.50 68.50)">4</text>
	<text transform="matrix(1 0 0 1 62.50 68.50)">5</text>
</g>
</svg>