<svg xmlns="http://www.w3.org/2000/svg" xmlns:kvg="http://kanjivg.tagaini.net" height="109" kun="&#12405;&#12383;, &#12383;&#12368;&#12356;, &#12394;&#12425;&#12406;, &#12405;&#12383;&#12388;" meaning="pair, set, comparison, counter for pairs" on="&#12477;&#12454;" viewBox="0 0 109 109" width="109">
<g id="kvg:StrokePaths_053cc" style="fill:none;stroke:#000000;stroke-width:3;stroke-linecap:round;stroke-linejoin:round;">
<g id="kvg:053cc" kvg:element="&#21452;">
	<g id="kvg:053cc-g1" kvg:element="&#21448;" kvg:position="left" kvg:radical="general" kvg:variant="true">
		<path d="M14.54,31.55c1.18,0.39,3.06,0.63,5.45,0.14c3.01-0.62,12.57-3.5,17.06-4.8c2.72-0.79,5.3,0.19,4.5,3.52C36.6,51.15,28.75,71,9.17,84.5" id="kvg:053cc-s1" kvg:type="&#12743;" />
		<path d="M19.12,46c8.38,5.38,18.28,14.69,24.12,26.25" id="kvg:053cc-s2" kvg:type="&#12756;/&#12751;" />
	</g>
	<g id="kvg:053cc-g2" kvg:element="&#21448;" kvg:position="right" kvg:radical="general">
		<path d="M52.29,28.05c1.18,0.39,3.8,0.58,6.2,0.14c4.39-0.82,16.12-4.39,17.75-4.97c2.76-0.98,5.16,0.87,4.22,4.02c-7.21,24.12-18.33,45.62-38.21,58" id="kvg:053cc-s3" kvg:type="&#12743;" />
		<path d="M51.02,39.66c5.18,0.95,19.74,22.79,33.04,36.29c3.45,3.5,7.09,6.62,11.28,9.2" id="kvg:053cc-s4" kvg:type="&#12751;" />
	</g>
</g>
</g>
<g id="kvg:StrokeNumbers_053cc" style="font-size:8;fill:#808080">
	<text transform="matrix(1 0 0 1 13.50 28.50)">1</text>
	<text transform="matrix(1 0 0 1 17.50 42.50)">2</text>
	<text transform="matrix(1 0 0 1 51.50 25.50)">3</text>
	<text transform="matrix(1 0 0 1 55.50 40.55)">4</text>
</g>
</svg>