<svg xmlns="http://www.w3.org/2000/svg" xmlns:kvg="http://kanjivg.tagaini.net" height="109" meaning="fork in road, crotch" viewBox="0 0 109 109" width="109">
<g id="kvg:StrokePaths_053c9" style="fill:none;stroke:#000000;stroke-width:3;stroke-linecap:round;stroke-linejoin:round;">
<g id="kvg:053c9" kvg:element="&#21449;">
	<g id="kvg:053c9-g1" kvg:element="&#21448;" kvg:part="1" kvg:radical="general">
		<path d="M29.51,26.45c3.59,0.84,6.36,0.52,9.99-0.23c8.9-1.84,29.52-6.62,31.9-7.22c3-0.76,5.37,1.35,3.85,5.28C63.17,55.48,41.86,78.74,18.75,90.5" id="kvg:053c9-s1" kvg:type="&#12743;" />
	</g>
	<g id="kvg:053c9-g2" kvg:element="&#20022;">
		<path d="M45.52,33.83c3.73,1.92,8.48,6.79,9.54,10.13" id="kvg:053c9-s2" kvg:type="&#12756;" />
	</g>
	<g id="kvg:053c9-g3" kvg:element="&#21448;" kvg:part="2" kvg:radical="general">
		<path d="M26.75,37.5c5.62,1.1,28.75,26.42,49.96,42.56C82.67,84.67,89.1,88.49,96,91.5" id="kvg:053c9-s3" kvg:type="&#12751;" />
	</g>
</g>
</g>
<g id="kvg:StrokeNumbers_053c9" style="font-size:8;fill:#808080">
	<text transform="matrix(1 0 0 1 28.50 23.50)">1</text>
	<text transform="matrix(1 0 0 1 37.50 37.50)">2</text>
	<text transform="matrix(1 0 0 1 22.50 45.50)">3</text>
</g>
</svg>