<svg xmlns="http://www.w3.org/2000/svg" xmlns:kvg="http://kanjivg.tagaini.net" height="109" kun="&#12362;&#12365;&#12394;" meaning="old person" on="&#12477;&#12454;, &#12471;&#12517;&#12454;" viewBox="0 0 109 109" width="109">
<g id="kvg:StrokePaths_053df" style="fill:none;stroke:#000000;stroke-width:3;stroke-linecap:round;stroke-linejoin:round;">
<g id="kvg:053df" kvg:element="&#21471;">
	<g id="kvg:053df-g1" kvg:position="top">
		<g id="kvg:053df-g2" kvg:element="&#33276;" kvg:variant="true">
			<path d="M52.25,10.25c1.25,0.5,2,2.25,2.25,3.25s0,41.75-0.25,48" id="kvg:053df-s1" kvg:type="&#12753;" />
			<path d="M43.51,15.71c0.05,0.25-0.28,1.24-0.6,1.52c-4.28,3.62-8.26,6.35-18.01,9.23" id="kvg:053df-s2" kvg:type="&#12754;" />
			<path d="M24.24,24.92c0.84,0.75,1.19,2.42,1.4,3.96c0.76,5.61,2.67,16.53,3.44,24.12" id="kvg:053df-s3" kvg:type="&#12753;" />
			<path d="M27.09,36.66c4.17-0.34,13.7-2.21,14.69-2.21s2.38,0,3.18,0" id="kvg:053df-s4" kvg:type="&#12752;" />
			<path d="M 29.28,51.662003 c 4.750734,-0.961399 14.3008,-1.357192 17.228257,-1.143708" id="kvg:053df-s5" kvg:type="&#12752;" />
			<path d="M62.9,18.71c0.99,0.17,1.79,0.51,3.18,0.51S81.18,17.17,82.77,17s2.91,0.84,2.78,1.88c-1.19,9.89-4.47,29.56-4.67,30.24" id="kvg:053df-s6" kvg:type="&#12757;" />
			<path d="M62.8,33.27c0.99,0.17,1.79,0.51,3.18,0.51s15.7-0.86,17.29-1.04" id="kvg:053df-s7" kvg:type="&#12752;" />
		</g>
		<g id="kvg:053df-g3" kvg:element="&#20008;">
			<path d="M 62.806092,48.744611 c 1.380267,0.223658 2.644375,0.349456 3.825641,0.301662 4.231262,-0.1712 9.439223,-0.303205 13.228543,-0.469112" id="kvg:053df-s8" kvg:type="&#12752;" />
		</g>
	</g>
	<g id="kvg:053df-g4" kvg:element="&#21448;" kvg:position="bottom" kvg:radical="general">
		<path d="M31.5,63.71c2,0.28,2.28,0.91,6.25,0.28C44,63,70.5,59.88,73.25,59.46c2.75-0.42,3.93,2.7,2.75,4.12C61.75,80.75,42,92.55,19.5,99.5" id="kvg:053df-s9" kvg:type="&#12743;" />
		<path d="M35.5,70.83C43,71,64.9,89.72,82.3,97.18c2.71,1.16,4.68,1.94,7.2,2.32" id="kvg:053df-s10" kvg:type="&#12751;" />
	</g>
</g>
</g>
<g id="kvg:StrokeNumbers_053df" style="font-size:8;fill:#808080">
	<text transform="matrix(1 0 0 1 46.50 9.68)">1</text>
	<text transform="matrix(1 0 0 1 36.75 14.50)">2</text>
	<text transform="matrix(1 0 0 1 17.50 34.50)">3</text>
	<text transform="matrix(1 0 0 1 31.50 32.66)">4</text>
	<text transform="matrix(1 0 0 1 32.69 47.50)">5</text>
	<text transform="matrix(1 0 0 1 61.50 15.50)">6</text>
	<text transform="matrix(1 0 0 1 61.50 30.50)">7</text>
	<text transform="matrix(1 0 0 1 62.3 46.3)">8</text>
	<text transform="matrix(1 0 0 1 23.50 64.50)">9</text>
	<text transform="matrix(1 0 0 1 25 73.50)">10</text>
</g>
</svg>