<svg xmlns="http://www.w3.org/2000/svg" xmlns:kvg="http://kanjivg.tagaini.net" height="109" meaning="courtesy" viewBox="0 0 109 109" width="109">
<g id="kvg:StrokePaths_053ee" style="fill:none;stroke:#000000;stroke-width:3;stroke-linecap:round;stroke-linejoin:round;">
<g id="kvg:053ee" kvg:element="&#21486;">
	<g id="kvg:053ee-g1" kvg:element="&#21475;" kvg:position="left" kvg:radical="general">
		<path d="M13.25,33.29c0.37,0.51,0.76,0.94,0.92,1.58C15.46,39.93,17.51,53.9,18.4,63" id="kvg:053ee-s1" kvg:type="&#12753;" />
		<path d="M14.58,35.22c7.42-1.47,18.55-3.06,22.92-3.73c1.6-0.24,2.56,1.44,2.33,2.87c-0.95,5.92-3.05,15.07-4.46,23.25" id="kvg:053ee-s2" kvg:type="&#12757;b" />
		<path d="M18.57,60.05c5.14-0.75,11.68-1.55,19.39-2.21" id="kvg:053ee-s3" kvg:type="&#12752;b" />
	</g>
	<g id="kvg:053ee-g2" kvg:element="&#19969;" kvg:position="right">
		<g id="kvg:053ee-g3" kvg:element="&#19968;">
			<path d="M43.91,22.83c1.36,0.39,3.86,0.48,5.22,0.39c13.94-1.01,27.94-3.63,44.69-4.13c2.27-0.07,3.63,0.18,4.76,0.38" id="kvg:053ee-s4" kvg:type="&#12752;" />
		</g>
		<g id="kvg:053ee-g4" kvg:element="&#20101;">
			<path d="M72.35,24.21c0.09,0.51,1.79,2.68,1.79,5.95c0,19.59-0.26,55.82-0.26,61.17c0,12.11-8.24,0.55-9.78-0.8" id="kvg:053ee-s5" kvg:type="&#12762;" />
		</g>
	</g>
</g>
</g>
<g id="kvg:StrokeNumbers_053ee" style="font-size:8;fill:#808080">
	<text transform="matrix(1 0 0 1 6.50 40.85)">1</text>
	<text transform="matrix(1 0 0 1 17.50 31.50)">2</text>
	<text transform="matrix(1 0 0 1 22.50 56.50)">3</text>
	<text transform="matrix(1 0 0 1 42.50 19.50)">4</text>
	<text transform="matrix(1 0 0 1 65.50 32.50)">5</text>
</g>
</svg>