<svg xmlns="http://www.w3.org/2000/svg" xmlns:kvg="http://kanjivg.tagaini.net" height="109" kun="&#12375;&#12431;.&#12356;, &#12420;&#12406;&#12373;.&#12363;, &#12362;&#12375;.&#12416;" meaning="miserly, stingy, sparing" on="&#12522;&#12531;" viewBox="0 0 109 109" width="109">
<g id="kvg:StrokePaths_0541d" style="fill:none;stroke:#000000;stroke-width:3;stroke-linecap:round;stroke-linejoin:round;">
<g id="kvg:0541d" kvg:element="&#21533;">
	<g id="kvg:0541d-g1" kvg:element="&#25991;" kvg:position="top" kvg:radical="nelson">
		<g id="kvg:0541d-g2" kvg:element="&#20128;" kvg:position="top">
			<path d="M51.78,10.5c0.72,0.47,1.9,2.27,1.9,3.2c0,3.68-0.02,9.28-0.1,11.92" id="kvg:0541d-s1" kvg:type="&#12753;a" />
			<path d="M21.65,27.6c1.13,0.07,3.25,0.4,4.36,0.36c9.2-0.34,44.43-4.18,56.48-4.37c1.86-0.03,2.81,0.03,4.2,0.46" id="kvg:0541d-s2" kvg:type="&#12752;" />
		</g>
		<g id="kvg:0541d-g3" kvg:element="&#20034;" kvg:position="bottom">
			<path d="M65.64,27.74c0.64,0.96,1.42,1.74,0.32,3.39c-10.46,15.62-29.21,31.12-51,39.62" id="kvg:0541d-s3" kvg:type="&#12754;" />
			<path d="M35.27,33.32c14.32,7.97,34.79,23.01,51.77,31.32c3.19,1.57,5.55,1.54,8.32,1.68" id="kvg:0541d-s4" kvg:type="&#12751;" />
		</g>
	</g>
	<g id="kvg:0541d-g4" kvg:element="&#21475;" kvg:position="bottom" kvg:radical="tradit">
		<path d="M30.98,72.27c0.47,0.46,0.95,0.84,1.15,1.42c1.63,4.55,3.57,16.1,4.68,24.28" id="kvg:0541d-s5" kvg:type="&#12753;" />
		<path d="M32.4,73.83c11.48-1.91,34.13-4.42,40.05-5.06c2.17-0.23,3.47,2.37,3.16,3.76c-1.28,5.73-2.61,11.72-5,20.43" id="kvg:0541d-s6" kvg:type="&#12757;b" />
		<path d="M37.28,95.95c6.95-0.73,26.67-2.55,35.49-3.28" id="kvg:0541d-s7" kvg:type="&#12752;b" />
	</g>
</g>
</g>
<g id="kvg:StrokeNumbers_0541d" style="font-size:8;fill:#808080">
	<text transform="matrix(1 0 0 1 43.50 11.63)">1</text>
	<text transform="matrix(1 0 0 1 13.50 26.50)">2</text>
	<text transform="matrix(1 0 0 1 56.50 34.48)">3</text>
	<text transform="matrix(1 0 0 1 29.50 37.40)">4</text>
	<text transform="matrix(1 0 0 1 24.50 78.50)">5</text>
	<text transform="matrix(1 0 0 1 35.50 69.50)">6</text>
	<text transform="matrix(1 0 0 1 40.50 92.18)">7</text>
</g>
</svg>