<svg xmlns="http://www.w3.org/2000/svg" xmlns:kvg="http://kanjivg.tagaini.net" height="109" kun="&#12377;.&#12358;" meaning="suck" on="&#12475;&#12531;, &#12471;&#12517;&#12531;" viewBox="0 0 109 109" width="109">
<g id="kvg:StrokePaths_0542e" style="fill:none;stroke:#000000;stroke-width:3;stroke-linecap:round;stroke-linejoin:round;">
<g id="kvg:0542e" kvg:element="&#21550;">
	<g id="kvg:0542e-g1" kvg:element="&#21475;" kvg:position="left" kvg:radical="general">
		<path d="M11.25,33.29c0.37,0.51,0.76,0.94,0.92,1.58C13.46,39.93,15.51,53.9,16.4,63" id="kvg:0542e-s1" kvg:type="&#12753;" />
		<path d="M13.58,35.72c9.42-2.22,16.05-3.06,20.42-3.73c1.6-0.24,2.56,1.44,2.33,2.87c-0.95,5.92-2.55,14.07-3.96,22.25" id="kvg:0542e-s2" kvg:type="&#12757;b" />
		<path d="M16.57,59.05c5.14-0.75,10.83-1.05,17.89-2.21" id="kvg:0542e-s3" kvg:type="&#12752;b" />
	</g>
	<g id="kvg:0542e-g2" kvg:element="&#20801;" kvg:position="right">
		<g id="kvg:0542e-g3" kvg:element="&#21430;" kvg:position="top">
			<path d="M65.17,10.75c0.59,0.63,0.64,3.1,0.2,3.88C59.75,24.5,54,31.75,46.3,41.3c-2.15,2.67-2.54,2.97,1.18,2.28c9.05-1.68,26.34-5.57,38.94-8.39" id="kvg:0542e-s4" kvg:type="&#12764;" />
			<path d="M77.25,24.83c5.57,3.6,14.38,14.79,15.77,20.39" id="kvg:0542e-s5" kvg:type="&#12756;" />
		</g>
		<g id="kvg:0542e-g4" kvg:element="&#20799;" kvg:position="bottom">
			<g id="kvg:0542e-g5" kvg:element="&#20843;" kvg:variant="true">
				<g id="kvg:0542e-g6" kvg:element="&#20031;" kvg:position="left">
					<path d="M56.47,49.21c0.78,0.79,1.39,2.96,1.38,4.63C57.75,68.75,53,90,34.89,98.17" id="kvg:0542e-s6" kvg:type="&#12754;" />
				</g>
				<g id="kvg:0542e-g7" kvg:position="right">
					<path d="M72.84,43.87c0.61,1.54,1.09,3.35,1.12,5.72c0.16,10.58,0.07,25.86,0.07,33.06c0,12.1-0.04,13.91,12.44,13.91c9.77,0,10.94-2.56,10.94-13.3" id="kvg:0542e-s7" kvg:type="&#12767;" />
				</g>
			</g>
		</g>
	</g>
</g>
</g>
<g id="kvg:StrokeNumbers_0542e" style="font-size:8;fill:#808080">
	<text transform="matrix(1 0 0 1 6.85 43.85)">1</text>
	<text transform="matrix(1 0 0 1 15.66 32.85)">2</text>
	<text transform="matrix(1 0 0 1 18.71 58.85)">3</text>
	<text transform="matrix(1 0 0 1 58.25 12.40)">4</text>
	<text transform="matrix(1 0 0 1 78.25 19.33)">5</text>
	<text transform="matrix(1 0 0 1 48.25 55.25)">6</text>
	<text transform="matrix(1 0 0 1 65.25 53.18)">7</text>
</g>
</svg>