<svg xmlns="http://www.w3.org/2000/svg" xmlns:kvg="http://kanjivg.tagaini.net" height="109" kun="&#12354;" meaning="open one's mouth, bare one's teeth, empty" on="&#12460;, &#12459;" viewBox="0 0 109 109" width="109">
<g id="kvg:StrokePaths_05440" style="fill:none;stroke:#000000;stroke-width:3;stroke-linecap:round;stroke-linejoin:round;">
<g id="kvg:05440" kvg:element="&#21568;">
	<g id="kvg:05440-g1" kvg:element="&#21475;" kvg:position="left" kvg:radical="general">
		<path d="M10.25,33.29c0.37,0.51,0.76,0.94,0.92,1.58C12.46,39.93,14.51,53.9,15.4,63" id="kvg:05440-s1" kvg:type="&#12753;" />
		<path d="M12.58,35.22C22,33,29.12,32.16,33.49,31.49c1.6-0.24,2.56,1.44,2.33,2.87c-0.95,5.92-3.05,13.07-4.46,21.25" id="kvg:05440-s2" kvg:type="&#12757;b" />
		<path d="M15.57,58.55c5.14-0.75,11.33-1.05,18.39-2.21" id="kvg:05440-s3" kvg:type="&#12752;b" />
	</g>
	<g id="kvg:05440-g2" kvg:element="&#29273;" kvg:position="right">
		<path d="M44.44,17.89c1.04,0.48,2.94,0.54,3.98,0.48c7.91-0.42,30.55-3.89,40.94-4.19c1.73-0.05,2.77,0.23,3.64,0.47" id="kvg:05440-s4" kvg:type="&#12752;" />
		<path d="M49.28,26.85c1.48,1.24,1.59,2.8,1.58,4.2c-1.09,7.41-2.08,12.85-3.58,16.55c-1.12,2.76,0.47,3.04,2.73,2.47c5.91-1.48,35.94-5.19,45.91-4.55c1.73,0.11,2.77,0.23,3.64,0.47" id="kvg:05440-s5" kvg:type="&#12759;" />
		<g id="kvg:05440-g3" kvg:element="&#20101;">
			<path d="M77.15,17.84c1.18,1.11,2.18,3.22,2.26,7.15c0.41,18.86-0.26,60.41-0.26,66.83c0,12.85-7.22,3.21-9.86,0.82" id="kvg:05440-s6" kvg:type="&#12762;" />
		</g>
		<g id="kvg:05440-g4" kvg:element="&#20031;">
			<path d="M72.32,47.09c0.84,0.51,0.54,2.18,0.06,3.11c-4.88,9.51-15.47,27.3-37.18,37.18" id="kvg:05440-s7" kvg:type="&#12754;" />
		</g>
	</g>
</g>
</g>
<g id="kvg:StrokeNumbers_05440" style="font-size:8;fill:#808080">
	<text transform="matrix(1 0 0 1 4.50 40.35)">1</text>
	<text transform="matrix(1 0 0 1 13.50 31.50)">2</text>
	<text transform="matrix(1 0 0 1 17.50 54.50)">3</text>
	<text transform="matrix(1 0 0 1 43.50 15.50)">4</text>
	<text transform="matrix(1 0 0 1 40.50 29.50)">5</text>
	<text transform="matrix(1 0 0 1 70.50 25.50)">6</text>
	<text transform="matrix(1 0 0 1 61.50 57.50)">7</text>
</g>
</svg>