<svg xmlns="http://www.w3.org/2000/svg" xmlns:kvg="http://kanjivg.tagaini.net" height="109" kun="&#12411;.&#12360;&#12427;" meaning="bark, roar, get angry" on="&#12507;&#12454;" viewBox="0 0 109 109" width="109">
<g id="kvg:StrokePaths_05486" style="fill:none;stroke:#000000;stroke-width:3;stroke-linecap:round;stroke-linejoin:round;">
<g id="kvg:05486" kvg:element="&#21638;">
	<g id="kvg:05486-g1" kvg:element="&#21475;" kvg:position="left" kvg:radical="general">
		<path d="M10.25,33.29c0.37,0.51,0.76,0.94,0.92,1.58C12.46,39.93,14.51,53.9,15.4,63" id="kvg:05486-s1" kvg:type="&#12753;" />
		<path d="M11.58,35.72c9.42-2.22,17.05-4.06,21.42-4.73c1.6-0.24,2.56,1.44,2.33,2.87c-0.98,6.11-2.58,14.7-3.96,22.75" id="kvg:05486-s2" kvg:type="&#12757;b" />
		<path d="M15.07,59.05c5.14-0.75,11.33-1.05,18.39-2.21" id="kvg:05486-s3" kvg:type="&#12752;b" />
	</g>
	<g id="kvg:05486-g2" kvg:element="&#21253;" kvg:position="right">
		<g id="kvg:05486-g3" kvg:element="&#21241;">
			<g id="kvg:05486-g4" kvg:element="&#20031;">
				<path d="M57.6,13c0.05,0.82,0.27,2.18-0.1,3.29c-2.44,7.25-9.05,20.86-18.14,31.44" id="kvg:05486-s4" kvg:type="&#12754;" />
			</g>
			<path d="M54.49,29.18c0.98,0.61,2.85,0.82,4.42,0.41s27.09-4.28,30.99-4.64c1.85-0.17,3.99,1.12,3.87,3.41C93,42,90.75,57,86.17,72.07c-2.09,6.88-4.96,3.03-7.27,0.48" id="kvg:05486-s5" kvg:type="&#12742;" />
		</g>
		<g id="kvg:05486-g5" kvg:element="&#24051;">
			<g id="kvg:05486-g6" kvg:element="&#24049;" kvg:variant="true">
				<path d="M48.03,45.74c1.28,0.94,2.37,0.94,4.25,0.63c3.81-0.63,18.64-3.27,19.8-3.39c1.54-0.16,2.75,1.03,2.2,3.47c-0.16,0.73-1.28,7.05-3.12,13.53" id="kvg:05486-s6" kvg:type="&#12757;" />
				<path d="M52.24,62.85c4.12-0.45,15.57-1.79,21.43-2.18" id="kvg:05486-s7" kvg:type="&#12752;" />
				<path d="M50.52,46.52c0.9,1.16,1.12,1.5,1.11,3.3c-0.03,5.74,0.15,28.84,0.15,33.86c0,10.9,2.64,12.26,25.45,12.26c19.06,0,21.4-3.25,21.4-13.65" id="kvg:05486-s8" kvg:type="&#12767;" />
			</g>
		</g>
	</g>
</g>
</g>
<g id="kvg:StrokeNumbers_05486" style="font-size:8;fill:#808080">
	<text transform="matrix(1 0 0 1 5.50 43.85)">1</text>
	<text transform="matrix(1 0 0 1 14.50 31.35)">2</text>
	<text transform="matrix(1 0 0 1 18.71 55.50)">3</text>
	<text transform="matrix(1 0 0 1 47.50 12.50)">4</text>
	<text transform="matrix(1 0 0 1 60.50 26.50)">5</text>
	<text transform="matrix(1 0 0 1 53.50 42.25)">6</text>
	<text transform="matrix(1 0 0 1 56.50 59.50)">7</text>
	<text transform="matrix(1 0 0 1 44.50 54.50)">8</text>
</g>
</svg>