<svg xmlns="http://www.w3.org/2000/svg" xmlns:kvg="http://kanjivg.tagaini.net" height="109" kun="&#12363;.&#12416;, &#12367;&#12431;.&#12360;&#12427;" meaning="laugh, chew, eat" on="&#12486;&#12484;, &#12461;" viewBox="0 0 109 109" width="109">
<g id="kvg:StrokePaths_054a5" style="fill:none;stroke:#000000;stroke-width:3;stroke-linecap:round;stroke-linejoin:round;">
<g id="kvg:054a5" kvg:element="&#21669;">
	<g id="kvg:054a5-g1" kvg:element="&#21475;" kvg:position="left" kvg:radical="general">
		<path d="M10.75,32.79c0.37,0.51,0.76,0.94,0.92,1.58C12.96,39.43,15.01,52.9,15.9,62" id="kvg:054a5-s1" kvg:type="&#12753;" />
		<path d="M13.08,35.22c9.42-2.22,17.05-3.06,21.42-3.73c1.6-0.24,2.56,1.44,2.33,2.87c-0.95,5.92-3.05,13.07-4.46,21.25" id="kvg:054a5-s2" kvg:type="&#12757;b" />
		<path d="M16.07,58.55c5.14-0.75,11.33-1.05,18.39-2.21" id="kvg:054a5-s3" kvg:type="&#12752;b" />
	</g>
	<g id="kvg:054a5-g2" kvg:element="&#33267;" kvg:position="right">
		<path d="M42.75,20.16c0.98,0.4,2.76,0.44,3.74,0.4c11.38-0.55,27.82-4.27,44.16-4.76c1.62-0.05,2.6,0.19,3.41,0.39" id="kvg:054a5-s4" kvg:type="&#12752;" />
		<g id="kvg:054a5-g3" kvg:element="&#21430;">
			<path d="M61.71,22.15c0.46,0.55,0.63,2.29,0.28,2.94C57.92,32.56,53.5,36,47,43.07c-1.99,2.17-1.94,3.89,0.97,3.2c6.79-1.6,27.69-5.87,38.39-8.51" id="kvg:054a5-s5" kvg:type="&#12764;" />
			<path d="M77.31,28.66c5.31,3.24,13.72,13.31,15.05,18.35" id="kvg:054a5-s6" kvg:type="&#12756;" />
		</g>
		<g id="kvg:054a5-g4" kvg:element="&#22303;">
			<path d="M45.71,69.4c0.76,0.33,2.16,0.4,2.92,0.33c7.84-0.8,32.91-3.68,40.04-3.68c1.27,0,2.03,0.15,2.66,0.32" id="kvg:054a5-s7" kvg:type="&#12752;" />
			<path d="M65.61,49.56c0.09,0.25,1.4,1.29,1.37,2.87c-0.15,9.02,0.43,35.77,0.43,38.34" id="kvg:054a5-s8" kvg:type="&#12753;a" />
			<path d="M38.88,92.83c1.18,0.46,3.34,0.52,4.52,0.46c15.11-0.79,29.55-3.77,52.11-3.89c1.96-0.01,3.14,0.22,4.12,0.45" id="kvg:054a5-s9" kvg:type="&#12752;" />
		</g>
	</g>
</g>
</g>
<g id="kvg:StrokeNumbers_054a5" style="font-size:8;fill:#808080">
	<text transform="matrix(1 0 0 1 5.50 41.50)">1</text>
	<text transform="matrix(1 0 0 1 15.66 31.50)">2</text>
	<text transform="matrix(1 0 0 1 18.71 55.50)">3</text>
	<text transform="matrix(1 0 0 1 41.50 16.50)">4</text>
	<text transform="matrix(1 0 0 1 51.50 29.50)">5</text>
	<text transform="matrix(1 0 0 1 80.50 28.50)">6</text>
	<text transform="matrix(1 0 0 1 38.50 69.50)">7</text>
	<text transform="matrix(1 0 0 1 55.25 53.50)">8</text>
	<text transform="matrix(1 0 0 1 30.50 93.50)">9</text>
</g>
</svg>