<svg xmlns="http://www.w3.org/2000/svg" xmlns:kvg="http://kanjivg.tagaini.net" height="109" kun="&#12415;&#12399;&#12426;" meaning="scout, sentinel" on="&#12471;&#12519;&#12454;" viewBox="0 0 109 109" width="109">
<g id="kvg:StrokePaths_054e8" style="fill:none;stroke:#000000;stroke-width:3;stroke-linecap:round;stroke-linejoin:round;">
<g id="kvg:054e8" kvg:element="&#21736;">
	<g id="kvg:054e8-g1" kvg:element="&#21475;" kvg:position="left" kvg:radical="general">
		<path d="M14.25,34.06c0.37,0.45,0.76,0.82,0.92,1.38c1.29,4.42,2.84,16.62,3.73,24.56" id="kvg:054e8-s1" kvg:type="&#12753;" />
		<path d="M16.08,36.68c9.42-1.94,15.55-3.11,19.92-3.69c1.6-0.21,2.56,1.26,2.33,2.51c-0.95,5.17-2.05,13.15-3.46,20.3" id="kvg:054e8-s2" kvg:type="&#12757;b" />
		<path d="M19.07,57.86c5.14-0.66,11.33-0.42,18.39-1.43" id="kvg:054e8-s3" kvg:type="&#12752;b" />
	</g>
	<g id="kvg:054e8-g2" kvg:element="&#32918;" kvg:position="right">
		<g id="kvg:054e8-g3" kvg:element="&#23567;" kvg:position="top">
			<path d="M69.23,12c0.13,0.38,1.82,2,1.82,4.44c0,8.35,0.1,21.5,0.1,25.5" id="kvg:054e8-s4" kvg:type="&#12753;" />
			<path d="M56.93,22.88c0.04,0.4,0.08,1.04-0.08,1.63c-0.94,3.43-6.58,10.88-11.71,14.67" id="kvg:054e8-s5" kvg:type="&#12754;/&#12756;" />
			<path d="M84.57,21.6c5.45,2.95,12.32,10.06,13.68,14.65" id="kvg:054e8-s6" kvg:type="&#12756;/&#12754;" />
		</g>
		<g id="kvg:054e8-g4" kvg:element="&#26376;" kvg:position="bottom">
			<path d="M52.19,42.68c0.72,0.96,1.2,1.92,1.44,2.88c0.24,0.96,0.34,50.3,0.24,52.46" id="kvg:054e8-s7" kvg:type="&#12754;" />
			<path d="M53.97,45.69c2.87-0.24,29.84-3.29,31.98-3.56c3.83-0.48,4.79,3.05,4.79,4.56c0,10.36-0.17,26.38-0.17,45.85c0,11.67-6.46,2.68-8.62,0.99" id="kvg:054e8-s8" kvg:type="&#12742;a" />
			<path d="M54.52,59c11.73-0.94,27.49-1.65,36.11-2.37" id="kvg:054e8-s9" kvg:type="&#12752;a" />
			<path d="M54.34,73.2c9.16-0.45,27.02-1.39,35.88-1.87" id="kvg:054e8-s10" kvg:type="&#12752;a" />
		</g>
	</g>
</g>
</g>
<g id="kvg:StrokeNumbers_054e8" style="font-size:8;fill:#808080">
	<text transform="matrix(1 0 0 1 8.35 41.35)">1</text>
	<text transform="matrix(1 0 0 1 18.50 32.50)">2</text>
	<text transform="matrix(1 0 0 1 21.50 54.50)">3</text>
	<text transform="matrix(1 0 0 1 58.94 10.50)">4</text>
	<text transform="matrix(1 0 0 1 50.50 23.50)">5</text>
	<text transform="matrix(1 0 0 1 82.50 19.50)">6</text>
	<text transform="matrix(1 0 0 1 45.50 52.50)">7</text>
	<text transform="matrix(1 0 0 1 59.50 42.50)">8</text>
	<text transform="matrix(1 0 0 1 58.50 55.03)">9</text>
	<text transform="matrix(1 0 0 1 57.50 69.96)">10</text>
</g>
</svg>