<svg xmlns="http://www.w3.org/2000/svg" xmlns:kvg="http://kanjivg.tagaini.net" height="109" meaning="box, box or enclosure radical (no. 31)" viewBox="0 0 109 109" width="109">
<g id="kvg:StrokePaths_056d7" style="fill:none;stroke:#000000;stroke-width:3;stroke-linecap:round;stroke-linejoin:round;">
<g id="kvg:056d7" kvg:element="&#22231;" kvg:radical="general">
	<path d="M18.75,15.82c0.75,1.43,1.84,2.51,1.86,4.41c0.14,14.27,0.14,48.02-0.31,75.27" id="kvg:056d7-s1" kvg:type="&#12753;" />
	<path d="M22.23,18.15C40.25,16.5,74.18,15,86.25,15c2.75,0,3.55,2.49,3.5,5.5c-0.25,15.75-1,50.25-0.5,72.5" id="kvg:056d7-s2" kvg:type="&#12757;" />
	<path d="M21.25,92.51c13.07,0,49.96-2.1,68-2.51" id="kvg:056d7-s3" kvg:type="&#12752;" />
</g>
</g>
<g id="kvg:StrokeNumbers_056d7" style="font-size:8;fill:#808080">
	<text transform="matrix(1 0 0 1 12.50 25.50)">1</text>
	<text transform="matrix(1 0 0 1 23.50 14.50)">2</text>
	<text transform="matrix(1 0 0 1 25.50 89.50)">3</text>
</g>
</svg>