<svg xmlns="http://www.w3.org/2000/svg" xmlns:kvg="http://kanjivg.tagaini.net" height="109" meaning="prison" viewBox="0 0 109 109" width="109">
<g id="kvg:StrokePaths_056f9" style="fill:none;stroke:#000000;stroke-width:3;stroke-linecap:round;stroke-linejoin:round;">
<g id="kvg:056f9" kvg:element="&#22265;">
	<g id="kvg:056f9-g1" kvg:element="&#22231;" kvg:part="1" kvg:radical="general">
		<path d="M18.75,16.32c0.75,1.43,1.34,2.51,1.36,4.41C20.25,35,20.25,69.25,19.8,96.5" id="kvg:056f9-s1" kvg:type="&#12753;" />
		<path d="M19.73,18.15c18.02-1.65,53.95-3.65,66.02-3.65c2.75,0,3.55,2.49,3.5,5.5c-0.25,15.75-1,53.75-0.5,76" id="kvg:056f9-s2" kvg:type="&#12757;a" />
	</g>
	<g id="kvg:056f9-g2" kvg:element="&#20196;">
		<g id="kvg:056f9-g3" kvg:element="&#20154;" kvg:position="top">
			<path d="M51.96,22c0.07,0.8,0.31,2.11-0.14,3.23c-2.8,7.09-11.66,21.57-22.04,30.18" id="kvg:056f9-s3" kvg:type="&#12754;" />
			<path d="M51.13,25.82c4.53,4.09,21,20.63,24.83,24.03c1.3,1.15,2.96,1.65,4.26,1.97" id="kvg:056f9-s4" kvg:type="&#12751;" />
		</g>
		<g id="kvg:056f9-g4" kvg:position="bottom">
			<g id="kvg:056f9-g5" kvg:element="&#19968;">
				<path d="M48.5,45.01c3.25,1.4,8.41,5.75,9.22,7.92" id="kvg:056f9-s5" kvg:type="&#12756;" />
			</g>
			<g id="kvg:056f9-g6" kvg:element="&#12510;">
				<path d="M35.65,59.96c0.89,0.73,2.77,1.09,3.78,0.9c2-0.37,28.56-3.5,30.68-3.86c2.11-0.37,2.64,0.86,1.13,2.81c-3.56,4.56-16.11,14.95-17.45,16.41" id="kvg:056f9-s6" kvg:type="&#12742;a" />
				<path d="M44.63,70c3.69,2.14,13.24,10.39,14.98,16" id="kvg:056f9-s7" kvg:type="&#12756;" />
			</g>
		</g>
	</g>
	<g id="kvg:056f9-g7" kvg:element="&#22231;" kvg:part="2" kvg:radical="general">
		<path d="M20.25,93.01c13.07,0,49.96-1.1,68-1.51" id="kvg:056f9-s8" kvg:type="&#12752;a" />
	</g>
</g>
</g>
<g id="kvg:StrokeNumbers_056f9" style="font-size:8;fill:#808080">
	<text transform="matrix(1 0 0 1 12.50 25.50)">1</text>
	<text transform="matrix(1 0 0 1 24.25 14.50)">2</text>
	<text transform="matrix(1 0 0 1 43.50 26.50)">3</text>
	<text transform="matrix(1 0 0 1 59.50 30.50)">4</text>
	<text transform="matrix(1 0 0 1 49.50 43.50)">5</text>
	<text transform="matrix(1 0 0 1 36.50 58.50)">6</text>
	<text transform="matrix(1 0 0 1 38.50 72.18)">7</text>
	<text transform="matrix(1 0 0 1 24.50 89.50)">8</text>
</g>
</svg>