<svg xmlns="http://www.w3.org/2000/svg" xmlns:kvg="http://kanjivg.tagaini.net" height="109" kun="&#12367;&#12395;" meaning="country" on="&#12467;&#12463;" viewBox="0 0 109 109" width="109">
<g id="kvg:StrokePaths_05700" style="fill:none;stroke:#000000;stroke-width:3;stroke-linecap:round;stroke-linejoin:round;">
<g id="kvg:05700" kvg:element="&#22272;">
	<g id="kvg:05700-g1" kvg:element="&#22235;" kvg:part="1">
		<g id="kvg:05700-g2" kvg:element="&#22231;" kvg:part="1" kvg:radical="general">
			<path d="M18.25,16.82c0.75,1.43,0.84,2.51,0.86,4.41c0.14,14.27,0.14,49.02-0.31,76.27" id="kvg:05700-s1" kvg:type="&#12753;" />
			<path d="M19.23,18.65C37.25,17,73.68,14,85.75,14c2.75,0,3.55,2.49,3.5,5.5c-0.25,15.75,0,53.25,0,76" id="kvg:05700-s2" kvg:type="&#12757;a" />
		</g>
		<g id="kvg:05700-g3" kvg:element="&#20799;" kvg:original="&#20843;">
			<g id="kvg:05700-g4" kvg:element="&#20031;">
				<path d="M42.51,21c0.07,0.49,0.09,1.27-0.14,1.98C40.5,28.75,37.25,33,30,40.25" id="kvg:05700-s3" kvg:type="&#12754;" />
			</g>
			<path d="M59,18.25c0.8,1.05,1.44,2.29,1.49,3.92c0.11,3.62-0.04,2.05,0.05,4.89c0.21,6.19,2.21,7.49,9.96,7.49c6,0,8.46-1.3,9.01-1.92" id="kvg:05700-s4" kvg:type="&#12767;" />
		</g>
	</g>
	<g id="kvg:05700-g5" kvg:element="&#26041;">
		<g id="kvg:05700-g6" kvg:element="&#20128;" kvg:position="top">
			<path d="M52.23,34.75c0.66,0.36,1.74,1.73,1.74,2.43c0,2.6-0.21,4.9-0.09,7.1" id="kvg:05700-s5" kvg:type="&#12753;a" />
			<path d="M29.41,46.65c1.08,0.23,3.38,0.4,4.38,0.32c8.09-0.68,31.72-2.87,42.71-3.33c1.7-0.07,2.56,0.03,3.83,0.41" id="kvg:05700-s6" kvg:type="&#12752;" />
		</g>
		<g id="kvg:05700-g7" kvg:position="bottom">
			<path d="M51.19,52.85c5.06,2.4,10.31,3.9,16.1,4.36c2,0.16,2.55,1,2.44,2.55c-0.29,4.09-7.67,19.84-10.17,23.17c-2.7,3.61-5.81-1.43-7.32-3.62" id="kvg:05700-s7" kvg:type="&#12742;a" />
			<path d="M50.89,49.02c0.33,0.95,0.27,2.02-0.13,3.09c-2.73,7.37-10.61,22.25-22.86,29.22" id="kvg:05700-s8" kvg:type="&#12754;" />
		</g>
	</g>
	<g id="kvg:05700-g8" kvg:element="&#22235;" kvg:part="2">
		<g id="kvg:05700-g9" kvg:element="&#22231;" kvg:part="2" kvg:radical="general">
			<path d="M19.25,94.01c13.07,0,49.96-1.6,68-2.01" id="kvg:05700-s9" kvg:type="&#12752;a" />
		</g>
	</g>
</g>
</g>
<g id="kvg:StrokeNumbers_05700" style="font-size:8;fill:#808080">
	<text transform="matrix(1 0 0 1 11.50 24.50)">1</text>
	<text transform="matrix(1 0 0 1 21.50 14.50)">2</text>
	<text transform="matrix(1 0 0 1 33.50 26.48)">3</text>
	<text transform="matrix(1 0 0 1 53.50 25.50)">4</text>
	<text transform="matrix(1 0 0 1 45.25 35.50)">5</text>
	<text transform="matrix(1 0 0 1 35.50 43.50)">6</text>
	<text transform="matrix(1 0 0 1 60.50 53.18)">7</text>
	<text transform="matrix(1 0 0 1 41.50 55.10)">8</text>
	<text transform="matrix(1 0 0 1 23.50 90.50)">9</text>
</g>
</svg>