<svg xmlns="http://www.w3.org/2000/svg" xmlns:kvg="http://kanjivg.tagaini.net" height="109" kun="&#12363;&#12383;&#12414;&#12426;, &#12414;&#12427;.&#12356;" meaning="association" on="&#12480;&#12531;, &#12488;&#12531;" viewBox="0 0 109 109" width="109">
<g id="kvg:StrokePaths_05718" style="fill:none;stroke:#000000;stroke-width:3;stroke-linecap:round;stroke-linejoin:round;">
<g id="kvg:05718" kvg:element="&#22296;">
	<g id="kvg:05718-g1" kvg:element="&#22231;" kvg:part="1" kvg:radical="general">
		<path d="M19.25,15.82c0.75,1.43,1.34,2.51,1.36,4.41c0.14,14.27,0.14,49.02-0.31,76.27" id="kvg:05718-s1" kvg:type="&#12753;" />
		<path d="M20.73,17.65C38.75,16,72.25,14.5,84.75,14c2.75-0.11,3.55,2.49,3.5,5.5c-0.25,15.75,0.5,53,0.5,75.5" id="kvg:05718-s2" kvg:type="&#12757;a" />
	</g>
	<g id="kvg:05718-g2" kvg:element="&#23560;">
		<g id="kvg:05718-g3" kvg:position="top">
			<g id="kvg:05718-g4" kvg:element="&#21313;" kvg:part="1">
				<path d="M32.79,27.21c0.88,0.35,2.5,0.47,3.37,0.35c12.82-1.73,22.67-2.61,35.15-3.53c1.46-0.11,2.35,0.17,3.08,0.34" id="kvg:05718-s3" kvg:type="&#12752;" />
			</g>
			<path d="M35.86,34.32c0.56,0.29,1.27,1.35,1.37,1.73c0.76,2.73,1.52,9.2,2.35,14.88" id="kvg:05718-s4" kvg:type="&#12753;" />
			<path d="M38,35.36c8.49-0.55,26.13-3.31,31.92-3.39c2.4-0.04,2.59,0.86,2.41,2.35C71.98,37.25,71,43.19,69.09,48" id="kvg:05718-s5" kvg:type="&#12757;" />
			<path d="M38.51,41.41c6.4-0.14,20.24-1.91,32.82-2.62" id="kvg:05718-s6" kvg:type="&#12752;" />
			<path d="M39.63,49.08c7.44-0.57,20.28-2.64,29.96-2.64" id="kvg:05718-s7" kvg:type="&#12752;" />
			<g id="kvg:05718-g5" kvg:element="&#21313;" kvg:part="2">
				<path d="M52.29,19c0.57,0.45,1.51,1.31,1.51,4.25c0,0.9-0.07,26.25-0.19,31.84" id="kvg:05718-s8" kvg:type="&#12753;" />
			</g>
			<path d="M31.42,58.64c0.56,0.84,2.01,1.28,2.81,1.22c2.63-0.2,29.63-4.98,34.54-5.83" id="kvg:05718-s9" kvg:type="&#12752;" />
			<path d="M65.17,50.55c3.71,1.49,9.58,6.13,10.51,8.44" id="kvg:05718-s10" kvg:type="&#12756;" />
		</g>
		<g id="kvg:05718-g6" kvg:element="&#23544;" kvg:position="bottom">
			<path d="M27.7,68.97c1.22,0.62,3.45,0.74,4.69,0.62c11.42-1.14,34.77-3.84,45.65-4.77c2.03-0.17,3.26,0.29,4.28,0.6" id="kvg:05718-s11" kvg:type="&#12752;" />
			<path d="M65.42,58.97c0.05,0.3,0.78,1.55,0.78,3.44c0,12.71-0.16,16.64-0.16,19.73c0,7.5-4.68,1.11-6.05,0.16" id="kvg:05718-s12" kvg:type="&#12762;" />
			<path d="M41.77,74.82c3.02,1.2,7.81,4.95,8.57,6.82" id="kvg:05718-s13" kvg:type="&#12756;" />
		</g>
	</g>
	<g id="kvg:05718-g7" kvg:element="&#22231;" kvg:part="2" kvg:radical="general">
		<path d="M20.75,94.01c13.07,0,49.96-2.6,68-3.01" id="kvg:05718-s14" kvg:type="&#12752;a" />
	</g>
</g>
</g>
<g id="kvg:StrokeNumbers_05718" style="font-size:8;fill:#808080">
	<text transform="matrix(1 0 0 1 13.50 23.50)">1</text>
	<text transform="matrix(1 0 0 1 23.50 14.50)">2</text>
	<text transform="matrix(1 0 0 1 27.50 28.50)">3</text>
	<text transform="matrix(1 0 0 1 29.50 39.50)">4</text>
	<text transform="matrix(1 0 0 1 39.50 33.50)">5</text>
	<text transform="matrix(1 0 0 1 41.50 40.50)">6</text>
	<text transform="matrix(1 0 0 1 43.50 47.50)">7</text>
	<text transform="matrix(1 0 0 1 45.50 23.50)">8</text>
	<text transform="matrix(1 0 0 1 30.50 56.50)">9</text>
	<text transform="matrix(1 0 0 1 71.50 52.50)">10</text>
	<text transform="matrix(1 0 0 1 24.50 66.50)">11</text>
	<text transform="matrix(1 0 0 1 53.75 63.30)">12</text>
	<text transform="matrix(1 0 0 1 33.75 80.23)">13</text>
	<text transform="matrix(1 0 0 1 25.50 90.50)">14</text>
</g>
</svg>