<svg xmlns="http://www.w3.org/2000/svg" xmlns:kvg="http://kanjivg.tagaini.net" height="109" kun="&#12414;&#12427;.&#12356;, &#12414;&#12427;, &#12414;&#12393;, &#12414;&#12393;.&#12363;, &#12414;&#12429;.&#12420;&#12363;" meaning="yen, circle, round" on="&#12456;&#12531;" viewBox="0 0 109 109" width="109">
<g id="kvg:StrokePaths_05713" style="fill:none;stroke:#000000;stroke-width:3;stroke-linecap:round;stroke-linejoin:round;">
<g id="kvg:05713" kvg:element="&#22291;">
	<g id="kvg:05713-g1" kvg:element="&#22231;" kvg:part="1" kvg:radical="general">
		<path d="M18.75,18.32c0.75,1.43,1.84,2.51,1.86,4.41C20.75,37,20.75,67.25,20.3,94.5" id="kvg:05713-s1" kvg:type="&#12753;" />
		<path d="M21.23,20.15C39.25,18.5,73.18,16,85.25,16c2.75,0,3.55,2.49,3.5,5.5c-0.25,15.75-1,48.25-0.5,70.5" id="kvg:05713-s2" kvg:type="&#12757;a" />
	</g>
	<g id="kvg:05713-g2" kvg:element="&#21729;" kvg:phon="&#21729;">
		<g id="kvg:05713-g3" kvg:element="&#21475;" kvg:position="top">
			<path d="M36.86,26.28c0.27,0.28,0.55,0.52,0.67,0.87c0.94,2.81,2.56,9.11,3.2,14.15" id="kvg:05713-s3" kvg:type="&#12753;" />
			<path d="M38.54,28.19c6.66-0.92,25.11-3.08,28.28-3.45c1.16-0.13,1.85,0.8,1.69,1.59c-0.69,3.28-1.49,5.8-2.51,10.34" id="kvg:05713-s4" kvg:type="&#12757;b" />
			<path d="M40.86,39.57c3.72-0.42,21.19-1.86,26.3-2.5" id="kvg:05713-s5" kvg:type="&#12752;b" />
		</g>
		<g id="kvg:05713-g4" kvg:element="&#35997;" kvg:position="bottom">
			<g id="kvg:05713-g5" kvg:element="&#30446;" kvg:position="top">
				<path d="M34.41,46.23c0.35,0.68,0.88,1.68,0.88,2.58c0,0.9-0.12,27.25,0,28.15" id="kvg:05713-s6" kvg:type="&#12753;" />
				<path d="M35.88,48.01c2.01-0.11,33.35-3.55,35.18-3.69c1.53-0.11,2.23,1.13,2.1,1.96c-0.16,1.06-0.71,27.44-0.71,28.11" id="kvg:05713-s7" kvg:type="&#12757;a" />
				<path d="M35.84,56.64c2.88,0,33.61-2.83,36.83-2.83" id="kvg:05713-s8" kvg:type="&#12752;a" />
				<path d="M36.01,65.28c4,0,31.25-2.35,36.43-2.35" id="kvg:05713-s9" kvg:type="&#12752;a" />
				<path d="M35.21,74.7c4,0,31.52-2.22,36.69-2.22" id="kvg:05713-s10" kvg:type="&#12752;a" />
			</g>
			<g id="kvg:05713-g6" kvg:position="bottom">
				<path d="M45.92,77.21c0.37,0.86,0.74,1.1,0,1.73c-2.23,1.9-9.1,6.57-13.55,8.82" id="kvg:05713-s11" kvg:type="&#12754;" />
				<path d="M63.57,77.65c5.42,1.62,11.83,4.56,13.31,5.98" id="kvg:05713-s12" kvg:type="&#12756;" />
			</g>
		</g>
	</g>
	<g id="kvg:05713-g7" kvg:element="&#22231;" kvg:part="2" kvg:radical="general">
		<path d="M20.75,92.51c13.07,0,48.96-3.1,67-3.51" id="kvg:05713-s13" kvg:type="&#12752;a" />
	</g>
</g>
</g>
<g id="kvg:StrokeNumbers_05713" style="font-size:8;fill:#808080">
	<text transform="matrix(1 0 0 1 12.50 26.50)">1</text>
	<text transform="matrix(1 0 0 1 24.50 16.50)">2</text>
	<text transform="matrix(1 0 0 1 30.50 34.50)">3</text>
	<text transform="matrix(1 0 0 1 40.50 25.50)">4</text>
	<text transform="matrix(1 0 0 1 43.50 35.50)">5</text>
	<text transform="matrix(1 0 0 1 27.50 52.25)">6</text>
	<text transform="matrix(1 0 0 1 36.50 45.18)">7</text>
	<text transform="matrix(1 0 0 1 39.50 54.50)">8</text>
	<text transform="matrix(1 0 0 1 39.50 63.03)">9</text>
	<text transform="matrix(1 0 0 1 38.50 72.50)">10</text>
	<text transform="matrix(1 0 0 1 30.50 83.50)">11</text>
	<text transform="matrix(1 0 0 1 56.50 83.50)">12</text>
	<text transform="matrix(1 0 0 1 22.50 88.50)">13</text>
</g>
</svg>