<svg xmlns="http://www.w3.org/2000/svg" xmlns:kvg="http://kanjivg.tagaini.net" height="109" kun="&#12373;&#12363;.&#12356;" meaning="region surrounding the capital" on="&#12461;, &#12462;&#12531;" viewBox="0 0 109 109" width="109">
<g id="kvg:StrokePaths_0573b" style="fill:none;stroke:#000000;stroke-width:3;stroke-linecap:round;stroke-linejoin:round;">
<g id="kvg:0573b" kvg:element="&#22331;">
	<g id="kvg:0573b-g1" kvg:element="&#22303;" kvg:position="left" kvg:radical="general" kvg:variant="true">
		<path d="M13.5,46.64c0.86,0.38,3.05,0.46,3.9,0.36c5.46-0.66,17.09-2.89,23.16-3.5c1.42-0.14,2.97-0.18,3.69,0.01" id="kvg:0573b-s1" kvg:type="&#12752;" />
		<path d="M27.87,20c1.09,0.5,1.96,2.23,1.96,3.25c0,7.25,0.03,40.25,0.03,51" id="kvg:0573b-s2" kvg:type="&#12753;a" />
		<path d="M13.5,80.79c0.75,0.96,2.25,1.46,4.5,0.21c6.25-3.5,17.5-9.75,23.75-13.25" id="kvg:0573b-s3" kvg:type="&#12736;/&#12752;" />
	</g>
	<g id="kvg:0573b-g2" kvg:element="&#26020;" kvg:position="right">
		<path d="M84.27,13c0.07,0.35,0.32,1.04-0.15,1.41c-6.48,5.17-15.76,9.58-29.43,14.03" id="kvg:0573b-s4" kvg:type="&#12754;" />
		<path d="M51.73,26.33c0.71,1.98,0.69,3.87,0.69,6.03c0,23.14,2.33,43.14-10.12,57.66" id="kvg:0573b-s5" kvg:type="&#12754;" />
		<path d="M53.09,46.85c0.54,0.2,2.65,0.34,4.07,0.12c7.86-1.26,25.59-3.59,34.52-4.21c1.44-0.1,3.92-0.2,4.82,0" id="kvg:0573b-s6" kvg:type="&#12752;" />
		<path d="M75.68,46.98c0.94,0.63,1.5,2.84,1.69,4.1c0.19,1.26,0,41.04-0.19,48.92" id="kvg:0573b-s7" kvg:type="&#12753;" />
	</g>
</g>
</g>
<g id="kvg:StrokeNumbers_0573b" style="font-size:8;fill:#808080">
	<text transform="matrix(1 0 0 1 6.50 47.63)">1</text>
	<text transform="matrix(1 0 0 1 18.25 20.50)">2</text>
	<text transform="matrix(1 0 0 1 5.50 83.50)">3</text>
	<text transform="matrix(1 0 0 1 75.50 12.50)">4</text>
	<text transform="matrix(1 0 0 1 42.50 29.50)">5</text>
	<text transform="matrix(1 0 0 1 56.50 43.50)">6</text>
	<text transform="matrix(1 0 0 1 69.50 55.43)">7</text>
</g>
</svg>