<svg xmlns="http://www.w3.org/2000/svg" xmlns:kvg="http://kanjivg.tagaini.net" height="109" meaning="ruins" viewBox="0 0 109 109" width="109">
<g id="kvg:StrokePaths_05740" style="fill:none;stroke:#000000;stroke-width:3;stroke-linecap:round;stroke-linejoin:round;">
<g id="kvg:05740" kvg:element="&#22336;">
	<g id="kvg:05740-g1" kvg:element="&#22303;" kvg:position="left" kvg:radical="general" kvg:variant="true">
		<path d="M10.25,46.43c0.8,0.52,2.37,0.54,3.18,0.5C20.25,46.5,30.5,44,36.81,42.61c1.31-0.29,2.77-0.25,3.44,0.01" id="kvg:05740-s1" kvg:type="&#12752;" />
		<path d="M25.87,20.5c1.09,0.5,1.96,2.23,1.96,3.25c0,7.25,0.03,38.75,0.03,49.5" id="kvg:05740-s2" kvg:type="&#12753;a" />
		<path d="M12,79.79c0.75,0.96,2.25,1.46,4.5,0.21c6.25-3.5,17.5-9.75,23.75-13.25" id="kvg:05740-s3" kvg:type="&#12736;/&#12752;" />
	</g>
	<g id="kvg:05740-g2" kvg:element="&#27490;" kvg:position="right">
		<g id="kvg:05740-g3" kvg:element="&#21340;" kvg:original="&#12488;">
			<path d="M68.75,16c0.84,0.53,1.35,2.39,1.52,3.46c0.17,1.06,0,64.67-0.17,71.32" id="kvg:05740-s4" kvg:type="&#12753;a" />
			<path d="M70.19,50.63c5.51-0.8,13.84-1.89,19.25-2.69c1.34-0.2,1.68-0.27,2.53,0" id="kvg:05740-s5" kvg:type="&#12752;b" />
		</g>
		<path d="M49.71,50.24c0.84,0.53,1.85,2.39,2.02,3.46c0.17,1.06,2,31.77,1.83,38.41" id="kvg:05740-s6" kvg:type="&#12753;a" />
		<path d="M36.75,92.7c0.64,0.27,2.34,0.9,4.03,0.8c9.14-0.53,39.73-3.82,51.35-3.82c1.7,0,4.65,0.53,5.62,0.8" id="kvg:05740-s7" kvg:type="&#12752;" />
	</g>
</g>
</g>
<g id="kvg:StrokeNumbers_05740" style="font-size:8;fill:#808080">
	<text transform="matrix(1 0 0 1 3.50 48.50)">1</text>
	<text transform="matrix(1 0 0 1 15.50 20.80)">2</text>
	<text transform="matrix(1 0 0 1 4.75 81.50)">3</text>
	<text transform="matrix(1 0 0 1 57.50 16.50)">4</text>
	<text transform="matrix(1 0 0 1 74.50 46.50)">5</text>
	<text transform="matrix(1 0 0 1 44.50 47.50)">6</text>
	<text transform="matrix(1 0 0 1 30.00 94.50)">7</text>
</g>
</svg>