<svg xmlns="http://www.w3.org/2000/svg" xmlns:kvg="http://kanjivg.tagaini.net" height="109" meaning="pit, hole" viewBox="0 0 109 109" width="109">
<g id="kvg:StrokePaths_05751" style="fill:none;stroke:#000000;stroke-width:3;stroke-linecap:round;stroke-linejoin:round;">
<g id="kvg:05751" kvg:element="&#22353;">
	<g id="kvg:05751-g1" kvg:element="&#22303;" kvg:position="left" kvg:radical="general" kvg:variant="true">
		<path d="M14.5,46.89c1.88,0.36,3.61,0.18,5.14-0.05c5.75-0.86,12.37-2.55,18.11-3.84c1.23-0.28,2.5-0.25,3.12-0.25" id="kvg:05751-s1" kvg:type="&#12752;" />
		<path d="M28.87,23.75c1,1,1.21,2.12,1.21,3.75c0,7.25,0.03,31.25,0.03,42" id="kvg:05751-s2" kvg:type="&#12753;a" />
		<path d="M14.24,79.65c0.82,0.77,2.11,0.7,3.89-0.6C24.21,74.61,34.92,66.94,41,62.5" id="kvg:05751-s3" kvg:type="&#12736;/&#12752;" />
	</g>
	<g id="kvg:05751-g2" kvg:element="&#20130;" kvg:phon="&#20130;" kvg:position="right">
		<g id="kvg:05751-g3" kvg:element="&#20128;" kvg:position="top">
			<path d="M63.68,15.25c1.29,1.29,1.51,2.5,1.51,4.35c0,4.12-0.06,5.9-0.06,9.65" id="kvg:05751-s4" kvg:type="&#12753;a" />
			<path d="M43.46,32.51c3.04,0.37,4.84,0.36,7.81-0.04c8.5-1.15,22.05-3.44,31.75-4.09c2.06-0.14,4.08-0.32,6.05,0.41" id="kvg:05751-s5" kvg:type="&#12752;" />
		</g>
		<g id="kvg:05751-g4" kvg:element="&#20960;" kvg:position="bottom">
			<g id="kvg:05751-g5" kvg:element="&#20031;">
				<path d="M54.2,46.38c0.83,0.83,1.04,1.86,1.05,3.61c0.25,26.76-4.5,36.76-19.36,45.26" id="kvg:05751-s6" kvg:type="&#12754;" />
			</g>
			<path d="M56.25,48.38c5.92-1.31,10.02-2.27,15.24-3.21c3.18-0.57,4.73,0.29,4.5,3.58C75.5,56,75.55,78.82,75.55,83.4c0,8.23,2.58,10.35,8.87,10.35c8.58,0,9.55-1.43,9.83-8.19" id="kvg:05751-s7" kvg:type="&#12744;b" />
		</g>
	</g>
</g>
</g>
<g id="kvg:StrokeNumbers_05751" style="font-size:8;fill:#808080">
	<text transform="matrix(1 0 0 1 8.25 48.13)">1</text>
	<text transform="matrix(1 0 0 1 18.75 23.50)">2</text>
	<text transform="matrix(1 0 0 1 6.50 83.50)">3</text>
	<text transform="matrix(1 0 0 1 54.75 14.50)">4</text>
	<text transform="matrix(1 0 0 1 41.50 29.50)">5</text>
	<text transform="matrix(1 0 0 1 47.25 53.98)">6</text>
	<text transform="matrix(1 0 0 1 56.50 44.50)">7</text>
</g>
</svg>