<svg xmlns="http://www.w3.org/2000/svg" xmlns:kvg="http://kanjivg.tagaini.net" height="109" meaning="swamp, wetlands, muddy fields, (kokuji)" viewBox="0 0 109 109" width="109">
<g id="kvg:StrokePaths_05788" style="fill:none;stroke:#000000;stroke-width:3;stroke-linecap:round;stroke-linejoin:round;">
<g id="kvg:05788" kvg:element="&#22408;">
	<g id="kvg:05788-g1" kvg:element="&#20195;" kvg:position="top">
		<g id="kvg:05788-g2" kvg:element="&#20155;" kvg:original="&#20154;" kvg:position="left" kvg:variant="true">
			<path d="M37.95,14.71c0.27,1.79-0.07,4.14-0.92,5.68C31.61,30.18,26.42,38.93,14,50.84" id="kvg:05788-s1" kvg:type="&#12754;" />
			<path d="M31.97,33.08c0.78,0.92,1.01,2.23,1.06,3.21c0.44,8.51-0.87,25.3-0.47,30.43" id="kvg:05788-s2" kvg:type="&#12753;" />
		</g>
		<g id="kvg:05788-g3" kvg:element="&#24331;" kvg:position="right">
			<path d="M45.41,35.23c1.31,0.29,3.73,0.43,5.02,0.29c5.3-0.56,22.58-4.21,33.54-5.5c2.14-0.25,3.29-0.22,4.58,0.01" id="kvg:05788-s3" kvg:type="&#12752;" />
			<path d="M57.83,12.04c1.53,1.17,2.09,1.57,2.48,4C63.75,37.25,69.5,55,88.02,65.32c6.18,3.44,5.16,0.5,4.39-4.66" id="kvg:05788-s4" kvg:type="&#12738;" />
			<g id="kvg:05788-g4" kvg:element="&#20022;">
				<path d="M72.6,11.71c2.91,1.74,7.56,5.73,8.92,8.72" id="kvg:05788-s5" kvg:type="&#12756;" />
			</g>
		</g>
	</g>
	<g id="kvg:05788-g5" kvg:element="&#22303;" kvg:position="bottom" kvg:radical="general">
		<path d="M29.5,78.86c0.89,0.23,2.53,0.29,3.42,0.23c11.47-0.79,31.48-2.46,43.02-2.66c1.49-0.03,2.38,0.11,3.12,0.23" id="kvg:05788-s6" kvg:type="&#12752;" />
		<path d="M52.78,65.84c0.12,0.3,1.82,1.57,1.82,3.49c0,6.67,0.13,19.42,0.13,25.17" id="kvg:05788-s7" kvg:type="&#12753;a" />
		<path d="M16.67,96.43c1.77,0.61,5.02,0.75,6.78,0.61c21.91-1.73,44.58-3.13,64.17-3.94c2.95-0.12,4.72,0.29,6.19,0.6" id="kvg:05788-s8" kvg:type="&#12752;" />
	</g>
</g>
</g>
<g id="kvg:StrokeNumbers_05788" style="font-size:8;fill:#808080">
	<text transform="matrix(1 0 0 1 29.50 15.50)">1</text>
	<text transform="matrix(1 0 0 1 26.25 47.50)">2</text>
	<text transform="matrix(1 0 0 1 42.50 31.50)">3</text>
	<text transform="matrix(1 0 0 1 49.50 12.40)">4</text>
	<text transform="matrix(1 0 0 1 69.50 9.50)">5</text>
	<text transform="matrix(1 0 0 1 21.25 79.50)">6</text>
	<text transform="matrix(1 0 0 1 44.50 65.50)">7</text>
	<text transform="matrix(1 0 0 1 15.50 93.10)">8</text>
</g>
</svg>