<svg xmlns="http://www.w3.org/2000/svg" xmlns:kvg="http://kanjivg.tagaini.net" height="109" kun="&#12383;.&#12428;&#12427;, &#12383;.&#12425;&#12377;, &#12383;.&#12428;, -&#12383;.&#12428;, &#12394;&#12435;&#12394;&#12435;&#12392;.&#12377;" meaning="droop, suspend, hang, slouch" on="&#12473;&#12452;" viewBox="0 0 109 109" width="109">
<g id="kvg:StrokePaths_05782" style="fill:none;stroke:#000000;stroke-width:3;stroke-linecap:round;stroke-linejoin:round;">
<g id="kvg:05782" kvg:element="&#22402;">
	<g id="kvg:05782-g1" kvg:element="&#21315;" kvg:part="1">
		<g id="kvg:05782-g2" kvg:element="&#20031;" kvg:radical="nelson">
			<path d="M66.52,13.75c-0.15,0.62-0.75,1.57-1.33,1.97c-6.15,4.24-14.93,7.63-30.44,11.07" id="kvg:05782-s1" kvg:type="&#12754;" />
		</g>
		<g id="kvg:05782-g3" kvg:element="&#21313;" kvg:part="1">
			<path d="M25.75,39.15c2.75,0.47,4.93,0.37,7.27,0.1c10.16-1.16,35.89-4.38,45.86-4.88c2.13-0.11,4.28-0.15,6.38,0.36" id="kvg:05782-s2" kvg:type="&#12752;" />
		</g>
	</g>
	<path d="M17.75,57.77c2.44,0.99,5.83,0.69,8.39,0.38c14.49-1.78,39.17-4.5,53.37-5.61c2.86-0.22,6.21-0.45,9,0.23" id="kvg:05782-s3" kvg:type="&#12752;" />
	<path d="M33.25,47.75c0.88,0.88,1.48,2.18,1.6,3.09C36.12,60.25,37.08,67.9,37.5,71" id="kvg:05782-s4" kvg:type="&#12753;a" />
	<path d="M75.76,43.25c0.36,1.12,0.35,2.01,0.06,3.43C74.12,55,73.62,57.5,71.75,67" id="kvg:05782-s5" kvg:type="&#12753;a" />
	<g id="kvg:05782-g4" kvg:element="&#22303;" kvg:part="1" kvg:radical="tradit">
		<path d="M29.25,76.15c3,0.6,6.12,0.31,8.87-0.05c10.38-1.35,28.04-3.1,37.75-3.64c2.77-0.16,5.65-0.14,8.38,0.53" id="kvg:05782-s6" kvg:type="&#12752;" />
	</g>
	<g id="kvg:05782-g5" kvg:element="&#22303;" kvg:part="2" kvg:radical="tradit">
		<g id="kvg:05782-g6" kvg:element="&#21315;" kvg:part="2">
			<g id="kvg:05782-g7" kvg:element="&#21313;" kvg:part="2">
				<path d="M53.25,26.5c1.12,1.12,1.5,2.62,1.5,4c0,1.03,0,51.25,0,61.25" id="kvg:05782-s7" kvg:type="&#12753;a" />
			</g>
		</g>
		<path d="M23.5,94.4c2.21,0.9,6.05,0.79,8.4,0.53c12.85-1.43,36.48-3.43,49.85-4.07c2.85-0.14,5.97-0.05,8.75,0.64" id="kvg:05782-s8" kvg:type="&#12752;" />
	</g>
</g>
</g>
<g id="kvg:StrokeNumbers_05782" style="font-size:8;fill:#808080">
	<text transform="matrix(1 0 0 1 57.50 13.63)">1</text>
	<text transform="matrix(1 0 0 1 18.50 40.63)">2</text>
	<text transform="matrix(1 0 0 1 10.50 59.50)">3</text>
	<text transform="matrix(1 0 0 1 24.50 51.50)">4</text>
	<text transform="matrix(1 0 0 1 66.50 45.50)">5</text>
	<text transform="matrix(1 0 0 1 21.50 77.50)">6</text>
	<text transform="matrix(1 0 0 1 45.50 33.50)">7</text>
	<text transform="matrix(1 0 0 1 16.50 96.13)">8</text>
</g>
</svg>