<svg xmlns="http://www.w3.org/2000/svg" xmlns:kvg="http://kanjivg.tagaini.net" height="109" meaning="limit, boundary" viewBox="0 0 109 109" width="109">
<g id="kvg:StrokePaths_057a0" style="fill:none;stroke:#000000;stroke-width:3;stroke-linecap:round;stroke-linejoin:round;">
<g id="kvg:057a0" kvg:element="&#22432;">
	<g id="kvg:057a0-g1" kvg:element="&#22303;" kvg:position="left" kvg:radical="general" kvg:variant="true">
		<path d="M10,45.14c0.81,0.38,2.39,0.36,3.2,0.36c5.8,0,19.37-2.89,25.08-3.5c1.34-0.14,2.8-0.18,3.47,0.01" id="kvg:057a0-s1" kvg:type="&#12752;" />
		<path d="M25.87,18c1.09,0.5,1.96,2.23,1.96,3.25c0,7.25,0.03,42.25,0.03,53" id="kvg:057a0-s2" kvg:type="&#12753;a" />
		<path d="M13.5,79.79c0.75,0.96,2.25,1.46,4.5,0.21c6.25-3.5,17.5-9.75,23.75-13.25" id="kvg:057a0-s3" kvg:type="&#12736;/&#12752;" />
	</g>
	<g id="kvg:057a0-g2" kvg:element="&#33390;" kvg:position="right">
		<path d="M52.82,18.94c2.3-0.13,22.64-3.8,24.73-3.96c1.74-0.13,2.75,1.45,2.73,2.25C80.17,22.87,79,40,78.77,46.62" id="kvg:057a0-s4" kvg:type="&#12757;" />
		<path d="M52.98,33.1c5.77-0.63,20.04-2.61,25.59-3.11" id="kvg:057a0-s5" kvg:type="&#12752;a" />
		<path d="M53.09,47.64c7.91-1.01,17.29-2.47,25.88-3.44" id="kvg:057a0-s6" kvg:type="&#12752;a" />
		<path d="M51.01,15.36c0.99,1.14,1.59,2.78,1.85,4.02c0.26,1.24,0.26,66.62,0.26,70.99c0,2.79,0.72,5.93,3.99,3.43C60.75,91,64.5,88,70.45,83.63" id="kvg:057a0-s7" kvg:type="&#12761;" />
		<path d="M86.2,50.21c0.29,1.43,0.48,1.99-0.51,3.14c-1.92,2.23-7.72,7.38-10.35,9.38" id="kvg:057a0-s8" kvg:type="&#12754;" />
		<path d="M59.88,54.34c5.7,0.41,17.1,20.91,27.35,28.58c4.45,3.33,6.47,4.45,8.84,5.12" id="kvg:057a0-s9" kvg:type="&#12751;" />
	</g>
</g>
</g>
<g id="kvg:StrokeNumbers_057a0" style="font-size:8;fill:#808080">
	<text transform="matrix(1 0 0 1 3.50 46.50)">1</text>
	<text transform="matrix(1 0 0 1 16.50 18.50)">2</text>
	<text transform="matrix(1 0 0 1 5.50 83.50)">3</text>
	<text transform="matrix(1 0 0 1 55.50 15.50)">4</text>
	<text transform="matrix(1 0 0 1 57.50 29.25)">5</text>
	<text transform="matrix(1 0 0 1 57.50 43.50)">6</text>
	<text transform="matrix(1 0 0 1 45.50 24.50)">7</text>
	<text transform="matrix(1 0 0 1 76.50 55.50)">8</text>
	<text transform="matrix(1 0 0 1 58.50 63.50)">9</text>
</g>
</svg>