<svg xmlns="http://www.w3.org/2000/svg" xmlns:kvg="http://kanjivg.tagaini.net" height="109" kun="&#12383;.&#12428;&#12427;, &#12383;.&#12425;&#12377;, &#12394;&#12435;&#12394;&#12435;&#12392;.&#12377;" meaning="let down, suspend, hand, down" on="&#12473;&#12452;" viewBox="0 0 109 109" width="109">
<g id="kvg:StrokePaths_057c0" style="fill:none;stroke:#000000;stroke-width:3;stroke-linecap:round;stroke-linejoin:round;">
<g id="kvg:057c0" kvg:element="&#22464;">
	<g id="kvg:057c0-g1" kvg:element="&#20054;" kvg:part="1">
		<g id="kvg:057c0-g2" kvg:element="&#21315;" kvg:part="1">
			<g id="kvg:057c0-g3" kvg:element="&#20031;" kvg:position="top">
				<path d="M75.63,13.42c0.12,0.33-0.96,2.09-1.66,2.45c-5.34,2.73-18.91,7.24-42.58,11.04" id="kvg:057c0-s1" kvg:type="&#12754;" />
			</g>
			<g id="kvg:057c0-g4" kvg:element="&#21313;" kvg:part="1" kvg:position="bottom">
				<path d="M16.13,36.83c1.52,0.47,5.31,0.58,6.82,0.47c17.55-1.3,36.3-5.3,65.61-6c2.53-0.06,4.05,0.22,5.31,0.46" id="kvg:057c0-s2" kvg:type="&#12752;" />
			</g>
		</g>
		<g id="kvg:057c0-g5" kvg:element="&#21271;">
			<g id="kvg:057c0-g6" kvg:position="left">
				<path d="M19.5,51.53c1.61,0.29,2.01,0.44,3.63,0.44c1.61,0,11.62-2.47,14.41-2.86" id="kvg:057c0-s3" kvg:type="&#12752;" />
				<path d="M38.93,41.44c0.81,0.69,1.49,2.49,1.49,2.95c0,0.46,0.14,13.79,0.14,15.05" id="kvg:057c0-s4" kvg:type="&#12753;" />
				<path d="M20.76,67.05c2.09,1.33,3.19,0.9,4.73,0.24c9.24-3.98,14.2-5.67,19.08-7.88" id="kvg:057c0-s5" kvg:type="&#12736;" />
			</g>
			<g id="kvg:057c0-g7" kvg:element="&#21269;" kvg:position="right">
				<path d="M86.32,39.08c0.13,0.18,0.19,0.7-0.12,1c-2.97,2.93-10.29,7.23-16.71,8.76" id="kvg:057c0-s6" kvg:type="&#12754;" />
				<path d="M66.72,38.5c0.51,0.59,1.2,1.75,1.2,2.94c0,0.8,0.17,12.77,0.17,15.2c0,6.23,6.64,5.64,12.04,5.64c2.74,0,8.11-0.12,9.82-1.89c1.71-1.78,1.88-4.34,2.05-6.12" id="kvg:057c0-s7" kvg:type="&#12767;" />
			</g>
		</g>
	</g>
	<g id="kvg:057c0-g8" kvg:element="&#22303;" kvg:part="1" kvg:radical="tradit">
		<path d="M30.25,78.39c0.94,0.38,2.66,0.45,3.6,0.38c7.4-0.52,37.32-4.33,43.11-3.88c1.56,0.12,2.5,0.18,3.29,0.37" id="kvg:057c0-s8" kvg:type="&#12752;" />
	</g>
	<g id="kvg:057c0-g9" kvg:element="&#20054;" kvg:part="2">
		<g id="kvg:057c0-g10" kvg:element="&#22303;" kvg:part="2" kvg:radical="tradit">
			<g id="kvg:057c0-g11" kvg:element="&#21315;" kvg:part="2">
				<g id="kvg:057c0-g12" kvg:element="&#21313;" kvg:part="2" kvg:position="bottom">
					<path d="M52.6,24.75c0.72,0.5,1.3,2.21,1.44,3.2c0.15,0.99-0.09,59.36-0.24,65.55" id="kvg:057c0-s9" kvg:type="&#12753;" />
				</g>
			</g>
		</g>
	</g>
	<g id="kvg:057c0-g13" kvg:element="&#22303;" kvg:part="3" kvg:radical="tradit">
		<path d="M19.25,95.7c1.52,0.54,4.3,0.64,5.82,0.54C40.5,95.25,71,92.75,87.19,93.01c2.53,0.04,4.05,0.26,5.31,0.53" id="kvg:057c0-s10" kvg:type="&#12752;" />
	</g>
</g>
</g>
<g id="kvg:StrokeNumbers_057c0" style="font-size:8;fill:#808080">
	<text transform="matrix(1 0 0 1 67.50 12.50)">1</text>
	<text transform="matrix(1 0 0 1 8.44 36.50)">2</text>
	<text transform="matrix(1 0 0 1 12.50 53.50)">3</text>
	<text transform="matrix(1 0 0 1 30.44 45.50)">4</text>
	<text transform="matrix(1 0 0 1 12.50 67.50)">5</text>
	<text transform="matrix(1 0 0 1 77.50 41.76)">6</text>
	<text transform="matrix(1 0 0 1 59.50 44.68)">7</text>
	<text transform="matrix(1 0 0 1 22.44 80.50)">8</text>
	<text transform="matrix(1 0 0 1 46.44 31.50)">9</text>
	<text transform="matrix(1 0 0 1 15.50 92.50)">10</text>
</g>
</svg>