<svg xmlns="http://www.w3.org/2000/svg" xmlns:kvg="http://kanjivg.tagaini.net" height="109" kun="&#12375;&#12429;" meaning="castle" on="&#12472;&#12519;&#12454;, &#12475;&#12452;" viewBox="0 0 109 109" width="109">
<g id="kvg:StrokePaths_057ce" style="fill:none;stroke:#000000;stroke-width:3;stroke-linecap:round;stroke-linejoin:round;">
<g id="kvg:057ce" kvg:element="&#22478;">
	<g id="kvg:057ce-g1" kvg:element="&#22303;" kvg:position="left" kvg:radical="general" kvg:variant="true">
		<path d="M11.5,45.87c1.62,0.51,3.87,0.39,5.26,0.23c6.12-0.72,12.12-2.22,17.12-3.07c1.1-0.19,2.31-0.16,2.87,0.01" id="kvg:057ce-s1" kvg:type="&#12752;" />
		<path d="M24.62,22.5c1,1,1.46,2.5,1.46,4c0,7.25-0.03,31.03-0.03,40.76" id="kvg:057ce-s2" kvg:type="&#12753;a" />
		<path d="M11.5,76.39c1,0.61,2.12,0.48,3.57-0.51C20.59,72.1,29.69,65.31,35,61.25" id="kvg:057ce-s3" kvg:type="&#12736;/&#12752;" />
	</g>
	<g id="kvg:057ce-g2" kvg:element="&#25104;" kvg:phon="&#25104;" kvg:position="right">
		<g id="kvg:057ce-g3" kvg:element="&#131210;" kvg:original="&#21241;" kvg:part="1" kvg:variant="true">
			<g id="kvg:057ce-g4" kvg:element="&#20031;">
				<path d="M42.41,39.6c0.81,0.81,1.36,2.03,1.32,3.33c-0.49,19.44,0.64,32.44-10.92,45.59" id="kvg:057ce-s4" kvg:type="&#12754;" />
			</g>
		</g>
		<g id="kvg:057ce-g5" kvg:element="&#25096;" kvg:part="1">
			<g id="kvg:057ce-g6" kvg:element="&#24331;" kvg:part="1">
				<path d="M41.19,39.08c1.27,0.53,3.61,0.44,4.88,0.28c5.2-0.67,25.31-4.01,35.4-6.14c2.09-0.44,5.04-0.84,6.78-0.68" id="kvg:057ce-s5" kvg:type="&#12752;" />
			</g>
		</g>
		<g id="kvg:057ce-g7" kvg:element="&#131210;" kvg:original="&#21241;" kvg:part="2" kvg:variant="true">
			<path d="M44.88,55.36c5.31-1.32,9.5-2.49,12.14-3.01c1.95-0.39,3.13,0.9,2.83,3.32c-0.25,2.04-1.62,15.05-4.82,23.01c-1.57,3.91-3.7,5.09-6.84,1.24" id="kvg:057ce-s6" kvg:type="&#12742;a" />
		</g>
		<g id="kvg:057ce-g8" kvg:element="&#25096;" kvg:part="2">
			<path d="M59.61,13.75c1.48,1.65,2.06,2.1,2.4,5.65c2.87,29.98,11.87,54.98,29.93,69.95c5.22,4.33,4.98,0.71,4.24-6.59" id="kvg:057ce-s7" kvg:type="&#12738;" />
			<g id="kvg:057ce-g9" kvg:element="&#20031;">
				<path d="M84.21,42.96c0.29,1.04,0.38,2.5,0.12,4.02C82.77,56,73.88,76.88,62.07,87.85" id="kvg:057ce-s8" kvg:type="&#12754;" />
			</g>
			<g id="kvg:057ce-g10" kvg:element="&#24331;" kvg:part="2">
				<g id="kvg:057ce-g11" kvg:element="&#20022;">
					<path d="M74.98,15.97c2.93,1.35,7.63,4.45,9,6.77" id="kvg:057ce-s9" kvg:type="&#12756;" />
				</g>
			</g>
		</g>
	</g>
</g>
</g>
<g id="kvg:StrokeNumbers_057ce" style="font-size:8;fill:#808080">
	<text transform="matrix(1 0 0 1 5.25 47.50)">1</text>
	<text transform="matrix(1 0 0 1 15.50 23.50)">2</text>
	<text transform="matrix(1 0 0 1 3.75 79.50)">3</text>
	<text transform="matrix(1 0 0 1 37.50 51.50)">4</text>
	<text transform="matrix(1 0 0 1 44.50 36.50)">5</text>
	<text transform="matrix(1 0 0 1 48.75 50.50)">6</text>
	<text transform="matrix(1 0 0 1 50.50 14.50)">7</text>
	<text transform="matrix(1 0 0 1 76.50 45.50)">8</text>
	<text transform="matrix(1 0 0 1 69.50 13.50)">9</text>
</g>
</svg>