<svg xmlns="http://www.w3.org/2000/svg" xmlns:kvg="http://kanjivg.tagaini.net" height="109" kun="&#12388;&#12385;&#12363;.&#12358;" meaning="cultivate, foster" on="&#12496;&#12452;" viewBox="0 0 109 109" width="109">
<g id="kvg:StrokePaths_057f9" style="fill:none;stroke:#000000;stroke-width:3;stroke-linecap:round;stroke-linejoin:round;">
<g id="kvg:057f9" kvg:element="&#22521;">
	<g id="kvg:057f9-g1" kvg:element="&#22303;" kvg:position="left" kvg:radical="general" kvg:variant="true">
		<path d="M13.25,43.14c1.33,0.67,3.68,0.52,5.12,0.33c5.38-0.69,14.71-2.19,19.38-2.72c1.25-0.14,2.62-0.18,3.25,0.01" id="kvg:057f9-s1" kvg:type="&#12752;" />
		<path d="M27.87,18.5c1.06,1.06,1.21,2.38,1.21,3.75c0,7.25,0.03,34.75,0.03,45.5" id="kvg:057f9-s2" kvg:type="&#12753;a" />
		<path d="M13.75,76.54c0.75,0.96,2.12,0.96,4-0.29c7.28-4.85,14.62-9.5,22.5-14.5" id="kvg:057f9-s3" kvg:type="&#12736;/&#12752;" />
	</g>
	<g id="kvg:057f9-g2" kvg:phon="&#31435;&#21475;/&#21542;V" kvg:position="right">
		<g id="kvg:057f9-g3" kvg:element="&#31435;" kvg:position="top">
			<g id="kvg:057f9-g4" kvg:element="&#20128;" kvg:position="top">
				<path d="M68.21,13.25c1.14,1.14,1.32,2.12,1.32,3.92c0,2.39,0,6.83,0,9.9" id="kvg:057f9-s4" kvg:type="&#12753;a" />
				<path d="M47.5,30.25c2.5,0.25,4.92,0.34,7.28,0.03c7.97-1.03,20.04-2.71,28.74-3.28c2.43-0.16,4.82-0.24,7.23,0.17" id="kvg:057f9-s5" kvg:type="&#12752;" />
			</g>
			<g id="kvg:057f9-g5" kvg:position="bottom">
				<path d="M55.75,37.2c3.56,4.7,5.18,9.5,5.5,12.6" id="kvg:057f9-s6" kvg:type="&#12756;" />
				<path d="M81.48,31.51c0.42,1.11,0.32,1.96-0.01,3c-1.6,5.11-4.35,10.98-7.22,15.51" id="kvg:057f9-s7" kvg:type="&#12754;" />
				<path d="M44,55.51c2.43,0.64,5.3,0.63,7.77,0.29c14.1-1.93,23.85-2.93,38.73-3.98c2.54-0.18,4.98-0.13,7.5,0.27" id="kvg:057f9-s8" kvg:type="&#12752;" />
			</g>
		</g>
		<g id="kvg:057f9-g6" kvg:element="&#21475;" kvg:position="bottom">
			<path d="M52,67.44c0.8,0.74,1.45,1.71,1.64,2.8c0.98,5.63,1.96,11.17,2.75,17.27C56.6,89.14,56.81,90.67,57,92" id="kvg:057f9-s9" kvg:type="&#12753;" />
			<path d="M54.38,68.82c8.28-0.93,21.98-2.52,28.63-3.24c3.36-0.37,5.61,0.05,4.71,3.94c-1.03,4.53-2.38,11.04-3.8,16.59" id="kvg:057f9-s10" kvg:type="&#12757;b" />
			<path d="M57.7,89.36c4.79-0.47,15.74-1.23,23.82-1.97c1.71-0.16,3.36-0.22,4.7-0.22" id="kvg:057f9-s11" kvg:type="&#12752;b" />
		</g>
	</g>
</g>
</g>
<g id="kvg:StrokeNumbers_057f9" style="font-size:8;fill:#808080">
	<text transform="matrix(1 0 0 1 6.75 43.63)">1</text>
	<text transform="matrix(1 0 0 1 18.75 18.50)">2</text>
	<text transform="matrix(1 0 0 1 6.75 84.13)">3</text>
	<text transform="matrix(1 0 0 1 59.25 12.13)">4</text>
	<text transform="matrix(1 0 0 1 45.50 27.05)">5</text>
	<text transform="matrix(1 0 0 1 48.50 40.48)">6</text>
	<text transform="matrix(1 0 0 1 73.50 37.50)">7</text>
	<text transform="matrix(1 0 0 1 42.50 52.55)">8</text>
	<text transform="matrix(1 0 0 1 45.75 75.50)">9</text>
	<text transform="matrix(1 0 0 1 55.50 65.50)">10</text>
	<text transform="matrix(1 0 0 1 59.50 85.50)">11</text>
</g>
</svg>