<svg xmlns="http://www.w3.org/2000/svg" xmlns:kvg="http://kanjivg.tagaini.net" height="109" meaning="robust, manhood, prosperity" viewBox="0 0 109 109" width="109">
<g id="kvg:StrokePaths_058ee" style="fill:none;stroke:#000000;stroke-width:3;stroke-linecap:round;stroke-linejoin:round;">
<g id="kvg:058ee" kvg:element="&#22766;">
	<g id="kvg:058ee-g1" kvg:element="&#11942;" kvg:original="&#29247;" kvg:phon="&#20012;" kvg:position="left" kvg:radical="nelson" kvg:variant="true">
		<path d="M34.12,16.25c1.19,1.19,1.46,3,1.46,4.5c0,0.65,0.04,45.06,0.04,65c0,5.58,0,9.25-0.01,9.5" id="kvg:058ee-s1" kvg:type="&#12753;" />
		<path d="M13.88,30.25c4.02,2.43,10.37,9.98,11.38,13.75" id="kvg:058ee-s2" kvg:type="&#12756;" />
		<path d="M12.5,76.3c1.88,0.95,3.08,0.2,4.34-0.76c3.66-2.8,7.33-6.22,10.66-9.78" id="kvg:058ee-s3" kvg:type="&#12736;" />
	</g>
	<g id="kvg:058ee-g2" kvg:element="&#22763;" kvg:position="right" kvg:radical="tradit">
		<path d="M44.63,46.23c2.12,0.65,5.24,0.48,7.25,0.18c11.12-1.65,26.75-3.78,38.5-4.62c1.96-0.14,4.25-0.15,6.25,0.29" id="kvg:058ee-s4" kvg:type="&#12752;" />
		<path d="M69,17.25c1.19,1.19,1.75,2.75,1.75,4.75c0,1.03,0,45.25,0,60.5" id="kvg:058ee-s5" kvg:type="&#12753;a" />
		<path d="M47.5,83.75c2.88,0.75,4.73,0.7,7.25,0.46c10.56-1,22.05-2.24,33.26-2.41c2.12-0.03,4.53,0.11,6.61,0.59" id="kvg:058ee-s6" kvg:type="&#12752;" />
	</g>
</g>
</g>
<g id="kvg:StrokeNumbers_058ee" style="font-size:8;fill:#808080">
	<text transform="matrix(1 0 0 1 24.75 15.50)">1</text>
	<text transform="matrix(1 0 0 1 6.50 30.50)">2</text>
	<text transform="matrix(1 0 0 1 5.25 79.50)">3</text>
	<text transform="matrix(1 0 0 1 43.25 43.13)">4</text>
	<text transform="matrix(1 0 0 1 59.50 17.50)">5</text>
	<text transform="matrix(1 0 0 1 45.50 80.50)">6</text>
</g>
</svg>