<svg xmlns="http://www.w3.org/2000/svg" xmlns:kvg="http://kanjivg.tagaini.net" height="109" meaning="late, delayed, winter radical (no. 34)" viewBox="0 0 109 109" width="109">
<g id="kvg:StrokePaths_05902" style="fill:none;stroke:#000000;stroke-width:3;stroke-linecap:round;stroke-linejoin:round;">
<g id="kvg:05902" kvg:element="&#22786;" kvg:radical="general">
	<path d="M43.56,11.75c0.08,1.09,0.16,2.81-0.15,4.38C41.56,25.35,30.98,45.6,16.5,58" id="kvg:05902-s1" kvg:type="&#12754;" />
	<path d="M38.84,34.02c0.44,0.05,2.81,0.48,4.06,0.34c5.6-0.61,21.35-2.86,27.23-4.41c4.03-1.06,5.18,1.21,4.15,4.09C68.63,49.81,40.17,88.38,15,96.5" id="kvg:05902-s2" kvg:type="&#12743;" />
	<path d="M33.5,40.75c7.5,8.75,41.5,42,51.61,50c3.02,2.39,5.46,3.54,8.39,4.25" id="kvg:05902-s3" kvg:type="&#12751;" />
</g>
</g>
<g id="kvg:StrokeNumbers_05902" style="font-size:8;fill:#808080">
	<text transform="matrix(1 0 0 1 35.25 11.50)">1</text>
	<text transform="matrix(1 0 0 1 45.50 30.50)">2</text>
	<text transform="matrix(1 0 0 1 32.25 52.50)">3</text>
</g>
</svg>