<svg xmlns="http://www.w3.org/2000/svg" xmlns:kvg="http://kanjivg.tagaini.net" height="109" meaning="advance quickly, to go back and forth, origin, source" viewBox="0 0 109 109" width="109">
<g id="kvg:StrokePaths_05932" style="fill:none;stroke:#000000;stroke-width:3;stroke-linecap:round;stroke-linejoin:round;">
<g id="kvg:05932" kvg:element="&#22834;">
	<g id="kvg:05932-g1" kvg:element="&#22823;" kvg:position="top" kvg:radical="tradit">
		<path d="M17.99,30.95c1.26,0.48,4.6,1.04,7.27,0.83c18.03-1.43,41.71-4.28,57.89-4.97c2.78-0.12,5.02-0.06,7.53,0.31" id="kvg:05932-s1" kvg:type="&#12752;" />
		<path d="M51.36,12c0.58,0.75,1.02,1.63,0.87,3.26C50.25,36,35.75,58.75,15,66.57" id="kvg:05932-s2" kvg:type="&#12754;" />
		<path d="M57.19,29.15c7.75,6.47,25.82,22.94,33.56,27.27c2.63,1.47,3.55,1.69,4.75,1.83" id="kvg:05932-s3" kvg:type="&#12751;" />
	</g>
	<g id="kvg:05932-g2" kvg:element="&#21313;" kvg:position="bottom">
		<path d="M29.61,70.03c0.9,0.3,2.57,0.38,3.47,0.3c11.5-0.99,34.73-3.37,42.66-3.48c1.51-0.02,2.41,0.14,3.17,0.3" id="kvg:05932-s4" kvg:type="&#12752;" />
		<path d="M52.89,51.88c0.42,0.34,1.32,2.53,1.41,3.2c0.08,0.68-0.05,40.83-0.14,45.05" id="kvg:05932-s5" kvg:type="&#12753;" />
	</g>
</g>
</g>
<g id="kvg:StrokeNumbers_05932" style="font-size:8;fill:#808080">
	<text transform="matrix(1 0 0 1 12.50 30.50)">1</text>
	<text transform="matrix(1 0 0 1 42.50 11.50)">2</text>
	<text transform="matrix(1 0 0 1 71.50 38.50)">3</text>
	<text transform="matrix(1 0 0 1 22.25 70.50)">4</text>
	<text transform="matrix(1 0 0 1 44.25 53.50)">5</text>
</g>
</svg>