<svg xmlns="http://www.w3.org/2000/svg" xmlns:kvg="http://kanjivg.tagaini.net" height="109" kun="&#12363;&#12394;.&#12391;&#12427;" meaning="play music, speak to a ruler, complete" on="&#12477;&#12454;" viewBox="0 0 109 109" width="109">
<g id="kvg:StrokePaths_0594f" style="fill:none;stroke:#000000;stroke-width:3;stroke-linecap:round;stroke-linejoin:round;">
<g id="kvg:0594f" kvg:element="&#22863;">
	<g id="kvg:0594f-g1" kvg:position="top">
		<g id="kvg:0594f-g2" kvg:element="&#19977;">
			<g id="kvg:0594f-g3" kvg:element="&#19968;">
				<path d="M29.81,22.95c1.92,0.68,4.58,0.43,6.57,0.2c10.8-1.25,19.25-2.65,31-3.82c2.34-0.23,4.76-0.35,7.08,0.14" id="kvg:0594f-s1" kvg:type="&#12752;" />
			</g>
			<g id="kvg:0594f-g4" kvg:element="&#19968;">
				<path d="M29.75,34.56c1.97,0.78,4.6,0.31,6.62,0.11C44.58,33.85,56,32,67.38,30.75c2.35-0.26,4.7-0.55,7.03,0" id="kvg:0594f-s2" kvg:type="&#12752;" />
			</g>
			<g id="kvg:0594f-g5" kvg:element="&#19968;">
				<path d="M20.38,47.3c3,0.58,5.34,0.39,7.89,0.03c14.98-2.08,31.35-3.83,49.35-5.09c2.91-0.2,5.64-0.33,8.5,0.27" id="kvg:0594f-s3" kvg:type="&#12752;" />
			</g>
		</g>
		<g id="kvg:0594f-g6" kvg:element="&#20154;">
			<path d="M52.25,10.25c0.5,1.25,0.81,2.67,0.29,4.82C48.12,33.12,42.5,58.25,14.25,73.5" id="kvg:0594f-s4" kvg:type="&#12754;" />
			<path d="M53.25,33.25c4.76,5.36,20.03,19.49,29.12,27.26c3.43,2.93,6.51,5.33,11.12,7.56" id="kvg:0594f-s5" kvg:type="&#12751;" />
		</g>
	</g>
	<g id="kvg:0594f-g7" kvg:element="&#22825;" kvg:position="bottom">
		<path d="M37.77,60.81c1.36,0.52,3.54,0.41,4.97,0.24c7.72-0.94,12.51-1.74,18.52-2.14c1.64-0.11,3.28-0.25,4.9,0.13" id="kvg:0594f-s6" kvg:type="&#12752;" />
		<g id="kvg:0594f-g8" kvg:element="&#22823;" kvg:radical="general">
			<path d="M28.13,76.28c2.37,0.6,4.42,0.48,6.37,0.25c10.75-1.28,21.88-2.78,35-3.27c2.76-0.1,5.88,0,9.05,0.65" id="kvg:0594f-s7" kvg:type="&#12752;" />
			<path d="M51.22,62.59c0.51,0.59,0.99,2.03,0.96,3.17c-0.31,17.36-11.06,29.61-25.64,34.61" id="kvg:0594f-s8" kvg:type="&#12754;" />
			<path d="M52.62,80.25c6.73,3.06,19.79,13.17,23.85,19.03" id="kvg:0594f-s9" kvg:type="&#12756;/&#12751;" />
		</g>
	</g>
</g>
</g>
<g id="kvg:StrokeNumbers_0594f" style="font-size:8;fill:#808080">
	<text transform="matrix(1 0 0 1 24.50 23.50)">1</text>
	<text transform="matrix(1 0 0 1 23.25 35.50)">2</text>
	<text transform="matrix(1 0 0 1 14.25 48.50)">3</text>
	<text transform="matrix(1 0 0 1 43.50 11.50)">4</text>
	<text transform="matrix(1 0 0 1 63.50 39.50)">5</text>
	<text transform="matrix(1 0 0 1 41.50 58.50)">6</text>
	<text transform="matrix(1 0 0 1 30.50 73.50)">7</text>
	<text transform="matrix(1 0 0 1 44.25 69.50)">8</text>
	<text transform="matrix(1 0 0 1 63.50 83.50)">9</text>
</g>
</svg>