<svg xmlns="http://www.w3.org/2000/svg" xmlns:kvg="http://kanjivg.tagaini.net" height="109" kun="&#12354;&#12365;.&#12425;&#12363;" meaning="clear, bright" on="&#12459;&#12531;" viewBox="0 0 109 109" width="109">
<g id="kvg:StrokePaths_05950" style="fill:none;stroke:#000000;stroke-width:3;stroke-linecap:round;stroke-linejoin:round;">
<g id="kvg:05950" kvg:element="&#22864;">
	<g id="kvg:05950-g1" kvg:position="top">
		<g id="kvg:05950-g2" kvg:element="&#131210;" kvg:original="&#21241;" kvg:variant="true">
			<path d="M44,9c0.06,0.54,0.33,1.5-0.12,2.18C41,15.5,32.5,26,22.25,33" id="kvg:05950-s1" kvg:type="&#12754;" />
			<path d="M40,18.38c2.84,0,21.45-2.37,24.44-2.65c2.56-0.24,3.88,2.57,2.81,3.76c-4.5,5-6,7.5-10.75,14.25" id="kvg:05950-s2" kvg:type="&#12743;" />
		</g>
		<g id="kvg:05950-g3" kvg:element="&#20866;">
			<path d="M27.99,34.4c1.26,1.1,2.26,2.85,2.42,4.54c1.03,10.54,1.08,16.3,1.33,29.44" id="kvg:05950-s3" kvg:type="&#12753;" />
			<path d="M31,36.48c11.89-1.27,38.28-2.93,46.39-3.13c3.36-0.08,4.6,2.31,4.37,4.22C80.75,46,80.25,52,78.42,65.68" id="kvg:05950-s4" kvg:type="&#12757;a" />
		</g>
		<g id="kvg:05950-g4" kvg:element="&#20799;" kvg:original="&#20843;">
			<g id="kvg:05950-g5" kvg:element="&#20031;" kvg:position="left">
				<path d="M47.08,37.28c0.05,0.52,0.05,1.32-0.09,2.08C45.73,46,44.5,52.25,38.75,57.5" id="kvg:05950-s5" kvg:type="&#12754;" />
			</g>
			<g id="kvg:05950-g6" kvg:position="right">
				<path d="M59.37,37.09c0.6,0.93,1.11,2.02,1.11,3.45c0,1.93-0.18,5.54-0.18,6.91c0,3.75,2.04,5.29,5.94,5.29c3.53,0,6.13,0,7.62-1.21" id="kvg:05950-s6" kvg:type="&#12767;" />
			</g>
		</g>
	</g>
	<g id="kvg:05950-g7" kvg:element="&#22823;" kvg:position="bottom" kvg:radical="general">
		<path d="M14.88,72.11c1.85,0.39,3.93,0.17,5.14,0.11c19.99-0.97,50.32-2.47,66.26-3.64c1.53-0.11,4.27-0.08,5.98-0.08" id="kvg:05950-s7" kvg:type="&#12752;" />
		<path d="M51.62,58.75c0.38,1.25,0.6,1.22,0.37,2.4C48,81.25,37.15,92.37,14,98.75" id="kvg:05950-s8" kvg:type="&#12754;" />
		<path d="M52,70.5c7.79,6.06,25.96,21.48,33.73,25.54c2.64,1.38,3.57,1.58,4.77,1.71" id="kvg:05950-s9" kvg:type="&#12751;" />
	</g>
</g>
</g>
<g id="kvg:StrokeNumbers_05950" style="font-size:8;fill:#808080">
	<text transform="matrix(1 0 0 1 36.50 10.50)">1</text>
	<text transform="matrix(1 0 0 1 51.25 14.50)">2</text>
	<text transform="matrix(1 0 0 1 23.25 45.23)">3</text>
	<text transform="matrix(1 0 0 1 34.50 32.50)">4</text>
	<text transform="matrix(1 0 0 1 39.50 44.58)">5</text>
	<text transform="matrix(1 0 0 1 53.50 43.25)">6</text>
	<text transform="matrix(1 0 0 1 8.50 72.68)">7</text>
	<text transform="matrix(1 0 0 1 43.50 63.50)">8</text>
	<text transform="matrix(1 0 0 1 66.25 79.53)">9</text>
</g>
</svg>