<svg xmlns="http://www.w3.org/2000/svg" xmlns:kvg="http://kanjivg.tagaini.net" height="109" meaning="despise, contempt, ugly, same as, (phantom kanji)" viewBox="0 0 109 109" width="109">
<g id="kvg:StrokePaths_0599b" style="fill:none;stroke:#000000;stroke-width:3;stroke-linecap:round;stroke-linejoin:round;">
<g id="kvg:0599b" kvg:element="&#22939;">
	<g id="kvg:0599b-g1" kvg:element="&#23665;" kvg:position="top" kvg:radical="general">
		<path d="M53.01,8.88c0.56,0.33,1.75,2.48,1.86,3.15c0.11,0.66-0.07,15.08-0.18,19.23" id="kvg:0599b-s1" kvg:type="&#12753;a" />
		<path d="M27.43,19.75c0.56,0.33,1.12,1.73,1.12,2.41c0,2.59-0.8,6.84-2.09,10.76c-0.48,1.45,0.83,2.59,2.11,2.28c4.93-1.2,47.83-5.92,52.85-6.05" id="kvg:0599b-s2" kvg:type="&#12740;a" />
		<path d="M82.52,15.12c0.56,0.39,1.21,2.87,1.12,3.64c-0.56,4.71-1.14,10.11-2.04,14.69" id="kvg:0599b-s3" kvg:type="&#12753;" />
	</g>
	<g id="kvg:0599b-g2" kvg:position="bottom">
		<g id="kvg:0599b-g3" kvg:element="&#19968;">
			<path d="M19.04,48.76c1.99,0.25,5.22,0.6,6.7,0.5C43.86,48,71.36,44.49,86.75,44.5c2.48,0,3.97,0.24,5.21,0.49" id="kvg:0599b-s4" kvg:type="&#12752;" />
		</g>
		<g id="kvg:0599b-g4" kvg:element="&#22899;">
			<path d="M49.55,50.37c0.49,1.19,0.15,2.7-0.24,4.18c-1.92,7.28-5.72,14.01-11.84,22.37c-1.33,1.82-0.27,2.18,0.73,2.19c14.2,0.2,36.96,10.16,44.31,19.52" id="kvg:0599b-s5" kvg:type="&#12763;" />
			<path d="M68.75,56.38c0.12,1.03,0.21,3.55-0.25,5.05c-3.67,12.12-14.25,29.31-40.49,38.33" id="kvg:0599b-s6" kvg:type="&#12754;" />
			<path d="M17.94,66.77c2.33,0.68,4.81,1.14,5.93,1.04C47.41,65.67,66,63.5,87.61,61.99c1.86-0.13,5.07,0.42,6.58,1.19" id="kvg:0599b-s7" kvg:type="&#12752;" />
		</g>
	</g>
</g>
</g>
<g id="kvg:StrokeNumbers_0599b" style="font-size:8;fill:#808080">
	<text transform="matrix(1 0 0 1 43.50 9.50)">1</text>
	<text transform="matrix(1 0 0 1 19.66 18.50)">2</text>
	<text transform="matrix(1 0 0 1 73.50 15.50)">3</text>
	<text transform="matrix(1 0 0 1 11.25 49.50)">4</text>
	<text transform="matrix(1 0 0 1 41.50 56.50)">5</text>
	<text transform="matrix(1 0 0 1 60.25 56.25)">6</text>
	<text transform="matrix(1 0 0 1 11.50 68.50)">7</text>
</g>
</svg>