<svg xmlns="http://www.w3.org/2000/svg" xmlns:kvg="http://kanjivg.tagaini.net" height="109" kun="&#12431;&#12374;&#12362;&#12366;, &#12358;&#12383;&#12356;&#12417;" meaning="stretch, singing girl, geisha, prostitute" on="&#12462;, &#12461;" viewBox="0 0 109 109" width="109">
<g id="kvg:StrokePaths_05993" style="fill:none;stroke:#000000;stroke-width:3;stroke-linecap:round;stroke-linejoin:round;">
<g id="kvg:05993" kvg:element="&#22931;">
	<g id="kvg:05993-g1" kvg:element="&#22899;" kvg:position="left" kvg:radical="general" kvg:variant="true">
		<path d="M28.98,23.37c0.39,1.07,0.59,2.32,0.39,3.86c-0.94,7.29-7.03,28.06-11.35,37.58c-0.98,2.16-1.02,3.4,1.35,4.12c8.31,2.53,16.34,8.62,21.39,16.15" id="kvg:05993-s1" kvg:type="&#12763;" />
		<path d="M40.25,41.98c0.5,1.27,0.43,2.6,0.08,4.22C37.38,60,29.12,79,12,88.5" id="kvg:05993-s2" kvg:type="&#12754;" />
		<path d="M10.25,52.34c0.75,0.97,2.04,1.66,4,1.18c9.38-2.27,19.5-4.65,30.25-7.43" id="kvg:05993-s3" kvg:type="&#12736;/&#12752;" />
	</g>
	<g id="kvg:05993-g2" kvg:element="&#25903;" kvg:position="right">
		<g id="kvg:05993-g3" kvg:element="&#21313;" kvg:position="top">
			<path d="M43.1,33.35c2.91,0.59,5.78,0.44,8.67-0.12c8.23-1.6,18.35-2.85,28.2-4.14c2.97-0.39,5.53-0.34,8.87,0.05" id="kvg:05993-s4" kvg:type="&#12752;" />
			<path d="M62.84,12.59c1.22,1.22,1.49,2.66,1.49,4.11c0,0.93,0.03,26.68,0.03,32.99" id="kvg:05993-s5" kvg:type="&#12753;a" />
		</g>
		<g id="kvg:05993-g4" kvg:element="&#21448;" kvg:position="bottom">
			<path d="M47.98,52.2c1.58,0.39,3.02,0.73,6.17,0.14c3.15-0.59,19.4-3.41,21.57-4c2.17-0.59,4.28,1.59,3.3,3.68C71.12,69,60.25,84.5,39.09,94.57" id="kvg:05993-s6" kvg:type="&#12743;" />
			<path d="M46.94,56.93C52.25,58,68.21,75.97,83.39,86.85c3.72,2.84,7.75,5.15,12.08,6.92" id="kvg:05993-s7" kvg:type="&#12751;" />
		</g>
	</g>
</g>
</g>
<g id="kvg:StrokeNumbers_05993" style="font-size:8;fill:#808080">
	<text transform="matrix(1 0 0 1 21.50 23.63)">1</text>
	<text transform="matrix(1 0 0 1 34.50 38.50)">2</text>
	<text transform="matrix(1 0 0 1 2.50 52.50)">3</text>
	<text transform="matrix(1 0 0 1 41.50 30.50)">4</text>
	<text transform="matrix(1 0 0 1 53.50 10.50)">5</text>
	<text transform="matrix(1 0 0 1 49.50 49.50)">6</text>
	<text transform="matrix(1 0 0 1 44.50 65.50)">7</text>
</g>
</svg>