<svg xmlns="http://www.w3.org/2000/svg" xmlns:kvg="http://kanjivg.tagaini.net" height="109" kun="&#12354;&#12397;, &#12397;&#12360;&#12373;&#12435;" meaning="elder sister, maidservant" on="&#12477;, &#12471;&#12515;" viewBox="0 0 109 109" width="109">
<g id="kvg:StrokePaths_059d0" style="fill:none;stroke:#000000;stroke-width:3;stroke-linecap:round;stroke-linejoin:round;">
<g id="kvg:059d0" kvg:element="&#22992;">
	<g id="kvg:059d0-g1" kvg:element="&#22899;" kvg:position="left" kvg:radical="general" kvg:variant="true">
		<path d="M30.12,18.62c0.38,1.13,0.57,2.99,0.38,4.63c-0.94,7.86-6.94,30.58-11.2,40.45c-0.69,1.61-0.19,3.3,1.45,3.94c7.38,2.87,17.93,9.07,22.25,17.11" id="kvg:059d0-s1" kvg:type="&#12763;" />
		<path d="M42.5,38c0.83,1.18,0.64,3.17,0.34,5.03C40.41,58.12,33.88,78.5,15.75,92" id="kvg:059d0-s2" kvg:type="&#12754;" />
		<path d="M11,50.21c0.75,1.04,1.79,1.74,3.75,1.29c11.5-2.62,19.88-5,31.75-8.03" id="kvg:059d0-s3" kvg:type="&#12736;/&#12752;" />
	</g>
	<g id="kvg:059d0-g2" kvg:element="&#19988;" kvg:position="right">
		<g id="kvg:059d0-g3" kvg:element="&#26376;">
			<path d="M55.71,19.84c0.72,0.72,0.93,1.78,0.93,3.06c0,1.03,0.11,62.72,0.11,66.56" id="kvg:059d0-s4" kvg:type="&#12753;a" />
			<path d="M57.55,20.98c2.27-0.1,20.87-2.73,22.56-2.91c3.03-0.31,4.56,1.17,4.56,3.98c0,1.46-0.04,56.07-0.04,64.89" id="kvg:059d0-s5" kvg:type="&#12757;b" />
			<path d="M57.63,43.4c7.76-1,19.2-2.44,26.02-2.75" id="kvg:059d0-s6" kvg:type="&#12752;a" />
			<path d="M57.84,64.86c7.04-0.73,17.29-1.98,25.58-2.31" id="kvg:059d0-s7" kvg:type="&#12752;a" />
		</g>
		<g id="kvg:059d0-g4" kvg:element="&#19968;">
			<path d="M42.54,91.07c2.09,0.77,4.55,0.44,6.72,0.29c11.74-0.79,31.83-2.67,43.99-2.97c2.39-0.06,4.78-0.14,7.13,0.38" id="kvg:059d0-s8" kvg:type="&#12752;" />
		</g>
	</g>
</g>
</g>
<g id="kvg:StrokeNumbers_059d0" style="font-size:8;fill:#808080">
	<text transform="matrix(1 0 0 1 22.50 17.50)">1</text>
	<text transform="matrix(1 0 0 1 37.50 34.50)">2</text>
	<text transform="matrix(1 0 0 1 3.50 51.50)">3</text>
	<text transform="matrix(1 0 0 1 49.25 29.50)">4</text>
	<text transform="matrix(1 0 0 1 58.50 17.50)">5</text>
	<text transform="matrix(1 0 0 1 61.50 39.50)">6</text>
	<text transform="matrix(1 0 0 1 61.50 60.50)">7</text>
	<text transform="matrix(1 0 0 1 46.50 88.50)">8</text>
</g>
</svg>