<svg xmlns="http://www.w3.org/2000/svg" xmlns:kvg="http://kanjivg.tagaini.net" height="109" kun="&#12363;&#12375;&#12425;" meaning="chief, beginning" on="&#12514;&#12454;, &#12508;&#12454;, &#12511;&#12519;&#12454;" viewBox="0 0 109 109" width="109">
<g id="kvg:StrokePaths_05b5f" style="fill:none;stroke:#000000;stroke-width:3;stroke-linecap:round;stroke-linejoin:round;">
<g id="kvg:05b5f" kvg:element="&#23391;">
	<g id="kvg:05b5f-g1" kvg:element="&#23376;" kvg:position="top" kvg:radical="general">
		<path d="M31.12,16.51c2.86,1.02,5.79,1.29,8.76,0.78c8.59-1.5,24.14-4.18,30.41-5.29c2.84-0.5,3.24,2.57,1.23,3.95c-4.64,3.18-8.64,5.68-17.23,10.92" id="kvg:05b5f-s1" kvg:type="&#12758;" />
		<path d="M49.86,27.1c7.39,3.15,11.14,14.4,8.16,29.27c-1.13,5.6-5.26,3.26-7.81-0.44" id="kvg:05b5f-s2" kvg:type="&#12757;v" />
		<path d="M16.79,39.61c4.58,1.14,8.43,0.78,12.47,0.26c13.62-1.74,37.62-4.12,51.74-4.41c4.16-0.09,8.27-0.11,12.21,1.38" id="kvg:05b5f-s3" kvg:type="&#12752;" />
	</g>
	<g id="kvg:05b5f-g2" kvg:element="&#30399;" kvg:position="bottom">
		<path d="M25.56,66.01c1.03,1.03,1.38,2.24,1.53,3.25c1.19,8.04,1.87,15.25,2.98,23.39" id="kvg:05b5f-s4" kvg:type="&#12753;a" />
		<path d="M28.15,68.29c11.74-1.25,38.48-3.96,48.84-4.77c3.9-0.31,6.43,0.42,5.68,5.02c-0.92,5.64-2.17,13.72-3.24,20.79" id="kvg:05b5f-s5" kvg:type="&#12757;b" />
		<path d="M43.69,68.19c0.87,0.87,1.13,2.19,1.22,3.15c0.71,6.91,1.33,13.16,2.03,19.9" id="kvg:05b5f-s6" kvg:type="&#12753;a" />
		<path d="M62.49,67.54c0.51,1.34,0.58,2.49,0.47,3.67c-0.71,7.92-1.21,12.29-1.92,19.11" id="kvg:05b5f-s7" kvg:type="&#12753;a" />
		<path d="M13.38,93.54c3.39,1.21,7.64,0.77,11.11,0.44C40.12,92.5,62.25,91.25,86,90.57c3.97-0.11,8.22,0.3,12.13,1.14" id="kvg:05b5f-s8" kvg:type="&#12752;" />
	</g>
</g>
</g>
<g id="kvg:StrokeNumbers_05b5f" style="font-size:8;fill:#808080">
	<text transform="matrix(1 0 0 1 24.25 16.25)">1</text>
	<text transform="matrix(1 0 0 1 44.25 31.30)">2</text>
	<text transform="matrix(1 0 0 1 10.25 40.25)">3</text>
	<text transform="matrix(1 0 0 1 19.00 72.25)">4</text>
	<text transform="matrix(1 0 0 1 31.25 65.25)">5</text>
	<text transform="matrix(1 0 0 1 37.25 77.00)">6</text>
	<text transform="matrix(1 0 0 1 55.00 74.93)">7</text>
	<text transform="matrix(1 0 0 1 12.25 91.25)">8</text>
</g>
</svg>