<svg xmlns="http://www.w3.org/2000/svg" xmlns:kvg="http://kanjivg.tagaini.net" height="109" meaning="eaves, roof, house, heaven" viewBox="0 0 109 109" width="109">
<g id="kvg:StrokePaths_05b87" style="fill:none;stroke:#000000;stroke-width:3;stroke-linecap:round;stroke-linejoin:round;">
<g id="kvg:05b87" kvg:element="&#23431;">
	<g id="kvg:05b87-g1" kvg:element="&#23424;" kvg:position="top" kvg:radical="general">
		<path d="M53.56,13.75c1.03,1.03,1.31,2.73,1.29,3.82c-0.08,3.43-0.08,7.27-0.09,10.4" id="kvg:05b87-s1" kvg:type="&#12753;a" />
		<g id="kvg:05b87-g2" kvg:element="&#20886;">
			<path d="M26.68,28.85c0,3.36-3.53,13.16-4.88,15.4" id="kvg:05b87-s2" kvg:type="&#12756;" />
			<path d="M27.79,31.45c9.46-1.2,42.83-4.57,55.07-5.07c10.62-0.43,2.25,6.31-0.4,8.17" id="kvg:05b87-s3" kvg:type="&#12758;b" />
		</g>
	</g>
	<g id="kvg:05b87-g3" kvg:element="&#20110;" kvg:phon="&#20110;" kvg:position="bottom">
		<g id="kvg:05b87-g4" kvg:element="&#20108;">
			<g id="kvg:05b87-g5" kvg:position="top">
				<path d="M35.67,44.5c1.65,0.59,4.01,0.34,5.72,0.09c5.4-0.79,16.58-1.96,23.87-2.7c1.89-0.19,3.68-0.39,5.55,0.01" id="kvg:05b87-s4" kvg:type="&#12752;" />
			</g>
			<g id="kvg:05b87-g6" kvg:position="bottom">
				<path d="M20.19,63.12c2.51,0.88,5.97,0.61,8.56,0.37c11.84-1.09,39.51-4.06,53.75-4.54c2.85-0.1,5.75-0.22,8.55,0.37" id="kvg:05b87-s5" kvg:type="&#12752;" />
			</g>
		</g>
		<g id="kvg:05b87-g7" kvg:element="&#20101;">
			<path d="M53.08,45.83c1.11,1.11,1.73,2.79,1.73,4.38c0,14.24,0.05,37.36,0.05,42.21c0,10.26-6.92,1.2-7.8,0.27" id="kvg:05b87-s6" kvg:type="&#12762;" />
		</g>
	</g>
</g>
</g>
<g id="kvg:StrokeNumbers_05b87" style="font-size:8;fill:#808080">
	<text transform="matrix(1 0 0 1 44.50 14.50)">1</text>
	<text transform="matrix(1 0 0 1 18.50 33.05)">2</text>
	<text transform="matrix(1 0 0 1 30.50 27.50)">3</text>
	<text transform="matrix(1 0 0 1 33.50 41.50)">4</text>
	<text transform="matrix(1 0 0 1 12.50 64.50)">5</text>
	<text transform="matrix(1 0 0 1 46.50 53.50)">6</text>
</g>
</svg>