<svg xmlns="http://www.w3.org/2000/svg" xmlns:kvg="http://kanjivg.tagaini.net" height="109" meaning="wide, large" viewBox="0 0 109 109" width="109">
<g id="kvg:StrokePaths_05b8f" style="fill:none;stroke:#000000;stroke-width:3;stroke-linecap:round;stroke-linejoin:round;">
<g id="kvg:05b8f" kvg:element="&#23439;">
	<g id="kvg:05b8f-g1" kvg:element="&#23424;" kvg:position="top" kvg:radical="general">
		<path d="M52.79,11.25c1.17,1.17,1.31,2.5,1.31,4.1c0,3.46-0.09,6.6-0.09,9.75" id="kvg:05b8f-s1" kvg:type="&#12753;a" />
		<g id="kvg:05b8f-g2" kvg:element="&#20886;">
			<path d="M22.67,25.37c0,3.48-3.2,13.06-4.65,15.38" id="kvg:05b8f-s2" kvg:type="&#12756;" />
			<path d="M23.3,29.1c12.45-1.47,44.7-4.85,62.76-5.38c10.78-0.32,2.31,7.16-1.15,9.79" id="kvg:05b8f-s3" kvg:type="&#12758;b" />
		</g>
	</g>
	<g id="kvg:05b8f-g3" kvg:position="bottom">
		<path d="M19,54.87c2.72,0.99,5.87,0.71,8.65,0.4c14.97-1.65,38.16-3.79,51.71-4.39c3.13-0.14,6.31-0.32,9.38,0.35" id="kvg:05b8f-s4" kvg:type="&#12752;" />
		<path d="M52.24,35.5c0.11,1.44-0.09,3.4-0.71,5.03C43.8,60.81,34.5,78.75,13.5,94.54" id="kvg:05b8f-s5" kvg:type="&#12754;" />
		<g id="kvg:05b8f-g4" kvg:element="&#21430;">
			<path d="M59.68,63.13c0.32,1.25-0.16,2.54-0.6,3.31C54,75.25,47.25,84,39.6,92.87c-2.15,2.49-1.55,3.56,1.83,2.81c8.7-1.93,21.2-4.81,34.55-8.02" id="kvg:05b8f-s6" kvg:type="&#12764;" />
			<path d="M69.12,77.12c7.75,7.62,13.12,15.25,14.45,21.09" id="kvg:05b8f-s7" kvg:type="&#12756;" />
		</g>
	</g>
</g>
</g>
<g id="kvg:StrokeNumbers_05b8f" style="font-size:8;fill:#808080">
	<text transform="matrix(1 0 0 1 43.25 11.25)">1</text>
	<text transform="matrix(1 0 0 1 15.25 26.25)">2</text>
	<text transform="matrix(1 0 0 1 26.25 25.25)">3</text>
	<text transform="matrix(1 0 0 1 11.00 56.25)">4</text>
	<text transform="matrix(1 0 0 1 42.25 36.25)">5</text>
	<text transform="matrix(1 0 0 1 51.00 63.00)">6</text>
	<text transform="matrix(1 0 0 1 69.25 75.25)">7</text>
</g>
</svg>