<svg xmlns="http://www.w3.org/2000/svg" xmlns:kvg="http://kanjivg.tagaini.net" height="109" meaning="mid-air, air, space, sky, memorization, interval of time" viewBox="0 0 109 109" width="109">
<g id="kvg:StrokePaths_05b99" style="fill:none;stroke:#000000;stroke-width:3;stroke-linecap:round;stroke-linejoin:round;">
<g id="kvg:05b99" kvg:element="&#23449;">
	<g id="kvg:05b99-g1" kvg:element="&#23424;" kvg:position="top" kvg:radical="general">
		<path d="M52.8,12.86c1.36,1.36,1.53,3.2,1.53,4.39c0,2.25-0.08,5.15-0.08,9" id="kvg:05b99-s1" kvg:type="&#12753;a" />
		<g id="kvg:05b99-g2" kvg:element="&#20886;">
			<path d="M20.12,26.38c0,4.76-2.15,17.84-3.12,21.02" id="kvg:05b99-s2" kvg:type="&#12756;" />
			<path d="M20.72,31.87C41,29.12,62.5,25.75,84.96,24.88c11.53-0.44,2.44,6.67-0.43,8.71" id="kvg:05b99-s3" kvg:type="&#12758;b" />
		</g>
	</g>
	<g id="kvg:05b99-g3" kvg:element="&#30001;" kvg:phon="&#30001;" kvg:position="bottom">
		<g id="kvg:05b99-g4" kvg:element="&#30000;" kvg:part="1" kvg:partial="true">
			<path d="M24.95,56.95c0.86,0.86,1.47,2.12,1.62,2.97c1.43,7.95,2.56,17.82,3.85,30.06c0.21,1.96,0.32,3.89,0.47,5.76" id="kvg:05b99-s4" kvg:type="&#12753;" />
			<path d="M27.57,59.25c16.18-2,36.81-4.12,49.1-4.81c3.85-0.22,5.46,1.19,5.1,4.1c-0.64,5.29-2.02,16.22-3.96,27.72c-0.46,2.73-0.94,4.25-1.56,7.05" id="kvg:05b99-s5" kvg:type="&#12757;a" />
		</g>
		<g id="kvg:05b99-g5" kvg:element="&#20008;">
			<path d="M52.22,36.82c0.85,0.85,1.4,2.44,1.41,3.62c0.03,11.64,0,45.77,0,48.81" id="kvg:05b99-s6" kvg:type="&#12753;a" />
		</g>
		<g id="kvg:05b99-g6" kvg:element="&#30000;" kvg:part="2" kvg:partial="true">
			<path d="M30,75.42c14.75-1.67,38.37-3.67,48.94-4.1" id="kvg:05b99-s7" kvg:type="&#12752;a" />
			<path d="M31.88,92.2c14.12-1.2,30-2.57,44.24-2.99" id="kvg:05b99-s8" kvg:type="&#12752;a" />
		</g>
	</g>
</g>
</g>
<g id="kvg:StrokeNumbers_05b99" style="font-size:8;fill:#808080">
	<text transform="matrix(1 0 0 1 44.25 12.13)">1</text>
	<text transform="matrix(1 0 0 1 12.75 31.63)">2</text>
	<text transform="matrix(1 0 0 1 24.50 27.13)">3</text>
	<text transform="matrix(1 0 0 1 18.75 66.13)">4</text>
	<text transform="matrix(1 0 0 1 30.50 55.50)">5</text>
	<text transform="matrix(1 0 0 1 42.50 39.50)">6</text>
	<text transform="matrix(1 0 0 1 35.25 70.63)">7</text>
	<text transform="matrix(1 0 0 1 35.25 88.55)">8</text>
</g>
</svg>