<svg xmlns="http://www.w3.org/2000/svg" xmlns:kvg="http://kanjivg.tagaini.net" height="109" meaning="grievance, injustice, wrong" viewBox="0 0 109 109" width="109">
<g id="kvg:StrokePaths_05bc3" style="fill:none;stroke:#000000;stroke-width:3;stroke-linecap:round;stroke-linejoin:round;">
<g id="kvg:05bc3" kvg:element="&#23491;">
	<g id="kvg:05bc3-g1" kvg:element="&#23424;" kvg:position="top" kvg:radical="tradit">
		<path d="M51.33,10c1.17,0.38,2.84,2.25,2.81,3.35c-0.09,3.46-0.09,4.86-0.09,8.01" id="kvg:05bc3-s1" kvg:type="&#12753;a" />
		<g id="kvg:05bc3-g2" kvg:element="&#20886;">
			<path d="M22.41,21.63c0,3.48-3.03,13.05-4.41,15.37" id="kvg:05bc3-s2" kvg:type="&#12756;" />
			<path d="M22.24,24.24c9.51-0.99,54.74-4.03,62.45-4.4c12.05-0.59,2.55,6.66-0.45,8.78" id="kvg:05bc3-s3" kvg:type="&#12758;b" />
		</g>
	</g>
	<g id="kvg:05bc3-g3" kvg:element="&#20820;" kvg:position="bottom">
		<g id="kvg:05bc3-g4" kvg:element="&#20813;" kvg:variant="true">
			<g id="kvg:05bc3-g5" kvg:position="top">
				<g id="kvg:05bc3-g6" kvg:element="&#131210;" kvg:original="&#21241;" kvg:variant="true">
					<path d="M43.89,27.65c0.06,0.64,0.12,1.65-0.12,2.57C42.34,35.63,34.18,47.5,23,54.77" id="kvg:05bc3-s4" kvg:type="&#12754;" />
					<path d="M45.33,35.78c0.55,0,2.5-0.06,3.68-0.15c4.56-0.35,11.59-2.21,13.84-2.36c2.43-0.17,2.95,1.59,2.17,2.65C61.25,41,59,44.5,54,51.53" id="kvg:05bc3-s5" kvg:type="&#12743;" />
				</g>
				<path d="M28.5,53.26c0.5,0.42,1.02,0.78,1.24,1.31c1.75,4.21,2.31,9.81,3.51,17.38" id="kvg:05bc3-s6" kvg:type="&#12753;" />
				<path d="M29.64,54.21c12.36-1.77,42.17-3.99,48.55-4.59c2.33-0.22,3.73,2.19,3.4,3.48c-1.38,5.3-2.59,7.4-4.42,13.3" id="kvg:05bc3-s7" kvg:type="&#12757;" />
				<path d="M33.25,69.64c5-0.45,40.25-2.84,45.75-3.06" id="kvg:05bc3-s8" kvg:type="&#12752;" />
			</g>
			<g id="kvg:05bc3-g7" kvg:element="&#20799;" kvg:original="&#20843;" kvg:position="bottom">
				<g id="kvg:05bc3-g8" kvg:element="&#20031;" kvg:position="left">
					<path d="M54.96,54.42c0.11,1,0.03,2.53-0.22,4.02C52.75,70,44.25,89.25,16.67,97.67" id="kvg:05bc3-s9" kvg:type="&#12754;" />
				</g>
				<g id="kvg:05bc3-g9" kvg:position="right">
					<path d="M54.99,72.65c0.77,0.88,1.39,1.92,1.43,3.28c0.21,6.07-0.05,7.98-0.05,12.1c0,9.64,9.26,8.92,18.38,8.92c9.62,0,15.95-1.24,17.3-1.94c2.86-1.48,2.08-2.22,2.34-4.82" id="kvg:05bc3-s10" kvg:type="&#12767;" />
				</g>
			</g>
		</g>
		<g id="kvg:05bc3-g10" kvg:element="&#20022;">
			<path d="M67.5,75.58c3.71,2.06,9.57,8.46,10.5,11.65" id="kvg:05bc3-s11" kvg:type="&#12756;" />
		</g>
	</g>
</g>
</g>
<g id="kvg:StrokeNumbers_05bc3" style="font-size:8;fill:#808080">
	<text transform="matrix(1 0 0 1 44.50 11.50)">1</text>
	<text transform="matrix(1 0 0 1 15.50 23.50)">2</text>
	<text transform="matrix(1 0 0 1 24.50 20.50)">3</text>
	<text transform="matrix(1 0 0 1 36.50 31.50)">4</text>
	<text transform="matrix(1 0 0 1 48.50 32.50)">5</text>
	<text transform="matrix(1 0 0 1 24.50 62.50)">6</text>
	<text transform="matrix(1 0 0 1 38.50 50.50)">7</text>
	<text transform="matrix(1 0 0 1 36.50 66.50)">8</text>
	<text transform="matrix(1 0 0 1 47.50 61.50)">9</text>
	<text transform="matrix(1 0 0 1 57.50 75.95)">10</text>
	<text transform="matrix(1 0 0 1 71.50 75.70)">11</text>
</g>
</svg>