<svg xmlns="http://www.w3.org/2000/svg" xmlns:kvg="http://kanjivg.tagaini.net" height="109" meaning="draw near, stop in, bring near, gather, collect, send, forward" viewBox="0 0 109 109" width="109">
<g id="kvg:StrokePaths_05bc4" style="fill:none;stroke:#000000;stroke-width:3;stroke-linecap:round;stroke-linejoin:round;">
<g id="kvg:05bc4" kvg:element="&#23492;">
	<g id="kvg:05bc4-g1" kvg:element="&#23424;" kvg:position="top" kvg:radical="general">
		<path d="M52.38,10.69c1.09,1.09,1.46,2.69,1.46,3.9c0,3.08-0.05,3.82-0.04,6.63" id="kvg:05bc4-s1" kvg:type="&#12753;a" />
		<g id="kvg:05bc4-g2" kvg:element="&#20886;">
			<path d="M27.12,23.38c0.01,2.92-3.09,11.02-4.5,13" id="kvg:05bc4-s2" kvg:type="&#12756;" />
			<path d="M27.66,25.2c10.21-1.83,42.34-5.33,52.3-5.78c9.34-0.42,2.24,6.1-0.07,7.84" id="kvg:05bc4-s3" kvg:type="&#12758;b" />
		</g>
	</g>
	<g id="kvg:05bc4-g3" kvg:element="&#22855;" kvg:phon="&#22855;" kvg:position="bottom">
		<g id="kvg:05bc4-g4" kvg:element="&#22823;" kvg:position="top" kvg:variant="true">
			<path d="M33.34,35.83c1.57,0.31,3.34,0.01,4.9-0.15c7.78-0.82,18.73-2.65,26.65-3.45c2.08-0.21,4.14-0.3,6.23-0.3" id="kvg:05bc4-s4" kvg:type="&#12752;" />
			<path d="M51.17,25.5c0.27,0.35,0.46,1.5,0.4,2.24C50.62,38.62,44.5,47.62,34.66,51" id="kvg:05bc4-s5" kvg:type="&#12754;" />
			<path d="M52.88,37.75c6.04,2.21,13.03,5.78,16.72,9.08" id="kvg:05bc4-s6" kvg:type="&#12756;/&#12751;" />
		</g>
		<g id="kvg:05bc4-g5" kvg:element="&#21487;" kvg:position="bottom">
			<g id="kvg:05bc4-g6" kvg:element="&#19969;" kvg:part="1">
				<g id="kvg:05bc4-g7" kvg:element="&#19968;">
					<path d="M14.38,56.35c3.96,1.1,8.57,0.53,12.57,0c17.01-2.23,37.78-4.61,56.41-5.91c4.2-0.29,8.23-0.37,12.39,0.33" id="kvg:05bc4-s7" kvg:type="&#12752;" />
				</g>
			</g>
			<g id="kvg:05bc4-g8" kvg:element="&#21475;">
				<path d="M28.01,66.88c0.81,0.81,1.4,1.57,1.59,2.72c0.84,4.97,1.61,8.73,2.28,12.36c0.24,1.32,0.48,2.62,0.7,3.95" id="kvg:05bc4-s8" kvg:type="&#12753;" />
				<path d="M30.29,68.33c7.79-1.34,16.11-2.78,21.22-3.45c3.25-0.43,4.73,0.62,4.05,3.39c-0.85,3.42-1.98,6.6-3.28,11.02" id="kvg:05bc4-s9" kvg:type="&#12757;b" />
				<path d="M33.52,83.06c5.3-0.86,11-1.69,17.1-2.37c1.37-0.15,2.75-0.3,4.16-0.43" id="kvg:05bc4-s10" kvg:type="&#12752;b" />
			</g>
			<g id="kvg:05bc4-g9" kvg:element="&#19969;" kvg:part="2">
				<g id="kvg:05bc4-g10" kvg:element="&#20101;">
					<path d="M70.96,54.63c1.27,1.27,1.76,2.87,1.76,4.95c0,13.07-0.01,30.14-0.01,34.59c0,8.33-7.46,1.35-8.96,0.22" id="kvg:05bc4-s11" kvg:type="&#12762;" />
				</g>
			</g>
		</g>
	</g>
</g>
</g>
<g id="kvg:StrokeNumbers_05bc4" style="font-size:8;fill:#808080">
	<text transform="matrix(1 0 0 1 46 11.50)">1</text>
	<text transform="matrix(1 0 0 1 19.50 25.63)">2</text>
	<text transform="matrix(1 0 0 1 29 21.50)">3</text>
	<text transform="matrix(1 0 0 1 26.25 38.50)">4</text>
	<text transform="matrix(1 0 0 1 43.50 31.50)">5</text>
	<text transform="matrix(1 0 0 1 62 40)">6</text>
	<text transform="matrix(1 0 0 1 7.50 58.50)">7</text>
	<text transform="matrix(1 0 0 1 22.50 76.63)">8</text>
	<text transform="matrix(1 0 0 1 31.50 65.50)">9</text>
	<text transform="matrix(1 0 0 1 34.50 79.63)">10</text>
	<text transform="matrix(1 0 0 1 61 63.13)">11</text>
</g>
</svg>