<svg xmlns="http://www.w3.org/2000/svg" xmlns:kvg="http://kanjivg.tagaini.net" height="109" meaning="dormitory, hostel, villa, tea pavillion" viewBox="0 0 109 109" width="109">
<g id="kvg:StrokePaths_05bee" style="fill:none;stroke:#000000;stroke-width:3;stroke-linecap:round;stroke-linejoin:round;">
<g id="kvg:05bee" kvg:element="&#23534;">
	<g id="kvg:05bee-g1" kvg:element="&#23424;" kvg:position="top" kvg:radical="general">
		<path d="M52.29,9.02c1.22,1.22,1.67,2.35,1.67,4c0,2.35-0.08,4.23-0.08,6.23" id="kvg:05bee-s1" kvg:type="&#12753;a" />
		<g id="kvg:05bee-g2" kvg:element="&#20886;">
			<path d="M21.44,20.21c0,3.62-3.4,13.6-4.94,16.01" id="kvg:05bee-s2" kvg:type="&#12756;" />
			<path d="M22.01,23.24c15.62-1.49,43.12-4.49,63.15-5.05c11.12-0.31,2.36,6.4-0.41,8.36" id="kvg:05bee-s3" kvg:type="&#12758;b" />
		</g>
	</g>
	<g id="kvg:05bee-g3" kvg:element="&#23582;" kvg:phon="&#23582;" kvg:position="bottom">
		<g id="kvg:05bee-g4" kvg:element="&#22823;">
			<path d="M27.98,33.89c2.77,0.49,5.53,0.19,7.67-0.05c10.8-1.24,24.29-3.3,34.21-4.06c2.7-0.21,5.46-0.42,8.14,0.1" id="kvg:05bee-s4" kvg:type="&#12752;" />
			<path d="M51.64,23.75c0.24,1.25,0.02,2.4-0.55,3.62c-6.83,14.5-16.83,30.13-36.33,40.56" id="kvg:05bee-s5" kvg:type="&#12754;" />
			<path d="M55.68,32.42c6.88,6.04,20.42,19.11,29.5,25.92c2.7,2.02,5.56,3.66,8.57,5.16" id="kvg:05bee-s6" kvg:type="&#12751;" />
		</g>
		<path d="M25.27,43.46c2.93,1.23,7.56,5.08,8.29,7" id="kvg:05bee-s7" kvg:type="&#12756;" />
		<path d="M80.53,37.3c0.02,0.2,0.05,0.52-0.04,0.8c-0.54,1.7-3.66,5.42-7.93,7.69" id="kvg:05bee-s8" kvg:type="&#12754;" />
		<g id="kvg:05bee-g5" kvg:element="&#26085;">
			<path d="M35.99,53.12c0.88,0.88,1.33,2.24,1.52,3.22c0.86,4.41,1.8,8.97,2.49,13.9c0.21,1.52,0.4,3.01,0.55,4.4" id="kvg:05bee-s9" kvg:type="&#12753;" />
			<path d="M37.84,54.08c8.65-1.26,19.4-2.55,27.91-3.4c3.13-0.31,5.1,0.4,4.48,3.94c-0.61,3.48-1.94,9.06-2.93,13.94c-0.3,1.46-0.56,2.87-0.77,4.13" id="kvg:05bee-s10" kvg:type="&#12757;a" />
			<path d="M40.12,63.32c7.25-0.94,19.63-2.32,27.62-2.72" id="kvg:05bee-s11" kvg:type="&#12752;a" />
			<path d="M41.47,73.17c5.91-0.4,15.9-1.38,24.06-2.03" id="kvg:05bee-s12" kvg:type="&#12752;a" />
		</g>
		<g id="kvg:05bee-g6" kvg:element="&#23567;">
			<path d="M53.36,74.93c0.73,0.73,1.02,2.07,1.02,3.81c0,5.01,0.04,12.49,0.04,15.92c0,7.97-5.85,1.04-7.07,0.17" id="kvg:05bee-s13" kvg:type="&#12762;" />
			<path d="M37.2,80.67c0.12,0.88-0.08,1.68-0.59,2.4C33.38,86.88,29.5,90.75,22,95" id="kvg:05bee-s14" kvg:type="&#12754;" />
			<path d="M68.5,80c5.29,2.3,13.68,9.45,15,13.02" id="kvg:05bee-s15" kvg:type="&#12756;" />
		</g>
	</g>
</g>
</g>
<g id="kvg:StrokeNumbers_05bee" style="font-size:8;fill:#808080">
	<text transform="matrix(1 0 0 1 44.00 8.88)">1</text>
	<text transform="matrix(1 0 0 1 14.00 23.88)">2</text>
	<text transform="matrix(1 0 0 1 27.50 19.38)">3</text>
	<text transform="matrix(1 0 0 1 27.50 31.30)">4</text>
	<text transform="matrix(1 0 0 1 42.50 29.88)">5</text>
	<text transform="matrix(1 0 0 1 66.50 40.38)">6</text>
	<text transform="matrix(1 0 0 1 18.50 49.38)">7</text>
	<text transform="matrix(1 0 0 1 86.00 40.38)">8</text>
	<text transform="matrix(1 0 0 1 32.00 65.88)">9</text>
	<text transform="matrix(1 0 0 1 45.50 50.88)">10</text>
	<text transform="matrix(1 0 0 1 45.50 61.30)">11</text>
	<text transform="matrix(1 0 0 1 45.50 70.23)">12</text>
	<text transform="matrix(1 0 0 1 42.50 82.16)">13</text>
	<text transform="matrix(1 0 0 1 23.00 83.88)">14</text>
	<text transform="matrix(1 0 0 1 72.50 80.88)">15</text>
</g>
</svg>