<svg xmlns="http://www.w3.org/2000/svg" xmlns:kvg="http://kanjivg.tagaini.net" height="109" kun="&#12397;.&#12427;, &#12397;.&#12363;&#12377;, &#12356;.&#12396;, &#12415;&#12383;&#12414;&#12420;, &#12420;.&#12417;&#12427;" meaning="sleep, rest, bed chamber" on="&#12471;&#12531;" viewBox="0 0 109 109" width="109">
<g id="kvg:StrokePaths_05be2" style="fill:none;stroke:#000000;stroke-width:3;stroke-linecap:round;stroke-linejoin:round;">
<g id="kvg:05be2" kvg:element="&#23522;">
	<g id="kvg:05be2-g1" kvg:element="&#23424;" kvg:position="top" kvg:radical="tradit">
		<path d="M51.53,7.25c1,0.33,2.44,1.93,2.41,2.87c-0.07,2.97-0.07,8.03-0.08,10.73" id="kvg:05be2-s1" kvg:type="&#12753;a" />
		<g id="kvg:05be2-g2" kvg:element="&#20886;">
			<path d="M19.41,19.88c0,3.42-2.35,12.83-3.41,15.12" id="kvg:05be2-s2" kvg:type="&#12756;" />
			<path d="M19.24,23.61c9.31-0.96,59.02-4.41,66.57-4.77c11.81-0.57,4,5.97,1.06,8.03" id="kvg:05be2-s3" kvg:type="&#12758;b" />
		</g>
	</g>
	<g id="kvg:05be2-g3" kvg:position="bottom">
		<g id="kvg:05be2-g4" kvg:element="&#29247;" kvg:position="left">
			<path d="M35.75,31.22c1.11,1.03,1.83,2.79,1.83,4c0,11.62-0.04,61.45-0.04,65.4" id="kvg:05be2-s4" kvg:type="&#12740;" />
			<path d="M21.33,39.13c1.26,0.48,1.74,1.04,1.85,2.62c0.16,2.37-1.68,10.52-2.07,13c-0.13,0.79,0.29,2.37,2.1,1.85c3.79-1.1,8.08-1.33,14.39-2.06" id="kvg:05be2-s5" kvg:type="&#12752;" />
			<path d="M14.8,67.87c1.23,0.11,1.48,0.42,2.92,0.35c6.15-0.32,15.32-2.44,19.61-2.62" id="kvg:05be2-s6" kvg:type="&#12754;" />
			<path d="M23.81,69.02c0.02,0.65,0.45,1.67,0.45,2.61c0,7.99-2.76,17.37-8.96,24.46" id="kvg:05be2-s7" kvg:type="&#12753;" />
		</g>
		<g id="kvg:05be2-g5" kvg:position="right">
			<g id="kvg:05be2-g6" kvg:element="&#11925;" kvg:original="&#24401;" kvg:position="top" kvg:variant="true">
				<path d="M50.33,32.07c0.85,0.4,2.92,0.85,3.63,0.81c0.96-0.05,22.23-3.07,23.37-3.28c1.13-0.2,2.41,0.59,2.27,2.02c-0.64,6.8-1.98,15.73-2.41,18.97" id="kvg:05be2-s8" kvg:type="&#12757;" />
				<path d="M43.34,42.77c1.34,0.74,3.81,0.86,5.15,0.74c13.98-1.25,23.5-2.49,39.05-4.08c3.27-0.33,4.21-0.19,6.46,0.17" id="kvg:05be2-s9" kvg:type="&#12752;" />
				<path d="M50.77,52.46c0.8,0.44,2.27,0.51,3.08,0.44c7.57-0.67,15.06-1.15,22.67-2.08c0.78-0.09,2.24-0.57,3.46-0.28" id="kvg:05be2-s10" kvg:type="&#12752;c" />
			</g>
			<g id="kvg:05be2-g7" kvg:position="bottom">
				<g id="kvg:05be2-g8" kvg:element="&#20886;">
					<path d="M46.61,62.09c-0.11,2.79-1.73,8.58-2.66,10.24" id="kvg:05be2-s11" kvg:type="&#12756;" />
					<path d="M48.4,62.88c9.6-1.13,26.6-3.63,38.66-4.4c10.73-0.68,1.8,5.99,0.8,6.94" id="kvg:05be2-s12" kvg:type="&#12758;b" />
				</g>
				<g id="kvg:05be2-g9" kvg:element="&#21448;">
					<path d="M53.58,70.75c1.19,0.2,1.34,0.5,3.71,0.2c2.38-0.3,17.32-3.03,18.96-3.33c1.63-0.3,2.82,1.1,2.23,2.2c-6.98,13-19.3,24.03-32.66,28.93" id="kvg:05be2-s13" kvg:type="&#12743;" />
					<path d="M51.94,75.85c3.91,0.54,22.98,15.12,36.58,21.09c2.12,0.93,3.66,1.55,5.63,1.86" id="kvg:05be2-s14" kvg:type="&#12751;" />
				</g>
			</g>
		</g>
	</g>
</g>
</g>
<g id="kvg:StrokeNumbers_05be2" style="font-size:8;fill:#808080">
	<text transform="matrix(1 0 0 1 44.50 9.50)">1</text>
	<text transform="matrix(1 0 0 1 12.50 21.05)">2</text>
	<text transform="matrix(1 0 0 1 22.50 20.50)">3</text>
	<text transform="matrix(1 0 0 1 26.50 32.50)">4</text>
	<text transform="matrix(1 0 0 1 15.50 44.50)">5</text>
	<text transform="matrix(1 0 0 1 7.50 68.50)">6</text>
	<text transform="matrix(1 0 0 1 17.50 77.50)">7</text>
	<text transform="matrix(1 0 0 1 44.50 32.50)">8</text>
	<text transform="matrix(1 0 0 1 41.50 40.50)">9</text>
	<text transform="matrix(1 0 0 1 41.50 52.45)">10</text>
	<text transform="matrix(1 0 0 1 39.50 62.38)">11</text>
	<text transform="matrix(1 0 0 1 47.75 60.50)">12</text>
	<text transform="matrix(1 0 0 1 53.50 68.50)">13</text>
	<text transform="matrix(1 0 0 1 44.50 82.50)">14</text>
</g>
</svg>