<svg xmlns="http://www.w3.org/2000/svg" xmlns:kvg="http://kanjivg.tagaini.net" height="109" meaning="high, far" viewBox="0 0 109 109" width="109">
<g id="kvg:StrokePaths_05c2d" style="fill:none;stroke:#000000;stroke-width:3;stroke-linecap:round;stroke-linejoin:round;">
<g id="kvg:05c2d" kvg:element="&#23597;">
	<g id="kvg:05c2d-g1" kvg:element="&#21321;" kvg:position="top">
		<g id="kvg:05c2d-g2" kvg:element="&#21313;" kvg:position="top" kvg:radical="nelson">
			<path d="M26.38,25.82c2.64,0.78,5.56,0.44,8.24,0.1c10.26-1.3,28.12-3.15,39.64-3.63c2.8-0.12,5.61-0.2,8.38,0.29" id="kvg:05c2d-s1" kvg:type="&#12752;" />
			<path d="M52.62,10.88c1.06,1.06,1.44,2.74,1.44,4.65c0,0.89,0.03,21.59,0.03,28.35" id="kvg:05c2d-s2" kvg:type="&#12753;" />
		</g>
		<g id="kvg:05c2d-g3" kvg:element="&#24318;" kvg:position="bottom">
			<g id="kvg:05c2d-g4" kvg:element="&#21313;" kvg:part="1">
				<path d="M18,47.02c3.88,0.73,7.44,0.57,11.01,0.23c13.63-1.28,35.62-3.91,54.24-4.36c3.22-0.08,6.11-0.13,9.25,0.64" id="kvg:05c2d-s3" kvg:type="&#12752;" />
			</g>
			<g id="kvg:05c2d-g5" kvg:element="&#20031;">
				<path d="M34.75,35.25c1.06,1.06,1.5,2.12,1.6,3.53c0.68,9.51,1.4,18.97,1.9,25.72" id="kvg:05c2d-s4" kvg:type="&#12754;" />
			</g>
			<g id="kvg:05c2d-g6" kvg:element="&#21313;" kvg:part="2">
				<path d="M72.18,32c0.7,1.25,0.61,2.58,0.44,4.4C71.59,47.09,71.12,51.94,70,62" id="kvg:05c2d-s5" kvg:type="&#12753;" />
			</g>
		</g>
	</g>
	<g id="kvg:05c2d-g7" kvg:position="bottom">
		<g id="kvg:05c2d-g8" kvg:element="&#20800;">
			<g id="kvg:05c2d-g9" kvg:element="&#19968;">
				<path d="M25,65.52c2.38,0.61,5.96,0.48,8.75,0.11C46,64,62.12,62.5,76.38,61.94c2.84-0.11,5.59,0.15,8.38,0.83" id="kvg:05c2d-s6" kvg:type="&#12752;" />
			</g>
		</g>
		<g id="kvg:05c2d-g10" kvg:element="&#20799;" kvg:original="&#20843;" kvg:radical="tradit">
			<g id="kvg:05c2d-g11" kvg:element="&#20031;">
				<path d="M43.85,68.77c0.12,1.24-0.24,2.75-0.84,3.83c-3.39,6.15-11.14,17.52-24.1,24.32" id="kvg:05c2d-s7" kvg:type="&#12754;" />
			</g>
			<path d="M60.73,66.62c0.83,0.83,0.93,2.04,0.93,3.48c0,6.52,0.05,12.7,0.05,17.09c0,7.44,1.67,9.07,16.19,9.07c13.23,0,15.49-2.01,15.49-7.68" id="kvg:05c2d-s8" kvg:type="&#12767;" />
		</g>
	</g>
</g>
</g>
<g id="kvg:StrokeNumbers_05c2d" style="font-size:8;fill:#808080">
	<text transform="matrix(1 0 0 1 20.00 26.25)">1</text>
	<text transform="matrix(1 0 0 1 43.50 11.25)">2</text>
	<text transform="matrix(1 0 0 1 11.25 48.25)">3</text>
	<text transform="matrix(1 0 0 1 25.50 37.25)">4</text>
	<text transform="matrix(1 0 0 1 62.25 33.08)">5</text>
	<text transform="matrix(1 0 0 1 17.50 67.00)">6</text>
	<text transform="matrix(1 0 0 1 33.25 76.43)">7</text>
	<text transform="matrix(1 0 0 1 53.50 74.35)">8</text>
</g>
</svg>