<svg xmlns="http://www.w3.org/2000/svg" xmlns:kvg="http://kanjivg.tagaini.net" height="109" kun="&#12416;&#12367;&#12356;&#12396;" meaning="shaggy hair or dog" on="&#12508;&#12454;" viewBox="0 0 109 109" width="109">
<g id="kvg:StrokePaths_05c28" style="fill:none;stroke:#000000;stroke-width:3;stroke-linecap:round;stroke-linejoin:round;">
<g id="kvg:05c28" kvg:element="&#23592;">
	<g id="kvg:05c28-g1" kvg:element="&#23588;" kvg:part="1" kvg:position="kamae">
		<g id="kvg:05c28-g2" kvg:element="&#23586;" kvg:radical="tradit">
			<path d="M13.97,37.44c0.95,0.54,2.68,0.61,3.64,0.54c9.39-0.73,31.21-5.23,41.42-5.21c1.58,0,2.53,0.26,3.32,0.53" id="kvg:05c28-s1" kvg:type="&#12752;" />
			<g id="kvg:05c28-g3" kvg:element="&#20799;" kvg:original="&#20843;">
				<g id="kvg:05c28-g4" kvg:element="&#20031;">
					<path d="M37.19,13.5c0.08,2.1,0.15,1.98,0.18,4.88C37.5,32,31.65,82.39,10.92,96.17" id="kvg:05c28-s2" kvg:type="&#12754;" />
				</g>
				<path d="M41.76,43.62c1.06,1.66,1.41,2.62,1.47,5.19c0.28,11.44-0.26,23.56-0.26,31.34c0,17.61,5.77,16.62,25.33,16.61c22.44-0.01,27.08-2.26,27.08-13.25" id="kvg:05c28-s3" kvg:type="&#12767;" />
			</g>
		</g>
	</g>
	<g id="kvg:05c28-g5" kvg:element="&#24417;">
		<g id="kvg:05c28-g6" kvg:element="&#20031;">
			<path d="M83.13,13.5c0.06,0.7,0.32,1.93-0.12,2.8c-3.26,6.45-9.76,17.45-20.73,25.77" id="kvg:05c28-s4" kvg:type="&#12754;" />
		</g>
		<g id="kvg:05c28-g7" kvg:element="&#20031;">
			<path d="M88.87,32.42c0.08,0.68,0.27,1.85-0.14,2.71c-2.81,5.93-14.22,19.12-25.8,25.96" id="kvg:05c28-s5" kvg:type="&#12754;" />
		</g>
		<g id="kvg:05c28-g8" kvg:element="&#20031;">
			<path d="M94.39,51.53c0.09,0.79,0.2,2.04-0.18,3.17C91.97,61.38,79.1,76.03,61.48,85" id="kvg:05c28-s6" kvg:type="&#12754;" />
		</g>
	</g>
	<g id="kvg:05c28-g9" kvg:element="&#20022;" kvg:part="2" kvg:radical="nelson">
	  <path d="M47.45,15.5c3.41,1.59,8.81,6.53,9.66,9" id="kvg:05c28-s7" kvg:type="&#12756;" />
	</g>
</g>
</g>
<g id="kvg:StrokeNumbers_05c28" style="font-size:8;fill:#808080">
	<text transform="matrix(1 0 0 1 6.50 38.50)">1</text>
	<text transform="matrix(1 0 0 1 27.50 13.55)">2</text>
	<text transform="matrix(1 0 0 1 35.50 61.50)">3</text>
	<text transform="matrix(1 0 0 1 75.25 12.50)">4</text>
	<text transform="matrix(1 0 0 1 80.50 33.50)">5</text>
	<text transform="matrix(1 0 0 1 86.50 51.50)">6</text>
	<text transform="matrix(1 0 0 1 45.50 12.40)">7</text>
</g>
</svg>