<svg xmlns="http://www.w3.org/2000/svg" xmlns:kvg="http://kanjivg.tagaini.net" height="109" meaning="crooked-big radical (no. 43)" viewBox="0 0 109 109" width="109">
<g id="kvg:StrokePaths_05c22" style="fill:none;stroke:#000000;stroke-width:3;stroke-linecap:round;stroke-linejoin:round;">
<g id="kvg:05c22" kvg:element="&#23586;" kvg:radical="general">
	<path d="M20.75,37c1.37,0.49,3.88,0.63,5.25,0.49c9.75-0.98,43-5.73,57.71-5.71c2.28,0,3.65,0.23,4.79,0.48" id="kvg:05c22-s1" kvg:type="&#12752;" />
	<g id="kvg:05c22-g1" kvg:element="&#20799;" kvg:original="&#20843;">
		<g id="kvg:05c22-g2" kvg:element="&#20031;">
			<path d="M54.2,14.5c0.12,2.11,1.26,2.04,0.77,4.91C50.25,47,42,79.75,14.67,96.67" id="kvg:05c22-s2" kvg:type="&#12754;" />
		</g>
		<path d="M54.48,46.37c0.74,1.57,1.33,3.42,1.38,5.83c0.2,10.79-0.53,21.77-0.53,29.11c0,17.14,8.91,15.2,17.67,15.2c9.25,0,15.34-2.21,16.64-3.46c2.75-2.64,2-3.96,2.25-8.57" id="kvg:05c22-s3" kvg:type="&#12767;" />
	</g>
</g>
</g>
<g id="kvg:StrokeNumbers_05c22" style="font-size:8;fill:#808080">
	<text transform="matrix(1 0 0 1 14.50 37.50)">1</text>
	<text transform="matrix(1 0 0 1 44.25 13.50)">2</text>
	<text transform="matrix(1 0 0 1 59.50 50.48)">3</text>
</g>
</svg>