<svg xmlns="http://www.w3.org/2000/svg" xmlns:kvg="http://kanjivg.tagaini.net" height="109" kun="&#12362;&#12373;, &#12383;&#12384;.&#12377;" meaning="an official rank" on="&#12452;&#12531;" viewBox="0 0 109 109" width="109">
<g id="kvg:StrokePaths_05c39" style="fill:none;stroke:#000000;stroke-width:3;stroke-linecap:round;stroke-linejoin:round;">
<g id="kvg:05c39" kvg:element="&#23609;">
	<g id="kvg:05c39-g1" kvg:element="&#11925;" kvg:original="&#24401;" kvg:variant="true">
		<g id="kvg:05c39-g2" kvg:element="&#23608;" kvg:part="1" kvg:radical="tradit">
			<path d="M27.49,17.75c3.58,1.25,3.78,1.16,6.14,1C47.95,17.75,67,15,78.08,14.5c3.32-0.15,4.12,1.75,3.61,4.25c-1.34,6.54-2.55,22.75-4.34,34" id="kvg:05c39-s1" kvg:type="&#12757;" />
			<path d="M16.75,38.5c2.3,0.25,4.1,0.73,6.65,0.5c22.24-2,49.82-5,67.46-5.75c2.82-0.12,5.11,0.5,6.39,0.75" id="kvg:05c39-s2" kvg:type="&#12752;" />
		</g>
		<path d="M26.78,57.5c1.28,0.25,3.59,0.89,5.11,0.75C45.95,57,62.27,55,75.05,54.5c2.04-0.08,3.32,0,4.86,0.25" id="kvg:05c39-s3" kvg:type="&#12752;" />
	</g>
	<g id="kvg:05c39-g3" kvg:element="&#23608;" kvg:part="2" kvg:radical="tradit">
		<g id="kvg:05c39-g4" kvg:element="&#20031;" kvg:radical="nelson">
			<path d="M52.25,19.5c1,1.25,1.51,2.75,1.52,4C53.84,29.36,54.03,39.91,54,43c-0.25,23.5-9.75,44.25-30.25,53.75" id="kvg:05c39-s4" kvg:type="&#12754;" />
		</g>
	</g>
</g>
</g>
<g id="kvg:StrokeNumbers_05c39" style="font-size:8;fill:#808080">
	<text transform="matrix(1 0 0 1 20.25 18.50)">1</text>
	<text transform="matrix(1 0 0 1 8.50 38.50)">2</text>
	<text transform="matrix(1 0 0 1 19.50 58.50)">3</text>
	<text transform="matrix(1 0 0 1 46.50 27.50)">4</text>
</g>
</svg>