<svg xmlns="http://www.w3.org/2000/svg" xmlns:kvg="http://kanjivg.tagaini.net" height="109" kun="&#12362;&#12362;.&#12358;, &#12375;&#12426;&#12382;.&#12367;, &#12403;&#12423;&#12358;.&#12406;" meaning="wall, fence" on="&#12504;&#12452;, &#12499;&#12519;&#12454;" viewBox="0 0 109 109" width="109">
<g id="kvg:StrokePaths_05c4f" style="fill:none;stroke:#000000;stroke-width:3;stroke-linecap:round;stroke-linejoin:round;">
<g id="kvg:05c4f" kvg:element="&#23631;">
	<g id="kvg:05c4f-g1" kvg:element="&#23608;" kvg:position="tare" kvg:radical="general">
		<path d="M26.18,15.15c1.91,0.73,4.13,0.88,6.16,0.73C43.3,15.07,73,12.75,77.37,12.15c2.88-0.4,3.63,1.1,3.13,3.97c-0.63,3.61-2,6.13-2.87,10.44" id="kvg:05c4f-s1" kvg:type="&#12757;c" />
		<path d="M30.4,30.17c5.5-0.24,44.17-3.13,49.91-3.37" id="kvg:05c4f-s2" kvg:type="&#12752;b" />
		<path d="M30.58,16.83c0,3.82-0.27,14.92-0.69,18.47C27.5,55.5,25.75,71.5,14,86" id="kvg:05c4f-s3" kvg:type="&#12754;" />
	</g>
	<g id="kvg:05c4f-g2" kvg:element="&#24182;">
		<g id="kvg:05c4f-g3" kvg:position="top">
			<path d="M43.71,34.22c2.37,1.61,6.13,6.62,6.73,9.13" id="kvg:05c4f-s4" kvg:type="&#12756;" />
			<path d="M71.05,31.39c0.02,0.3,0.04,0.77-0.03,1.19c-0.42,2.51-2.8,8.02-6.06,11.4" id="kvg:05c4f-s5" kvg:type="&#12754;" />
		</g>
		<g id="kvg:05c4f-g4" kvg:position="bottom">
			<g id="kvg:05c4f-g5" kvg:element="&#24178;" kvg:part="1">
				<path d="M36.2,47.68c1.08,0.43,3.06,0.52,4.14,0.43c7.98-0.67,31.34-4.37,41.61-4.37c1.8,0,2.88,0.2,3.78,0.42" id="kvg:05c4f-s6" kvg:type="&#12752;" />
				<g id="kvg:05c4f-g6" kvg:element="&#21313;" kvg:part="1">
					<path d="M31.25,67.16c1.4,0.49,3.97,0.6,5.37,0.49c15.17-1.13,35.99-3.61,52.47-4.19c2.33-0.08,3.74,0.23,4.91,0.48" id="kvg:05c4f-s7" kvg:type="&#12752;" />
				</g>
			</g>
			<path d="M50.4,50.34c0.57,1.28,1.38,2.28,1.38,3.88c0,14.59,0.72,32.04-18.19,43.12" id="kvg:05c4f-s8" kvg:type="&#12754;" />
			<g id="kvg:05c4f-g7" kvg:element="&#24178;" kvg:part="2">
				<g id="kvg:05c4f-g8" kvg:element="&#21313;" kvg:part="2">
					<path d="M70.38,47.43c0.74,0.4,1.18,1.79,1.33,2.58c0.15,0.8,0,45.55-0.15,50.52" id="kvg:05c4f-s9" kvg:type="&#12753;" />
				</g>
			</g>
		</g>
	</g>
</g>
</g>
<g id="kvg:StrokeNumbers_05c4f" style="font-size:8;fill:#808080">
	<text transform="matrix(1 0 0 1 29.85 12.50)">1</text>
	<text transform="matrix(1 0 0 1 35.66 26.50)">2</text>
	<text transform="matrix(1 0 0 1 22.50 23.50)">3</text>
	<text transform="matrix(1 0 0 1 37.50 37.50)">4</text>
	<text transform="matrix(1 0 0 1 62.50 36.50)">5</text>
	<text transform="matrix(1 0 0 1 34.25 44.50)">6</text>
	<text transform="matrix(1 0 0 1 30.50 64.50)">7</text>
	<text transform="matrix(1 0 0 1 43.25 56.10)">8</text>
	<text transform="matrix(1 0 0 1 63.50 53.50)">9</text>
</g>
</svg>