<svg xmlns="http://www.w3.org/2000/svg" xmlns:kvg="http://kanjivg.tagaini.net" height="109" meaning="shrine in the mountains, (kokuji)" viewBox="0 0 109 109" width="109">
<g id="kvg:StrokePaths_05cc5" style="fill:none;stroke:#000000;stroke-width:3;stroke-linecap:round;stroke-linejoin:round;">
<g id="kvg:05cc5" kvg:element="&#23749;">
	<g id="kvg:05cc5-g1" kvg:element="&#23665;" kvg:position="left" kvg:radical="general">
		<path d="M23.7,16.25c0.61,0.36,2.01,2.69,2.01,3.42c0,7.55,0.25,42.97,0.25,52.65" id="kvg:05cc5-s1" kvg:type="&#12753;a" />
		<path d="M10.79,42.51c0.67,0.4,1.39,2.07,1.33,2.88c-0.37,5.52,0.13,20.56-1.2,28.86c-0.29,1.8,0.19,2.22,1.82,1.81C22,73.75,26.75,72.75,38,70.45" id="kvg:05cc5-s2" kvg:type="&#12740;a" />
		<path d="M38.72,38.66c0.67,0.4,1.33,2.96,1.33,3.76c0,6.21-0.8,22.07-1.92,32.81" id="kvg:05cc5-s3" kvg:type="&#12753;" />
	</g>
	<g id="kvg:05cc5-g2" kvg:element="&#24321;" kvg:position="right">
		<g id="kvg:05cc5-g3" kvg:element="&#21430;" kvg:position="top">
			<path d="M66.94,11.75c0.44,0.63,0.45,2.29-0.01,3.01C62,22.5,57.25,28.75,49.85,35.97c-2.11,2.06-1.9,3.26,0.88,2.76c5.82-1.05,30.02-5.98,40.12-8.14" id="kvg:05cc5-s4" kvg:type="&#12764;" />
			<path d="M79.5,19.48c5.73,3.44,14.81,14.14,16.25,19.49" id="kvg:05cc5-s5" kvg:type="&#12756;" />
		</g>
		<g id="kvg:05cc5-g4" kvg:element="&#24318;" kvg:position="bottom">
			<g id="kvg:05cc5-g5" kvg:element="&#21313;" kvg:part="1">
				<path d="M44.38,59.98c1.13,0.54,3.19,0.63,4.32,0.54c11.72-0.91,33.11-3.77,47.99-4.23c1.88-0.06,3,0.26,3.94,0.53" id="kvg:05cc5-s6" kvg:type="&#12752;" />
			</g>
			<g id="kvg:05cc5-g6" kvg:element="&#20031;">
				<path d="M59.73,43.5c0.9,1.76,1.42,2.56,1.47,4.4c0.43,16.7-1.33,40.49-15.67,49.6" id="kvg:05cc5-s7" kvg:type="&#12754;" />
			</g>
			<g id="kvg:05cc5-g7" kvg:element="&#21313;" kvg:part="2">
				<path d="M80.88,38.25c0.87,0.54,1.39,2.42,1.56,3.49c0.17,1.07,0,51.29-0.17,58.01" id="kvg:05cc5-s8" kvg:type="&#12753;" />
			</g>
		</g>
	</g>
</g>
</g>
<g id="kvg:StrokeNumbers_05cc5" style="font-size:8;fill:#808080">
	<text transform="matrix(1 0 0 1 14.50 15.50)">1</text>
	<text transform="matrix(1 0 0 1 2.50 41.50)">2</text>
	<text transform="matrix(1 0 0 1 31.50 37.50)">3</text>
	<text transform="matrix(1 0 0 1 59.50 11.50)">4</text>
	<text transform="matrix(1 0 0 1 77.50 16.50)">5</text>
	<text transform="matrix(1 0 0 1 43.50 57.50)">6</text>
	<text transform="matrix(1 0 0 1 51.50 48.18)">7</text>
	<text transform="matrix(1 0 0 1 73.25 44.10)">8</text>
</g>
</svg>