<svg xmlns="http://www.w3.org/2000/svg" xmlns:kvg="http://kanjivg.tagaini.net" height="109" kun="&#12381;&#12400;&#12384;.&#12388;" meaning="tower, soar" on="&#12472;" viewBox="0 0 109 109" width="109">
<g id="kvg:StrokePaths_05cd9" style="fill:none;stroke:#000000;stroke-width:3;stroke-linecap:round;stroke-linejoin:round;">
<g id="kvg:05cd9" kvg:element="&#23769;">
	<g id="kvg:05cd9-g1" kvg:element="&#23665;" kvg:position="left" kvg:radical="general">
		<path d="M23.84,21.75c0.58,0.34,1.91,2.55,1.91,3.25c0,7.17,0.24,33.3,0.24,42.5" id="kvg:05cd9-s1" kvg:type="&#12753;a" />
		<path d="M12.48,42.14c0.63,0.38,1.32,1.97,1.27,2.73c-0.36,5.24,0.12,16.1-1.14,23.98c-0.27,1.71,0.18,2.11,1.73,1.72c8.79-2.19,11.87-3.14,22.56-5.33" id="kvg:05cd9-s2" kvg:type="&#12740;a" />
		<path d="M37.1,39.43c0.64,0.38,1.27,2.81,1.27,3.57c0,5.89-0.87,16.29-0.87,25.83" id="kvg:05cd9-s3" kvg:type="&#12753;" />
	</g>
	<g id="kvg:05cd9-g2" kvg:element="&#23546;" kvg:position="right">
		<g id="kvg:05cd9-g3" kvg:element="&#22303;" kvg:position="top">
			<path d="M50.19,26.78c0.71,0.31,2,0.38,2.71,0.31c8.45-0.84,22.45-3.34,32.1-3.56c1.18-0.03,1.89,0.15,2.47,0.3" id="kvg:05cd9-s4" kvg:type="&#12752;" />
			<path d="M65.15,12.12c1.35,0.88,1.89,1.65,1.89,4.26c0,6.37-0.38,20.12-0.38,25.34" id="kvg:05cd9-s5" kvg:type="&#12753;a" />
			<path d="M45.63,43.4c0.98,0.39,2.77,0.47,3.75,0.39c8.66-0.7,31.4-3.35,44.57-3.75c1.63-0.05,2.61,0.19,3.43,0.38" id="kvg:05cd9-s6" kvg:type="&#12752;" />
		</g>
		<g id="kvg:05cd9-g4" kvg:element="&#23544;" kvg:position="bottom">
			<path d="M42,59.99c1.06,0.46,3.01,0.54,4.08,0.46c12.03-0.95,35.02-3.95,48.35-3.89c1.77,0.01,2.84,0.22,3.73,0.44" id="kvg:05cd9-s7" kvg:type="&#12752;" />
			<path d="M79.91,45.95c0.54,0.83,1.45,2.58,1.51,5.72c0.28,15.08,0.01,32.27,0.01,37.4c0,12.32-5.61,4.47-7.16,2.89" id="kvg:05cd9-s8" kvg:type="&#12762;" />
			<path d="M56.5,66.75c2.77,2.17,6.32,7.87,7.02,11.25" id="kvg:05cd9-s9" kvg:type="&#12756;" />
		</g>
	</g>
</g>
</g>
<g id="kvg:StrokeNumbers_05cd9" style="font-size:8;fill:#808080">
	<text transform="matrix(1 0 0 1 16.50 21.50)">1</text>
	<text transform="matrix(1 0 0 1 3.50 41.50)">2</text>
	<text transform="matrix(1 0 0 1 29.50 39.50)">3</text>
	<text transform="matrix(1 0 0 1 47.50 23.50)">4</text>
	<text transform="matrix(1 0 0 1 56.50 11.50)">5</text>
	<text transform="matrix(1 0 0 1 43.50 40.50)">6</text>
	<text transform="matrix(1 0 0 1 42.50 56.50)">7</text>
	<text transform="matrix(1 0 0 1 71.50 50.10)">8</text>
	<text transform="matrix(1 0 0 1 49.50 71.50)">9</text>
</g>
</svg>