<svg xmlns="http://www.w3.org/2000/svg" xmlns:kvg="http://kanjivg.tagaini.net" height="109" kun="&#12373;&#12365;, &#12373;&#12356;, &#12415;&#12373;&#12365;" meaning="promontory, cape, spit" on="&#12461;" viewBox="0 0 109 109" width="109">
<g id="kvg:StrokePaths_05d0e" style="fill:none;stroke:#000000;stroke-width:3;stroke-linecap:round;stroke-linejoin:round;">
<g id="kvg:05d0e" kvg:element="&#23822;">
	<g id="kvg:05d0e-g1" kvg:element="&#23665;" kvg:position="left" kvg:radical="general">
		<path d="M26.62,21.61c0.95,0.95,1.24,2.52,1.24,3.92c0,0.71-0.11,31.83-0.11,37.72" id="kvg:05d0e-s1" kvg:type="&#12753;a" />
		<path d="M13.78,45.74c0.81,0.81,0.97,2.01,0.95,3.21c-0.12,5.01-0.47,11.3-0.77,16.53c-0.09,1.64,0.83,2.49,2.29,2.02c4.11-1.31,15.5-4.66,23.25-6.62" id="kvg:05d0e-s2" kvg:type="&#12740;a" />
		<path d="M40.96,34.82c0.98,0.98,1.03,2.43,0.95,4.01C41.5,46.38,41.54,51.1,41.03,59c-0.15,2.32-0.33,5.3-0.55,7.3" id="kvg:05d0e-s3" kvg:type="&#12753;" />
	</g>
	<g id="kvg:05d0e-g2" kvg:element="&#22855;" kvg:phon="&#22855;" kvg:position="right">
		<g id="kvg:05d0e-g3" kvg:element="&#22823;" kvg:position="top" kvg:variant="true">
			<path d="M51.19,23.36c1.47,0.45,4.18,0.22,5.69,0.09c7.82-0.69,20.05-2,27.89-2.89c2.1-0.24,3.98-0.19,6.06,0.1" id="kvg:05d0e-s4" kvg:type="&#12752;" />
			<path d="M69.45,9.81c0.3,0.46,0.47,0.99,0.44,1.98C69.58,25.43,60.25,39,50.81,43.29" id="kvg:05d0e-s5" kvg:type="&#12754;" />
			<path d="M70.12,26.75c5.96,3.07,12.86,8.03,16.5,12.62" id="kvg:05d0e-s6" kvg:type="&#12756;/&#12751;" />
		</g>
		<g id="kvg:05d0e-g4" kvg:element="&#21487;" kvg:position="bottom">
			<g id="kvg:05d0e-g5" kvg:element="&#19969;" kvg:part="1">
				<g id="kvg:05d0e-g6" kvg:element="&#19968;">
					<path d="M47.63,48.76c3.12,0.49,5.18,0.36,7.5,0.09c8.47-0.97,26.32-2.88,36.01-3.88c2.72-0.28,5.34-0.76,7.99,0.08" id="kvg:05d0e-s7" kvg:type="&#12752;" />
				</g>
			</g>
			<g id="kvg:05d0e-g7" kvg:element="&#21475;">
				<path d="M51.16,61.18c0.8,0.7,1.21,1.6,1.25,2.69c0.64,3.03,1.19,8.1,1.69,12.09c0.17,1.39,0.34,2.73,0.51,3.93" id="kvg:05d0e-s8" kvg:type="&#12753;" />
				<path d="M53.14,62.69c5.89-1.09,10.99-2.31,15.86-2.87c2.86-0.32,4.58-0.37,3.85,2.95c-0.73,3.32-1.57,6.92-2.59,11.13" id="kvg:05d0e-s9" kvg:type="&#12757;b" />
				<path d="M55.26,76.76c3.49-0.36,8.37-1.18,13.24-1.75c1.21-0.14,2.41-0.28,3.6-0.42" id="kvg:05d0e-s10" kvg:type="&#12752;b" />
			</g>
			<g id="kvg:05d0e-g8" kvg:element="&#19969;" kvg:part="2">
				<g id="kvg:05d0e-g9" kvg:element="&#20101;">
					<path d="M83.63,48.45c1.21,1.21,1.86,2.68,1.86,4.84c0,16.73-0.11,34.89-0.11,40.58c0,9.77-5.66,1.66-6.82,0.23" id="kvg:05d0e-s11" kvg:type="&#12762;" />
				</g>
			</g>
		</g>
	</g>
</g>
</g>
<g id="kvg:StrokeNumbers_05d0e" style="font-size:8;fill:#808080">
	<text transform="matrix(1 0 0 1 16.50 21.13)">1</text>
	<text transform="matrix(1 0 0 1 4.50 44.50)">2</text>
	<text transform="matrix(1 0 0 1 32.50 35.50)">3</text>
	<text transform="matrix(1 0 0 1 45.75 20.50)">4</text>
	<text transform="matrix(1 0 0 1 60.50 10.50)">5</text>
	<text transform="matrix(1 0 0 1 81.75 30.50)">6</text>
	<text transform="matrix(1 0 0 1 60.75 45.50)">7</text>
	<text transform="matrix(1 0 0 1 45.75 68.50)">8</text>
	<text transform="matrix(1 0 0 1 54.50 58.63)">9</text>
	<text transform="matrix(1 0 0 1 56.50 72.50)">10</text>
	<text transform="matrix(1 0 0 1 75.50 56.50)">11</text>
</g>
</svg>