<svg xmlns="http://www.w3.org/2000/svg" xmlns:kvg="http://kanjivg.tagaini.net" height="109" kun="&#12383;&#12363;.&#12356;" meaning="high" on="&#12462;" viewBox="0 0 109 109" width="109">
<g id="kvg:StrokePaths_05dcd" style="fill:none;stroke:#000000;stroke-width:3;stroke-linecap:round;stroke-linejoin:round;">
<g id="kvg:05dcd" kvg:element="&#24013;">
	<g id="kvg:05dcd-g1" kvg:element="&#23665;" kvg:position="top" kvg:radical="general">
		<path d="M52.51,10.38c0.56,0.33,1.75,2.48,1.86,3.15c0.11,0.66-0.07,8.08-0.18,12.23" id="kvg:05dcd-s1" kvg:type="&#12753;a" />
		<path d="M23.43,17.25c0.56,0.33,1.12,1.73,1.12,2.41c0,2.59-0.3,3.84-1.59,7.76c-0.48,1.45,0.83,2.59,2.11,2.28C38,26.5,78.9,23.78,83.92,23.65" id="kvg:05dcd-s2" kvg:type="&#12740;a" />
		<path d="M85.52,14.12c0.56,0.33,1.21,2.48,1.12,3.15C86.09,21.34,86,23,85.11,26.96" id="kvg:05dcd-s3" kvg:type="&#12753;" />
	</g>
	<g id="kvg:05dcd-g2" kvg:element="&#39759;" kvg:position="bottom">
		<g id="kvg:05dcd-g3" kvg:element="&#22996;" kvg:position="left">
			<g id="kvg:05dcd-g4" kvg:element="&#31166;" kvg:position="top">
				<g id="kvg:05dcd-g5" kvg:element="&#20031;" kvg:position="top">
					<path d="M42.21,34.16c0.07,0.23,0.14,0.6-0.13,0.93c-1.64,1.96-11.02,6.26-23.86,8.9" id="kvg:05dcd-s4" kvg:type="&#12754;" />
				</g>
				<g id="kvg:05dcd-g6" kvg:element="&#26408;" kvg:position="bottom">
					<path d="M13.55,50.58c0.47,0.1,1.72,0.33,2.96,0.29c4.99-0.14,18.21-2.85,27.88-3.07c1.24-0.03,1.56-0.1,2.34,0" id="kvg:05dcd-s5" kvg:type="&#12752;" />
					<path d="M33.1,42.34c0.55,0.24,0.87,1.09,0.98,1.57c0.11,0.48,0,17.13-0.11,20.16" id="kvg:05dcd-s6" kvg:type="&#12753;" />
					<path d="M33.27,49.38c-3.96,5.64-11.25,12.17-18.91,14.98" id="kvg:05dcd-s7" kvg:type="&#12754;" />
					<path d="M35.32,52.12c4.76,1.69,9.34,4.8,11.51,7.88" id="kvg:05dcd-s8" kvg:type="&#12751;" />
				</g>
			</g>
			<g id="kvg:05dcd-g7" kvg:element="&#22899;" kvg:position="bottom" kvg:variant="true">
				<path d="M30.63,66.66c0.22,0.71,0.13,1.62-0.11,2.48c-1.33,4.74-3.55,11.14-7.38,15.31c-0.87,0.95-0.57,1.76,0.56,1.8c6.59,0.22,15.94,1.48,20.43,6.67" id="kvg:05dcd-s9" kvg:type="&#12763;" />
				<path d="M42.58,70c0.07,0.69,0.14,2.38-0.14,3.38c-2.39,8.54-8.91,20.65-24.1,25.68" id="kvg:05dcd-s10" kvg:type="&#12754;" />
				<path d="M14.35,75.81c0.58,0.51,2.34,1.7,3.77,1.44c7.86-1.43,20.14-4.75,31.49-7.2" id="kvg:05dcd-s11" kvg:type="&#12736;/&#12752;" />
			</g>
		</g>
		<g id="kvg:05dcd-g8" kvg:element="&#39740;" kvg:position="right">
			<g id="kvg:05dcd-g9" kvg:element="&#20031;">
				<path d="M66.53,30.75c0.02,0.26,0.07,0.74-0.04,1.03c-1.33,3.62-3.3,6.95-6.77,9.87" id="kvg:05dcd-s12" kvg:type="&#12754;" />
			</g>
			<g id="kvg:05dcd-g10" kvg:element="&#30000;">
				<path d="M52.37,41.77c0.25,0.41,0.25,0.68,0.38,1.18c1.1,4.12,2.44,13.25,3.09,20.83" id="kvg:05dcd-s13" kvg:type="&#12753;" />
				<path d="M53.52,42.88c9.73-1.38,24.67-2.72,31.15-3.12c2.38-0.15,3.36,1.18,3.1,2.89c-0.6,4.02-1.81,11.76-3.91,18.96" id="kvg:05dcd-s14" kvg:type="&#12757;a" />
				<path d="M 70.189219,41.195156 c 0.06078,8.716324 0.03518,10.561104 0.176042,18.780833" id="kvg:05dcd-s15" kvg:type="&#12753;a" />
				<path d="M55.07,51.43c2.83-0.2,27.17-2.09,31.12-2.5" id="kvg:05dcd-s16" kvg:type="&#12752;a" />
				<path d="M56.29,61.33c8.98-0.65,16.52-1.34,27.34-1.87" id="kvg:05dcd-s17" kvg:type="&#12752;a" />
			</g>
			<g id="kvg:05dcd-g11" kvg:element="&#20799;" kvg:original="&#20843;" kvg:variant="true">
				<g id="kvg:05dcd-g12" kvg:element="&#20031;" kvg:position="left">
					<path d="M62.11,67.08c0.18,0.64,0.43,1.88,0.26,2.93c-1.34,8.23-5.51,20.75-16.46,28" id="kvg:05dcd-s18" kvg:type="&#12754;" />
				</g>
				<g id="kvg:05dcd-g13" kvg:position="right">
					<path d="M69.43,63c0.75,0.99,1.35,2.15,1.39,3.67c0.2,6.79,0.04,12.87-0.33,22.07c-0.38,9.21,4.2,8.96,13.89,8.96c9.74,0,14.31-1,14.31-7" id="kvg:05dcd-s19" kvg:type="&#12767;" />
				</g>
			</g>
			<g id="kvg:05dcd-g14" kvg:element="&#21430;">
				<path d="M84.6,68.58c0.21,0.32,0.13,1.78-0.07,2.17c-1.82,3.58-3.69,9.75-6.58,13.4c-0.92,1.15,0.07,2.31,1.37,1.92c3.53-1.07,5.95-2.13,11.33-3.89" id="kvg:05dcd-s20" kvg:type="&#12764;" />
				<path d="M87.94,77.72c1.56,1.38,5,6.83,5.38,8.97" id="kvg:05dcd-s21" kvg:type="&#12756;" />
			</g>
		</g>
	</g>
</g>
</g>
<g id="kvg:StrokeNumbers_05dcd" style="font-size:8;fill:#808080">
	<text transform="matrix(1 0 0 1 44.50 10.50)">1</text>
	<text transform="matrix(1 0 0 1 15.50 16.50)">2</text>
	<text transform="matrix(1 0 0 1 77.50 13.50)">3</text>
	<text transform="matrix(1 0 0 1 32.50 36.40)">4</text>
	<text transform="matrix(1 0 0 1 6.50 51.50)">5</text>
	<text transform="matrix(1 0 0 1 27.50 47.50)">6</text>
	<text transform="matrix(1 0 0 1 20.50 58.50)">7</text>
	<text transform="matrix(1 0 0 1 43.50 54.50)">8</text>
	<text transform="matrix(1 0 0 1 22.50 68.50)">9</text>
	<text transform="matrix(1 0 0 1 37.50 66.95)">10</text>
	<text transform="matrix(1 0 0 1 5.25 78.50)">11</text>
	<text transform="matrix(1 0 0 1 56.50 33.50)">12</text>
	<text transform="matrix(1 0 0 1 43.50 44.50)">13</text>
	<text transform="matrix(1 0 0 1 51.50 39.65)">14</text>
	<text transform="matrix(1 0 0 1 74.25 48.58)">15</text>
	<text transform="matrix(1 0 0 1 57.50 49.50)">16</text>
	<text transform="matrix(1 0 0 1 58.50 58.50)">17</text>
	<text transform="matrix(1 0 0 1 51.50 72.50)">18</text>
	<text transform="matrix(1 0 0 1 61.50 83.50)">19</text>
	<text transform="matrix(1 0 0 1 75.25 68.50)">20</text>
	<text transform="matrix(1 0 0 1 88.50 75.50)">21</text>
</g>
</svg>