<svg xmlns="http://www.w3.org/2000/svg" xmlns:kvg="http://kanjivg.tagaini.net" height="109" kun="&#12362;&#12362;.&#12356;, &#12385;&#12365;&#12426;, &#12365;&#12428;" meaning="towel, hanging scroll, width, cloth radical (no. 50)" on="&#12461;&#12531;, &#12501;&#12463;" viewBox="0 0 109 109" width="109">
<g id="kvg:StrokePaths_05dfe" style="fill:none;stroke:#000000;stroke-width:3;stroke-linecap:round;stroke-linejoin:round;">
<g id="kvg:05dfe" kvg:element="&#24062;" kvg:radical="general">
	<path d="M25.06,33.88c0.9,0.9,1.26,2.74,1.26,4c0,0.91,0,33.24,0,40.5" id="kvg:05dfe-s1" kvg:type="&#12753;" />
	<path d="M27.25,36.97c4.75-0.31,51.04-5.04,54.59-5.24c4.16-0.23,5.26,1.76,4.91,5.74c-1,11.53-2.75,24.78-5.5,35.28c-1.89,7.21-6.25,1.5-8.25-1" id="kvg:05dfe-s2" kvg:type="&#12742;a" />
	<path d="M52.56,11.13c1.22,1.22,1.51,2.99,1.51,4.5c0,0.69,0,45.03,0,68.87c0,7.45,0,12.89,0,14.38" id="kvg:05dfe-s3" kvg:type="&#12753;" />
</g>
</g>
<g id="kvg:StrokeNumbers_05dfe" style="font-size:8;fill:#808080">
	<text transform="matrix(1 0 0 1 17.50 42.13)">1</text>
	<text transform="matrix(1 0 0 1 31.50 32.50)">2</text>
	<text transform="matrix(1 0 0 1 42.50 11.50)">3</text>
</g>
</svg>