<svg xmlns="http://www.w3.org/2000/svg" xmlns:kvg="http://kanjivg.tagaini.net" height="109" meaning="stop, halt, previously, already, long ago" viewBox="0 0 109 109" width="109">
<g id="kvg:StrokePaths_05df2" style="fill:none;stroke:#000000;stroke-width:3;stroke-linecap:round;stroke-linejoin:round;">
<g id="kvg:05df2" kvg:element="&#24050;">
	<g id="kvg:05df2-g1" kvg:element="&#24049;" kvg:radical="general" kvg:variant="true">
		<path d="M25.75,19.89c2.38,1.39,4.42,1.39,7.92,0.93c7.1-0.93,38.05-4.15,40.22-4.33c2.86-0.23,5.11,1.52,4.09,5.1c-0.3,1.07-2.73,12.42-4.73,22.67" id="kvg:05df2-s1" kvg:type="&#12757;" />
		<path d="M30.25,48.75c5.25-0.5,30-2.5,45.5-4.5" id="kvg:05df2-s2" kvg:type="&#12752;" />
		<path d="M28.74,34.87c1.16,1.69,1.67,3.68,1.65,6.28c-0.04,7.6-0.28,23.71-0.28,30.6C30.11,93.25,33.1,92,61.94,92C93.06,92,91,85.5,91,76.75" id="kvg:05df2-s3" kvg:type="&#12767;" />
	</g>
</g>
</g>
<g id="kvg:StrokeNumbers_05df2" style="font-size:8;fill:#808080">
	<text transform="matrix(1 0 0 1 25.50 16.50)">1</text>
	<text transform="matrix(1 0 0 1 35.50 44.50)">2</text>
	<text transform="matrix(1 0 0 1 19.50 36.50)">3</text>
</g>
</svg>