<svg xmlns="http://www.w3.org/2000/svg" xmlns:kvg="http://kanjivg.tagaini.net" height="109" kun="&#12415;&#12379;, &#12383;&#12394;" meaning="store, shop" on="&#12486;&#12531;" viewBox="0 0 109 109" width="109">
<g id="kvg:StrokePaths_05e97" style="fill:none;stroke:#000000;stroke-width:3;stroke-linecap:round;stroke-linejoin:round;">
<g id="kvg:05e97" kvg:element="&#24215;">
	<g id="kvg:05e97-g1" kvg:element="&#24191;" kvg:position="tare" kvg:radical="general">
		<path d="M56.81,11.13c1.28,1.28,2.01,2.74,2.01,4.15c0,0.79,0.08,4.65-0.07,9.46" id="kvg:05e97-s1" kvg:type="&#12753;a" />
		<g id="kvg:05e97-g2" kvg:element="&#21378;">
			<path d="M25.63,27.23c2.62,0.77,4.72,0.67,6.39,0.54C48,26.5,63.11,24.75,84.3,23.04c2.76-0.22,4.44,0.26,5.83,0.53" id="kvg:05e97-s2" kvg:type="&#12752;" />
			<path d="M28.99,28.5c0.88,0.88,1.18,2,1.16,3.38C29.88,54.88,27.25,78.75,14.5,91" id="kvg:05e97-s3" kvg:type="&#12754;" />
		</g>
	</g>
	<g id="kvg:05e97-g3" kvg:element="&#21344;" kvg:phon="&#21344;">
		<g id="kvg:05e97-g4" kvg:element="&#21340;" kvg:original="&#12488;" kvg:position="top" kvg:variant="true">
			<path d="M57.87,32.88c0.93,0.93,1.62,2.62,1.62,4.09c0,3.03-0.21,27.9-0.21,32.77" id="kvg:05e97-s4" kvg:type="&#12753;a" />
			<path d="M60.28,50.84c8.22-0.96,16.22-1.96,22.11-2.82c1.04-0.15,2.96,0,3.8,0.21" id="kvg:05e97-s5" kvg:type="&#12752;b" />
		</g>
		<g id="kvg:05e97-g5" kvg:element="&#21475;" kvg:position="bottom">
			<path d="M39.49,71.71c1,0.98,1.37,1.56,1.64,3c1.24,6.54,2.21,13.16,3.22,20.24c0.17,1.21,0.33,2.37,0.48,3.45" id="kvg:05e97-s6" kvg:type="&#12753;" />
			<path d="M41.78,73.18c12.31-1.73,32.97-3.68,39.91-4.33c3.3-0.31,4.47,2.39,4.16,3.79c-1.04,4.67-3.04,13.25-4.41,18.9" id="kvg:05e97-s7" kvg:type="&#12757;b" />
			<path d="M45.8,95.62C51.66,95,67.7,93.74,78,92.83c1.96-0.17,3.7-0.32,5.11-0.44" id="kvg:05e97-s8" kvg:type="&#12752;b" />
		</g>
	</g>
</g>
</g>
<g id="kvg:StrokeNumbers_05e97" style="font-size:8;fill:#808080">
	<text transform="matrix(1 0 0 1 48.50 12.13)">1</text>
	<text transform="matrix(1 0 0 1 28.50 24.50)">2</text>
	<text transform="matrix(1 0 0 1 22.50 37.50)">3</text>
	<text transform="matrix(1 0 0 1 48.50 37.63)">4</text>
	<text transform="matrix(1 0 0 1 63.50 46.63)">5</text>
	<text transform="matrix(1 0 0 1 33.50 79.50)">6</text>
	<text transform="matrix(1 0 0 1 42.50 69.13)">7</text>
	<text transform="matrix(1 0 0 1 48.50 92.50)">8</text>
</g>
</svg>