<svg xmlns="http://www.w3.org/2000/svg" xmlns:kvg="http://kanjivg.tagaini.net" height="109" kun="&#12414;&#12394;&#12403;&#12420;" meaning="school" on="&#12471;&#12519;&#12454;" viewBox="0 0 109 109" width="109">
<g id="kvg:StrokePaths_05ea0" style="fill:none;stroke:#000000;stroke-width:3;stroke-linecap:round;stroke-linejoin:round;">
<g id="kvg:05ea0" kvg:element="&#24224;">
	<g id="kvg:05ea0-g1" kvg:element="&#24191;" kvg:position="tare" kvg:radical="general">
		<path d="M51.81,9.63c0.76,0.38,2.36,2.88,2.51,3.65c0.15,0.77,0.08,4.65-0.07,9.46" id="kvg:05ea0-s1" kvg:type="&#12753;a" />
		<g id="kvg:05ea0-g2" kvg:element="&#21378;">
			<path d="M21.13,25.05c1.6,0.47,4.54,0.55,6.14,0.47c16.67-0.79,39.35-4.37,55.5-4.99c2.67-0.1,4.27,0.23,5.61,0.46" id="kvg:05ea0-s2" kvg:type="&#12752;" />
			<path d="M26,26c0.04,1.57,0.05,4.05-0.09,6.31C25,47,24,78,11.31,92.22" id="kvg:05ea0-s3" kvg:type="&#12754;" />
		</g>
	</g>
	<g id="kvg:05ea0-g3" kvg:element="&#32650;">
		<path d="M42.05,29.1c2.28,1.65,5.88,6.77,6.45,9.33" id="kvg:05ea0-s4" kvg:type="&#12756;" />
		<path d="M71.62,24.64c0.02,0.36,0.05,0.93-0.05,1.44c-0.56,3.04-3.76,9.71-8.14,13.8" id="kvg:05ea0-s5" kvg:type="&#12754;" />
		<path d="M34.92,44.64c0.84,0.42,2.38,0.46,3.22,0.42c5.95-0.3,34.57-4.71,42.14-4.56c1.4,0.03,2.24,0.2,2.94,0.41" id="kvg:05ea0-s6" kvg:type="&#12752;" />
		<path d="M36.42,59.49c0.96,0.44,2.71,0.51,3.67,0.44c8.06-0.6,30-4.64,38.62-4.48c1.6,0.03,2.55,0.21,3.35,0.43" id="kvg:05ea0-s7" kvg:type="&#12752;" />
		<path d="M29.3,76.2c1.52,0.43,4.31,0.51,5.83,0.43c11.7-0.59,34.28-4.4,51.5-4.19c2.53,0.03,4.06,0.21,5.32,0.43" id="kvg:05ea0-s8" kvg:type="&#12752;" />
		<path d="M56.67,45.77c1,0.4,1.6,1.8,1.8,2.61c0.2,0.8,0,47.11-0.2,52.12" id="kvg:05ea0-s9" kvg:type="&#12753;" />
	</g>
</g>
</g>
<g id="kvg:StrokeNumbers_05ea0" style="font-size:8;fill:#808080">
	<text transform="matrix(1 0 0 1 44.85 10.50)">1</text>
	<text transform="matrix(1 0 0 1 21.50 22.50)">2</text>
	<text transform="matrix(1 0 0 1 18.50 34.50)">3</text>
	<text transform="matrix(1 0 0 1 35.50 33.50)">4</text>
	<text transform="matrix(1 0 0 1 62.50 31.50)">5</text>
	<text transform="matrix(1 0 0 1 32.50 41.50)">6</text>
	<text transform="matrix(1 0 0 1 34.50 56.50)">7</text>
	<text transform="matrix(1 0 0 1 27.50 73.50)">8</text>
	<text transform="matrix(1 0 0 1 50.50 52.50)">9</text>
</g>
</svg>