<svg xmlns="http://www.w3.org/2000/svg" xmlns:kvg="http://kanjivg.tagaini.net" height="109" meaning="toilet, lavatory, mingle with" viewBox="0 0 109 109" width="109">
<g id="kvg:StrokePaths_05ec1" style="fill:none;stroke:#000000;stroke-width:3;stroke-linecap:round;stroke-linejoin:round;">
<g id="kvg:05ec1" kvg:element="&#24257;">
	<g id="kvg:05ec1-g1" kvg:element="&#24191;" kvg:position="tare" kvg:radical="tradit">
		<path d="M51.81,11.63c0.76,0.38,2.36,2.88,2.51,3.65c0.15,0.77,0.08,4.15-0.07,8.96" id="kvg:05ec1-s1" kvg:type="&#12753;a" />
		<g id="kvg:05ec1-g2" kvg:element="&#21378;">
			<path d="M17.88,26.81c1.59,0.57,4.52,0.66,6.12,0.57c16.6-0.95,40.74-4.72,61.55-4.94c2.66-0.03,4.25,0.27,5.58,0.56" id="kvg:05ec1-s2" kvg:type="&#12752;" />
			<path d="M22.5,27.5c0.04,1.59-0.07,4.1-0.07,6.38c0,16.37-0.18,45.87-12.37,60.59" id="kvg:05ec1-s3" kvg:type="&#12754;" />
		</g>
	</g>
	<g id="kvg:05ec1-g3" kvg:element="&#21063;">
		<g id="kvg:05ec1-g4" kvg:element="&#35997;" kvg:position="left">
			<g id="kvg:05ec1-g5" kvg:element="&#30446;" kvg:position="top">
				<path d="M32.8,35.31c0.35,1.04,0.86,1.81,0.86,3.2c0,1.39-0.12,40.1,0,41.49" id="kvg:05ec1-s4" kvg:type="&#12753;" />
				<path d="M34.24,37.24c1.99-0.17,17.12-2.39,18.93-2.6c1.51-0.17,2.7,0.97,2.57,2.25c-0.16,1.63-0.7,41.38-0.7,42.41" id="kvg:05ec1-s5" kvg:type="&#12757;a" />
				<path d="M34.21,50.53C38.31,50,49,48.6,54.22,48.17" id="kvg:05ec1-s6" kvg:type="&#12752;a" />
				<path d="M34.37,63.28c6.04-0.69,13.48-1.27,19.61-1.63" id="kvg:05ec1-s7" kvg:type="&#12752;a" />
				<path d="M34.88,77.54c4.77-0.75,13.54-1.78,19.62-2.08" id="kvg:05ec1-s8" kvg:type="&#12752;a" />
			</g>
			<g id="kvg:05ec1-g6" kvg:position="bottom">
				<path d="M36.97,82.77c0.33,1.17,0.62,1.46,0,2.35c-2.79,3.96-7.69,8.91-11.68,11.96" id="kvg:05ec1-s9" kvg:type="&#12754;" />
				<path d="M50.04,83.6c3.51,3.35,7.65,9.44,8.61,12.37" id="kvg:05ec1-s10" kvg:type="&#12756;" />
			</g>
		</g>
		<g id="kvg:05ec1-g7" kvg:element="&#20994;" kvg:original="&#20992;" kvg:position="right" kvg:variant="true">
			<path d="M67.27,38.38c0.98,0.73,1.67,1.58,1.76,3.99C69.42,53.94,69,71.28,69,75.21" id="kvg:05ec1-s11" kvg:type="&#12753;" />
			<path d="M84.27,31.33c0.98,0.73,1.67,1.58,1.76,3.99c0.4,11.57-0.26,50.59-0.26,54.53c0,9.9-2.52,5.1-7.21,1.7" id="kvg:05ec1-s12" kvg:type="&#12762;" />
		</g>
	</g>
</g>
</g>
<g id="kvg:StrokeNumbers_05ec1" style="font-size:8;fill:#808080">
	<text transform="matrix(1 0 0 1 44.50 12.13)">1</text>
	<text transform="matrix(1 0 0 1 20.25 23.50)">2</text>
	<text transform="matrix(1 0 0 1 14.50 36.50)">3</text>
	<text transform="matrix(1 0 0 1 26.50 43.90)">4</text>
	<text transform="matrix(1 0 0 1 36.50 34.50)">5</text>
	<text transform="matrix(1 0 0 1 38.50 46.50)">6</text>
	<text transform="matrix(1 0 0 1 38.50 60.68)">7</text>
	<text transform="matrix(1 0 0 1 38.50 73.50)">8</text>
	<text transform="matrix(1 0 0 1 28.50 87.50)">9</text>
	<text transform="matrix(1 0 0 1 42.50 90.50)">10</text>
	<text transform="matrix(1 0 0 1 61.50 35.50)">11</text>
	<text transform="matrix(1 0 0 1 72.25 32.50)">12</text>
</g>
</svg>