<svg xmlns="http://www.w3.org/2000/svg" xmlns:kvg="http://kanjivg.tagaini.net" height="109" kun="&#12375;&#12370;.&#12427;, &#12402;&#12373;&#12375;" meaning="walking under the eaves" on="&#12502;" viewBox="0 0 109 109" width="109">
<g id="kvg:StrokePaths_05ee1" style="fill:none;stroke:#000000;stroke-width:3;stroke-linecap:round;stroke-linejoin:round;">
<g id="kvg:05ee1" kvg:element="&#24289;">
	<g id="kvg:05ee1-g1" kvg:element="&#24191;" kvg:position="tare" kvg:radical="general">
		<path d="M51.81,10.13c0.76,0.38,2.36,2.88,2.51,3.65c0.15,0.77,0.08,3.65-0.07,8.46" id="kvg:05ee1-s1" kvg:type="&#12753;a" />
		<g id="kvg:05ee1-g2" kvg:element="&#21378;">
			<path d="M18.38,24.78c1.65,0.49,4.69,0.57,6.35,0.49c17.23-0.83,40.67-4.58,57.36-5.23c2.76-0.11,4.41,0.24,5.79,0.48" id="kvg:05ee1-s2" kvg:type="&#12752;" />
			<path d="M24,25.5c0.04,1.62,0.07,4.19-0.07,6.52c-0.86,13.76-2.81,47.12-12.12,61.94" id="kvg:05ee1-s3" kvg:type="&#12754;" />
		</g>
	</g>
	<g id="kvg:05ee1-g3" kvg:element="&#28961;">
		<g id="kvg:05ee1-g4" kvg:position="top">
			<g id="kvg:05ee1-g5" kvg:element="&#20031;">
				<path d="M43.12,27.25c0.03,0.51,0.13,1.46-0.07,2.04c-2.39,7.16-5.93,13.74-12.17,19.51" id="kvg:05ee1-s4" kvg:type="&#12754;" />
			</g>
			<path d="M39.87,38.11c8.18-0.23,34.18-3.97,42.02-4.54c1.82-0.13,2.93,0.17,3.84,0.35" id="kvg:05ee1-s5" kvg:type="&#12752;" />
			<g id="kvg:05ee1-g6" kvg:element="&#19968;">
				<path d="M28,56.96c1.35,0.45,3.84,0.67,5.17,0.45c5.46-0.88,39.51-4.15,54.11-4.77c2.25-0.09,3.6,0.22,4.72,0.44" id="kvg:05ee1-s6" kvg:type="&#12752;" />
			</g>
			<path d="M39.84,44.15c0.93,0.49,1.48,2.21,1.67,3.19s1.42,14.48,2.06,25.52" id="kvg:05ee1-s7" kvg:type="&#12753;" />
			<path d="M52.62,40.24c0.93,0.49,1.68,2.18,1.67,3.19c-0.07,5.4,0.15,14.22,0.15,28.2" id="kvg:05ee1-s8" kvg:type="&#12753;" />
			<path d="M65.39,38.77c0.93,0.49,1.73,2.19,1.67,3.19c-0.49,7.85-0.92,13.24-1.56,28.69" id="kvg:05ee1-s9" kvg:type="&#12753;" />
			<path d="M78.58,37.26c0.93,0.49,1.95,2.23,1.67,4.17c-1.13,7.85-1.06,13.01-3.19,28.22" id="kvg:05ee1-s10" kvg:type="&#12753;" />
			<path d="M32.33,72.94c1.35,0.45,3.82,0.56,5.17,0.45c7.71-0.62,32.35-2.99,46.95-3.6c2.25-0.09,3.6,0.21,4.72,0.44" id="kvg:05ee1-s11" kvg:type="&#12752;" />
		</g>
		<g id="kvg:05ee1-g7" kvg:element="&#28780;" kvg:original="&#28779;" kvg:position="bottom" kvg:variant="true">
			<path d="M33.63,84.43c0,4.73-4.51,11.72-5.69,13.07" id="kvg:05ee1-s12" kvg:type="&#12756;" />
			<path d="M47.58,81.84c2.36,2.89,4.6,10.85,5.19,15.35" id="kvg:05ee1-s13" kvg:type="&#12756;" />
			<path d="M63.97,80.8c2.59,2.93,6.68,12.07,7.33,16.64" id="kvg:05ee1-s14" kvg:type="&#12756;" />
			<path d="M81.38,80.75c3.61,2.76,9.32,11.34,10.23,15.64" id="kvg:05ee1-s15" kvg:type="&#12756;" />
		</g>
	</g>
</g>
</g>
<g id="kvg:StrokeNumbers_05ee1" style="font-size:8;fill:#808080">
	<text transform="matrix(1 0 0 1 44.85 11.85)">1</text>
	<text transform="matrix(1 0 0 1 22.50 22.50)">2</text>
	<text transform="matrix(1 0 0 1 15.50 34.50)">3</text>
	<text transform="matrix(1 0 0 1 34.50 31.50)">4</text>
	<text transform="matrix(1 0 0 1 46.50 34.50)">5</text>
	<text transform="matrix(1 0 0 1 31.25 55.50)">6</text>
	<text transform="matrix(1 0 0 1 35.50 51.50)">7</text>
	<text transform="matrix(1 0 0 1 46.50 45.50)">8</text>
	<text transform="matrix(1 0 0 1 59.50 44.50)">9</text>
	<text transform="matrix(1 0 0 1 70.50 43.50)">10</text>
	<text transform="matrix(1 0 0 1 28.50 69.50)">11</text>
	<text transform="matrix(1 0 0 1 25.50 84.80)">12</text>
	<text transform="matrix(1 0 0 1 39.25 85.50)">13</text>
	<text transform="matrix(1 0 0 1 55.50 83.50)">14</text>
	<text transform="matrix(1 0 0 1 72.50 81.50)">15</text>
</g>
</svg>