<svg xmlns="http://www.w3.org/2000/svg" xmlns:kvg="http://kanjivg.tagaini.net" height="109" kun="&#12395;&#12376;&#12421;&#12358;" meaning="twenty, twenty or letter H radical (no. 55)" on="&#12461;&#12519;&#12454;, &#12463;" viewBox="0 0 109 109" width="109">
<g id="kvg:StrokePaths_05efe" style="fill:none;stroke:#000000;stroke-width:3;stroke-linecap:round;stroke-linejoin:round;">
<g id="kvg:05efe" kvg:element="&#24318;" kvg:radical="general">
	<g id="kvg:05efe-g1" kvg:element="&#21313;" kvg:part="1">
		<path d="M14.88,50.98c1.52,0.54,4.3,0.63,5.82,0.54c15.8-0.91,50.05-5.77,70.11-6.23c2.53-0.06,4.05,0.26,5.31,0.53" id="kvg:05efe-s1" kvg:type="&#12752;" />
	</g>
	<g id="kvg:05efe-g2" kvg:element="&#20031;">
		<path d="M40.06,14.5c0.69,1.75,1.33,3.58,1.39,6.14C42,44,39.25,77.25,21,90" id="kvg:05efe-s2" kvg:type="&#12754;" />
	</g>
	<g id="kvg:05efe-g3" kvg:element="&#21313;" kvg:part="2">
		<path d="M67.87,11.25c1.45,1.45,1.96,1.25,1.96,3.25c0,6.75,0,76.75-0.22,83" id="kvg:05efe-s3" kvg:type="&#12753;" />
	</g>
</g>
</g>
<g id="kvg:StrokeNumbers_05efe" style="font-size:8;fill:#808080">
	<text transform="matrix(1 0 0 1 6.75 49.63)">1</text>
	<text transform="matrix(1 0 0 1 29.25 15.13)">2</text>
	<text transform="matrix(1 0 0 1 57.75 9.13)">3</text>
</g>
</svg>