<svg xmlns="http://www.w3.org/2000/svg" xmlns:kvg="http://kanjivg.tagaini.net" height="109" kun="&#12405;&#12383;-, &#12405;&#12383;.&#12388;, &#12405;&#12383;&#12383;.&#12403;" meaning="two" on="&#12491;, &#12472;" viewBox="0 0 109 109" width="109">
<g id="kvg:StrokePaths_05f0d" style="fill:none;stroke:#000000;stroke-width:3;stroke-linecap:round;stroke-linejoin:round;">
<g id="kvg:05f0d" kvg:element="&#24333;">
	<g id="kvg:05f0d-g1" kvg:element="&#24331;" kvg:part="1" kvg:radical="general">
		<path d="M15.25,35.7c1.52,0.54,4.32,0.8,5.82,0.54c6.15-1.05,50.43-5.49,64.11-6.73c2.52-0.23,4.05,0.26,5.31,0.53" id="kvg:05f0d-s1" kvg:type="&#12752;" />
	</g>
	<g id="kvg:05f0d-g2" kvg:element="&#20108;">
		<path d="M19.95,57.82c1.09,0.16,2.58,0.7,3.67,0.66c6.64-0.23,16.89-2.98,26-4.05c1.8-0.21,2.9,0.08,3.8,0.16" id="kvg:05f0d-s2" kvg:type="&#12752;" />
		<path d="M14.5,80.94c1.33,0.5,3.79,0.65,5.11,0.5C30.5,80.25,47.5,76,56.83,75.68c2.22-0.08,3.56,0.24,4.67,0.49" id="kvg:05f0d-s3" kvg:type="&#12752;" />
	</g>
	<g id="kvg:05f0d-g3" kvg:element="&#24331;" kvg:part="2" kvg:radical="general">
		<path d="M58.5,11.5c1.61,1.82,2.44,2.31,2.61,6.24c1.21,27.02,10.59,65.57,29.15,77.95c6.23,4.16,5.43,0.78,4.62-7.27" id="kvg:05f0d-s4" kvg:type="&#12738;" />
		<g id="kvg:05f0d-g4" kvg:element="&#20022;">
			<path d="M71.75,12.5c3.34,1.95,8.69,6.41,10.25,9.75" id="kvg:05f0d-s5" kvg:type="&#12756;" />
		</g>
	</g>
</g>
</g>
<g id="kvg:StrokeNumbers_05f0d" style="font-size:8;fill:#808080">
	<text transform="matrix(1 0 0 1 8.25 36.50)">1</text>
	<text transform="matrix(1 0 0 1 12.75 58.50)">2</text>
	<text transform="matrix(1 0 0 1 7.50 82.50)">3</text>
	<text transform="matrix(1 0 0 1 48.50 11.50)">4</text>
	<text transform="matrix(1 0 0 1 68.50 9.50)">5</text>
</g>
</svg>