<svg xmlns="http://www.w3.org/2000/svg" xmlns:kvg="http://kanjivg.tagaini.net" height="109" kun="&#12356;&#12368;&#12427;&#12415;" meaning="piling, ceremony radical (no. 56)" on="&#12520;&#12463;" viewBox="0 0 109 109" width="109">
<g id="kvg:StrokePaths_05f0b" style="fill:none;stroke:#000000;stroke-width:3;stroke-linecap:round;stroke-linejoin:round;">
<g id="kvg:05f0b" kvg:element="&#24331;" kvg:radical="general">
	<path d="M15.75,39.7c1.52,0.54,4.32,0.8,5.82,0.54c6.15-1.05,45.93-7.74,62.11-8.23c2.53-0.08,4.05,0.26,5.31,0.53" id="kvg:05f0b-s1" kvg:type="&#12752;" />
	<path d="M49.25,12c2,1.75,3.03,2.22,3.25,6C54,44,65.67,81.09,88.75,93c7.75,4,6.75,0.75,5.75-7" id="kvg:05f0b-s2" kvg:type="&#12738;" />
	<g id="kvg:05f0b-g1" kvg:element="&#20022;">
		<path d="M67,13c3.75,1.75,9.75,5.75,11.5,8.75" id="kvg:05f0b-s3" kvg:type="&#12756;" />
	</g>
</g>
</g>
<g id="kvg:StrokeNumbers_05f0b" style="font-size:8;fill:#808080">
	<text transform="matrix(1 0 0 1 8.50 40.50)">1</text>
	<text transform="matrix(1 0 0 1 40.50 12.50)">2</text>
	<text transform="matrix(1 0 0 1 60.75 10.50)">3</text>
</g>
</svg>