<svg xmlns="http://www.w3.org/2000/svg" xmlns:kvg="http://kanjivg.tagaini.net" height="109" kun="&#12377;&#12390;.&#12427;" meaning="reject, abandon, discard" on="&#12461;" viewBox="0 0 109 109" width="109">
<g id="kvg:StrokePaths_05f03" style="fill:none;stroke:#000000;stroke-width:3;stroke-linecap:round;stroke-linejoin:round;">
<g id="kvg:05f03" kvg:element="&#24323;">
	<g id="kvg:05f03-g1" kvg:element="&#20128;" kvg:position="top">
		<path d="M50.42,10.01c1.02,0.55,2.71,2.69,2.71,3.79c0,4.05-0.32,6.03-0.14,9.45" id="kvg:05f03-s1" kvg:type="&#12753;a" />
		<path d="M17.14,26.92c1.82,0.36,3.42,0.75,5.51,0.5c12.45-1.5,47.9-4.46,62.4-5.18c2.13-0.11,3.22,0.04,4.81,0.64" id="kvg:05f03-s2" kvg:type="&#12752;" />
	</g>
	<g id="kvg:05f03-g2" kvg:element="&#24321;" kvg:position="bottom">
		<g id="kvg:05f03-g3" kvg:element="&#21430;" kvg:position="top">
			<path d="M47.05,29.25c0.59,0.53,0.37,1.87-0.02,2.53C43.25,38.25,39.5,43,31.7,50.23c-2.34,2.17-2.48,3.77,1.18,2.9C43,50.75,63,46,75.69,44.19" id="kvg:05f03-s3" kvg:type="&#12764;" />
			<path d="M64.21,34.47C70,37.55,79.18,47.13,80.62,51.91" id="kvg:05f03-s4" kvg:type="&#12756;" />
		</g>
		<g id="kvg:05f03-g4" kvg:element="&#24318;" kvg:position="bottom" kvg:radical="tradit">
			<g id="kvg:05f03-g5" kvg:element="&#21313;" kvg:part="1">
				<path d="M14.88,71.47c1.52,0.46,4.3,0.53,5.82,0.46c15.8-0.76,48.55-4.36,68.61-4.75c2.53-0.05,4.05,0.22,5.31,0.45" id="kvg:05f03-s5" kvg:type="&#12752;" />
			</g>
			<g id="kvg:05f03-g6" kvg:element="&#20031;">
				<path d="M42.18,59.47c1.09,1.25,1.72,1.82,1.77,3.12c0.52,11.85-2.7,26.91-18.95,35.2" id="kvg:05f03-s6" kvg:type="&#12754;" />
			</g>
			<g id="kvg:05f03-g7" kvg:element="&#21313;" kvg:part="2">
				<path d="M68.87,55.23c1.09,0.42,1.74,1.9,1.96,2.74c0.22,0.84,0,35.76-0.22,41.03" id="kvg:05f03-s7" kvg:type="&#12753;" />
			</g>
		</g>
	</g>
</g>
</g>
<g id="kvg:StrokeNumbers_05f03" style="font-size:8;fill:#808080">
	<text transform="matrix(1 0 0 1 43.50 10.50)">1</text>
	<text transform="matrix(1 0 0 1 9.50 26.50)">2</text>
	<text transform="matrix(1 0 0 1 37.50 34.50)">3</text>
	<text transform="matrix(1 0 0 1 66.50 33.50)">4</text>
	<text transform="matrix(1 0 0 1 7.50 71.50)">5</text>
	<text transform="matrix(1 0 0 1 34.50 62.50)">6</text>
	<text transform="matrix(1 0 0 1 60.25 57.50)">7</text>
</g>
</svg>