<svg xmlns="http://www.w3.org/2000/svg" xmlns:kvg="http://kanjivg.tagaini.net" height="109" kun="&#12356;&#12376;&#12367;.&#12427;, &#12429;&#12358;.&#12377;&#12427;, &#12356;&#12376;.&#12427;, &#12402;&#12397;&#12367;.&#12427;, &#12383;&#12431;&#12416;.&#12428;&#12427;, &#12418;&#12390;&#12354;&#12381;.&#12406;" meaning="play with, tamper, trifle with" on="&#12525;&#12454;, &#12523;" viewBox="0 0 109 109" width="109">
<g id="kvg:StrokePaths_05f04" style="fill:none;stroke:#000000;stroke-width:3;stroke-linecap:round;stroke-linejoin:round;">
<g id="kvg:05f04" kvg:element="&#24324;">
	<g id="kvg:05f04-g1" kvg:element="&#29579;" kvg:original="&#29577;" kvg:partial="true" kvg:position="top" kvg:radical="nelson">
		<path d="M25,17.76c1.12,0.44,4.76,0.12,5.89,0.03c12.37-1.04,35.73-3.13,48.39-3.58c1.73-0.06,3.29,0.09,4.72,0.45" id="kvg:05f04-s1" kvg:type="&#12752;" />
		<path d="M52.78,17c1.15,1.43,1.15,2.29,1.15,3.44c0,8.02-0.01,12.7-0.01,25.56" id="kvg:05f04-s2" kvg:type="&#12753;a" />
		<path d="M29.75,32c0.94,0.57,4.04,0.35,5,0.25c10-1,26.75-2.5,38.5-3.52c1.17-0.1,3.75-0.23,5.5,0.27" id="kvg:05f04-s3" kvg:type="&#12752;" />
		<path d="M16.25,48.49c0.92,0.32,5.7,0.17,7.25,0.01c21.75-2.25,42-3,65.25-3.78c2.5-0.08,5.5,0.53,6.75,1.03" id="kvg:05f04-s4" kvg:type="&#12752;" />
	</g>
	<g id="kvg:05f04-g2" kvg:element="&#24318;" kvg:position="bottom" kvg:radical="tradit">
		<g id="kvg:05f04-g3" kvg:element="&#21313;" kvg:part="1">
			<path d="M14.88,67.48c1.52,0.54,4.3,0.63,5.82,0.54c15.8-0.91,50.05-3.77,70.11-4.23c2.53-0.06,4.05,0.26,5.31,0.53" id="kvg:05f04-s5" kvg:type="&#12752;" />
		</g>
		<g id="kvg:05f04-g4" kvg:element="&#20031;">
			<path d="M40.88,52.5c0.77,1.03,1.56,2.11,1.56,3.62c0,16.63-0.44,32.63-22.94,41.38" id="kvg:05f04-s6" kvg:type="&#12754;" />
		</g>
		<g id="kvg:05f04-g5" kvg:element="&#21313;" kvg:part="2">
			<path d="M67.87,50.75c1.13,1,1.96,2.25,1.96,4.25c0,6.75,0,39.25-0.22,45.5" id="kvg:05f04-s7" kvg:type="&#12753;" />
		</g>
	</g>
</g>
</g>
<g id="kvg:StrokeNumbers_05f04" style="font-size:8;fill:#808080">
	<text transform="matrix(1 0 0 1 18.50 18.50)">1</text>
	<text transform="matrix(1 0 0 1 45.50 25.50)">2</text>
	<text transform="matrix(1 0 0 1 22.50 32.48)">3</text>
	<text transform="matrix(1 0 0 1 9.50 47.50)">4</text>
	<text transform="matrix(1 0 0 1 7.50 68.50)">5</text>
	<text transform="matrix(1 0 0 1 31.50 57.50)">6</text>
	<text transform="matrix(1 0 0 1 59.25 55.18)">7</text>
</g>
</svg>