<svg xmlns="http://www.w3.org/2000/svg" xmlns:kvg="http://kanjivg.tagaini.net" height="109" kun="&#12354;&#12414;&#12397;&#12375;, &#12375;&#12383;&#12364;.&#12358;, &#12392;&#12394;.&#12360;&#12427;" meaning="herald, announce, follow, obey, seek, lay down one's life" on="&#12472;&#12517;&#12531;, &#12471;&#12517;&#12531;" viewBox="0 0 109 109" width="109">
<g id="kvg:StrokePaths_05f87" style="fill:none;stroke:#000000;stroke-width:3;stroke-linecap:round;stroke-linejoin:round;">
<g id="kvg:05f87" kvg:element="&#24455;">
	<g id="kvg:05f87-g1" kvg:element="&#24435;" kvg:position="left" kvg:radical="general">
		<path d="M34.57,15.75c0.06,0.45,0.3,1.26-0.12,1.82C31.49,21.51,22.56,30.99,13.87,35" id="kvg:05f87-s1" kvg:type="&#12754;" />
		<g id="kvg:05f87-g2" kvg:element="&#20155;" kvg:original="&#20154;" kvg:variant="true">
			<path d="M36.35,32.75c0.06,0.72,0.32,2-0.13,2.89c-3.15,6.24-11.84,18.72-22.97,27.61" id="kvg:05f87-s2" kvg:type="&#12754;" />
			<path d="M27.22,52.5c0.36,0.25,1.07,1.65,1.15,2.16c0.07,0.51,0,38.65-0.07,41.84" id="kvg:05f87-s3" kvg:type="&#12753;" />
		</g>
	</g>
	<g id="kvg:05f87-g3" kvg:element="&#26092;" kvg:position="right">
		<g id="kvg:05f87-g4" kvg:element="&#21241;">
			<g id="kvg:05f87-g5" kvg:element="&#20031;">
				<path d="M56.57,14.75c0.05,0.8,0.11,2.07-0.1,3.22c-1.23,6.79-8.3,21.7-17.97,30.83" id="kvg:05f87-s4" kvg:type="&#12754;" />
			</g>
			<path d="M54.84,29.71c1.66,0.54,3.68,0.74,5.22,0.49c7.44-1.2,27.36-4.66,31.08-4.91c3.72-0.25,4.35,0.71,4.35,4.21c0,8.83-2.75,41.75-8.36,60.78c-2.72,9.21-6.76,0.85-8.96-2.23" id="kvg:05f87-s5" kvg:type="&#12742;" />
		</g>
		<g id="kvg:05f87-g6" kvg:element="&#26085;">
			<path d="M52.19,43.82c0.28,0.86,0.55,1.29,0.55,2.43c0,1.14-0.09,34.27,0,35.42" id="kvg:05f87-s6" kvg:type="&#12753;" />
			<path d="M53.2,45.11c1.56-0.14,17.29-2.98,18.71-3.15c1.18-0.14,1.94,1.59,1.85,2.43c-0.19,1.72-0.37,34.2-0.37,35.06" id="kvg:05f87-s7" kvg:type="&#12757;a" />
			<path d="M52.97,60.16c2.11,0,17.9-2.07,20.28-2.07" id="kvg:05f87-s8" kvg:type="&#12752;a" />
			<path d="M53.87,77.46c4.29-0.62,14.03-1.66,19.37-2.19" id="kvg:05f87-s9" kvg:type="&#12752;a" />
		</g>
	</g>
</g>
</g>
<g id="kvg:StrokeNumbers_05f87" style="font-size:8;fill:#808080">
	<text transform="matrix(1 0 0 1 27.25 15.63)">1</text>
	<text transform="matrix(1 0 0 1 28.50 34.50)">2</text>
	<text transform="matrix(1 0 0 1 20.50 66.50)">3</text>
	<text transform="matrix(1 0 0 1 47.50 14.50)">4</text>
	<text transform="matrix(1 0 0 1 60.50 26.50)">5</text>
	<text transform="matrix(1 0 0 1 45.50 52.25)">6</text>
	<text transform="matrix(1 0 0 1 55.25 41.50)">7</text>
	<text transform="matrix(1 0 0 1 57.25 56.10)">8</text>
	<text transform="matrix(1 0 0 1 57.50 73.50)">9</text>
</g>
</svg>