<svg xmlns="http://www.w3.org/2000/svg" xmlns:kvg="http://kanjivg.tagaini.net" height="109" kun="&#12373;&#12414;&#12424;.&#12358;" meaning="wander" on="&#12495;&#12452;" viewBox="0 0 109 109" width="109">
<g id="kvg:StrokePaths_05f98" style="fill:none;stroke:#000000;stroke-width:3;stroke-linecap:round;stroke-linejoin:round;">
<g id="kvg:05f98" kvg:element="&#24472;">
	<g id="kvg:05f98-g1" kvg:element="&#24435;" kvg:position="left" kvg:radical="general">
		<path d="M32.58,13.25c0.06,0.51,0.27,1.41-0.11,2.03c-2.71,4.4-10.89,14.99-18.86,19.47" id="kvg:05f98-s1" kvg:type="&#12754;" />
		<g id="kvg:05f98-g2" kvg:element="&#20155;" kvg:original="&#20154;" kvg:variant="true">
			<path d="M35.85,32.75c0.07,0.71,0.32,1.97-0.13,2.84C32.53,41.72,23.75,54,12.5,62.75" id="kvg:05f98-s2" kvg:type="&#12754;" />
			<path d="M28.67,50.5c0.39,0.28,1.18,1.8,1.25,2.36c0.08,0.56,0,40.65-0.08,44.14" id="kvg:05f98-s3" kvg:type="&#12753;" />
		</g>
	</g>
	<g id="kvg:05f98-g3" kvg:element="&#38750;" kvg:position="right">
		<g id="kvg:05f98-g4" kvg:position="left">
			<path d="M57.62,17.2c0.75,0.48,1.2,2.17,1.34,3.13c0.06,0.41,0.07,13.74,0.05,29.35c-0.03,20.99-0.77,36.82-14.71,48.57" id="kvg:05f98-s4" kvg:type="&#12754;" />
			<path d="M43.3,39.37c0.7,0.13,2.73,0.74,3.76,0.5c1.03-0.24,10.59-1.68,11.79-2.41" id="kvg:05f98-s5" kvg:type="&#12752;" />
			<path d="M42.96,54.51c1.03,0,2.23,0.24,3.26,0c1.03-0.24,10.08-1.67,12.82-2.39" id="kvg:05f98-s6" kvg:type="&#12752;" />
			<path d="M 40.25,72.49 c 1.81,0.7 2.73,0.32 4.27,-0.57 2.499583,-1.428333 12.49125,-6.538333 18.863125,-9.735417" id="kvg:05f98-s7" kvg:type="&#12752;" />
		</g>
		<g id="kvg:05f98-g5" kvg:position="right">
			<path d="M73.87,12c0.77,0.5,1.23,2.23,1.38,3.22c0.15,0.99,0,77.62-0.15,83.81" id="kvg:05f98-s8" kvg:type="&#12753;" />
			<path d="M75.74,33.67c4.01-0.47,15.52-2.11,18.52-2.89c1.09-0.28,0.33-0.16,2.23-0.16" id="kvg:05f98-s9" kvg:type="&#12752;" />
			<path d="M75.5,50.57c3.27-0.29,13.83-1.65,16.28-2.13c0.89-0.18,0.27-0.1,1.82-0.1" id="kvg:05f98-s10" kvg:type="&#12752;" />
			<path d="M75.41,69.58c3.72-0.34,17.24-1.9,20.02-2.46C96.45,66.91,95.74,67,97.5,67" id="kvg:05f98-s11" kvg:type="&#12752;" />
		</g>
	</g>
</g>
</g>
<g id="kvg:StrokeNumbers_05f98" style="font-size:8;fill:#808080">
	<text transform="matrix(1 0 0 1 25.50 12.50)">1</text>
	<text transform="matrix(1 0 0 1 27.50 33.50)">2</text>
	<text transform="matrix(1 0 0 1 23.25 65.48)">3</text>
	<text transform="matrix(1 0 0 1 49.50 16.50)">4</text>
	<text transform="matrix(1 0 0 1 42.25 35.50)">5</text>
	<text transform="matrix(1 0 0 1 42.25 50.50)">6</text>
	<text transform="matrix(1 0 0 1 37.50 67.50)">7</text>
	<text transform="matrix(1 0 0 1 64.50 10.50)">8</text>
	<text transform="matrix(1 0 0 1 79.50 29.50)">9</text>
	<text transform="matrix(1 0 0 1 78.50 46.50)">10</text>
	<text transform="matrix(1 0 0 1 78.50 65.50)">11</text>
</g>
</svg>