<svg xmlns="http://www.w3.org/2000/svg" xmlns:kvg="http://kanjivg.tagaini.net" height="109" kun="&#12373;&#12414;&#12424;.&#12358;" meaning="wandering" on="&#12467;&#12454;" viewBox="0 0 109 109" width="109">
<g id="kvg:StrokePaths_05fa8" style="fill:none;stroke:#000000;stroke-width:3;stroke-linecap:round;stroke-linejoin:round;">
<g id="kvg:05fa8" kvg:element="&#24488;">
	<g id="kvg:05fa8-g1" kvg:element="&#24435;" kvg:position="left" kvg:radical="general">
		<path d="M34.58,16.25c0.06,0.5,0.28,1.38-0.12,1.99c-2.82,4.29-11.32,14.64-19.6,19.01" id="kvg:05fa8-s1" kvg:type="&#12754;" />
		<g id="kvg:05fa8-g2" kvg:element="&#20155;" kvg:original="&#20154;" kvg:variant="true">
			<path d="M37.33,33.25c0.07,0.78,0.35,2.18-0.14,3.15C33.74,43.19,24.21,56.8,12,66.5" id="kvg:05fa8-s2" kvg:type="&#12754;" />
			<path d="M28.19,54c0.38,0.27,1.13,1.73,1.21,2.27c0.07,0.54,0,39.12-0.08,42.48" id="kvg:05fa8-s3" kvg:type="&#12753;" />
		</g>
	</g>
	<g id="kvg:05fa8-g3" kvg:element="&#30343;" kvg:position="right">
		<g id="kvg:05fa8-g4" kvg:element="&#30333;" kvg:position="top">
			<g id="kvg:05fa8-g5" kvg:position="top">
				<path d="M63.97,11.75c0.38,0.51,0.44,1.15,0.35,1.59c-0.54,2.65-5.21,8.99-9.45,12.55" id="kvg:05fa8-s4" kvg:type="&#12754;" />
			</g>
			<g id="kvg:05fa8-g6" kvg:element="&#26085;" kvg:position="bottom">
				<path d="M47.46,26.56c0.64,0.72,1.15,2.06,1.29,3.01c0.76,5.28,2.81,20.82,3.07,25.58" id="kvg:05fa8-s5" kvg:type="&#12753;" />
				<path d="M49.13,28.27c8.91-1.3,29.48-3.71,32.77-4.16c2.6-0.36,4.1,1.92,3.76,3.91c-0.77,4.43-3.05,14.7-4.58,23.19" id="kvg:05fa8-s6" kvg:type="&#12757;a" />
				<path d="M50.46,39.73c8.1-1.78,27.85-3.2,33.39-3.2" id="kvg:05fa8-s7" kvg:type="&#12752;a" />
				<path d="M51.52,51.43c9.25-0.82,21.7-2.73,29.34-2.98" id="kvg:05fa8-s8" kvg:type="&#12752;a" />
			</g>
		</g>
		<g id="kvg:05fa8-g7" kvg:element="&#29579;" kvg:original="&#29577;" kvg:partial="true" kvg:position="bottom">
			<path d="M43.75,61.69c1.85,0.28,3.88,0.56,4.81,0.53C56,62,75.73,60.23,86.06,59.1c1.4-0.15,2.69,0.1,3.85,0.52" id="kvg:05fa8-s9" kvg:type="&#12752;" />
			<path d="M65.21,63.65c1.1,1.78,1.1,2.84,1.1,4.26c0,9.94-0.06,12.84-0.06,25.21" id="kvg:05fa8-s10" kvg:type="&#12753;a" />
			<path d="M47.25,77.68c0.76,0.49,3.26,0.3,4.03,0.22c8.07-0.86,19.92-1.7,29.4-2.58c0.95-0.09,3.03-0.2,4.44,0.23" id="kvg:05fa8-s11" kvg:type="&#12752;" />
			<path d="M38.84,93.73c0.7,0.31,4.35,0.62,5.54,0.52c14.23-1.28,26.74-1.19,44.5-2.19c2.98-0.17,5.11-0.06,6.76,0.5" id="kvg:05fa8-s12" kvg:type="&#12752;" />
		</g>
	</g>
</g>
</g>
<g id="kvg:StrokeNumbers_05fa8" style="font-size:8;fill:#808080">
	<text transform="matrix(1 0 0 1 27.50 16.50)">1</text>
	<text transform="matrix(1 0 0 1 28.50 35.50)">2</text>
	<text transform="matrix(1 0 0 1 22.25 67.50)">3</text>
	<text transform="matrix(1 0 0 1 55.50 11.50)">4</text>
	<text transform="matrix(1 0 0 1 42.25 34.83)">5</text>
	<text transform="matrix(1 0 0 1 50.50 24.50)">6</text>
	<text transform="matrix(1 0 0 1 54.25 36.50)">7</text>
	<text transform="matrix(1 0 0 1 55.50 48.50)">8</text>
	<text transform="matrix(1 0 0 1 40.50 58.50)">9</text>
	<text transform="matrix(1 0 0 1 55.50 71.50)">10</text>
	<text transform="matrix(1 0 0 1 38.50 77.50)">11</text>
	<text transform="matrix(1 0 0 1 35.50 90.05)">12</text>
</g>
</svg>