<svg xmlns="http://www.w3.org/2000/svg" xmlns:kvg="http://kanjivg.tagaini.net" height="109" meaning="seek, enquire, go around, border" viewBox="0 0 109 109" width="109">
<g id="kvg:StrokePaths_05fbc" style="fill:none;stroke:#000000;stroke-width:3;stroke-linecap:round;stroke-linejoin:round;">
<g id="kvg:05fbc" kvg:element="&#24508;">
	<g id="kvg:05fbc-g1" kvg:element="&#24435;" kvg:position="left" kvg:radical="general">
		<path d="M32.07,16.25c0.06,0.48,0.3,1.35-0.12,1.94c-2.96,4.19-11.89,14.29-20.58,18.56" id="kvg:05fbc-s1" kvg:type="&#12754;" />
		<g id="kvg:05fbc-g2" kvg:element="&#20155;" kvg:original="&#20154;" kvg:variant="true">
			<path d="M31.85,34.25c0.06,0.73,0.31,2.03-0.13,2.93C28.68,43.52,20.27,56.21,9.5,65.25" id="kvg:05fbc-s2" kvg:type="&#12754;" />
			<path d="M23.72,53.5c0.36,0.25,1.07,1.65,1.15,2.16c0.07,0.51,0,37.15-0.07,40.34" id="kvg:05fbc-s3" kvg:type="&#12753;" />
		</g>
	</g>
	<g id="kvg:05fbc-g3" kvg:position="right">
		<g id="kvg:05fbc-g4" kvg:position="left">
			<g id="kvg:05fbc-g5" kvg:position="top">
				<path d="M50.04,16.25c0.2,0.39,0.23,0.87,0.18,1.21c-0.28,2.01-2.71,6.81-4.92,9.51" id="kvg:05fbc-s4" kvg:type="&#12756;" />
			</g>
			<g id="kvg:05fbc-g6" kvg:element="&#26085;" kvg:position="bottom">
				<path d="M37.9,28.26c0.34,0.49,0.68,0.74,0.68,1.39c0,0.66,2.07,14.37,2.21,17.6" id="kvg:05fbc-s5" kvg:type="&#12753;" />
				<path d="M38.78,29.42c1.91-0.08,17.89-2.58,19.63-2.68c1.45-0.08,3.49,0.73,3.2,2.42c-0.7,4.07-2.4,9.29-3.56,17.04" id="kvg:05fbc-s6" kvg:type="&#12757;a" />
				<path d="M40.51,37.39c5.27-0.56,13.14-1.72,18.4-2.46" id="kvg:05fbc-s7" kvg:type="&#12752;a" />
				<path d="M42.28,45.89c5.58-0.72,9.05-1.18,15.22-1.84" id="kvg:05fbc-s8" kvg:type="&#12752;a" />
			</g>
			<g id="kvg:05fbc-g7" kvg:element="&#25918;" kvg:part="1">
				<g id="kvg:05fbc-g8" kvg:element="&#26041;" kvg:position="left">
					<g id="kvg:05fbc-g9" kvg:element="&#20128;" kvg:position="top">
						<path d="M48.08,49.75c0.67,0.36,1.78,1.76,1.78,2.48c0,2.66-0.21,3.5-0.09,5.75" id="kvg:05fbc-s9" kvg:type="&#12753;a" />
						<path d="M31.94,59.69c0.85,0.06,2.79,0.41,3.61,0.33c6.67-0.69,16.95-1.52,24.85-2.7c1.38-0.21,2.11-0.47,3.16-0.08" id="kvg:05fbc-s10" kvg:type="&#12752;" />
					</g>
					<g id="kvg:05fbc-g10" kvg:position="bottom">
						<path d="M48.05,65.77C50,66.5,51.5,67,55.86,67.98c2.8,0.63,3.98,2.86,3.39,4.52c-1.5,4.25-6.68,14.4-10.27,17.52c-3.89,3.39-5.73,0.98-7.15-1.58" id="kvg:05fbc-s11" kvg:type="&#12742;a" />
						<path d="M48.02,61.48c0.04,0.55,0.15,1.44-0.09,2.22c-1.8,5.87-6.06,15.21-15.81,21.24" id="kvg:05fbc-s12" kvg:type="&#12754;" />
					</g>
				</g>
			</g>
			<g id="kvg:05fbc-g11" kvg:element="&#25918;" kvg:part="2" kvg:position="right">
				<g id="kvg:05fbc-g12" kvg:element="&#25908;" kvg:original="&#25909;" kvg:position="right" kvg:variant="true">
					<g id="kvg:05fbc-g13" kvg:position="top">
						<path d="M75.27,17.14c0.03,0.79,0.15,2.06-0.07,3.16c-1.36,6.98-4.89,20.58-11.95,30.2" id="kvg:05fbc-s13" kvg:type="&#12754;" />
						<path d="M70.78,40.46c0.44,0.26,1.25,0.29,1.69,0.26c4.59-0.3,14.96-3.2,19.33-3.73c0.78-0.09,1.27-0.01,1.47,0.05" id="kvg:05fbc-s14" kvg:type="&#12752;" />
					</g>
					<g id="kvg:05fbc-g14" kvg:element="&#20034;" kvg:position="bottom">
						<g id="kvg:05fbc-g15" kvg:element="&#20031;">
							<path d="M86.19,42.93c0.46,1.23,0.7,2.12,0.23,4.38C82.09,67.81,73.32,85,57.98,93.25" id="kvg:05fbc-s15" kvg:type="&#12754;" />
						</g>
						<path d="M68,54.4c4.65,7,16.06,29.89,22.98,37.77c1.33,1.52,2.18,1.77,3.27,1.93" id="kvg:05fbc-s16" kvg:type="&#12751;" />
					</g>
				</g>
			</g>
		</g>
	</g>
</g>
</g>
<g id="kvg:StrokeNumbers_05fbc" style="font-size:8;fill:#808080">
	<text transform="matrix(1 0 0 1 24.50 14.63)">1</text>
	<text transform="matrix(1 0 0 1 23.50 36.50)">2</text>
	<text transform="matrix(1 0 0 1 17.50 66.50)">3</text>
	<text transform="matrix(1 0 0 1 42.50 15.50)">4</text>
	<text transform="matrix(1 0 0 1 30.50 30.50)">5</text>
	<text transform="matrix(1 0 0 1 39.50 25.50)">6</text>
	<text transform="matrix(1 0 0 1 43.50 35.50)">7</text>
	<text transform="matrix(1 0 0 1 44.50 43.50)">8</text>
	<text transform="matrix(1 0 0 1 41.25 54.50)">9</text>
	<text transform="matrix(1 0 0 1 28.50 55.50)">10</text>
	<text transform="matrix(1 0 0 1 53.50 65.50)">11</text>
	<text transform="matrix(1 0 0 1 36.50 68.50)">12</text>
	<text transform="matrix(1 0 0 1 63.50 15.50)">13</text>
	<text transform="matrix(1 0 0 1 74.50 36.50)">14</text>
	<text transform="matrix(1 0 0 1 76.50 47.50)">15</text>
	<text transform="matrix(1 0 0 1 70.50 56.50)">16</text>
</g>
</svg>