<svg xmlns="http://www.w3.org/2000/svg" xmlns:kvg="http://kanjivg.tagaini.net" height="109" kun="&#12354;&#12383;.&#12427;, &#12414;&#12373;&#12395;, &#12371;&#12383;.&#12360;&#12427;" meaning="apply, answer, yes, OK, reply, accept" on="&#12458;&#12454;, &#12520;&#12454;, -&#12494;&#12454;" viewBox="0 0 109 109" width="109">
<g id="kvg:StrokePaths_05fdc" style="fill:none;stroke:#000000;stroke-width:3;stroke-linecap:round;stroke-linejoin:round;">
<g id="kvg:05fdc" kvg:element="&#24540;">
	<g id="kvg:05fdc-g1" kvg:element="&#24191;" kvg:phon="&#24191;/&#38593;V" kvg:position="kamae" kvg:radical="nelson">
		<path d="M54.31,13.88c0.9,0.9,1.51,2.62,1.51,3.9c0,0.79,0.08,6.65-0.07,11.46" id="kvg:05fdc-s1" kvg:type="&#12753;a" />
		<g id="kvg:05fdc-g2" kvg:element="&#21378;">
			<path d="M22.63,31.72c2.8,0.72,5.93,0.29,8.77,0.03c17.31-1.57,36.37-3.58,50.98-4.49c2.88-0.18,5.54-0.37,8.38,0.07" id="kvg:05fdc-s2" kvg:type="&#12752;" />
			<path d="M25.74,32.5c1.13,1.13,1.26,2.89,1.16,4.92c-0.65,12.33-3.02,40.21-15.34,53.8" id="kvg:05fdc-s3" kvg:type="&#12754;" />
		</g>
	</g>
	<g id="kvg:05fdc-g3" kvg:element="&#24515;" kvg:radical="tradit">
		<path d="M34.06,71.29c0.42,2.64-4.2,14.31-7.56,18.71" id="kvg:05fdc-s4" kvg:type="&#12756;" />
		<path d="M42.43,54.4C50.5,75.5,61.75,92.75,85.6,92.29C92,92.17,90,88,87.06,83.7" id="kvg:05fdc-s5" kvg:type="&#12767;b" />
		<path d="M59.13,52.38c2.37,5.62,6.31,10.68,7.44,5.26" id="kvg:05fdc-s6" kvg:type="&#12756;a" />
		<path d="M85.88,52c3.88,3.88,7.5,8.88,9.88,15.43" id="kvg:05fdc-s7" kvg:type="&#12756;" />
	</g>
</g>
</g>
<g id="kvg:StrokeNumbers_05fdc" style="font-size:8;fill:#808080">
	<text transform="matrix(1 0 0 1 45.50 14.50)">1</text>
	<text transform="matrix(1 0 0 1 26.50 29.50)">2</text>
	<text transform="matrix(1 0 0 1 18.50 41.50)">3</text>
	<text transform="matrix(1 0 0 1 31.50 64.63)">4</text>
	<text transform="matrix(1 0 0 1 37.50 50.50)">5</text>
	<text transform="matrix(1 0 0 1 54.50 49.50)">6</text>
	<text transform="matrix(1 0 0 1 79.50 48.50)">7</text>
</g>
</svg>