<svg xmlns="http://www.w3.org/2000/svg" xmlns:kvg="http://kanjivg.tagaini.net" height="109" kun="&#12383;&#12385;&#12414;.&#12385;, &#12422;&#12427;&#12364;.&#12379;" meaning="in a moment, instantly, all of a sudden, neglect, disregard" on="&#12467;&#12484;" viewBox="0 0 109 109" width="109">
<g id="kvg:StrokePaths_05ffd" style="fill:none;stroke:#000000;stroke-width:3;stroke-linecap:round;stroke-linejoin:round;">
<g id="kvg:05ffd" kvg:element="&#24573;">
	<g id="kvg:05ffd-g1" kvg:element="&#21247;" kvg:position="top">
		<g id="kvg:05ffd-g2" kvg:element="&#21241;">
			<g id="kvg:05ffd-g3" kvg:element="&#20031;">
				<path d="M40.92,13.5c0.11,0.99-0.28,1.94-0.65,2.85c-2.77,5.02-7.82,12.04-14.67,18.47" id="kvg:05ffd-s1" kvg:type="&#12754;" />
			</g>
			<path d="M39.45,23.77c2.55,0.73,4.11,0.59,6.42,0.32c7.19-1.02,22.76-3.34,30.51-4.27c4.43-0.53,6.37,0.85,5.22,5.25c-1.72,6.6-5.73,20.92-13.02,29.36c-5.03,5.82-7.37,6.03-10.91,3.55" id="kvg:05ffd-s2" kvg:type="&#12742;" />
		</g>
		<g id="kvg:05ffd-g4" kvg:element="&#20031;">
			<path d="M48.84,27.03c0,1.1-0.31,2.05-0.85,2.95c-3.12,5.27-7.24,9.9-16.11,15.46" id="kvg:05ffd-s3" kvg:type="&#12754;" />
		</g>
		<g id="kvg:05ffd-g5" kvg:element="&#20031;">
			<path d="M66.04,25.02c0.09,0.79,0.07,1.85-0.43,2.94C62.25,35.25,51.62,49,34.2,58.18" id="kvg:05ffd-s4" kvg:type="&#12754;" />
		</g>
	</g>
	<g id="kvg:05ffd-g6" kvg:element="&#24515;" kvg:position="bottom" kvg:radical="general">
		<path d="M21.89,78.32c0.39,2.39-4.17,12.69-7.31,16.67" id="kvg:05ffd-s5" kvg:type="&#12756;" />
		<path d="M33.58,72.75c6.92,14,18.68,24.22,43.14,22.93c13.03-0.68,13.9-3.56,3.38-10.3" id="kvg:05ffd-s6" kvg:type="&#12767;b" />
		<path d="M53.16,71.25c2.17,5.25,5.57,10.75,7.88,2.71" id="kvg:05ffd-s7" kvg:type="&#12756;a" />
		<path d="M83.13,67.23c4.74,2.89,7.87,5.52,11.35,11.86" id="kvg:05ffd-s8" kvg:type="&#12756;" />
	</g>
</g>
</g>
<g id="kvg:StrokeNumbers_05ffd" style="font-size:8;fill:#808080">
	<text transform="matrix(1 0 0 1 32.50 12.50)">1</text>
	<text transform="matrix(1 0 0 1 46.50 20.50)">2</text>
	<text transform="matrix(1 0 0 1 38.50 33.48)">3</text>
	<text transform="matrix(1 0 0 1 55.50 32.50)">4</text>
	<text transform="matrix(1 0 0 1 16.50 76.33)">5</text>
	<text transform="matrix(1 0 0 1 27.50 73.50)">6</text>
	<text transform="matrix(1 0 0 1 46.25 71.50)">7</text>
	<text transform="matrix(1 0 0 1 76.25 69.50)">8</text>
</g>
</svg>