<svg xmlns="http://www.w3.org/2000/svg" xmlns:kvg="http://kanjivg.tagaini.net" height="109" kun="&#12371;&#12431;.&#12356;, &#12371;&#12431;.&#12364;&#12427;, &#12362;.&#12376;&#12427;, &#12362;&#12381;.&#12428;&#12427;" meaning="dreadful, be frightened, fearful" on="&#12501;, &#12507;" viewBox="0 0 109 109" width="109">
<g id="kvg:StrokePaths_06016" style="fill:none;stroke:#000000;stroke-width:3;stroke-linecap:round;stroke-linejoin:round;">
<g id="kvg:06016" kvg:element="&#24598;">
	<g id="kvg:06016-g1" kvg:element="&#24516;" kvg:original="&#24515;" kvg:position="left" kvg:radical="general" kvg:variant="true">
		<path d="M16,38.25c0,6.61-2.97,16.36-3.75,18.25" id="kvg:06016-s1" kvg:type="&#12756;" />
		<path d="M31.77,34.58c2.4,2.01,6.19,8.26,6.79,11.38" id="kvg:06016-s2" kvg:type="&#12756;" />
		<path d="M24.37,13.75c1.06,1.06,1.46,2.5,1.46,3.75c0,0.67,0.04,49.44,0.04,70.5c0,5.63,0,9.28-0.01,9.5" id="kvg:06016-s3" kvg:type="&#12753;" />
	</g>
	<g id="kvg:06016-g2" kvg:element="&#24067;" kvg:phon="&#24067;" kvg:position="right">
		<path d="M65.46,11.93c0.41,1.32,0.35,2.68-0.15,4.52c-3.81,13.8-11.06,34.43-25.45,49.21" id="kvg:06016-s4" kvg:type="&#12754;" />
		<path d="M37.5,30.95c3.38,0.68,6.19,0.57,8.77,0.23c10.54-1.38,29.24-4.14,42.48-5.46c2.95-0.29,6.13-0.5,8.99,0.32" id="kvg:06016-s5" kvg:type="&#12752;" />
		<g id="kvg:06016-g3" kvg:element="&#24062;">
			<path d="M53.73,53.14c0.94,0.94,1.13,2.24,1.13,3.46c0,0.52-0.11,15.09-0.11,24.15c0,2.86,0.02,4.61,0,5.62" id="kvg:06016-s6" kvg:type="&#12753;" />
			<path d="M55.73,55.03c5.27-0.78,23.02-3.53,28-4.33c3.08-0.5,4.39,1.68,4.39,4.08c0,9.6,0.5,17.6-1.32,27.47c-1.05,5.68-4.49,0.05-5.38-1.08" id="kvg:06016-s7" kvg:type="&#12742;a" />
			<path d="M69.49,38.13c0.94,0.94,1.09,2.37,1.09,3.71c0,0.54-0.01,32.9-0.01,49.02c0,4.23-0.05,7.25-0.08,8.13" id="kvg:06016-s8" kvg:type="&#12753;" />
		</g>
	</g>
</g>
</g>
<g id="kvg:StrokeNumbers_06016" style="font-size:8;fill:#808080">
	<text transform="matrix(1 0 0 1 10.50 38.50)">1</text>
	<text transform="matrix(1 0 0 1 28.50 44.50)">2</text>
	<text transform="matrix(1 0 0 1 15.50 13.63)">3</text>
	<text transform="matrix(1 0 0 1 57.50 11.50)">4</text>
	<text transform="matrix(1 0 0 1 36.50 27.13)">5</text>
	<text transform="matrix(1 0 0 1 47.25 66.50)">6</text>
	<text transform="matrix(1 0 0 1 57.50 51.50)">7</text>
	<text transform="matrix(1 0 0 1 62.50 39.50)">8</text>
</g>
</svg>