<svg xmlns="http://www.w3.org/2000/svg" xmlns:kvg="http://kanjivg.tagaini.net" height="109" meaning="think" viewBox="0 0 109 109" width="109">
<g id="kvg:StrokePaths_0601d" style="fill:none;stroke:#000000;stroke-width:3;stroke-linecap:round;stroke-linejoin:round;">
<g id="kvg:0601d" kvg:element="&#24605;">
	<g id="kvg:0601d-g1" kvg:element="&#30000;" kvg:position="top" kvg:radical="nelson">
		<path d="M26.25,19.11c1.26,1.26,2.03,2.95,2.29,4.64c1.21,8.13,2.4,17.99,3.26,26.47c0.15,1.45,0.29,2.81,0.42,4.03" id="kvg:0601d-s1" kvg:type="&#12753;" />
		<path d="M28.75,21c18.13-2.25,36-4,48.68-4.52c3.81-0.16,4.75,2.83,4.54,4.23c-0.65,4.39-2.25,17.38-3.9,26.31c-0.28,1.5-0.57,2.9-0.86,4.15" id="kvg:0601d-s2" kvg:type="&#12757;a" />
		<path d="M53.32,19.5c0.84,0.84,1.3,2.42,1.29,3.6c-0.07,6.5,0.06,22.72,0.06,24.65" id="kvg:0601d-s3" kvg:type="&#12753;a" />
		<path d="M31.5,35.75c10.25-1.12,36.75-3.75,47.35-3.97" id="kvg:0601d-s4" kvg:type="&#12752;a" />
		<path d="M33.25,51.25C44.06,49.86,67.5,48,77.33,47.59" id="kvg:0601d-s5" kvg:type="&#12752;a" />
	</g>
	<g id="kvg:0601d-g2" kvg:element="&#24515;" kvg:position="bottom" kvg:radical="tradit">
		<path d="M23.11,69.79C22.62,76,20.83,83.92,19,88.42" id="kvg:0601d-s6" kvg:type="&#12756;" />
		<path d="M34.35,64.42c5.15,15.83,21.36,30.41,47.26,28.12c8.89-0.79,8.39-2.79,3.2-8.1" id="kvg:0601d-s7" kvg:type="&#12767;b" />
		<path d="M55.47,61.5c2.15,4.88,5.87,9.87,7.01,4.47" id="kvg:0601d-s8" kvg:type="&#12756;a" />
		<path d="M83,60.75c3.62,2.5,7.75,6.62,10.25,11.72" id="kvg:0601d-s9" kvg:type="&#12756;" />
	</g>
</g>
</g>
<g id="kvg:StrokeNumbers_0601d" style="font-size:8;fill:#808080">
	<text transform="matrix(1 0 0 1 20.50 26.50)">1</text>
	<text transform="matrix(1 0 0 1 31.50 17.50)">2</text>
	<text transform="matrix(1 0 0 1 46.50 27.13)">3</text>
	<text transform="matrix(1 0 0 1 34.50 32.50)">4</text>
	<text transform="matrix(1 0 0 1 36.50 47.50)">5</text>
	<text transform="matrix(1 0 0 1 17.50 67.63)">6</text>
	<text transform="matrix(1 0 0 1 27.75 65.50)">7</text>
	<text transform="matrix(1 0 0 1 48.50 61.63)">8</text>
	<text transform="matrix(1 0 0 1 73.50 61.63)">9</text>
</g>
</svg>