<svg xmlns="http://www.w3.org/2000/svg" xmlns:kvg="http://kanjivg.tagaini.net" height="109" kun="&#12362;&#12371;&#12383;.&#12427;, &#12394;&#12414;.&#12369;&#12427;" meaning="neglect, laziness" on="&#12479;&#12452;" viewBox="0 0 109 109" width="109">
<g id="kvg:StrokePaths_06020" style="fill:none;stroke:#000000;stroke-width:3;stroke-linecap:round;stroke-linejoin:round;">
<g id="kvg:06020" kvg:element="&#24608;">
	<g id="kvg:06020-g1" kvg:element="&#21488;" kvg:phon="&#21488;" kvg:position="top">
		<g id="kvg:06020-g2" kvg:element="&#21430;" kvg:position="top" kvg:radical="nelson">
			<path d="M51.24,9.25c0.01,1.62-0.47,2.77-1.62,4C44.5,18.75,38,24.5,29.47,31.33c-2.97,2.38-2.58,3.89,1.24,3.09c8.24-1.72,29.07-5.74,42.67-7.92" id="kvg:06020-s1" kvg:type="&#12764;" />
			<path d="M66.7,18.19c4.65,2.84,12.01,11.7,13.17,16.12" id="kvg:06020-s2" kvg:type="&#12756;" />
		</g>
		<g id="kvg:06020-g3" kvg:element="&#21475;" kvg:position="bottom">
			<path d="M31.11,42.67c0.88,0.54,1.39,1.56,1.63,2.54C34,50.5,35.2,55.92,36.25,61.7c0.23,1.26,0.44,2.46,0.62,3.55" id="kvg:06020-s3" kvg:type="&#12753;" />
			<path d="M33.37,44.23c13.56-1.4,28.03-2.7,36.37-3.46c3.24-0.3,5.13,0.61,4.51,4.01c-0.85,4.59-1.37,6.85-2.9,13.76" id="kvg:06020-s4" kvg:type="&#12757;b" />
			<path d="M37.67,62.61C49.5,61.5,56.38,60.75,69,59.8c1.45-0.11,2.93-0.09,4.44-0.09" id="kvg:06020-s5" kvg:type="&#12752;b" />
		</g>
	</g>
	<g id="kvg:06020-g4" kvg:element="&#24515;" kvg:position="bottom" kvg:radical="tradit">
		<path d="M25.89,78.57C25,84.5,21.55,90.49,18.08,94.24" id="kvg:06020-s6" kvg:type="&#12756;" />
		<path d="M38.58,75.75C46,88.5,53.5,97.79,77.28,97.93c11.47,0.07,12.22-3.15,2.65-8.52" id="kvg:06020-s7" kvg:type="&#12767;b" />
		<path d="M55.91,74.25c3.84,5.5,7.34,6.88,7.63,2.46" id="kvg:06020-s8" kvg:type="&#12756;a" />
		<path d="M84.88,71.23c4.04,2.82,8.49,8.14,11.1,14.61" id="kvg:06020-s9" kvg:type="&#12756;" />
	</g>
</g>
</g>
<g id="kvg:StrokeNumbers_06020" style="font-size:8;fill:#808080">
	<text transform="matrix(1 0 0 1 44.25 8.50)">1</text>
	<text transform="matrix(1 0 0 1 59.25 18.13)">2</text>
	<text transform="matrix(1 0 0 1 24.75 50.50)">3</text>
	<text transform="matrix(1 0 0 1 36.75 41.50)">4</text>
	<text transform="matrix(1 0 0 1 40.50 59.50)">5</text>
	<text transform="matrix(1 0 0 1 20.50 76.63)">6</text>
	<text transform="matrix(1 0 0 1 32.25 75.50)">7</text>
	<text transform="matrix(1 0 0 1 48.50 75.50)">8</text>
	<text transform="matrix(1 0 0 1 76.50 72.50)">9</text>
</g>
</svg>