<svg xmlns="http://www.w3.org/2000/svg" xmlns:kvg="http://kanjivg.tagaini.net" height="109" kun="&#12354;&#12420;.&#12375;&#12356;, &#12354;&#12420;.&#12375;&#12416;" meaning="suspicious, mystery, apparition" on="&#12459;&#12452;, &#12465;" viewBox="0 0 109 109" width="109">
<g id="kvg:StrokePaths_06060" style="fill:none;stroke:#000000;stroke-width:3;stroke-linecap:round;stroke-linejoin:round;">
<g id="kvg:06060" kvg:element="&#24672;">
	<g id="kvg:06060-g1" kvg:element="&#24516;" kvg:original="&#24515;" kvg:position="left" kvg:radical="general" kvg:variant="true">
		<path d="M17.72,33.75c0,6.61-3.72,16.36-4.69,18.25" id="kvg:06060-s1" kvg:type="&#12756;" />
		<path d="M29.27,30.83c2.93,2.32,7.56,9.53,8.29,13.13" id="kvg:06060-s2" kvg:type="&#12756;" />
		<path d="M25.36,13.75c1.1,0.51,1.76,2.28,1.98,3.29c0.22,1.01,0,72.13-0.22,78.46" id="kvg:06060-s3" kvg:type="&#12753;" />
	</g>
	<g id="kvg:06060-g2" kvg:element="&#22312;" kvg:position="right">
		<path d="M42.86,30c1.13,0.28,3.21,0.36,4.34,0.28c9.27-0.59,31.29-3.46,42.88-4.03c1.88-0.09,3.02,0.14,3.96,0.28" id="kvg:06060-s4" kvg:type="&#12752;" />
		<g id="kvg:06060-g3" kvg:element="&#20155;" kvg:original="&#20154;" kvg:variant="true">
			<path d="M62.7,14.18c0.07,1.26,0.18,3.27-0.15,5.08C60.09,32.67,52.51,54.1,36.39,67.9" id="kvg:06060-s5" kvg:type="&#12754;" />
			<path d="M46.91,51.75c0.55,0.34,0.88,1.51,0.99,2.18s0,33.87-0.11,38.07" id="kvg:06060-s6" kvg:type="&#12753;" />
		</g>
		<g id="kvg:06060-g4" kvg:element="&#22303;">
			<path d="M57.13,59.06c0.96,0.27,2.73,0.37,3.69,0.27c7.43-0.83,16.93-2.58,26.02-3.56c1.59-0.17,2.57,0.13,3.37,0.26" id="kvg:06060-s7" kvg:type="&#12752;" />
			<path d="M70.96,39.87c0.15,0.47,2.24,2.45,2.24,5.45c0,19.77,0.19,15.78,0.19,41.64" id="kvg:06060-s8" kvg:type="&#12753;a" />
			<path d="M54.96,88.51c1.03,0.31,2.91,0.38,3.94,0.31c12.72-0.86,22.14-2.56,33.52-2.96c1.71-0.06,2.74,0.15,3.6,0.3" id="kvg:06060-s9" kvg:type="&#12752;" />
		</g>
	</g>
</g>
</g>
<g id="kvg:StrokeNumbers_06060" style="font-size:8;fill:#808080">
	<text transform="matrix(1 0 0 1 12.50 33.50)">1</text>
	<text transform="matrix(1 0 0 1 31.50 29.50)">2</text>
	<text transform="matrix(1 0 0 1 15.50 13.50)">3</text>
	<text transform="matrix(1 0 0 1 41.50 26.15)">4</text>
	<text transform="matrix(1 0 0 1 54.25 13.50)">5</text>
	<text transform="matrix(1 0 0 1 38.50 51.50)">6</text>
	<text transform="matrix(1 0 0 1 55.50 55.50)">7</text>
	<text transform="matrix(1 0 0 1 62.50 41.50)">8</text>
	<text transform="matrix(1 0 0 1 52.50 84.50)">9</text>
</g>
</svg>