<svg xmlns="http://www.w3.org/2000/svg" xmlns:kvg="http://kanjivg.tagaini.net" height="109" kun="&#12414;&#12372;&#12371;&#12429;" meaning="sincerity" on="&#12467;&#12531;" viewBox="0 0 109 109" width="109">
<g id="kvg:StrokePaths_06083" style="fill:none;stroke:#000000;stroke-width:3;stroke-linecap:round;stroke-linejoin:round;">
<g id="kvg:06083" kvg:element="&#24707;">
	<g id="kvg:06083-g1" kvg:element="&#24516;" kvg:original="&#24515;" kvg:position="left" kvg:radical="general" kvg:variant="true">
		<path d="M16.22,34.5c0.03,4.31-2.47,14.14-4.69,17.5" id="kvg:06083-s1" kvg:type="&#12756;" />
		<path d="M30.52,32.33c1.78,2.41,4.6,9.89,5.04,13.63" id="kvg:06083-s2" kvg:type="&#12756;" />
		<path d="M21.87,14.25c1.09,0.5,1.74,2.25,1.96,3.25c0.22,1,0,71.75-0.22,78" id="kvg:06083-s3" kvg:type="&#12753;" />
	</g>
	<g id="kvg:06083-g2" kvg:element="&#22256;" kvg:position="right">
		<g id="kvg:06083-g3" kvg:element="&#22231;" kvg:part="1">
			<path d="M41,19.46c0.55,1.38,1.35,2.41,1.37,4.23c0.1,13.71,0.1,46.13-0.23,72.31" id="kvg:06083-s4" kvg:type="&#12753;" />
			<path d="M42.56,21.7C56,20,79.82,18.42,88.67,17.75c3.33-0.25,4.61,0.89,4.58,3.78c-0.18,15.13-0.74,52.19-0.37,73.57" id="kvg:06083-s5" kvg:type="&#12757;a" />
		</g>
		<g id="kvg:06083-g4" kvg:element="&#26408;">
			<path d="M50.31,43.83c0.97,0.41,2.06,0.47,3.18,0.41c6.04-0.33,18.76-1.99,28.1-2.31c1.11-0.04,1.52-0.11,2.35,0" id="kvg:06083-s6" kvg:type="&#12752;" />
			<path d="M65.11,26.92c0.69,0.36,1.1,1.62,1.24,2.34c0.14,0.72,0,51.41-0.14,55.92" id="kvg:06083-s7" kvg:type="&#12753;" />
			<path d="M66.39,43.67C63.46,54.08,55.6,70,49.51,75.9" id="kvg:06083-s8" kvg:type="&#12754;" />
			<path d="M66.04,43.73C69,49.5,78.5,66.25,82.91,70.93c1.09,1.16,1.7,1.85,2.62,2.22" id="kvg:06083-s9" kvg:type="&#12751;" />
		</g>
		<g id="kvg:06083-g5" kvg:element="&#22231;" kvg:part="2">
			<path d="M42.34,92.13c14.91-0.38,36.77-1.02,50.05-1.41" id="kvg:06083-s10" kvg:type="&#12752;a" />
		</g>
	</g>
</g>
</g>
<g id="kvg:StrokeNumbers_06083" style="font-size:8;fill:#808080">
	<text transform="matrix(1 0 0 1 10.50 33.50)">1</text>
	<text transform="matrix(1 0 0 1 28.50 29.50)">2</text>
	<text transform="matrix(1 0 0 1 13.44 14.98)">3</text>
	<text transform="matrix(1 0 0 1 34.75 26.50)">4</text>
	<text transform="matrix(1 0 0 1 45.50 17.50)">5</text>
	<text transform="matrix(1 0 0 1 47.50 40.50)">6</text>
	<text transform="matrix(1 0 0 1 56.50 30.18)">7</text>
	<text transform="matrix(1 0 0 1 56.50 53.50)">8</text>
	<text transform="matrix(1 0 0 1 73.50 52.50)">9</text>
	<text transform="matrix(1 0 0 1 46.50 88.50)">10</text>
</g>
</svg>