<svg xmlns="http://www.w3.org/2000/svg" xmlns:kvg="http://kanjivg.tagaini.net" height="109" kun="&#12358;&#12428;.&#12360;&#12427;" meaning="anxiety" on="&#12471;&#12519;&#12454;" viewBox="0 0 109 109" width="109">
<g id="kvg:StrokePaths_06084" style="fill:none;stroke:#000000;stroke-width:3;stroke-linecap:round;stroke-linejoin:round;">
<g id="kvg:06084" kvg:element="&#24708;">
	<g id="kvg:06084-g1" kvg:element="&#24516;" kvg:original="&#24515;" kvg:position="left" kvg:radical="general" kvg:variant="true">
		<path d="M16.22,35.25c0.02,4.38-1.94,14.35-3.69,17.75" id="kvg:06084-s1" kvg:type="&#12756;" />
		<path d="M28.02,29.33c2.84,1.96,7.33,8.08,8.04,11.13" id="kvg:06084-s2" kvg:type="&#12756;" />
		<path d="M23.37,12.25c1.09,0.5,1.74,2.25,1.96,3.25c0.22,1,0,75.25-0.22,81.5" id="kvg:06084-s3" kvg:type="&#12753;" />
	</g>
	<g id="kvg:06084-g2" kvg:element="&#32918;" kvg:position="right" kvg:variant="true">
		<g id="kvg:06084-g3" kvg:element="&#11916;" kvg:original="&#23567;" kvg:position="top" kvg:variant="true">
			<path d="M66.49,12.5c0.12,0.38,1.67,1.95,1.67,4.34c0,8.16,0.09,21.01,0.09,24.91" id="kvg:06084-s4" kvg:type="&#12753;" />
			<path d="M55.21,24.6c0.03,0.4,0.07,1.02-0.07,1.59c-0.86,3.35-6.04,10.63-10.75,14.33" id="kvg:06084-s5" kvg:type="&#12754;" />
			<path d="M80.56,23.83c5.5,2.82,12.45,9.61,13.82,13.99" id="kvg:06084-s6" kvg:type="&#12756;" />
		</g>
		<g id="kvg:06084-g4" kvg:element="&#26376;" kvg:position="bottom">
			<path d="M50.86,41.98c0.66,0.94,1.1,1.88,1.32,2.82c0.22,0.94,0.31,48.65,0.22,50.76" id="kvg:06084-s7" kvg:type="&#12754;" />
			<path d="M52.49,44.92c2.64-0.23,27.38-2.73,29.34-2.99c3.52-0.47,4.39,2.98,4.39,4.46c0,10.12-0.16,25.77-0.16,44.78c0,11.4-5.93,2.61-7.91,0.97" id="kvg:06084-s8" kvg:type="&#12742;a" />
			<path d="M52.99,58.41c10.76-0.91,25.22-1.61,33.13-2.32" id="kvg:06084-s9" kvg:type="&#12752;a" />
			<path d="M52.83,72.77c7.03-0.7,24.79-1.85,32.91-2.32" id="kvg:06084-s10" kvg:type="&#12752;a" />
		</g>
	</g>
</g>
</g>
<g id="kvg:StrokeNumbers_06084" style="font-size:8;fill:#808080">
	<text transform="matrix(1 0 0 1 11.50 32.50)">1</text>
	<text transform="matrix(1 0 0 1 29.50 27.06)">2</text>
	<text transform="matrix(1 0 0 1 14.50 11.50)">3</text>
	<text transform="matrix(1 0 0 1 56.50 12.50)">4</text>
	<text transform="matrix(1 0 0 1 46.50 23.50)">5</text>
	<text transform="matrix(1 0 0 1 78.50 21.50)">6</text>
	<text transform="matrix(1 0 0 1 44.50 50.50)">7</text>
	<text transform="matrix(1 0 0 1 55.50 41.50)">8</text>
	<text transform="matrix(1 0 0 1 56.50 54.50)">9</text>
	<text transform="matrix(1 0 0 1 55.50 69.50)">10</text>
</g>
</svg>