<svg xmlns="http://www.w3.org/2000/svg" xmlns:kvg="http://kanjivg.tagaini.net" height="109" meaning="permanence, distant, long time, leisure" viewBox="0 0 109 109" width="109">
<g id="kvg:StrokePaths_060a0" style="fill:none;stroke:#000000;stroke-width:3;stroke-linecap:round;stroke-linejoin:round;">
<g id="kvg:060a0" kvg:element="&#24736;">
	<g id="kvg:060a0-g1" kvg:element="&#25912;" kvg:phon="&#25912;" kvg:position="top">
		<g id="kvg:060a0-g2" kvg:element="&#20155;" kvg:original="&#20154;" kvg:position="left" kvg:variant="true">
			<path d="M36.51,12.13c0.23,1.53-0.31,2.54-1.05,3.86c-4.71,8.38-10.92,17.25-21.71,27.44" id="kvg:060a0-s1" kvg:type="&#12754;" />
			<path d="M28.03,31.49c0.8,0.8,1.05,1.76,1.05,2.99c0,3.39-0.01,16.39-0.01,24.27c0,2-0.08,3.84-0.08,5.5" id="kvg:060a0-s2" kvg:type="&#12753;" />
		</g>
		<g id="kvg:060a0-g3" kvg:position="right">
			<g id="kvg:060a0-g4" kvg:element="&#20008;">
				<path d="M43.02,23.39c0.86,0.86,1.26,1.99,1.26,4.04c0,6.31,0.08,12.57,0.08,19.32c0,2.99-0.1,5.33-0.1,6.43" id="kvg:060a0-s3" kvg:type="&#12753;" />
			</g>
			<g id="kvg:060a0-g5" kvg:element="&#25908;" kvg:original="&#25909;" kvg:variant="true">
				<g id="kvg:060a0-g6" kvg:position="top">
					<path d="M66.35,10.89c0.04,0.58-0.03,1.79-0.32,2.59c-1.89,5.13-6.5,15.76-13.03,22.85" id="kvg:060a0-s4" kvg:type="&#12754;" />
					<path d="M65.22,22.86c-0.08,0.29,4.31,0.14,4.14,0.16c4.74-0.48,8.51-1.68,15.4-2.28c1.43-0.12,3.21-0.49,4.63-0.13" id="kvg:060a0-s5" kvg:type="&#12752;" />
				</g>
				<g id="kvg:060a0-g7" kvg:element="&#20034;" kvg:position="bottom">
					<g id="kvg:060a0-g8" kvg:element="&#20031;">
						<path d="M79.91,25.49c0.34,1.13,0.16,2.13-0.53,3.71C73,43.75,66.88,51.25,52.37,61.85" id="kvg:060a0-s6" kvg:type="&#12754;" />
					</g>
					<path d="M60.25,34.78c2.62,0.19,15.06,12.92,25.33,19.42c2.55,1.61,5.17,3.17,8.42,4.18" id="kvg:060a0-s7" kvg:type="&#12751;" />
				</g>
			</g>
		</g>
	</g>
	<g id="kvg:060a0-g9" kvg:element="&#24515;" kvg:position="bottom" kvg:radical="general">
		<path d="M23,78.25c0.34,2.26-3.43,12.22-6.17,15.99" id="kvg:060a0-s8" kvg:type="&#12756;" />
		<path d="M32.08,72c7.4,13.66,18.84,25.26,47.35,25.43c13.76,0.08,14.91-3.89,3.43-10.11" id="kvg:060a0-s9" kvg:type="&#12767;b" />
		<path d="M52.91,70c2.06,5.25,5.06,10.5,7.26,2.46" id="kvg:060a0-s10" kvg:type="&#12756;a" />
		<path d="M77.38,67.11c5.41,1.9,9.46,3.62,13.85,9.49" id="kvg:060a0-s11" kvg:type="&#12756;" />
	</g>
</g>
</g>
<g id="kvg:StrokeNumbers_060a0" style="font-size:8;fill:#808080">
	<text transform="matrix(1 0 0 1 27.50 11.88)">1</text>
	<text transform="matrix(1 0 0 1 21.50 45.25)">2</text>
	<text transform="matrix(1 0 0 1 36.50 30.25)">3</text>
	<text transform="matrix(1 0 0 1 57.50 11.88)">4</text>
	<text transform="matrix(1 0 0 1 70.25 19.25)">5</text>
	<text transform="matrix(1 0 0 1 71.25 31.38)">6</text>
	<text transform="matrix(1 0 0 1 63.25 34.38)">7</text>
	<text transform="matrix(1 0 0 1 16.25 78.25)">8</text>
	<text transform="matrix(1 0 0 1 28.25 82.25)">9</text>
	<text transform="matrix(1 0 0 1 42.25 72.25)">10</text>
	<text transform="matrix(1 0 0 1 67.25 70.25)">11</text>
</g>
</svg>