<svg xmlns="http://www.w3.org/2000/svg" xmlns:kvg="http://kanjivg.tagaini.net" height="109" meaning="all" viewBox="0 0 109 109" width="109">
<g id="kvg:StrokePaths_060e3" style="fill:none;stroke:#000000;stroke-width:3;stroke-linecap:round;stroke-linejoin:round;">
<g id="kvg:060e3" kvg:element="&#24803;">
	<g id="kvg:060e3-g1" kvg:element="&#29289;" kvg:position="top">
		<g id="kvg:060e3-g2" kvg:element="&#29275;" kvg:position="left" kvg:variant="true">
			<path d="M23.49,20.47c0.06,1.1,0.12,2.18-0.33,3.19c-1.92,4.34-4.63,8.94-8.61,15.27" id="kvg:060e3-s1" kvg:type="&#12754;" />
			<path d="M24,30.75c6.29-0.62,15.75-2.5,18.62-3.05c1.14-0.22,2.33,0,3.49,0.21" id="kvg:060e3-s2" kvg:type="&#12752;" />
			<path d="M33.62,10.75c1,1,1.08,2.25,1.08,3.43c0,0.69,0.03,32.83,0.04,47.82c0,3.41,0,5.94,0,7" id="kvg:060e3-s3" kvg:type="&#12753;" />
			<path d="M16.17,51.13c1.66,0.99,2.79,0.92,4.44,0.07c0.98-0.5,17.69-8.63,21.83-11.05" id="kvg:060e3-s4" kvg:type="&#12736;" />
		</g>
		<g id="kvg:060e3-g3" kvg:element="&#21247;" kvg:position="right">
			<g id="kvg:060e3-g4" kvg:element="&#21241;">
				<g id="kvg:060e3-g5" kvg:element="&#20031;">
					<path d="M61.87,11.75c0.08,1.45,0.05,2.88-0.46,4.26c-2.91,7.86-5.74,15.25-11.87,23.53" id="kvg:060e3-s5" kvg:type="&#12754;" />
				</g>
				<path d="M60,26.33c1.98,0.78,4.09,0.27,6.13,0.05c6.12-0.64,14.25-1.89,20.81-2.52c4.58-0.44,5.2,1.5,4.58,4.68C90.25,35,88.25,49.25,80.08,61.42c-2.22,3.31-4.83,2.08-7.36-1.25" id="kvg:060e3-s6" kvg:type="&#12742;" />
			</g>
			<g id="kvg:060e3-g6" kvg:element="&#20031;">
				<path d="M64.05,30.34c0.08,1.08,0,2.02-0.45,3.02c-2.71,6.1-5.88,11-11.96,17.1" id="kvg:060e3-s7" kvg:type="&#12754;" />
			</g>
			<g id="kvg:060e3-g7" kvg:element="&#20031;">
				<path d="M76.48,28.91c0.11,1.37-0.1,2.51-0.65,3.8c-3.62,8.49-9.62,19.43-21.07,29.33" id="kvg:060e3-s8" kvg:type="&#12754;" />
			</g>
		</g>
	</g>
	<g id="kvg:060e3-g8" kvg:element="&#24515;" kvg:position="bottom" kvg:radical="general">
		<path d="M23.39,81.32c0.35,2.28-3.51,12.36-6.31,16.17" id="kvg:060e3-s9" kvg:type="&#12756;" />
		<path d="M36.33,77.5c6.64,11.27,17.14,21.04,42.74,21.18c12.35,0.07,13.16-4,2.86-9.13" id="kvg:060e3-s10" kvg:type="&#12767;b" />
		<path d="M55.16,74c2.97,5.12,6.22,8.38,8.13,2.46" id="kvg:060e3-s11" kvg:type="&#12756;a" />
		<path d="M82.13,71.98c3.62,2.27,8.37,5.52,11.85,10.36" id="kvg:060e3-s12" kvg:type="&#12756;" />
	</g>
</g>
</g>
<g id="kvg:StrokeNumbers_060e3" style="font-size:8;fill:#808080">
	<text transform="matrix(1 0 0 1 15.25 19.25)">1</text>
	<text transform="matrix(1 0 0 1 27.25 27.25)">2</text>
	<text transform="matrix(1 0 0 1 25.25 11.25)">3</text>
	<text transform="matrix(1 0 0 1 9.25 54.25)">4</text>
	<text transform="matrix(1 0 0 1 52.25 12.25)">5</text>
	<text transform="matrix(1 0 0 1 65.25 23.25)">6</text>
	<text transform="matrix(1 0 0 1 57.25 36.25)">7</text>
	<text transform="matrix(1 0 0 1 68.25 35.25)">8</text>
	<text transform="matrix(1 0 0 1 18.25 78.25)">9</text>
	<text transform="matrix(1 0 0 1 29.25 86.25)">10</text>
	<text transform="matrix(1 0 0 1 46.25 75.25)">11</text>
	<text transform="matrix(1 0 0 1 71.00 75.25)">12</text>
</g>
</svg>