<svg xmlns="http://www.w3.org/2000/svg" xmlns:kvg="http://kanjivg.tagaini.net" height="109" kun="&#12373;&#12392;.&#12427;" meaning="realize" on="&#12475;&#12452;" viewBox="0 0 109 109" width="109">
<g id="kvg:StrokePaths_060fa" style="fill:none;stroke:#000000;stroke-width:3;stroke-linecap:round;stroke-linejoin:round;">
<g id="kvg:060fa" kvg:element="&#24826;">
	<g id="kvg:060fa-g1" kvg:element="&#24516;" kvg:original="&#24515;" kvg:position="left" kvg:radical="general" kvg:variant="true">
		<path d="M16.72,34.5c0.03,4.31-2.47,14.14-4.69,17.5" id="kvg:060fa-s1" kvg:type="&#12756;" />
		<path d="M30.77,32.83c2.22,2.23,5.74,9.17,6.29,12.63" id="kvg:060fa-s2" kvg:type="&#12756;" />
		<path d="M22.87,13.25c1.09,0.5,1.74,2.25,1.96,3.25c0.22,1,0,74.75-0.22,81" id="kvg:060fa-s3" kvg:type="&#12753;" />
	</g>
	<g id="kvg:060fa-g2" kvg:element="&#26143;" kvg:position="right">
		<g id="kvg:060fa-g3" kvg:element="&#26085;" kvg:position="top">
			<path d="M45.89,16.65c0.67,0.57,1.18,1.88,1.37,2.67c0.49,2.05,3.41,22.57,3.67,23.37" id="kvg:060fa-s4" kvg:type="&#12753;" />
			<path d="M48.2,17.71c3.55-0.29,31.5-3.07,34.73-3.36c2.7-0.25,4.66,0.85,3.92,4.5c-1.33,6.64-2.19,14.21-3.74,21.8" id="kvg:060fa-s5" kvg:type="&#12757;a" />
			<path d="M49.58,28.92c4.81-0.26,29.8-2.22,35.24-2.51" id="kvg:060fa-s6" kvg:type="&#12752;a" />
			<path d="M51.98,40.61c7.12-0.38,20.77-1.71,29.98-2.2" id="kvg:060fa-s7" kvg:type="&#12752;a" />
		</g>
		<g id="kvg:060fa-g4" kvg:element="&#29983;" kvg:position="bottom">
			<path d="M48.79,48.43c0.03,0.53,0.07,1.36-0.07,2.12c-0.79,4.47-5.31,14.29-11.51,20.3" id="kvg:060fa-s8" kvg:type="&#12754;" />
			<path d="M48.92,59.52c0.79,0.26,2.24,0.31,3.04,0.26c5.72-0.37,29.14-2.8,34.08-3.2c1.31-0.11,1.86-0.06,2.56-0.02" id="kvg:060fa-s9" kvg:type="&#12752;" />
			<path d="M64.78,45.64c0.55,0.51,1.82,2.36,1.82,4.83c0,1.02-0.07,33.69-0.18,40.05" id="kvg:060fa-s10" kvg:type="&#12753;a" />
			<path d="M48.29,74.41c0.67,0.23,1.91,0.27,2.58,0.23c4.86-0.32,27.52-3.15,31.7-3.49c1.12-0.09,1.58-0.05,2.18-0.01" id="kvg:060fa-s11" kvg:type="&#12752;" />
			<path d="M39.88,92.8c1.06,0.26,3,0.31,4.07,0.26c7.65-0.37,40.33-2.69,46.93-3.08c1.76-0.11,3.25,0.21,4.88,0.85" id="kvg:060fa-s12" kvg:type="&#12752;" />
		</g>
	</g>
</g>
</g>
<g id="kvg:StrokeNumbers_060fa" style="font-size:8;fill:#808080">
	<text transform="matrix(1 0 0 1 11.50 32.50)">1</text>
	<text transform="matrix(1 0 0 1 29.50 29.05)">2</text>
	<text transform="matrix(1 0 0 1 14.25 13.98)">3</text>
	<text transform="matrix(1 0 0 1 40.50 25.75)">4</text>
	<text transform="matrix(1 0 0 1 49.50 14.50)">5</text>
	<text transform="matrix(1 0 0 1 52.50 25.50)">6</text>
	<text transform="matrix(1 0 0 1 54.50 37.50)">7</text>
	<text transform="matrix(1 0 0 1 40.50 51.50)">8</text>
	<text transform="matrix(1 0 0 1 53.50 56.62)">9</text>
	<text transform="matrix(1 0 0 1 53.50 49.50)">10</text>
	<text transform="matrix(1 0 0 1 45.50 71.50)">11</text>
	<text transform="matrix(1 0 0 1 36.50 89.50)">12</text>
</g>
</svg>