<svg xmlns="http://www.w3.org/2000/svg" xmlns:kvg="http://kanjivg.tagaini.net" height="109" meaning="angered, filled with hate" viewBox="0 0 109 109" width="109">
<g id="kvg:StrokePaths_060f1" style="fill:none;stroke:#000000;stroke-width:3;stroke-linecap:round;stroke-linejoin:round;">
<g id="kvg:060f1" kvg:element="&#24817;">
	<g id="kvg:060f1-g1" kvg:element="&#24516;" kvg:original="&#24515;" kvg:position="left" kvg:radical="tradit" kvg:variant="true">
		<path d="M19.22,34.5c0.03,4.31-2.21,14.14-4.19,17.5" id="kvg:060f1-s1" kvg:type="&#12756;" />
		<path d="M35.27,31.58c1.52,2.54,3.91,10.43,4.29,14.38" id="kvg:060f1-s2" kvg:type="&#12756;" />
		<path d="M25.37,14.25c1.09,0.5,1.74,2.25,1.96,3.25c0.22,1,0,72.25-0.22,78.5" id="kvg:060f1-s3" kvg:type="&#12753;" />
	</g>
	<g id="kvg:060f1-g2" kvg:position="right">
		<g id="kvg:060f1-g3" kvg:element="&#24027;" kvg:position="top">
			<path d="M54.13,15.04c0.12,1.05,0.01,1.82-0.29,2.68c-2.02,5.76-3.64,9.86-8.73,15.95c-0.83,0.99-0.38,0.84,0,1.12c5.5,4.01,6.82,7.56,9.71,15.22" id="kvg:060f1-s4" kvg:type="&#12763;" />
			<path d="M70.6,13.87c0.4,1.13-0.02,2.7-0.36,3.45c-1.74,3.93-3.99,7.68-8.91,13.5c-0.48,0.56-0.23,0.78,0.21,1.1c5.21,3.83,8.21,8.08,10.6,14.74" id="kvg:060f1-s5" kvg:type="&#12763;" />
			<path d="M87.42,12.71c0.33,0.79,0.29,1.67,0.15,2.45c-0.82,4.34-3.32,8.84-8.7,15.5c-0.46,0.57-0.2,0.74,0.21,1.1C85,37,87,41.25,89.18,47.16" id="kvg:060f1-s6" kvg:type="&#12763;" />
		</g>
		<g id="kvg:060f1-g4" kvg:position="bottom">
			<path d="M63.78,47.14c0.02,0.37,0.05,0.95-0.04,1.47c-0.53,3.11-3.55,9.93-7.68,14.1" id="kvg:060f1-s7" kvg:type="&#12754;" />
			<path d="M47.49,61.6c0.3,0.58,0.8,1.98,0.97,2.71c1.34,6.01,3.1,21.69,3.93,32.89" id="kvg:060f1-s8" kvg:type="&#12753;" />
			<path d="M48.38,63.91c10.39-1.51,30.2-4.08,37.96-5.35c2.85-0.47,4.31,1.18,4.16,2.84c-0.54,6.06-2.86,23.06-4.16,33.18" id="kvg:060f1-s9" kvg:type="&#12757;" />
			<g id="kvg:060f1-g5" kvg:element="&#20034;">
				<g id="kvg:060f1-g6" kvg:element="&#20031;">
					<path d="M77.75,65.39c0.05,0.57,0.11,1.46-0.11,2.28c-1.31,4.8-8.81,15.34-19.09,21.8" id="kvg:060f1-s10" kvg:type="&#12754;" />
				</g>
				<path d="M58.52,71.83c6.9,2.63,17.82,10.8,19.54,14.88" id="kvg:060f1-s11" kvg:type="&#12751;" />
			</g>
			<path d="M52.43,95.57c7.48-0.64,22.07-2.07,33.91-2.39" id="kvg:060f1-s12" kvg:type="&#12752;" />
		</g>
	</g>
</g>
</g>
<g id="kvg:StrokeNumbers_060f1" style="font-size:8;fill:#808080">
	<text transform="matrix(1 0 0 1 13.50 33.50)">1</text>
	<text transform="matrix(1 0 0 1 31.50 28.50)">2</text>
	<text transform="matrix(1 0 0 1 16.50 14.50)">3</text>
	<text transform="matrix(1 0 0 1 46.50 15.50)">4</text>
	<text transform="matrix(1 0 0 1 62.50 14.17)">5</text>
	<text transform="matrix(1 0 0 1 79.50 14.50)">6</text>
	<text transform="matrix(1 0 0 1 57.50 46.50)">7</text>
	<text transform="matrix(1 0 0 1 41.75 70.95)">8</text>
	<text transform="matrix(1 0 0 1 50.00 60.12)">9</text>
	<text transform="matrix(1 0 0 1 66.50 68.50)">10</text>
	<text transform="matrix(1 0 0 1 54.50 79.50)">11</text>
	<text transform="matrix(1 0 0 1 64.50 92.50)">12</text>
</g>
</svg>