<svg xmlns="http://www.w3.org/2000/svg" xmlns:kvg="http://kanjivg.tagaini.net" height="109" kun="&#12405;&#12427;.&#12360;&#12427;, &#12362;&#12381;.&#12428;&#12427;, &#12362;&#12398;&#12398;.&#12367;" meaning="fear" on="&#12522;&#12484;" viewBox="0 0 109 109" width="109">
<g id="kvg:StrokePaths_06144" style="fill:none;stroke:#000000;stroke-width:3;stroke-linecap:round;stroke-linejoin:round;">
<g id="kvg:06144" kvg:element="&#24900;">
	<g id="kvg:06144-g1" kvg:element="&#24516;" kvg:original="&#24515;" kvg:position="left" kvg:radical="general" kvg:variant="true">
		<path d="M15.97,36c0.03,4.31-2.07,14.14-3.94,17.5" id="kvg:06144-s1" kvg:type="&#12756;" />
		<path d="M27.52,32.33c2.49,2.14,6.42,8.8,7.04,12.13" id="kvg:06144-s2" kvg:type="&#12756;" />
		<path d="M22.87,15.25c1.09,0.5,1.74,2.25,1.96,3.25c0.22,1,0,71.25-0.22,77.5" id="kvg:06144-s3" kvg:type="&#12753;" />
	</g>
	<g id="kvg:06144-g2" kvg:element="&#26647;" kvg:position="right">
		<g id="kvg:06144-g3" kvg:element="&#35199;" kvg:original="&#35198;" kvg:position="top" kvg:variant="true">
			<path d="M39.59,17.84c1.3,0.47,3.68,0.54,4.98,0.47c11.97-0.64,35.83-4.01,43.85-3.47c2.16,0.15,3.47,0.22,4.55,0.46" id="kvg:06144-s4" kvg:type="&#12752;" />
			<path d="M42.72,29.17c0.32,0.33,0.64,0.6,0.78,1.02c1.1,3.27,2.41,12.28,3.16,18.15" id="kvg:06144-s5" kvg:type="&#12753;" />
			<path d="M44.69,30.29c7.75-1.37,40.45-4.24,44.45-4.7c1.46-0.17,2.34,1.7,2.13,2.7c-0.87,4.12-2.24,10.28-4.1,16.21" id="kvg:06144-s6" kvg:type="&#12757;" />
			<path d="M56.36,20.29c0.84,0.45,1.41,2,1.52,2.9c0.33,2.68,1.1,15.62,1.87,21.88" id="kvg:06144-s7" kvg:type="&#12754;" />
			<path d="M72.78,18.06c0.84,0.45,1.1,2.42,0.88,4.47c-0.58,5.36-0.58,12.83-1.55,21.54" id="kvg:06144-s8" kvg:type="&#12767;" />
			<path d="M46.97,46.18c4.69-0.52,34.93-2.73,40.88-3.25" id="kvg:06144-s9" kvg:type="&#12752;" />
		</g>
		<g id="kvg:06144-g4" kvg:element="&#26408;" kvg:position="bottom">
			<path d="M39.86,61.61c1.85,0.55,3.95,0.73,6.07,0.55c10.83-0.9,27.65-3.55,44.02-4.62c2.11-0.13,3.43,0.1,5.55,0.48" id="kvg:06144-s10" kvg:type="&#12752;" />
			<path d="M64.63,47.54c1.1,0.49,1.98,2.17,1.98,3.17c0,10.25,0,40.76-0.22,46.86" id="kvg:06144-s11" kvg:type="&#12753;" />
			<path d="M66.09,61.11c-6.22,9.7-16.6,21.53-30.84,26.9" id="kvg:06144-s12" kvg:type="&#12754;" />
			<path d="M66.08,61.95c3.81,3.34,21.75,20.09,25.9,23.38c1.41,1.11,2.61,1.59,4.02,1.91" id="kvg:06144-s13" kvg:type="&#12751;" />
		</g>
	</g>
</g>
</g>
<g id="kvg:StrokeNumbers_06144" style="font-size:8;fill:#808080">
	<text transform="matrix(1 0 0 1 10.50 35.50)">1</text>
	<text transform="matrix(1 0 0 1 29.50 30.50)">2</text>
	<text transform="matrix(1 0 0 1 14.75 15.48)">3</text>
	<text transform="matrix(1 0 0 1 37.50 15.50)">4</text>
	<text transform="matrix(1 0 0 1 36.50 36.50)">5</text>
	<text transform="matrix(1 0 0 1 45.50 27.25)">6</text>
	<text transform="matrix(1 0 0 1 50.50 24.50)">7</text>
	<text transform="matrix(1 0 0 1 66.50 23.50)">8</text>
	<text transform="matrix(1 0 0 1 50.50 42.50)">9</text>
	<text transform="matrix(1 0 0 1 37.50 58.70)">10</text>
	<text transform="matrix(1 0 0 1 55.50 54.50)">11</text>
	<text transform="matrix(1 0 0 1 48.50 71.50)">12</text>
	<text transform="matrix(1 0 0 1 74.75 68.50)">13</text>
</g>
</svg>