<svg xmlns="http://www.w3.org/2000/svg" xmlns:kvg="http://kanjivg.tagaini.net" height="109" meaning="get thin" viewBox="0 0 109 109" width="109">
<g id="kvg:StrokePaths_06194" style="fill:none;stroke:#000000;stroke-width:3;stroke-linecap:round;stroke-linejoin:round;">
<g id="kvg:06194" kvg:element="&#24980;">
	<g id="kvg:06194-g1" kvg:element="&#24516;" kvg:original="&#24515;" kvg:position="left" kvg:radical="general" kvg:variant="true">
		<path d="M16.22,35c0.03,4.31-2.47,14.14-4.69,17.5" id="kvg:06194-s1" kvg:type="&#12756;" />
		<path d="M26.52,27.83c3.37,1.79,8.7,7.35,9.54,10.13" id="kvg:06194-s2" kvg:type="&#12756;" />
		<path d="M22.37,12.25c1.09,0.5,1.74,2.25,1.96,3.25c0.22,1,0,76.25-0.22,82.5" id="kvg:06194-s3" kvg:type="&#12753;" />
	</g>
	<g id="kvg:06194-g2" kvg:element="&#28966;" kvg:position="right">
		<g id="kvg:06194-g3" kvg:element="&#38585;" kvg:position="top">
			<g id="kvg:06194-g4" kvg:element="&#20155;" kvg:original="&#20154;" kvg:variant="true">
				<path d="M52.96,12.5c0.17,1.71-0.05,3.94-0.58,5.4c-3.41,9.31-7.74,17.19-15.56,28.53" id="kvg:06194-s4" kvg:type="&#12754;" />
				<path d="M46.37,30.98c0.47,0.71,0.99,1.74,1.03,3.04c0.34,9.82-0.55,36.2-0.23,40.81" id="kvg:06194-s5" kvg:type="&#12753;" />
			</g>
			<path d="M72.45,13.54c0.08,0.85-0.02,1.97-0.28,2.7C70.5,20.9,68.4,24.5,64.6,30.16" id="kvg:06194-s6" kvg:type="&#12754;" />
			<path d="M47.19,32.31c7.61-0.85,39.63-2.32,42.89-2.78" id="kvg:06194-s7" kvg:type="&#12752;b" />
			<path d="M65.86,33.24c0.37,0.33,1.07,2.86,1.07,3.44c0,5.85,0.04,23.62-0.18,32.82" id="kvg:06194-s8" kvg:type="&#12753;a" />
			<path d="M48.21,45.52c7.18-0.7,37.94-2.25,41.03-2.63" id="kvg:06194-s9" kvg:type="&#12752;b" />
			<path d="M47.34,58.41c7.58-0.59,37.67-1.86,40.92-2.18" id="kvg:06194-s10" kvg:type="&#12752;b" />
			<path d="M47.34,71.46c7.61-0.85,41.98-1.47,45.24-1.93" id="kvg:06194-s11" kvg:type="&#12752;b" />
		</g>
		<g id="kvg:06194-g5" kvg:element="&#28780;" kvg:original="&#28779;" kvg:position="bottom" kvg:variant="true">
			<path d="M41.22,82.95c0,5.45-5.28,13.5-6.45,15.05" id="kvg:06194-s12" kvg:type="&#12756;" />
			<path d="M53.8,81.91c1.48,2.71,2.88,10.16,3.25,14.37" id="kvg:06194-s13" kvg:type="&#12756;" />
			<path d="M69.3,80.2c1.73,2.72,4.47,11.19,4.9,15.42" id="kvg:06194-s14" kvg:type="&#12756;" />
			<path d="M84.38,78.97c3.94,3.11,10.19,12.8,11.17,17.64" id="kvg:06194-s15" kvg:type="&#12756;" />
		</g>
	</g>
</g>
</g>
<g id="kvg:StrokeNumbers_06194" style="font-size:8;fill:#808080">
	<text transform="matrix(1 0 0 1 11.50 33.50)">1</text>
	<text transform="matrix(1 0 0 1 28.50 26.50)">2</text>
	<text transform="matrix(1 0 0 1 14.25 12.50)">3</text>
	<text transform="matrix(1 0 0 1 44.50 11.50)">4</text>
	<text transform="matrix(1 0 0 1 39.75 54.45)">5</text>
	<text transform="matrix(1 0 0 1 64.50 13.50)">6</text>
	<text transform="matrix(1 0 0 1 53.50 29.50)">7</text>
	<text transform="matrix(1 0 0 1 59.50 39.50)">8</text>
	<text transform="matrix(1 0 0 1 51.50 42.50)">9</text>
	<text transform="matrix(1 0 0 1 50.50 55.32)">10</text>
	<text transform="matrix(1 0 0 1 50.50 68.25)">11</text>
	<text transform="matrix(1 0 0 1 32.50 81.50)">12</text>
	<text transform="matrix(1 0 0 1 44.50 84.50)">13</text>
	<text transform="matrix(1 0 0 1 59.50 84.50)">14</text>
	<text transform="matrix(1 0 0 1 75.50 82.50)">15</text>
</g>
</svg>