<svg xmlns="http://www.w3.org/2000/svg" xmlns:kvg="http://kanjivg.tagaini.net" height="109" kun="&#12418;&#12384;.&#12360;&#12427;" meaning="worry, agony, anger" on="&#12510;&#12531;, &#12514;&#12531;" viewBox="0 0 109 109" width="109">
<g id="kvg:StrokePaths_061e3" style="fill:none;stroke:#000000;stroke-width:3;stroke-linecap:round;stroke-linejoin:round;">
<g id="kvg:061e3" kvg:element="&#25059;">
	<g id="kvg:061e3-g1" kvg:element="&#28415;" kvg:position="top">
		<g id="kvg:061e3-g2" kvg:element="&#27701;" kvg:original="&#27700;" kvg:position="left" kvg:variant="true">
			<path d="M19.1,15.3c3.48,1.3,8.99,5.36,9.87,7.38" id="kvg:061e3-s1" kvg:type="&#12756;" />
			<path d="M16,31.25c3.32,1.28,8.56,5.25,9.39,7.24" id="kvg:061e3-s2" kvg:type="&#12756;" />
			<path d="M17.45,63.75c1.55,0.99,3.88,0.66,4.86-0.56c2.84-3.56,5.21-7.55,7.79-12.1" id="kvg:061e3-s3" kvg:type="&#12736;" />
		</g>
		<g id="kvg:061e3-g3" kvg:position="right">
			<g id="kvg:061e3-g4" kvg:element="&#24319;">
				<g id="kvg:061e3-g5" kvg:element="&#21313;">
					<path d="M36.39,21.39c1.01,0.28,3.36,0.33,4.37,0.28c5.27-0.26,33.57-2.5,44.66-2.63c1.68-0.02,2.69,0.14,3.53,0.28" id="kvg:061e3-s4" kvg:type="&#12752;" />
					<path d="M49.95,13.02c0.83,0.26,1.33,1.68,1.49,2.2c0.17,0.52,1.9,14.08,1.74,17.34" id="kvg:061e3-s5" kvg:type="&#12753;" />
				</g>
				<path d="M72.74,9.59c0.76,0.66,1.05,2.15,1,2.7c-0.24,2.47-1.24,11.22-2.39,17.29" id="kvg:061e3-s6" kvg:type="&#12753;" />
				<g id="kvg:061e3-g6" kvg:element="&#20841;" kvg:part="1">
					<path d="M53.18,31.78c3.16,0,17.42-1.82,20.25-1.94" id="kvg:061e3-s7" kvg:type="&#12752;" />
				</g>
			</g>
			<g id="kvg:061e3-g7" kvg:element="&#20841;" kvg:part="2">
				<g id="kvg:061e3-g8" kvg:element="&#20866;">
					<path d="M39.95,40.63c1.03,0.8,1.6,1.93,1.75,3.05c0.88,6.68,1.99,22.01,1.99,25.01" id="kvg:061e3-s8" kvg:type="&#12753;" />
					<path d="M41.77,42.22c8.17-0.63,38.21-3.1,43.35-3.58c1.67-0.16,3.06,0.63,3,2.35c-0.29,8.74-2.09,14.19-3.75,23.74c-0.8,4.6-3.83,3.14-6,0" id="kvg:061e3-s9" kvg:type="&#12742;a" />
				</g>
				<path d="M60.56,33.57c0.94,0.89,1.7,1.95,1.7,3.19c0,0.71-0.1,29.49-0.1,31.44" id="kvg:061e3-s10" kvg:type="&#12753;" />
				<g id="kvg:061e3-g9" kvg:element="&#20837;">
					<path d="M51.43,51.48c-1.3,2.59-4.69,6.25-7.4,7.72" id="kvg:061e3-s11" kvg:type="&#12754;" />
					<path d="M47.91,46.86c0.39,0,0.74,0.33,0.92,0.57c3.09,4.02,6.59,8.16,9.45,11c0.32,0.32,0.63,0.44,0.97,0.53" id="kvg:061e3-s12" kvg:type="&#12751;" />
				</g>
				<g id="kvg:061e3-g10" kvg:element="&#20837;">
					<path d="M73.57,50.28c-1.4,2.82-5.04,6.82-7.95,8.42" id="kvg:061e3-s13" kvg:type="&#12754;" />
					<path d="M68.59,45.34c0.46,0,0.89,0.32,1.09,0.55C72.5,49.25,76,53,80.8,56.51c0.41,0.3,0.74,0.42,1.15,0.51" id="kvg:061e3-s14" kvg:type="&#12751;" />
				</g>
			</g>
		</g>
	</g>
	<g id="kvg:061e3-g11" kvg:element="&#24515;" kvg:position="bottom" kvg:radical="general">
		<path d="M24.4,81.07c0.32,2.28-3.23,12.36-5.82,16.17" id="kvg:061e3-s15" kvg:type="&#12756;" />
		<path d="M32.83,75c6.58,11.93,16.97,22.28,42.33,22.43c12.23,0.07,13.03-3.18,2.83-8.61" id="kvg:061e3-s16" kvg:type="&#12767;b" />
		<path d="M55.41,75.75c2.17,5.25,5.32,10.5,7.63,2.46" id="kvg:061e3-s17" kvg:type="&#12756;a" />
		<path d="M80.88,75.73c4.63,2.07,8.09,3.96,11.85,10.36" id="kvg:061e3-s18" kvg:type="&#12756;" />
	</g>
</g>
</g>
<g id="kvg:StrokeNumbers_061e3" style="font-size:8;fill:#808080">
	<text transform="matrix(1 0 0 1 13.50 16.50)">1</text>
	<text transform="matrix(1 0 0 1 8.50 31.50)">2</text>
	<text transform="matrix(1 0 0 1 9.50 63.50)">3</text>
	<text transform="matrix(1 0 0 1 34.50 18.50)">4</text>
	<text transform="matrix(1 0 0 1 42.50 10.50)">5</text>
	<text transform="matrix(1 0 0 1 64.50 8.50)">6</text>
	<text transform="matrix(1 0 0 1 56.50 28.50)">7</text>
	<text transform="matrix(1 0 0 1 34.50 48.50)">8</text>
	<text transform="matrix(1 0 0 1 43.50 39.50)">9</text>
	<text transform="matrix(1 0 0 1 51.50 38.50)">10</text>
	<text transform="matrix(1 0 0 1 43.50 53.50)">11</text>
	<text transform="matrix(1 0 0 1 52.50 49.50)">12</text>
	<text transform="matrix(1 0 0 1 64.50 53.23)">13</text>
	<text transform="matrix(1 0 0 1 72.50 47.50)">14</text>
	<text transform="matrix(1 0 0 1 15.50 80.58)">15</text>
	<text transform="matrix(1 0 0 1 28.25 86.00)">16</text>
	<text transform="matrix(1 0 0 1 45.50 78.93)">17</text>
	<text transform="matrix(1 0 0 1 68.50 78.50)">18</text>
</g>
</svg>