<svg xmlns="http://www.w3.org/2000/svg" xmlns:kvg="http://kanjivg.tagaini.net" height="109" kun="&#12388;&#12385;&#12398;&#12360;" meaning="5th calendar sign" on="&#12508;, &#12508;&#12454;" viewBox="0 0 109 109" width="109">
<g id="kvg:StrokePaths_0620a" style="fill:none;stroke:#000000;stroke-width:3;stroke-linecap:round;stroke-linejoin:round;">
<g id="kvg:0620a" kvg:element="&#25098;">
	<g id="kvg:0620a-g1" kvg:element="&#20031;">
		<g id="kvg:0620a-g2" kvg:element="&#21378;" kvg:part="1">
			<path d="M26.01,36.39c0.74,1.11,1.46,2.42,1.42,4.33c-0.34,17.81-4.41,44.46-13.12,52.75" id="kvg:0620a-s1" kvg:type="&#12754;" />
		</g>
	</g>
	<g id="kvg:0620a-g3" kvg:element="&#25096;" kvg:radical="general">
		<g id="kvg:0620a-g4" kvg:element="&#24331;" kvg:part="1">
			<g id="kvg:0620a-g5" kvg:element="&#21378;" kvg:part="2">
				<path d="M26.75,37.2c2.75-0.2,5.33-0.66,6.82-0.96c8.68-1.74,33.68-5.99,47.11-7.23c2.52-0.23,4.05,0.26,5.31,0.53" id="kvg:0620a-s2" kvg:type="&#12752;" />
			</g>
			<path d="M53.75,11c1.72,1.84,2.51,2.34,2.79,6.29C58.75,48.25,69,81,89.25,93.25c6.69,4.05,5.71,1.46,4.85-6.67" id="kvg:0620a-s3" kvg:type="&#12738;" />
		</g>
		<g id="kvg:0620a-g6" kvg:element="&#20031;">
			<path d="M81.44,44.39c0.12,1.03,0.25,2.66-0.23,4.13c-2.84,8.71-16.33,29.49-38.65,41.19" id="kvg:0620a-s4" kvg:type="&#12754;" />
		</g>
		<g id="kvg:0620a-g7" kvg:element="&#24331;" kvg:part="2">
			<g id="kvg:0620a-g8" kvg:element="&#20022;">
				<path d="M71.75,11.75c4.24,1.65,11.02,5.42,13,8.25" id="kvg:0620a-s5" kvg:type="&#12756;" />
			</g>
		</g>
	</g>
</g>
</g>
<g id="kvg:StrokeNumbers_0620a" style="font-size:8;fill:#808080">
	<text transform="matrix(1 0 0 1 20.50 45.50)">1</text>
	<text transform="matrix(1 0 0 1 27.75 33.50)">2</text>
	<text transform="matrix(1 0 0 1 44.50 11.50)">3</text>
	<text transform="matrix(1 0 0 1 73.50 43.50)">4</text>
	<text transform="matrix(1 0 0 1 66.50 8.50)">5</text>
</g>
</svg>