<svg xmlns="http://www.w3.org/2000/svg" xmlns:kvg="http://kanjivg.tagaini.net" height="109" meaning="level, small" viewBox="0 0 109 109" width="109">
<g id="kvg:StrokePaths_06241" style="fill:none;stroke:#000000;stroke-width:3;stroke-linecap:round;stroke-linejoin:round;">
<g id="kvg:06241" kvg:element="&#25153;">
	<g id="kvg:06241-g1" kvg:element="&#25144;" kvg:position="tare" kvg:radical="general">
		<path d="M84.13138,8.8056671 C 73.52138,13.905667 43.8626,16.898518 29.6126,18.398518" id="kvg:06241-s1" kvg:type="&#12754;" />
		<path d="M 28.94,18.13268 c 0.05,1.36 -0.12,3.49 -0.1,5.45 C 29,48.20268 22.75,79.25 12.25,89.25" id="kvg:06241-s2" kvg:type="&#12754;" />
		<path d="M 29.702908,31.38 C 40.102908,32.25 70.75,29 81.5,28.25 c 2,-0.14 4,1.75 3.25,4.5 -1.33,4.87 -2.25,6.5 -4,11.25" id="kvg:06241-s3" kvg:type="&#12757;c" />
		<path d="M 28.377138,47.25 C 36.627138,47.25 69.75,45 84.25,44.5" id="kvg:06241-s4" kvg:type="&#12752;b" />
	</g>
	<g id="kvg:06241-g2" kvg:element="&#20874;">
		<g id="kvg:06241-g3" kvg:element="&#20866;">
			<path d="M32.58,57.71c0.56,0.64,0.93,1.66,0.74,2.81c-0.19,1.15,2.19,34.55,2.19,36.47" id="kvg:06241-s5" kvg:type="&#12753;" />
			<path d="M33.83,60.49c7.07-0.51,48.84-3.88,50.24-4.06c2.98-0.38,4.37,2.35,4.34,3.03c-0.15,3.28-2.7,30.02-3.56,32.83c-1.59,5.2-3.59,2.7-6.39-0.23" id="kvg:06241-s6" kvg:type="&#12742;a" />
		</g>
		<g id="kvg:06241-g4" kvg:element="&#24318;" kvg:variant="true">
			<g id="kvg:06241-g5" kvg:element="&#21313;" kvg:part="1" kvg:variant="true">
				<path d="M34.9,76.56c8.07-0.4,33.85-3.26,51.51-3.52" id="kvg:06241-s7" kvg:type="&#12752;" />
			</g>
			<g id="kvg:06241-g6" kvg:element="&#20031;" kvg:variant="true">
				<path d="M50.32,62c1.04,0.27,1.17,1.7,1.38,2.23c0.21,0.53,0,27.33-0.21,30.66" id="kvg:06241-s8" kvg:type="&#12753;" />
			</g>
			<g id="kvg:06241-g7" kvg:element="&#21313;" kvg:part="2" kvg:variant="true">
				<path d="M66.11,60.07c1.04,0.27,1.67,1.2,1.88,1.73c0.21,0.53,0,27.13-0.21,30.46" id="kvg:06241-s9" kvg:type="&#12753;" />
			</g>
		</g>
	</g>
</g>
</g>
<g id="kvg:StrokeNumbers_06241" style="font-size:8;fill:#808080">
	<text transform="matrix(1 0 0 1 83.25 17.48)">1</text>
	<text transform="matrix(1 0 0 1 21.87 21.5)">2</text>
	<text transform="matrix(1 0 0 1 33.09 29.25)">3</text>
	<text transform="matrix(1 0 0 1 33.5 43.5)">4</text>
	<text transform="matrix(1 0 0 1 27.50 73.50)">5</text>
	<text transform="matrix(1 0 0 1 36.50 56.50)">6</text>
	<text transform="matrix(1 0 0 1 38.25 73.18)">7</text>
	<text transform="matrix(1 0 0 1 43.50 68.50)">8</text>
	<text transform="matrix(1 0 0 1 59.50 67.03)">9</text>
</g>
</svg>