<svg xmlns="http://www.w3.org/2000/svg" xmlns:kvg="http://kanjivg.tagaini.net" height="109" kun="&#12383;&#12377;.&#12369;&#12427;" meaning="aid, help, assist" on="&#12501;" viewBox="0 0 109 109" width="109">
<g id="kvg:StrokePaths_06276" style="fill:none;stroke:#000000;stroke-width:3;stroke-linecap:round;stroke-linejoin:round;">
<g id="kvg:06276" kvg:element="&#25206;">
	<g id="kvg:06276-g1" kvg:element="&#25164;" kvg:original="&#25163;" kvg:position="left" kvg:radical="general" kvg:variant="true">
		<path d="M12.25,37.92c2.04,0.25,3.94,0.46,6.03,0.1c4.85-0.84,12.72-2.52,19.23-3.98c1.21-0.27,2.49-0.54,3.91-0.29" id="kvg:06276-s1" kvg:type="&#12752;" />
		<path d="M29.02,15.25c1.12,1.12,1.51,2.75,1.51,4.77c0,15.23-0.01,53.96-0.01,65.4c0,14.25-6.07,3.53-7.52,2" id="kvg:06276-s2" kvg:type="&#12762;" />
		<path d="M11.25,65.93c1.38,0.82,2.5,0.82,4.5-0.43c5.11-3.19,9.62-6.25,22-14.33" id="kvg:06276-s3" kvg:type="&#12736;" />
	</g>
	<g id="kvg:06276-g2" kvg:element="&#22827;" kvg:phon="&#22827;" kvg:position="right">
		<path d="M47.39,39.22c2,0.57,4.11,0.21,6.1-0.12c6.67-1.09,18.45-3.61,25-4.13c1.62-0.13,3.25-0.22,4.91,0.09" id="kvg:06276-s4" kvg:type="&#12752;" />
		<g id="kvg:06276-g3" kvg:element="&#22823;">
			<path d="M42.65,58.23c2.7,0.69,5.42,0.41,8.1-0.09c10.25-1.89,26.63-3.93,35.37-4.81c2.06-0.21,4.75-0.36,6.75,0.33" id="kvg:06276-s5" kvg:type="&#12752;" />
			<path d="M63.35,15.5c1.08,1.08,1.05,2.62,1.08,4.44C65.12,61,58.5,80.5,41,94" id="kvg:06276-s6" kvg:type="&#12754;" />
			<path d="M64.18,56.87c6.88,9.09,15.07,20.88,22.93,29.65c1.9,2.11,4.22,4.25,6.64,5.76" id="kvg:06276-s7" kvg:type="&#12751;" />
		</g>
	</g>
</g>
</g>
<g id="kvg:StrokeNumbers_06276" style="font-size:8;fill:#808080">
	<text transform="matrix(1 0 0 1 5.50 39.50)">1</text>
	<text transform="matrix(1 0 0 1 19.50 16.63)">2</text>
	<text transform="matrix(1 0 0 1 3.75 69.50)">3</text>
	<text transform="matrix(1 0 0 1 45.50 36.50)">4</text>
	<text transform="matrix(1 0 0 1 42.75 55.55)">5</text>
	<text transform="matrix(1 0 0 1 53.50 15.50)">6</text>
	<text transform="matrix(1 0 0 1 75.75 66.13)">7</text>
</g>
</svg>