<svg xmlns="http://www.w3.org/2000/svg" xmlns:kvg="http://kanjivg.tagaini.net" height="109" meaning="disorder" viewBox="0 0 109 109" width="109">
<g id="kvg:StrokePaths_06282" style="fill:none;stroke:#000000;stroke-width:3;stroke-linecap:round;stroke-linejoin:round;">
<g id="kvg:06282" kvg:element="&#25218;">
	<g id="kvg:06282-g1" kvg:element="&#25164;" kvg:original="&#25163;" kvg:position="left" kvg:radical="general" kvg:variant="true">
		<path d="M13,38.34c2.4,0.29,1.46,0.64,4.03,0.29c6.33-0.86,17.84-2.88,28.39-4.22" id="kvg:06282-s1" kvg:type="&#12752;" />
		<path d="M29.77,13c0.48,0.92,1.67,2.49,1.76,5.52c0.4,14.55,0.24,62.94,0.24,67.9c0,14.25-6.82,4.53-8.27,3" id="kvg:06282-s2" kvg:type="&#12762;" />
		<path d="M12,66.38c2.57,1.84,4.22,1,6.8-0.58c1.52-0.93,18.28-12.17,24.7-16.63" id="kvg:06282-s3" kvg:type="&#12736;" />
	</g>
	<g id="kvg:06282-g2" kvg:element="&#29579;" kvg:original="&#29577;" kvg:partial="true" kvg:position="right">
		<path d="M46.36,25.97c1.89,0.28,3.73,0.62,4.86,0.53c12.31-0.98,26.03-1.99,36.7-2.85c1.71-0.14,3.28,0.08,4.69,0.42" id="kvg:06282-s4" kvg:type="&#12752;" />
		<path d="M67.61,26.86c1.74,2.33,1.74,3.73,1.74,5.6c0,13.06-0.02,37.21-0.02,58.14" id="kvg:06282-s5" kvg:type="&#12753;a" />
		<path d="M48.64,57.37c0.79,0.52,3.41,0.78,4.23,0.73c9.88-0.6,23.47-1.23,33.41-2.15c0.99-0.09,3.17-0.21,4.65,0.25" id="kvg:06282-s6" kvg:type="&#12752;" />
		<path d="M41.59,91.89c1.41,0.36,3.89,0.72,6.1,0.5C62,91,76.5,89.75,93.4,90.02c1.76,0.03,3.87,0.4,4.75,0.78" id="kvg:06282-s7" kvg:type="&#12752;" />
	</g>
</g>
</g>
<g id="kvg:StrokeNumbers_06282" style="font-size:8;fill:#808080">
	<text transform="matrix(1 0 0 1 6.50 38.50)">1</text>
	<text transform="matrix(1 0 0 1 21.50 12.50)">2</text>
	<text transform="matrix(1 0 0 1 4.50 68.50)">3</text>
	<text transform="matrix(1 0 0 1 44.50 22.50)">4</text>
	<text transform="matrix(1 0 0 1 61.50 35.50)">5</text>
	<text transform="matrix(1 0 0 1 47.50 53.50)">6</text>
	<text transform="matrix(1 0 0 1 39.50 88.50)">7</text>
</g>
</svg>