<svg xmlns="http://www.w3.org/2000/svg" xmlns:kvg="http://kanjivg.tagaini.net" height="109" kun="&#12360;&#12368;.&#12427;, &#12371;&#12376;.&#12427;, &#12367;&#12376;.&#12427;" meaning="gouge, hollow out, bore, pry" on="&#12465;&#12484;" viewBox="0 0 109 109" width="109">
<g id="kvg:StrokePaths_06289" style="fill:none;stroke:#000000;stroke-width:3;stroke-linecap:round;stroke-linejoin:round;">
<g id="kvg:06289" kvg:element="&#25225;">
	<g id="kvg:06289-g1" kvg:element="&#25164;" kvg:original="&#25163;" kvg:position="left" kvg:radical="general" kvg:variant="true">
		<path d="M12.5,38.75C14.58,39,13.75,39,16,39c4.26,0,16-2,25.17-3.17" id="kvg:06289-s1" kvg:type="&#12752;" />
		<path d="M28.77,15.33c0.48,0.92,1.67,2.49,1.76,5.52c0.4,14.55-0.26,60.16-0.26,65.12c0,14.78-6.21,3-7.71,1.75" id="kvg:06289-s2" kvg:type="&#12762;" />
		<path d="M10.5,64.9c2.29,1.51,3.76,0.82,6.05-0.47c1.35-0.76,19.22-12.03,24.95-15.68" id="kvg:06289-s3" kvg:type="&#12736;" />
	</g>
	<g id="kvg:06289-g2" kvg:element="&#22828;" kvg:position="right">
		<path d="M47.63,34.61c1.2,0.58,2.59,1.16,4.39,0.96c1.79-0.19,25.27-3.57,27.67-3.68c3.06-0.14,3.8,1.75,3.17,5.06C82,41.5,81.25,48.5,80.33,54.75" id="kvg:06289-s4" kvg:type="&#12757;c" />
		<g id="kvg:06289-g3" kvg:element="&#22823;">
			<path d="M39.62,58.03c0.85,0.42,3.01,0.66,3.94,0.59c14.18-1.12,34.16-4.04,48.36-4.44c1.17-0.03,2.84,0.16,5.46,0.89" id="kvg:06289-s5" kvg:type="&#12752;" />
			<g id="kvg:06289-g4" kvg:element="&#20154;">
				<path d="M62.59,11.75c0.55,1,1.58,2.08,1.58,4.17c0,8.89-0.29,19.12-0.19,25.84c0.41,27.02-10.67,46.49-26,55.49" id="kvg:06289-s6" kvg:type="&#12754;" />
				<path d="M63.55,56.96c6.77,9.16,20.55,28.66,27.31,34.79c2.3,2.09,3.1,2.4,4.15,2.59" id="kvg:06289-s7" kvg:type="&#12751;" />
			</g>
		</g>
	</g>
</g>
</g>
<g id="kvg:StrokeNumbers_06289" style="font-size:8;fill:#808080">
	<text transform="matrix(1 0 0 1 6.50 39.50)">1</text>
	<text transform="matrix(1 0 0 1 19.50 15.50)">2</text>
	<text transform="matrix(1 0 0 1 2.50 65.50)">3</text>
	<text transform="matrix(1 0 0 1 46.50 31.50)">4</text>
	<text transform="matrix(1 0 0 1 43.75 55.50)">5</text>
	<text transform="matrix(1 0 0 1 53.50 12.50)">6</text>
	<text transform="matrix(1 0 0 1 73.50 66.50)">7</text>
</g>
</svg>