<svg xmlns="http://www.w3.org/2000/svg" xmlns:kvg="http://kanjivg.tagaini.net" height="109" kun="&#12358;.&#12388;" meaning="strike with hand" on="&#12505;&#12531;" viewBox="0 0 109 109" width="109">
<g id="kvg:StrokePaths_06283" style="fill:none;stroke:#000000;stroke-width:3;stroke-linecap:round;stroke-linejoin:round;">
<g id="kvg:06283" kvg:element="&#25219;">
	<g id="kvg:06283-g1" kvg:element="&#25164;" kvg:original="&#25163;" kvg:position="left" kvg:radical="general" kvg:variant="true">
		<path d="M11,36.92c2.08,0.25,1.27,0.55,3.5,0.25c5.5-0.75,15.5-2,24.67-3.17" id="kvg:06283-s1" kvg:type="&#12752;" />
		<path d="M26.77,13.5c0.48,0.92,1.76,2.49,1.76,5.52c0,16.48,0.24,64.94,0.24,69.9c0,14.25-6.32,3.53-7.77,2" id="kvg:06283-s2" kvg:type="&#12762;" />
		<path d="M12,65.64c2.38,1.39,2.92,0.75,5.3-0.44c1.4-0.7,19.99-10.91,25.95-14.28" id="kvg:06283-s3" kvg:type="&#12736;" />
	</g>
	<g id="kvg:06283-g2" kvg:element="&#21342;" kvg:position="right">
		<g id="kvg:06283-g3" kvg:element="&#20128;" kvg:position="top">
			<path d="M66.15,12.69c1.04,0.34,2.53,2,2.5,2.98C68.57,18.75,68.57,28.2,68.57,31" id="kvg:06283-s4" kvg:type="&#12753;a" />
			<g id="kvg:06283-g4" kvg:element="&#19979;" kvg:part="1">
				<g id="kvg:06283-g5" kvg:element="&#19968;">
					<path d="M47,33.28c1.38,0.4,3.62,0.67,4.44,0.59c10.76-0.99,26.99-4.94,40.41-4.94c0.99,0,3.16,0.59,4.15,0.99" id="kvg:06283-s5" kvg:type="&#12752;" />
				</g>
			</g>
		</g>
		<g id="kvg:06283-g6" kvg:element="&#19979;" kvg:part="2" kvg:position="bottom">
			<g id="kvg:06283-g7" kvg:element="&#21340;" kvg:original="&#12488;" kvg:variant="true">
				<path d="M67.5,35.08c0.88,1.01,1,2.64,1,4.53c0,9.93-0.28,45.95-0.28,58.45" id="kvg:06283-s6" kvg:type="&#12753;" />
				<path d="M71.28,50.02c4.3,2.19,17.83,11.36,19.71,15.16" id="kvg:06283-s7" kvg:type="&#12756;" />
			</g>
		</g>
	</g>
</g>
</g>
<g id="kvg:StrokeNumbers_06283" style="font-size:8;fill:#808080">
	<text transform="matrix(1 0 0 1 3.50 36.50)">1</text>
	<text transform="matrix(1 0 0 1 18.50 13.50)">2</text>
	<text transform="matrix(1 0 0 1 3.50 66.50)">3</text>
	<text transform="matrix(1 0 0 1 58.50 13.90)">4</text>
	<text transform="matrix(1 0 0 1 44.50 30.33)">5</text>
	<text transform="matrix(1 0 0 1 59.50 43.00)">6</text>
	<text transform="matrix(1 0 0 1 72.50 47.93)">7</text>
</g>
</svg>