<svg xmlns="http://www.w3.org/2000/svg" xmlns:kvg="http://kanjivg.tagaini.net" height="109" kun="&#12396;.&#12367;, &#12396;.&#12369;&#12427;, &#12396;.&#12363;&#12377;, &#12396;.&#12363;&#12427;" meaning="extract, pull out, pilfer, quote, remove, omit" on="&#12496;&#12484;, &#12495;&#12452;" viewBox="0 0 109 109" width="109">
<g id="kvg:StrokePaths_062d4" style="fill:none;stroke:#000000;stroke-width:3;stroke-linecap:round;stroke-linejoin:round;">
<g id="kvg:062d4" kvg:element="&#25300;">
	<g id="kvg:062d4-g1" kvg:element="&#25164;" kvg:original="&#25163;" kvg:position="left" kvg:radical="general" kvg:variant="true">
		<path d="M13,37.92c2.08,0.25,1.27,0.55,3.5,0.25c5.5-0.75,14-2,23.17-3.17" id="kvg:062d4-s1" kvg:type="&#12752;" />
		<path d="M27.77,14.5c0.48,0.92,1.67,2.49,1.76,5.52c0.4,14.55,0.24,61.94,0.24,66.9c0,16.08-6.32,4.53-7.77,3" id="kvg:062d4-s2" kvg:type="&#12762;" />
		<path d="M13,65.8c2.27,1.43,2.95,1.85,4.89,1.06c0.74-0.3,16.53-9.39,24.36-14.2" id="kvg:062d4-s3" kvg:type="&#12736;" />
	</g>
	<g id="kvg:062d4-g2" kvg:element="&#29356;" kvg:part="1" kvg:position="right">
		<g id="kvg:062d4-g3" kvg:element="&#22823;">
			<path d="M46.75,36.89c0.94,0.38,2.66,0.46,3.6,0.38c6.15-0.52,32.32-3.83,38.11-3.38c1.56,0.12,2.5,0.18,3.29,0.37" id="kvg:062d4-s4" kvg:type="&#12752;" />
			<path d="M61.21,13.25c0.79,1.25,1.63,1.78,1.53,4.07C61.75,38.5,57.75,68,37.44,90.22" id="kvg:062d4-s5" kvg:type="&#12754;" />
			<path d="M81.76,44c0.09,1.23,0.13,3.49-0.18,4.95C78,66,66.5,84.5,48.5,96.79" id="kvg:062d4-s6" kvg:type="&#12751;" />
		</g>
		<g id="kvg:062d4-g4" kvg:element="&#20031;">
			<path d="M58,51.25c4.5,8.5,20.75,33.25,31.02,40.33c2.04,1.41,3.08,2.64,4.73,3.17" id="kvg:062d4-s7" kvg:type="&#12754;" />
		</g>
		<g id="kvg:062d4-g5" kvg:element="&#29356;" kvg:part="2">
			<g id="kvg:062d4-g6" kvg:element="&#20022;">
				<path d="M76.52,15.08c3.1,1.7,8.02,6.99,8.79,9.63" id="kvg:062d4-s8" kvg:type="&#12756;" />
			</g>
		</g>
	</g>
</g>
</g>
<g id="kvg:StrokeNumbers_062d4" style="font-size:8;fill:#808080">
	<text transform="matrix(1 0 0 1 6.50 38.50)">1</text>
	<text transform="matrix(1 0 0 1 18.50 14.55)">2</text>
	<text transform="matrix(1 0 0 1 5.50 69.98)">3</text>
	<text transform="matrix(1 0 0 1 45.50 33.90)">4</text>
	<text transform="matrix(1 0 0 1 52.50 13.50)">5</text>
	<text transform="matrix(1 0 0 1 72.50 45.50)">6</text>
	<text transform="matrix(1 0 0 1 63.50 56.50)">7</text>
	<text transform="matrix(1 0 0 1 74.50 12.50)">8</text>
</g>
</svg>