<svg xmlns="http://www.w3.org/2000/svg" xmlns:kvg="http://kanjivg.tagaini.net" height="109" meaning="wipe, mop, swab" viewBox="0 0 109 109" width="109">
<g id="kvg:StrokePaths_062ed" style="fill:none;stroke:#000000;stroke-width:3;stroke-linecap:round;stroke-linejoin:round;">
<g id="kvg:062ed" kvg:element="&#25325;">
	<g id="kvg:062ed-g1" kvg:element="&#25164;" kvg:original="&#25163;" kvg:position="left" kvg:radical="general" kvg:variant="true">
		<path d="M14,36.75c2.19,0.26,4.13,0.43,6.38,0.05c4.32-0.73,9.6-2.25,15.72-3.21c1.16-0.18,2.15-0.22,3.56-0.26" id="kvg:062ed-s1" kvg:type="&#12752;" />
		<path d="M29.27,12.33c1.2,1.2,1.51,2.54,1.51,4.52c0,14.56-0.01,65.69-0.01,70.65c0,14.25-6.32,3.53-7.77,2" id="kvg:062ed-s2" kvg:type="&#12762;" />
		<path d="M12,64.83c1.5,0.8,2.5,0.8,4.43-0.41c1.67-1.04,14.29-9.11,21.32-14.17" id="kvg:062ed-s3" kvg:type="&#12736;" />
	</g>
	<g id="kvg:062ed-g2" kvg:element="&#24335;" kvg:position="right">
		<g id="kvg:062ed-g3" kvg:element="&#24331;" kvg:part="1">
			<path d="M45.75,37.94c3.62,0.81,6.59,0.41,9.88-0.28c7.99-1.38,19.62-3.16,29.5-4.07c2.69-0.46,5.36-0.38,8.02,0.24" id="kvg:062ed-s4" kvg:type="&#12752;" />
		</g>
		<g id="kvg:062ed-g4" kvg:element="&#24037;">
			<path d="M44,54.63c1.77,0.2,3.52,0.02,5.28-0.27c4.47-0.74,7.56-1.52,12.35-2.05c1.94-0.33,3.89-0.42,5.84-0.25" id="kvg:062ed-s5" kvg:type="&#12752;" />
			<path d="M54.79,55.87c0.79,0.79,0.96,1.63,0.96,2.62c0,4.36,0,11.88,0,16.78" id="kvg:062ed-s6" kvg:type="&#12753;a" />
			<path d="M42.5,80.83c1.1,1.23,2.73,1.26,3.77,0.73c7.98-4.06,9.26-4.89,21.33-11.03" id="kvg:062ed-s7" kvg:type="&#12752;" />
		</g>
		<g id="kvg:062ed-g5" kvg:element="&#24331;" kvg:part="2">
			<path d="M69.54,12.25c1.23,1.23,2.05,2.75,2.19,5.45c1.39,26.43,4.77,60.8,21.6,76.57c3.71,3.48,4.67,4.98,4.32-6.94" id="kvg:062ed-s8" kvg:type="&#12738;" />
			<g id="kvg:062ed-g6" kvg:element="&#20022;">
				<path d="M83.07,15.49c3.06,1.68,7.27,5.78,8.7,8.67" id="kvg:062ed-s9" kvg:type="&#12756;" />
			</g>
		</g>
	</g>
</g>
</g>
<g id="kvg:StrokeNumbers_062ed" style="font-size:8;fill:#808080">
	<text transform="matrix(1 0 0 1 7.50 38.88)">1</text>
	<text transform="matrix(1 0 0 1 20.50 13.50)">2</text>
	<text transform="matrix(1 0 0 1 3.50 68.50)">3</text>
	<text transform="matrix(1 0 0 1 44.50 34.50)">4</text>
	<text transform="matrix(1 0 0 1 42.50 51.50)">5</text>
	<text transform="matrix(1 0 0 1 48.75 63.50)">6</text>
	<text transform="matrix(1 0 0 1 39.50 75.93)">7</text>
	<text transform="matrix(1 0 0 1 60.75 12.50)">8</text>
	<text transform="matrix(1 0 0 1 79.50 12.50)">9</text>
</g>
</svg>