<svg xmlns="http://www.w3.org/2000/svg" xmlns:kvg="http://kanjivg.tagaini.net" height="109" meaning="be imminent" viewBox="0 0 109 109" width="109">
<g id="kvg:StrokePaths_062ee" style="fill:none;stroke:#000000;stroke-width:3;stroke-linecap:round;stroke-linejoin:round;">
<g id="kvg:062ee" kvg:element="&#25326;">
	<g id="kvg:062ee-g1" kvg:element="&#25164;" kvg:original="&#25163;" kvg:position="left" kvg:radical="general" kvg:variant="true">
		<path d="M11.75,40.05c2.27,0.27,1.38,0.6,3.81,0.27c5.99-0.82,16.38-2.22,26.36-3.49" id="kvg:062ee-s1" kvg:type="&#12752;" />
		<path d="M28.77,14.5c0.48,0.92,1.76,2.49,1.76,5.52c0,15.23,0.24,56.46,0.24,67.9c0,14.25-6.32,3.53-7.77,2" id="kvg:062ee-s2" kvg:type="&#12762;" />
		<path d="M11,67.29c1.05,1.24,2.71,1.97,5.02,0.82c1.36-0.68,20.76-13.45,26.53-16.7" id="kvg:062ee-s3" kvg:type="&#12736;" />
	</g>
	<g id="kvg:062ee-g2" kvg:element="&#21513;" kvg:position="right">
		<g id="kvg:062ee-g3" kvg:element="&#22763;" kvg:position="top">
			<path d="M46.42,32.5c1.31,0.47,3.72,0.44,5.03,0.29C65.09,31.19,80.83,30,90.5,29.5c2.19-0.11,3.5,0.08,4.59,0.3" id="kvg:062ee-s4" kvg:type="&#12752;" />
			<path d="M67.69,13.76c1.08,0.44,1.73,2.16,1.94,3.14c0.22,0.99,0.3,24.85,0.3,33.8" id="kvg:062ee-s5" kvg:type="&#12753;a" />
			<path d="M49.38,52.18c1.04,0.21,2.94,0.17,3.98,0.11c13.74-0.77,15.89-2.21,35.79-2.97c1.73-0.07,2.77,0.02,3.64,0.12" id="kvg:062ee-s6" kvg:type="&#12752;" />
		</g>
		<g id="kvg:062ee-g4" kvg:element="&#21475;" kvg:position="bottom">
			<path d="M51.57,66.09c0.42,0.52,0.85,0.95,1.03,1.6c1.45,5.15,2.18,16.51,3.17,25.77" id="kvg:062ee-s7" kvg:type="&#12753;" />
			<path d="M53.67,68.29c11.16-1.38,25.49-3.29,30.76-4.02c1.93-0.27,3.08,2.69,2.81,4.26c-1.14,6.49-2.74,13.71-3.89,19.72" id="kvg:062ee-s8" kvg:type="&#12757;b" />
			<path d="M56.18,91.05c7.32-0.55,20.57-1.9,31.09-2.5" id="kvg:062ee-s9" kvg:type="&#12752;b" />
		</g>
	</g>
</g>
</g>
<g id="kvg:StrokeNumbers_062ee" style="font-size:8;fill:#808080">
	<text transform="matrix(1 0 0 1 5.50 40.50)">1</text>
	<text transform="matrix(1 0 0 1 19.50 14.50)">2</text>
	<text transform="matrix(1 0 0 1 3.50 71.50)">3</text>
	<text transform="matrix(1 0 0 1 45.50 29.50)">4</text>
	<text transform="matrix(1 0 0 1 57.50 13.50)">5</text>
	<text transform="matrix(1 0 0 1 47.50 49.50)">6</text>
	<text transform="matrix(1 0 0 1 44.50 72.50)">7</text>
	<text transform="matrix(1 0 0 1 55.50 64.50)">8</text>
	<text transform="matrix(1 0 0 1 59.75 87.50)">9</text>
</g>
</svg>