<svg xmlns="http://www.w3.org/2000/svg" xmlns:kvg="http://kanjivg.tagaini.net" height="109" meaning="rub, massage, shampoo, debate vigorously, train, coach, worry, get in trouble" viewBox="0 0 109 109" width="109">
<g id="kvg:StrokePaths_063c9" style="fill:none;stroke:#000000;stroke-width:3;stroke-linecap:round;stroke-linejoin:round;">
<g id="kvg:063c9" kvg:element="&#25545;">
	<g id="kvg:063c9-g1" kvg:element="&#25164;" kvg:original="&#25163;" kvg:position="left" kvg:radical="general" kvg:variant="true">
		<path d="M12.25,37.26c2.1,0.2,1.28,0.45,3.53,0.2c5.55-0.61,15.64-2.03,24.88-2.98" id="kvg:063c9-s1" kvg:type="&#12752;" />
		<path d="M27.27,14.5c0.48,0.92,1.76,2.49,1.76,5.52c0,15.23,0.24,52.96,0.24,64.4c0,14.25-6.32,3.53-7.77,2" id="kvg:063c9-s2" kvg:type="&#12762;" />
		<path d="M11.5,65.31c1.03,1.22,2.67,1.94,4.95,0.81c1.34-0.67,16.55-11.87,23.3-17.06" id="kvg:063c9-s3" kvg:type="&#12736;" />
	</g>
	<g id="kvg:063c9-g2" kvg:element="&#26580;" kvg:position="right">
		<g id="kvg:063c9-g3" kvg:element="&#30683;" kvg:position="top">
			<g id="kvg:063c9-g4" kvg:element="&#20104;">
				<g id="kvg:063c9-g5" kvg:element="&#12510;" kvg:position="top">
					<path d="M50.49,15.73c1.05,0.4,2.11,0.49,3.12,0.31c2-0.36,26.27-4.08,28.39-4.45c2.12-0.36,2.84,1.53,1.58,2.71c-2.17,2.04-15.36,10.23-16.7,11.68" id="kvg:063c9-s4" kvg:type="&#12743;" />
					<path d="M59.17,22.26c2.23,0.87,7.5,4.21,8.55,6.48" id="kvg:063c9-s5" kvg:type="&#12756;" />
				</g>
				<g id="kvg:063c9-g6" kvg:element="&#20102;" kvg:position="bottom">
					<path d="M47.73,33.71c0.59,0.23,2.36,0.41,4.23,0.11c13.03-2.07,26.21-4.09,34.93-4.36c6.61-0.21,2.36,4.79-1.97,8.45" id="kvg:063c9-s6" kvg:type="&#12743;" />
					<g id="kvg:063c9-g7" kvg:element="&#20101;">
						<path d="M69.02,33.15c0,8.71-0.03,13.87-0.03,19.3c0,6.55-4.52,1.72-6.29-0.33" id="kvg:063c9-s7" kvg:type="&#12762;" />
					</g>
				</g>
			</g>
			<g id="kvg:063c9-g8" kvg:element="&#20031;">
				<path d="M64.24,31.73c0.06,0.54,0.2,1.44-0.12,2.19c-2.5,5.81-7.97,13.92-20.49,20.93" id="kvg:063c9-s8" kvg:type="&#12754;" />
			</g>
		</g>
		<g id="kvg:063c9-g9" kvg:element="&#26408;" kvg:position="bottom">
			<path d="M41.53,69.04c1.37,0.56,2.92,0.74,4.49,0.56c8.01-0.92,31.54-3.12,43.65-4.21c1.56-0.14,2.54,0.1,4.1,0.49" id="kvg:063c9-s9" kvg:type="&#12752;" />
			<path d="M65.92,59.33c0.7,0.99,1.23,2.19,1.23,3.2c0,10.35,0,30.3-0.18,36.46" id="kvg:063c9-s10" kvg:type="&#12753;" />
			<path d="M65.92,67.19C61.87,76.5,49.51,88.6,38.5,92.56" id="kvg:063c9-s11" kvg:type="&#12754;" />
			<path d="M67.85,67.95c3.53,3.09,20.11,18.61,23.94,21.65c1.3,1.03,2.41,1.47,3.71,1.77" id="kvg:063c9-s12" kvg:type="&#12751;" />
		</g>
	</g>
</g>
</g>
<g id="kvg:StrokeNumbers_063c9" style="font-size:8;fill:#808080">
	<text transform="matrix(1 0 0 1 6.50 37.50)">1</text>
	<text transform="matrix(1 0 0 1 18.50 15.50)">2</text>
	<text transform="matrix(1 0 0 1 3.50 66.50)">3</text>
	<text transform="matrix(1 0 0 1 42.50 15.50)">4</text>
	<text transform="matrix(1 0 0 1 51.50 26.50)">5</text>
	<text transform="matrix(1 0 0 1 44.50 30.50)">6</text>
	<text transform="matrix(1 0 0 1 72.50 39.93)">7</text>
	<text transform="matrix(1 0 0 1 50.75 43.50)">8</text>
	<text transform="matrix(1 0 0 1 38.50 66.50)">9</text>
	<text transform="matrix(1 0 0 1 54.50 62.50)">10</text>
	<text transform="matrix(1 0 0 1 47.50 78.50)">11</text>
	<text transform="matrix(1 0 0 1 78.50 75.50)">12</text>
</g>
</svg>