<svg xmlns="http://www.w3.org/2000/svg" xmlns:kvg="http://kanjivg.tagaini.net" height="109" meaning="bend, train, lithe" viewBox="0 0 109 109" width="109">
<g id="kvg:StrokePaths_06493" style="fill:none;stroke:#000000;stroke-width:3;stroke-linecap:round;stroke-linejoin:round;">
<g id="kvg:06493" kvg:element="&#25747;">
	<g id="kvg:06493-g1" kvg:element="&#25164;" kvg:original="&#25163;" kvg:position="left" kvg:radical="general" kvg:variant="true">
		<path d="M13,36.92c2.08,0.25,1.27,0.55,3.5,0.25c5.5-0.75,14-2,23.17-3.17" id="kvg:06493-s1" kvg:type="&#12752;" />
		<path d="M27.27,14c0.48,0.92,1.76,2.49,1.76,5.52c0,15.23,0.24,56.46,0.24,67.9c0,14.25-6.32,3.53-7.77,2" id="kvg:06493-s2" kvg:type="&#12762;" />
		<path d="M12.5,66.3c0.66,0.79,1.72,1.25,3.19,0.52c0.86-0.43,17.83-10.59,21.49-12.66" id="kvg:06493-s3" kvg:type="&#12736;" />
	</g>
	<g id="kvg:06493-g2" kvg:element="&#22575;" kvg:position="right">
		<g id="kvg:06493-g3" kvg:position="top">
			<g id="kvg:06493-g4" kvg:element="&#22303;" kvg:position="top">
				<path d="M50.18,23.03c0.59,0.32,1.68,0.36,2.28,0.32c6.29-0.36,20.23-2.42,27.92-2.71c0.99-0.04,1.58,0.15,2.08,0.31" id="kvg:06493-s4" kvg:type="&#12752;" />
				<path d="M65.17,12.62c0.07,0.23,1.01,1.22,1.01,2.71c0,1.67,0.29,9.42,0.29,16.38" id="kvg:06493-s5" kvg:type="&#12753;a" />
				<path d="M45.6,33.96c1.34,0.49,3.8,0.55,5.14,0.49C59.5,34,72.75,32.5,85,31.43c2.23-0.2,3.58,0.23,4.69,0.48" id="kvg:06493-s6" kvg:type="&#12752;" />
			</g>
			<g id="kvg:06493-g5" kvg:position="bottom">
				<g id="kvg:06493-g6" kvg:element="&#22303;" kvg:position="left">
					<path d="M40.69,48.14c0.58,0.38,1.72,0.4,2.31,0.36c3.84-0.25,14.11-1.39,18.22-2c0.96-0.14,2.02-0.18,2.5,0.01" id="kvg:06493-s7" kvg:type="&#12736;/&#12752;" />
					<path d="M52.13,40.5c0.84,0.5,1.51,2.23,1.51,3.25c0,7.25,0.02,3.25,0.02,14" id="kvg:06493-s8" kvg:type="&#12753;" />
					<path d="M40.34,61.19c0.59,0.56,1.78,1.36,3.55,0.62c4.93-2.06,13.81-5.25,18.75-7.31" id="kvg:06493-s9" kvg:type="&#12752;" />
				</g>
				<g id="kvg:06493-g7" kvg:element="&#22303;" kvg:position="right">
					<path d="M69.11,46.03c0.64,0.32,1.81,0.33,2.45,0.32c5.93-0.11,14.2-1.61,20-1.71c1.06-0.02,1.7,0.15,2.23,0.31" id="kvg:06493-s10" kvg:type="&#12752;" />
					<path d="M80.21,36.12c0.07,0.23,1.09,1.22,1.09,2.71c0,1.67-0.22,11.42-0.22,18.38" id="kvg:06493-s11" kvg:type="&#12753;a" />
					<path d="M67.27,58.23c0.74,0.3,2.48,0.37,3.22,0.3C77.1,58,87.02,57,93.66,56.59c1.23-0.08,1.98,0.15,2.59,0.3" id="kvg:06493-s12" kvg:type="&#12752;" />
				</g>
			</g>
		</g>
		<g id="kvg:06493-g8" kvg:element="&#20800;" kvg:position="bottom">
			<g id="kvg:06493-g9" kvg:element="&#19968;">
				<path d="M41.77,69.9c0.96,0.37,2.73,0.41,3.69,0.37c6.71-0.27,34.31-3.76,43.46-3.76c1.6,0,2.57,0.18,3.37,0.36" id="kvg:06493-s13" kvg:type="&#12752;" />
			</g>
			<g id="kvg:06493-g10" kvg:element="&#20799;" kvg:original="&#20843;">
				<g id="kvg:06493-g11" kvg:element="&#20031;">
					<path d="M57.79,73.5c0.06,0.52,0.04,1.33-0.12,2.1c-1.42,6.9-7.42,16.9-21.5,20.07" id="kvg:06493-s14" kvg:type="&#12754;" />
				</g>
				<path d="M71.09,71.41c0.55,1.04,1.02,2.26,1.02,3.85c0,2.14-0.02,5.34-0.02,10.19c0,8.49,2.53,10.04,12.32,10.04c9.79,0,11.37-1.98,11.37-8.81" id="kvg:06493-s15" kvg:type="&#12767;" />
			</g>
		</g>
	</g>
</g>
</g>
<g id="kvg:StrokeNumbers_06493" style="font-size:8;fill:#808080">
	<text transform="matrix(1 0 0 1 6.50 37.50)">1</text>
	<text transform="matrix(1 0 0 1 18.50 14.50)">2</text>
	<text transform="matrix(1 0 0 1 4.50 67.50)">3</text>
	<text transform="matrix(1 0 0 1 43.50 22.50)">4</text>
	<text transform="matrix(1 0 0 1 57.50 13.50)">5</text>
	<text transform="matrix(1 0 0 1 45.50 31.50)">6</text>
	<text transform="matrix(1 0 0 1 35.50 47.93)">7</text>
	<text transform="matrix(1 0 0 1 44.50 42.50)">8</text>
	<text transform="matrix(1 0 0 1 40.50 58.50)">9</text>
	<text transform="matrix(1 0 0 1 66.50 43.50)">10</text>
	<text transform="matrix(1 0 0 1 83.50 40.13)">11</text>
	<text transform="matrix(1 0 0 1 67.50 55.50)">12</text>
	<text transform="matrix(1 0 0 1 32.25 73.50)">13</text>
	<text transform="matrix(1 0 0 1 45.50 80.50)">14</text>
	<text transform="matrix(1 0 0 1 61.50 81.50)">15</text>
</g>
</svg>