<svg xmlns="http://www.w3.org/2000/svg" xmlns:kvg="http://kanjivg.tagaini.net" height="109" meaning="strike, hit, folding chair radical variant (no. 66)" viewBox="0 0 109 109" width="109">
<g id="kvg:StrokePaths_06535" style="fill:none;stroke:#000000;stroke-width:3;stroke-linecap:round;stroke-linejoin:round;">
<g id="kvg:06535" kvg:element="&#25909;" kvg:original="&#25908;" kvg:radical="general" kvg:variant="true">
	<g id="kvg:06535-g1" kvg:position="top">
		<path d="M43.5,15.14c0.06,0.96,0.29,2.52-0.11,3.87C40.5,28.75,34,45.25,24,57" id="kvg:06535-s1" kvg:type="&#12754;" />
		<path d="M42,34.67c1.5,0.33,4.28,0,5.09-0.04c8.39-0.52,21.41-3.88,34.22-4.72c1.44-0.09,2.32-0.02,2.69,0.08" id="kvg:06535-s2" kvg:type="&#12752;" />
	</g>
	<g id="kvg:06535-g2" kvg:element="&#20034;" kvg:position="bottom">
		<g id="kvg:06535-g3" kvg:element="&#20031;">
			<path d="M70.85,35.43c0.73,1.51,1.13,2.58,0.37,5.33C64.25,65.75,48.5,87.25,25.5,97.75" id="kvg:06535-s3" kvg:type="&#12754;" />
		</g>
		<path d="M36.25,49.5c2,0,3.18,1.08,4.76,2.54C51.75,62,71.5,81.25,85.84,90.68c2.64,1.74,5.44,2.89,7.66,3.07" id="kvg:06535-s4" kvg:type="&#12751;" />
	</g>
</g>
</g>
<g id="kvg:StrokeNumbers_06535" style="font-size:8;fill:#808080">
	<text transform="matrix(1 0 0 1 35.50 15.13)">1</text>
	<text transform="matrix(1 0 0 1 45.50 31.50)">2</text>
	<text transform="matrix(1 0 0 1 62.50 41.50)">3</text>
	<text transform="matrix(1 0 0 1 39.50 48.50)">4</text>
</g>
</svg>