<svg xmlns="http://www.w3.org/2000/svg" xmlns:kvg="http://kanjivg.tagaini.net" height="109" meaning="strike, hit, folding chair radical (no. 66)" viewBox="0 0 109 109" width="109">
<g id="kvg:StrokePaths_06534" style="fill:none;stroke:#000000;stroke-width:3;stroke-linecap:round;stroke-linejoin:round;">
<g id="kvg:06534" kvg:element="&#25908;" kvg:radical="tradit">
	<g id="kvg:06534-g1" kvg:element="&#25909;" kvg:radical="nelson" kvg:variant="true">
		<g id="kvg:06534-g2" kvg:element="&#21340;" kvg:original="&#12488;" kvg:position="top">
			<path d="M52.28,10.88c0.48,0.31,1.5,2.32,1.6,2.93c0.1,0.62-0.06,25.7-0.16,29.57" id="kvg:06534-s1" kvg:type="&#12753;" />
			<path d="M54,26.75c2.75-0.25,24.25-3,25.75-3s3.52,0,4.75,0.25" id="kvg:06534-s2" kvg:type="&#12756;" />
		</g>
		<g id="kvg:06534-g3" kvg:element="&#21448;" kvg:position="bottom">
			<path d="M33.5,45.23c2,0.38,2.25,0.96,6.25,0.38s29.25-4.06,32-4.64s4.88,2.18,3.75,4.22C62.25,69,40.5,89.75,16,97.5" id="kvg:06534-s3" kvg:type="&#12743;" />
			<path d="M34.5,52.7c5.27,1.03,31.04,28.63,49.4,39.94c2.86,1.76,4.94,2.93,7.6,3.52" id="kvg:06534-s4" kvg:type="&#12751;" />
		</g>
	</g>
</g>
</g>
<g id="kvg:StrokeNumbers_06534" style="font-size:8;fill:#808080">
	<text transform="matrix(1 0 0 1 42.50 11.50)">1</text>
	<text transform="matrix(1 0 0 1 58.50 22.50)">2</text>
	<text transform="matrix(1 0 0 1 30.50 42.50)">3</text>
	<text transform="matrix(1 0 0 1 30.50 61.55)">4</text>
</g>
</svg>