<svg xmlns="http://www.w3.org/2000/svg" xmlns:kvg="http://kanjivg.tagaini.net" height="109" meaning="happenstance, especially, intentionally, reason, cause, circumstances, the late, therefore, consequently" viewBox="0 0 109 109" width="109">
<g id="kvg:StrokePaths_06545" style="fill:none;stroke:#000000;stroke-width:3;stroke-linecap:round;stroke-linejoin:round;">
<g id="kvg:06545" kvg:element="&#25925;">
	<g id="kvg:06545-g1" kvg:element="&#21476;" kvg:phon="&#21476;" kvg:position="left">
		<g id="kvg:06545-g2" kvg:element="&#21313;" kvg:position="top">
			<path d="M10.25,42.31c2,0.44,4.07,0.38,6.01,0.05c7.83-1.33,15.54-2.79,23.87-3.72c1.75-0.19,3.62-0.45,5.37-0.13" id="kvg:06545-s1" kvg:type="&#12752;" />
			<path d="M26.69,18.74c0.85,0.85,1.51,2.13,1.51,3.67c0,15.7,0.05,31.43,0.05,39.03" id="kvg:06545-s2" kvg:type="&#12753;a" />
		</g>
		<g id="kvg:06545-g3" kvg:element="&#21475;" kvg:position="bottom">
			<path d="M14.54,63.06c0.82,0.82,1.29,2.1,1.46,3.31c0.8,5.94,1.23,9.54,2.03,14.87c0.28,1.89,0.3,2.76,0.54,4.51" id="kvg:06545-s3" kvg:type="&#12753;" />
			<path d="M15.99,64.54c6.76-1.14,16.37-3.14,21.61-3.84c2.91-0.39,4.77,1.05,4.27,3.52c-0.8,4.01-2.19,8.58-3.1,13.39" id="kvg:06545-s4" kvg:type="&#12757;b" />
			<path d="M19.5,81.24c4.99-0.69,12.04-1.69,18.1-2.35c1.54-0.17,3-0.31,4.32-0.42" id="kvg:06545-s5" kvg:type="&#12752;b" />
		</g>
	</g>
	<g id="kvg:06545-g4" kvg:element="&#25908;" kvg:original="&#25909;" kvg:position="right" kvg:radical="general" kvg:variant="true">
		<g id="kvg:06545-g5" kvg:position="top">
			<path d="M62.13,19.75c0.25,1.52,0.09,2.98-0.37,4.4c-2.56,7.96-7.19,20.25-13.59,30.34" id="kvg:06545-s6" kvg:type="&#12754;" />
			<path d="M58.73,42.38c1.27,0.12,2.38-0.01,3.04-0.12c8.48-1.42,14.33-3.09,22.97-5.8c1.75-0.55,3.66-0.97,5.52-0.67" id="kvg:06545-s7" kvg:type="&#12752;" />
		</g>
		<g id="kvg:06545-g6" kvg:element="&#20034;" kvg:position="bottom">
			<g id="kvg:06545-g7" kvg:element="&#20031;">
				<path d="M76.64,43.95c0.53,1.16,0.58,2.48,0.02,4.61C71.6,67.83,61.43,84.34,43.16,91.5" id="kvg:06545-s8" kvg:type="&#12754;" />
			</g>
			<path d="M54.61,54.77C59.5,56.01,74.93,76.71,85.3,86.2C87.6,88.3,90,90.62,93,92" id="kvg:06545-s9" kvg:type="&#12751;" />
		</g>
	</g>
</g>
</g>
<g id="kvg:StrokeNumbers_06545" style="font-size:8;fill:#808080">
	<text transform="matrix(1 0 0 1 4.50 42.50)">1</text>
	<text transform="matrix(1 0 0 1 17.50 19.63)">2</text>
	<text transform="matrix(1 0 0 1 8.50 70.50)">3</text>
	<text transform="matrix(1 0 0 1 15.75 61.50)">4</text>
	<text transform="matrix(1 0 0 1 21.25 77.90)">5</text>
	<text transform="matrix(1 0 0 1 52.12 19.25)">6</text>
	<text transform="matrix(1 0 0 1 62.25 39.25)">7</text>
	<text transform="matrix(1 0 0 1 69.00 48.93)">8</text>
	<text transform="matrix(1 0 0 1 57.38 52.80)">9</text>
</g>
</svg>