<svg xmlns="http://www.w3.org/2000/svg" xmlns:kvg="http://kanjivg.tagaini.net" height="109" kun="&#12383;&#12383;.&#12367;" meaning="strike, beat, hit" on="&#12467;&#12454;" viewBox="0 0 109 109" width="109">
<g id="kvg:StrokePaths_06572" style="fill:none;stroke:#000000;stroke-width:3;stroke-linecap:round;stroke-linejoin:round;">
<g id="kvg:06572" kvg:element="&#25970;">
	<g id="kvg:06572-g1" kvg:element="&#39640;" kvg:position="left" kvg:radical="nelson">
		<g id="kvg:06572-g2" kvg:position="top">
			<g id="kvg:06572-g3" kvg:element="&#20128;">
				<path d="M28.76,13.75c0.55,0.45,1.47,2.2,1.47,3.1c0,3.32-0.07,7.15-0.07,10.72" id="kvg:06572-s1" kvg:type="&#12753;a" />
				<path d="M9.97,29.24c0.88,0.07,2.88,0.43,3.74,0.38c7.79-0.37,24.52-3.19,33.9-3.39c1.45-0.03,2.19,0.03,3.26,0.49" id="kvg:06572-s2" kvg:type="&#12752;" />
			</g>
			<g id="kvg:06572-g4" kvg:element="&#21475;">
				<path d="M18.82,35.87c0.32,0.29,0.65,0.53,0.79,0.89c1.11,2.86,1.27,9.75,2.03,14.88" id="kvg:06572-s3" kvg:type="&#12753;" />
				<path d="M20.82,37.81c6.57-1.49,15.98-3.14,19.74-3.52c1.38-0.14,2.2,1.71,2,2.52c-0.82,3.34-1.18,5.09-2.39,9.7" id="kvg:06572-s4" kvg:type="&#12757;b" />
				<path d="M21.79,49.14c4.42-0.42,13.7-1.55,19.77-2.21" id="kvg:06572-s5" kvg:type="&#12752;b" />
			</g>
		</g>
		<g id="kvg:06572-g5" kvg:position="bottom">
			<g id="kvg:06572-g6" kvg:element="&#20866;">
				<path d="M11.93,55.77c0.57,0.98,1.33,1.94,1.44,4.35c0.26,5.61,0.84,25.33,1.2,33.88" id="kvg:06572-s6" kvg:type="&#12753;" />
				<path d="M13.24,57.8c6.68-0.53,32.34-4.28,33.6-4.38c2.16-0.17,3.91,1.58,3.72,4.71c-0.59,9.85-2.14,24.13-4.21,31.83c-1.86,6.88-3.31,1.85-5.1,0" id="kvg:06572-s7" kvg:type="&#12742;a" />
			</g>
			<g id="kvg:06572-g7" kvg:element="&#21475;">
				<path d="M21.86,64.08c0.25,0.28,0.51,0.51,0.62,0.86c0.87,2.76,2.41,10.35,3.01,15.3" id="kvg:06572-s8" kvg:type="&#12753;" />
				<path d="M23.43,65.95c5.07-1.2,10.74-2.38,13.67-2.89c1.19-0.21,2.34,1.13,2.22,2.46c-0.29,3.31-0.88,5.71-1.83,10.16" id="kvg:06572-s9" kvg:type="&#12757;b" />
				<path d="M25.61,77.82c3.45-0.41,8.21-1.12,12.95-1.74" id="kvg:06572-s10" kvg:type="&#12752;b" />
			</g>
		</g>
	</g>
	<g id="kvg:06572-g8" kvg:element="&#25908;" kvg:position="right" kvg:radical="tradit">
		<g id="kvg:06572-g9" kvg:element="&#21340;" kvg:original="&#12488;" kvg:position="top">
			<path d="M68.88,15.38c0.28,0.31,0.89,2.32,0.94,2.93c0.06,0.62-0.04,23.7-0.09,27.57" id="kvg:06572-s11" kvg:type="&#12753;" />
			<path d="M69.9,29.28c2.14-0.23,18.86-2.81,20.03-2.81c1.17,0,2.74,0,3.7,0.23" id="kvg:06572-s12" kvg:type="&#12756;" />
		</g>
		<g id="kvg:06572-g10" kvg:element="&#21448;" kvg:position="bottom">
			<path d="M57.48,47.56c1.11,0.35,1.25,0.87,3.47,0.35s23.26-3.67,24.79-4.19c1.53-0.52,2.72,1.97,2.09,3.81c-7.37,21.49-19.46,40.23-33.08,47.22" id="kvg:06572-s13" kvg:type="&#12743;" />
			<path d="M59.9,55.2c2.85,2.55,16.6,24.55,30.42,35.34c1.85,1.45,3.04,2.6,4.68,3.12" id="kvg:06572-s14" kvg:type="&#12751;" />
		</g>
	</g>
</g>
</g>
<g id="kvg:StrokeNumbers_06572" style="font-size:8;fill:#808080">
	<text transform="matrix(1 0 0 1 20.75 13.50)">1</text>
	<text transform="matrix(1 0 0 1 2.50 28.50)">2</text>
	<text transform="matrix(1 0 0 1 11.75 42.50)">3</text>
	<text transform="matrix(1 0 0 1 21.50 35.50)">4</text>
	<text transform="matrix(1 0 0 1 24.50 45.50)">5</text>
	<text transform="matrix(1 0 0 1 5.50 63.50)">6</text>
	<text transform="matrix(1 0 0 1 14.75 55.68)">7</text>
	<text transform="matrix(1 0 0 1 16.50 73.50)">8</text>
	<text transform="matrix(1 0 0 1 24.50 63.53)">9</text>
	<text transform="matrix(1 0 0 1 26.50 74.50)">10</text>
	<text transform="matrix(1 0 0 1 56.75 14.50)">11</text>
	<text transform="matrix(1 0 0 1 73.50 24.50)">12</text>
	<text transform="matrix(1 0 0 1 55.50 45.50)">13</text>
	<text transform="matrix(1 0 0 1 54.50 66.50)">14</text>
</g>
</svg>