<svg xmlns="http://www.w3.org/2000/svg" xmlns:kvg="http://kanjivg.tagaini.net" height="109" kun="&#12365;.&#12427;" meaning="beheading, kill, murder" on="&#12470;&#12531;, &#12469;&#12531;, &#12475;&#12531;, &#12476;&#12531;" viewBox="0 0 109 109" width="109">
<g id="kvg:StrokePaths_065ac" style="fill:none;stroke:#000000;stroke-width:3;stroke-linecap:round;stroke-linejoin:round;">
<g id="kvg:065ac" kvg:element="&#26028;">
	<g id="kvg:065ac-g1" kvg:element="&#36554;" kvg:position="left" kvg:radical="nelson">
		<path d="M15.14,28.54c2.45,0.58,4.83,0.41,7.37,0.12c7.43-0.85,14.84-1.97,22.26-2.74c2.55-0.46,5.09-0.42,7.59,0.13" id="kvg:065ac-s1" kvg:type="&#12752;" />
		<path d="M15.71,40.4c0.52,0.47,1.19,1.84,1.29,2.46c0.71,4.53,2.07,12.94,3.07,21.52" id="kvg:065ac-s2" kvg:type="&#12753;" />
		<path d="M17.48,41.62c7.06-0.8,21.57-3.27,28.66-3.87c3.13-0.26,5.54,1.53,5.05,4.65c-0.93,5.86-2.43,12.45-4.01,19.5" id="kvg:065ac-s3" kvg:type="&#12757;a" />
		<path d="M19.61,51.93C27,51.38,37.25,50,48.8,49.4" id="kvg:065ac-s4" kvg:type="&#12752;a" />
		<path d="M20.86,62.47c7-0.94,16.76-2.22,25.81-2.52" id="kvg:065ac-s5" kvg:type="&#12752;a" />
		<path d="M11.72,75.9c2.63,0.63,5.22,0.42,7.9,0.02c8.41-1.24,17.87-2.25,25.4-2.97c2.33-0.37,4.66-0.4,7-0.09" id="kvg:065ac-s6" kvg:type="&#12752;" />
		<path d="M32.67,14.38c1.23,1.23,1.37,2.87,1.37,5.08c0,6.53,0.01,45.93,0.01,65.66c0,5.3,0,9.22,0,10.76" id="kvg:065ac-s7" kvg:type="&#12753;" />
	</g>
	<g id="kvg:065ac-g2" kvg:element="&#26020;" kvg:position="right" kvg:radical="tradit">
		<path d="M82.57,13.75c-0.2,0.98-0.56,1.9-1.07,2.76c-4.26,7.24-7.97,10.79-16.01,17.87" id="kvg:065ac-s8" kvg:type="&#12754;" />
		<path d="M61.84,36.33c1.16,1.16,1.37,2.49,1.33,4.44C62.75,63.12,60.62,80,50.81,93.27" id="kvg:065ac-s9" kvg:type="&#12754;" />
		<path d="M65.34,46.85c2.13,0.08,4.23-0.16,6.29-0.72c5.98-1.15,12.75-2.01,20.98-3.16c2.04-0.28,4.08-0.34,6.14-0.22" id="kvg:065ac-s10" kvg:type="&#12752;" />
		<path d="M80.93,47.98c0.98,0.98,1.19,2.27,1.19,3.85c0,0.97-0.07,22.14-0.1,35.8C82.01,91.88,82,95.41,82,97.38" id="kvg:065ac-s11" kvg:type="&#12753;" />
	</g>
</g>
</g>
<g id="kvg:StrokeNumbers_065ac" style="font-size:8;fill:#808080">
	<text transform="matrix(1 0 0 1 8.50 29.50)">1</text>
	<text transform="matrix(1 0 0 1 9.50 48.50)">2</text>
	<text transform="matrix(1 0 0 1 18.50 38.23)">3</text>
	<text transform="matrix(1 0 0 1 23.00 49.90)">4</text>
	<text transform="matrix(1 0 0 1 23.50 59.58)">5</text>
	<text transform="matrix(1 0 0 1 4.50 77.50)">6</text>
	<text transform="matrix(1 0 0 1 24.50 13.18)">7</text>
	<text transform="matrix(1 0 0 1 73.50 13.50)">8</text>
	<text transform="matrix(1 0 0 1 55.25 43.78)">9</text>
	<text transform="matrix(1 0 0 1 68.75 42.95)">10</text>
	<text transform="matrix(1 0 0 1 71.50 55.50)">11</text>
</g>
</svg>