<svg xmlns="http://www.w3.org/2000/svg" xmlns:kvg="http://kanjivg.tagaini.net" height="109" kun="&#12375;&#12426;&#12382;.&#12369;&#12427;" meaning="reject, retreat, recede, withdraw, repel, repulse" on="&#12475;&#12461;" viewBox="0 0 109 109" width="109">
<g id="kvg:StrokePaths_065a5" style="fill:none;stroke:#000000;stroke-width:3;stroke-linecap:round;stroke-linejoin:round;">
<g id="kvg:065a5" kvg:element="&#26021;">
	<g id="kvg:065a5-g1" kvg:element="&#26020;" kvg:radical="tradit">
		<g id="kvg:065a5-g2" kvg:element="&#20031;" kvg:radical="nelson">
			<path d="M59.76,11.75c-0.39,1.25-1.14,2.17-1.87,2.68C49.5,20.25,41.88,23.5,28,28.75" id="kvg:065a5-s1" kvg:type="&#12754;" />
		</g>
		<path d="M23.18,28.63c1.16,1.16,1.46,2.88,1.52,4.9C25.5,61.5,22.5,78,13.06,87.36" id="kvg:065a5-s2" kvg:type="&#12754;" />
		<path d="M28.25,41.69c4,0.31,6.76,0.14,9.74-0.23c11.47-1.42,32.93-3.79,44-4.65c2.87-0.22,6.15-0.24,9,0.29" id="kvg:065a5-s3" kvg:type="&#12752;" />
		<path d="M57.62,41.8c1.04,1.04,1.32,2.7,1.32,5.01c0,4.97,0.07,29.65-0.01,44.94c-0.02,3.76-0.03,6.98-0.03,9.25" id="kvg:065a5-s4" kvg:type="&#12753;" />
	</g>
	<g id="kvg:065a5-g3" kvg:element="&#20022;">
		<path d="M46.52,61.33c12.36,1.92,28.73,9.17,32.54,14.13" id="kvg:065a5-s5" kvg:type="&#12756;" />
	</g>
</g>
</g>
<g id="kvg:StrokeNumbers_065a5" style="font-size:8;fill:#808080">
	<text transform="matrix(1 0 0 1 50.25 10.63)">1</text>
	<text transform="matrix(1 0 0 1 15.75 37.63)">2</text>
	<text transform="matrix(1 0 0 1 32.25 38.50)">3</text>
	<text transform="matrix(1 0 0 1 50.25 50.50)">4</text>
	<text transform="matrix(1 0 0 1 37.50 62.50)">5</text>
</g>
</svg>