<svg xmlns="http://www.w3.org/2000/svg" xmlns:kvg="http://kanjivg.tagaini.net" height="109" meaning="nothing, not exist, crooked heaven radical (no.71)" viewBox="0 0 109 109" width="109">
<g id="kvg:StrokePaths_065e0" style="fill:none;stroke:#000000;stroke-width:3;stroke-linecap:round;stroke-linejoin:round;">
<g id="kvg:065e0" kvg:element="&#26080;" kvg:radical="tradit">
	<g id="kvg:065e0-g1" kvg:element="&#26081;" kvg:radical="nelson" kvg:variant="true">
		<path d="M26.75,18.9c1.44,0.36,4.1,0.49,5.54,0.36c7.54-0.67,37.51-3.18,48.15-3.51c2.41-0.07,3.85,0.17,5.06,0.36" id="kvg:065e0-s1" kvg:type="&#12752;" />
		<path d="M15.82,47.38c2.03,0.37,3.23,0.94,6.77,0.74c15.07-0.87,53.86-4.18,68.39-4.43c2.12-0.04,3.44,0.31,5.1,0.69" id="kvg:065e0-s2" kvg:type="&#12752;" />
		<g id="kvg:065e0-g2" kvg:element="&#20799;">
			<g id="kvg:065e0-g3" kvg:element="&#20843;" kvg:variant="true">
				<g id="kvg:065e0-g4" kvg:element="&#20031;" kvg:position="left">
					<path d="M53.88,20.68c0.62,1.05,0.9,3.05,0.77,5.62c-1.16,23.43-8.2,56.06-41.9,69.21" id="kvg:065e0-s3" kvg:type="&#12754;" />
				</g>
				<g id="kvg:065e0-g5" kvg:position="right">
					<path d="M55.49,52.87c0.74,1.19,1.33,2.59,1.38,4.43c0.2,8.19-0.07,21.14-0.07,26.7c0,10.75,3.46,12.53,18.78,12.53c12.93,0,18.93-1.78,18.93-12.12" id="kvg:065e0-s4" kvg:type="&#12767;" />
				</g>
			</g>
		</g>
	</g>
</g>
</g>
<g id="kvg:StrokeNumbers_065e0" style="font-size:8;fill:#808080">
	<text transform="matrix(1 0 0 1 20.50 18.50)">1</text>
	<text transform="matrix(1 0 0 1 8.50 46.50)">2</text>
	<text transform="matrix(1 0 0 1 46.50 27.50)">3</text>
	<text transform="matrix(1 0 0 1 61.50 56.50)">4</text>
</g>
</svg>