<svg xmlns="http://www.w3.org/2000/svg" xmlns:kvg="http://kanjivg.tagaini.net" height="109" kun="&#12354;&#12365;&#12382;&#12425;" meaning="the autumn sky" on="&#12499;&#12531;, &#12511;&#12531;" viewBox="0 0 109 109" width="109">
<g id="kvg:StrokePaths_065fb" style="fill:none;stroke:#000000;stroke-width:3;stroke-linecap:round;stroke-linejoin:round;">
<g id="kvg:065fb" kvg:element="&#26107;">
	<g id="kvg:065fb-g1" kvg:element="&#26085;" kvg:position="top" kvg:radical="general">
		<path d="M29.49,13.44c0.49,0.49,0.59,0.8,0.77,1.44c1.49,5.37,2.99,16.37,4.67,26.33" id="kvg:065fb-s1" kvg:type="&#12753;" />
		<path d="M30.82,15.54c11.83-1.06,35.61-2.87,44.44-3.76c3.24-0.33,3.91,1.87,3.74,3.02c-0.61,4.23-2.76,16.69-5.1,24.35" id="kvg:065fb-s2" kvg:type="&#12757;a" />
		<path d="M33.03,26.92c3.85-0.41,41.21-3.46,44.39-3.63" id="kvg:065fb-s3" kvg:type="&#12752;a" />
		<path d="M34.79,38.68c10.96-1.16,27.85-2.35,39.61-3.09" id="kvg:065fb-s4" kvg:type="&#12752;a" />
	</g>
	<g id="kvg:065fb-g2" kvg:element="&#25991;" kvg:position="bottom">
		<g id="kvg:065fb-g3" kvg:element="&#20128;" kvg:position="top">
			<path d="M51.89,41.75c0.95,0.44,2.5,2.15,2.5,3.03c0,3.49-0.03,6.9-0.13,9.4" id="kvg:065fb-s5" kvg:type="&#12753;a" />
			<path d="M19.71,56.53c1.82,0.07,5.25,0.4,7.02,0.36c14.82-0.34,38.9-4.2,58.31-4.4c3-0.03,4.53,0.03,6.76,0.46" id="kvg:065fb-s6" kvg:type="&#12752;" />
		</g>
		<g id="kvg:065fb-g4" kvg:element="&#20034;" kvg:position="bottom">
			<path d="M67.53,57.23c0.63,0.94,0.37,2.69-0.69,4.33C56.75,77.25,40.5,91,17.55,99.5" id="kvg:065fb-s7" kvg:type="&#12754;" />
			<path d="M34.72,64.8c3.78,0.7,33.25,23.29,49.24,31.71c3.01,1.58,5.22,1.56,7.83,1.7" id="kvg:065fb-s8" kvg:type="&#12751;" />
		</g>
	</g>
</g>
</g>
<g id="kvg:StrokeNumbers_065fb" style="font-size:8;fill:#808080">
	<text transform="matrix(1 0 0 1 23.50 21.50)">1</text>
	<text transform="matrix(1 0 0 1 33.50 11.50)">2</text>
	<text transform="matrix(1 0 0 1 37.50 23.50)">3</text>
	<text transform="matrix(1 0 0 1 38.50 35.50)">4</text>
	<text transform="matrix(1 0 0 1 44.25 46.50)">5</text>
	<text transform="matrix(1 0 0 1 12.50 56.50)">6</text>
	<text transform="matrix(1 0 0 1 58.50 63.50)">7</text>
	<text transform="matrix(1 0 0 1 28.50 69.50)">8</text>
</g>
</svg>