<svg xmlns="http://www.w3.org/2000/svg" xmlns:kvg="http://kanjivg.tagaini.net" height="109" kun="&#12354;.&#12363;&#12426;, &#12354;&#12363;.&#12427;&#12356;, &#12354;&#12363;.&#12427;&#12416;, &#12354;&#12363;.&#12425;&#12416;, &#12354;&#12365;.&#12425;&#12363;, &#12354;.&#12369;&#12427;, -&#12354;.&#12369;, &#12354;.&#12367;, &#12354;.&#12367;&#12427;, &#12354;.&#12363;&#12377;" meaning="bright, light" on="&#12513;&#12452;, &#12511;&#12519;&#12454;, &#12511;&#12531;" viewBox="0 0 109 109" width="109">
<g id="kvg:StrokePaths_0660e" style="fill:none;stroke:#000000;stroke-width:3;stroke-linecap:round;stroke-linejoin:round;">
<g id="kvg:0660e" kvg:element="&#26126;">
	<g id="kvg:0660e-g1" kvg:element="&#26085;" kvg:position="left" kvg:radical="general">
		<path d="M16.75,25.22c0.89,0.89,1.32,2.29,1.32,3.66c0,1.11,0.07,27.44,0,37.63c-0.02,2.32-0.02,3.78-0.02,3.91" id="kvg:0660e-s1" kvg:type="&#12753;" />
		<path d="M19.29,27.75c5.66-0.81,19.54-2.59,21.22-2.75c1.76-0.17,2.89,1.89,2.75,2.91c-0.23,1.7-0.45,27.34-0.52,36.6c-0.01,1.9-0.02,3.11-0.02,3.29" id="kvg:0660e-s2" kvg:type="&#12757;a" />
		<path d="M19.16,46.97C23.5,46.5,37,45.12,41.77,44.76" id="kvg:0660e-s3" kvg:type="&#12752;a" />
		<path d="M19,66.59c8.5-0.97,14.37-1.59,22.49-2.11" id="kvg:0660e-s4" kvg:type="&#12752;a" />
	</g>
	<g id="kvg:0660e-g2" kvg:element="&#26376;" kvg:position="right">
		<path d="M57.55,16c0.95,1.25,1.09,2.48,1.11,3.5c1.09,49.25-4.41,64.75-17.41,75.75" id="kvg:0660e-s5" kvg:type="&#12754;" />
		<path d="M59.5,17.98c6.56-1.04,21.76-3.51,23.07-3.73c2.97-0.5,5.21,0.62,5.21,4.5c0,1.49,0.19,50.25,0.19,70.5c0,11.88-7.22,3.5-8.3,2.5" id="kvg:0660e-s6" kvg:type="&#12742;a" />
		<path d="M59.77,39c7.85-1,19.73-2.25,26.95-2.75" id="kvg:0660e-s7" kvg:type="&#12752;a" />
		<path d="M59.25,57.75c6.62-0.62,20-1.5,27.36-2" id="kvg:0660e-s8" kvg:type="&#12752;a" />
	</g>
</g>
</g>
<g id="kvg:StrokeNumbers_0660e" style="font-size:8;fill:#808080">
	<text transform="matrix(1 0 0 1 9.50 28.63)">1</text>
	<text transform="matrix(1 0 0 1 20.50 24.13)">2</text>
	<text transform="matrix(1 0 0 1 22.50 42.13)">3</text>
	<text transform="matrix(1 0 0 1 22.50 63.13)">4</text>
	<text transform="matrix(1 0 0 1 50.50 24.13)">5</text>
	<text transform="matrix(1 0 0 1 60.50 15.00)">6</text>
	<text transform="matrix(1 0 0 1 63.50 36.00)">7</text>
	<text transform="matrix(1 0 0 1 63.50 54.50)">8</text>
</g>
</svg>