<svg xmlns="http://www.w3.org/2000/svg" xmlns:kvg="http://kanjivg.tagaini.net" height="109" meaning="long day, clear" viewBox="0 0 109 109" width="109">
<g id="kvg:StrokePaths_06636" style="fill:none;stroke:#000000;stroke-width:3;stroke-linecap:round;stroke-linejoin:round;">
<g id="kvg:06636" kvg:element="&#26166;">
	<g id="kvg:06636-g1" kvg:element="&#27704;" kvg:position="left">
		<g id="kvg:06636-g2" kvg:element="&#20022;" kvg:position="top">
			<path d="M27,13c6.02,2.6,10.84,6.17,12.64,9.75" id="kvg:06636-s1" kvg:type="&#12756;" />
		</g>
		<g id="kvg:06636-g3" kvg:element="&#27700;" kvg:position="bottom" kvg:variant="true">
			<path d="M21.69,35.75c0.02,0.12,1.78,1.12,3.63,0.81C28.75,36,35.66,33.5,39,33.5c1.77,0,3.94,1.01,3.75,4.25c-0.8,13.75-0.99,48.72-0.99,53.27c0,7.73-5.01,2.98-7.97,0.92" id="kvg:06636-s2" kvg:type="&#12742;" />
			<path d="M14.5,53.96c1.27,0.23,2.76,0.91,4.03,0.45c1.27-0.45,10.39-2.35,12.5-3.25c2.12-0.91,3.94,0.73,3.18,2.72c-4.1,10.72-11.67,24.69-19.94,31" id="kvg:06636-s3" kvg:type="&#12743;" />
			<path d="M58.25,40.1c0.06,0.41,0.11,1.11-0.12,1.65C56,46.8,51.22,53.5,47.36,56.14" id="kvg:06636-s4" kvg:type="&#12754;" />
			<path d="M43.41,55.24C53.55,66.91,70.56,82.66,81.9,89.38c2.39,1.42,4.66,2.13,6.85,2.62" id="kvg:06636-s5" kvg:type="&#12751;" />
		</g>
	</g>
	<g id="kvg:06636-g4" kvg:element="&#26085;" kvg:position="right" kvg:radical="general">
		<path d="M68.27,24.44c0.39,0.78,0.78,1.18,0.78,2.22c0,1.04-0.13,47.29,0,48.34" id="kvg:06636-s6" kvg:type="&#12753;" />
		<path d="M69.69,26.07c2.2-0.13,18.41-2.17,20.42-2.33c1.67-0.13,2.74,1.45,2.61,2.22c-0.26,1.57-0.52,47.23-0.52,48.01" id="kvg:06636-s7" kvg:type="&#12757;a" />
		<path d="M70.08,47.73c2.97,0,17.86-1.81,21.22-1.81" id="kvg:06636-s8" kvg:type="&#12752;a" />
		<path d="M69.94,72.06C76,71.5,83.75,71,91.29,70.52" id="kvg:06636-s9" kvg:type="&#12752;a" />
	</g>
</g>
</g>
<g id="kvg:StrokeNumbers_06636" style="font-size:8;fill:#808080">
	<text transform="matrix(1 0 0 1 19.50 12.50)">1</text>
	<text transform="matrix(1 0 0 1 13.50 35.50)">2</text>
	<text transform="matrix(1 0 0 1 6.50 54.50)">3</text>
	<text transform="matrix(1 0 0 1 50.50 38.50)">4</text>
	<text transform="matrix(1 0 0 1 46.50 71.50)">5</text>
	<text transform="matrix(1 0 0 1 60.50 31.50)">6</text>
	<text transform="matrix(1 0 0 1 72.50 22.50)">7</text>
	<text transform="matrix(1 0 0 1 73.50 44.50)">8</text>
	<text transform="matrix(1 0 0 1 73.50 68.50)">9</text>
</g>
</svg>