<svg xmlns="http://www.w3.org/2000/svg" xmlns:kvg="http://kanjivg.tagaini.net" height="109" kun="&#12402;&#12427;" meaning="daytime, daylight" on="&#12481;&#12517;&#12454;" viewBox="0 0 109 109" width="109">
<g id="kvg:StrokePaths_0665d" style="fill:none;stroke:#000000;stroke-width:3;stroke-linecap:round;stroke-linejoin:round;">
<g id="kvg:0665d" kvg:element="&#26205;">
	<g id="kvg:0665d-g1" kvg:element="&#32895;" kvg:position="top">
		<g id="kvg:0665d-g2" kvg:element="&#11925;" kvg:original="&#24401;" kvg:variant="true">
			<path d="M30.24,21.88c3.16,0.91,3.34,0.83,5.41,0.64c9.45-0.89,31.8-2.88,40.79-3.64c1.56-0.13,3.59,1.51,2.91,3.55c-0.86,2.57-1.37,7.73-2.89,16.82" id="kvg:0665d-s1" kvg:type="&#12757;c" />
			<path d="M19.14,32.63c2.03,0.14,3.61,0.42,5.85,0.23c15.76-1.36,45.51-3.19,61.03-4.26c2.48-0.17,4.5,0.27,5.63,0.44" id="kvg:0665d-s2" kvg:type="&#12752;" />
			<path d="M31.36,41.85c1.21,0.17,3.4,0.62,4.84,0.47c13.28-1.38,25.85-2.36,37.93-3.1c1.93-0.12,3.14-0.09,4.59,0.07" id="kvg:0665d-s3" kvg:type="&#12752;" />
		</g>
		<path d="M31.54,51.06c1.16,0.26,3.28,0.24,4.45,0.18c12.07-0.63,31.01-2.48,39.52-3.06c1.93-0.13,3.09,0.06,4.06,0.18" id="kvg:0665d-s4" kvg:type="&#12752;" />
		<path d="M19,61.5c1.54,0.37,4.37,0.36,5.9,0.26c16.01-1.07,47.95-4.18,61.95-4.52c2.56-0.06,4.1,0.09,5.39,0.26" id="kvg:0665d-s5" kvg:type="&#12752;" />
		<g id="kvg:0665d-g3" kvg:element="&#20008;">
			<path d="M52.59,10.27c1.11,0.35,1.78,1.64,2,2.38c0.23,0.74,0.44,41.72,0.26,46.4" id="kvg:0665d-s6" kvg:type="&#12753;" />
		</g>
	</g>
	<g id="kvg:0665d-g4" kvg:element="&#26086;" kvg:position="bottom">
		<g id="kvg:0665d-g5" kvg:element="&#26085;" kvg:position="top" kvg:radical="tradit">
			<path d="M33.25,67.34c0.35,0.38,0.72,0.71,0.87,1.19c1.23,3.82,2.7,14.36,3.54,21.22" id="kvg:0665d-s7" kvg:type="&#12753;" />
			<path d="M35.15,69.6c13.12-1.99,29.1-3.86,36.62-4.36c2.75-0.18,4.19,1.03,4,2.17c-0.84,5.17-1.57,13.6-3.8,20.05" id="kvg:0665d-s8" kvg:type="&#12757;a" />
			<path d="M36.55,78.6c9.32-0.6,24.55-2.88,36.52-3.3" id="kvg:0665d-s9" kvg:type="&#12752;a" />
			<path d="M38,87.53c8.83-0.57,22.31-1.8,34.43-2.68" id="kvg:0665d-s10" kvg:type="&#12752;a" />
		</g>
		<g id="kvg:0665d-g6" kvg:element="&#19968;" kvg:position="bottom">
			<path d="M17.25,96.83c1.6,0.39,4.54,0.39,6.14,0.28c16.65-1.16,51.94-2.61,66.5-2.99c2.67-0.07,4.27,0.1,5.6,0.29" id="kvg:0665d-s11" kvg:type="&#12752;" />
		</g>
	</g>
</g>
</g>
<g id="kvg:StrokeNumbers_0665d" style="font-size:8;fill:#808080">
	<text transform="matrix(1 0 0 1 23.50 22.50)">1</text>
	<text transform="matrix(1 0 0 1 11.50 33.50)">2</text>
	<text transform="matrix(1 0 0 1 24.50 43.50)">3</text>
	<text transform="matrix(1 0 0 1 24.50 52.50)">4</text>
	<text transform="matrix(1 0 0 1 12.50 62.50)">5</text>
	<text transform="matrix(1 0 0 1 42.50 10.50)">6</text>
	<text transform="matrix(1 0 0 1 26.50 73.50)">7</text>
	<text transform="matrix(1 0 0 1 36.50 68.00)">8</text>
	<text transform="matrix(1 0 0 1 39.50 76.50)">9</text>
	<text transform="matrix(1 0 0 1 39.50 85.50)">10</text>
	<text transform="matrix(1 0 0 1 8.75 98.13)">11</text>
</g>
</svg>