<svg xmlns="http://www.w3.org/2000/svg" xmlns:kvg="http://kanjivg.tagaini.net" height="109" meaning="sun beginning decline, reflect" viewBox="0 0 109 109" width="109">
<g id="kvg:StrokePaths_0668e" style="fill:none;stroke:#000000;stroke-width:3;stroke-linecap:round;stroke-linejoin:round;">
<g id="kvg:0668e" kvg:element="&#26254;">
	<g id="kvg:0668e-g1" kvg:element="&#26085;" kvg:position="left" kvg:radical="tradit">
		<path d="M13.27,23.94c0.39,0.78,0.78,1.18,0.78,2.22c0,1.04-0.13,45.79,0,46.84" id="kvg:0668e-s1" kvg:type="&#12753;" />
		<path d="M14.69,26.07c2.2-0.13,11.41-1.67,13.42-1.83c1.67-0.13,2.74,1.45,2.61,2.22c-0.26,1.57-0.52,44.23-0.52,45.01" id="kvg:0668e-s2" kvg:type="&#12757;a" />
		<path d="M15.08,47.23c2.97,0,10.86-1.31,14.22-1.31" id="kvg:0668e-s3" kvg:type="&#12752;a" />
		<path d="M14.94,70.56C21,70,21.75,69.5,29.29,69.02" id="kvg:0668e-s4" kvg:type="&#12752;a" />
	</g>
	<g id="kvg:0668e-g2" kvg:element="&#33521;" kvg:position="right">
		<g id="kvg:0668e-g3" kvg:element="&#33401;" kvg:original="&#33400;" kvg:position="top" kvg:variant="true">
			<path d="M38.36,25.37c1.11,0.46,2.4,0.5,3.52,0.46c9.87-0.33,38.14-3.03,49.92-3.09c1.85-0.01,2.97,0.22,3.89,0.45" id="kvg:0668e-s5" kvg:type="&#12752;" />
			<path d="M51.48,13.5c1.26,1.4,1.73,1.82,1.79,2.69C54,26,54.79,30.35,54.95,34" id="kvg:0668e-s6" kvg:type="&#12753;a" />
			<path d="M78.09,12.75c0.24,1.09,0.54,1.9,0.28,3.25c-1.54,7.89-1.74,9.83-3.41,17.25" id="kvg:0668e-s7" kvg:type="&#12753;a" />
		</g>
		<g id="kvg:0668e-g4" kvg:element="&#22830;" kvg:position="bottom">
			<path d="M46.02,47.12c0.96,1,1.09,1.78,1.23,3.01c0.98,8.59,1.65,17.46,1.89,18.86" id="kvg:0668e-s8" kvg:type="&#12753;a" />
			<path d="M47.84,48.94c3.33-0.38,30-3.33,34.52-3.72C85,45,87,47,86.79,49.19c-0.17,1.74-3.44,15.4-3.83,17.48" id="kvg:0668e-s9" kvg:type="&#12757;b" />
			<g id="kvg:0668e-g5" kvg:element="&#22823;">
				<path d="M37.55,69.25c0.94,0.44,3.36,0.73,4.39,0.62c14.2-1.49,27.72-1.85,50.56-3.54c1.3-0.09,3-0.08,4.57,0.94" id="kvg:0668e-s10" kvg:type="&#12752;" />
				<path d="M65.31,34.5c0.67,0.52,1.13,1.88,1.13,3.77c0,39.5-9.61,48.97-30.08,59.98" id="kvg:0668e-s11" kvg:type="&#12754;" />
				<path d="M63.9,69.17c6.97,7.78,21.29,19.27,28.24,24.48c2.37,1.77,3.19,2.04,4.27,2.2" id="kvg:0668e-s12" kvg:type="&#12751;" />
			</g>
		</g>
	</g>
</g>
</g>
<g id="kvg:StrokeNumbers_0668e" style="font-size:8;fill:#808080">
	<text transform="matrix(1 0 0 1 8.25 33.13)">1</text>
	<text transform="matrix(1 0 0 1 16.50 22.05)">2</text>
	<text transform="matrix(1 0 0 1 18.50 43.50)">3</text>
	<text transform="matrix(1 0 0 1 18.50 66.50)">4</text>
	<text transform="matrix(1 0 0 1 36.50 22.50)">5</text>
	<text transform="matrix(1 0 0 1 44.50 10.50)">6</text>
	<text transform="matrix(1 0 0 1 69.50 11.50)">7</text>
	<text transform="matrix(1 0 0 1 39.50 53.50)">8</text>
	<text transform="matrix(1 0 0 1 48.50 45.50)">9</text>
	<text transform="matrix(1 0 0 1 34.25 66.50)">10</text>
	<text transform="matrix(1 0 0 1 55.50 41.50)">11</text>
	<text transform="matrix(1 0 0 1 73 75.5)">12</text>
</g>
</svg>