<svg xmlns="http://www.w3.org/2000/svg" xmlns:kvg="http://kanjivg.tagaini.net" height="109" meaning="un-, not yet, hitherto, still, even now, sign of the ram, 1-3PM, eighth sign of Chinese zodiac" viewBox="0 0 109 109" width="109">
<g id="kvg:StrokePaths_0672a" style="fill:none;stroke:#000000;stroke-width:3;stroke-linecap:round;stroke-linejoin:round;">
<g id="kvg:0672a" kvg:element="&#26410;">
	<path d="M30.13,30.77c2.62,0.48,5.01,0.34,7.25,0.03c10.24-1.4,24.97-3.2,34.89-4.19c2.11-0.21,4.61-0.24,6.45-0.01" id="kvg:0672a-s1" kvg:type="&#12752;" />
	<g id="kvg:0672a-g1" kvg:element="&#26408;" kvg:radical="tradit">
		<path d="M16.69,51.25c3.17,0.89,6.12,0.81,9.34,0.39c13.85-1.77,40.22-4.64,56.98-5.88c3.16-0.23,6.05-0.29,9.18,0.24" id="kvg:0672a-s2" kvg:type="&#12752;" />
		<path d="M52.66,11c1.17,1.17,1.92,2.62,1.92,4.25c0,5.16-0.03,55.71-0.04,77c0,3.47,0,6.16,0,7.75" id="kvg:0672a-s3" kvg:type="&#12753;" />
		<g id="kvg:0672a-g2" kvg:element="&#20031;" kvg:radical="nelson">
			<path d="M51.5,49.25c0,1.12-0.66,2.62-1.5,3.88C41.92,65.24,25.89,81.18,12.75,87.5" id="kvg:0672a-s4" kvg:type="&#12754;" />
		</g>
		<path d="M56.12,49.75c5.62,6.25,20.25,20.5,30.33,28.93c2.53,2.11,5.04,3.82,8.42,5.07" id="kvg:0672a-s5" kvg:type="&#12751;" />
	</g>
</g>
</g>
<g id="kvg:StrokeNumbers_0672a" style="font-size:8;fill:#808080">
	<text transform="matrix(1 0 0 1 23.50 32.50)">1</text>
	<text transform="matrix(1 0 0 1 8.50 52.50)">2</text>
	<text transform="matrix(1 0 0 1 44.25 12.63)">3</text>
	<text transform="matrix(1 0 0 1 36.50 60.50)">4</text>
	<text transform="matrix(1 0 0 1 68.50 58.50)">5</text>
</g>
</svg>