<svg xmlns="http://www.w3.org/2000/svg" xmlns:kvg="http://kanjivg.tagaini.net" height="109" kun="&#12367;.&#12385;&#12427;" meaning="decay, rot, remain in seclusion" on="&#12461;&#12517;&#12454;" viewBox="0 0 109 109" width="109">
<g id="kvg:StrokePaths_0673d" style="fill:none;stroke:#000000;stroke-width:3;stroke-linecap:round;stroke-linejoin:round;">
<g id="kvg:0673d" kvg:element="&#26429;">
	<g id="kvg:0673d-g1" kvg:element="&#26408;" kvg:position="left" kvg:radical="general">
		<path d="M13.03,37.47c1.85,0.78,4.24,0.79,5.73,0.58c6.5-0.92,17.78-2.35,23.88-3.35c1.29-0.21,3.37-0.57,4.63-0.33" id="kvg:0673d-s1" kvg:type="&#12752;" />
		<path d="M33.11,14.75c1.19,1.19,1.54,3.12,1.54,4.67c0,0.7-0.02,51.65-0.02,70.33c0,3.41,0,5.75,0,6.5" id="kvg:0673d-s2" kvg:type="&#12753;" />
		<path d="M33.94,38.03c0,1.97-1.49,5.74-2.19,7.32c-4.9,11.05-10.06,18.88-18.39,29.98" id="kvg:0673d-s3" kvg:type="&#12754;" />
		<path d="M37.62,45.5c2.83,1.67,7.47,7.38,9.88,11.75" id="kvg:0673d-s4" kvg:type="&#12756;/&#12751;" />
	</g>
	<g id="kvg:0673d-g2" kvg:element="&#19970;" kvg:phon="&#19970;" kvg:position="right">
		<path d="M48.67,25.96c2.12,0.81,5.42,0.6,7.59,0.32c10.86-1.4,24.11-2.92,33.99-3.39c2.11-0.1,4.25-0.19,6.33,0.28" id="kvg:0673d-s5" kvg:type="&#12752;" />
		<path d="M66.56,27.3c0.44,0.95,0.67,2.11-0.03,3.68c-2.77,6.15-4.27,8.65-7.99,15.46c-1.7,3.12-1.04,4.07,2.93,3.43c4.55-0.73,15.89-2.83,21.74-3.66c5.04-0.71,6.04,1.41,5.01,6.42C85.48,66,82.25,78.38,75.69,90.55c-4.45,8.27-7.14,0.84-8.81-1.05" id="kvg:0673d-s6" kvg:type="&#12745;" />
	</g>
</g>
</g>
<g id="kvg:StrokeNumbers_0673d" style="font-size:8;fill:#808080">
	<text transform="matrix(1 0 0 1 6.75 38.50)">1</text>
	<text transform="matrix(1 0 0 1 23.50 15.50)">2</text>
	<text transform="matrix(1 0 0 1 22.50 49.50)">3</text>
	<text transform="matrix(1 0 0 1 42.75 46.63)">4</text>
	<text transform="matrix(1 0 0 1 46.50 22.63)">5</text>
	<text transform="matrix(1 0 0 1 56.50 36.50)">6</text>
</g>
</svg>