<svg xmlns="http://www.w3.org/2000/svg" xmlns:kvg="http://kanjivg.tagaini.net" height="109" meaning="plum" viewBox="0 0 109 109" width="109">
<g id="kvg:StrokePaths_0674e" style="fill:none;stroke:#000000;stroke-width:3;stroke-linecap:round;stroke-linejoin:round;">
<g id="kvg:0674e" kvg:element="&#26446;">
	<g id="kvg:0674e-g1" kvg:element="&#26408;" kvg:position="top" kvg:radical="general">
		<path d="M22,26.36c3.16,1.03,6.42,0.51,9.65,0.21C42.66,25.55,61.5,23,77.38,22.25c3.39-0.16,6.56-0.01,9.87,0.66" id="kvg:0674e-s1" kvg:type="&#12752;" />
		<path d="M52.5,9.75C53.56,10.81,54,12.12,54,14c0,7.69,0,16.46,0,23.25c0,2.48,0,4.69,0,6.5" id="kvg:0674e-s2" kvg:type="&#12753;" />
		<path d="M50.25,25.25c0,1.12-1.53,3.22-3.02,4.98C39.16,39.79,24.78,51.79,13.5,56.5" id="kvg:0674e-s3" kvg:type="&#12754;" />
		<path d="M55.25,25.75C59.4,28.4,75.39,40.02,84.34,45.8c2.89,1.86,5.53,3.2,9.41,4.2" id="kvg:0674e-s4" kvg:type="&#12751;" />
	</g>
	<g id="kvg:0674e-g2" kvg:element="&#23376;" kvg:position="bottom">
		<path d="M38.83,49.08c2.39,1.56,4.67,1.59,7.4,1.26c5.58-0.68,13.39-2.58,17.14-3.58c2.5-0.67,4.81,1.29,2.33,3.72C62.12,54,57.47,58.17,54,61" id="kvg:0674e-s5" kvg:type="&#12758;" />
		<path d="M51.46,61.29C56.88,65.5,60.88,84,55.3,95.68c-2.79,5.84-7.05,1.07-8.66-0.85" id="kvg:0674e-s6" kvg:type="&#12757;v" />
		<path d="M15.14,72.68c3.36,1.07,6.84,0.95,12.98,0.19c16.38-2,39.31-3.98,52.75-4.55c3.64-0.15,8.5-0.46,12.23,0.89" id="kvg:0674e-s7" kvg:type="&#12752;" />
	</g>
</g>
</g>
<g id="kvg:StrokeNumbers_0674e" style="font-size:8;fill:#808080">
	<text transform="matrix(1 0 0 1 15.25 26.25)">1</text>
	<text transform="matrix(1 0 0 1 43.25 9.25)">2</text>
	<text transform="matrix(1 0 0 1 35.25 36.25)">3</text>
	<text transform="matrix(1 0 0 1 69.25 33.25)">4</text>
	<text transform="matrix(1 0 0 1 41.25 47.25)">5</text>
	<text transform="matrix(1 0 0 1 44.25 62.25)">6</text>
	<text transform="matrix(1 0 0 1 8.25 73.25)">7</text>
</g>
</svg>