<svg xmlns="http://www.w3.org/2000/svg" xmlns:kvg="http://kanjivg.tagaini.net" height="109" kun="&#12367;.&#12427;, &#12365;&#12383;.&#12427;, &#12365;&#12383;.&#12377;, &#12365;.&#12383;&#12377;, &#12365;.&#12383;&#12427;, &#12365;, &#12371;" meaning="come, due, next, cause, become" on="&#12521;&#12452;, &#12479;&#12452;" viewBox="0 0 109 109" width="109">
<g id="kvg:StrokePaths_06765" style="fill:none;stroke:#000000;stroke-width:3;stroke-linecap:round;stroke-linejoin:round;">
<g id="kvg:06765" kvg:element="&#26469;">
	<path d="M25.54,28.33c1.61,0.39,4.58,0.53,6.19,0.39c16.32-1.46,27.01-3.46,43.69-3.67c2.69-0.03,4.31,0.18,5.65,0.38" id="kvg:06765-s1" kvg:type="&#12752;" />
	<g id="kvg:06765-g1" kvg:element="&#31859;">
		<path d="M30.12,37.62c2.85,2.07,7.16,7.91,7.88,11.12" id="kvg:06765-s2" kvg:type="&#12756;" />
		<path d="M74.52,33c0.08,0.98-0.11,1.9-0.58,2.77c-1.33,3.04-4.7,7.77-9.06,10.86" id="kvg:06765-s3" kvg:type="&#12754;" />
		<g id="kvg:06765-g2" kvg:element="&#26408;" kvg:radical="tradit">
			<path d="M16.62,57c2.28,0.5,4.9,0.74,8.42,0.5c14.81-1,39.08-3.5,58.03-4.25c3.54-0.14,6.33,0.25,8.55,0.5" id="kvg:06765-s4" kvg:type="&#12752;" />
			<path d="M51.67,10.75c1.33,1,2.18,2.75,2.18,4.5c0,0.9,0.06,58.96-0.17,78c-0.03,2.77-0.07,4.71-0.1,5.5" id="kvg:06765-s5" kvg:type="&#12753;" />
			<g id="kvg:06765-g3" kvg:element="&#20031;" kvg:radical="nelson">
				<path d="M49.75,56.5c0,1.5-0.44,2.48-0.82,3.11C42.37,70.49,29,83.75,15.75,90.5" id="kvg:06765-s6" kvg:type="&#12754;" />
			</g>
			<path d="M55,56.25c4.38,3.88,19.75,19,29.73,26.28c2.82,2.06,6.52,4.5,10.02,5.22" id="kvg:06765-s7" kvg:type="&#12751;" />
		</g>
	</g>
</g>
</g>
<g id="kvg:StrokeNumbers_06765" style="font-size:8;fill:#808080">
	<text transform="matrix(1 0 0 1 18.50 28.50)">1</text>
	<text transform="matrix(1 0 0 1 23.50 40.63)">2</text>
	<text transform="matrix(1 0 0 1 65.50 35.50)">3</text>
	<text transform="matrix(1 0 0 1 9.50 58.50)">4</text>
	<text transform="matrix(1 0 0 1 42.50 13.63)">5</text>
	<text transform="matrix(1 0 0 1 35.50 67.50)">6</text>
	<text transform="matrix(1 0 0 1 70.50 66.50)">7</text>
</g>
</svg>