<svg xmlns="http://www.w3.org/2000/svg" xmlns:kvg="http://kanjivg.tagaini.net" height="109" kun="&#12385;&#12366;&#12426;, &#12390;&#12371;" meaning="lever, pole, crowbar, carry on the shoulder" on="&#12467;&#12454;" viewBox="0 0 109 109" width="109">
<g id="kvg:StrokePaths_06760" style="fill:none;stroke:#000000;stroke-width:3;stroke-linecap:round;stroke-linejoin:round;">
<g id="kvg:06760" kvg:element="&#26464;">
	<g id="kvg:06760-g1" kvg:element="&#26408;" kvg:position="left" kvg:radical="general">
		<path d="M12.78,37.72c0.36,0.24,2.47,0.41,3.42,0.31c4.08-0.41,17.69-1.71,24.24-2.91c0.95-0.17,2.22-0.24,2.82,0" id="kvg:06760-s1" kvg:type="&#12752;" />
		<path d="M27.63,15.5c0.9,0.47,2.37,2,2.49,4.42c0.05,0.95-0.12,68.75-0.3,74.58" id="kvg:06760-s2" kvg:type="&#12753;" />
		<path d="M29.67,39.28C24.25,56.25,20,64,10.35,76.59" id="kvg:06760-s3" kvg:type="&#12754;" />
		<path d="M32.16,47.4c3.12,1.43,8.34,5.85,10.89,9.35" id="kvg:06760-s4" kvg:type="&#12756;/&#12751;" />
	</g>
	<g id="kvg:06760-g2" kvg:element="&#24037;" kvg:position="right">
		<path d="M46.25,29.33c1.02,0.59,4.34,0.6,5.38,0.6c6.72,0,28.5-2.53,36.57-3.14c1.57-0.12,3,0.12,4.31,0.61" id="kvg:06760-s5" kvg:type="&#12752;" />
		<path d="M66.79,30.75c1.43,1.78,1.43,2.85,1.43,4.28c0,9.98-0.04,35.86-0.04,52.97" id="kvg:06760-s6" kvg:type="&#12753;a" />
		<path d="M40.75,90.05c0.92,0.32,4.2,0.65,5.75,0.51C63.25,89,77,87.25,92.25,86.77c2.5-0.08,5.5,0.53,6.75,1.03" id="kvg:06760-s7" kvg:type="&#12752;" />
	</g>
</g>
</g>
<g id="kvg:StrokeNumbers_06760" style="font-size:8;fill:#808080">
	<text transform="matrix(1 0 0 1 6.50 38.50)">1</text>
	<text transform="matrix(1 0 0 1 19.50 15.50)">2</text>
	<text transform="matrix(1 0 0 1 18.50 48.50)">3</text>
	<text transform="matrix(1 0 0 1 34.50 45.50)">4</text>
	<text transform="matrix(1 0 0 1 44.50 25.50)">5</text>
	<text transform="matrix(1 0 0 1 60.50 38.50)">6</text>
	<text transform="matrix(1 0 0 1 39.50 86.50)">7</text>
</g>
</svg>