<svg xmlns="http://www.w3.org/2000/svg" xmlns:kvg="http://kanjivg.tagaini.net" height="109" kun="&#12367;&#12425;.&#12356;, &#12399;&#12427;&#12363;" meaning="darkness, dimly" on="&#12520;&#12454;" viewBox="0 0 109 109" width="109">
<g id="kvg:StrokePaths_06773" style="fill:none;stroke:#000000;stroke-width:3;stroke-linecap:round;stroke-linejoin:round;">
<g id="kvg:06773" kvg:element="&#26483;">
	<g id="kvg:06773-g1" kvg:element="&#26408;" kvg:position="top" kvg:radical="general">
		<path d="M19.5,26.98c1.98,0.46,4.23,0.61,6.51,0.46c11.6-0.76,39.76-2.91,57.3-3.8c2.26-0.11,3.68,0.08,5.94,0.41" id="kvg:06773-s1" kvg:type="&#12752;" />
		<path d="M52.59,11c1.02,0.5,1.83,2.22,1.83,3.25c0,10.5,0,37.75-0.2,44" id="kvg:06773-s2" kvg:type="&#12753;" />
		<path d="M52,26c-8.75,12.5-19.25,23.25-38.75,31" id="kvg:06773-s3" kvg:type="&#12754;" />
		<path d="M54.75,24.75c5.5,5,27,23.25,34.2,26.81c2.02,1,3.45,1.82,5.3,2.19" id="kvg:06773-s4" kvg:type="&#12751;" />
	</g>
	<g id="kvg:06773-g2" kvg:element="&#26085;" kvg:position="bottom">
		<path d="M29.99,64.86c0.34,0.51,0.9,2.56,1,3.24c1.11,7,3.01,19.43,3.96,29.36" id="kvg:06773-s5" kvg:type="&#12753;" />
		<path d="M31.08,66.79c11.9-1.34,34.77-2.62,43.65-3.74c3.26-0.41,4.99,0.77,4.77,3.66c-0.47,6.03-3.5,19.79-5.62,28.4" id="kvg:06773-s6" kvg:type="&#12757;a" />
		<path d="M33.34,79.5c3.88-0.52,39.91-2.5,44.57-2.51" id="kvg:06773-s7" kvg:type="&#12752;a" />
		<path d="M34.64,94.79c10.38-1.37,26.24-2.08,39.24-2.32" id="kvg:06773-s8" kvg:type="&#12752;a" />
	</g>
</g>
</g>
<g id="kvg:StrokeNumbers_06773" style="font-size:8;fill:#808080">
	<text transform="matrix(1 0 0 1 12.50 26.50)">1</text>
	<text transform="matrix(1 0 0 1 42.50 10.55)">2</text>
	<text transform="matrix(1 0 0 1 35.50 36.48)">3</text>
	<text transform="matrix(1 0 0 1 70.50 34.40)">4</text>
	<text transform="matrix(1 0 0 1 22.50 70.50)">5</text>
	<text transform="matrix(1 0 0 1 34.50 63.50)">6</text>
	<text transform="matrix(1 0 0 1 37.50 76.50)">7</text>
	<text transform="matrix(1 0 0 1 39.50 90.10)">8</text>
</g>
</svg>