<svg xmlns="http://www.w3.org/2000/svg" xmlns:kvg="http://kanjivg.tagaini.net" height="109" kun="&#12402;, &#12393;&#12435;&#12368;&#12426;" meaning="shuttle" on="&#12481;&#12519;, &#12471;&#12519;" viewBox="0 0 109 109" width="109">
<g id="kvg:StrokePaths_0677c" style="fill:none;stroke:#000000;stroke-width:3;stroke-linecap:round;stroke-linejoin:round;">
<g id="kvg:0677c" kvg:element="&#26492;">
	<g id="kvg:0677c-g1" kvg:element="&#26408;" kvg:position="left" kvg:radical="general">
		<path d="M13.78,37.72c0.35,0.24,2.39,0.41,3.31,0.31c3.94-0.41,18.62-1.71,24.95-2.91c0.92-0.17,2.15-0.24,2.73,0" id="kvg:0677c-s1" kvg:type="&#12752;" />
		<path d="M29.36,15c0.91,0.47,2.04,2.5,2.04,4.92c0,0.95-0.12,70.75-0.3,76.58" id="kvg:0677c-s2" kvg:type="&#12753;" />
		<path d="M30.94,41.28C25.44,56,22.38,62.21,13.86,75.09" id="kvg:0677c-s3" kvg:type="&#12754;" />
		<path d="M34.47,47.9c2.23,1.77,5.9,6.42,7.78,9.85" id="kvg:0677c-s4" kvg:type="&#12756;/&#12751;" />
	</g>
	<g id="kvg:0677c-g2" kvg:element="&#20104;" kvg:position="right">
		<g id="kvg:0677c-g3" kvg:element="&#12510;" kvg:position="top">
			<path d="M49.51,16.09c1.27,1.05,3.99,1.68,5.43,1.42c2.85-0.52,25.58-3.74,28.58-4.26c3-0.52,4.1,2.27,2.24,3.92C82,20.5,72.5,29.25,68.09,32.56" id="kvg:0677c-s5" kvg:type="&#12743;" />
			<path d="M60,26.75c2.89,1.47,10.39,7.14,11.75,11" id="kvg:0677c-s6" kvg:type="&#12756;" />
		</g>
		<g id="kvg:0677c-g4" kvg:element="&#20102;" kvg:position="bottom">
			<path d="M44.67,44.61c0.98,0.65,2.84,1.88,6.84,1.17c4-0.71,33.03-4.35,36.27-4.51C98,40.75,91,47.75,85.46,52.75" id="kvg:0677c-s7" kvg:type="&#12743;" />
			<g id="kvg:0677c-g5" kvg:element="&#20101;">
				<path d="M67.76,46.75c1.62,1.02,2.82,2.38,2.82,4.41c0,2.04-0.29,34.35-0.31,38.09c-0.03,8.25-5.08,1.68-7.5-0.02" id="kvg:0677c-s8" kvg:type="&#12762;" />
			</g>
		</g>
	</g>
</g>
</g>
<g id="kvg:StrokeNumbers_0677c" style="font-size:8;fill:#808080">
	<text transform="matrix(1 0 0 1 7.50 38.50)">1</text>
	<text transform="matrix(1 0 0 1 20.50 15.50)">2</text>
	<text transform="matrix(1 0 0 1 20.50 48.50)">3</text>
	<text transform="matrix(1 0 0 1 35.50 47.50)">4</text>
	<text transform="matrix(1 0 0 1 46.50 12.50)">5</text>
	<text transform="matrix(1 0 0 1 51.50 30.50)">6</text>
	<text transform="matrix(1 0 0 1 46.50 42.50)">7</text>
	<text transform="matrix(1 0 0 1 61.25 55.10)">8</text>
</g>
</svg>