<svg xmlns="http://www.w3.org/2000/svg" xmlns:kvg="http://kanjivg.tagaini.net" height="109" kun="&#12414;&#12388;, &#12381;&#12366;" meaning="pine tree" on="&#12471;&#12519;&#12454;, &#12501;&#12531;" viewBox="0 0 109 109" width="109">
<g id="kvg:StrokePaths_0678c" style="fill:none;stroke:#000000;stroke-width:3;stroke-linecap:round;stroke-linejoin:round;">
<g id="kvg:0678c" kvg:element="&#26508;">
	<g id="kvg:0678c-g1" kvg:element="&#26408;" kvg:position="left" kvg:radical="general">
		<path d="M14.28,38.07c0.37,0.2,2.56,0.33,3.55,0.26c4.23-0.33,16.22-1.79,23.01-2.77c0.98-0.14,2.31-0.2,2.93,0" id="kvg:0678c-s1" kvg:type="&#12752;" />
		<path d="M29.36,16c0.91,0.47,2.04,2.25,2.04,4.92c0,0.95-0.12,68.75-0.3,74.58" id="kvg:0678c-s2" kvg:type="&#12753;" />
		<path d="M30.94,39.78c-5.66,16.45-8.81,23.41-17.58,37.81" id="kvg:0678c-s3" kvg:type="&#12754;" />
		<path d="M33.97,49.4c2.37,1.59,6.28,6.76,8.28,9.85" id="kvg:0678c-s4" kvg:type="&#12756;/&#12751;" />
	</g>
	<g id="kvg:0678c-g2" kvg:element="&#20998;" kvg:position="right">
		<g id="kvg:0678c-g3" kvg:element="&#20843;" kvg:position="top">
			<path d="M58.77,20.52c0.28,0.85-0.06,1.81-0.39,2.87C55.67,32.13,50,41.75,42.35,49" id="kvg:0678c-s5" kvg:type="&#12754;" />
			<path d="M67.59,13.5c7.52,3.01,16.65,21.6,22.92,26.41c2.42,1.86,3.29,2.86,5.64,3.46" id="kvg:0678c-s6" kvg:type="&#12751;" />
		</g>
		<g id="kvg:0678c-g4" kvg:element="&#20992;" kvg:position="bottom">
			<path d="M49.29,51.63c1.24,0.58,2.79,0.48,3.87,0.32c9.84-1.45,24.5-3.36,29.39-3.96c3.18-0.39,4.59,1.17,4.41,3.9c-0.46,7.22-6.02,31.95-10.02,40.35c-3.57,7.49-7.01,0.46-8.44-1.65" id="kvg:0678c-s7" kvg:type="&#12742;" />
			<path d="M65.52,53.29c0.06,0.87,0.21,2.29-0.13,3.5c-3.83,13.46-9.15,24.67-21.69,35.59" id="kvg:0678c-s8" kvg:type="&#12754;" />
		</g>
	</g>
</g>
</g>
<g id="kvg:StrokeNumbers_0678c" style="font-size:8;fill:#808080">
	<text transform="matrix(1 0 0 1 8.50 38.50)">1</text>
	<text transform="matrix(1 0 0 1 19.50 15.50)">2</text>
	<text transform="matrix(1 0 0 1 20.50 49.50)">3</text>
	<text transform="matrix(1 0 0 1 35.50 47.50)">4</text>
	<text transform="matrix(1 0 0 1 50.50 19.50)">5</text>
	<text transform="matrix(1 0 0 1 65.50 10.50)">6</text>
	<text transform="matrix(1 0 0 1 51.50 48.50)">7</text>
	<text transform="matrix(1 0 0 1 56.50 60.50)">8</text>
</g>
</svg>