<svg xmlns="http://www.w3.org/2000/svg" xmlns:kvg="http://kanjivg.tagaini.net" height="109" kun="&#12414;&#12388;" meaning="pine tree, fir tree" on="&#12471;&#12519;&#12454;" viewBox="0 0 109 109" width="109">
<g id="kvg:StrokePaths_067a9" style="fill:none;stroke:#000000;stroke-width:3;stroke-linecap:round;stroke-linejoin:round;">
<g id="kvg:067a9" kvg:element="&#26537;">
	<g id="kvg:067a9-g1" kvg:element="&#26408;" kvg:position="top" kvg:radical="tradit">
		<path d="M22.25,25.11c1.75,0.57,3.74,0.75,5.75,0.57C38.25,24.75,66.5,23,82,21.9c2-0.14,3.25,0.1,5.25,0.5" id="kvg:067a9-s1" kvg:type="&#12752;" />
		<path d="M52.25,8.75c1.25,0.5,2.25,2.22,2.25,3.25c0,10.5,0,31.75-0.25,38" id="kvg:067a9-s2" kvg:type="&#12753;" />
		<path d="M53.75,24.25c-6.68,9.94-24.6,25.12-38.5,30.75" id="kvg:067a9-s3" kvg:type="&#12754;" />
		<path d="M54,26c5.04,3.24,28.72,19.47,34.2,22.65c1.86,1.08,3.45,1.54,5.3,1.85" id="kvg:067a9-s4" kvg:type="&#12751;" />
	</g>
	<g id="kvg:067a9-g2" kvg:element="&#20844;" kvg:position="bottom">
		<g id="kvg:067a9-g3" kvg:element="&#20843;" kvg:position="top">
			<path d="M42.48,54.98c0.42,0.59-0.03,1.29-0.58,2C37.86,62.16,30.24,69.84,18,74.85" id="kvg:067a9-s5" kvg:type="&#12754;" />
			<path d="M64.75,54.75c5.92,1.2,19.58,9.78,25.5,16.97" id="kvg:067a9-s6" kvg:type="&#12756;/&#12751;" />
		</g>
		<g id="kvg:067a9-g4" kvg:element="&#21430;" kvg:position="bottom">
			<path d="M53.57,67.18c-0.07,1.32-0.5,2.83-1.02,3.48c-7,8.79-12.79,14.68-22.76,23.45c-2.43,2.13-1.55,4.25,2.34,3.44c10.84-2.25,33.52-6.64,45.26-7.95" id="kvg:067a9-s7" kvg:type="&#12764;" />
			<path d="M67.39,80.15c5.86,3.46,15.15,14.22,16.61,19.6" id="kvg:067a9-s8" kvg:type="&#12756;" />
		</g>
	</g>
</g>
</g>
<g id="kvg:StrokeNumbers_067a9" style="font-size:8;fill:#808080">
	<text transform="matrix(1 0 0 1 16.50 25.50)">1</text>
	<text transform="matrix(1 0 0 1 44.50 8.50)">2</text>
	<text transform="matrix(1 0 0 1 37.50 34.48)">3</text>
	<text transform="matrix(1 0 0 1 66.50 32.50)">4</text>
	<text transform="matrix(1 0 0 1 34.50 55.50)">5</text>
	<text transform="matrix(1 0 0 1 61.50 52.50)">6</text>
	<text transform="matrix(1 0 0 1 47.50 66.50)">7</text>
	<text transform="matrix(1 0 0 1 63.25 77.50)">8</text>
</g>
</svg>