<svg xmlns="http://www.w3.org/2000/svg" xmlns:kvg="http://kanjivg.tagaini.net" height="109" meaning="sumac, cloth woven from tree fibres" viewBox="0 0 109 109" width="109">
<g id="kvg:StrokePaths_06832" style="fill:none;stroke:#000000;stroke-width:3;stroke-linecap:round;stroke-linejoin:round;">
<g id="kvg:06832" kvg:element="&#26674;">
	<g id="kvg:06832-g1" kvg:element="&#26408;" kvg:position="left" kvg:radical="general">
		<path d="M11.67,37.22c0.35,0.24,2.39,0.41,3.31,0.31c3.94-0.41,15.62-1.71,21.95-2.91c0.92-0.17,2.15-0.24,2.73,0" id="kvg:06832-s1" kvg:type="&#12752;" />
		<path d="M26.75,15c0.91,0.47,2.04,1.75,2.04,3.92c0,0.95-0.12,70.75-0.3,76.58" id="kvg:06832-s2" kvg:type="&#12753;" />
		<path d="M28.33,38.28c-5.1,15.04-7.94,21.4-15.83,34.56" id="kvg:06832-s3" kvg:type="&#12754;" />
		<path d="M31.36,48.4c3.14,2.35,5.89,5.1,7.78,9.35" id="kvg:06832-s4" kvg:type="&#12756;/&#12751;" />
	</g>
	<g id="kvg:06832-g2" kvg:element="&#32771;" kvg:position="right">
		<g id="kvg:06832-g3" kvg:element="&#32770;" kvg:original="&#32769;" kvg:partial="true">
			<g id="kvg:06832-g4" kvg:element="&#22303;">
				<path d="M47.5,29.45c0.77,0.33,2.19,0.45,2.96,0.33c9.79-1.53,14.79-1.53,23.21-2.75c1.28-0.19,2.06,0.16,2.71,0.32" id="kvg:06832-s5" kvg:type="&#12752;" />
				<path d="M60.42,13.37c0.12,0.29,1.65,1.53,1.77,3.39c0.57,8.93,0.31,22.2,0.31,25.25" id="kvg:06832-s6" kvg:type="&#12753;a" />
				<path d="M39.25,45.78c1.5,0.72,4.32,0.82,5.33,0.69C58.5,44.75,74,42.5,90.38,41.79c1.67-0.07,3.67,0.33,4.5,0.68" id="kvg:06832-s7" kvg:type="&#12752;" />
			</g>
			<path d="M85.13,18.48c0.13,1.27,0.32,3.1-0.62,4.6C72.34,42.34,61.82,54.65,39.06,71.97" id="kvg:06832-s8" kvg:type="&#12754;" />
		</g>
		<g id="kvg:06832-g5" kvg:element="&#20031;">
			<path d="M80.51,49.5c0.05,0.23,0.14,0.62-0.11,0.92c-2.82,3.4-10.03,7.17-20.15,9.33" id="kvg:06832-s9" kvg:type="&#12754;" />
		</g>
		<path d="M57,52c1,1,2,3.5,2.02,4.58c0.09,4.42-0.27,6.67-0.76,9.95c-0.57,3.85,0.62,4.06,3.14,3.25c7.1-2.27,15.24-3.56,19.51-4.24c3.34-0.53,4.28,1.95,3.43,4.6C81.5,79,79,86,74.02,93.52c-2.83,4.28-6.31-1.12-7.54-2.57" id="kvg:06832-s10" kvg:type="&#12745;" />
	</g>
</g>
</g>
<g id="kvg:StrokeNumbers_06832" style="font-size:8;fill:#808080">
	<text transform="matrix(1 0 0 1 5.50 37.50)">1</text>
	<text transform="matrix(1 0 0 1 17.83 16.81)">2</text>
	<text transform="matrix(1 0 0 1 17.50 48.50)">3</text>
	<text transform="matrix(1 0 0 1 32.50 48.50)">4</text>
	<text transform="matrix(1 0 0 1 43.50 26.50)">5</text>
	<text transform="matrix(1 0 0 1 51.83 13.50)">6</text>
	<text transform="matrix(1 0 0 1 39.50 42.50)">7</text>
	<text transform="matrix(1 0 0 1 76.58 20.10)">8</text>
	<text transform="matrix(1 0 0 1 72.08 51.50)">9</text>
	<text transform="matrix(1 0 0 1 47.58 72.96)">10</text>
</g>
</svg>