<svg xmlns="http://www.w3.org/2000/svg" xmlns:kvg="http://kanjivg.tagaini.net" height="109" meaning="halberd" viewBox="0 0 109 109" width="109">
<g id="kvg:StrokePaths_06859" style="fill:none;stroke:#000000;stroke-width:3;stroke-linecap:round;stroke-linejoin:round;">
<g id="kvg:06859" kvg:element="&#26713;">
	<g id="kvg:06859-g1" kvg:element="&#26408;" kvg:position="left" kvg:radical="general">
		<path d="M13.28,37.72c0.35,0.24,2.39,0.41,3.31,0.31c3.94-0.41,16.12-2.21,22.45-3.41c0.92-0.17,2.15-0.24,2.73,0" id="kvg:06859-s1" kvg:type="&#12752;" />
		<path d="M27.36,15.5c0.91,0.47,2.86,3.49,3.04,4.42c0.18,0.93-0.12,69.75-0.3,75.58" id="kvg:06859-s2" kvg:type="&#12753;" />
		<path d="M29.94,40.28c-5.1,15.04-7.94,21.4-15.83,34.56" id="kvg:06859-s3" kvg:type="&#12754;" />
		<path d="M32.47,45.9c2.37,1.59,6.28,5.76,8.28,8.85" id="kvg:06859-s4" kvg:type="&#12756;/&#12751;" />
	</g>
	<g id="kvg:06859-g2" kvg:element="&#29279;" kvg:position="right">
		<g id="kvg:06859-g3" kvg:element="&#21430;" kvg:position="top">
			<path d="M64.66,12.5c0.38,0.49-0.09,2.3-0.38,2.88c-3.79,7.68-8.15,11.74-13.37,17.32c-1.65,1.77-1.63,2.38,0.76,1.77c6.46-1.66,22.9-4.4,31.58-5.94" id="kvg:06859-s5" kvg:type="&#12764;" />
			<path d="M74.59,19.15c5.28,2.97,13.65,12.2,14.97,16.81" id="kvg:06859-s6" kvg:type="&#12756;" />
		</g>
		<g id="kvg:06859-g4" kvg:element="&#29275;" kvg:position="bottom">
			<path d="M54.33,43.39c0.03,0.53,0.06,1.37-0.06,2.14C53.55,50.04,49.45,59.94,43.84,66" id="kvg:06859-s7" kvg:type="&#12754;" />
			<path d="M54.23,53.67c0.69,0.38,1.95,0.42,2.64,0.38c9.13-0.55,18.38-2.3,28.78-2.88c1.16-0.06,1.84,0.18,2.41,0.37" id="kvg:06859-s8" kvg:type="&#12752;" />
			<path d="M39.5,72.48c1.11,0.54,4.16,0.63,5.27,0.54c11.59-0.91,32.16-3.52,49.08-3.73c1.86-0.02,2.97,0.26,3.9,0.53" id="kvg:06859-s9" kvg:type="&#12752;" />
			<path d="M67.2,40.38c0.56,0.45,1.48,1.62,1.48,4.25c0,4.87-0.07,47.52-0.18,53.12" id="kvg:06859-s10" kvg:type="&#12753;" />
		</g>
	</g>
</g>
</g>
<g id="kvg:StrokeNumbers_06859" style="font-size:8;fill:#808080">
	<text transform="matrix(1 0 0 1 5.50 37.50)">1</text>
	<text transform="matrix(1 0 0 1 19.50 15.50)">2</text>
	<text transform="matrix(1 0 0 1 20.50 47.50)">3</text>
	<text transform="matrix(1 0 0 1 35.50 45.50)">4</text>
	<text transform="matrix(1 0 0 1 57.50 12.50)">5</text>
	<text transform="matrix(1 0 0 1 76.50 17.50)">6</text>
	<text transform="matrix(1 0 0 1 46.50 44.50)">7</text>
	<text transform="matrix(1 0 0 1 58.50 50.60)">8</text>
	<text transform="matrix(1 0 0 1 47.50 69.50)">9</text>
	<text transform="matrix(1 0 0 1 69.50 40.50)">10</text>
</g>
</svg>