<svg xmlns="http://www.w3.org/2000/svg" xmlns:kvg="http://kanjivg.tagaini.net" height="109" kun="&#12365;&#12426;" meaning="paulownia" on="&#12488;&#12454;, &#12489;&#12454;" viewBox="0 0 109 109" width="109">
<g id="kvg:StrokePaths_06850" style="fill:none;stroke:#000000;stroke-width:3;stroke-linecap:round;stroke-linejoin:round;">
<g id="kvg:06850" kvg:element="&#26704;">
	<g id="kvg:06850-g1" kvg:element="&#26408;" kvg:position="left" kvg:radical="general">
		<path d="M13.28,36.22c2.1,0.53,4.82,0.4,6.22,0.22c5.03-0.63,13.39-1.84,18.78-2.8c1.39-0.25,2.73-0.39,4.24-0.03" id="kvg:06850-s1" kvg:type="&#12752;" />
		<path d="M29.36,14.25c1.01,1.01,1.29,2.75,1.29,4.67c0,2.92,0.04,58.83,0.04,65.33c0,4.34-0.03,8.18-0.07,9.25" id="kvg:06850-s2" kvg:type="&#12753;" />
		<path d="M29.94,36.28c0,1.59-1.11,4.89-1.76,6.33c-4.93,10.93-8.89,17.53-17.07,28.23" id="kvg:06850-s3" kvg:type="&#12754;" />
		<path d="M33.25,44.38c2.65,1.52,7.01,6.44,9.25,9.38" id="kvg:06850-s4" kvg:type="&#12756;/&#12751;" />
	</g>
	<g id="kvg:06850-g2" kvg:element="&#21516;" kvg:position="right">
		<g id="kvg:06850-g3" kvg:element="&#20866;">
			<path d="M48.42,21.69c1.13,1.13,1.6,2.93,1.6,4.7c0,3.56,0.14,39.18,0.1,55.61c-0.01,4.33-0.02,7.33-0.02,8.06" id="kvg:06850-s5" kvg:type="&#12753;" />
			<path d="M50.82,23.53c5.03-0.81,29.04-4.2,35.57-5.13c3.08-0.44,4.92,0.18,4.92,3.74c0,2.31-0.06,60.05-0.06,65.36c0,9.56-4.71,5.06-8.08,1.86" id="kvg:06850-s6" kvg:type="&#12742;a" />
		</g>
		<g id="kvg:06850-g4" kvg:element="&#19968;">
			<path d="M59.14,39.22c1.32,0.45,3.2,0.18,4.5,0.06c4.69-0.41,9.1-1.48,12.88-1.87c1.31-0.13,2.54-0.19,3.83,0.07" id="kvg:06850-s7" kvg:type="&#12752;" />
		</g>
		<g id="kvg:06850-g5" kvg:element="&#21475;">
			<path d="M58.32,53.51c0.8,0.72,1.21,1.64,1.25,2.74c0.68,4,0.96,6.38,1.46,10.27c0.21,1.6,0.4,3.14,0.58,4.47" id="kvg:06850-s8" kvg:type="&#12753;" />
			<path d="M60.42,54.38c5.19-0.89,11.25-1.81,15.21-2.35c2.85-0.39,4.76-0.45,4.05,2.98c-0.73,3.51-1.56,6.66-2.6,11.39" id="kvg:06850-s9" kvg:type="&#12757;b" />
			<path d="M62.59,69.49c3.34-0.38,7.66-0.99,12.18-1.59c1.29-0.17,2.59-0.34,3.89-0.51" id="kvg:06850-s10" kvg:type="&#12752;b" />
		</g>
	</g>
</g>
</g>
<g id="kvg:StrokeNumbers_06850" style="font-size:8;fill:#808080">
	<text transform="matrix(1 0 0 1 7.25 37.25)">1</text>
	<text transform="matrix(1 0 0 1 19.19 14.81)">2</text>
	<text transform="matrix(1 0 0 1 19.25 46.73)">3</text>
	<text transform="matrix(1 0 0 1 36.25 45.25)">4</text>
	<text transform="matrix(1 0 0 1 41.25 25.25)">5</text>
	<text transform="matrix(1 0 0 1 53.25 19.25)">6</text>
	<text transform="matrix(1 0 0 1 58.25 37.25)">7</text>
	<text transform="matrix(1 0 0 1 53.19 63.35)">8</text>
	<text transform="matrix(1 0 0 1 61.19 51.25)">9</text>
	<text transform="matrix(1 0 0 1 64.25 66.25)">10</text>
</g>
</svg>