<svg xmlns="http://www.w3.org/2000/svg" xmlns:kvg="http://kanjivg.tagaini.net" height="109" meaning="type of fruit tree" viewBox="0 0 109 109" width="109">
<g id="kvg:StrokePaths_0687e" style="fill:none;stroke:#000000;stroke-width:3;stroke-linecap:round;stroke-linejoin:round;">
<g id="kvg:0687e" kvg:element="&#26750;">
	<g id="kvg:0687e-g1" kvg:element="&#26408;" kvg:position="left" kvg:radical="general">
		<path d="M9.03,36.22c0.37,0.24,2.54,0.41,3.52,0.31c4.19-0.41,16.08-1.71,22.82-2.91c0.98-0.17,2.29-0.24,2.9,0" id="kvg:0687e-s1" kvg:type="&#12752;" />
		<path d="M24.36,13.5c0.91,0.47,2.54,1.5,2.54,4.42c0,0.95-0.12,72.75-0.3,78.58" id="kvg:0687e-s2" kvg:type="&#12753;" />
		<path d="M26.94,37.78c-5.18,15.58-8.06,22.17-16.08,35.81" id="kvg:0687e-s3" kvg:type="&#12754;" />
		<path d="M28.97,43.4c3.45,1.46,7.67,6.28,9.78,10.35" id="kvg:0687e-s4" kvg:type="&#12756;/&#12751;" />
	</g>
	<g id="kvg:0687e-g2" kvg:element="&#21531;" kvg:position="right">
		<g id="kvg:0687e-g3" kvg:element="&#23609;">
			<g id="kvg:0687e-g4" kvg:element="&#11925;" kvg:original="&#24401;" kvg:variant="true">
				<g id="kvg:0687e-g5" kvg:element="&#23608;" kvg:part="1">
					<path d="M47.19,21.15c2.91,1.09,3.08,1.02,5,0.87c11.65-0.87,20.92-2.78,30.08-2.78c2.71,0,4.61,0.51,4.16,4.31c-0.69,5.82-2.89,15.27-4.35,25.11" id="kvg:0687e-s5" kvg:type="&#12757;c" />
					<path d="M44,38.14c2.04,0.21,3.64,0.66,5.9,0.42c17.18-1.82,25.27-3.17,40.93-3.81c2.5-0.1,4.54,0.42,5.67,0.64" id="kvg:0687e-s6" kvg:type="&#12752;" />
				</g>
				<path d="M47.48,53.66c1.05,0.12,2.94,0.42,4.19,0.35c11.52-0.59,20.79-2.09,31.26-2.33c1.67-0.04,2.72,0,3.98,0.12" id="kvg:0687e-s7" kvg:type="&#12752;" />
			</g>
			<g id="kvg:0687e-g6" kvg:element="&#23608;" kvg:part="2">
				<g id="kvg:0687e-g7" kvg:element="&#20031;">
					<path d="M64.16,24.5c0.99,1.04,1.17,3.13,0.93,4.14C60.33,48.42,55,71.75,35.44,87.5" id="kvg:0687e-s8" kvg:type="&#12754;" />
				</g>
			</g>
		</g>
		<g id="kvg:0687e-g8" kvg:element="&#21475;">
			<path d="M54.33,69c0.45,0.45,1.27,2.66,1.33,3.26c0.67,6.42,1.78,15.34,2.69,23.46" id="kvg:0687e-s9" kvg:type="&#12753;" />
			<path d="M56.12,71.03c10.97-1.88,26.34-3.38,31.99-4.01c2.07-0.23,3.31,2.33,3.02,3.69c-1.23,5.63-2.3,11.19-4.14,20.8" id="kvg:0687e-s10" kvg:type="&#12757;b" />
			<path d="M58.8,93.71c8.45-0.46,21.82-0.78,30.25-1.5" id="kvg:0687e-s11" kvg:type="&#12752;b" />
		</g>
	</g>
</g>
</g>
<g id="kvg:StrokeNumbers_0687e" style="font-size:8;fill:#808080">
	<text transform="matrix(1 0 0 1 3.35 36.50)">1</text>
	<text transform="matrix(1 0 0 1 15.50 14.50)">2</text>
	<text transform="matrix(1 0 0 1 16.50 46.50)">3</text>
	<text transform="matrix(1 0 0 1 34.50 44.50)">4</text>
	<text transform="matrix(1 0 0 1 45.50 17.50)">5</text>
	<text transform="matrix(1 0 0 1 43.50 34.50)">6</text>
	<text transform="matrix(1 0 0 1 44.50 50.50)">7</text>
	<text transform="matrix(1 0 0 1 56.50 30.50)">8</text>
	<text transform="matrix(1 0 0 1 48.50 81.50)">9</text>
	<text transform="matrix(1 0 0 1 57.50 66.50)">10</text>
	<text transform="matrix(1 0 0 1 60.50 90.50)">11</text>
</g>
</svg>