<svg xmlns="http://www.w3.org/2000/svg" xmlns:kvg="http://kanjivg.tagaini.net" height="109" kun="&#12402;" meaning="shuttle" on="&#12469;" viewBox="0 0 109 109" width="109">
<g id="kvg:StrokePaths_068ad" style="fill:none;stroke:#000000;stroke-width:3;stroke-linecap:round;stroke-linejoin:round;">
<g id="kvg:068ad" kvg:element="&#26797;">
	<g id="kvg:068ad-g1" kvg:element="&#26408;" kvg:position="left" kvg:radical="general">
		<path d="M11.53,38.72c0.36,0.24,2.49,0.41,3.45,0.31c4.11-0.41,16.82-1.71,23.44-2.91c0.96-0.17,2.24-0.24,2.85,0" id="kvg:068ad-s1" kvg:type="&#12752;" />
		<path d="M27.36,14c0.91,0.47,2.54,2.5,2.54,4.92c0,0.95-0.12,71.75-0.3,77.58" id="kvg:068ad-s2" kvg:type="&#12753;" />
		<path d="M29.94,41.78C24.31,56.82,20.5,64.5,11.36,76.34" id="kvg:068ad-s3" kvg:type="&#12754;" />
		<path d="M31.97,50.4c2.37,1.59,6.28,6.76,8.28,9.85" id="kvg:068ad-s4" kvg:type="&#12756;/&#12751;" />
	</g>
	<g id="kvg:068ad-g2" kvg:position="right">
		<g id="kvg:068ad-g3" kvg:element="&#20801;" kvg:position="top">
			<g id="kvg:068ad-g4" kvg:element="&#21430;" kvg:position="top">
				<path d="M63.41,9.75c0.44,0.42,0.41,2.03,0.15,2.58c-3.24,6.83-9.3,12.42-13.74,18.57c-1.43,1.98-1.88,2.55,0.88,2.02c8.56-1.66,21.69-4.53,31.1-6.41" id="kvg:068ad-s5" kvg:type="&#12764;" />
				<path d="M75.02,20.01c4.69,2.62,12.11,10.79,13.28,14.87" id="kvg:068ad-s6" kvg:type="&#12756;" />
			</g>
			<g id="kvg:068ad-g5" kvg:element="&#20799;" kvg:position="bottom">
				<g id="kvg:068ad-g6" kvg:element="&#20843;" kvg:variant="true">
					<g id="kvg:068ad-g7" kvg:element="&#20031;" kvg:position="left">
						<path d="M57.31,35.86c0.03,0.42,0.17,1.12-0.07,1.69c-1.63,3.8-6.36,11.1-12.79,16.13" id="kvg:068ad-s7" kvg:type="&#12754;" />
					</g>
					<g id="kvg:068ad-g8" kvg:position="right">
						<path d="M72.48,31.3c0.46,0.52,0.84,1.13,0.86,1.93c0.12,3.57-0.33,7.04-0.33,9.46c0,5.67,5.59,5.03,11.08,5.03c5.8,0,9.41-0.69,10.43-2.1" id="kvg:068ad-s8" kvg:type="&#12767;" />
					</g>
				</g>
			</g>
		</g>
		<g id="kvg:068ad-g9" kvg:element="&#22786;" kvg:position="bottom">
			<path d="M61.09,48.75c0.05,0.64-0.21,2.29-0.6,3.14c-2.7,6.03-7.88,15.76-17.96,24.21" id="kvg:068ad-s9" kvg:type="&#12754;" />
			<path d="M61.35,55.55c0.52,0.47,2.92,0.53,3.66,0.44c2.44-0.31,10.55-1.56,14.03-2.51c2.39-0.65,3.25,0.82,2.46,2.52C75.82,68.22,57.5,88.81,41.17,95.5" id="kvg:068ad-s10" kvg:type="&#12743;" />
			<path d="M54.31,63.43C58.75,65,78.5,85.5,88.73,91.04c2.11,1.14,3.64,1.96,5.6,2.35" id="kvg:068ad-s11" kvg:type="&#12751;" />
		</g>
	</g>
</g>
</g>
<g id="kvg:StrokeNumbers_068ad" style="font-size:8;fill:#808080">
	<text transform="matrix(1 0 0 1 5.85 39.50)">1</text>
	<text transform="matrix(1 0 0 1 19.50 13.50)">2</text>
	<text transform="matrix(1 0 0 1 20.50 48.50)">3</text>
	<text transform="matrix(1 0 0 1 35.50 50.50)">4</text>
	<text transform="matrix(1 0 0 1 55.50 10.50)">5</text>
	<text transform="matrix(1 0 0 1 74.50 17.50)">6</text>
	<text transform="matrix(1 0 0 1 47.50 43.50)">7</text>
	<text transform="matrix(1 0 0 1 65.50 38.10)">8</text>
	<text transform="matrix(1 0 0 1 52.50 55.50)">9</text>
	<text transform="matrix(1 0 0 1 64.50 53.50)">10</text>
	<text transform="matrix(1 0 0 1 52.50 74.50)">11</text>
</g>
</svg>