<svg xmlns="http://www.w3.org/2000/svg" xmlns:kvg="http://kanjivg.tagaini.net" height="109" meaning="chair" viewBox="0 0 109 109" width="109">
<g id="kvg:StrokePaths_06905" style="fill:none;stroke:#000000;stroke-width:3;stroke-linecap:round;stroke-linejoin:round;">
<g id="kvg:06905" kvg:element="&#26885;">
	<g id="kvg:06905-g1" kvg:element="&#26408;" kvg:position="left" kvg:radical="general">
		<path d="M12.53,38.22c1.72,0.78,4.21,0.47,5.49,0.29c6.11-0.88,13.9-2.35,19.76-3.46c1.13-0.21,2.47-0.42,3.98-0.18" id="kvg:06905-s1" kvg:type="&#12752;" />
		<path d="M29.86,16.25c1.07,1.07,1.29,2.88,1.29,4.67c0,4.7,0.1,59.33,0.1,66.08c0,3.42-0.12,5.69-0.12,6.88" id="kvg:06905-s2" kvg:type="&#12753;" />
		<path d="M30.44,38.53c0,1.59-0.82,5.19-1.44,6.64c-4.79,11.22-9.5,20.07-16.39,28.16" id="kvg:06905-s3" kvg:type="&#12754;" />
		<path d="M34.47,48.9c2.4,2.1,6.4,7.23,7.66,10.14" id="kvg:06905-s4" kvg:type="&#12756;/&#12751;" />
	</g>
	<g id="kvg:06905-g2" kvg:element="&#22855;" kvg:position="right">
		<g id="kvg:06905-g3" kvg:element="&#22823;" kvg:position="top" kvg:variant="true">
			<path d="M51.02,24.93c2.35,0.32,4.09,0.31,5.85,0.08c6.63-0.88,18.38-2.51,26.63-3.18c1.81-0.15,3.51-0.45,5.26-0.05" id="kvg:06905-s5" kvg:type="&#12752;" />
			<path d="M67.96,12.25c0.49,0.86,0.36,1.93,0.33,2.88C67.88,27.15,64,37.25,51.75,43.25" id="kvg:06905-s6" kvg:type="&#12754;" />
			<path d="M70,28.62c4.87,2.34,11.12,6.75,13.5,9.62" id="kvg:06905-s7" kvg:type="&#12756;/&#12751;" />
		</g>
		<g id="kvg:06905-g4" kvg:element="&#21487;" kvg:position="bottom">
			<g id="kvg:06905-g5" kvg:element="&#19969;" kvg:part="1">
				<g id="kvg:06905-g6" kvg:element="&#19968;">
					<path d="M44.13,48.46c2.87,0.67,5.65,0.35,8.14,0.05c9.34-1.13,29.1-3.86,38.98-4.9c2.44-0.26,5.28-0.32,7.63,0.43" id="kvg:06905-s8" kvg:type="&#12752;" />
				</g>
			</g>
			<g id="kvg:06905-g7" kvg:element="&#21475;">
				<path d="M50.7,60.81c0.82,0.85,1.08,1.78,1.25,2.92c0.5,3.48,1.02,7.29,1.51,10.91c0.18,1.33,0.35,2.63,0.51,3.88" id="kvg:06905-s9" kvg:type="&#12753;" />
				<path d="M52.58,61.85c5.5-0.91,11.8-1.89,15.67-2.32c2.5-0.28,3.48,0.32,2.92,2.88c-0.71,3.27-1.52,6.8-2.53,11.25" id="kvg:06905-s10" kvg:type="&#12757;b" />
				<path d="M54.6,76.09c3.25-0.27,7.48-0.7,11.9-1.13c1.22-0.12,2.46-0.24,3.69-0.35" id="kvg:06905-s11" kvg:type="&#12752;b" />
			</g>
			<g id="kvg:06905-g8" kvg:element="&#19969;" kvg:part="2">
				<g id="kvg:06905-g9" kvg:element="&#20101;">
					<path d="M83.92,46.97c1.05,1.05,1.31,2.4,1.31,4.6c0,16.08-0.1,32.46-0.1,37.93c0,9.39-5.19,1.97-6.31,0.59" id="kvg:06905-s12" kvg:type="&#12762;" />
				</g>
			</g>
		</g>
	</g>
</g>
</g>
<g id="kvg:StrokeNumbers_06905" style="font-size:8;fill:#808080">
	<text transform="matrix(1 0 0 1 6.50 39.50)">1</text>
	<text transform="matrix(1 0 0 1 20.50 15.50)">2</text>
	<text transform="matrix(1 0 0 1 20.50 48.50)">3</text>
	<text transform="matrix(1 0 0 1 35.50 47.50)">4</text>
	<text transform="matrix(1 0 0 1 43.50 25.50)">5</text>
	<text transform="matrix(1 0 0 1 58.50 12.50)">6</text>
	<text transform="matrix(1 0 0 1 77.50 31.50)">7</text>
	<text transform="matrix(1 0 0 1 42.50 45.50)">8</text>
	<text transform="matrix(1 0 0 1 44.50 67.50)">9</text>
	<text transform="matrix(1 0 0 1 53.50 58.50)">10</text>
	<text transform="matrix(1 0 0 1 56.50 72.50)">11</text>
	<text transform="matrix(1 0 0 1 74.50 55.50)">12</text>
</g>
</svg>