<svg xmlns="http://www.w3.org/2000/svg" xmlns:kvg="http://kanjivg.tagaini.net" height="109" kun="&#12354;&#12371;&#12358;" meaning="evergreen mulberry" on="&#12520;&#12454;" viewBox="0 0 109 109" width="109">
<g id="kvg:StrokePaths_06995" style="fill:none;stroke:#000000;stroke-width:3;stroke-linecap:round;stroke-linejoin:round;">
<g id="kvg:06995" kvg:element="&#27029;">
	<g id="kvg:06995-g1" kvg:element="&#26408;" kvg:position="left" kvg:radical="general">
		<path d="M11.78,37.22c0.35,0.24,2.39,0.41,3.31,0.31c3.94-0.41,15.12-1.71,21.45-2.91c0.92-0.17,2.15-0.24,2.73,0" id="kvg:06995-s1" kvg:type="&#12752;" />
		<path d="M26.86,14.5c0.91,0.47,2.04,2.25,2.04,4.42c0,0.95-0.12,69.75-0.3,75.58" id="kvg:06995-s2" kvg:type="&#12753;" />
		<path d="M28.44,38.28c-5.26,16.02-8.19,22.79-16.33,36.81" id="kvg:06995-s3" kvg:type="&#12754;" />
		<path d="M30.47,46.4c2.37,1.59,6.28,6.76,8.28,9.85" id="kvg:06995-s4" kvg:type="&#12756;/&#12751;" />
	</g>
	<g id="kvg:06995-g2" kvg:element="&#23481;" kvg:position="right">
		<g id="kvg:06995-g3" kvg:element="&#23424;" kvg:position="top">
			<path d="M65.87,12.91c1.05,0.4,2.56,2.37,2.54,3.52c-0.08,3.64-0.08,7.49-0.08,10.8" id="kvg:06995-s5" kvg:type="&#12753;a" />
			<g id="kvg:06995-g4" kvg:element="&#20886;">
				<path d="M48.29,26.57c0,3.58-2.52,13.43-3.67,15.82" id="kvg:06995-s6" kvg:type="&#12756;" />
				<path d="M48.81,29.64c6.24-0.83,34.53-3.5,39.6-3.55c9.2-0.09,2.18,5.48,0.21,7.25" id="kvg:06995-s7" kvg:type="&#12758;b" />
			</g>
		</g>
		<g id="kvg:06995-g5" kvg:element="&#35895;" kvg:position="bottom">
			<g id="kvg:06995-g6" kvg:position="top">
				<path d="M59.86,35.57c0.03,0.4,0.15,1.09-0.07,1.61c-1.71,4.07-5.33,9.73-11.86,15.45" id="kvg:06995-s8" kvg:type="&#12754;" />
				<path d="M75.42,36.33c5.21,2.69,11.56,7.83,13.35,10.58" id="kvg:06995-s9" kvg:type="&#12756;" />
			</g>
			<g id="kvg:06995-g7" kvg:position="bottom">
				<path d="M68.53,44c0.07,0.7,0.29,1.89-0.14,2.82c-3.83,8.25-11.65,18-25.06,27.85" id="kvg:06995-s10" kvg:type="&#12754;" />
				<path d="M67.16,49.65C71.5,51.5,85.77,66.1,91.72,69.69c1.48,0.89,3.19,1.48,4.58,1.77" id="kvg:06995-s11" kvg:type="&#12751;" />
				<g id="kvg:06995-g8" kvg:element="&#21475;">
					<path d="M52.54,74.78c0.38,0.34,0.77,1.14,0.93,1.57c1.31,3.39,2.45,13.77,3.35,19.86" id="kvg:06995-s12" kvg:type="&#12753;" />
					<path d="M54.32,76.71c10.34-1.56,18.44-3.36,24.78-4.04c2.16-0.23,3.49,1.55,3.16,2.56c-1.57,4.85-2.75,11.14-4.2,17.09" id="kvg:06995-s13" kvg:type="&#12757;b" />
					<path d="M57.84,93.97c8.33-0.47,13.21-0.92,22.77-1.65" id="kvg:06995-s14" kvg:type="&#12752;b" />
				</g>
			</g>
		</g>
	</g>
</g>
</g>
<g id="kvg:StrokeNumbers_06995" style="font-size:8;fill:#808080">
	<text transform="matrix(1 0 0 1 5.85 37.50)">1</text>
	<text transform="matrix(1 0 0 1 17.50 14.50)">2</text>
	<text transform="matrix(1 0 0 1 18.50 47.50)">3</text>
	<text transform="matrix(1 0 0 1 33.50 45.50)">4</text>
	<text transform="matrix(1 0 0 1 57.50 12.50)">5</text>
	<text transform="matrix(1 0 0 1 41.50 27.50)">6</text>
	<text transform="matrix(1 0 0 1 50.50 26.50)">7</text>
	<text transform="matrix(1 0 0 1 51.75 38.60)">8</text>
	<text transform="matrix(1 0 0 1 67.50 36.50)">9</text>
	<text transform="matrix(1 0 0 1 56.75 50.45)">10</text>
	<text transform="matrix(1 0 0 1 74.50 52.50)">11</text>
	<text transform="matrix(1 0 0 1 44.50 83.50)">12</text>
	<text transform="matrix(1 0 0 1 57.50 72.50)">13</text>
	<text transform="matrix(1 0 0 1 59.50 90.50)">14</text>
</g>
</svg>