<svg xmlns="http://www.w3.org/2000/svg" xmlns:kvg="http://kanjivg.tagaini.net" height="109" kun="&#12363;.&#12428;&#12427;" meaning="die (vegetation)" on="&#12467;&#12454;" viewBox="0 0 109 109" width="109">
<g id="kvg:StrokePaths_069c1" style="fill:none;stroke:#000000;stroke-width:3;stroke-linecap:round;stroke-linejoin:round;">
<g id="kvg:069c1" kvg:element="&#27073;">
	<g id="kvg:069c1-g1" kvg:element="&#26408;" kvg:position="left" kvg:radical="general">
		<path d="M13.03,37.07c0.35,0.2,2.45,0.33,3.39,0.26c4.05-0.33,16.54-1.79,23.04-2.77c0.94-0.14,2.21-0.2,2.8,0" id="kvg:069c1-s1" kvg:type="&#12752;" />
		<path d="M29.36,14c0.91,0.47,2.04,1.5,2.04,4.42c0,0.95-0.12,72.25-0.3,78.08" id="kvg:069c1-s2" kvg:type="&#12753;" />
		<path d="M30.94,38.28c-6.23,16.34-9.69,23.25-19.33,37.56" id="kvg:069c1-s3" kvg:type="&#12754;" />
		<path d="M32.97,44.9c2.37,1.59,5.28,5.76,7.28,8.85" id="kvg:069c1-s4" kvg:type="&#12756;/&#12751;" />
	</g>
	<g id="kvg:069c1-g2" kvg:element="&#39640;" kvg:position="right">
		<g id="kvg:069c1-g3" kvg:position="top">
			<g id="kvg:069c1-g4" kvg:element="&#20128;">
				<path d="M66.54,12.25c0.61,0.47,1.61,2.29,1.61,3.22c0,3.45-0.19,6.54-0.08,9.46" id="kvg:069c1-s5" kvg:type="&#12753;a" />
				<path d="M44.82,26.63c1.06,0.1,3.46,0.64,4.49,0.56c10.84-0.82,30.17-3.88,41.45-4.18c1.74-0.05,2.63,0.05,3.93,0.71" id="kvg:069c1-s6" kvg:type="&#12752;" />
			</g>
			<g id="kvg:069c1-g5" kvg:element="&#21475;">
				<path d="M55.28,33.67c0.41,0.27,0.84,0.49,1.02,0.82c1.43,2.63,1.63,9.89,2.61,14.61" id="kvg:069c1-s7" kvg:type="&#12753;" />
				<path d="M56.87,35.36c8.63-1.52,18.37-3.2,23.31-3.59c1.81-0.14,2.89,1.74,2.64,2.56c-1.07,3.41-1.55,5.7-3.14,10.4" id="kvg:069c1-s8" kvg:type="&#12757;b" />
				<path d="M58.93,47.6c5.73-0.36,15.16-1.73,23.02-2.28" id="kvg:069c1-s9" kvg:type="&#12752;b" />
			</g>
		</g>
		<g id="kvg:069c1-g6" kvg:position="bottom">
			<g id="kvg:069c1-g7" kvg:element="&#20866;">
				<path d="M48.25,56.77c0.47,1.16,1.27,2.05,1.27,4.15c0,5.84-0.2,26.34-0.2,34.59" id="kvg:069c1-s10" kvg:type="&#12753;" />
				<path d="M49.93,59.55c6.42-0.46,37.4-3.76,38.58-4.04c2.92-0.7,4.06,1.46,4.06,4.7c0,10.28-0.32,18.53-1.07,28.87c-0.65,8.89-5,3.67-6.9,1.5" id="kvg:069c1-s11" kvg:type="&#12742;a" />
			</g>
			<g id="kvg:069c1-g8" kvg:element="&#21475;">
				<path d="M59.06,67.7c0.25,0.29,0.5,0.53,0.61,0.89c0.86,2.87,1.89,9.76,2.48,14.9" id="kvg:069c1-s12" kvg:type="&#12753;" />
				<path d="M60.61,69.14C67.5,67.5,72,67,75.62,66.62c1.19-0.13,2.31,1.18,2.2,2.56c-0.29,3.44-1.37,5.45-2.3,10.08" id="kvg:069c1-s13" kvg:type="&#12757;b" />
				<path d="M62.27,81.48c4.98,0,11.23-0.81,14.81-0.81" id="kvg:069c1-s14" kvg:type="&#12752;b" />
			</g>
		</g>
	</g>
</g>
</g>
<g id="kvg:StrokeNumbers_069c1" style="font-size:8;fill:#808080">
	<text transform="matrix(1 0 0 1 6.50 37.50)">1</text>
	<text transform="matrix(1 0 0 1 20.50 13.50)">2</text>
	<text transform="matrix(1 0 0 1 21.50 46.50)">3</text>
	<text transform="matrix(1 0 0 1 36.50 45.50)">4</text>
	<text transform="matrix(1 0 0 1 57.50 12.50)">5</text>
	<text transform="matrix(1 0 0 1 43.50 23.50)">6</text>
	<text transform="matrix(1 0 0 1 48.75 41.68)">7</text>
	<text transform="matrix(1 0 0 1 59.50 32.60)">8</text>
	<text transform="matrix(1 0 0 1 62.50 44.50)">9</text>
	<text transform="matrix(1 0 0 1 39.50 65.50)">10</text>
	<text transform="matrix(1 0 0 1 52.50 56.38)">11</text>
	<text transform="matrix(1 0 0 1 51.50 75.50)">12</text>
	<text transform="matrix(1 0 0 1 61.50 66.23)">13</text>
	<text transform="matrix(1 0 0 1 63.75 78.50)">14</text>
</g>
</svg>