<svg xmlns="http://www.w3.org/2000/svg" xmlns:kvg="http://kanjivg.tagaini.net" height="109" meaning="outer box for a coffin" viewBox="0 0 109 109" width="109">
<g id="kvg:StrokePaths_069e8" style="fill:none;stroke:#000000;stroke-width:3;stroke-linecap:round;stroke-linejoin:round;">
<g id="kvg:069e8" kvg:element="&#27112;">
	<g id="kvg:069e8-g1" kvg:element="&#26408;" kvg:position="left" kvg:radical="general">
		<path d="M11.53,36.78c0.35,0.21,2.41,0.36,3.34,0.27c3.98-0.36,13.25-1.93,19.64-2.99c0.93-0.15,2.17-0.21,2.75,0" id="kvg:069e8-s1" kvg:type="&#12752;" />
		<path d="M24.86,14.5c0.91,0.47,2.54,2,2.54,4.42c0,0.95-0.12,70.75-0.3,76.58" id="kvg:069e8-s2" kvg:type="&#12753;" />
		<path d="M27.44,38.28c-5.18,16.34-8.06,23.25-16.08,37.56" id="kvg:069e8-s3" kvg:type="&#12754;" />
		<path d="M29.47,49.4c2.37,1.59,6.28,6.76,8.28,9.85" id="kvg:069e8-s4" kvg:type="&#12756;/&#12751;" />
	</g>
	<g id="kvg:069e8-g2" kvg:element="&#37101;" kvg:position="right">
		<g id="kvg:069e8-g3" kvg:element="&#20139;" kvg:position="left">
			<g id="kvg:069e8-g4" kvg:element="&#20128;" kvg:position="top">
				<path d="M52.09,13c0.7,0.52,1.85,2.52,1.85,3.55c0,3.8-0.22,5.51-0.09,8.73" id="kvg:069e8-s5" kvg:type="&#12753;a" />
				<path d="M39.3,26.88c0.57,0.06,1.88,0.38,2.44,0.3c4.51-0.64,17.69-2.49,24.12-2.93c0.95-0.06,1.43,0.03,2.13,0.39" id="kvg:069e8-s6" kvg:type="&#12752;" />
			</g>
			<g id="kvg:069e8-g5" kvg:position="bottom">
				<g id="kvg:069e8-g6" kvg:element="&#21475;">
					<path d="M43.41,34.12c0.21,0.24,0.92,0.94,1.01,1.25c0.72,2.4,2.33,9.19,2.82,13.5" id="kvg:069e8-s7" kvg:type="&#12753;" />
					<path d="M45.2,35.44c5.08-1.01,15.28-2.64,17.9-2.98c0.96-0.12,1.53,1.25,1.4,1.98c-0.57,3.02-1.22,6.8-2.43,11.15" id="kvg:069e8-s8" kvg:type="&#12757;b" />
					<path d="M47.45,47.28c3.08-0.38,12.67-0.93,16.57-1.31" id="kvg:069e8-s9" kvg:type="&#12752;b" />
				</g>
				<g id="kvg:069e8-g7" kvg:element="&#23376;" kvg:variant="true">
					<path d="M44.62,57.5c0.63,0.21,1.83,0.53,2.78,0.35c1.16-0.22,14.08-4.21,15.18-4.21c1.11,0,1.69,1.11,0.58,2.34c-1.34,1.48-4.42,6.13-8.29,10.65" id="kvg:069e8-s10" kvg:type="&#12758;" />
					<path d="M52.19,66.76c3.81,4.49,8.02,15.07,4.04,25.37c-2.36,6.09-5.48,1.37-6.62-0.49" id="kvg:069e8-s11" kvg:type="&#12757;v" />
					<path d="M40.63,78.47c0.87,1.03,2.77,1.25,3.72,0.76C52.5,75,58.25,72,67.85,67.34" id="kvg:069e8-s12" kvg:type="&#12736;/&#12752;" />
				</g>
			</g>
		</g>
		<g id="kvg:069e8-g8" kvg:element="&#11983;" kvg:original="&#37009;" kvg:position="right" kvg:variant="true">
			<path d="M74.82,20.93c1.18,0.07,3.11,0.03,3.93-0.1c5-0.83,8.5-1.83,12.12-2.65c2.79-0.63,3.74,1.85,2.58,4.65c-1.15,2.8-6.05,17.4-8.07,21.4" id="kvg:069e8-s13" kvg:type="&#12743;" />
			<path d="M84.84,44.23c18.56,9.14,13.97,47.78,2.02,33.22" id="kvg:069e8-s14" kvg:type="&#12757;va" />
			<path d="M76.94,21.45c0.02,0.11,0.53,1.02,0.54,2.55c0.08,11.98-0.06,66.72-0.2,72.25" id="kvg:069e8-s15" kvg:type="&#12753;" />
		</g>
	</g>
</g>
</g>
<g id="kvg:StrokeNumbers_069e8" style="font-size:8;fill:#808080">
	<text transform="matrix(1 0 0 1 4.50 36.50)">1</text>
	<text transform="matrix(1 0 0 1 16.66 15.50)">2</text>
	<text transform="matrix(1 0 0 1 17.50 46.50)">3</text>
	<text transform="matrix(1 0 0 1 32.50 48.50)">4</text>
	<text transform="matrix(1 0 0 1 44.25 13.50)">5</text>
	<text transform="matrix(1 0 0 1 37.50 23.50)">6</text>
	<text transform="matrix(1 0 0 1 38.50 43.50)">7</text>
	<text transform="matrix(1 0 0 1 48.50 33.10)">8</text>
	<text transform="matrix(1 0 0 1 49.50 44.50)">9</text>
	<text transform="matrix(1 0 0 1 41.50 55.50)">10</text>
	<text transform="matrix(1 0 0 1 44.25 69.50)">11</text>
	<text transform="matrix(1 0 0 1 36.50 74.50)">12</text>
	<text transform="matrix(1 0 0 1 74.50 17.50)">13</text>
	<text transform="matrix(1 0 0 1 81.50 54.50)">14</text>
	<text transform="matrix(1 0 0 1 67.50 32.50)">15</text>
</g>
</svg>