<svg xmlns="http://www.w3.org/2000/svg" xmlns:kvg="http://kanjivg.tagaini.net" height="109" meaning="type of bird, vine" viewBox="0 0 109 109" width="109">
<g id="kvg:StrokePaths_06a22" style="fill:none;stroke:#000000;stroke-width:3;stroke-linecap:round;stroke-linejoin:round;">
<g id="kvg:06a22" kvg:element="&#27170;">
	<g id="kvg:06a22-g1" kvg:element="&#26408;" kvg:position="left" kvg:radical="general">
		<path d="M13.78,36.9c0.37,0.26,2.55,0.44,3.52,0.33c4.2-0.43,19.3-1.28,26.06-2.56c0.98-0.18,2.29-0.26,2.91,0" id="kvg:06a22-s1" kvg:type="&#12752;" />
		<path d="M32.36,13.5c0.91,0.47,2.04,2,2.04,4.42c0,0.95-0.12,74.25-0.3,80.08" id="kvg:06a22-s2" kvg:type="&#12753;" />
		<path d="M33.94,38.28C27.87,52.56,24.5,58.6,15.11,71.09" id="kvg:06a22-s3" kvg:type="&#12754;" />
		<path d="M37.72,46.65c2.16,1.55,5.71,6.59,7.53,9.6" id="kvg:06a22-s4" kvg:type="&#12756;/&#12751;" />
	</g>
	<g id="kvg:06a22-g2" kvg:element="&#40165;" kvg:position="right">
		<path d="M66.04,10.66c0.02,0.28,0.04,0.72-0.03,1.11c-0.41,2.32-2.74,7.29-5.93,10.18" id="kvg:06a22-s5" kvg:type="&#12754;" />
		<path d="M54.3,21.92c0.33,0.43,1.1,2.02,1.1,2.73c0,7.23-0.46,34.51-0.67,45.88" id="kvg:06a22-s6" kvg:type="&#12753;" />
		<path d="M55.31,23.75c1.55,0,23-3.17,24.51-3.06c2.24,0.16,3.33,2.15,3.13,4.02c-0.12,1.15-2.14,13.19-3.58,21.96" id="kvg:06a22-s7" kvg:type="&#12757;a" />
		<path d="M55.56,35.08c1.9,0.13,23.6-2.74,25.75-2.59" id="kvg:06a22-s8" kvg:type="&#12752;a" />
		<path d="M55.47,47.12c3.88-0.14,19.05-2.48,23.88-2.5" id="kvg:06a22-s9" kvg:type="&#12752;a" />
		<path d="M55.19,58.86c8.97-0.84,28.82-2.86,32.67-3.38c1.34-0.19,3.62-0.35,4.3-0.11" id="kvg:06a22-s10" kvg:type="&#12752;b" />
		<path d="M54.74,70.75c9.1-1.63,31.13-3.92,36.17-4.4c3.28-0.31,4.97,0.89,4.38,4.57c-1.64,10.24-4.58,18.46-7.43,24.75c-2.86,6.33-6.47,1.04-7.8-0.24" id="kvg:06a22-s11" kvg:type="&#12742;a" />
		<g id="kvg:06a22-g3" kvg:element="&#28780;" kvg:original="&#28779;" kvg:variant="true">
			<path d="M49.43,82.23c0.42,4.25-0.3,9.34-1.55,11.94" id="kvg:06a22-s12" kvg:type="&#12756;" />
			<path d="M57.82,80.49c1.84,1.84,3.58,6.67,4.04,9.37" id="kvg:06a22-s13" kvg:type="&#12756;" />
			<path d="M67.73,78.79c1.68,1.42,4.32,5.68,4.75,7.76" id="kvg:06a22-s14" kvg:type="&#12756;" />
			<path d="M77.66,76.98c1.89,1.35,4.88,5.41,5.36,7.39" id="kvg:06a22-s15" kvg:type="&#12756;" />
		</g>
	</g>
</g>
</g>
<g id="kvg:StrokeNumbers_06a22" style="font-size:8;fill:#808080">
	<text transform="matrix(1 0 0 1 7.50 37.50)">1</text>
	<text transform="matrix(1 0 0 1 22.50 13.50)">2</text>
	<text transform="matrix(1 0 0 1 22.50 47.50)">3</text>
	<text transform="matrix(1 0 0 1 39.50 45.50)">4</text>
	<text transform="matrix(1 0 0 1 57.50 10.50)">5</text>
	<text transform="matrix(1 0 0 1 47.50 29.50)">6</text>
	<text transform="matrix(1 0 0 1 55.50 20.50)">7</text>
	<text transform="matrix(1 0 0 1 59.50 31.50)">8</text>
	<text transform="matrix(1 0 0 1 59.49 43.50)">9</text>
	<text transform="matrix(1 0 0 1 58.50 55.50)">10</text>
	<text transform="matrix(1 0 0 1 58.76 67.50)">11</text>
	<text transform="matrix(1 0 0 1 40.50 82.50)">12</text>
	<text transform="matrix(1 0 0 1 52.50 88.73)">13</text>
	<text transform="matrix(1 0 0 1 61.50 85.50)">14</text>
	<text transform="matrix(1 0 0 1 72.50 83.58)">15</text>
</g>
</svg>