<svg xmlns="http://www.w3.org/2000/svg" xmlns:kvg="http://kanjivg.tagaini.net" height="109" meaning="ellipse" viewBox="0 0 109 109" width="109">
<g id="kvg:StrokePaths_06a62" style="fill:none;stroke:#000000;stroke-width:3;stroke-linecap:round;stroke-linejoin:round;">
<g id="kvg:06a62" kvg:element="&#27234;">
	<g id="kvg:06a62-g1" kvg:element="&#26408;" kvg:position="left" kvg:radical="general">
		<path d="M11.78,37.72c0.35,0.24,2.39,0.41,3.31,0.31c3.94-0.41,14.12-1.71,20.45-2.91c0.92-0.17,2.15-0.24,2.73,0" id="kvg:06a62-s1" kvg:type="&#12752;" />
		<path d="M25.86,14.5c0.91,0.47,2.04,2.25,2.04,4.42c0,0.95-0.12,71.25-0.3,77.08" id="kvg:06a62-s2" kvg:type="&#12753;" />
		<path d="M27.44,38.78C21.7,54.26,18.5,61.8,9.61,75.34" id="kvg:06a62-s3" kvg:type="&#12754;" />
		<path d="M29.47,45.65c2.23,1.71,5.9,7.28,7.78,10.6" id="kvg:06a62-s4" kvg:type="&#12756;/&#12751;" />
	</g>
	<g id="kvg:06a62-g2" kvg:element="&#38539;" kvg:position="right">
		<g id="kvg:06a62-g3" kvg:element="&#11990;" kvg:original="&#38428;" kvg:position="left" kvg:variant="true">
			<path d="M39.25,20c0.92,0.05,2.56,0.67,3.76,0.42c4.49-0.92,9.51-1.18,11.12-2c2.03-1.03,4.06,1.03,3.16,3.42c-0.9,2.4-5.94,17.01-7.52,20.44" id="kvg:06a62-s5" kvg:type="&#12743;" />
			<path d="M49.76,42.78c10.99,9.72,10.49,41.72,1.13,30.78" id="kvg:06a62-s6" kvg:type="&#12757;va" />
			<path d="M43.74,21.07c0.01,0.93,0.18,2.31,0.33,3.34c0.15,1.03,0,65.42-0.15,71.84" id="kvg:06a62-s7" kvg:type="&#12753;" />
		</g>
		<g id="kvg:06a62-g4" kvg:position="right">
			<g id="kvg:06a62-g5" kvg:element="&#24038;" kvg:position="top">
				<g id="kvg:06a62-g6" kvg:position="kamae">
					<path d="M61.43,25.58c1.15,0.2,2.3,0.41,3.33,0.31c9.04-0.86,17.54-1.95,28.8-2.87c1.58-0.13,2.41-0.14,3.71,0.27" id="kvg:06a62-s8" kvg:type="&#12752;" />
					<path d="M76.87,14.5c0.11,0.63,0.19,1.76-0.02,2.46C73.36,29,67.76,38.66,59.31,45.38" id="kvg:06a62-s9" kvg:type="&#12754;" />
				</g>
				<g id="kvg:06a62-g7" kvg:element="&#24037;">
					<path d="M73.2,34.99c0.36,0.23,2.03,0.27,2.4,0.23c2.67-0.28,10.46-1.17,14.41-1.88c0.54-0.1,1.83,0.05,2.28,0.23" id="kvg:06a62-s10" kvg:type="&#12752;" />
					<path d="M80.08,35.44c0.73,0.69,0.99,1.65,0.99,2.2c0,2.63,0.02,5.5,0.02,8.25" id="kvg:06a62-s11" kvg:type="&#12753;a" />
					<path d="M65.66,47.42c0.51,0.17,2.06,0.29,2.93,0.28c7.39-0.14,17.48-2.19,26.27-2.07c1.4,0.02,2.51,0.29,3.21,0.56" id="kvg:06a62-s12" kvg:type="&#12752;" />
				</g>
			</g>
			<g id="kvg:06a62-g8" kvg:element="&#26376;" kvg:position="bottom">
				<path d="M68.43,54.84c0.41,0.63,0.68,1.26,0.82,1.87s0.19,38.22,0.14,39.58" id="kvg:06a62-s13" kvg:type="&#12754;" />
				<path d="M70.06,55.65c1.83-0.05,18.6-2.19,19.96-2.29c2.44-0.17,3.35,2.16,3.05,3.05c-0.29,0.86-0.46,20.87-0.46,33.19c0,10.92-4.24,4.98-6.28,2.54" id="kvg:06a62-s14" kvg:type="&#12742;a" />
				<path d="M70.06,66.43c5.57-0.57,17.17-1.87,22.06-2.03" id="kvg:06a62-s15" kvg:type="&#12752;a" />
				<path d="M69.4,77.04C73.75,76.84,85,76,92.55,75.6" id="kvg:06a62-s16" kvg:type="&#12752;a" />
			</g>
		</g>
	</g>
</g>
</g>
<g id="kvg:StrokeNumbers_06a62" style="font-size:8;fill:#808080">
	<text transform="matrix(1 0 0 1 5.85 38.50)">1</text>
	<text transform="matrix(1 0 0 1 17.50 14.50)">2</text>
	<text transform="matrix(1 0 0 1 17.71 47.50)">3</text>
	<text transform="matrix(1 0 0 1 32.50 45.50)">4</text>
	<text transform="matrix(1 0 0 1 36.50 17.50)">5</text>
	<text transform="matrix(1 0 0 1 48.50 55.50)">6</text>
	<text transform="matrix(1 0 0 1 36.25 29.50)">7</text>
	<text transform="matrix(1 0 0 1 62.50 22.50)">8</text>
	<text transform="matrix(1 0 0 1 67.50 12.50)">9</text>
	<text transform="matrix(1 0 0 1 76.50 32.95)">10</text>
	<text transform="matrix(1 0 0 1 84.50 41.50)">11</text>
	<text transform="matrix(1 0 0 1 67.25 44.50)">12</text>
	<text transform="matrix(1 0 0 1 60.25 62.50)">13</text>
	<text transform="matrix(1 0 0 1 71.25 53.50)">14</text>
	<text transform="matrix(1 0 0 1 73.50 63.50)">15</text>
	<text transform="matrix(1 0 0 1 73.50 74.50)">16</text>
</g>
</svg>