<svg xmlns="http://www.w3.org/2000/svg" xmlns:kvg="http://kanjivg.tagaini.net" height="109" kun="&#12356;" meaning="ilex, holm oak, birdlime tree" on="&#12458;&#12463;" viewBox="0 0 109 109" width="109">
<g id="kvg:StrokePaths_06a8d" style="fill:none;stroke:#000000;stroke-width:3;stroke-linecap:round;stroke-linejoin:round;">
<g id="kvg:06a8d" kvg:element="&#27277;">
	<g id="kvg:06a8d-g1" kvg:element="&#26408;" kvg:position="left" kvg:radical="general">
		<path d="M12.78,35.72c0.35,0.24,2.39,0.41,3.31,0.31c3.94-0.41,13.12-0.71,19.45-1.91c0.92-0.17,2.15-0.24,2.73,0" id="kvg:06a8d-s1" kvg:type="&#12752;" />
		<path d="M25.36,14.5c0.91,0.47,2.04,1.75,2.04,4.42c0,0.95-0.12,68.75-0.3,74.58" id="kvg:06a8d-s2" kvg:type="&#12753;" />
		<path d="M26.94,38.78C22.75,52.5,17.25,65,11.11,73.34" id="kvg:06a8d-s3" kvg:type="&#12754;" />
		<path d="M29.97,45.9c2.88,1.71,7.6,7.28,10.03,10.6" id="kvg:06a8d-s4" kvg:type="&#12756;/&#12751;" />
	</g>
	<g id="kvg:06a8d-g2" kvg:element="&#24847;" kvg:position="right">
		<g id="kvg:06a8d-g3" kvg:element="&#38899;" kvg:position="top">
			<g id="kvg:06a8d-g4" kvg:element="&#31435;">
				<g id="kvg:06a8d-g5" kvg:element="&#20128;" kvg:position="top">
					<path d="M65.64,14.07c1.27,0.36,2.02,1.63,1.99,2.63c-0.13,3.82-0.24,4.85-0.1,8.08" id="kvg:06a8d-s5" kvg:type="&#12753;a" />
					<path d="M47.9,25.82c0.81,0.03,2.67,0.3,3.45,0.17c3.22-0.52,20.01-0.76,35.32-2.29c1.33-0.13,2.82,0.31,3.49,0.3" id="kvg:06a8d-s6" kvg:type="&#12752;" />
				</g>
				<g id="kvg:06a8d-g6" kvg:position="bottom">
					<path d="M55.46,30.8c2.65,3.36,3.69,6.67,4.07,9.09" id="kvg:06a8d-s7" kvg:type="&#12756;" />
					<path d="M79.09,27.7c0.66,0.8,0.49,2.31,0.34,2.63c-1.47,3.2-3.81,7.61-4.9,9.43" id="kvg:06a8d-s8" kvg:type="&#12754;" />
					<path d="M42.33,43.7c2.1,0.05,2.9,0.37,4.17,0.26c20.19-1.74,27.08-2.05,44.23-2.71c2.19-0.08,4.62-0.16,5.94,0.17" id="kvg:06a8d-s9" kvg:type="&#12752;" />
				</g>
			</g>
			<g id="kvg:06a8d-g7" kvg:element="&#26085;">
				<path d="M49.62,51.6c0.42,0.42,1.15,1.22,1.15,1.83c0,0.61,2.91,16.05,2.91,16.35c0,0.3,0.18,1.12,0.18,1.73" id="kvg:06a8d-s10" kvg:type="&#12753;" />
				<path d="M51.47,52.17c2.39-0.25,30.28-2.56,32.39-3.01c2.11-0.46,3.14,1.59,2.78,3.96c-0.51,3.35-2.89,11.13-4.41,16.96" id="kvg:06a8d-s11" kvg:type="&#12757;a" />
				<path d="M53.13,60.44c3.24-0.24,28.08-1.59,31.74-1.86" id="kvg:06a8d-s12" kvg:type="&#12752;a" />
				<path d="M54.66,69.2c4.78-0.35,21.32-1.43,27.51-1.88" id="kvg:06a8d-s13" kvg:type="&#12752;a" />
			</g>
		</g>
		<g id="kvg:06a8d-g8" kvg:element="&#24515;" kvg:position="bottom">
			<path d="M43.89,81.14c0.27,1.7-2.66,9.38-4.79,12.33" id="kvg:06a8d-s14" kvg:type="&#12756;" />
			<path d="M54.03,79.47C59.5,91.25,68.98,96.33,86,96.44c8,0.06,7.75-3.94,2.8-6.12" id="kvg:06a8d-s15" kvg:type="&#12767;b" />
			<path d="M68.74,77.52c1.34,2.49,4.86,8.04,5.7,4.4" id="kvg:06a8d-s16" kvg:type="&#12756;a" />
			<path d="M87.44,74.86c4.21,1.71,7.2,4.03,10.79,8.84" id="kvg:06a8d-s17" kvg:type="&#12756;" />
		</g>
	</g>
</g>
</g>
<g id="kvg:StrokeNumbers_06a8d" style="font-size:8;fill:#808080">
	<text transform="matrix(1 0 0 1 5.85 36.50)">1</text>
	<text transform="matrix(1 0 0 1 16.66 15.50)">2</text>
	<text transform="matrix(1 0 0 1 18.50 46.50)">3</text>
	<text transform="matrix(1 0 0 1 31.50 44.50)">4</text>
	<text transform="matrix(1 0 0 1 57.50 15.50)">5</text>
	<text transform="matrix(1 0 0 1 46.50 22.50)">6</text>
	<text transform="matrix(1 0 0 1 49.50 34.50)">7</text>
	<text transform="matrix(1 0 0 1 71.50 34.50)">8</text>
	<text transform="matrix(1 0 0 1 41.50 40.50)">9</text>
	<text transform="matrix(1 0 0 1 41.50 59.50)">10</text>
	<text transform="matrix(1 0 0 1 54.50 49.88)">11</text>
	<text transform="matrix(1 0 0 1 55.50 58.80)">12</text>
	<text transform="matrix(1 0 0 1 56.50 67.73)">13</text>
	<text transform="matrix(1 0 0 1 34.50 80.50)">14</text>
	<text transform="matrix(1 0 0 1 47.50 89.50)">15</text>
	<text transform="matrix(1 0 0 1 58.25 79.50)">16</text>
	<text transform="matrix(1 0 0 1 77.50 79.50)">17</text>
</g>
</svg>