<svg xmlns="http://www.w3.org/2000/svg" xmlns:kvg="http://kanjivg.tagaini.net" height="109" kun="&#12392;.&#12414;&#12427;, -&#12393;.&#12414;&#12426;, &#12392;.&#12417;&#12427;, -&#12392;.&#12417;&#12427;, -&#12393;.&#12417;, &#12392;&#12393;.&#12417;&#12427;, &#12392;&#12393;.&#12417;, &#12392;&#12393;.&#12414;&#12427;, &#12420;.&#12417;&#12427;, &#12420;.&#12416;, -&#12420;.&#12416;, &#12424;.&#12377;, -&#12373;.&#12377;, -&#12373;.&#12375;" meaning="stop, halt" on="&#12471;" viewBox="0 0 109 109" width="109">
<g id="kvg:StrokePaths_06b62" style="fill:none;stroke:#000000;stroke-width:3;stroke-linecap:round;stroke-linejoin:round;">
<g id="kvg:06b62" kvg:element="&#27490;" kvg:radical="general">
	<g id="kvg:06b62-g1" kvg:element="&#21340;" kvg:original="&#12488;">
		<path d="M53.43,16.25c1.22,1.22,2.08,3.25,2.08,4.62c0,5.26,0.11,47.51,0.11,65.88" id="kvg:06b62-s1" kvg:type="&#12753;a" />
		<path d="M55.88,49.75c8.92-0.75,15.63-2,24.4-2.75c2.17-0.19,2.73-0.25,4.09,0" id="kvg:06b62-s2" kvg:type="&#12752;b" />
	</g>
	<path d="M31.43,47.5c1.1,1.1,1.83,3,1.83,4.36c0,4.51,0.32,25.66,0.12,36.64" id="kvg:06b62-s3" kvg:type="&#12753;a" />
	<path d="M14,90c1.75,0.62,3.87,0.95,6.66,0.75c17.21-1.25,47.96-4,63.81-4.25c2.81-0.04,6.65,0.12,8.78,0.75" id="kvg:06b62-s4" kvg:type="&#12752;" />
</g>
</g>
<g id="kvg:StrokeNumbers_06b62" style="font-size:8;fill:#808080">
	<text transform="matrix(1 0 0 1 43.50 15.50)">1</text>
	<text transform="matrix(1 0 0 1 62.25 45.13)">2</text>
	<text transform="matrix(1 0 0 1 21.50 47.50)">3</text>
	<text transform="matrix(1 0 0 1 5.25 90.13)">4</text>
</g>
</svg>