<svg xmlns="http://www.w3.org/2000/svg" xmlns:kvg="http://kanjivg.tagaini.net" height="109" kun="&#12363;&#12360;.&#12427;, &#12363;&#12360;.&#12377;, &#12362;&#12367;.&#12427;, &#12392;&#12388;.&#12368;" meaning="homecoming, arrive at, lead to, result in" on="&#12461;" viewBox="0 0 109 109" width="109">
<g id="kvg:StrokePaths_06b78" style="fill:none;stroke:#000000;stroke-width:3;stroke-linecap:round;stroke-linejoin:round;">
<g id="kvg:06b78" kvg:element="&#27512;">
	<g id="kvg:06b78-g1" kvg:position="left">
		<g id="kvg:06b78-g2" kvg:position="top">
			<path d="M31.66,10.42c0.02,0.24,0.04,0.62-0.03,0.96c-0.4,2.03-2.91,6.84-6.07,9.56" id="kvg:06b78-s1" kvg:type="&#12754;" />
			<path d="M19.89,20.83c0.52,0.57,0.83,2.56,0.93,3.69c0.1,1.14,0,33.72-0.1,40.82" id="kvg:06b78-s2" kvg:type="&#12753;" />
			<path d="M21.48,23.05c5.92-0.79,17.97-2.24,19.77-2.68c0.66-0.16,1.93,0.77,1.83,1.72c-0.39,3.96-1.71,7.37-2.54,13.07" id="kvg:06b78-s3" kvg:type="&#12757;" />
			<path d="M21.08,37.33c6.98-0.53,17.17-2,21.27-2.24" id="kvg:06b78-s4" kvg:type="&#12752;" />
			<path d="M21.55,47.92c6.58-0.81,15.59-2.18,19.55-2.68c0.76-0.1,2.75,1.11,2.39,2.19c-1.24,3.81-2.09,7.18-2.82,11.42" id="kvg:06b78-s5" kvg:type="&#12757;" />
			<path d="M21.02,61.51c4.1-0.5,16.41-1.6,21.48-2.01" id="kvg:06b78-s6" kvg:type="&#12752;" />
		</g>
		<g id="kvg:06b78-g3" kvg:element="&#27490;" kvg:position="bottom" kvg:radical="tradit">
			<g id="kvg:06b78-g4" kvg:element="&#21340;" kvg:original="&#12488;">
				<path d="M30.43,66.23c0.94,0.37,1.5,1.67,1.68,2.41c0.19,0.74-0.07,13.34-0.07,21.32" id="kvg:06b78-s7" kvg:type="&#12753;a" />
				<path d="M32.59,76.52c3.96-0.33,6.7-1.42,10.59-1.74c0.96-0.08,1.21-0.11,1.81,0" id="kvg:06b78-s8" kvg:type="&#12752;b" />
			</g>
			<path d="M19.26,74.15c1.02,0.45,1.83,2,1.83,2.91c0,4.93,0.26,9.67,0.26,16.17" id="kvg:06b78-s9" kvg:type="&#12753;a" />
			<path d="M12.35,94.69c0.38,0.54,2.1,0.6,3.11,0.4c5.44-1.08,21.34-6.93,29.84-9.99" id="kvg:06b78-s10" kvg:type="&#12752;" />
		</g>
	</g>
	<g id="kvg:06b78-g5" kvg:element="&#24090;" kvg:position="right">
		<g id="kvg:06b78-g6" kvg:element="&#11925;" kvg:original="&#24401;" kvg:position="top" kvg:variant="true">
			<path d="M55.75,16.75c1.01,0.24,2.5,0.43,4.18,0.43c0.95,0,22.54-2.18,24.07-2.43c1.52-0.24,3.42,0.75,3.05,2.44c-1.33,6.1-3.03,14.55-3.6,18.45" id="kvg:06b78-s11" kvg:type="&#12757;" />
			<path d="M49.89,27.32c0.87,0.23,2.46,0.24,3.33,0.23c6.65-0.05,31.71-2.56,40.73-2.75c2.41-0.05,2.41,0.2,4.31,0.2" id="kvg:06b78-s12" kvg:type="&#12752;" />
			<path d="M53.18,37.6c0.63,0.21,3.29,0.77,3.92,0.71c7.65-0.81,16.65-1.81,26.14-2.37c1.05-0.06,1.68,0.1,2.21,0.2" id="kvg:06b78-s13" kvg:type="&#12752;c" />
		</g>
		<g id="kvg:06b78-g7" kvg:position="bottom">
			<g id="kvg:06b78-g8" kvg:element="&#20886;">
				<path d="M52.49,46.17c-0.08,3.76-2.08,10.17-2.79,12.41" id="kvg:06b78-s14" kvg:type="&#12756;" />
				<path d="M52.42,49.41c14.33-1.73,25.61-3.04,37.71-3.68c8.88-0.47,3.63,6.03,0.03,8.72" id="kvg:06b78-s15" kvg:type="&#12758;b" />
			</g>
			<g id="kvg:06b78-g9" kvg:element="&#24062;">
				<g id="kvg:06b78-g10" kvg:element="&#20008;" kvg:radical="nelson">
					<path d="M55.88,62.33c0.43,0.27,1.35,2,1.44,2.54c0.09,0.54-0.06,21.2-0.14,24.54" id="kvg:06b78-s16" kvg:type="&#12753;" />
				</g>
				<path d="M57.21,64.26c4.29-0.26,25.06-2.46,27.08-2.57c2.38-0.14,3.92,2.35,3.84,3.57c-0.43,6.13,0.2,12.9-1.09,18.94c-1.35,6.34-3.81,0.04-4.71-0.89" id="kvg:06b78-s17" kvg:type="&#12742;" />
				<path d="M70.25,51.97c0.37,0.28,1.17,2.12,1.25,2.68s-0.05,42.22-0.12,45.76" id="kvg:06b78-s18" kvg:type="&#12753;" />
			</g>
		</g>
	</g>
</g>
</g>
<g id="kvg:StrokeNumbers_06b78" style="font-size:8;fill:#808080">
	<text transform="matrix(1 0 0 1 25.25 9.50)">1</text>
	<text transform="matrix(1 0 0 1 13.25 28.50)">2</text>
	<text transform="matrix(1 0 0 1 21.50 18.50)">3</text>
	<text transform="matrix(1 0 0 1 25.50 33.50)">4</text>
	<text transform="matrix(1 0 0 1 25.50 44.50)">5</text>
	<text transform="matrix(1 0 0 1 25.50 57.50)">6</text>
	<text transform="matrix(1 0 0 1 23.50 72.50)">7</text>
	<text transform="matrix(1 0 0 1 36.50 72.50)">8</text>
	<text transform="matrix(1 0 0 1 10.25 75.50)">9</text>
	<text transform="matrix(1 0 0 1 1.50 96.50)">10</text>
	<text transform="matrix(1 0 0 1 59.25 11.38)">11</text>
	<text transform="matrix(1 0 0 1 47.50 24.30)">12</text>
	<text transform="matrix(1 0 0 1 50.50 35.50)">13</text>
	<text transform="matrix(1 0 0 1 45.50 46.50)">14</text>
	<text transform="matrix(1 0 0 1 55.50 45.50)">15</text>
	<text transform="matrix(1 0 0 1 46.50 68.00)">16</text>
	<text transform="matrix(1 0 0 1 57.50 60.50)">17</text>
	<text transform="matrix(1 0 0 1 73.50 55.50)">18</text>
</g>
</svg>