<svg xmlns="http://www.w3.org/2000/svg" xmlns:kvg="http://kanjivg.tagaini.net" height="109" kun="&#12388;&#12367;.&#12377;, &#12411;&#12429;&#12412;.&#12377;" meaning="massacre" on="&#12475;&#12531;" viewBox="0 0 109 109" width="109">
<g id="kvg:StrokePaths_06bb1" style="fill:none;stroke:#000000;stroke-width:3;stroke-linecap:round;stroke-linejoin:round;">
<g id="kvg:06bb1" kvg:element="&#27569;">
	<g id="kvg:06bb1-g1" kvg:element="&#27513;" kvg:position="left" kvg:radical="general">
		<g id="kvg:06bb1-g2" kvg:element="&#19968;">
			<path d="M11.75,17.97c1.25,0.28,2.79,0.56,3.8,0.52C21,18.25,32,16.75,38.28,16.01c1.64-0.19,2.64,0.25,3.47,0.5" id="kvg:06bb1-s1" kvg:type="&#12752;" />
		</g>
		<g id="kvg:06bb1-g3" kvg:element="&#22805;">
			<path d="M22.34,21.39c0.13,0.67,0.53,2.72,0.25,4.01c-1.85,8.69-5.61,21.41-12.17,32.01" id="kvg:06bb1-s2" kvg:type="&#12754;" />
			<path d="M21.64,35.5c0.86,0.75,2.39,0.5,3.14,0.36c2.47-0.45,4.98-1.11,8.93-2.55c2.38-0.87,3.41,1.23,2.79,3.81C33.11,51.26,25.75,77.5,11.61,91" id="kvg:06bb1-s3" kvg:type="&#12743;" />
			<path d="M17.46,51.23c2.85,1.92,7.35,7.91,8.06,10.91" id="kvg:06bb1-s4" kvg:type="&#12756;" />
		</g>
	</g>
	<g id="kvg:06bb1-g4" kvg:element="&#35009;" kvg:position="right">
		<g id="kvg:06bb1-g5" kvg:element="&#22303;" kvg:part="1">
			<path d="M41.11,26.28c0.95,0.21,2.7,0.76,3.65,0.71c6.66-0.31,14.89-1.33,21.14-1.8c1.58-0.12,2.54,0.1,3.33,0.21" id="kvg:06bb1-s5" kvg:type="&#12752;" />
			<path d="M53.32,13.12c0.09,0.29,1.31,1.52,1.31,3.39c0,5,0.1,19.25,0.1,24.36" id="kvg:06bb1-s6" kvg:type="&#12753;" />
			<g id="kvg:06bb1-g6" kvg:element="&#25096;" kvg:part="1">
				<g id="kvg:06bb1-g7" kvg:element="&#24331;" kvg:part="1">
					<path d="M38.38,41.49c1.17,0.3,3.31,0.39,4.47,0.3c9.9-0.71,36.17-3.11,49.09-3.51c1.94-0.06,3.11,0.15,4.08,0.3" id="kvg:06bb1-s7" kvg:type="&#12752;" />
				</g>
			</g>
		</g>
		<g id="kvg:06bb1-g8" kvg:element="&#38893;">
			<g id="kvg:06bb1-g9" kvg:element="&#38750;">
				<g id="kvg:06bb1-g10" kvg:position="left">
					<path d="M48.34,47.91c0.49,0.29,0.79,1.3,0.89,1.88c0.1,0.58,0,33.82-0.1,37.43" id="kvg:06bb1-s8" kvg:type="&#12754;" />
					<path d="M57.89,45.75c0.49,0.29,0.79,1.3,0.89,1.88c0.1,0.58,0,32.9-0.1,36.51" id="kvg:06bb1-s9" kvg:type="&#12752;c" />
					<path d="M35.35,55.99c0.43,0.22,1.21,0.22,1.63,0.22c3.47-0.01,11.75-1.67,12.21-1.67" id="kvg:06bb1-s10" kvg:type="&#12752;c" />
					<path d="M34.46,65.48c0.43,0.22,1.21,0.22,1.63,0.22c3.47-0.01,12.03-2.46,12.48-2.46" id="kvg:06bb1-s11" kvg:type="&#12736;" />
				</g>
				<g id="kvg:06bb1-g11" kvg:position="right">
					<path d="M34.28,75.96c0.43,0.22,1.21,0.22,1.63,0.22c3.47-0.01,12.21-3.04,12.66-3.04" id="kvg:06bb1-s12" kvg:type="&#12753;" />
					<path d="M58.97,52.9c0.57,0,8.26-1.09,10.85-1.45c0.71-0.1,1.14,0.11,1.49,0.21" id="kvg:06bb1-s13" kvg:type="&#12752;b" />
					<path d="M59.86,63.52c0.57,0,7.98-1.59,10.58-1.95c0.71-0.1,1.14,0.1,1.49,0.21" id="kvg:06bb1-s14" kvg:type="&#12752;b" />
					<path d="M58.97,72.5c0.57,0,9.94-1.09,12.53-1.45c0.71-0.1,1.14,0.11,1.49,0.21" id="kvg:06bb1-s15" kvg:type="&#12752;b" />
				</g>
			</g>
			<g id="kvg:06bb1-g12" kvg:element="&#19968;">
				<path d="M33.83,91.29c0.94,0.9,3.22,0.55,3.94,0.29c10.2-3.77,20.59-7.27,30.19-10.75" id="kvg:06bb1-s16" kvg:type="&#12752;" />
			</g>
		</g>
		<g id="kvg:06bb1-g13" kvg:element="&#25096;" kvg:part="2">
			<g id="kvg:06bb1-g14" kvg:element="&#24331;" kvg:part="2">
				<path d="M73.55,11c1.07,1.73,1.97,2.21,2.07,5.95c0.87,30.3,4.12,59.55,16.62,75.83c3.47,4.52,5.1,0.74,4.57-6.94" id="kvg:06bb1-s17" kvg:type="&#12738;" />
			</g>
			<g id="kvg:06bb1-g15" kvg:element="&#20031;">
				<path d="M92.76,47.39c0.09,1.15,0.42,3.02-0.19,4.61C87.75,64.75,78,83.75,59.35,96.72" id="kvg:06bb1-s18" kvg:type="&#12754;" />
			</g>
			<g id="kvg:06bb1-g16" kvg:element="&#24331;" kvg:part="3">
				<g id="kvg:06bb1-g17" kvg:element="&#20022;">
					<path d="M83.4,19c2.77,2.3,7.19,7.56,8.48,11.5" id="kvg:06bb1-s19" kvg:type="&#12756;" />
				</g>
			</g>
		</g>
	</g>
</g>
</g>
<g id="kvg:StrokeNumbers_06bb1" style="font-size:8;fill:#808080">
	<text transform="matrix(1 0 0 1 5.50 18.50)">1</text>
	<text transform="matrix(1 0 0 1 14.50 28.85)">2</text>
	<text transform="matrix(1 0 0 1 26.50 31.50)">3</text>
	<text transform="matrix(1 0 0 1 19.50 49.50)">4</text>
	<text transform="matrix(1 0 0 1 42.50 23.50)">5</text>
	<text transform="matrix(1 0 0 1 43.50 12.50)">6</text>
	<text transform="matrix(1 0 0 1 41.50 38.50)">7</text>
	<text transform="matrix(1 0 0 1 42.50 49.77)">8</text>
	<text transform="matrix(1 0 0 1 52.50 48.50)">9</text>
	<text transform="matrix(1 0 0 1 35.50 53.50)">10</text>
	<text transform="matrix(1 0 0 1 33.50 62.50)">11</text>
	<text transform="matrix(1 0 0 1 29.50 73.50)">12</text>
	<text transform="matrix(1 0 0 1 62.00 49.50)">13</text>
	<text transform="matrix(1 0 0 1 62.50 60.50)">14</text>
	<text transform="matrix(1 0 0 1 62.50 69.75)">15</text>
	<text transform="matrix(1 0 0 1 21.50 92.50)">16</text>
	<text transform="matrix(1 0 0 1 63.50 10.50)">17</text>
	<text transform="matrix(1 0 0 1 81.50 48.35)">18</text>
	<text transform="matrix(1 0 0 1 80.50 16.50)">19</text>
</g>
</svg>