<svg xmlns="http://www.w3.org/2000/svg" xmlns:kvg="http://kanjivg.tagaini.net" height="109" meaning="pike, windy-again radical (no. 79)" viewBox="0 0 109 109" width="109">
<g id="kvg:StrokePaths_06bb3" style="fill:none;stroke:#000000;stroke-width:3;stroke-linecap:round;stroke-linejoin:round;">
<g id="kvg:06bb3" kvg:element="&#27571;" kvg:radical="general">
	<g id="kvg:06bb3-g1" kvg:element="&#20960;" kvg:position="top">
		<g id="kvg:06bb3-g2" kvg:element="&#20031;">
			<path d="M37.77,13.64c0.48,0.86,0.96,2.74,0.92,4c-0.35,13.02-4.02,28.02-14.8,33.49" id="kvg:06bb3-s1" kvg:type="&#12754;" />
		</g>
		<path d="M39.67,16c3.33,0.33,20.77-1.66,23-2.33c3.33-1,5.01,2.12,4.67,4.33c-0.67,4.33-1,11.67-1,16c0,6,1.67,10.33,12.67,10.33c13,0,12.67-0.67,12.67-13" id="kvg:06bb3-s2" kvg:type="&#12744;b" />
	</g>
	<g id="kvg:06bb3-g3" kvg:element="&#21448;" kvg:position="bottom">
		<path d="M33,55.25c2,0.4,2.25,0.99,6.25,0.4s24.25-3.24,27-3.83c2.75-0.59,4.98,2.3,3.75,4.35c-12.67,21.17-29,33.17-53,43" id="kvg:06bb3-s3" kvg:type="&#12743;" />
		<path d="M35.92,61.37c5.08,0.87,29.9,24.21,47.59,33.77c2.75,1.49,4.76,2.48,7.33,2.98" id="kvg:06bb3-s4" kvg:type="&#12751;" />
	</g>
</g>
</g>
<g id="kvg:StrokeNumbers_06bb3" style="font-size:8;fill:#808080">
	<text transform="matrix(1 0 0 1 30.50 20.50)">1</text>
	<text transform="matrix(1 0 0 1 41.50 12.50)">2</text>
	<text transform="matrix(1 0 0 1 35.50 52.50)">3</text>
	<text transform="matrix(1 0 0 1 28.50 66.50)">4</text>
</g>
</svg>