<svg xmlns="http://www.w3.org/2000/svg" xmlns:kvg="http://kanjivg.tagaini.net" height="109" meaning="help, assist" viewBox="0 0 109 109" width="109">
<g id="kvg:StrokePaths_06bd8" style="fill:none;stroke:#000000;stroke-width:3;stroke-linecap:round;stroke-linejoin:round;">
<g id="kvg:06bd8" kvg:element="&#27608;">
	<g id="kvg:06bd8-g1" kvg:element="&#30000;" kvg:position="top" kvg:radical="nelson">
		<path d="M23.91,15.02c0.43,0.54,0.57,0.88,0.67,1.59c1.16,7.88,2.76,21.18,3.96,31.59" id="kvg:06bd8-s1" kvg:type="&#12753;" />
		<path d="M24.92,16.77c15-1.41,41.21-3.29,52.4-4.47c4.11-0.43,6.22,1.1,6.01,2.63c-0.77,5.63-3.69,21.46-5.57,30.86" id="kvg:06bd8-s2" kvg:type="&#12757;a" />
		<path d="M51.43,16.24c0.82,0.76,1.63,2.19,1.68,3.48c0.29,7.98,0.09,20.3,0.09,24.46" id="kvg:06bd8-s3" kvg:type="&#12753;a" />
		<path d="M26.72,31.21c4.89-0.55,49.8-3.58,53.84-3.8" id="kvg:06bd8-s4" kvg:type="&#12752;a" />
		<path d="M29.32,46.69c10.8-0.6,34.04-2.1,48.95-3.08" id="kvg:06bd8-s5" kvg:type="&#12752;a" />
	</g>
	<g id="kvg:06bd8-g2" kvg:element="&#27604;" kvg:position="bottom" kvg:radical="tradit">
		<g id="kvg:06bd8-g3" kvg:position="left">
			<path d="M26.75,69.53c5.98-0.41,15-2.38,20.21-3.08c1.53-0.21,2.5-0.2,3.29-0.08" id="kvg:06bd8-s6" kvg:type="&#12752;b" />
			<path d="M24,55.05c1.07,0.75,2.01,1.54,2.01,2.56c0,2.8-0.34,30.14-0.34,34.5c0,3.65-0.93,5.03,3.83,2.59c5.7-2.91,10.25-5.45,17.17-8.02" id="kvg:06bd8-s7" kvg:type="&#12761;" />
		</g>
		<g id="kvg:06bd8-g4" kvg:element="&#21269;" kvg:position="right">
			<path d="M85.85,57.12c0.27,0.63,0.21,2.62-0.76,3.3c-3.33,2.33-14.18,8.28-22.42,11.73" id="kvg:06bd8-s8" kvg:type="&#12754;" />
			<path d="M58.5,52.5c1.25,0.78,1.83,2.54,1.83,3.53c0,2.62-0.36,24.84-0.36,27.91c0,14.35,9.33,12.36,17.78,12.36c6.55,0,13.2-0.41,15.67-2.62c2.47-2.21,1.08-3.89,1.33-6.09" id="kvg:06bd8-s9" kvg:type="&#12767;" />
		</g>
	</g>
</g>
</g>
<g id="kvg:StrokeNumbers_06bd8" style="font-size:8;fill:#808080">
	<text transform="matrix(1 0 0 1 17.50 22.50)">1</text>
	<text transform="matrix(1 0 0 1 28.50 12.50)">2</text>
	<text transform="matrix(1 0 0 1 44.50 23.50)">3</text>
	<text transform="matrix(1 0 0 1 30.50 28.50)">4</text>
	<text transform="matrix(1 0 0 1 31.50 43.50)">5</text>
	<text transform="matrix(1 0 0 1 30.50 65.50)">6</text>
	<text transform="matrix(1 0 0 1 17.50 55.50)">7</text>
	<text transform="matrix(1 0 0 1 77.50 56.10)">8</text>
	<text transform="matrix(1 0 0 1 50.50 55.50)">9</text>
</g>
</svg>