<svg xmlns="http://www.w3.org/2000/svg" xmlns:kvg="http://kanjivg.tagaini.net" height="109" meaning="water radical variant (no. 85)" viewBox="0 0 109 109" width="109">
<g id="kvg:StrokePaths_06c3a" style="fill:none;stroke:#000000;stroke-width:3;stroke-linecap:round;stroke-linejoin:round;">
<g id="kvg:06c3a" kvg:element="&#27706;" kvg:original="&#27700;" kvg:radical="tradit" kvg:variant="true">
	<path d="M52.02,6.08c1.33,1.33,1.51,2.67,1.51,4.77c0,18.15-0.01,78.66-0.01,83.62c0,10.53-7.21,1.5-8.71,0.25" id="kvg:06c3a-s1" kvg:type="&#12762;" />
	<path d="M17.25,26.38c5.65,2.58,14.59,10.61,16,14.62" id="kvg:06c3a-s2" kvg:type="&#12756;" />
	<path d="M10.5,75.35c1.75,1.15,3.5,0.85,5.41-0.6c1.13-0.85,13.44-11.42,18.21-15.51" id="kvg:06c3a-s3" kvg:type="&#12736;" />
	<path d="M87.75,23c-0.37,1.38-0.76,2.34-1.64,3.32c-3.86,4.3-10.44,9.61-20.8,15.9" id="kvg:06c3a-s4" kvg:type="&#12754;" />
	<path d="M66.38,56.75C77.5,62,92.12,73.38,95.88,80.38" id="kvg:06c3a-s5" kvg:type="&#12751;" />
</g>
</g>
<g id="kvg:StrokeNumbers_06c3a" style="font-size:8;fill:#808080">
	<text transform="matrix(1 0 0 1 41.25 8.50)">1</text>
	<text transform="matrix(1 0 0 1 9.38 23.43)">2</text>
	<text transform="matrix(1 0 0 1 2.50 72.48)">3</text>
	<text transform="matrix(1 0 0 1 79 25)">4</text>
	<text transform="matrix(1 0 0 1 64.50 53.33)">5</text>
</g>
</svg>