<svg xmlns="http://www.w3.org/2000/svg" xmlns:kvg="http://kanjivg.tagaini.net" height="109" meaning="request, want, wish for, require, demand" viewBox="0 0 109 109" width="109">
<g id="kvg:StrokePaths_06c42" style="fill:none;stroke:#000000;stroke-width:3;stroke-linecap:round;stroke-linejoin:round;">
<g id="kvg:06c42" kvg:element="&#27714;">
	<path d="M19.75,35.4c2.75,0.47,6.08,0.33,8.77,0.02C41,34,62.3,31.74,74.38,30.83c3.24-0.25,6.66-0.65,9.87,0.05" id="kvg:06c42-s1" kvg:type="&#12752;" />
	<g id="kvg:06c42-g1" kvg:element="&#27706;" kvg:original="&#27700;" kvg:radical="tradit" kvg:variant="true">
		<path d="M52.27,11.33c1.26,1.26,1.76,2.67,1.76,4.77c0,15.77-0.01,68.02-0.01,77.12c0,8.53-5.77,2.53-8.71,0.25" id="kvg:06c42-s2" kvg:type="&#12762;" />
		<path d="M26.27,49.08c3.99,1.48,10.3,6.08,11.29,8.38" id="kvg:06c42-s3" kvg:type="&#12756;" />
		<path d="M18.45,83.33c1.18,0.55,2.93,0.42,4.3-0.7c1.7-1.39,14.5-13.38,22.75-21.38" id="kvg:06c42-s4" kvg:type="&#12736;" />
		<path d="M81,42.25c0,0.88-0.22,2.08-0.78,2.81c-3.37,4.36-9.59,9.13-15.47,12.19" id="kvg:06c42-s5" kvg:type="&#12754;" />
		<path d="M60.25,62.5c3.5,1,17.39,15.53,24.45,20.14c2.06,1.34,5.3,3.48,8.05,4.36" id="kvg:06c42-s6" kvg:type="&#12751;" />
	</g>
	<g id="kvg:06c42-g2" kvg:element="&#20022;" kvg:radical="nelson">
		<path d="M69.5,11.5c4.08,1.63,10.54,6.69,11.56,9.22" id="kvg:06c42-s7" kvg:type="&#12756;" />
	</g>
</g>
</g>
<g id="kvg:StrokeNumbers_06c42" style="font-size:8;fill:#808080">
	<text transform="matrix(1 0 0 1 13.50 36.50)">1</text>
	<text transform="matrix(1 0 0 1 43.99 10.56)">2</text>
	<text transform="matrix(1 0 0 1 18.49 50.98)">3</text>
	<text transform="matrix(1 0 0 1 10.99 89.50)">4</text>
	<text transform="matrix(1 0 0 1 72.50 42.50)">5</text>
	<text transform="matrix(1 0 0 1 60.49 74.76)">6</text>
	<text transform="matrix(1 0 0 1 63.50 10.50)">7</text>
</g>
</svg>