<svg xmlns="http://www.w3.org/2000/svg" xmlns:kvg="http://kanjivg.tagaini.net" height="109" meaning="pan-" viewBox="0 0 109 109" width="109">
<g id="kvg:StrokePaths_06c4e" style="fill:none;stroke:#000000;stroke-width:3;stroke-linecap:round;stroke-linejoin:round;">
<g id="kvg:06c4e" kvg:element="&#27726;">
	<g id="kvg:06c4e-g1" kvg:element="&#27701;" kvg:original="&#27700;" kvg:position="left" kvg:radical="general" kvg:variant="true">
		<path d="M20.13,18.25c4.45,1.47,11.5,6.05,12.62,8.34" id="kvg:06c4e-s1" kvg:type="&#12756;" />
		<path d="M16,41.75c4.06,1.37,10.48,5.62,11.5,7.75" id="kvg:06c4e-s2" kvg:type="&#12756;" />
		<path d="M16.75,88.68c2.25,0.82,4.21-0.1,5.27-1.76c3.09-4.84,5.67-9.25,8.48-15.42" id="kvg:06c4e-s3" kvg:type="&#12736;" />
	</g>
	<g id="kvg:06c4e-g2" kvg:element="&#20961;" kvg:position="right">
		<g id="kvg:06c4e-g3" kvg:element="&#20960;">
			<g id="kvg:06c4e-g4" kvg:element="&#20031;">
				<path d="M51.87,19.89c0.54,2.02,1.3,3.61,1.3,6.13c0,23.06,0.73,54.26-16.42,69.23" id="kvg:06c4e-s4" kvg:type="&#12754;" />
			</g>
			<path d="M52.96,22.32c2.86-0.72,17.56-3.61,19.85-4.33c2.29-0.72,4.77,0.72,4.2,4.35c-0.57,3.62-0.85,52.84-0.91,55.49c-0.19,8.69-1.18,14.55,10.23,14.73s10.45-2.9,10.45-10.39" id="kvg:06c4e-s5" kvg:type="&#12744;b" />
		</g>
		<g id="kvg:06c4e-g5" kvg:element="&#20022;">
			<path d="M59.45,45.26c5.06,4.09,7.95,8.44,9.52,12.28" id="kvg:06c4e-s6" kvg:type="&#12756;" />
		</g>
	</g>
</g>
</g>
<g id="kvg:StrokeNumbers_06c4e" style="font-size:8;fill:#808080">
	<text transform="matrix(1 0 0 1 13.50 18.50)">1</text>
	<text transform="matrix(1 0 0 1 8.50 42.50)">2</text>
	<text transform="matrix(1 0 0 1 8.50 90.50)">3</text>
	<text transform="matrix(1 0 0 1 45.25 28.40)">4</text>
	<text transform="matrix(1 0 0 1 55.50 18.50)">5</text>
	<text transform="matrix(1 0 0 1 57.50 42.50)">6</text>
</g>
</svg>