<svg xmlns="http://www.w3.org/2000/svg" xmlns:kvg="http://kanjivg.tagaini.net" height="109" meaning="soup, juice, broth, sap, gravy, pus" viewBox="0 0 109 109" width="109">
<g id="kvg:StrokePaths_06c41" style="fill:none;stroke:#000000;stroke-width:3;stroke-linecap:round;stroke-linejoin:round;">
<g id="kvg:06c41" kvg:element="&#27713;">
	<g id="kvg:06c41-g1" kvg:element="&#27701;" kvg:original="&#27700;" kvg:position="left" kvg:radical="general" kvg:variant="true">
		<path d="M21.75,17.5c4.68,1.78,12.08,7.32,13.25,10.09" id="kvg:06c41-s1" kvg:type="&#12756;" />
		<path d="M15.5,40.62c4.5,1.61,11.62,6.62,12.75,9.12" id="kvg:06c41-s2" kvg:type="&#12756;" />
		<path d="M15.6,87.53c1.52,0.69,3.12,0.5,4.03-0.79c3.22-4.57,6.44-10.16,9.36-15.99" id="kvg:06c41-s3" kvg:type="&#12736;" />
	</g>
	<g id="kvg:06c41-g2" kvg:element="&#21313;" kvg:phon="&#21313;" kvg:position="right">
		<path d="M40.67,48.16c2.32,0.83,5.59,0.5,7.98,0.27c12.58-1.23,30.86-3.05,40.97-3.66c2.42-0.15,4.83-0.28,7.22,0.23" id="kvg:06c41-s4" kvg:type="&#12752;" />
		<path d="M66.68,14.13c1.22,1.22,1.64,2.99,1.64,4.45c0,0.82,0.02,50.57,0.02,69.42c0,4.28,0,6.96-0.01,7.13" id="kvg:06c41-s5" kvg:type="&#12753;" />
	</g>
</g>
</g>
<g id="kvg:StrokeNumbers_06c41" style="font-size:8;fill:#808080">
	<text transform="matrix(1 0 0 1 15.50 17.50)">1</text>
	<text transform="matrix(1 0 0 1 8.50 41.50)">2</text>
	<text transform="matrix(1 0 0 1 8.25 92.50)">3</text>
	<text transform="matrix(1 0 0 1 39.50 45.50)">4</text>
	<text transform="matrix(1 0 0 1 57.50 15.13)">5</text>
</g>
</svg>