<svg xmlns="http://www.w3.org/2000/svg" xmlns:kvg="http://kanjivg.tagaini.net" height="109" meaning="fish swimming, fishing with a net" viewBox="0 0 109 109" width="109">
<g id="kvg:StrokePaths_06c55" style="fill:none;stroke:#000000;stroke-width:3;stroke-linecap:round;stroke-linejoin:round;">
<g id="kvg:06c55" kvg:element="&#27733;">
	<g id="kvg:06c55-g1" kvg:element="&#27701;" kvg:original="&#27700;" kvg:position="left" kvg:radical="general" kvg:variant="true">
		<path d="M19.13,17.5c4.63,1.69,11.96,6.96,13.12,9.59" id="kvg:06c55-s1" kvg:type="&#12756;" />
		<path d="M15,44.25c4.24,1.63,10.94,6.71,12,9.25" id="kvg:06c55-s2" kvg:type="&#12756;" />
		<path d="M14.75,90.23c1.71,1.27,3.78,1.32,4.86-0.25C22.75,85.42,30.39,72.83,33.25,67" id="kvg:06c55-s3" kvg:type="&#12736;" />
	</g>
	<g id="kvg:06c55-g2" kvg:element="&#23665;" kvg:position="right">
		<path d="M64.74,15.5c0.76,0.47,2.36,3.55,2.51,4.49S67.15,83.76,67,89.68" id="kvg:06c55-s4" kvg:type="&#12753;a" />
		<path d="M43.99,49.71c0.76,0.47,1.63,2.48,1.51,3.44C45,57.38,44.5,78,44,90.53c-0.09,2.17,0.65,3.5,2.5,2.97c6-1.74,36-4.64,45.5-4.9" id="kvg:06c55-s5" kvg:type="&#12740;a" />
		<path d="M91.24,48.13c0.76,0.48,1.51,3.53,1.51,4.49c0,7.38-0.25,25.12-0.25,39.84" id="kvg:06c55-s6" kvg:type="&#12753;" />
	</g>
</g>
</g>
<g id="kvg:StrokeNumbers_06c55" style="font-size:8;fill:#808080">
	<text transform="matrix(1 0 0 1 12.50 17.50)">1</text>
	<text transform="matrix(1 0 0 1 7.25 44.50)">2</text>
	<text transform="matrix(1 0 0 1 6.50 92.50)">3</text>
	<text transform="matrix(1 0 0 1 58.50 12.40)">4</text>
	<text transform="matrix(1 0 0 1 39.50 45.50)">5</text>
	<text transform="matrix(1 0 0 1 81.50 46.25)">6</text>
</g>
</svg>