<svg xmlns="http://www.w3.org/2000/svg" xmlns:kvg="http://kanjivg.tagaini.net" height="109" meaning="flowing full, expanse of water, wide, deep" viewBox="0 0 109 109" width="109">
<g id="kvg:StrokePaths_06c6a" style="fill:none;stroke:#000000;stroke-width:3;stroke-linecap:round;stroke-linejoin:round;">
<g id="kvg:06c6a" kvg:element="&#27754;">
	<g id="kvg:06c6a-g1" kvg:element="&#27701;" kvg:original="&#27700;" kvg:position="left" kvg:radical="general" kvg:variant="true">
		<path d="M18.63,17c4.28,1.6,11.05,6.6,12.12,9.09" id="kvg:06c6a-s1" kvg:type="&#12756;" />
		<path d="M13.5,42c4.24,1.59,10.94,6.53,12,9" id="kvg:06c6a-s2" kvg:type="&#12756;" />
		<path d="M12.75,89.23c1.71,1.27,3.78,1.32,4.86-0.25C20.75,84.42,28.39,68.83,31.25,63" id="kvg:06c6a-s3" kvg:type="&#12736;" />
	</g>
	<g id="kvg:06c6a-g2" kvg:element="&#29579;" kvg:original="&#29577;" kvg:partial="true" kvg:position="right">
		<path d="M39.86,25.24c1.64,0.26,5.27,0.21,6.53,0.05c13.7-1.75,26.23-2.82,40.25-3.57c1.91-0.1,3.65,0.15,5.23,0.76" id="kvg:06c6a-s4" kvg:type="&#12752;" />
		<path d="M62.61,25.86c1.74,2.33,1.74,3.73,1.74,5.6c0,13.06-0.02,35.21-0.02,56.14" id="kvg:06c6a-s5" kvg:type="&#12753;a" />
		<path d="M43.64,55.87c0.79,0.52,3.42,0.31,4.23,0.23c8.46-0.91,23.48-2.23,33.41-3.15c0.99-0.09,3.17-0.21,4.65,0.24" id="kvg:06c6a-s6" kvg:type="&#12752;" />
		<path d="M33.59,89.46c1.66,0.33,4.58,0.55,7.21,0.47c12.46-0.37,33.69-3.18,53.99-3.19c2.08,0,4.57,0.38,5.61,0.73" id="kvg:06c6a-s7" kvg:type="&#12752;" />
	</g>
</g>
</g>
<g id="kvg:StrokeNumbers_06c6a" style="font-size:8;fill:#808080">
	<text transform="matrix(1 0 0 1 11.50 16.50)">1</text>
	<text transform="matrix(1 0 0 1 5.50 41.50)">2</text>
	<text transform="matrix(1 0 0 1 5.50 93.50)">3</text>
	<text transform="matrix(1 0 0 1 37.50 21.50)">4</text>
	<text transform="matrix(1 0 0 1 55.50 33.50)">5</text>
	<text transform="matrix(1 0 0 1 41.50 52.50)">6</text>
	<text transform="matrix(1 0 0 1 31.50 85.18)">7</text>
</g>
</svg>