<svg xmlns="http://www.w3.org/2000/svg" xmlns:kvg="http://kanjivg.tagaini.net" height="109" meaning="draw (water), ladle, scoop, pump" viewBox="0 0 109 109" width="109">
<g id="kvg:StrokePaths_06c72" style="fill:none;stroke:#000000;stroke-width:3;stroke-linecap:round;stroke-linejoin:round;">
<g id="kvg:06c72" kvg:element="&#27762;">
	<g id="kvg:06c72-g1" kvg:element="&#27701;" kvg:original="&#27700;" kvg:position="left" kvg:radical="general" kvg:variant="true">
		<path d="M20.63,17.25c4.45,1.47,11.5,6.05,12.62,8.34" id="kvg:06c72-s1" kvg:type="&#12756;" />
		<path d="M14,42.5c4.77,1.41,12.31,5.8,13.5,8" id="kvg:06c72-s2" kvg:type="&#12756;" />
		<path d="M16.75,87.21c1.5,1.31,3.31,1.36,4.25-0.25c2.75-4.7,5.5-10.45,8-16.45" id="kvg:06c72-s3" kvg:type="&#12736;" />
	</g>
	<g id="kvg:06c72-g2" kvg:element="&#21450;" kvg:position="right" kvg:variant="true">
		<g id="kvg:06c72-g3" kvg:element="&#20031;">
			<path d="M54.27,25.93c1.23,1.18,1.33,3.67,1.06,5.7c-1.97,15.03-8.04,39.05-20.95,54.53" id="kvg:06c72-s4" kvg:type="&#12754;" />
		</g>
		<path d="M44.75,23c2.5,1,3.67,1.14,6.25,0.75c5-0.75,20.75-4.75,24.75-6S81.69,17.72,81,21c-1,4.75-5,15.5-6.75,21.5" id="kvg:06c72-s5" kvg:type="&#12743;" />
		<g id="kvg:06c72-g4" kvg:element="&#21448;" kvg:variant="true">
			<path d="M56.25,45.25C64.75,44.25,80,42,84,41.5c2.73-0.34,3.67,1.23,3,3.5c-5.75,19.5-23.25,40.5-42.25,47.5" id="kvg:06c72-s6" kvg:type="&#12743;" />
			<path d="M53.75,51.25C61,57.81,83.29,84.32,90.59,89.01c2.34,1.5,3.84,2.7,5.91,3.24" id="kvg:06c72-s7" kvg:type="&#12751;" />
		</g>
	</g>
</g>
</g>
<g id="kvg:StrokeNumbers_06c72" style="font-size:8;fill:#808080">
	<text transform="matrix(1 0 0 1 13.50 17.50)">1</text>
	<text transform="matrix(1 0 0 1 6.50 43.50)">2</text>
	<text transform="matrix(1 0 0 1 9.25 91.50)">3</text>
	<text transform="matrix(1 0 0 1 47.50 33.50)">4</text>
	<text transform="matrix(1 0 0 1 43.50 20.50)">5</text>
	<text transform="matrix(1 0 0 1 59.50 42.50)">6</text>
	<text transform="matrix(1 0 0 1 59.50 54.50)">7</text>
</g>
</svg>