<svg xmlns="http://www.w3.org/2000/svg" xmlns:kvg="http://kanjivg.tagaini.net" height="109" meaning="penetrate, soak in" viewBox="0 0 109 109" width="109">
<g id="kvg:StrokePaths_06c81" style="fill:none;stroke:#000000;stroke-width:3;stroke-linecap:round;stroke-linejoin:round;">
<g id="kvg:06c81" kvg:element="&#27777;">
	<g id="kvg:06c81-g1" kvg:element="&#27701;" kvg:original="&#27700;" kvg:position="left" kvg:radical="general" kvg:variant="true">
		<path d="M17.88,18.25c4.01,1.65,10.36,6.78,11.37,9.34" id="kvg:06c81-s1" kvg:type="&#12756;" />
		<path d="M12.5,42.75c4.24,1.63,10.94,6.71,12,9.25" id="kvg:06c81-s2" kvg:type="&#12756;" />
		<path d="M11.75,86.23c1.71,1.27,3.78,1.32,4.86-0.25c3.14-4.57,9.29-16.66,12.14-22.49" id="kvg:06c81-s3" kvg:type="&#12736;" />
	</g>
	<g id="kvg:06c81-g2" kvg:element="&#24515;" kvg:position="right">
		<path d="M39.06,53.95c0.2,3.52-1.98,16.08-3.56,21.95" id="kvg:06c81-s4" kvg:type="&#12756;" />
		<path d="M44.27,32.8c1.73,0.7,2.91,4.02,3.36,5.96C54,66.5,61.2,81.46,84.75,87c12.75,3,14.25,0.75,9-8.75" id="kvg:06c81-s5" kvg:type="&#12767;b" />
		<path d="M59.84,30.75c3.41,11.5,8.73,14.14,9.72,7.1" id="kvg:06c81-s6" kvg:type="&#12756;a" />
		<path d="M84.65,35.95c4.82,3.13,8.43,5.97,12.35,15.64" id="kvg:06c81-s7" kvg:type="&#12756;" />
	</g>
</g>
</g>
<g id="kvg:StrokeNumbers_06c81" style="font-size:8;fill:#808080">
	<text transform="matrix(1 0 0 1 11.50 18.50)">1</text>
	<text transform="matrix(1 0 0 1 4.50 42.50)">2</text>
	<text transform="matrix(1 0 0 1 4.50 89.50)">3</text>
	<text transform="matrix(1 0 0 1 31.50 51.50)">4</text>
	<text transform="matrix(1 0 0 1 37.50 33.50)">5</text>
	<text transform="matrix(1 0 0 1 52.50 30.50)">6</text>
	<text transform="matrix(1 0 0 1 78.50 35.50)">7</text>
</g>
</svg>