<svg xmlns="http://www.w3.org/2000/svg" xmlns:kvg="http://kanjivg.tagaini.net" height="109" kun="&#12375;&#12378;.&#12416;, &#12375;&#12378;.&#12417;&#12427;" meaning="sink, be submerged, subside, be depressed, aloes" on="&#12481;&#12531;, &#12472;&#12531;" viewBox="0 0 109 109" width="109">
<g id="kvg:StrokePaths_06c88" style="fill:none;stroke:#000000;stroke-width:3;stroke-linecap:round;stroke-linejoin:round;">
<g id="kvg:06c88" kvg:element="&#27784;">
	<g id="kvg:06c88-g1" kvg:element="&#27701;" kvg:original="&#27700;" kvg:position="left" kvg:radical="general" kvg:variant="true">
		<path d="M23.13,20.25c3.31,1.3,8.54,5.33,9.37,7.34" id="kvg:06c88-s1" kvg:type="&#12756;" />
		<path d="M14.75,40.75c3.26,1.41,8.43,5.8,9.25,8" id="kvg:06c88-s2" kvg:type="&#12756;" />
		<path d="M13.25,89.21c1.62,0.54,2.57-0.13,3.5-1.75c3.12-5.45,5.12-9.08,9.75-17.95" id="kvg:06c88-s3" kvg:type="&#12736;" />
	</g>
	<g id="kvg:06c88-g2" kvg:element="&#20888;" kvg:phon="&#20888;" kvg:position="right">
		<g id="kvg:06c88-g3" kvg:element="&#20886;">
			<path d="M41.79,33.51c0,4.13-1.75,15.49-2.54,18.24" id="kvg:06c88-s4" kvg:type="&#12756;" />
			<path d="M42.74,36.49c12.51-2.74,29.01-5.61,40.95-6.65c12.02-1.05,3.8,7.41-0.45,10.78" id="kvg:06c88-s5" kvg:type="&#12758;b" />
		</g>
		<g id="kvg:06c88-g4" kvg:element="&#20799;" kvg:original="&#20843;">
			<g id="kvg:06c88-g5" kvg:element="&#20031;" kvg:position="left">
				<path d="M61.72,11c1.14,1.14,1.51,2.37,1.57,4.26C64,38.62,62.25,76.5,30.67,92.42" id="kvg:06c88-s6" kvg:type="&#12754;" />
			</g>
			<g id="kvg:06c88-g6" kvg:position="right">
				<path d="M65.24,52.62c0.74,1.19,1.12,2.59,1.12,4.43c0,7.83-0.03,17.64-0.03,23.2c0,9.88,2.17,11.78,15.67,11.78c11.87,0,12.89-2.28,12.89-10.12" id="kvg:06c88-s7" kvg:type="&#12767;" />
			</g>
		</g>
	</g>
</g>
</g>
<g id="kvg:StrokeNumbers_06c88" style="font-size:8;fill:#808080">
	<text transform="matrix(1 0 0 1 17.25 21.13)">1</text>
	<text transform="matrix(1 0 0 1 8.50 41.50)">2</text>
	<text transform="matrix(1 0 0 1 3.75 91.63)">3</text>
	<text transform="matrix(1 0 0 1 35.50 36.50)">4</text>
	<text transform="matrix(1 0 0 1 44.50 32.50)">5</text>
	<text transform="matrix(1 0 0 1 51.50 11.50)">6</text>
	<text transform="matrix(1 0 0 1 72.75 60.13)">7</text>
</g>
</svg>