<svg xmlns="http://www.w3.org/2000/svg" xmlns:kvg="http://kanjivg.tagaini.net" height="109" meaning="shore, shoal" viewBox="0 0 109 109" width="109">
<g id="kvg:StrokePaths_06c9a" style="fill:none;stroke:#000000;stroke-width:3;stroke-linecap:round;stroke-linejoin:round;">
<g id="kvg:06c9a" kvg:element="&#27802;">
	<g id="kvg:06c9a-g1" kvg:element="&#27701;" kvg:original="&#27700;" kvg:position="left" kvg:radical="general" kvg:variant="true">
		<path d="M22.88,18.75c4.37,1.74,11.27,7.14,12.37,9.84" id="kvg:06c9a-s1" kvg:type="&#12756;" />
		<path d="M16,42.25c4.06,1.81,10.48,7.44,11.5,10.25" id="kvg:06c9a-s2" kvg:type="&#12756;" />
		<path d="M14.25,88.23c1.71,1.27,3.78,1.32,4.86-0.25C22.25,83.42,25,78.5,30.75,69" id="kvg:06c9a-s3" kvg:type="&#12736;" />
	</g>
	<g id="kvg:06c9a-g2" kvg:element="&#27490;" kvg:position="right">
		<g id="kvg:06c9a-g3" kvg:element="&#21340;" kvg:original="&#12488;">
			<path d="M62.33,15.25c1.25,0.58,2.01,2.59,2.26,3.74c0.25,1.15,0.5,64.23,0.25,71.43" id="kvg:06c9a-s4" kvg:type="&#12753;a" />
			<path d="M65.23,50.26c6.88-0.94,14.28-1.64,20.14-1.87c2.26-0.09,2.82-0.23,4.23,0" id="kvg:06c9a-s5" kvg:type="&#12752;b" />
		</g>
		<path d="M43.01,44.33c1.25,0.58,2.01,2.59,2.26,3.74c0.25,1.15,0,35.74-0.25,42.94" id="kvg:06c9a-s6" kvg:type="&#12753;a" />
		<path d="M30.22,91.96c0.66,0.15,2.44,0.44,4.21,0.46c11.32,0.08,45.08-3.02,57.21-3.02c1.77,0,4.42,0.22,6.15,0.87" id="kvg:06c9a-s7" kvg:type="&#12752;" />
	</g>
</g>
</g>
<g id="kvg:StrokeNumbers_06c9a" style="font-size:8;fill:#808080">
	<text transform="matrix(1 0 0 1 15.50 18.50)">1</text>
	<text transform="matrix(1 0 0 1 7.50 42.50)">2</text>
	<text transform="matrix(1 0 0 1 7.25 90.50)">3</text>
	<text transform="matrix(1 0 0 1 52.50 15.50)">4</text>
	<text transform="matrix(1 0 0 1 69.50 46.50)">5</text>
	<text transform="matrix(1 0 0 1 37.50 41.50)">6</text>
	<text transform="matrix(1 0 0 1 29 89)">7</text>
</g>
</svg>