<svg xmlns="http://www.w3.org/2000/svg" xmlns:kvg="http://kanjivg.tagaini.net" height="109" kun="&#12418;&#12367;.&#12377;&#12427;, &#12354;&#12425;.&#12358;" meaning="wash" on="&#12514;&#12463;" viewBox="0 0 109 109" width="109">
<g id="kvg:StrokePaths_06c90" style="fill:none;stroke:#000000;stroke-width:3;stroke-linecap:round;stroke-linejoin:round;">
<g id="kvg:06c90" kvg:element="&#27792;">
	<g id="kvg:06c90-g1" kvg:element="&#27701;" kvg:original="&#27700;" kvg:position="left" kvg:radical="general" kvg:variant="true">
		<path d="M16.63,16.5c4.45,1.78,11.5,7.32,12.62,10.09" id="kvg:06c90-s1" kvg:type="&#12756;" />
		<path d="M13,40.75c4.24,1.63,10.94,6.71,12,9.25" id="kvg:06c90-s2" kvg:type="&#12756;" />
		<path d="M11.25,88.73c1.71,1.27,3.78,1.32,4.86-0.25c3.14-4.57,9.79-17.16,12.64-22.99" id="kvg:06c90-s3" kvg:type="&#12736;" />
	</g>
	<g id="kvg:06c90-g2" kvg:element="&#26408;" kvg:position="right">
		<path d="M34.75,37.61c1.75,0.57,3.74,0.75,5.75,0.57c10.25-0.93,31.5-2.68,47-3.78c2-0.14,3.25,0.1,5.25,0.5" id="kvg:06c90-s4" kvg:type="&#12752;" />
		<path d="M59.75,13.75C61,14.25,62,15.97,62,17c0,10.5,0,74.75-0.25,81" id="kvg:06c90-s5" kvg:type="&#12753;" />
		<path d="M61.75,37.75c-5.38,14.46-19.81,36.56-31,44.75" id="kvg:06c90-s6" kvg:type="&#12754;" />
		<path d="M62,37.5c4.15,9.25,22.05,34.25,29.87,41.14c1.92,1.69,3.01,2.8,4.63,3.36" id="kvg:06c90-s7" kvg:type="&#12751;" />
	</g>
</g>
</g>
<g id="kvg:StrokeNumbers_06c90" style="font-size:8;fill:#808080">
	<text transform="matrix(1 0 0 1 9.50 17.50)">1</text>
	<text transform="matrix(1 0 0 1 4.50 41.50)">2</text>
	<text transform="matrix(1 0 0 1 3.50 92.50)">3</text>
	<text transform="matrix(1 0 0 1 32.50 34.50)">4</text>
	<text transform="matrix(1 0 0 1 50.50 14.50)">5</text>
	<text transform="matrix(1 0 0 1 49.25 48.25)">6</text>
	<text transform="matrix(1 0 0 1 70.50 47.50)">7</text>
</g>
</svg>