<svg xmlns="http://www.w3.org/2000/svg" xmlns:kvg="http://kanjivg.tagaini.net" height="109" meaning="river" viewBox="0 0 109 109" width="109">
<g id="kvg:StrokePaths_06cb3" style="fill:none;stroke:#000000;stroke-width:3;stroke-linecap:round;stroke-linejoin:round;">
<g id="kvg:06cb3" kvg:element="&#27827;">
	<g id="kvg:06cb3-g1" kvg:element="&#27701;" kvg:original="&#27700;" kvg:position="left" kvg:radical="general" kvg:variant="true">
		<path d="M21.88,17.38c4.04,1.59,9.86,5.99,10.88,8.47" id="kvg:06cb3-s1" kvg:type="&#12756;" />
		<path d="M16.62,40c4.1,1.19,10.6,4.9,11.62,6.75" id="kvg:06cb3-s2" kvg:type="&#12756;" />
		<path d="M15.44,85.78c1.31,0.55,2.65,0.3,3.43-0.96c2.97-4.74,5.93-10.53,8.63-16.57" id="kvg:06cb3-s3" kvg:type="&#12736;" />
	</g>
	<g id="kvg:06cb3-g2" kvg:element="&#21487;" kvg:phon="&#21487;" kvg:position="right">
		<g id="kvg:06cb3-g3" kvg:element="&#19969;" kvg:part="1">
			<g id="kvg:06cb3-g4" kvg:element="&#19968;">
				<path d="M41.22,23.13c2.78,0.62,6.17,0.35,8.78,0.04c9.61-1.15,28.85-3.66,39-4.6c2.6-0.24,4.98-0.43,7.53,0.22" id="kvg:06cb3-s4" kvg:type="&#12752;" />
			</g>
		</g>
		<g id="kvg:06cb3-g5" kvg:element="&#21475;">
			<path d="M43.08,43.57c0.8,0.8,1.4,1.87,1.48,2.92c0.8,3.45,1.65,9.58,2.32,14.89c0.23,1.78,0.43,3.46,0.61,4.92" id="kvg:06cb3-s5" kvg:type="&#12753;" />
			<path d="M45.4,45.55c6.98-1.34,14.04-2.86,18.23-3.5c2.6-0.4,4.12,1.07,3.78,3.33c-0.6,4.04-1.04,6.74-2.22,13.1" id="kvg:06cb3-s6" kvg:type="&#12757;b" />
			<path d="M48.39,61.83c3.73-0.44,9.92-1.47,15.49-2.29c1.29-0.19,2.55-0.37,3.74-0.53" id="kvg:06cb3-s7" kvg:type="&#12752;b" />
		</g>
		<g id="kvg:06cb3-g6" kvg:element="&#19969;" kvg:part="2">
			<g id="kvg:06cb3-g7" kvg:element="&#20101;">
				<path d="M82.66,22.34c1.19,1.19,1.89,2.79,1.89,4.68c0,13.68,0.05,55.82,0.05,60.48c0,9-8.21,0.91-9.39-0.27" id="kvg:06cb3-s8" kvg:type="&#12762;" />
			</g>
		</g>
	</g>
</g>
</g>
<g id="kvg:StrokeNumbers_06cb3" style="font-size:8;fill:#808080">
	<text transform="matrix(1 0 0 1 12.75 15.13)">1</text>
	<text transform="matrix(1 0 0 1 9.75 36.13)">2</text>
	<text transform="matrix(1 0 0 1 8.25 91.63)">3</text>
	<text transform="matrix(1 0 0 1 42.75 18.13)">4</text>
	<text transform="matrix(1 0 0 1 36.75 55.63)">5</text>
	<text transform="matrix(1 0 0 1 47.25 40.63)">6</text>
	<text transform="matrix(1 0 0 1 51.49 58.18)">7</text>
	<text transform="matrix(1 0 0 1 74.25 31.63)">8</text>
</g>
</svg>