<svg xmlns="http://www.w3.org/2000/svg" xmlns:kvg="http://kanjivg.tagaini.net" height="109" kun="&#12431;.&#12367;, &#12431;.&#12363;&#12377;" meaning="seethe, boil, ferment, uproar, breed" on="&#12501;&#12484;" viewBox="0 0 109 109" width="109">
<g id="kvg:StrokePaths_06cb8" style="fill:none;stroke:#000000;stroke-width:3;stroke-linecap:round;stroke-linejoin:round;">
<g id="kvg:06cb8" kvg:element="&#27832;">
	<g id="kvg:06cb8-g1" kvg:element="&#27701;" kvg:original="&#27700;" kvg:position="left" kvg:radical="general" kvg:variant="true">
		<path d="M23,18.88c4.41,1.45,11.4,5.96,12.5,8.22" id="kvg:06cb8-s1" kvg:type="&#12756;" />
		<path d="M18.25,40.75C22.4,42.21,28.96,46.74,30,49" id="kvg:06cb8-s2" kvg:type="&#12756;" />
		<path d="M18.25,88.73c1.62,0.27,2.94-0.08,3.86-1.75c3.14-5.74,5.54-10.66,8.39-16.49" id="kvg:06cb8-s3" kvg:type="&#12736;" />
	</g>
	<g id="kvg:06cb8-g2" kvg:element="&#24343;" kvg:phon="&#24343;" kvg:position="right">
		<g id="kvg:06cb8-g3" kvg:element="&#24339;">
			<path d="M43.32,32c2.18,0.88,4.19,1.3,5.8,1.05c9.38-1.42,30.13-4.42,36.96-5.02c3.27-0.29,4.28,1.33,3.64,3.34c-0.75,2.34-2.69,9.08-3.01,10.39" id="kvg:06cb8-s4" kvg:type="&#12757;c" />
			<path d="M44.5,46.75c2.25,0.75,5.54,0.42,7.48,0.2c9.74-1.12,25.36-3,30.79-3.73c2.05-0.27,4.17-0.47,6.24-0.47" id="kvg:06cb8-s5" kvg:type="&#12752;" />
			<path d="M46.26,47.45c0.61,1.55,0.31,2.99-0.31,4.36c-0.72,1.57-4.13,10.15-4.48,11.01c-0.72,1.8-0.02,3.12,2.57,2.61c5.54-1.1,36.19-5.94,46.34-7.08c2.84-0.32,5.36,0.65,4.83,3.69c-0.99,5.63-1.97,9.58-4.64,15.96c-2.45,5.82-4.5,2.91-6.34-0.94" id="kvg:06cb8-s6" kvg:type="&#12745;" />
		</g>
		<g id="kvg:06cb8-g4" kvg:element="&#20031;">
			<path d="M57.79,20.12c1.11,1.11,1.4,2.5,1.4,4.61c0,28.77,2.56,54.52-17.24,72.22" id="kvg:06cb8-s7" kvg:type="&#12754;" />
		</g>
		<g id="kvg:06cb8-g5" kvg:element="&#20008;">
			<path d="M72.67,13c1.04,1.04,1.41,2.38,1.41,4.17c0,3.14,0.04,50.25,0.05,71.46c0,5.99,0,9.9-0.01,10.12" id="kvg:06cb8-s8" kvg:type="&#12753;" />
		</g>
	</g>
</g>
</g>
<g id="kvg:StrokeNumbers_06cb8" style="font-size:8;fill:#808080">
	<text transform="matrix(1 0 0 1 15.75 19.63)">1</text>
	<text transform="matrix(1 0 0 1 11.25 41.50)">2</text>
	<text transform="matrix(1 0 0 1 9.50 89.50)">3</text>
	<text transform="matrix(1 0 0 1 44.25 29.50)">4</text>
	<text transform="matrix(1 0 0 1 49.50 44.50)">5</text>
	<text transform="matrix(1 0 0 1 38.50 49.50)">6</text>
	<text transform="matrix(1 0 0 1 50.50 19.50)">7</text>
	<text transform="matrix(1 0 0 1 63.50 13.63)">8</text>
</g>
</svg>