<svg xmlns="http://www.w3.org/2000/svg" xmlns:kvg="http://kanjivg.tagaini.net" height="109" meaning="swim" viewBox="0 0 109 109" width="109">
<g id="kvg:StrokePaths_06cc5" style="fill:none;stroke:#000000;stroke-width:3;stroke-linecap:round;stroke-linejoin:round;">
<g id="kvg:06cc5" kvg:element="&#27845;">
	<g id="kvg:06cc5-g1" kvg:element="&#27701;" kvg:original="&#27700;" kvg:position="left" kvg:radical="general" kvg:variant="true">
		<path d="M17.88,17c4.37,1.87,11.27,7.68,12.37,10.59" id="kvg:06cc5-s1" kvg:type="&#12756;" />
		<path d="M13.75,41.75C18.43,43.82,25.83,50.28,27,53.5" id="kvg:06cc5-s2" kvg:type="&#12756;" />
		<path d="M12.75,88.75c1.9,1.25,4.18,1.3,5.38-0.24C21.61,84,30.09,70,33.25,64.25" id="kvg:06cc5-s3" kvg:type="&#12736;" />
	</g>
	<g id="kvg:06cc5-g2" kvg:element="&#22234;" kvg:position="right">
		<g id="kvg:06cc5-g3" kvg:element="&#22231;" kvg:part="1">
			<path d="M42.5,17.81c0.49,1.43,1.2,2.5,1.21,4.39c0.09,14.23,0.09,46.38-0.2,73.54" id="kvg:06cc5-s4" kvg:type="&#12753;" />
			<path d="M43.76,19.64C56.75,18.75,77.5,17,86.47,17c1.55,0,3.28,1.5,3.28,3.48c0,15.7-0.65,51.59-0.33,73.77" id="kvg:06cc5-s5" kvg:type="&#12757;a" />
		</g>
		<g id="kvg:06cc5-g4" kvg:element="&#20154;">
			<path d="M67,25.97c0.12,1.15,0.44,3.64,0.24,5.41c-1.16,10.43-6,36.57-16.85,47.35" id="kvg:06cc5-s6" kvg:type="&#12754;" />
			<path d="M65.65,47.9c2.12,5.28,11.26,22.54,13.6,26.41c0.79,1.31,1.81,1.88,2.61,2.25" id="kvg:06cc5-s7" kvg:type="&#12751;" />
		</g>
		<g id="kvg:06cc5-g5" kvg:element="&#22231;" kvg:part="2">
			<path d="M43.63,92.28c8.51,0,33.55-1.09,45.3-1.51" id="kvg:06cc5-s8" kvg:type="&#12752;a" />
		</g>
	</g>
</g>
</g>
<g id="kvg:StrokeNumbers_06cc5" style="font-size:8;fill:#808080">
	<text transform="matrix(1 0 0 1 10.50 17.50)">1</text>
	<text transform="matrix(1 0 0 1 6.25 42.50)">2</text>
	<text transform="matrix(1 0 0 1 6.25 92.50)">3</text>
	<text transform="matrix(1 0 0 1 36.50 25.50)">4</text>
	<text transform="matrix(1 0 0 1 46.50 15.50)">5</text>
	<text transform="matrix(1 0 0 1 57.50 30.50)">6</text>
	<text transform="matrix(1 0 0 1 70.50 52.50)">7</text>
	<text transform="matrix(1 0 0 1 48.50 89.50)">8</text>
</g>
</svg>