<svg xmlns="http://www.w3.org/2000/svg" xmlns:kvg="http://kanjivg.tagaini.net" height="109" kun="&#12414;&#12375;.&#12390;, &#12356;&#12431;.&#12435;&#12420;, &#12362;&#12418;&#12416;&#12365;" meaning="condition, situation" on="&#12461;&#12519;&#12454;" viewBox="0 0 109 109" width="109">
<g id="kvg:StrokePaths_06cc1" style="fill:none;stroke:#000000;stroke-width:3;stroke-linecap:round;stroke-linejoin:round;">
<g id="kvg:06cc1" kvg:element="&#27841;">
	<g id="kvg:06cc1-g1" kvg:element="&#27701;" kvg:original="&#27700;" kvg:position="left" kvg:radical="general" kvg:variant="true">
		<path d="M19.51,18.88c4.67,1.54,12.07,6.32,13.24,8.72" id="kvg:06cc1-s1" kvg:type="&#12756;" />
		<path d="M14.5,45.62c4.68,1.43,12.08,5.9,13.25,8.12" id="kvg:06cc1-s2" kvg:type="&#12756;" />
		<path d="M17.31,88.14c1.35,0.54,2.73,0.33,3.54-0.82C23.82,83.09,29.3,72.91,32,67.5" id="kvg:06cc1-s3" kvg:type="&#12736;" />
	</g>
	<g id="kvg:06cc1-g2" kvg:element="&#20804;" kvg:phon="&#20804;" kvg:position="right">
		<g id="kvg:06cc1-g3" kvg:element="&#21475;" kvg:position="top">
			<path d="M44.16,21.07c0.82,0.82,1.27,1.83,1.45,2.93c0.66,4.11,1.89,11.96,3.02,18.98c0.25,1.54,0.47,3.05,0.66,4.49" id="kvg:06cc1-s4" kvg:type="&#12753;" />
			<path d="M46.5,22.28c10-1.41,27.35-3.46,33.58-4.53c2.13-0.37,4.09,1.88,3.68,4.16c-1.03,5.76-2.46,13.09-3.86,20.54" id="kvg:06cc1-s5" kvg:type="&#12757;b" />
			<path d="M50.52,45.86c5.44-0.4,17.55-1.48,26.73-2.36c1.73-0.17,3.34-0.32,4.76-0.44" id="kvg:06cc1-s6" kvg:type="&#12752;b" />
		</g>
		<g id="kvg:06cc1-g4" kvg:element="&#20799;" kvg:original="&#20843;" kvg:position="bottom">
			<g id="kvg:06cc1-g5" kvg:element="&#20031;">
				<path d="M56.71,51.53c0.07,0.95,0.17,2.46-0.14,3.83C54.38,65,48.38,81.12,32.11,92" id="kvg:06cc1-s7" kvg:type="&#12754;" />
			</g>
			<path d="M68.19,47.47c0.92,0.92,1.21,2.09,1.24,4.42c0.09,6.41-0.29,20.12-0.29,28.07c0,9.41,1.61,11.26,14.62,11.26c10.87,0,12.49-1.35,12.49-11.55" id="kvg:06cc1-s8" kvg:type="&#12767;" />
		</g>
	</g>
</g>
</g>
<g id="kvg:StrokeNumbers_06cc1" style="font-size:8;fill:#808080">
	<text transform="matrix(1 0 0 1 12.75 18.50)">1</text>
	<text transform="matrix(1 0 0 1 8.25 46.50)">2</text>
	<text transform="matrix(1 0 0 1 8.50 92.50)">3</text>
	<text transform="matrix(1 0 0 1 38.25 30.13)">4</text>
	<text transform="matrix(1 0 0 1 47.25 18.13)">5</text>
	<text transform="matrix(1 0 0 1 54.75 42.13)">6</text>
	<text transform="matrix(1 0 0 1 48.75 57.50)">7</text>
	<text transform="matrix(1 0 0 1 62.50 59.50)">8</text>
</g>
</svg>