<svg xmlns="http://www.w3.org/2000/svg" xmlns:kvg="http://kanjivg.tagaini.net" height="109" kun="&#12365;&#12424;.&#12356;" meaning="pure" on="&#12524;&#12484;, &#12524;&#12452;" viewBox="0 0 109 109" width="109">
<g id="kvg:StrokePaths_06d0c" style="fill:none;stroke:#000000;stroke-width:3;stroke-linecap:round;stroke-linejoin:round;">
<g id="kvg:06d0c" kvg:element="&#27916;">
	<g id="kvg:06d0c-g1" kvg:element="&#27701;" kvg:original="&#27700;" kvg:position="left" kvg:radical="general" kvg:variant="true">
		<path d="M14.63,16.75c4.28,1.74,11.05,7.14,12.12,9.84" id="kvg:06d0c-s1" kvg:type="&#12756;" />
		<path d="M12,43c4.41,1.5,11.4,6.17,12.5,8.5" id="kvg:06d0c-s2" kvg:type="&#12756;" />
		<path d="M12.25,88.73c1.71,1.27,3.78,1.32,4.86-0.25c3.14-4.57,7.29-11.66,10.14-17.49" id="kvg:06d0c-s3" kvg:type="&#12736;" />
	</g>
	<g id="kvg:06d0c-g2" kvg:element="&#21015;" kvg:position="right">
		<g id="kvg:06d0c-g3" kvg:element="&#27513;">
			<g id="kvg:06d0c-g4" kvg:element="&#19968;">
				<path d="M34.28,20.23c0.94,0.52,2.67,0.63,3.62,0.52C44,20,59.36,18.5,65.77,18.26c1.57-0.06,2.52,0.25,3.31,0.51" id="kvg:06d0c-s4" kvg:type="&#12752;" />
			</g>
			<g id="kvg:06d0c-g5" kvg:element="&#22805;">
				<path d="M49.13,22.9c0.17,0.6,0.51,2.39,0.33,3.59c-1.08,7.06-7.65,22.32-16.09,31.81" id="kvg:06d0c-s5" kvg:type="&#12754;" />
				<path d="M49.34,36.81c0.25,0.05,2.69,0,3.4-0.14c2.36-0.45,5.07-1.28,9.1-2.06c2.38-0.46,3.65,1.2,3.19,3.83C62.37,53.75,44.51,85.25,30.27,94" id="kvg:06d0c-s6" kvg:type="&#12743;" />
				<path d="M41.16,53.09c3.32,2.33,8.58,9.58,9.41,13.2" id="kvg:06d0c-s7" kvg:type="&#12756;" />
			</g>
		</g>
		<g id="kvg:06d0c-g6" kvg:element="&#20994;" kvg:original="&#20992;" kvg:position="right" kvg:variant="true">
			<path d="M74.71,28.37c0.88,0.54,2.1,2.11,2.1,4.69c0,13.47-0.31,33.74-0.31,37.95" id="kvg:06d0c-s8" kvg:type="&#12753;" />
			<path d="M91.16,16.33c0.67,0.97,1.53,2.64,1.61,5.85c0.37,15.42-0.2,63.75-0.23,69c-0.07,10.37-6.6,1.59-7.98,0.26" id="kvg:06d0c-s9" kvg:type="&#12762;" />
		</g>
	</g>
</g>
</g>
<g id="kvg:StrokeNumbers_06d0c" style="font-size:8;fill:#808080">
	<text transform="matrix(1 0 0 1 8.50 17.50)">1</text>
	<text transform="matrix(1 0 0 1 3.50 43.50)">2</text>
	<text transform="matrix(1 0 0 1 4.50 91.50)">3</text>
	<text transform="matrix(1 0 0 1 32.50 17.50)">4</text>
	<text transform="matrix(1 0 0 1 41.50 30.50)">5</text>
	<text transform="matrix(1 0 0 1 52.50 33.50)">6</text>
	<text transform="matrix(1 0 0 1 37.50 63.50)">7</text>
	<text transform="matrix(1 0 0 1 66.50 29.50)">8</text>
	<text transform="matrix(1 0 0 1 80.50 16.50)">9</text>
</g>
</svg>