<svg xmlns="http://www.w3.org/2000/svg" xmlns:kvg="http://kanjivg.tagaini.net" height="109" meaning="name of a Chinese river" viewBox="0 0 109 109" width="109">
<g id="kvg:StrokePaths_06d19" style="fill:none;stroke:#000000;stroke-width:3;stroke-linecap:round;stroke-linejoin:round;">
<g id="kvg:06d19" kvg:element="&#27929;">
	<g id="kvg:06d19-g1" kvg:element="&#27701;" kvg:original="&#27700;" kvg:position="left" kvg:radical="general" kvg:variant="true">
		<path d="M17.13,17c4.63,1.6,11.96,6.6,13.12,9.09" id="kvg:06d19-s1" kvg:type="&#12756;" />
		<path d="M12.75,43.25C17.07,44.79,23.92,49.6,25,52" id="kvg:06d19-s2" kvg:type="&#12756;" />
		<path d="M13.5,86.5c1.93,1.25,4.25,1.3,5.46-0.24c3.54-4.5,8.57-13.01,11.79-18.76" id="kvg:06d19-s3" kvg:type="&#12736;" />
	</g>
	<g id="kvg:06d19-g2" kvg:element="&#26417;" kvg:position="right">
		<path d="M49.99,18.86c0.03,0.61,0.12,1.76-0.06,2.45c-2.3,8.6-5.7,16.49-11.7,23.43" id="kvg:06d19-s4" kvg:type="&#12754;" />
		<g id="kvg:06d19-g3" kvg:element="&#26410;">
			<path d="M48.99,33c0.81,0.27,2.88,0.3,3.69,0.27c8.4-0.31,19.73-3.2,29.94-4.1c1.34-0.12,2.15,0.13,2.82,0.27" id="kvg:06d19-s5" kvg:type="&#12752;" />
			<g id="kvg:06d19-g4" kvg:element="&#26408;">
				<path d="M36.89,54.5c0.86,0.24,3.17,0.42,5.47,0.23c9.13-0.73,30.21-3.12,46.03-4.34c2.29-0.18,4.33,0.24,5.77,0.49" id="kvg:06d19-s6" kvg:type="&#12752;" />
				<path d="M62.48,9.75c1.14,0.49,1.82,2.2,2.05,3.17s0,80.97-0.23,87.08" id="kvg:06d19-s7" kvg:type="&#12753;" />
				<path d="M64.25,53.04C58.9,64.06,45.07,80.77,33.95,87" id="kvg:06d19-s8" kvg:type="&#12754;" />
				<path d="M64.85,54.31c4.16,6.21,21.72,23.94,27.91,29.13c1.55,1.3,2.79,1.96,4.29,2.35" id="kvg:06d19-s9" kvg:type="&#12751;" />
			</g>
		</g>
	</g>
</g>
</g>
<g id="kvg:StrokeNumbers_06d19" style="font-size:8;fill:#808080">
	<text transform="matrix(1 0 0 1 11.50 18.50)">1</text>
	<text transform="matrix(1 0 0 1 6.25 43.50)">2</text>
	<text transform="matrix(1 0 0 1 6.50 89.50)">3</text>
	<text transform="matrix(1 0 0 1 40.50 17.50)">4</text>
	<text transform="matrix(1 0 0 1 52.50 30.50)">5</text>
	<text transform="matrix(1 0 0 1 40.50 51.50)">6</text>
	<text transform="matrix(1 0 0 1 54.50 9.18)">7</text>
	<text transform="matrix(1 0 0 1 50.50 64.50)">8</text>
	<text transform="matrix(1 0 0 1 75.50 62.03)">9</text>
</g>
</svg>