<svg xmlns="http://www.w3.org/2000/svg" xmlns:kvg="http://kanjivg.tagaini.net" height="109" kun="&#12411;&#12425;" meaning="den, cave, excavation" on="&#12489;&#12454;" viewBox="0 0 109 109" width="109">
<g id="kvg:StrokePaths_06d1e" style="fill:none;stroke:#000000;stroke-width:3;stroke-linecap:round;stroke-linejoin:round;">
<g id="kvg:06d1e" kvg:element="&#27934;">
	<g id="kvg:06d1e-g1" kvg:element="&#27701;" kvg:original="&#27700;" kvg:position="left" kvg:radical="general" kvg:variant="true">
		<path d="M19.38,16.25c3.92,1.38,10.13,5.69,11.12,7.84" id="kvg:06d1e-s1" kvg:type="&#12756;" />
		<path d="M14,41.38c4.32,1.52,11.17,6.26,12.25,8.62" id="kvg:06d1e-s2" kvg:type="&#12756;" />
		<path d="M16.22,87.29c1.15,0.46,2.04-0.01,2.79-1.37C21.67,81.08,24.12,76,27.25,69" id="kvg:06d1e-s3" kvg:type="&#12736;" />
	</g>
	<g id="kvg:06d1e-g2" kvg:element="&#21516;" kvg:phon="&#21516;" kvg:position="right">
		<g id="kvg:06d1e-g3" kvg:element="&#20866;">
			<path d="M40.62,19.32c0.91,0.91,1.22,2.68,1.22,4.36c0,3.66-0.06,52.79-0.06,60.92c0,5.3-0.03,7.73-0.03,8.53" id="kvg:06d1e-s4" kvg:type="&#12753;" />
			<path d="M42.5,20.73c6.87-0.96,43.47-4.38,44.86-4.56c2.98-0.4,3.98,1.5,3.98,4.15c0,2.41-0.07,62.85-0.07,68.39c0,11.79-4.76,4.04-7.09,1.94" id="kvg:06d1e-s5" kvg:type="&#12742;a" />
		</g>
		<g id="kvg:06d1e-g4" kvg:element="&#19968;">
			<path d="M51.77,37.37c1.24,0.6,3.32,0.46,4.61,0.24c6.13-1.06,12.82-1.83,18.01-2.21c1.7-0.12,3.33-0.28,4.99,0.2" id="kvg:06d1e-s6" kvg:type="&#12752;" />
		</g>
		<g id="kvg:06d1e-g5" kvg:element="&#21475;">
			<path d="M53.38,49.83c0.74,0.69,1.16,1.54,1.28,2.54c0.84,4.26,1.72,8.51,2.57,14.11c0.28,1.8,0.42,3.53,0.62,5.05" id="kvg:06d1e-s7" kvg:type="&#12753;" />
			<path d="M55.93,50.96C63,50,69.29,49.1,73.76,48.47c2.88-0.41,4.22,0.25,3.63,3.29c-0.83,4.29-1.79,8.54-2.99,14.35" id="kvg:06d1e-s8" kvg:type="&#12757;b" />
			<path d="M59.14,69.18c3.86-0.47,7.65-0.97,12.9-1.72c1.28-0.18,2.33-0.29,3.85-0.29" id="kvg:06d1e-s9" kvg:type="&#12752;b" />
		</g>
	</g>
</g>
</g>
<g id="kvg:StrokeNumbers_06d1e" style="font-size:8;fill:#808080">
	<text transform="matrix(1 0 0 1 12.75 16.50)">1</text>
	<text transform="matrix(1 0 0 1 6.75 42.05)">2</text>
	<text transform="matrix(1 0 0 1 7.50 88.50)">3</text>
	<text transform="matrix(1 0 0 1 34.50 29.50)">4</text>
	<text transform="matrix(1 0 0 1 44.50 17.50)">5</text>
	<text transform="matrix(1 0 0 1 50.50 34.50)">6</text>
	<text transform="matrix(1 0 0 1 47.25 58.48)">7</text>
	<text transform="matrix(1 0 0 1 56.25 47.50)">8</text>
	<text transform="matrix(1 0 0 1 61.50 65.50)">9</text>
</g>
</svg>