<svg xmlns="http://www.w3.org/2000/svg" xmlns:kvg="http://kanjivg.tagaini.net" height="109" kun="&#12354;&#12414;&#12397;&#12375;, &#12358;&#12427;&#12362;.&#12377;" meaning="far and wide" on="&#12467;&#12454;" viewBox="0 0 109 109" width="109">
<g id="kvg:StrokePaths_06d3d" style="fill:none;stroke:#000000;stroke-width:3;stroke-linecap:round;stroke-linejoin:round;">
<g id="kvg:06d3d" kvg:element="&#27965;">
	<g id="kvg:06d3d-g1" kvg:element="&#27701;" kvg:original="&#27700;" kvg:position="left" kvg:radical="general" kvg:variant="true">
		<path d="M18.38,16.25c4.37,2,11.27,8.23,12.37,11.34" id="kvg:06d3d-s1" kvg:type="&#12756;" />
		<path d="M13.25,43.25C18.1,45.06,25.79,50.69,27,53.5" id="kvg:06d3d-s2" kvg:type="&#12756;" />
		<path d="M13.75,88.23c1.9,1.27,4.18,1.32,5.38-0.25c3.48-4.57,6.96-10.16,10.12-15.99" id="kvg:06d3d-s3" kvg:type="&#12736;" />
	</g>
	<g id="kvg:06d3d-g2" kvg:element="&#21512;" kvg:position="right">
		<g id="kvg:06d3d-g3" kvg:position="top">
			<g id="kvg:06d3d-g4" kvg:element="&#20154;">
				<path d="M61.92,12c0.06,1.05-0.21,2.79-0.62,4.2C58.42,26,49.12,41.22,36.82,53.43" id="kvg:06d3d-s4" kvg:type="&#12754;" />
				<path d="M61.08,17.08c4.62,6.27,24.56,26.73,29.66,31.32c1.73,1.56,3.96,2.22,5.69,2.67" id="kvg:06d3d-s5" kvg:type="&#12751;" />
			</g>
			<g id="kvg:06d3d-g5" kvg:element="&#19968;">
				<path d="M47.05,52.28c0.69,0.34,3.93,0.38,4.63,0.34c7.23-0.39,17.82-2.12,25.01-2.69c1.16-0.09,2.83,0.16,3.42,0.33" id="kvg:06d3d-s6" kvg:type="&#12752;" />
			</g>
		</g>
		<g id="kvg:06d3d-g6" kvg:element="&#21475;" kvg:position="bottom">
			<path d="M44.59,67.33c0.47,0.59,1.53,2.01,1.65,2.79c1.56,10.15,1.74,18.95,2.8,27.41" id="kvg:06d3d-s7" kvg:type="&#12753;" />
			<path d="M45.81,68.96c13.32-1.66,27.54-2.1,34.19-2.9c2.43-0.29,3.89,1.74,3.54,3.46c-1.44,7.13-2.79,12.24-4.76,23.19" id="kvg:06d3d-s8" kvg:type="&#12757;b" />
			<path d="M49.25,94.81c7.5-0.56,22.32-1.11,31.72-1.75" id="kvg:06d3d-s9" kvg:type="&#12752;b" />
		</g>
	</g>
</g>
</g>
<g id="kvg:StrokeNumbers_06d3d" style="font-size:8;fill:#808080">
	<text transform="matrix(1 0 0 1 11.50 16.63)">1</text>
	<text transform="matrix(1 0 0 1 6.25 43.50)">2</text>
	<text transform="matrix(1 0 0 1 6.50 91.50)">3</text>
	<text transform="matrix(1 0 0 1 53.50 13.50)">4</text>
	<text transform="matrix(1 0 0 1 69.50 22.50)">5</text>
	<text transform="matrix(1 0 0 1 49.50 49.50)">6</text>
	<text transform="matrix(1 0 0 1 38.50 75.50)">7</text>
	<text transform="matrix(1 0 0 1 48.50 65.50)">8</text>
	<text transform="matrix(1 0 0 1 53.50 91.50)">9</text>
</g>
</svg>