<svg xmlns="http://www.w3.org/2000/svg" xmlns:kvg="http://kanjivg.tagaini.net" height="109" meaning="gush forth, surge" viewBox="0 0 109 109" width="109">
<g id="kvg:StrokePaths_06d36" style="fill:none;stroke:#000000;stroke-width:3;stroke-linecap:round;stroke-linejoin:round;">
<g id="kvg:06d36" kvg:element="&#27958;">
	<g id="kvg:06d36-g1" kvg:element="&#27701;" kvg:original="&#27700;" kvg:position="left" kvg:radical="general" kvg:variant="true">
		<path d="M18.38,13.5c4.37,2.13,11.27,8.77,12.37,12.09" id="kvg:06d36-s1" kvg:type="&#12756;" />
		<path d="M13.5,42c4.06,2.12,10.48,8.71,11.5,12" id="kvg:06d36-s2" kvg:type="&#12756;" />
		<path d="M14.25,87.73c1.71,1.27,3.78,1.32,4.86-0.25c3.14-4.57,9.29-16.66,12.14-22.49" id="kvg:06d36-s3" kvg:type="&#12736;" />
	</g>
	<g id="kvg:06d36-g2" kvg:element="&#21256;" kvg:position="right">
		<g id="kvg:06d36-g3" kvg:element="&#21241;" kvg:position="kamae">
			<g id="kvg:06d36-g4" kvg:element="&#20031;">
				<path d="M52.83,12.75c0.05,0.79,0.27,2.09-0.1,3.16c-2.61,7.49-6.49,18.35-17.94,30.22" id="kvg:06d36-s4" kvg:type="&#12754;" />
			</g>
			<path d="M49.85,28.53c1.18,0.72,2.78,0.68,4.71,0.48c4.94-0.51,29.56-3.59,34.28-3.83c4.71-0.24,5.2,2.37,4.95,7.49C93.5,38.5,91.25,74,84.09,93.84c-1.76,4.87-4.76,1.81-7.54-1.21" id="kvg:06d36-s5" kvg:type="&#12742;" />
		</g>
		<g id="kvg:06d36-g5" kvg:element="&#20982;">
			<g id="kvg:06d36-g6" kvg:element="&#20034;">
				<g id="kvg:06d36-g7" kvg:element="&#20031;">
					<path d="M68.81,36.43c0.29,0.94,0.61,1.67,0.15,3.32C65.5,52,58.75,66,50.52,74.62" id="kvg:06d36-s6" kvg:type="&#12754;" />
				</g>
				<path d="M53.33,49.25c6.3,5.04,12.98,13.77,16.58,23.69" id="kvg:06d36-s7" kvg:type="&#12756;/&#12751;" />
			</g>
			<g id="kvg:06d36-g8" kvg:element="&#20981;" kvg:position="kamae">
				<path d="M45.18,49.4c0.38,0.24,0.93,2.67,0.86,3.15c-0.93,6.14-2.28,19.7-3.27,27.76c-0.17,1.42,0.49,3.44,2.6,2.8c9.33-2.82,28.2-4.25,32.21-4.49" id="kvg:06d36-s8" kvg:type="&#12740;a" />
				<path d="M78.29,45.34c0.43,0.24,1.35,1.83,1.43,2.32c0.09,0.49-0.6,21.05-2.22,34.73" id="kvg:06d36-s9" kvg:type="&#12753;" />
			</g>
		</g>
	</g>
</g>
</g>
<g id="kvg:StrokeNumbers_06d36" style="font-size:8;fill:#808080">
	<text transform="matrix(1 0 0 1 11.50 13.50)">1</text>
	<text transform="matrix(1 0 0 1 4.50 42.50)">2</text>
	<text transform="matrix(1 0 0 1 5.50 86.50)">3</text>
	<text transform="matrix(1 0 0 1 44.50 12.50)">4</text>
	<text transform="matrix(1 0 0 1 56.50 25.50)">5</text>
	<text transform="matrix(1 0 0 1 60.50 37.50)">6</text>
	<text transform="matrix(1 0 0 1 48.50 45.18)">7</text>
	<text transform="matrix(1 0 0 1 37.50 53.50)">8</text>
	<text transform="matrix(1 0 0 1 71.50 51.50)">9</text>
</g>
</svg>