<svg xmlns="http://www.w3.org/2000/svg" xmlns:kvg="http://kanjivg.tagaini.net" height="109" kun="&#12365;.&#12360;&#12427;, &#12369;.&#12377;" meaning="extinguish, blow out, turn off, neutralize, cancel" on="&#12471;&#12519;&#12454;" viewBox="0 0 109 109" width="109">
<g id="kvg:StrokePaths_06d88" style="fill:none;stroke:#000000;stroke-width:3;stroke-linecap:round;stroke-linejoin:round;">
<g id="kvg:06d88" kvg:element="&#28040;">
	<g id="kvg:06d88-g1" kvg:element="&#27701;" kvg:original="&#27700;" kvg:position="left" kvg:radical="general" kvg:variant="true">
		<path d="M23.38,16.25c3.31,1.47,8.74,5.38,10.37,7.84" id="kvg:06d88-s1" kvg:type="&#12756;" />
		<path d="M17.12,38.75c4.02,1.15,10.37,6.72,11.38,8.5" id="kvg:06d88-s2" kvg:type="&#12756;" />
		<path d="M17.16,91.2c1.46,0.18,2.63-0.53,3.34-1.74C23.25,84.75,27.5,76,30,70" id="kvg:06d88-s3" kvg:type="&#12736;" />
	</g>
	<g id="kvg:06d88-g2" kvg:element="&#32918;" kvg:phon="&#32918;" kvg:position="right">
		<g id="kvg:06d88-g3" kvg:element="&#11916;" kvg:original="&#23567;" kvg:variant="true">
			<path d="M65.99,11.5c1.13,1.13,1.67,2.62,1.67,4.34c0,8.16,0.09,21.01,0.09,24.91" id="kvg:06d88-s4" kvg:type="&#12753;a" />
			<path d="M43.56,22.58c3.11,1.96,7.29,6.94,8.07,9.99" id="kvg:06d88-s5" kvg:type="&#12756;" />
			<path d="M90.21,15.85c0.04,0.78-0.04,1.84-0.31,2.37c-2.15,4.16-4.65,7.78-8.76,11.55" id="kvg:06d88-s6" kvg:type="&#12754;" />
		</g>
		<g id="kvg:06d88-g4" kvg:element="&#26376;" kvg:variant="true">
			<path d="M51.61,41.44c1.1,1.1,1.49,2.43,1.49,3.78c0,0.78,0.2,31.1,0.21,45.02c0,2.98,0,5.16,0,6.08" id="kvg:06d88-s7" kvg:type="&#12753;/&#12754;" />
			<path d="M54.34,42.87c4.78-0.75,24.39-3.65,26.24-3.94c2.8-0.43,4.65,1.07,4.65,3.65c0,9.99,0.13,29.15,0.13,47.92c0,11.25-5.59,2.58-7.46,0.96" id="kvg:06d88-s8" kvg:type="&#12742;a" />
			<path d="M54.34,55.94c9.66-1.19,22.13-2.08,29.6-2.78" id="kvg:06d88-s9" kvg:type="&#12752;a" />
			<path d="M54.47,70.36c6.63-0.7,21.72-2.32,29.39-2.78" id="kvg:06d88-s10" kvg:type="&#12752;a" />
		</g>
	</g>
</g>
</g>
<g id="kvg:StrokeNumbers_06d88" style="font-size:8;fill:#808080">
	<text transform="matrix(1 0 0 1 15.75 15.13)">1</text>
	<text transform="matrix(1 0 0 1 9.75 39.13)">2</text>
	<text transform="matrix(1 0 0 1 9.75 96.74)">3</text>
	<text transform="matrix(1 0 0 1 56.50 13.50)">4</text>
	<text transform="matrix(1 0 0 1 40.50 19.63)">5</text>
	<text transform="matrix(1 0 0 1 80.50 16.50)">6</text>
	<text transform="matrix(1 0 0 1 45.75 50.50)">7</text>
	<text transform="matrix(1 0 0 1 55.50 39.50)">8</text>
	<text transform="matrix(1 0 0 1 57.75 52.63)">9</text>
	<text transform="matrix(1 0 0 1 56.50 66.50)">10</text>
</g>
</svg>