<svg xmlns="http://www.w3.org/2000/svg" xmlns:kvg="http://kanjivg.tagaini.net" height="109" kun="&#12381;.&#12417;&#12427;" meaning="black soil" on="&#12493;&#12484;, &#12487;&#12484;" viewBox="0 0 109 109" width="109">
<g id="kvg:StrokePaths_06d85" style="fill:none;stroke:#000000;stroke-width:3;stroke-linecap:round;stroke-linejoin:round;">
<g id="kvg:06d85" kvg:element="&#28037;">
	<g id="kvg:06d85-g1" kvg:element="&#27701;" kvg:original="&#27700;" kvg:position="left" kvg:radical="general" kvg:variant="true">
		<path d="M19.38,17.25c4.72,1.65,12.19,6.78,13.37,9.34" id="kvg:06d85-s1" kvg:type="&#12756;" />
		<path d="M15.5,42.75c4.59,1.46,11.85,5.99,13,8.25" id="kvg:06d85-s2" kvg:type="&#12756;" />
		<path d="M13.75,88.73c1.71,1.27,3.78,1.32,4.86-0.25c3.14-4.57,8.79-12.66,11.64-18.49" id="kvg:06d85-s3" kvg:type="&#12736;" />
	</g>
	<g id="kvg:06d85-g2" kvg:position="right">
		<g id="kvg:06d85-g3" kvg:element="&#26085;" kvg:position="top">
			<path d="M44.28,16.78c0.53,0.77,1.41,2.03,1.41,3.06c0.56,5.17,4.24,30.13,4.38,31.16" id="kvg:06d85-s4" kvg:type="&#12753;" />
			<path d="M45.39,18.27c3-0.13,34.85-3.11,37.59-3.26c2.28-0.13,3.77,0.99,3.88,4.5c-0.16,4.19-2.88,22.1-3.99,29.07" id="kvg:06d85-s5" kvg:type="&#12757;a" />
			<path d="M47.7,33.17c7.55-0.92,33.39-3.1,37.24-3.1" id="kvg:06d85-s6" kvg:type="&#12752;a" />
			<path d="M49.82,47.68c6.68-0.26,26.57-2.41,33.09-2.41" id="kvg:06d85-s7" kvg:type="&#12752;a" />
		</g>
		<g id="kvg:06d85-g4" kvg:element="&#22303;" kvg:position="bottom">
			<path d="M44,69.84c1.44,0.56,4.09,0.67,5.54,0.56c8.97-0.65,26.97-3.15,35.23-2.81c2.41,0.1,3.85,0.27,5.05,0.55" id="kvg:06d85-s8" kvg:type="&#12752;" />
			<path d="M64.92,52.5c0.11,0.25,1.54,1.33,1.54,2.95c0,10.45-0.31,21.14-0.31,34.96" id="kvg:06d85-s9" kvg:type="&#12753;a" />
			<path d="M36.67,91.26c1.43,0.51,4.07,0.6,5.5,0.51C55,91,78.25,89.5,94.8,89.39c2.39-0.02,3.83,0.24,5.02,0.5" id="kvg:06d85-s10" kvg:type="&#12752;" />
		</g>
	</g>
</g>
</g>
<g id="kvg:StrokeNumbers_06d85" style="font-size:8;fill:#808080">
	<text transform="matrix(1 0 0 1 12.50 17.50)">1</text>
	<text transform="matrix(1 0 0 1 7.44 42.50)">2</text>
	<text transform="matrix(1 0 0 1 5.50 91.50)">3</text>
	<text transform="matrix(1 0 0 1 38.44 25.91)">4</text>
	<text transform="matrix(1 0 0 1 47.50 14.50)">5</text>
	<text transform="matrix(1 0 0 1 52.50 29.50)">6</text>
	<text transform="matrix(1 0 0 1 53.50 44.50)">7</text>
	<text transform="matrix(1 0 0 1 42.50 66.50)">8</text>
	<text transform="matrix(1 0 0 1 54.50 56.50)">9</text>
	<text transform="matrix(1 0 0 1 32.50 87.50)">10</text>
</g>
</svg>