<svg xmlns="http://www.w3.org/2000/svg" xmlns:kvg="http://kanjivg.tagaini.net" height="109" meaning="lonely, deserted" viewBox="0 0 109 109" width="109">
<g id="kvg:StrokePaths_06dcb" style="fill:none;stroke:#000000;stroke-width:3;stroke-linecap:round;stroke-linejoin:round;">
<g id="kvg:06dcb" kvg:element="&#28107;">
	<g id="kvg:06dcb-g1" kvg:element="&#27701;" kvg:original="&#27700;" kvg:position="left" kvg:radical="general" kvg:variant="true">
		<path d="M16.13,16.25c3.57,1.47,9.22,6.05,10.12,8.34" id="kvg:06dcb-s1" kvg:type="&#12756;" />
		<path d="M9.5,39.75c3.35,1.37,8.66,5.62,9.5,7.75" id="kvg:06dcb-s2" kvg:type="&#12756;" />
		<path d="M8.75,88.21c1.5,1.31,3.31,1.36,4.25-0.25C15.75,83.25,21,73,23.5,67" id="kvg:06dcb-s3" kvg:type="&#12736;" />
	</g>
	<g id="kvg:06dcb-g2" kvg:element="&#26519;" kvg:position="right">
		<g id="kvg:06dcb-g3" kvg:element="&#26408;" kvg:position="left" kvg:variant="true">
			<path d="M28.25,41.19c0.58,0.28,2.33,0.66,3.88,0.5c6.62-0.69,13.35-1.31,19.17-1.88c1.55-0.15,2.72-0.28,3.69,0" id="kvg:06dcb-s4" kvg:type="&#12752;" />
			<path d="M42,16.5c1.25,0.5,2,2.25,2.25,3.25s0,68.25-0.25,74.5" id="kvg:06dcb-s5" kvg:type="&#12753;" />
			<path d="M44.25,43C41.4,53.33,32.92,70.65,27,76.5" id="kvg:06dcb-s6" kvg:type="&#12754;" />
			<path d="M45.75,50.75c3.31,2.11,6.86,6.32,8.75,10" id="kvg:06dcb-s7" kvg:type="&#12756;/&#12751;" />
		</g>
		<g id="kvg:06dcb-g4" kvg:element="&#26408;" kvg:position="right">
			<path d="M60.75,38.74c0.52,0.23,1.63,0.36,3.01,0.23c4.85-0.46,17.84-2.05,27.31-3.19c1.37-0.16,2.57-0.23,3.43,0" id="kvg:06dcb-s8" kvg:type="&#12752;" />
			<path d="M73.25,12.5c1.25,0.5,2,2.25,2.25,3.25s0,73.75-0.25,80" id="kvg:06dcb-s9" kvg:type="&#12753;" />
			<path d="M74.75,38.5C71.72,51.67,62.28,70,55.25,76.75" id="kvg:06dcb-s10" kvg:type="&#12754;" />
			<path d="M75.75,37.75c5.92,13.68,15.4,31.23,20.21,36.63c1.37,1.54,2.14,2.6,3.29,3.12" id="kvg:06dcb-s11" kvg:type="&#12751;" />
		</g>
	</g>
</g>
</g>
<g id="kvg:StrokeNumbers_06dcb" style="font-size:8;fill:#808080">
	<text transform="matrix(1 0 0 1 9.50 16.50)">1</text>
	<text transform="matrix(1 0 0 1 2.50 39.50)">2</text>
	<text transform="matrix(1 0 0 1 2.00 91.50)">3</text>
	<text transform="matrix(1 0 0 1 26.50 38.50)">4</text>
	<text transform="matrix(1 0 0 1 33.50 15.33)">5</text>
	<text transform="matrix(1 0 0 1 34.50 50.50)">6</text>
	<text transform="matrix(1 0 0 1 48.50 50.18)">7</text>
	<text transform="matrix(1 0 0 1 59.50 35.50)">8</text>
	<text transform="matrix(1 0 0 1 64.50 11.50)">9</text>
	<text transform="matrix(1 0 0 1 61.50 48.95)">10</text>
	<text transform="matrix(1 0 0 1 81.50 47.88)">11</text>
</g>
</svg>