<svg xmlns="http://www.w3.org/2000/svg" xmlns:kvg="http://kanjivg.tagaini.net" height="109" kun="&#12365;&#12424;.&#12417;&#12427;, &#12365;&#12424;.&#12356;" meaning="pure, clean, unspoiled" on="&#12472;&#12519;&#12454;, &#12475;&#12452;" viewBox="0 0 109 109" width="109">
<g id="kvg:StrokePaths_06de8" style="fill:none;stroke:#000000;stroke-width:3;stroke-linecap:round;stroke-linejoin:round;">
<g id="kvg:06de8" kvg:element="&#28136;">
	<g id="kvg:06de8-g1" kvg:element="&#27701;" kvg:original="&#27700;" kvg:position="left" kvg:radical="tradit" kvg:variant="true">
		<path d="M16.63,15.75c4.63,1.65,11.96,6.78,13.12,9.34" id="kvg:06de8-s1" kvg:type="&#12756;" />
		<path d="M13,42.5c4.41,1.76,11.4,7.26,12.5,10" id="kvg:06de8-s2" kvg:type="&#12756;" />
		<path d="M14.75,88.73c1.71,1.27,3.78,1.32,4.86-0.25c3.14-4.57,6.29-10.16,9.14-15.99" id="kvg:06de8-s3" kvg:type="&#12736;" />
	</g>
	<g id="kvg:06de8-g2" kvg:element="&#29229;" kvg:position="right">
		<g id="kvg:06de8-g3" kvg:element="&#11940;" kvg:original="&#29226;" kvg:position="top" kvg:variant="true">
			<path d="M78.97,9.64c0.05,1.26-0.87,2.52-1.44,2.85c-3.09,1.83-14.56,5.98-32.98,9.21" id="kvg:06de8-s4" kvg:type="&#12754;" />
			<path d="M45.45,26.59c0.03,0.44,0.06,1.14-0.06,1.77c-0.7,3.74-4.69,11.95-10.16,16.98" id="kvg:06de8-s5" kvg:type="&#12754;" />
			<path d="M58.53,25.61c2.81,1.96,7.27,8.06,7.98,11.11" id="kvg:06de8-s6" kvg:type="&#12756;" />
			<path d="M77.13,21.27c5.65,2.65,14.58,10.9,16,15.03" id="kvg:06de8-s7" kvg:type="&#12756;" />
		</g>
		<g id="kvg:06de8-g4" kvg:position="bottom">
			<g id="kvg:06de8-g5" kvg:element="&#11925;" kvg:original="&#24401;" kvg:variant="true">
				<path d="M44.82,43.92c1.43,0.24,2.65,0.63,4.3,0.48c10.04-0.95,23.39-1.86,32.89-2.57c2.33-0.17,3.37,1.17,3.01,3.55c-0.94,6.23-1.43,13.28-2.15,20.89" id="kvg:06de8-s8" kvg:type="&#12757;" />
				<path d="M37,56.98c2.06,0.24,3.66,0.69,5.94,0.48c19.87-1.9,33.09-3.28,48.85-4c2.52-0.11,4.57,0.48,5.71,0.71" id="kvg:06de8-s9" kvg:type="&#12752;" />
				<path d="M43.97,69.34c1.01,0.16,2.83,0.56,4.03,0.48c11.08-0.79,25.1-2.53,35.17-2.85c1.61-0.05,2.62,0,3.83,0.16" id="kvg:06de8-s10" kvg:type="&#12752;c" />
			</g>
			<g id="kvg:06de8-g6" kvg:element="&#20101;">
				<path d="M64.37,45.95c0.48,0.87,1.37,2.86,1.42,5.77c0.23,13.95-0.14,36.7-0.14,41.45c0,10.05-8.96,0.19-9.59-0.71" id="kvg:06de8-s11" kvg:type="&#12762;" />
			</g>
		</g>
	</g>
</g>
</g>
<g id="kvg:StrokeNumbers_06de8" style="font-size:8;fill:#808080">
	<text transform="matrix(1 0 0 1 10.50 16.38)">1</text>
	<text transform="matrix(1 0 0 1 5.50 42.50)">2</text>
	<text transform="matrix(1 0 0 1 7.00 92.50)">3</text>
	<text transform="matrix(1 0 0 1 70.50 9.50)">4</text>
	<text transform="matrix(1 0 0 1 36.50 30.50)">5</text>
	<text transform="matrix(1 0 0 1 52.50 31.50)">6</text>
	<text transform="matrix(1 0 0 1 71.50 27.50)">7</text>
	<text transform="matrix(1 0 0 1 47.50 41.50)">8</text>
	<text transform="matrix(1 0 0 1 34.50 54.50)">9</text>
	<text transform="matrix(1 0 0 1 34.50 68.50)">10</text>
	<text transform="matrix(1 0 0 1 54.50 52.50)">11</text>
</g>
</svg>