<svg xmlns="http://www.w3.org/2000/svg" xmlns:kvg="http://kanjivg.tagaini.net" height="109" meaning="annexed, accompany, marry, suit, meet, satisfy, attach, append, garnish, imitate" viewBox="0 0 109 109" width="109">
<g id="kvg:StrokePaths_06dfb" style="fill:none;stroke:#000000;stroke-width:3;stroke-linecap:round;stroke-linejoin:round;">
<g id="kvg:06dfb" kvg:element="&#28155;">
	<g id="kvg:06dfb-g1" kvg:element="&#27701;" kvg:original="&#27700;" kvg:position="left" kvg:radical="general" kvg:variant="true">
		<path d="M17.63,15.5c4.28,1.43,11.05,5.87,12.12,8.09" id="kvg:06dfb-s1" kvg:type="&#12756;" />
		<path d="M12.5,41c4.32,1.23,11.17,5.08,12.25,7" id="kvg:06dfb-s2" kvg:type="&#12756;" />
		<path d="M14.75,87.61c1.75,0.64,2.69,0,3.67-1.78c2.86-5.17,5.72-11.99,8.33-18.58" id="kvg:06dfb-s3" kvg:type="&#12736;" />
	</g>
	<g id="kvg:06dfb-g2" kvg:position="right">
		<g id="kvg:06dfb-g3" kvg:phon="&#24541;" kvg:position="top">
			<g id="kvg:06dfb-g4" kvg:element="&#24541;">
				<g id="kvg:06dfb-g5" kvg:element="&#22829;">
					<g id="kvg:06dfb-g6" kvg:element="&#20031;">
						<path d="M72.06,13.89C72,15,71.48,15.86,70.55,16.34c-8.8,4.54-15.68,7.29-28.78,10.43" id="kvg:06dfb-s4" kvg:type="&#12754;" />
					</g>
					<g id="kvg:06dfb-g7" kvg:element="&#22823;">
						<path d="M35.6,38.45c2.65,0.55,5.38,0.23,7.66-0.01c10.49-1.11,26.62-3.56,38.5-4.65c2.99-0.27,5.38-0.52,8.34,0.24" id="kvg:06dfb-s5" kvg:type="&#12752;" />
						<path d="M59.67,24.94c0.28,1.17,0.32,2.02-0.08,3.2C53.46,46.27,47.44,56.29,33.75,67.5" id="kvg:06dfb-s6" kvg:type="&#12754;" />
						<path d="M61.79,36.52c6.04,5.9,18.07,18.63,25.56,24.66c1.77,1.42,3.66,2.78,5.65,3.9" id="kvg:06dfb-s7" kvg:type="&#12751;" />
					</g>
				</g>
			</g>
			<g id="kvg:06dfb-g8" kvg:element="&#11927;" kvg:original="&#24515;" kvg:position="bottom" kvg:variant="true">
				<path d="M56.96,58.08c0.85,0.85,1.06,2.04,1.06,3.75c0,13.05,0.06,22.96,0.06,27.4c0,9.31-5.37,1.34-6.49,0.22" id="kvg:06dfb-s8" kvg:type="&#12762;" />
				<path d="M43,74.75c0,4.84-4.91,11.99-6.25,13.38" id="kvg:06dfb-s9" kvg:type="&#12756;" />
				<path d="M69,74c2.45,2.2,6.33,9.05,6.94,12.47" id="kvg:06dfb-s10" kvg:type="&#12756;" />
				<path d="M85.14,72.83c2.49,1.96,6.44,8.08,7.06,11.13" id="kvg:06dfb-s11" kvg:type="&#12756;" />
			</g>
		</g>
	</g>
</g>
</g>
<g id="kvg:StrokeNumbers_06dfb" style="font-size:8;fill:#808080">
	<text transform="matrix(1 0 0 1 12.50 16.50)">1</text>
	<text transform="matrix(1 0 0 1 5.25 42.05)">2</text>
	<text transform="matrix(1 0 0 1 6.75 91.50)">3</text>
	<text transform="matrix(1 0 0 1 60.75 12.13)">4</text>
	<text transform="matrix(1 0 0 1 33.50 35.50)">5</text>
	<text transform="matrix(1 0 0 1 50.25 32.50)">6</text>
	<text transform="matrix(1 0 0 1 74.50 45.50)">7</text>
	<text transform="matrix(1 0 0 1 49.50 65.50)">8</text>
	<text transform="matrix(1 0 0 1 37.50 74.50)">9</text>
	<text transform="matrix(1 0 0 1 62.50 71.50)">10</text>
	<text transform="matrix(1 0 0 1 75.75 72.50)">11</text>
</g>
</svg>