<svg xmlns="http://www.w3.org/2000/svg" xmlns:kvg="http://kanjivg.tagaini.net" height="109" meaning="abyss, edge, deep pool, the depths" viewBox="0 0 109 109" width="109">
<g id="kvg:StrokePaths_06df5" style="fill:none;stroke:#000000;stroke-width:3;stroke-linecap:round;stroke-linejoin:round;">
<g id="kvg:06df5" kvg:element="&#28149;">
	<g id="kvg:06df5-g1" kvg:element="&#27701;" kvg:original="&#27700;" kvg:position="left" kvg:radical="general" kvg:variant="true">
		<path d="M18.88,15.25c4.01,1.3,10.36,5.33,11.37,7.34" id="kvg:06df5-s1" kvg:type="&#12756;" />
		<path d="M15.5,39c3.88,1.32,10.03,5.44,11,7.5" id="kvg:06df5-s2" kvg:type="&#12756;" />
		<path d="M14.75,86.71c1.5,0.54,3.31,0.36,4.25-1.25C21.75,80.75,24.5,75,27,69" id="kvg:06df5-s3" kvg:type="&#12736;" />
	</g>
	<g id="kvg:06df5-g2" kvg:position="right">
		<g id="kvg:06df5-g3" kvg:element="&#20031;">
			<path d="M41.69,17.75c0.5,2.03,1.2,3.63,1.2,6.17c0,23.19,2.03,56.61-14.83,68.55" id="kvg:06df5-s4" kvg:type="&#12754;" />
		</g>
		<path d="M55.77,16.33c0.98,0.92,1.76,1.99,1.76,5.02c0,3.9-0.02,11.69-0.02,16.65" id="kvg:06df5-s5" kvg:type="&#12753;" />
		<path d="M43.25,40C46,39.75,57.5,38.25,60,38.25" id="kvg:06df5-s6" kvg:type="&#12752;" />
		<path d="M70.77,15.33c0.98,0.92,1.67,1.99,1.76,5.02c0.12,4.54-0.52,10.4-0.83,15.16c-0.1,1.52,1.02,2.05,2.49,1.99C80.25,37.25,84,36,89.75,36" id="kvg:06df5-s7" kvg:type="&#12740;" />
		<g id="kvg:06df5-g4" kvg:element="&#20008;">
			<path d="M88.27,13.33c0.98,0.92,1.67,1.99,1.76,5.02C90.42,32.91,90,91.04,90,96" id="kvg:06df5-s8" kvg:type="&#12753;" />
		</g>
		<path d="M43.25,51.5c6.75-0.25,41.5-2.75,47-2.75" id="kvg:06df5-s9" kvg:type="&#12752;" />
		<path d="M41.75,66.25c4.5-0.75,9.75-1.75,12.5-2.25s3.25,1.5,3.25,3S57,88.5,57,90" id="kvg:06df5-s10" kvg:type="&#12757;" />
		<path d="M71.25,63.5c0.73-0.12,2.47,0.23,3.98,0.06c4.66-0.51,11.38-1.62,14.02-1.81" id="kvg:06df5-s11" kvg:type="&#12752;" />
		<path d="M73.02,64.35C73.02,72,73,85.54,73,90.5" id="kvg:06df5-s12" kvg:type="&#12753;" />
	</g>
</g>
</g>
<g id="kvg:StrokeNumbers_06df5" style="font-size:8;fill:#808080">
	<text transform="matrix(1 0 0 1 12.25 15.13)">1</text>
	<text transform="matrix(1 0 0 1 7.50 39.50)">2</text>
	<text transform="matrix(1 0 0 1 7.50 90.50)">3</text>
	<text transform="matrix(1 0 0 1 34.25 15.40)">4</text>
	<text transform="matrix(1 0 0 1 52.25 14.50)">5</text>
	<text transform="matrix(1 0 0 1 47.50 36.50)">6</text>
	<text transform="matrix(1 0 0 1 64.50 14.75)">7</text>
	<text transform="matrix(1 0 0 1 80.50 13.00)">8</text>
	<text transform="matrix(1 0 0 1 47.50 48.50)">9</text>
	<text transform="matrix(1 0 0 1 46.50 62.50)">10</text>
	<text transform="matrix(1 0 0 1 69.25 60.50)">11</text>
	<text transform="matrix(1 0 0 1 62.75 72.50)">12</text>
</g>
</svg>