<svg xmlns="http://www.w3.org/2000/svg" xmlns:kvg="http://kanjivg.tagaini.net" height="109" kun="&#12405;&#12385;, &#12363;&#12383;.&#12356;, &#12399;&#12394;&#12431;" meaning="edge" on="&#12456;&#12531;, &#12459;&#12463;, &#12467;&#12454;" viewBox="0 0 109 109" width="109">
<g id="kvg:StrokePaths_06e15" style="fill:none;stroke:#000000;stroke-width:3;stroke-linecap:round;stroke-linejoin:round;">
<g id="kvg:06e15" kvg:element="&#28181;">
	<g id="kvg:06e15-g1" kvg:element="&#27701;" kvg:original="&#27700;" kvg:position="left" kvg:radical="general" kvg:variant="true">
		<path d="M15.13,18.75c4.1,1.65,10.59,6.78,11.62,9.34" id="kvg:06e15-s1" kvg:type="&#12756;" />
		<path d="M12.5,41.75C16.56,43.56,22.98,49.19,24,52" id="kvg:06e15-s2" kvg:type="&#12756;" />
		<path d="M12.25,85.23c1.71,1.27,3.97,1.44,4.86-0.25C20.5,78.5,22.89,73.83,25.75,68" id="kvg:06e15-s3" kvg:type="&#12736;" />
	</g>
	<g id="kvg:06e15-g2" kvg:position="right">
		<g id="kvg:06e15-g3" kvg:position="left">
			<path d="M34.77,18.08c3.28,2.27,8.47,9.35,9.29,12.88" id="kvg:06e15-s4" kvg:type="&#12756;" />
			<path d="M61.28,13.14c0.02,0.47,0.04,1.22-0.04,1.9c-0.46,4.01-3.09,11.79-6.69,17.17" id="kvg:06e15-s5" kvg:type="&#12754;" />
			<g id="kvg:06e15-g4" kvg:element="&#22825;" kvg:variant="true">
				<path d="M35.56,40.17c0.99,0.38,2.8,0.46,3.78,0.38C46,40,54,38.25,62.66,38.29c1.64,0.01,2.63,0.18,3.45,0.37" id="kvg:06e15-s6" kvg:type="&#12752;" />
				<g id="kvg:06e15-g5" kvg:element="&#22823;" kvg:variant="true">
					<path d="M33.43,59.97c0.71,0.29,2.54,0.41,3.32,0.4c7-0.12,20.88-2.25,28.67-2.5c0.99-0.03,2.39,0.11,4.6,0.6" id="kvg:06e15-s7" kvg:type="&#12752;" />
					<path d="M51.53,43.48c0.45,0.7,0.93,2.41,0.86,3.76c-1.13,21.38-8.63,35.9-22.55,43.12" id="kvg:06e15-s8" kvg:type="&#12754;" />
					<path d="M55.14,71.55C60.4,74.37,66.4,80.51,69,85" id="kvg:06e15-s9" kvg:type="&#12756;/&#12751;" />
				</g>
			</g>
		</g>
		<g id="kvg:06e15-g6" kvg:element="&#20994;" kvg:original="&#20992;" kvg:position="right" kvg:variant="true">
			<path d="M75.27,29.08c0.98,0.92,1.67,1.99,1.76,5.02C77.42,48.66,77,59.79,77,64.75" id="kvg:06e15-s10" kvg:type="&#12753;" />
			<path d="M90.27,18.08c0.98,0.92,1.67,1.99,1.76,5.02c0.4,14.55-0.26,60.16-0.26,65.12c0,13.14-7.21,1.5-8.71,0.25" id="kvg:06e15-s11" kvg:type="&#12762;" />
		</g>
	</g>
</g>
</g>
<g id="kvg:StrokeNumbers_06e15" style="font-size:8;fill:#808080">
	<text transform="matrix(1 0 0 1 8.50 19.50)">1</text>
	<text transform="matrix(1 0 0 1 5.50 41.50)">2</text>
	<text transform="matrix(1 0 0 1 5.50 86.50)">3</text>
	<text transform="matrix(1 0 0 1 31.50 14.15)">4</text>
	<text transform="matrix(1 0 0 1 52.50 11.50)">5</text>
	<text transform="matrix(1 0 0 1 27.50 41.50)">6</text>
	<text transform="matrix(1 0 0 1 29.00 56.50)">7</text>
	<text transform="matrix(1 0 0 1 44.50 50.50)">8</text>
	<text transform="matrix(1 0 0 1 55.75 68.28)">9</text>
	<text transform="matrix(1 0 0 1 68.75 25.50)">10</text>
	<text transform="matrix(1 0 0 1 81.50 14.50)">11</text>
</g>
</svg>