<svg xmlns="http://www.w3.org/2000/svg" xmlns:kvg="http://kanjivg.tagaini.net" height="109" meaning="dregs" viewBox="0 0 109 109" width="109">
<g id="kvg:StrokePaths_06e23" style="fill:none;stroke:#000000;stroke-width:3;stroke-linecap:round;stroke-linejoin:round;">
<g id="kvg:06e23" kvg:element="&#28195;">
	<g id="kvg:06e23-g1" kvg:element="&#27701;" kvg:original="&#27700;" kvg:position="left" kvg:radical="general" kvg:variant="true">
		<path d="M14.88,16.5c4.37,1.96,11.27,8.05,12.37,11.09" id="kvg:06e23-s1" kvg:type="&#12756;" />
		<path d="M10.25,42.75C14.93,44.73,22.33,50.91,23.5,54" id="kvg:06e23-s2" kvg:type="&#12756;" />
		<path d="M11.25,89.73c1.71,1.27,3.78,1.32,4.86-0.25c3.14-4.57,6.29-10.16,9.14-15.99" id="kvg:06e23-s3" kvg:type="&#12736;" />
	</g>
	<g id="kvg:06e23-g2" kvg:element="&#26619;" kvg:position="right">
		<g id="kvg:06e23-g3" kvg:element="&#26408;" kvg:position="top">
			<path d="M36.71,25.63c0.75,0.25,3.28,0.45,5.28,0.23c8.19-0.87,33.5-2.62,45.33-2.97c2.01-0.06,3.54,0.25,4.79,0.5" id="kvg:06e23-s4" kvg:type="&#12752;" />
			<path d="M60.63,10.5c1.06,0.43,1.9,1.93,1.9,2.82c0,8.98,0,31.3-0.21,36.73" id="kvg:06e23-s5" kvg:type="&#12753;" />
			<path d="M62.38,25.13c-5.29,8.88-19.04,21.44-30.05,26.47" id="kvg:06e23-s6" kvg:type="&#12754;" />
			<path d="M62.65,25.43c4.39,3.34,23.62,19.14,28.39,22.42c1.62,1.11,3,1.59,4.62,1.91" id="kvg:06e23-s7" kvg:type="&#12751;" />
		</g>
		<g id="kvg:06e23-g4" kvg:element="&#19988;" kvg:position="bottom">
			<g id="kvg:06e23-g5" kvg:element="&#26376;">
				<path d="M45.27,55.89c0.58,0.58,1.06,1.64,1.16,2.24c0.82,5.11,2.57,27.33,2.44,36.69" id="kvg:06e23-s8" kvg:type="&#12753;a" />
				<path d="M46.57,57.49c2.29-0.15,28.23-2.66,29.93-2.83c3.04-0.3,3.84,1.79,3.84,2.74c0,5.23-0.13,20.75-0.21,32.46" id="kvg:06e23-s9" kvg:type="&#12757;b" />
				<path d="M48.17,70.75c7.8-0.89,24.55-2.72,31.41-3.18" id="kvg:06e23-s10" kvg:type="&#12752;a" />
				<path d="M48.66,82.16c6.09-0.45,24.42-2.3,31.46-2.61" id="kvg:06e23-s11" kvg:type="&#12752;a" />
			</g>
			<g id="kvg:06e23-g6" kvg:element="&#19968;">
				<path d="M32.73,95.19c1.15,0.38,4.25,0.77,5.4,0.64c14.37-1.59,41.37-3.09,53.38-3.41c1.92-0.05,3.49,0.2,6.02,0.67" id="kvg:06e23-s12" kvg:type="&#12752;" />
			</g>
		</g>
	</g>
</g>
</g>
<g id="kvg:StrokeNumbers_06e23" style="font-size:8;fill:#808080">
	<text transform="matrix(1 0 0 1 8.50 17.50)">1</text>
	<text transform="matrix(1 0 0 1 2.50 45.50)">2</text>
	<text transform="matrix(1 0 0 1 3.50 91.50)">3</text>
	<text transform="matrix(1 0 0 1 33.50 21.50)">4</text>
	<text transform="matrix(1 0 0 1 53.00 10.42)">5</text>
	<text transform="matrix(1 0 0 1 46.50 35.50)">6</text>
	<text transform="matrix(1 0 0 1 78.75 34.78)">7</text>
	<text transform="matrix(1 0 0 1 38.25 62.95)">8</text>
	<text transform="matrix(1 0 0 1 49.50 54.50)">9</text>
	<text transform="matrix(1 0 0 1 52.00 66.50)">10</text>
	<text transform="matrix(1 0 0 1 52.50 78.50)">11</text>
	<text transform="matrix(1 0 0 1 29.50 91.50)">12</text>
</g>
</svg>