<svg xmlns="http://www.w3.org/2000/svg" xmlns:kvg="http://kanjivg.tagaini.net" height="109" kun="&#12403;&#12423;&#12358;.&#12383;&#12427;" meaning="tiny, boundless" on="&#12499;&#12519;&#12454;" viewBox="0 0 109 109" width="109">
<g id="kvg:StrokePaths_06e3a" style="fill:none;stroke:#000000;stroke-width:3;stroke-linecap:round;stroke-linejoin:round;">
<g id="kvg:06e3a" kvg:element="&#28218;">
	<g id="kvg:06e3a-g1" kvg:element="&#27701;" kvg:original="&#27700;" kvg:position="left" kvg:radical="general" kvg:variant="true">
		<path d="M14.38,15.25c4.37,1.91,11.27,7.87,12.37,10.84" id="kvg:06e3a-s1" kvg:type="&#12756;" />
		<path d="M11,39c4.24,2.12,10.94,8.71,12,12" id="kvg:06e3a-s2" kvg:type="&#12756;" />
		<path d="M11.25,87.23c1.71,1.27,3.78,1.32,4.86-0.25c3.14-4.57,7.14-13.49,10.14-22.49" id="kvg:06e3a-s3" kvg:type="&#12736;" />
	</g>
	<g id="kvg:06e3a-g2" kvg:element="&#30471;" kvg:position="right">
		<g id="kvg:06e3a-g3" kvg:element="&#30446;" kvg:position="left">
			<path d="M34.54,18.88c0.61,1.15,1.5,2.03,1.5,3.52c0,1.49,0,59.6,0,67.08" id="kvg:06e3a-s4" kvg:type="&#12753;" />
			<path d="M36.22,21.4c1.84-0.02,15.25-1.98,16.93-2.04c1.39-0.06,2.37,1.26,2.37,2.64c0,5.1-0.65,55.15-0.65,66.79" id="kvg:06e3a-s5" kvg:type="&#12757;a" />
			<path d="M36.19,40.58c5.07-0.39,14.75-1.29,18.87-1.1" id="kvg:06e3a-s6" kvg:type="&#12752;a" />
			<path d="M36.34,60.18c4.86-0.18,12.03-0.86,18.43-0.92" id="kvg:06e3a-s7" kvg:type="&#12752;a" />
			<path d="M36.12,86.75c4.99-0.21,12.37-1.19,18.68-1.17" id="kvg:06e3a-s8" kvg:type="&#12752;a" />
		</g>
		<g id="kvg:06e3a-g4" kvg:element="&#23569;" kvg:position="right">
			<g id="kvg:06e3a-g5" kvg:element="&#23567;">
				<path d="M77.25,14.25c0.06,0.33,1.33,1.71,1.39,3.78c0.29,9.98-0.19,37.99-0.19,41.39c0,8.68-5.23,0.52-6.32-0.34" id="kvg:06e3a-s9" kvg:type="&#12762;" />
				<path d="M69.82,29.69c0.03,0.57,0.11,1.49-0.06,2.28c-1.27,5.67-5.82,15.96-10.19,21.19" id="kvg:06e3a-s10" kvg:type="&#12754;" />
				<path d="M86.46,28.73c4.55,3.68,10.66,13.14,11.79,18.87" id="kvg:06e3a-s11" kvg:type="&#12756;" />
			</g>
			<g id="kvg:06e3a-g6" kvg:element="&#20031;">
				<path d="M92.36,47.72c0.11,1.17,0.35,3.11-0.22,4.71C87,67,73.5,88.75,54.1,97.5" id="kvg:06e3a-s12" kvg:type="&#12754;" />
			</g>
		</g>
	</g>
</g>
</g>
<g id="kvg:StrokeNumbers_06e3a" style="font-size:8;fill:#808080">
	<text transform="matrix(1 0 0 1 6.50 15.50)">1</text>
	<text transform="matrix(1 0 0 1 2.50 39.05)">2</text>
	<text transform="matrix(1 0 0 1 4.75 89.50)">3</text>
	<text transform="matrix(1 0 0 1 28.50 32.50)">4</text>
	<text transform="matrix(1 0 0 1 39.25 17.50)">5</text>
	<text transform="matrix(1 0 0 1 40.50 37.50)">6</text>
	<text transform="matrix(1 0 0 1 40.50 56.68)">7</text>
	<text transform="matrix(1 0 0 1 40.50 83.50)">8</text>
	<text transform="matrix(1 0 0 1 67.50 13.50)">9</text>
	<text transform="matrix(1 0 0 1 58.50 27.50)">10</text>
	<text transform="matrix(1 0 0 1 83.50 25.13)">11</text>
	<text transform="matrix(1 0 0 1 81.00 48.50)">12</text>
</g>
</svg>