<svg xmlns="http://www.w3.org/2000/svg" xmlns:kvg="http://kanjivg.tagaini.net" height="109" kun="&#12422;" meaning="hot water, bath, hot spring" on="&#12488;&#12454;" viewBox="0 0 109 109" width="109">
<g id="kvg:StrokePaths_06e6f" style="fill:none;stroke:#000000;stroke-width:3;stroke-linecap:round;stroke-linejoin:round;">
<g id="kvg:06e6f" kvg:element="&#28271;">
	<g id="kvg:06e6f-g1" kvg:element="&#27701;" kvg:original="&#27700;" kvg:position="left" kvg:radical="general" kvg:variant="true">
		<path d="M21.76,17.5c3.79,1.38,9.79,5.69,10.74,7.84" id="kvg:06e6f-s1" kvg:type="&#12756;" />
		<path d="M15.62,43.75C19.64,45.12,26,49.37,27,51.5" id="kvg:06e6f-s2" kvg:type="&#12756;" />
		<path d="M17.41,90.95c1.34,0.3,2.96,0.02,3.59-1.24c3.12-6.33,5.75-12.2,8.25-18.2" id="kvg:06e6f-s3" kvg:type="&#12736;" />
	</g>
	<g id="kvg:06e6f-g2" kvg:element="&#26140;" kvg:phon="&#26140;" kvg:position="right">
		<g id="kvg:06e6f-g3" kvg:element="&#26086;" kvg:position="top">
			<g id="kvg:06e6f-g4" kvg:element="&#26085;">
				<path d="M47.55,13.84c0.81,0.81,1.68,1.97,1.83,2.8c1,5.49,2.61,15.52,3.69,21.97c0.31,1.84,0.51,3.08,0.54,3.29" id="kvg:06e6f-s4" kvg:type="&#12753;" />
				<path d="M49.84,15.36c4.93-0.73,18.17-2.49,26.43-3.34c3.64-0.37,6.47,1.11,6.01,5c-0.74,6.25-1.97,13.21-2.87,18.51c-0.2,1.15-0.38,2.23-0.53,3.2" id="kvg:06e6f-s5" kvg:type="&#12757;a" />
				<path d="M52.2,26.76c7.55-0.88,22.92-2.63,28.04-3.02" id="kvg:06e6f-s6" kvg:type="&#12752;a" />
				<path d="M54.19,38.96c4.51-0.62,18.23-2.19,23.85-2.73" id="kvg:06e6f-s7" kvg:type="&#12752;a" />
			</g>
			<g id="kvg:06e6f-g5" kvg:element="&#19968;">
				<path d="M38,50.76c3,0.36,6.6,0.25,9.59-0.08c12.75-1.44,27.91-2.8,40.36-4c3.1-0.3,6.2-0.34,9.28,0.19" id="kvg:06e6f-s8" kvg:type="&#12752;" />
			</g>
		</g>
		<g id="kvg:06e6f-g6" kvg:element="&#21247;" kvg:position="bottom">
			<g id="kvg:06e6f-g7" kvg:element="&#21241;">
				<g id="kvg:06e6f-g8" kvg:element="&#20031;">
					<path d="M54,53.25c0.09,0.64-0.23,1.59-0.58,2.26c-2.51,4.8-8.98,11.46-16.49,16.92" id="kvg:06e6f-s9" kvg:type="&#12754;" />
				</g>
				<path d="M51.69,62.7c1.69,0.55,3.6,0.33,5.13,0.17C64.12,62.12,77.38,60.38,87,59c5.15-0.74,6.83,0.75,6.07,5.9c-1.32,8.85-3.69,20.72-11.15,31.17c-2.26,3.17-4.79,1.31-7.38-2.15" id="kvg:06e6f-s10" kvg:type="&#12742;" />
			</g>
			<g id="kvg:06e6f-g9" kvg:element="&#20031;">
				<path d="M59.45,65.85c0.05,0.9-0.25,2.04-0.57,2.6c-3.26,5.67-9.51,11.8-19.01,17.05" id="kvg:06e6f-s11" kvg:type="&#12754;" />
			</g>
			<g id="kvg:06e6f-g10" kvg:element="&#20031;">
				<path d="M75.25,64.12c0.09,1.41-0.14,2.37-0.7,3.68C71,76.12,60.62,90,45.38,97.5" id="kvg:06e6f-s12" kvg:type="&#12754;" />
			</g>
		</g>
	</g>
</g>
</g>
<g id="kvg:StrokeNumbers_06e6f" style="font-size:8;fill:#808080">
	<text transform="matrix(1 0 0 1 13.50 18.50)">1</text>
	<text transform="matrix(1 0 0 1 8.25 45.13)">2</text>
	<text transform="matrix(1 0 0 1 8.50 94.50)">3</text>
	<text transform="matrix(1 0 0 1 42.50 22.50)">4</text>
	<text transform="matrix(1 0 0 1 48.50 11.50)">5</text>
	<text transform="matrix(1 0 0 1 55.00 23.50)">6</text>
	<text transform="matrix(1 0 0 1 56.50 35.50)">7</text>
	<text transform="matrix(1 0 0 1 39.75 48.13)">8</text>
	<text transform="matrix(1 0 0 1 43.50 60.50)">9</text>
	<text transform="matrix(1 0 0 1 59.50 59.50)">10</text>
	<text transform="matrix(1 0 0 1 48.50 71.50)">11</text>
	<text transform="matrix(1 0 0 1 64.50 70.50)">12</text>
</g>
</svg>