<svg xmlns="http://www.w3.org/2000/svg" xmlns:kvg="http://kanjivg.tagaini.net" height="109" kun="&#12376;&#12421;&#12435;.&#12376;&#12427;, &#12376;&#12421;&#12435;.&#12378;&#12427;, &#12394;&#12382;&#12425;.&#12360;&#12427;, &#12398;&#12426;, &#12402;&#12392;.&#12375;&#12356;, &#12415;&#12378;&#12418;&#12426;" meaning="semi-, correspond to, proportionate to, conform, imitate" on="&#12472;&#12517;&#12531;" viewBox="0 0 109 109" width="109">
<g id="kvg:StrokePaths_06e96" style="fill:none;stroke:#000000;stroke-width:3;stroke-linecap:round;stroke-linejoin:round;">
<g id="kvg:06e96" kvg:element="&#28310;">
	<g id="kvg:06e96-g1" kvg:position="top">
		<g id="kvg:06e96-g2" kvg:element="&#27701;" kvg:original="&#27700;" kvg:radical="tradit" kvg:variant="true">
			<path d="M29.11,12.25c3.12,1.36,8.04,5.61,8.83,7.73" id="kvg:06e96-s1" kvg:type="&#12756;" />
			<path d="M21.88,27.12c3.27,1.26,8.44,5.2,9.26,7.17" id="kvg:06e96-s2" kvg:type="&#12756;" />
			<path d="M22.51,58.14c1.5,0.73,3.3,0.77,4.25-0.14c2.75-2.64,5.5-5.88,7.99-9.25" id="kvg:06e96-s3" kvg:type="&#12736;" />
		</g>
		<g id="kvg:06e96-g3" kvg:element="&#38588;" kvg:part="1" kvg:phon="&#38588;1">
			<g id="kvg:06e96-g4" kvg:element="&#38585;">
				<g id="kvg:06e96-g5" kvg:element="&#20155;" kvg:original="&#20154;" kvg:variant="true">
					<path d="M55.36,8.75c0.16,1.17-0.04,2.7-0.56,3.7C51.53,18.83,47.38,24.23,39.88,32" id="kvg:06e96-s4" kvg:type="&#12754;" />
					<path d="M50.38,22.98c0.82,0.82,1.42,2.11,1.46,3.51c0.19,6.7,0.21,18.01,0.21,26.76c0,1.81,0,3.21,0.06,4" id="kvg:06e96-s5" kvg:type="&#12753;" />
				</g>
				<path d="M74.9,9.5c0.05,0.57-0.02,1.32-0.19,1.81c-1.14,3.12-2.59,5.52-5.21,9.32" id="kvg:06e96-s6" kvg:type="&#12754;" />
				<path d="M51.83,23.31c5.73-0.72,24.54-2.55,33-3.47c1.95-0.21,3.35-0.38,3.92-0.47" id="kvg:06e96-s7" kvg:type="&#12752;b" />
				<path d="M69.26,23.3c0.33,0.29,0.59,1.68,0.59,2.17c0,5.02-0.16,19.15-0.16,28.14" id="kvg:06e96-s8" kvg:type="&#12753;a" />
				<path d="M53.04,34.33c5.14-0.48,21.94-2.02,29.71-2.78c1.96-0.19,3.38-0.34,3.93-0.4" id="kvg:06e96-s9" kvg:type="&#12752;b" />
				<path d="M52.26,45.52c5.57-0.42,23.31-2.35,31.98-3.06c1.91-0.16,3.44-0.25,4.36-0.26" id="kvg:06e96-s10" kvg:type="&#12752;b" />
				<path d="M52.46,56.79c5.52-0.59,24.97-3.55,35.04-3.42c2.37,0.03,4.24,0.15,5.29,0.4" id="kvg:06e96-s11" kvg:type="&#12752;b" />
			</g>
		</g>
	</g>
	<g id="kvg:06e96-g6" kvg:element="&#38588;" kvg:part="2" kvg:phon="&#38588;2" kvg:position="bottom">
		<g id="kvg:06e96-g7" kvg:element="&#21313;" kvg:radical="nelson">
			<path d="M13.13,77.73c3.26,1.16,7.04,1,10.37,0.63c19.38-2.11,49.21-4.21,63.63-4.73c2.95-0.11,5.85-0.19,8.75,0.44" id="kvg:06e96-s12" kvg:type="&#12752;" />
			<path d="M52.66,62.63c0.92,0.92,1.82,2.74,1.82,4.53c0,0.92,0.06,14.59,0.06,27.59c0,2.18-0.01,4.64-0.04,5.88" id="kvg:06e96-s13" kvg:type="&#12753;" />
		</g>
	</g>
</g>
</g>
<g id="kvg:StrokeNumbers_06e96" style="font-size:8;fill:#808080">
	<text transform="matrix(1 0 0 1 22.80 10.63)">1</text>
	<text transform="matrix(1 0 0 1 13.80 27.06)">2</text>
	<text transform="matrix(1 0 0 1 15.30 64.48)">3</text>
	<text transform="matrix(1 0 0 1 57.75 9.13)">4</text>
	<text transform="matrix(1 0 0 1 44.25 37.55)">5</text>
	<text transform="matrix(1 0 0 1 77.25 7.63)">6</text>
	<text transform="matrix(1 0 0 1 59.25 21.05)">7</text>
	<text transform="matrix(1 0 0 1 74.25 28.48)">8</text>
	<text transform="matrix(1 0 0 1 56.25 31.40)">9</text>
	<text transform="matrix(1 0 0 1 55.20 41.83)">10</text>
	<text transform="matrix(1 0 0 1 55.20 52.25)">11</text>
	<text transform="matrix(1 0 0 1 11.70 74.68)">12</text>
	<text transform="matrix(1 0 0 1 40.20 68.60)">13</text>
</g>
</svg>