<svg xmlns="http://www.w3.org/2000/svg" xmlns:kvg="http://kanjivg.tagaini.net" height="109" meaning="melt, dissolve, thaw" viewBox="0 0 109 109" width="109">
<g id="kvg:StrokePaths_06eb6" style="fill:none;stroke:#000000;stroke-width:3;stroke-linecap:round;stroke-linejoin:round;">
<g id="kvg:06eb6" kvg:element="&#28342;">
	<g id="kvg:06eb6-g1" kvg:element="&#27701;" kvg:original="&#27700;" kvg:position="left" kvg:radical="general" kvg:variant="true">
		<path d="M17.38,15.62c4.1,1.54,10.6,6.32,11.62,8.72" id="kvg:06eb6-s1" kvg:type="&#12756;" />
		<path d="M14.62,39.25c3.93,1.46,10.14,5.99,11.12,8.25" id="kvg:06eb6-s2" kvg:type="&#12756;" />
		<path d="M11.5,90.23c2.12,1.02,3.28,0.32,4.36-1.25c3.14-4.57,6.39-10.24,9.39-15.24" id="kvg:06eb6-s3" kvg:type="&#12736;" />
	</g>
	<g id="kvg:06eb6-g2" kvg:element="&#23481;" kvg:phon="&#35895;" kvg:position="right">
		<g id="kvg:06eb6-g3" kvg:element="&#23424;" kvg:position="top">
			<path d="M61.69,10.41c1.2,1.2,1.65,2.09,1.65,3.7c0,3.57-0.09,5.52-0.09,9.01" id="kvg:06eb6-s4" kvg:type="&#12753;a" />
			<g id="kvg:06eb6-g4" kvg:element="&#20886;">
				<path d="M38.29,24.82c0,3.19-2.52,11.95-3.67,14.07" id="kvg:06eb6-s5" kvg:type="&#12756;" />
				<path d="M39.06,27.08c8.94-1.46,40.06-4.83,48.98-4.99c9.95-0.17,1.06,7.06-1.07,9" id="kvg:06eb6-s6" kvg:type="&#12758;b" />
			</g>
		</g>
		<g id="kvg:06eb6-g5" kvg:element="&#35895;" kvg:position="bottom">
			<g id="kvg:06eb6-g6" kvg:position="top">
				<path d="M52.85,35.07c0.13,0.98-0.36,1.57-0.97,2.4c-2.17,2.96-5.12,5.53-12.2,10.41" id="kvg:06eb6-s7" kvg:type="&#12754;" />
				<path d="M70.75,34.75c4.89,2.33,10.84,6.78,12.51,9.16" id="kvg:06eb6-s8" kvg:type="&#12756;" />
			</g>
			<g id="kvg:06eb6-g7" kvg:position="bottom">
				<path d="M61.02,46.5c0.08,0.66,0.14,1.82-0.41,2.65c-4.74,7.22-12.9,16.73-28.03,26.01" id="kvg:06eb6-s9" kvg:type="&#12754;" />
				<path d="M61.66,49.4c7.51,6.29,17.7,14.3,25.07,18.71c2.11,1.26,4.27,2.49,6.58,3.35" id="kvg:06eb6-s10" kvg:type="&#12751;" />
				<g id="kvg:06eb6-g8" kvg:element="&#21475;">
					<path d="M45.04,73.49c0.7,0.62,1.21,2.01,1.35,2.87c0.86,5.26,1.65,9.7,2.33,14.64c0.21,1.52,0.41,2.95,0.6,4.2" id="kvg:06eb6-s11" kvg:type="&#12753;" />
					<path d="M47.32,75.38c9.71-1.44,20.97-2.2,27.56-2.84c2.97-0.29,4.89,0.65,3.88,3.96c-1.33,4.31-2.66,7.98-3.95,13.17" id="kvg:06eb6-s12" kvg:type="&#12757;b" />
					<path d="M50.09,92.52c6.99-0.38,14.73-1.1,22.7-1.74c1.52-0.12,3.05-0.24,4.58-0.36" id="kvg:06eb6-s13" kvg:type="&#12752;b" />
				</g>
			</g>
		</g>
	</g>
</g>
</g>
<g id="kvg:StrokeNumbers_06eb6" style="font-size:8;fill:#808080">
	<text transform="matrix(1 0 0 1 11.00 16.38)">1</text>
	<text transform="matrix(1 0 0 1 7.25 40.30)">2</text>
	<text transform="matrix(1 0 0 1 3.50 95.73)">3</text>
	<text transform="matrix(1 0 0 1 53.25 10.25)">4</text>
	<text transform="matrix(1 0 0 1 28.25 33.25)">5</text>
	<text transform="matrix(1 0 0 1 41.25 23.25)">6</text>
	<text transform="matrix(1 0 0 1 45.25 36.25)">7</text>
	<text transform="matrix(1 0 0 1 64.25 34.38)">8</text>
	<text transform="matrix(1 0 0 1 52.25 50.25)">9</text>
	<text transform="matrix(1 0 0 1 68.25 52.25)">10</text>
	<text transform="matrix(1 0 0 1 37.25 81.25)">11</text>
	<text transform="matrix(1 0 0 1 49.25 71.25)">12</text>
	<text transform="matrix(1 0 0 1 52.25 89.25)">13</text>
</g>
</svg>