<svg xmlns="http://www.w3.org/2000/svg" xmlns:kvg="http://kanjivg.tagaini.net" height="109" kun="&#12354;&#12425;.&#12358;" meaning="rinse, wash" on="&#12487;&#12461;, &#12486;&#12461;, &#12472;&#12519;&#12454;" viewBox="0 0 109 109" width="109">
<g id="kvg:StrokePaths_06ecc" style="fill:none;stroke:#000000;stroke-width:3;stroke-linecap:round;stroke-linejoin:round;">
<g id="kvg:06ecc" kvg:element="&#28364;">
	<g id="kvg:06ecc-g1" kvg:element="&#27701;" kvg:original="&#27700;" kvg:position="left" kvg:radical="general" kvg:variant="true">
		<path d="M14.63,15.75c4.1,1.56,10.59,6.41,11.62,8.84" id="kvg:06ecc-s1" kvg:type="&#12756;" />
		<path d="M8.75,43c4.32,1.76,11.17,7.26,12.25,10" id="kvg:06ecc-s2" kvg:type="&#12756;" />
		<path d="M10.75,88.23c1.71,1.27,3.78,1.32,4.86-0.25c3.14-4.57,6.29-10.16,9.14-15.99" id="kvg:06ecc-s3" kvg:type="&#12736;" />
	</g>
	<g id="kvg:06ecc-g2" kvg:element="&#26781;" kvg:position="right">
		<g id="kvg:06ecc-g3" kvg:element="&#25912;" kvg:part="1" kvg:position="left">
			<g id="kvg:06ecc-g4" kvg:element="&#20155;" kvg:original="&#20154;" kvg:position="left" kvg:variant="true">
				<path d="M47.03,16.72c0.2,1.67-0.06,3.85-0.7,5.28c-4.13,9.1-9.36,17.65-18.83,28.73" id="kvg:06ecc-s4" kvg:type="&#12754;" />
				<path d="M36.8,42.24c0.41,0.98,1.09,1.9,1.09,3.16c0,13.98-0.47,38.88-0.47,49.41" id="kvg:06ecc-s5" kvg:type="&#12753;" />
			</g>
			<g id="kvg:06ecc-g5" kvg:element="&#20008;" kvg:position="right">
				<path d="M47.52,34.62c0.86,0.9,1.46,1.95,1.53,4.92c0.35,14.25-0.02,39.95-0.02,44.81" id="kvg:06ecc-s6" kvg:type="&#12753;" />
			</g>
		</g>
		<g id="kvg:06ecc-g6" kvg:position="right">
			<g id="kvg:06ecc-g7" kvg:element="&#25912;" kvg:part="2" kvg:position="top">
				<g id="kvg:06ecc-g8" kvg:element="&#25908;" kvg:original="&#25909;" kvg:variant="true">
					<g id="kvg:06ecc-g9" kvg:position="top">
						<path d="M70.14,15.39c0.04,0.48,0.22,1.26-0.07,1.92c-1.86,4.22-6.89,13.8-13.31,19.64" id="kvg:06ecc-s7" kvg:type="&#12754;" />
						<path d="M70.03,24.87c0.03-0.09,1.49,0.26,2.01,0.23c5.47-0.27,11.64-2.18,19.99-2.61c0.94-0.05,1.51-0.01,1.76,0.04" id="kvg:06ecc-s8" kvg:type="&#12752;" />
					</g>
					<g id="kvg:06ecc-g10" kvg:element="&#20034;" kvg:position="bottom">
						<g id="kvg:06ecc-g11" kvg:element="&#20031;">
							<path d="M85.16,26.53c-0.04,0.86,0.1,2.56-0.65,3.6c-5.7,7.89-11.79,14.98-28.61,22.51" id="kvg:06ecc-s9" kvg:type="&#12754;" />
						</g>
						<path d="M62.26,31.24c5.32,1.55,20.51,14.8,29.92,18.6c1.81,0.73,2.96,0.85,4.45,0.93" id="kvg:06ecc-s10" kvg:type="&#12751;" />
					</g>
				</g>
			</g>
			<g id="kvg:06ecc-g12" kvg:element="&#26408;" kvg:position="bottom">
				<path d="M56.41,64.03c1.06,0.39,2.25,0.42,3.47,0.39c6.62-0.17,24.67-2.34,34.03-3.08c1.21-0.1,1.96,0.07,3.17,0.34" id="kvg:06ecc-s11" kvg:type="&#12752;" />
				<path d="M73.54,50.26c0.58,0.98,1.11,2.21,1.11,2.78c0,5.81,0,40.51-0.12,43.97" id="kvg:06ecc-s12" kvg:type="&#12753;" />
				<path d="M74.23,64.29c-3.64,8.14-13.41,20.59-20.99,25.2" id="kvg:06ecc-s13" kvg:type="&#12754;" />
				<path d="M74.65,64.62c4.33,6.38,15.64,19.02,19.98,22.4c1.18,0.92,2.01,1.52,3.1,1.83" id="kvg:06ecc-s14" kvg:type="&#12751;" />
			</g>
		</g>
	</g>
</g>
</g>
<g id="kvg:StrokeNumbers_06ecc" style="font-size:8;fill:#808080">
	<text transform="matrix(1 0 0 1 7.50 16.13)">1</text>
	<text transform="matrix(1 0 0 1 1.50 43.50)">2</text>
	<text transform="matrix(1 0 0 1 3.50 91.50)">3</text>
	<text transform="matrix(1 0 0 1 39.50 16.50)">4</text>
	<text transform="matrix(1 0 0 1 30.50 56.50)">5</text>
	<text transform="matrix(1 0 0 1 41.50 43.50)">6</text>
	<text transform="matrix(1 0 0 1 63.50 15.50)">7</text>
	<text transform="matrix(1 0 0 1 74.50 21.50)">8</text>
	<text transform="matrix(1 0 0 1 75.50 32.50)">9</text>
	<text transform="matrix(1 0 0 1 60.50 40.50)">10</text>
	<text transform="matrix(1 0 0 1 53.50 61.38)">11</text>
	<text transform="matrix(1 0 0 1 64.50 55.50)">12</text>
	<text transform="matrix(1 0 0 1 59.50 74.98)">13</text>
	<text transform="matrix(1 0 0 1 81.50 71.50)">14</text>
</g>
</svg>