<svg xmlns="http://www.w3.org/2000/svg" xmlns:kvg="http://kanjivg.tagaini.net" height="109" kun="&#12377;&#12409;.&#12427;, &#12394;&#12417;.&#12425;&#12363;" meaning="slippery, slide, slip, fail exam" on="&#12459;&#12484;, &#12467;&#12484;" viewBox="0 0 109 109" width="109">
<g id="kvg:StrokePaths_06ed1" style="fill:none;stroke:#000000;stroke-width:3;stroke-linecap:round;stroke-linejoin:round;">
<g id="kvg:06ed1" kvg:element="&#28369;">
	<g id="kvg:06ed1-g1" kvg:element="&#27701;" kvg:original="&#27700;" kvg:position="left" kvg:radical="general" kvg:variant="true">
		<path d="M21.38,14.75c4.1,1.52,10.59,6.23,11.62,8.59" id="kvg:06ed1-s1" kvg:type="&#12756;" />
		<path d="M16.12,42c4.1,1.28,10.6,5.26,11.62,7.25" id="kvg:06ed1-s2" kvg:type="&#12756;" />
		<path d="M16.93,88.64c1.32,0.56,2.66,0.31,3.45-0.96C23.34,82.92,26.3,77.08,29,71" id="kvg:06ed1-s3" kvg:type="&#12736;" />
	</g>
	<g id="kvg:06ed1-g2" kvg:element="&#39592;" kvg:phon="&#39592;" kvg:position="right">
		<g id="kvg:06ed1-g3" kvg:position="top">
			<path d="M48.47,15.21c0.97,0.97,1.28,2.04,1.4,3.91c0.36,5.54,1.01,20.35,1.01,20.68" id="kvg:06ed1-s4" kvg:type="&#12753;a" />
			<path d="M50.13,16.23c4.75-0.65,21.86-3.39,27.37-4.09c3.23-0.41,4.22,0.34,4.03,3.36c-0.4,6.25-1.15,11.87-1.78,20.72" id="kvg:06ed1-s5" kvg:type="&#12757;b" />
			<path d="M62.34,23.68c0.8,0.8,1.06,1.69,1.06,2.98c0,5.34,0.1,12.72,0.1,11.32" id="kvg:06ed1-s6" kvg:type="&#12753;a" />
			<path d="M64.32,25.45c4.56-0.7,13.89-2.06,15.96-2.3" id="kvg:06ed1-s7" kvg:type="&#12752;a" />
			<path d="M39.26,39.07c0,3.47-2.36,12.57-3.18,14.88" id="kvg:06ed1-s8" kvg:type="&#12756;" />
			<path d="M40.14,42.28c9.29-1.39,36.36-4.91,49.97-5.72c9.52-0.57,2.02,5.68-0.36,7.65" id="kvg:06ed1-s9" kvg:type="&#12758;b" />
		</g>
		<g id="kvg:06ed1-g4" kvg:element="&#26376;" kvg:position="bottom">
			<path d="M50.11,50.12c0.76,0.76,1.11,1.76,1.11,3.1c0,4.28-0.03,25.5-0.03,37.78c0,3.67-0.01,6.19-0.03,6.55" id="kvg:06ed1-s10" kvg:type="&#12753;/&#12754;" />
			<path d="M52.09,51.82c1.95-0.15,17.49-2.22,22.42-2.91c3.71-0.52,5.07,0.3,5.06,4.09c-0.01,5.45-0.05,26.67-0.05,39.83c0,9.09-4.45,3.15-6.3,1.57" id="kvg:06ed1-s11" kvg:type="&#12742;a" />
			<path d="M52.34,63.56c7.6-1.05,19.52-2.14,26.19-2.67" id="kvg:06ed1-s12" kvg:type="&#12752;a" />
			<path d="M52.38,75.92C60.12,75,71.55,74.05,78.4,73.7" id="kvg:06ed1-s13" kvg:type="&#12752;a" />
		</g>
	</g>
</g>
</g>
<g id="kvg:StrokeNumbers_06ed1" style="font-size:8;fill:#808080">
	<text transform="matrix(1 0 0 1 14.50 14.50)">1</text>
	<text transform="matrix(1 0 0 1 8.50 41.50)">2</text>
	<text transform="matrix(1 0 0 1 9.50 91.50)">3</text>
	<text transform="matrix(1 0 0 1 42.50 24.50)">4</text>
	<text transform="matrix(1 0 0 1 51.50 12.50)">5</text>
	<text transform="matrix(1 0 0 1 56.50 31.55)">6</text>
	<text transform="matrix(1 0 0 1 66.75 22.50)">7</text>
	<text transform="matrix(1 0 0 1 32.50 39.50)">8</text>
	<text transform="matrix(1 0 0 1 42.75 38.50)">9</text>
	<text transform="matrix(1 0 0 1 41.50 59.50)">10</text>
	<text transform="matrix(1 0 0 1 53.25 48.50)">11</text>
	<text transform="matrix(1 0 0 1 54.75 60.05)">12</text>
	<text transform="matrix(1 0 0 1 54.75 72.50)">13</text>
</g>
</svg>