<svg xmlns="http://www.w3.org/2000/svg" xmlns:kvg="http://kanjivg.tagaini.net" height="109" meaning="flow, boil" viewBox="0 0 109 109" width="109">
<g id="kvg:StrokePaths_06efe" style="fill:none;stroke:#000000;stroke-width:3;stroke-linecap:round;stroke-linejoin:round;">
<g id="kvg:06efe" kvg:element="&#28414;">
	<g id="kvg:06efe-g1" kvg:element="&#27701;" kvg:original="&#27700;" kvg:position="left" kvg:radical="general" kvg:variant="true">
		<path d="M18.63,16c4.45,1.78,11.5,7.32,12.62,10.09" id="kvg:06efe-s1" kvg:type="&#12756;" />
		<path d="M15,42.5c4.77,1.85,12.31,7.62,13.5,10.5" id="kvg:06efe-s2" kvg:type="&#12756;" />
		<path d="M17.75,90.23c1.71,1.27,3.78,1.32,4.86-0.25c3.14-4.57,6.29-10.16,9.14-15.99" id="kvg:06efe-s3" kvg:type="&#12736;" />
	</g>
	<g id="kvg:06efe-g2" kvg:element="&#34974;" kvg:position="right">
		<g id="kvg:06efe-g3" kvg:element="&#21696;" kvg:part="1" kvg:position="top">
			<g id="kvg:06efe-g4" kvg:element="&#35023;">
				<g id="kvg:06efe-g5" kvg:element="&#34915;" kvg:part="1">
					<g id="kvg:06efe-g6" kvg:element="&#20128;">
						<path d="M63.14,11.35c0.83,0.57,2.21,2.79,2.21,3.93c0,4.21-0.26,4.42-0.11,7.98" id="kvg:06efe-s4" kvg:type="&#12753;a" />
						<path d="M40.11,24.74c1.29,0.12,4.22,0.8,5.47,0.63c10.1-1.33,29.57-2.64,43.29-2.98c2.12-0.05,3.2,0.05,4.78,0.81" id="kvg:06efe-s5" kvg:type="&#12752;" />
					</g>
				</g>
			</g>
		</g>
		<g id="kvg:06efe-g7" kvg:position="bottom">
			<g id="kvg:06efe-g8" kvg:element="&#20843;">
				<g id="kvg:06efe-g9" kvg:position="left">
					<path d="M54.69,29.39c0.04,0.32,0.09,0.83-0.08,1.28c-1,2.71-6.74,8.65-14.6,12.29" id="kvg:06efe-s6" kvg:type="&#12754;" />
				</g>
				<g id="kvg:06efe-g10" kvg:position="right">
					<path d="M74.44,28.33c6.26,2.19,16.17,8.98,17.74,12.38" id="kvg:06efe-s7" kvg:type="&#12751;" />
				</g>
			</g>
			<g id="kvg:06efe-g11" kvg:element="&#21696;" kvg:part="2">
				<g id="kvg:06efe-g12" kvg:element="&#21475;">
					<path d="M49.74,42.47c0.32,0.29,0.66,0.54,0.8,0.91c1.13,2.91,2.06,10.37,2.83,15.59" id="kvg:06efe-s8" kvg:type="&#12753;" />
					<path d="M51.76,43.46c7.95-1.22,22.95-2.79,27.05-3.2c1.5-0.15,2.9,2.02,2.68,2.9c-0.89,3.66-1.57,5.54-3.05,11.67" id="kvg:06efe-s9" kvg:type="&#12757;b" />
					<path d="M54.1,57.11c4.81-0.46,20.1-1.35,26.21-1.82" id="kvg:06efe-s10" kvg:type="&#12752;b" />
				</g>
			</g>
			<g id="kvg:06efe-g13" kvg:element="&#34915;" kvg:part="2">
				<path d="M62.53,58.41c0.08,0.56-0.08,2.08-0.65,2.75C57.75,66,50,75,35.56,82.17" id="kvg:06efe-s11" kvg:type="&#12754;" />
				<path d="M53.12,74.75c0.38,0.46,0.79,0.9,0.78,1.7c-0.02,10.04-0.75,15.88-0.75,17.58c0,1.7,1.93,2.17,3.1,0.89c1.18-1.27,13.26-10.07,14.83-11.34" id="kvg:06efe-s12" kvg:type="&#12761;" />
				<path d="M85.2,62.39c0.03,0.27,0.3,1.3,0.13,1.65c-1.05,2.22-4.34,5.4-9.69,9.82" id="kvg:06efe-s13" kvg:type="&#12754;" />
				<path d="M64.99,63.08c5.64,6.2,19.94,21.21,23.95,24.61c1.51,1.28,2.8,1.83,4.31,2.2" id="kvg:06efe-s14" kvg:type="&#12751;" />
			</g>
		</g>
	</g>
</g>
</g>
<g id="kvg:StrokeNumbers_06efe" style="font-size:8;fill:#808080">
	<text transform="matrix(1 0 0 1 10.50 15.88)">1</text>
	<text transform="matrix(1 0 0 1 7.50 42.50)">2</text>
	<text transform="matrix(1 0 0 1 9.50 93.50)">3</text>
	<text transform="matrix(1 0 0 1 54.75 10.65)">4</text>
	<text transform="matrix(1 0 0 1 43.50 18.33)">5</text>
	<text transform="matrix(1 0 0 1 45.50 33.50)">6</text>
	<text transform="matrix(1 0 0 1 65.50 32.50)">7</text>
	<text transform="matrix(1 0 0 1 43.50 50.50)">8</text>
	<text transform="matrix(1 0 0 1 56.50 39.50)">9</text>
	<text transform="matrix(1 0 0 1 56.50 53.50)">10</text>
	<text transform="matrix(1 0 0 1 45.50 67.50)">11</text>
	<text transform="matrix(1 0 0 1 43.50 86.50)">12</text>
	<text transform="matrix(1 0 0 1 75.25 63.98)">13</text>
	<text transform="matrix(1 0 0 1 60.50 72.15)">14</text>
</g>
</svg>