<svg xmlns="http://www.w3.org/2000/svg" xmlns:kvg="http://kanjivg.tagaini.net" height="109" kun="&#12375;&#12378;&#12367;, &#12375;&#12383;&#12383;.&#12427;" meaning="drip, drop" on="&#12486;&#12461;" viewBox="0 0 109 109" width="109">
<g id="kvg:StrokePaths_06ef4" style="fill:none;stroke:#000000;stroke-width:3;stroke-linecap:round;stroke-linejoin:round;">
<g id="kvg:06ef4" kvg:element="&#28404;">
	<g id="kvg:06ef4-g1" kvg:element="&#27701;" kvg:original="&#27700;" kvg:position="left" kvg:radical="general" kvg:variant="true">
		<path d="M20.38,17.75c3.57,1.38,9.22,5.94,10.12,8.09" id="kvg:06ef4-s1" kvg:type="&#12756;" />
		<path d="M15,44.75c3.79,1.28,9.8,5.26,10.75,7.25" id="kvg:06ef4-s2" kvg:type="&#12756;" />
		<path d="M15.160000,91.180000C16.400000,91.690000,17.650000,91.410000,18.390000,90.150000C21.260000,85.250000,24.140000,79.250000,26.750000,73.000000" id="kvg:06ef4-s3" kvg:type="&#12736;" />
	</g>
	<g id="kvg:06ef4-g2" kvg:phon="&#21831;" kvg:position="right">
		<g id="kvg:06ef4-g3" kvg:element="&#20128;">
			<path d="M62.43,12.25c1.16,1.16,1.38,2.12,1.38,3.75c0,1.92,0,5,0,7.77" id="kvg:06ef4-s4" kvg:type="&#12753;a" />
			<path d="M39.95,26.66c2.52,0.62,5.25,0.4,7.81,0.14c9.38-0.95,24.11-2.68,34.87-3.59c2.82-0.24,5.61-0.19,8.41,0.23" id="kvg:06ef4-s5" kvg:type="&#12752;" />
		</g>
		<path d="M49.91,30.9c4.13,4.02,6.01,8.13,6.39,10.78" id="kvg:06ef4-s6" kvg:type="&#12756;" />
		<path d="M76.37,27.19c0.26,0.69,0.32,1.44,0.18,1.79c-1.3,3.27-4.17,8.4-5.94,11.18" id="kvg:06ef4-s7" kvg:type="&#12754;" />
		<g id="kvg:06ef4-g4" kvg:element="&#20866;">
			<path d="M41.95,43.93c1,1,1.17,2.19,1.17,3.71c0,1.22-0.2,29.22-0.11,41.6c0.02,3.07,0.03,5.19,0.03,5.69" id="kvg:06ef4-s8" kvg:type="&#12753;" />
			<path d="M44.16,45.88c5.99-0.63,32.61-3.04,39.73-3.59c3.51-0.27,5.54,0.24,5.54,3.96c0,7.64,0,41.8,0,45.31c0,9.75-6.33,2.45-8.35,0.25" id="kvg:06ef4-s9" kvg:type="&#12742;a" />
		</g>
		<g id="kvg:06ef4-g5" kvg:element="&#21476;">
			<g id="kvg:06ef4-g6" kvg:element="&#21313;" kvg:position="top">
				<path d="M50.01,57.47c1.65,0.49,3.21,0.29,4.88,0.1C59.9,57,69.32,55.6,75.38,55.15c1.58-0.12,3.53-0.43,5.12-0.14" id="kvg:06ef4-s10" kvg:type="&#12752;" />
				<path d="M63.25,47.22c1.14,1.14,1.45,2.28,1.45,4.27c0,6.72-0.08,10.7-0.08,14.63" id="kvg:06ef4-s11" kvg:type="&#12753;a" />
			</g>
			<g id="kvg:06ef4-g7" kvg:element="&#21475;" kvg:position="bottom">
				<path d="M53.36,67.5c0.57,0.57,0.89,1.37,1.23,2.3c0.63,1.75,1.45,5.95,2.23,10.14c0.23,1.24,0.44,2.42,0.59,3.45" id="kvg:06ef4-s12" kvg:type="&#12753;" />
				<path d="M55.32,67.94c5.75-0.73,13.92-1.71,18.18-1.96c2.53-0.15,3.74,0.09,3.24,2.77c-0.53,2.84-1.32,6.2-2.01,9.24" id="kvg:06ef4-s13" kvg:type="&#12757;b" />
				<path d="M58.31,81.04c3.55-0.16,9.46-1.16,14.67-1.67c1.24-0.12,2.4-0.22,3.42-0.27" id="kvg:06ef4-s14" kvg:type="&#12752;b" />
			</g>
		</g>
	</g>
</g>
</g>
<g id="kvg:StrokeNumbers_06ef4" style="font-size:8;fill:#808080">
	<text transform="matrix(1 0 0 1 12.75 18.13)">1</text>
	<text transform="matrix(1 0 0 1 7.50 45.05)">2</text>
	<text transform="matrix(1 0 0 1 7.50 93.50)">3</text>
	<text transform="matrix(1 0 0 1 53.25 12.13)">4</text>
	<text transform="matrix(1 0 0 1 40.50 24.50)">5</text>
	<text transform="matrix(1 0 0 1 44.50 35.98)">6</text>
	<text transform="matrix(1 0 0 1 68.50 33.50)">7</text>
	<text transform="matrix(1 0 0 1 35.25 52.63)">8</text>
	<text transform="matrix(1 0 0 1 42.50 42.50)">9</text>
	<text transform="matrix(1 0 0 1 46.50 54.50)">10</text>
	<text transform="matrix(1 0 0 1 55.50 52.48)">11</text>
	<text transform="matrix(1 0 0 1 46.50 74.50)">12</text>
	<text transform="matrix(1 0 0 1 51.50 65.50)">13</text>
	<text transform="matrix(1 0 0 1 58.50 77.50)">14</text>
</g>
</svg>