<svg xmlns="http://www.w3.org/2000/svg" xmlns:kvg="http://kanjivg.tagaini.net" height="109" kun="&#12354;&#12373;.&#12427;" meaning="fishing, fishery" on="&#12462;&#12519;, &#12522;&#12519;&#12454;" viewBox="0 0 109 109" width="109">
<g id="kvg:StrokePaths_06f01" style="fill:none;stroke:#000000;stroke-width:3;stroke-linecap:round;stroke-linejoin:round;">
<g id="kvg:06f01" kvg:element="&#28417;">
	<g id="kvg:06f01-g1" kvg:element="&#27701;" kvg:original="&#27700;" kvg:position="left" kvg:radical="general" kvg:variant="true">
		<path d="M21.88,17c3.57,1.3,8.49,5,10.12,7.59" id="kvg:06f01-s1" kvg:type="&#12756;" />
		<path d="M16.88,39.62c3.93,1.43,10.14,5.9,11.12,8.12" id="kvg:06f01-s2" kvg:type="&#12756;" />
		<path d="M16.86,86.03c1.02,0.34,2.14-0.16,3.32-1.81c3.19-4.47,5.89-10.31,8.57-16.22" id="kvg:06f01-s3" kvg:type="&#12736;" />
	</g>
	<g id="kvg:06f01-g2" kvg:element="&#39770;" kvg:phon="&#39770;" kvg:position="right">
		<g id="kvg:06f01-g3" kvg:element="&#131210;" kvg:original="&#21241;" kvg:position="top" kvg:variant="true">
			<path d="M59.87,16.38c0.19,1.1,0.04,2.02-0.48,2.95c-2.63,4.75-7.62,11.68-16.69,18.43" id="kvg:06f01-s4" kvg:type="&#12754;" />
			<path d="M58.99,22.4c0.56,0,1.81-0.12,3.38-0.31c4.47-0.53,10.59-1.35,12.25-1.67c2.75-0.54,3.63,1.58,2.14,3.48C73.2,28.41,69,33,63.43,40.34" id="kvg:06f01-s5" kvg:type="&#12743;" />
		</g>
		<g id="kvg:06f01-g4" kvg:position="bottom">
			<g id="kvg:06f01-g5" kvg:element="&#30000;">
				<path d="M45.53,41.57c0.95,0.95,1.49,2.1,1.81,3.81c0.93,4.92,1.47,14.28,2.08,22c0.11,1.38,0.22,2.7,0.34,3.94" id="kvg:06f01-s6" kvg:type="&#12753;" />
				<path d="M48.19,43.46c9.93-1.13,25.06-3.09,34.32-4.07c3.93-0.42,6.11,0.85,5.63,4.11c-0.74,5.01-1.91,12.66-3.66,20.87c-0.26,1.22-0.53,2.46-0.82,3.69" id="kvg:06f01-s7" kvg:type="&#12757;a" />
				<path d="M65.55,43.65c0.96,0.96,1.37,2.05,1.41,3.6c0.16,6.84-0.22,15.54-0.22,18.93" id="kvg:06f01-s8" kvg:type="&#12753;a" />
				<path d="M49.67,56.13c7.83-0.88,29.45-3.25,35.66-3.63" id="kvg:06f01-s9" kvg:type="&#12752;a" />
				<path d="M50.8,69.01c9.7-1.14,21.82-2.42,32.36-3.26" id="kvg:06f01-s10" kvg:type="&#12752;a" />
			</g>
			<g id="kvg:06f01-g6" kvg:element="&#28780;" kvg:original="&#28779;" kvg:variant="true">
				<path d="M42.2,79.6c0,4.85-6.55,12.01-8.26,13.4" id="kvg:06f01-s11" kvg:type="&#12756;" />
				<path d="M54.12,78.5c1.8,2.56,3.51,9.61,3.96,13.6" id="kvg:06f01-s12" kvg:type="&#12756;" />
				<path d="M68.9,76.67c2.4,2.55,6.19,10.48,6.79,14.45" id="kvg:06f01-s13" kvg:type="&#12756;" />
				<path d="M87.29,77.12c3.16,2.43,8.17,9.98,8.96,13.76" id="kvg:06f01-s14" kvg:type="&#12756;" />
			</g>
		</g>
	</g>
</g>
</g>
<g id="kvg:StrokeNumbers_06f01" style="font-size:8;fill:#808080">
	<text transform="matrix(1 0 0 1 13.99 18.13)">1</text>
	<text transform="matrix(1 0 0 1 9.50 40.56)">2</text>
	<text transform="matrix(1 0 0 1 8.50 89.50)">3</text>
	<text transform="matrix(1 0 0 1 52.50 17.50)">4</text>
	<text transform="matrix(1 0 0 1 63.50 18.50)">5</text>
	<text transform="matrix(1 0 0 1 39.49 50.76)">6</text>
	<text transform="matrix(1 0 0 1 52.99 40.18)">7</text>
	<text transform="matrix(1 0 0 1 59.38 49.48)">8</text>
	<text transform="matrix(1 0 0 1 51.75 53.28)">9</text>
	<text transform="matrix(1 0 0 1 51.25 65.38)">10</text>
	<text transform="matrix(1 0 0 1 33.07 80.50)">11</text>
	<text transform="matrix(1 0 0 1 45.07 81.00)">12</text>
	<text transform="matrix(1 0 0 1 59.62 80.00)">13</text>
	<text transform="matrix(1 0 0 1 77.00 79.62)">14</text>
</g>
</svg>