<svg xmlns="http://www.w3.org/2000/svg" xmlns:kvg="http://kanjivg.tagaini.net" height="109" meaning="vague, obscure, desert, wide" viewBox="0 0 109 109" width="109">
<g id="kvg:StrokePaths_06f20" style="fill:none;stroke:#000000;stroke-width:3;stroke-linecap:round;stroke-linejoin:round;">
<g id="kvg:06f20" kvg:element="&#28448;">
	<g id="kvg:06f20-g1" kvg:element="&#27701;" kvg:original="&#27700;" kvg:position="left" kvg:radical="general" kvg:variant="true">
		<path d="M18.63,18c3.84,1.47,9.91,6.05,10.87,8.34" id="kvg:06f20-s1" kvg:type="&#12756;" />
		<path d="M15,40.75c4.06,1.46,10.48,5.99,11.5,8.25" id="kvg:06f20-s2" kvg:type="&#12756;" />
		<path d="M16.25,90.73c1.38,0.61,2.57-0.09,3.26-1.47c3.48-6.88,6.01-11.58,8.74-17.76" id="kvg:06f20-s3" kvg:type="&#12736;" />
	</g>
	<g id="kvg:06f20-g2" kvg:element="&#33707;" kvg:phon="&#33707;" kvg:position="right">
		<g id="kvg:06f20-g3" kvg:element="&#33401;" kvg:original="&#33400;" kvg:position="top" kvg:variant="true">
			<path d="M40.28,25.46c2.35,0.41,4.95,0.42,7.24,0.13c10.7-1.35,27.73-2.97,38.49-3.95c2.09-0.19,4.3-0.13,6.33,0.44" id="kvg:06f20-s4" kvg:type="&#12752;" />
			<path d="M52.09,15.38c0.95,0.95,1.48,2.04,1.6,2.89c0.81,5.73,1.64,12.16,2.06,15.05" id="kvg:06f20-s5" kvg:type="&#12753;a" />
			<path d="M76.96,13.19c0.42,1.43,0.28,2.46-0.08,3.87c-1.63,6.44-1.85,7.59-3.53,14.32" id="kvg:06f20-s6" kvg:type="&#12753;a" />
		</g>
		<g id="kvg:06f20-g4" kvg:position="bottom">
			<g id="kvg:06f20-g5" kvg:element="&#26085;">
				<path d="M44.36,38.64c0.81,0.81,1.39,1.99,1.64,3.07c1.07,4.7,1.99,11.06,2.63,14.77c0.22,1.26,0.51,3.53,0.66,4.25" id="kvg:06f20-s7" kvg:type="&#12753;" />
				<path d="M46.56,40.51c8.31-1.39,27.69-3.76,35.44-4.47c3.1-0.28,4.82,1.44,4.27,4.47c-0.67,3.67-2.28,10.08-3.34,14.54c-0.38,1.58-0.71,2.97-0.97,4.02" id="kvg:06f20-s8" kvg:type="&#12757;a" />
				<path d="M48.57,49.53c9.06-1.03,24.81-2.78,35.26-3.21" id="kvg:06f20-s9" kvg:type="&#12752;a" />
				<path d="M50.21,59.21C58.75,58.5,72.24,57.02,81.3,56.69" id="kvg:06f20-s10" kvg:type="&#12752;a" />
			</g>
			<g id="kvg:06f20-g6" kvg:element="&#22823;">
				<path d="M37.82,72.85c2.07,0.57,4.57,0.55,6.68,0.28c15.12-1.88,30.62-3,44.13-3.84c2.41-0.15,5.86,0.09,7.86,0.65" id="kvg:06f20-s11" kvg:type="&#12752;" />
				<path d="M64.38,63.01c0.74,0.99,0.71,2.27,0.53,3.25C62.25,80,53,91,38,96.56" id="kvg:06f20-s12" kvg:type="&#12754;" />
				<path d="M65.24,71.61c5.67,5.04,13.88,12.77,22.53,20.16c2.12,1.81,4.47,3.38,6.96,4.58" id="kvg:06f20-s13" kvg:type="&#12751;" />
			</g>
		</g>
	</g>
</g>
</g>
<g id="kvg:StrokeNumbers_06f20" style="font-size:8;fill:#808080">
	<text transform="matrix(1 0 0 1 11.50 18.13)">1</text>
	<text transform="matrix(1 0 0 1 8.25 41.50)">2</text>
	<text transform="matrix(1 0 0 1 6.50 93.50)">3</text>
	<text transform="matrix(1 0 0 1 35.25 22.63)">4</text>
	<text transform="matrix(1 0 0 1 44.25 12.13)">5</text>
	<text transform="matrix(1 0 0 1 68.25 10.63)">6</text>
	<text transform="matrix(1 0 0 1 38.25 48.13)">7</text>
	<text transform="matrix(1 0 0 1 48.50 37.63)">8</text>
	<text transform="matrix(1 0 0 1 51.75 47.50)">9</text>
	<text transform="matrix(1 0 0 1 51.75 56.98)">10</text>
	<text transform="matrix(1 0 0 1 35.25 70.41)">11</text>
	<text transform="matrix(1 0 0 1 53.50 66.50)">12</text>
	<text transform="matrix(1 0 0 1 80.25 82.63)">13</text>
</g>
</svg>