<svg xmlns="http://www.w3.org/2000/svg" xmlns:kvg="http://kanjivg.tagaini.net" height="109" kun="&#12363;&#12383;, -&#12364;&#12383;" meaning="lagoon" on="&#12475;&#12461;" viewBox="0 0 109 109" width="109">
<g id="kvg:StrokePaths_06f5f" style="fill:none;stroke:#000000;stroke-width:3;stroke-linecap:round;stroke-linejoin:round;">
<g id="kvg:06f5f" kvg:element="&#28511;">
	<g id="kvg:06f5f-g1" kvg:element="&#27701;" kvg:original="&#27700;" kvg:position="left" kvg:radical="general" kvg:variant="true">
		<path d="M20.62,16.62c3.93,1.63,10.14,6.69,11.12,9.22" id="kvg:06f5f-s1" kvg:type="&#12756;" />
		<path d="M15,40.25c3.79,1.54,9.8,6.35,10.75,8.75" id="kvg:06f5f-s2" kvg:type="&#12756;" />
		<path d="M14.41,89.45c1.18,0.49,2.38,0.22,3.09-0.99C20.25,83.75,23,78,25.5,72" id="kvg:06f5f-s3" kvg:type="&#12736;" />
	</g>
	<g id="kvg:06f5f-g2" kvg:element="&#33284;" kvg:phon="&#33284;" kvg:position="right">
		<g id="kvg:06f5f-g3" kvg:element="&#33276;">
			<path d="M58.78,11.71c0.13,0.79-0.22,1.69-0.77,2.19c-2.78,2.56-4.99,4.19-11.72,8.26" id="kvg:06f5f-s4" kvg:type="&#12754;" />
			<path d="M42.58,21.82c0.87,0.87,1.42,1.97,1.61,3.21c0.69,4.48,1.49,13.4,2.38,20.72c0.21,1.76,0.39,3.32,0.51,4.51" id="kvg:06f5f-s5" kvg:type="&#12753;" />
			<path d="M68.91,19.12c0.79,0.14,1.44,0.36,2.53,0.17c3.66-0.66,11.38-1.75,14.42-2.15c2.21-0.29,3.61,0.1,3.13,2.54c-1.25,6.33-3.77,15.84-5.89,23.02c-0.62,2.09-1.2,3.99-1.71,5.54" id="kvg:06f5f-s6" kvg:type="&#12757;" />
			<path d="M46.49,34.38 c 0.79,0.14,1.42,0.42,2.53,0.42c1.11,0,12.48-1.36,13.75-1.49" id="kvg:06f5f-s7" kvg:type="&#12752;" />
			<path d="M68.72,32.2c0.79,0.14,1.42,0.42,2.53,0.42c1.11,0,12.48-1.36,13.75-1.49" id="kvg:06f5f-s8" kvg:type="&#12752;c" />
			<path d="M47.98,47.9c14.77-1.27,24.27-2.27,33.03-2.69" id="kvg:06f5f-s9" kvg:type="&#12752;a" />
		</g>
		<g id="kvg:06f5f-g4" kvg:element="&#21241;">
			<g id="kvg:06f5f-g5" kvg:element="&#20031;">
				<path d="M52.53,51.75c0.12,1.11-0.25,2.36-0.89,3.32c-3.39,5.06-9.77,12.06-19.39,18.18" id="kvg:06f5f-s10" kvg:type="&#12754;" />
			</g>
			<path d="M50.23,62.16c2.52,0.47,4.78,0.41,7.01,0.16c7.28-0.81,26.23-2.47,31.76-2.81c4.65-0.29,6.07,1.17,4.99,5.64c-2.2,9.13-5.54,17.68-10.28,26.97c-2.26,4.42-4.56,4.18-8.15,1" id="kvg:06f5f-s11" kvg:type="&#12742;" />
		</g>
		<g id="kvg:06f5f-g6" kvg:element="&#28780;" kvg:original="&#28779;" kvg:variant="true">
			<path d="M35.85,77.38c0,3.15-0.35,9.5-1.29,12.12" id="kvg:06f5f-s12" kvg:type="&#12756;" />
			<path d="M48,73.5c2.73,2.11,5.31,7.93,6,11.22" id="kvg:06f5f-s13" kvg:type="&#12756;" />
			<path d="M60.38,70.62c2.28,1.83,5.88,7.5,6.45,10.34" id="kvg:06f5f-s14" kvg:type="&#12756;" />
			<path d="M72,68.25c2.58,1.58,6.66,6.51,7.31,8.97" id="kvg:06f5f-s15" kvg:type="&#12756;" />
		</g>
	</g>
</g>
</g>
<g id="kvg:StrokeNumbers_06f5f" style="font-size:8;fill:#808080">
	<text transform="matrix(1 0 0 1 13.50 16.50)">1</text>
	<text transform="matrix(1 0 0 1 7.50 40.50)">2</text>
	<text transform="matrix(1 0 0 1 6.50 92.50)">3</text>
	<text transform="matrix(1 0 0 1 50.50 11.50)">4</text>
	<text transform="matrix(1 0 0 1 36.50 28.55)">5</text>
	<text transform="matrix(1 0 0 1 67.50 16.50)">6</text>
	<text transform="matrix(1 0 0 1 49.50 31.50)">7</text>
	<text transform="matrix(1 0 0 1 68.25 29.50)">8</text>
	<text transform="matrix(1 0 0 1 50.25 44.50)">9</text>
	<text transform="matrix(1 0 0 1 38.50 58.63)">10</text>
	<text transform="matrix(1 0 0 1 57.50 59.50)">11</text>
	<text transform="matrix(1 0 0 1 26.50 83.50)">12</text>
	<text transform="matrix(1 0 0 1 39.75 80.50)">13</text>
	<text transform="matrix(1 0 0 1 51.50 74.50)">14</text>
	<text transform="matrix(1 0 0 1 63.50 71.50)">15</text>
</g>
</svg>