<svg xmlns="http://www.w3.org/2000/svg" xmlns:kvg="http://kanjivg.tagaini.net" height="109" kun="&#12405;&#12385;" meaning="shore, banks" on="&#12472;&#12531;" viewBox="0 0 109 109" width="109">
<g id="kvg:StrokePaths_06f6f" style="fill:none;stroke:#000000;stroke-width:3;stroke-linecap:round;stroke-linejoin:round;">
<g id="kvg:06f6f" kvg:element="&#28527;">
	<g id="kvg:06f6f-g1" kvg:element="&#27701;" kvg:original="&#27700;" kvg:position="left" kvg:radical="general" kvg:variant="true">
		<path d="M18.38,16c4.01,1.6,10.36,6.6,11.37,9.09" id="kvg:06f6f-s1" kvg:type="&#12756;" />
		<path d="M15,42.25c4.06,1.54,10.48,6.35,11.5,8.75" id="kvg:06f6f-s2" kvg:type="&#12756;" />
		<path d="M13.25,88.73c1.71,1.27,3.78,1.32,4.86-0.25c3.14-4.57,7.29-13.66,10.14-19.49" id="kvg:06f6f-s3" kvg:type="&#12736;" />
	</g>
	<g id="kvg:06f6f-g2" kvg:element="&#23563;" kvg:position="right">
		<g id="kvg:06f6f-g3" kvg:position="top">
			<g id="kvg:06f6f-g4" kvg:element="&#11925;" kvg:original="&#24401;" kvg:position="top" kvg:variant="true">
				<path d="M46.17,15.84c1.94,0.21,2.86,0.57,4.64,0.43c10.84-0.85,21.45-2.52,28.96-3.27c2.5-0.25,3.8,1.56,3.42,3.69c-1.01,5.57-1.74,6.8-3.1,16.39" id="kvg:06f6f-s4" kvg:type="&#12757;" />
				<path d="M37.85,25.52c2.02,0.17,3.59,0.53,5.82,0.34c15.58-1.36,32.13-3.3,46.08-3.98c2.32-0.11,4.49-0.38,6.89,0.25" id="kvg:06f6f-s5" kvg:type="&#12752;" />
				<path d="M44.61,35c0.97,0.13,2.71,0.46,3.87,0.39c10.64-0.65,20.34-2.19,30.02-2.45c1.55-0.04,2.52,0,3.68,0.13" id="kvg:06f6f-s6" kvg:type="&#12752;c" />
			</g>
			<g id="kvg:06f6f-g5" kvg:position="bottom">
				<g id="kvg:06f6f-g6" kvg:element="&#24037;" kvg:position="left">
					<path d="M38.28,44.81c0.54,0.18,1.61,0.21,2.16,0.17c3.46-0.31,13.05-1.83,16.9-2.12c0.9-0.07,1.88-0.08,2.34,0" id="kvg:06f6f-s7" kvg:type="&#12752;" />
					<path d="M48.19,45c0.9,0.31,1.62,1.39,1.62,2.03c0,4.52,0.03,4.78,0.03,11.48" id="kvg:06f6f-s8" kvg:type="&#12753;a" />
					<path d="M38.44,61.94c0.57,0.56,1.72,0.86,3.44,0.12c4.78-2.05,13.37-5.7,18.15-7.74" id="kvg:06f6f-s9" kvg:type="&#12752;" />
				</g>
				<g id="kvg:06f6f-g7" kvg:element="&#21475;" kvg:position="right">
					<path d="M65.19,40.84c0.43,0.29,0.87,0.54,1.05,0.9c1.48,2.9,2.24,10.3,3.25,15.51" id="kvg:06f6f-s10" kvg:type="&#12753;" />
					<path d="M66.6,42.97c7.76-1.58,17.21-2.83,21.66-3.23c1.62-0.15,2.6,0.86,2.37,1.72c-0.96,3.54-2.09,7.33-3.52,12.23" id="kvg:06f6f-s11" kvg:type="&#12757;b" />
					<path d="M69.69,55.09c5.22-0.37,12.87-1,20.04-1.56" id="kvg:06f6f-s12" kvg:type="&#12752;b" />
				</g>
			</g>
		</g>
		<g id="kvg:06f6f-g8" kvg:element="&#23544;" kvg:position="bottom">
			<path d="M34.63,71.48c1.84,0.78,5.2,0.88,7.08,0.78C64,71,69.64,68.94,92.17,67.76c3.07-0.16,4.92,0.37,6.46,0.76" id="kvg:06f6f-s13" kvg:type="&#12752;" />
			<path d="M77.85,60.32c0.07,0.42,1.01,2.2,1.01,4.89c0,18.07-0.2,23.18-0.2,27.57c0,10.66-6.69,1.58-8.45,0.22" id="kvg:06f6f-s14" kvg:type="&#12762;" />
			<path d="M51.12,77.62c2.45,1.89,6.33,7.76,6.95,10.7" id="kvg:06f6f-s15" kvg:type="&#12756;" />
		</g>
	</g>
</g>
</g>
<g id="kvg:StrokeNumbers_06f6f" style="font-size:8;fill:#808080">
	<text transform="matrix(1 0 0 1 11.50 16.50)">1</text>
	<text transform="matrix(1 0 0 1 6.50 42.50)">2</text>
	<text transform="matrix(1 0 0 1 6.25 91.50)">3</text>
	<text transform="matrix(1 0 0 1 39.50 15.50)">4</text>
	<text transform="matrix(1 0 0 1 35.50 22.50)">5</text>
	<text transform="matrix(1 0 0 1 37.50 35.50)">6</text>
	<text transform="matrix(1 0 0 1 31.25 45.50)">7</text>
	<text transform="matrix(1 0 0 1 42.50 52.50)">8</text>
	<text transform="matrix(1 0 0 1 34.50 57.50)">9</text>
	<text transform="matrix(1 0 0 1 57.50 50.50)">10</text>
	<text transform="matrix(1 0 0 1 67.50 40.50)">11</text>
	<text transform="matrix(1 0 0 1 71.50 51.50)">12</text>
	<text transform="matrix(1 0 0 1 31.50 68.50)">13</text>
	<text transform="matrix(1 0 0 1 67.50 64.50)">14</text>
	<text transform="matrix(1 0 0 1 40.25 82.50)">15</text>
</g>
</svg>