<svg xmlns="http://www.w3.org/2000/svg" xmlns:kvg="http://kanjivg.tagaini.net" height="109" meaning="flowing of tears" viewBox="0 0 109 109" width="109">
<g id="kvg:StrokePaths_06f78" style="fill:none;stroke:#000000;stroke-width:3;stroke-linecap:round;stroke-linejoin:round;">
<g id="kvg:06f78" kvg:element="&#28536;">
	<g id="kvg:06f78-g1" kvg:element="&#27701;" kvg:original="&#27700;" kvg:position="left" kvg:radical="general" kvg:variant="true">
		<path d="M18.88,16.25c3.84,1.65,9.91,6.78,10.87,9.34" id="kvg:06f78-s1" kvg:type="&#12756;" />
		<path d="M14.5,41.75C18.91,43.38,25.9,48.46,27,51" id="kvg:06f78-s2" kvg:type="&#12756;" />
		<path d="M14.25,88.73c1.71,1.27,3.78,1.32,4.86-0.25c3.14-4.57,9.79-16.66,12.64-22.49" id="kvg:06f78-s3" kvg:type="&#12736;" />
	</g>
	<g id="kvg:06f78-g2" kvg:position="right">
		<g id="kvg:06f78-g3" kvg:element="&#26519;" kvg:position="top" kvg:variant="true">
			<g id="kvg:06f78-g4" kvg:element="&#26408;" kvg:position="left" kvg:variant="true">
				<path d="M36.33,25.22c0.51,0.21,2.05,0.68,3.41,0.5c4.77-0.63,11.74-1.17,16.86-1.58c1.36-0.11,2.38-0.13,3.24,0.08" id="kvg:06f78-s4" kvg:type="&#12752;" />
				<path d="M48.09,12.68c0.97,0.38,1.55,1.71,1.74,2.47c0.19,0.76,0,30.29-0.19,35.04" id="kvg:06f78-s5" kvg:type="&#12753;" />
				<path d="M40.84,34.17c0.01,0.37-0.02,0.96-0.02,1.5c0,4.33-0.32,9.58-3.48,14.33" id="kvg:06f78-s6" kvg:type="&#12754;" />
				<path d="M57.62,31.3c0.63,0.25,1,1.11,1.13,1.6c0.13,0.49,0,8.93-0.12,12.01" id="kvg:06f78-s7" kvg:type="&#12756;" />
			</g>
			<g id="kvg:06f78-g5" kvg:element="&#26408;" kvg:position="right">
				<path d="M65.71,23.3c0.52,0.21,1.64,0.33,3.01,0.21c4.85-0.42,9.31-0.37,18.78-1.42c1.37-0.15,2.57-0.21,3.43,0" id="kvg:06f78-s8" kvg:type="&#12752;" />
				<path d="M76.43,11.03c0.91,0.36,1.46,1.62,1.65,2.33c0.18,0.72,0,31.17-0.18,35.66" id="kvg:06f78-s9" kvg:type="&#12753;" />
				<path d="M69.31,30.95c0.01,0.43-0.03,1.1-0.03,1.71c0,4.58-1.28,12.08-4.91,16.37" id="kvg:06f78-s10" kvg:type="&#12754;" />
				<path d="M85.33,29.47c0.98,0.29,1.75,1.88,1.77,2.54c0.07,2.93-0.19,6.23-0.19,8.22c0,4.78,1.16,6.14,4.28,6.12c4.29-0.02,4.71-1.35,4.71-5.26" id="kvg:06f78-s11" kvg:type="&#12767;/&#12751;" />
			</g>
		</g>
		<g id="kvg:06f78-g6" kvg:element="&#26376;" kvg:position="bottom">
			<path d="M48.5,56.74c0.61,0.82,1.22,1.61,1.22,2.45c0,24.57-0.23,30.57-6.48,37.7" id="kvg:06f78-s12" kvg:type="&#12754;" />
			<path d="M49.45,57.87c2.45-0.2,27.41-2.65,29.23-2.88c3.27-0.41,4.49,2.65,4.08,3.88c-0.39,1.18-0.61,13.2-0.61,29.73c0,10.61-4.9,3.67-6.94,1.84" id="kvg:06f78-s13" kvg:type="&#12742;a" />
			<path d="M49.95,69.58c9.05-0.83,24.54-1.56,31.88-2.17" id="kvg:06f78-s14" kvg:type="&#12752;a" />
			<path d="M49.57,79.7c10.68-0.45,26.55-1.04,32.37-1.36" id="kvg:06f78-s15" kvg:type="&#12752;a" />
		</g>
	</g>
</g>
</g>
<g id="kvg:StrokeNumbers_06f78" style="font-size:8;fill:#808080">
	<text transform="matrix(1 0 0 1 12.50 16.50)">1</text>
	<text transform="matrix(1 0 0 1 6.50 42.50)">2</text>
	<text transform="matrix(1 0 0 1 6.50 91.50)">3</text>
	<text transform="matrix(1 0 0 1 34.50 22.50)">4</text>
	<text transform="matrix(1 0 0 1 40.50 10.50)">5</text>
	<text transform="matrix(1 0 0 1 32.50 34.50)">6</text>
	<text transform="matrix(1 0 0 1 52.50 33.50)">7</text>
	<text transform="matrix(1 0 0 1 63.50 20.50)">8</text>
	<text transform="matrix(1 0 0 1 72.50 8.50)">9</text>
	<text transform="matrix(1 0 0 1 59.25 31.50)">10</text>
	<text transform="matrix(1 0 0 1 89.50 32.50)">11</text>
	<text transform="matrix(1 0 0 1 38.25 64.80)">12</text>
	<text transform="matrix(1 0 0 1 53.50 54.50)">13</text>
	<text transform="matrix(1 0 0 1 54.50 66.50)">14</text>
	<text transform="matrix(1 0 0 1 54.50 77.58)">15</text>
</g>
</svg>