<svg xmlns="http://www.w3.org/2000/svg" xmlns:kvg="http://kanjivg.tagaini.net" height="109" meaning="water route, shipping channel" viewBox="0 0 109 109" width="109">
<g id="kvg:StrokePaths_06faa" style="fill:none;stroke:#000000;stroke-width:3;stroke-linecap:round;stroke-linejoin:round;">
<g id="kvg:06faa" kvg:element="&#28586;">
	<g id="kvg:06faa-g1" kvg:element="&#27701;" kvg:original="&#27700;" kvg:position="left" kvg:radical="general" kvg:variant="true">
		<path d="M16.13,15.5c4.01,1.47,10.36,6.05,11.37,8.34" id="kvg:06faa-s1" kvg:type="&#12756;" />
		<path d="M11.88,40c4.37,1.5,11.28,6.17,12.38,8.5" id="kvg:06faa-s2" kvg:type="&#12756;" />
		<path d="M12.5,88.96c1.88,0.79,3.06,0.11,4-1.5c2.75-4.7,5.25-10.2,7.75-16.2" id="kvg:06faa-s3" kvg:type="&#12736;" />
	</g>
	<g id="kvg:06faa-g2" kvg:element="&#38646;" kvg:position="right">
		<g id="kvg:06faa-g3" kvg:element="&#38632;" kvg:position="top" kvg:variant="true">
			<path d="M40.03,13.01c2.85,0.86,5.02,0.84,7.85,0.66c8.23-0.51,21.15-1.59,30.37-2.02c2.05-0.09,4.25-0.15,6.41,0.26" id="kvg:06faa-s4" kvg:type="&#12752;" />
			<path d="M35.33,24.29c-0.23,5.17-2.23,10.89-3.71,16.11" id="kvg:06faa-s5" kvg:type="&#12756;/&#12753;" />
			<path d="M36.36,26.21C54.25,25,73.62,24,89.78,23.75c9.22-0.14,4.47,5-0.48,8.73" id="kvg:06faa-s6" kvg:type="&#12758;b/&#12742;" />
			<path d="M60.8,16.26c1.1,1.1,1.22,2.24,1.22,3.71c0,0.37,0.04,11.01,0.07,17.9c0.01,3.1,0.02,5.49,0.02,5.94" id="kvg:06faa-s7" kvg:type="&#12753;" />
			<path d="M42.62,30.5c3.45,1.12,8.15,4.48,10.03,6.35" id="kvg:06faa-s8" kvg:type="&#12756;" />
			<path d="M41.67,42.93c2.71,0.98,6.9,4.58,8.37,6.22" id="kvg:06faa-s9" kvg:type="&#12756;" />
			<path d="M72.04,28.82c3.72,1.72,7.58,4.3,9.43,6.58" id="kvg:06faa-s10" kvg:type="&#12756;" />
			<path d="M73.19,41.28c4.19,1.97,8.19,4.85,10.54,7.99" id="kvg:06faa-s11" kvg:type="&#12756;" />
		</g>
		<g id="kvg:06faa-g4" kvg:element="&#20196;" kvg:position="bottom">
			<g id="kvg:06faa-g5" kvg:element="&#20154;" kvg:position="top">
				<path d="M62.63,49.12c-0.01,1.25-0.6,2.72-1.32,3.55C56.38,58.38,46.12,68,30.5,74.62" id="kvg:06faa-s12" kvg:type="&#12754;" />
				<path d="M63.73,54.04c5.52,3.59,15.56,10.67,23.09,14.93C89.75,70.62,92,71.62,96,72.9" id="kvg:06faa-s13" kvg:type="&#12751;" />
			</g>
			<g id="kvg:06faa-g6" kvg:position="bottom">
				<g id="kvg:06faa-g7" kvg:element="&#19968;">
					<path d="M58.6,63.37c3.21,1.08,8.28,4.42,9.08,6.09" id="kvg:06faa-s14" kvg:type="&#12756;" />
				</g>
				<g id="kvg:06faa-g8" kvg:element="&#12510;">
					<path d="M42.63,77.43c2.62,0.82,5.08,0.7,7.25,0.46c7.38-0.81,26.62-3.08,28.78-3.34c2.56-0.31,3.45,1.48,1.61,3.13c-4.3,3.86-8.52,6.58-14.64,11.83" id="kvg:06faa-s15" kvg:type="&#12742;a" />
					<path d="M54.98,86.2C61,90,67.12,94.38,70.55,99.75" id="kvg:06faa-s16" kvg:type="&#12756;" />
				</g>
			</g>
		</g>
	</g>
</g>
</g>
<g id="kvg:StrokeNumbers_06faa" style="font-size:8;fill:#808080">
	<text transform="matrix(1 0 0 1 9.25 15.13)">1</text>
	<text transform="matrix(1 0 0 1 4.25 39.25)">2</text>
	<text transform="matrix(1 0 0 1 4.25 92.25)">3</text>
	<text transform="matrix(1 0 0 1 39.25 10.25)">4</text>
	<text transform="matrix(1 0 0 1 29.25 29.25)">5</text>
	<text transform="matrix(1 0 0 1 37.25 23.25)">6</text>
	<text transform="matrix(1 0 0 1 55.25 21.25)">7</text>
	<text transform="matrix(1 0 0 1 37.25 35.25)">8</text>
	<text transform="matrix(1 0 0 1 34.25 46.25)">9</text>
	<text transform="matrix(1 0 0 1 64.25 34.25)">10</text>
	<text transform="matrix(1 0 0 1 65.25 45.25)">11</text>
	<text transform="matrix(1 0 0 1 52.25 50.25)">12</text>
	<text transform="matrix(1 0 0 1 67.25 55.25)">13</text>
	<text transform="matrix(1 0 0 1 60.00 62.25)">14</text>
	<text transform="matrix(1 0 0 1 42.25 75.25)">15</text>
	<text transform="matrix(1 0 0 1 44.25 89.25)">16</text>
</g>
</svg>