<svg xmlns="http://www.w3.org/2000/svg" xmlns:kvg="http://kanjivg.tagaini.net" height="109" meaning="name of river in China" viewBox="0 0 109 109" width="109">
<g id="kvg:StrokePaths_07018" style="fill:none;stroke:#000000;stroke-width:3;stroke-linecap:round;stroke-linejoin:round;">
<g id="kvg:07018" kvg:element="&#28696;">
	<g id="kvg:07018-g1" kvg:element="&#27701;" kvg:original="&#27700;" kvg:position="left" kvg:radical="general" kvg:variant="true">
		<path d="M14.13,17c5.16,1.6,13.33,6.6,14.62,9.09" id="kvg:07018-s1" kvg:type="&#12756;" />
		<path d="M12.25,41c4.32,1.59,11.17,6.53,12.25,9" id="kvg:07018-s2" kvg:type="&#12756;" />
		<path d="M11.75,86.73c1.71,1.27,3.78,1.32,4.86-0.25c3.14-4.57,7.29-13.66,10.14-19.49" id="kvg:07018-s3" kvg:type="&#12736;" />
	</g>
	<g id="kvg:07018-g2" kvg:element="&#30439;" kvg:position="right">
		<g id="kvg:07018-g3" kvg:element="&#34381;" kvg:position="tare">
			<path d="M59.06,11.33c1.03,0.82,1.83,1.77,1.83,4.47c0,5.25-0.02,8.46-0.02,12.87" id="kvg:07018-s4" kvg:type="&#12753;a" />
			<path d="M62.03,19.97c5.11-0.75,12.43-1.71,17.61-2.3c1.71-0.19,2.75,0.18,3.61,0.36" id="kvg:07018-s5" kvg:type="&#12752;b" />
			<path d="M40.78,28.47c0.65,0.56,0.84,2.61,0.72,4.62C40,57.25,38.53,76.5,26.95,92.92" id="kvg:07018-s6" kvg:type="&#12754;" />
			<path d="M41.46,31.1c0.97,0.18,2.21-0.07,3.79-0.25C53,30,77.48,26.99,87.04,26.83c10.08-0.17,2.47,5.99-0.04,8.03" id="kvg:07018-s7" kvg:type="&#12758;a" />
			<g id="kvg:07018-g4" kvg:element="&#19971;">
				<g id="kvg:07018-g5" kvg:element="&#19968;">
					<path d="M47.49,39.73c0.87,0.35,3,0.41,3.87,0.35c8.68-0.54,15.39-2.08,25.09-3.37c1.43-0.19,2.31,0.17,3.04,0.35" id="kvg:07018-s8" kvg:type="&#12752;" />
				</g>
				<path d="M60.31,31.75c0.51,0.44,1.2,2.17,1.2,2.79c0,4.89-0.1,4.55-0.1,6.74c0,6.49,2.86,6,10.25,6c2.75,0,9.58-0.5,11.95-1.37" id="kvg:07018-s9" kvg:type="&#12767;a" />
			</g>
		</g>
		<g id="kvg:07018-g6" kvg:element="&#30000;">
			<path d="M49.21,55.02c0.24,0.41,0.69,1.77,0.82,2.28c1.06,4.13,2.01,9.41,2.64,17.01" id="kvg:07018-s10" kvg:type="&#12753;" />
			<path d="M50.77,56.19c10.18-1.22,25.88-2.79,32.17-2.66c1.54,0.03,2.46,1.4,2.46,2.7c0,4.09-1.5,8.5-3.13,16.07" id="kvg:07018-s11" kvg:type="&#12757;a" />
			<path d="M66.07,56.06c0.86,0.83,1.18,1.44,1.18,2.16c-0.02,4.79,0.11,11.54,0.11,13.27" id="kvg:07018-s12" kvg:type="&#12753;a" />
			<path d="M52.27,64.56c2.74-0.2,29.48-2.53,31.74-2.53" id="kvg:07018-s13" kvg:type="&#12752;a" />
			<path d="M53.1,72.68c6.05,0,20.44-2.02,28.8-2.13" id="kvg:07018-s14" kvg:type="&#12752;a" />
		</g>
		<g id="kvg:07018-g7" kvg:element="&#30399;">
			<path d="M46.04,80.12c0.49,0.76,1.13,1.58,1.24,2.23c0.83,5.13,0.47,5.68,1.23,12.47" id="kvg:07018-s15" kvg:type="&#12753;a" />
			<path d="M47.16,82.32c9.48-1.16,35.47-4.51,38.91-4.36c1.49,0.07,2.37,0.21,2.17,2.41C87.95,83.62,87,88.72,85.9,93.1" id="kvg:07018-s16" kvg:type="&#12757;b" />
			<path d="M59.6,80.68c0.21,0.49,0.5,0.89,0.5,1.51c0,4.37,0.2,7.7,0.2,11.71" id="kvg:07018-s17" kvg:type="&#12753;a" />
			<path d="M72.66,80.09c0.38,0.58,0.77,1.59,0.67,2.34c-0.56,4.37-0.25,7-0.49,10.68" id="kvg:07018-s18" kvg:type="&#12753;a" />
			<path d="M34.87,95.34c1.55,0.45,4.39,0.53,5.93,0.45c16.11-0.76,24.56-2.67,54.21-2.79c2.58-0.01,4.13,0.22,5.42,0.45" id="kvg:07018-s19" kvg:type="&#12752;" />
		</g>
	</g>
</g>
</g>
<g id="kvg:StrokeNumbers_07018" style="font-size:8;fill:#808080">
	<text transform="matrix(1 0 0 1 8.50 18.50)">1</text>
	<text transform="matrix(1 0 0 1 4.50 41.50)">2</text>
	<text transform="matrix(1 0 0 1 4.25 87.50)">3</text>
	<text transform="matrix(1 0 0 1 49.50 11.50)">4</text>
	<text transform="matrix(1 0 0 1 65.50 16.50)">5</text>
	<text transform="matrix(1 0 0 1 33.50 39.50)">6</text>
	<text transform="matrix(1 0 0 1 43.00 27.50)">7</text>
	<text transform="matrix(1 0 0 1 46.50 37.50)">8</text>
	<text transform="matrix(1 0 0 1 65.50 35.50)">9</text>
	<text transform="matrix(1 0 0 1 41.50 63.50)">10</text>
	<text transform="matrix(1 0 0 1 51.50 52.88)">11</text>
	<text transform="matrix(1 0 0 1 70.25 60.50)">12</text>
	<text transform="matrix(1 0 0 1 55.50 62.50)">13</text>
	<text transform="matrix(1 0 0 1 55.50 70.15)">14</text>
	<text transform="matrix(1 0 0 1 38.50 85.50)">15</text>
	<text transform="matrix(1 0 0 1 53.50 79.50)">16</text>
	<text transform="matrix(1 0 0 1 51.25 89.50)">17</text>
	<text transform="matrix(1 0 0 1 63.50 87.50)">18</text>
	<text transform="matrix(1 0 0 1 33.50 92.50)">19</text>
</g>
</svg>