<svg xmlns="http://www.w3.org/2000/svg" xmlns:kvg="http://kanjivg.tagaini.net" height="109" kun="&#12354;&#12425;&#12383;, &#12420;&#12367;" meaning="miraculous" on="&#12471;&#12515;&#12463;" viewBox="0 0 109 109" width="109">
<g id="kvg:StrokePaths_0707c" style="fill:none;stroke:#000000;stroke-width:3;stroke-linecap:round;stroke-linejoin:round;">
<g id="kvg:0707c" kvg:element="&#28796;">
	<g id="kvg:0707c-g1" kvg:element="&#28779;" kvg:position="left" kvg:radical="general">
		<path d="M14.24,38.25c1.59,3.47,3.91,13.28,4.34,16.75" id="kvg:0707c-s1" kvg:type="&#12756;" />
		<path d="M42.04,32c0.21,1.25,0.08,2.34-0.59,3.24c-0.67,0.9-6.6,6.92-9.98,9.01" id="kvg:0707c-s2" kvg:type="&#12754;" />
		<path d="M28.25,16c0.76,0.75,1.02,2.25,1.03,3.5C29.5,71,25.75,79,13,91.75" id="kvg:0707c-s3" kvg:type="&#12754;" />
		<path d="M30.5,65c4.45,2.87,10.08,11.94,11.25,16" id="kvg:0707c-s4" kvg:type="&#12756;/&#12751;" />
	</g>
	<g id="kvg:0707c-g2" kvg:element="&#21242;" kvg:position="right">
		<g id="kvg:0707c-g3" kvg:element="&#21241;">
			<g id="kvg:0707c-g4" kvg:element="&#20031;">
				<path d="M65.02,15c0.05,0.77,0.1,1.98-0.09,3.09c-1.14,6.51-7.7,20.79-16.67,29.54" id="kvg:0707c-s5" kvg:type="&#12754;" />
			</g>
			<path d="M58,37.37c0.85,0.67,3.48,0.68,4.89,0.45c6.61-1.07,21.58-4.6,24.97-4.82s5.16,1.75,4.9,6.5c-0.5,9.26-5.75,38.26-17.08,51.49c-2.84,3.32-6.18,0.52-8.92-2.12" id="kvg:0707c-s6" kvg:type="&#12742;" />
		</g>
		<g id="kvg:0707c-g5" kvg:element="&#20022;" kvg:variant="true">
			<path d="M53.02,59.9c1.22,0.35,2.23,0.55,3.45,0.5c3.64-0.15,8.49-1,10.98-1c1.87,0,2.25,0.1,3.87,0.5" id="kvg:0707c-s7" kvg:type="&#12752;/&#12756;" />
		</g>
	</g>
</g>
</g>
<g id="kvg:StrokeNumbers_0707c" style="font-size:8;fill:#808080">
	<text transform="matrix(1 0 0 1 7.85 37.85)">1</text>
	<text transform="matrix(1 0 0 1 35.66 29.50)">2</text>
	<text transform="matrix(1 0 0 1 19.50 16.50)">3</text>
	<text transform="matrix(1 0 0 1 32.54 65.85)">4</text>
	<text transform="matrix(1 0 0 1 56.50 15.33)">5</text>
	<text transform="matrix(1 0 0 1 66.50 33.50)">6</text>
	<text transform="matrix(1 0 0 1 48.50 60.50)">7</text>
</g>
</svg>