<svg xmlns="http://www.w3.org/2000/svg" xmlns:kvg="http://kanjivg.tagaini.net" height="109" kun="&#12416;.&#12377;, &#12418;&#12429;&#12418;&#12429;" meaning="many, offer, dedicate, to steam" on="&#12472;&#12519;&#12454;, &#12471;&#12519;&#12454;" viewBox="0 0 109 109" width="109">
<g id="kvg:StrokePaths_070dd" style="fill:none;stroke:#000000;stroke-width:3;stroke-linecap:round;stroke-linejoin:round;">
<g id="kvg:070dd" kvg:element="&#28893;">
	<g id="kvg:070dd-g1" kvg:position="top">
		<g id="kvg:070dd-g2" kvg:element="&#19998;" kvg:position="top">
			<g id="kvg:070dd-g3" kvg:element="&#20102;">
				<path d="M30.21,15.15c1.12,0.53,2.39,1.58,4.18,1.46c3.15-0.2,29.29-2.12,31.35-2.12c2.06,0,3.69,1.91,1.44,3.43C61.5,21.75,58,25,51.33,29.09" id="kvg:070dd-s1" kvg:type="&#12743;" />
				<g id="kvg:070dd-g4" kvg:element="&#20101;">
					<path d="M49.43,30.11c7.87,4.81,11.12,19.93,4.53,31.27c-3.18,5.47-4.1,0.76-6.27-0.91" id="kvg:070dd-s2" kvg:type="&#12762;" />
				</g>
			</g>
			<g id="kvg:070dd-g5" kvg:element="&#27700;" kvg:partial="true">
				<path d="M17.65,36.22c1.91,0.22,2.63,0.39,4.54-0.06c1.91-0.44,13.81-2.66,18.27-3.33c2.26-0.34,3.22,1.67,2.26,3.67c-2.22,4.67-13.98,19-26.85,24.67" id="kvg:070dd-s3" kvg:type="&#12743;" />
				<path d="M86,25.73c0.09,0.38,0.16,1.03-0.18,1.52c-3.19,4.67-10.3,10.86-16.06,13.29" id="kvg:070dd-s4" kvg:type="&#12754;" />
				<path d="M57.9,30.8c2.35,0.95,23.39,22.64,31.7,27.83c1.75,1.09,3.42,1.64,5.02,2.01" id="kvg:070dd-s5" kvg:type="&#12751;" />
			</g>
		</g>
		<g id="kvg:070dd-g6" kvg:element="&#19968;" kvg:position="bottom">
			<path d="M22.61,69.25c1.45,0.47,4.11,0.56,5.55,0.47c17.77-1.1,37.44-1.93,52.41-1.92c2.42,0,3.86,0.22,5.07,0.46" id="kvg:070dd-s6" kvg:type="&#12752;" />
		</g>
	</g>
	<g id="kvg:070dd-g7" kvg:element="&#28780;" kvg:original="&#28779;" kvg:position="bottom" kvg:radical="general" kvg:variant="true">
		<path d="M24,81c0,5.43-7.53,13.45-9.5,15" id="kvg:070dd-s7" kvg:type="&#12756;" />
		<path d="M38.77,77.33c3.49,3.46,6.81,12.99,7.69,18.38" id="kvg:070dd-s8" kvg:type="&#12756;" />
		<path d="M60.87,78.08c3.15,2.89,8.15,11.89,8.93,16.38" id="kvg:070dd-s9" kvg:type="&#12756;" />
		<path d="M81.77,78.33c4.34,3.11,11.21,12.79,12.29,17.63" id="kvg:070dd-s10" kvg:type="&#12756;" />
	</g>
</g>
</g>
<g id="kvg:StrokeNumbers_070dd" style="font-size:8;fill:#808080">
	<text transform="matrix(1 0 0 1 23.44 13.50)">1</text>
	<text transform="matrix(1 0 0 1 47.44 41.06)">2</text>
	<text transform="matrix(1 0 0 1 10.50 36.98)">3</text>
	<text transform="matrix(1 0 0 1 77.50 24.50)">4</text>
	<text transform="matrix(1 0 0 1 63.50 48.50)">5</text>
	<text transform="matrix(1 0 0 1 14.44 69.76)">6</text>
	<text transform="matrix(1 0 0 1 18.50 80.50)">7</text>
	<text transform="matrix(1 0 0 1 32.50 81.50)">8</text>
	<text transform="matrix(1 0 0 1 53.50 81.50)">9</text>
	<text transform="matrix(1 0 0 1 71.50 82.46)">10</text>
</g>
</svg>