<svg xmlns="http://www.w3.org/2000/svg" xmlns:kvg="http://kanjivg.tagaini.net" height="109" meaning="shine" viewBox="0 0 109 109" width="109">
<g id="kvg:StrokePaths_0711c" style="fill:none;stroke:#000000;stroke-width:3;stroke-linecap:round;stroke-linejoin:round;">
<g id="kvg:0711c" kvg:element="&#28956;">
	<g id="kvg:0711c-g1" kvg:element="&#28779;" kvg:position="left" kvg:radical="general">
		<path d="M8.99,38.5c2.78,3.05,6.83,11.7,7.59,14.75" id="kvg:0711c-s1" kvg:type="&#12756;" />
		<path d="M38.53,31c0.22,0.92,0.11,2.11-0.58,3.21c-0.69,1.1-7.27,9.23-10.72,11.79" id="kvg:0711c-s2" kvg:type="&#12754;" />
		<path d="M22.96,15.25c0.66,0.76,1.31,2.28,1.32,3.56c0.19,52.49-3.26,62.44-14.03,75.69" id="kvg:0711c-s3" kvg:type="&#12754;" />
		<path d="M25.5,69c5.24,3.09,11.87,12.87,13.25,17.25" id="kvg:0711c-s4" kvg:type="&#12756;/&#12751;" />
	</g>
	<g id="kvg:0711c-g2" kvg:element="&#26118;" kvg:position="right">
		<g id="kvg:0711c-g3" kvg:element="&#26085;" kvg:position="top">
			<path d="M45.05,16.04c0.46,0.69,1.24,2.05,1.42,2.95c0.52,2.51,4.26,27.27,4.26,27.73" id="kvg:0711c-s5" kvg:type="&#12753;" />
			<path d="M46.59,17.17c2.6-0.12,33.91-2.79,36.28-2.93c1.97-0.11,3.31,0.77,3.09,3.47c-0.11,1.43-2.59,16.64-4.57,26.57" id="kvg:0711c-s6" kvg:type="&#12757;a" />
			<path d="M49.09,30.61c7.05-0.58,30.61-1.98,34.59-1.98" id="kvg:0711c-s7" kvg:type="&#12752;a" />
			<path d="M50.58,43.98c7.17-0.49,20.82-1.31,29.75-1.73" id="kvg:0711c-s8" kvg:type="&#12752;a" />
		</g>
		<g id="kvg:0711c-g4" kvg:element="&#27604;" kvg:position="bottom">
			<g id="kvg:0711c-g5" kvg:position="left">
				<path d="M48.75,67.42c4.18-0.16,12.54-1.88,13.66-1.88c1.11,0,1.67-0.16,3.34,0" id="kvg:0711c-s9" kvg:type="&#12752;b" />
				<path d="M46.72,54.2c0.8,0.59,0.86,0.99,1.12,1.79s-0.25,24.52-0.25,31.11c0,3,0.12,5.5,3.24,3.16c3.68-2.75,8.68-5.25,13.9-8.02" id="kvg:0711c-s10" kvg:type="&#12761;" />
			</g>
			<g id="kvg:0711c-g6" kvg:element="&#21269;" kvg:position="right">
				<path d="M94.43,54.54c0.22,0.39-0.08,2.4-0.63,2.84C87.59,62.36,82.75,65,74,68.69" id="kvg:0711c-s11" kvg:type="&#12754;" />
				<path d="M70.38,50.25c1.44,0.49,1.7,3.09,1.68,3.88c-0.11,4.47-0.24,27.16-0.24,29.56c0,7.57,2.67,9.14,11.83,9.14c9.59,0,11.91-1.83,11.91-10.52" id="kvg:0711c-s12" kvg:type="&#12767;" />
			</g>
		</g>
	</g>
</g>
</g>
<g id="kvg:StrokeNumbers_0711c" style="font-size:8;fill:#808080">
	<text transform="matrix(1 0 0 1 2.50 38.50)">1</text>
	<text transform="matrix(1 0 0 1 30.50 28.85)">2</text>
	<text transform="matrix(1 0 0 1 14.50 15.50)">3</text>
	<text transform="matrix(1 0 0 1 28.50 68.50)">4</text>
	<text transform="matrix(1 0 0 1 40.25 25.50)">5</text>
	<text transform="matrix(1 0 0 1 48.50 13.50)">6</text>
	<text transform="matrix(1 0 0 1 52.50 27.50)">7</text>
	<text transform="matrix(1 0 0 1 54.50 40.50)">8</text>
	<text transform="matrix(1 0 0 1 52.50 63.50)">9</text>
	<text transform="matrix(1 0 0 1 34.50 55.50)">10</text>
	<text transform="matrix(1 0 0 1 83.50 54.50)">11</text>
	<text transform="matrix(1 0 0 1 58.50 52.50)">12</text>
</g>
</svg>