<svg xmlns="http://www.w3.org/2000/svg" xmlns:kvg="http://kanjivg.tagaini.net" height="109" kun="&#12383;&#12398;&#12375;.&#12416;, &#12402;&#12363;.&#12427;, &#12402;&#12429;.&#12356;, &#12424;&#12429;&#12371;.&#12406;, &#12363;&#12431;.&#12367;, &#12354;&#12365;&#12425;&#12363;, &#12402;&#12429;.&#12417;&#12427;, &#12402;&#12429;.&#12414;&#12427;" meaning="shine" on="&#12461;" viewBox="0 0 109 109" width="109">
<g id="kvg:StrokePaths_07188" style="fill:none;stroke:#000000;stroke-width:3;stroke-linecap:round;stroke-linejoin:round;">
<g id="kvg:07188" kvg:element="&#29064;">
	<g id="kvg:07188-g1" kvg:position="top">
		<g id="kvg:07188-g2" kvg:element="&#20031;">
			<path d="M24.23,15.75c0.48,1.43,1.16,2.55,1.16,4.33c0,16.28-1.89,35.92-14.34,47.64" id="kvg:07188-s1" kvg:type="&#12754;" />
		</g>
		<g id="kvg:07188-g3" kvg:element="&#33251;">
			<path d="M35.37,14.75c1.09,0.5,1.74,2.25,1.96,3.25c0.22,1,0,41.25-0.22,47.5" id="kvg:07188-s2" kvg:type="&#12753;" />
			<path d="M37.25,16.5c0.63,0.29,1.78,0.32,2.41,0.29C44.5,16.5,53,16,59.05,15.37c1.04-0.11,2.18,0.14,2.7,0.28" id="kvg:07188-s3" kvg:type="&#12752;b" />
			<path d="M48.35,17.25c0.58,0.27,0.93,1.2,1.04,1.73c0.12,0.53,0,8.45-0.12,11.77" id="kvg:07188-s4" kvg:type="&#12753;a" />
			<path d="M37.91,32.16c7.59-0.66,16.2-1.52,20.26-1.94c1.48-0.15,2.37,0.91,2.16,1.81c-0.88,3.74-1.4,7.25-2.71,12.42" id="kvg:07188-s5" kvg:type="&#12757;b" />
			<path d="M37.72,46.95c4.76-0.48,15.33-1.3,21.87-2.03" id="kvg:07188-s6" kvg:type="&#12752;b" />
			<path d="M48.35,47.25c0.58,0.27,0.93,1.2,1.04,1.73c0.12,0.53,0,8.95-0.12,12.27" id="kvg:07188-s7" kvg:type="&#12753;a" />
			<path d="M37.25,63c0.63,0.29,1.78,0.32,2.41,0.29C44.5,63,54.5,62,60.55,61.37c1.04-0.11,2.18,0.14,2.7,0.28" id="kvg:07188-s8" kvg:type="&#12752;b" />
		</g>
		<g id="kvg:07188-g4" kvg:element="&#24051;">
			<g id="kvg:07188-g5" kvg:element="&#24049;" kvg:variant="true">
				<path d="M67,14.99c1.19,0.89,2.21,0.89,3.95,0.6c3.54-0.6,15.24-1.5,16.32-1.61c1.43-0.15,3.05,0.48,2.54,2.79c-0.15,0.69-2.11,11.86-3.11,18.46" id="kvg:07188-s9" kvg:type="&#12757;" />
				<path d="M70.25,36.68c2.75,0,13.86-1.03,19.21-1.33" id="kvg:07188-s10" kvg:type="&#12752;" />
				<path d="M69.36,16.3c-0.02,4.9,0.09,30.21,0.09,34.65C69.45,61,71,62,82.69,62c12.06,0,12.88-2,12.88-8.22" id="kvg:07188-s11" kvg:type="&#12767;" />
			</g>
		</g>
	</g>
	<g id="kvg:07188-g6" kvg:element="&#28780;" kvg:original="&#28779;" kvg:position="bottom" kvg:radical="general" kvg:variant="true">
		<path d="M22.5,76.75c0,6.43-6.74,15.91-8.5,17.75" id="kvg:07188-s12" kvg:type="&#12756;" />
		<path d="M38.67,75.62c2.59,3.44,4.53,12.85,4.8,18.16" id="kvg:07188-s13" kvg:type="&#12756;" />
		<path d="M60.52,75.01c2.94,3.32,7.1,13.59,7.41,18.71" id="kvg:07188-s14" kvg:type="&#12756;" />
		<path d="M80.52,72.76c4.89,3.77,12.04,15.42,12.76,21.21" id="kvg:07188-s15" kvg:type="&#12756;" />
	</g>
</g>
</g>
<g id="kvg:StrokeNumbers_07188" style="font-size:8;fill:#808080">
	<text transform="matrix(1 0 0 1 16.50 16.63)">1</text>
	<text transform="matrix(1 0 0 1 30.50 23.50)">2</text>
	<text transform="matrix(1 0 0 1 40.50 13.50)">3</text>
	<text transform="matrix(1 0 0 1 52.50 24.50)">4</text>
	<text transform="matrix(1 0 0 1 40.50 28.50)">5</text>
	<text transform="matrix(1 0 0 1 40.50 43.50)">6</text>
	<text transform="matrix(1 0 0 1 52.50 54.50)">7</text>
	<text transform="matrix(1 0 0 1 40.50 59.50)">8</text>
	<text transform="matrix(1 0 0 1 69.50 12.50)">9</text>
	<text transform="matrix(1 0 0 1 73.50 33.50)">10</text>
	<text transform="matrix(1 0 0 1 59.50 24.50)">11</text>
	<text transform="matrix(1 0 0 1 13.50 76.50)">12</text>
	<text transform="matrix(1 0 0 1 28.50 78.50)">13</text>
	<text transform="matrix(1 0 0 1 50.25 77.50)">14</text>
	<text transform="matrix(1 0 0 1 69.50 75.50)">15</text>
</g>
</svg>