<svg xmlns="http://www.w3.org/2000/svg" xmlns:kvg="http://kanjivg.tagaini.net" height="109" meaning="to dispute, fight, contend, strive" viewBox="0 0 109 109" width="109">
<g id="kvg:StrokePaths_0722d" style="fill:none;stroke:#000000;stroke-width:3;stroke-linecap:round;stroke-linejoin:round;">
<g id="kvg:0722d" kvg:element="&#29229;">
	<g id="kvg:0722d-g1" kvg:element="&#11940;" kvg:original="&#29226;" kvg:position="top" kvg:radical="tradit" kvg:variant="true">
		<path d="M73.44,9.39c0.06,1.11-1.05,2.21-1.73,2.5c-3.71,1.61-17.5,5.24-39.65,8.07" id="kvg:0722d-s1" kvg:type="&#12754;" />
		<path d="M32.27,26.14c0.04,0.4,0.08,1.04-0.07,1.62c-0.9,3.41-6.06,10.88-13.13,15.46" id="kvg:0722d-s2" kvg:type="&#12754;" />
		<path d="M48.77,24.33c2.57,1.92,6.65,7.9,7.29,10.88" id="kvg:0722d-s3" kvg:type="&#12756;" />
		<path d="M74.02,21.08c5.04,2.23,13.03,9.17,14.29,12.63" id="kvg:0722d-s4" kvg:type="&#12756;" />
	</g>
	<g id="kvg:0722d-g2" kvg:position="bottom">
		<g id="kvg:0722d-g3" kvg:element="&#11925;" kvg:original="&#24401;" kvg:variant="true">
			<path d="M30,42.25c2,0.25,3.7,0.66,6,0.5c14-1,27.75-3,41-3.75c3.24-0.18,4,1.75,3.5,4.25c-1.31,6.54-2,15-3,23" id="kvg:0722d-s5" kvg:type="&#12757;" />
			<path d="M15.25,56.5c2.42,0.25,4.31,0.73,6.98,0.5c23.37-2,50.77-4.5,69.3-5.25c2.96-0.12,5.37,0.5,6.71,0.75" id="kvg:0722d-s6" kvg:type="&#12752;" />
			<path d="M29.5,70.18c1.25,0.15,3.51,0.54,5,0.46c13.75-0.76,29.75-3.48,42.25-3.79c2-0.05,3.25,0,4.75,0.15" id="kvg:0722d-s7" kvg:type="&#12752;c" />
		</g>
		<g id="kvg:0722d-g4" kvg:element="&#20101;">
			<path d="M53.08,43.33c0.67,0.92,1.91,3.01,1.98,6.06c0.31,14.66-0.2,38.55-0.2,43.55c0,10.56-6.92,0.2-7.8-0.75" id="kvg:0722d-s8" kvg:type="&#12762;" />
		</g>
	</g>
</g>
</g>
<g id="kvg:StrokeNumbers_0722d" style="font-size:8;fill:#808080">
	<text transform="matrix(1 0 0 1 65.50 8.50)">1</text>
	<text transform="matrix(1 0 0 1 22.50 28.05)">2</text>
	<text transform="matrix(1 0 0 1 42.50 27.50)">3</text>
	<text transform="matrix(1 0 0 1 65.50 23.50)">4</text>
	<text transform="matrix(1 0 0 1 33.50 39.50)">5</text>
	<text transform="matrix(1 0 0 1 7.50 57.50)">6</text>
	<text transform="matrix(1 0 0 1 23.50 70.50)">7</text>
	<text transform="matrix(1 0 0 1 46.50 50.50)">8</text>
</g>
</svg>