<svg xmlns="http://www.w3.org/2000/svg" xmlns:kvg="http://kanjivg.tagaini.net" height="109" kun="&#12371;&#12371;.&#12395;" meaning="lead on to, therefore, then" on="&#12456;&#12531;" viewBox="0 0 109 109" width="109">
<g id="kvg:StrokePaths_07230" style="fill:none;stroke:#000000;stroke-width:3;stroke-linecap:round;stroke-linejoin:round;">
<g id="kvg:07230" kvg:element="&#29232;">
	<g id="kvg:07230-g1" kvg:element="&#11940;" kvg:original="&#29226;" kvg:position="top" kvg:radical="tradit" kvg:variant="true">
		<path d="M68.71,8.39c0.09,0.22,0.2,0.57-0.19,0.88c-2.28,1.86-15.34,5.94-33.22,8.44" id="kvg:07230-s1" kvg:type="&#12754;" />
		<path d="M32.02,22.39c0.04,0.42,0.08,1.08-0.07,1.69c-0.87,3.56-5.84,11.36-12.64,16.14" id="kvg:07230-s2" kvg:type="&#12754;" />
		<path d="M48.77,22.58c3.1,1.96,8.02,8.08,8.79,11.13" id="kvg:07230-s3" kvg:type="&#12756;" />
		<path d="M68.27,19.33c6.54,2.8,16.91,11.52,18.54,15.88" id="kvg:07230-s4" kvg:type="&#12756;" />
	</g>
	<g id="kvg:07230-g2" kvg:position="bottom">
		<path d="M31.25,41.89c0.94,0.38,2.66,0.49,3.6,0.38c5.98-0.66,30.82-3.33,36.61-2.88c1.56,0.12,2.5,0.18,3.29,0.37" id="kvg:07230-s5" kvg:type="&#12752;" />
		<g id="kvg:07230-g3" kvg:element="&#21451;">
			<path d="M18.88,56.98c1.52,0.54,4.3,0.63,5.82,0.54c15.8-0.91,37.05-3.52,58.11-3.73c2.53-0.03,4.05,0.26,5.31,0.53" id="kvg:07230-s6" kvg:type="&#12752;" />
			<path d="M46.72,44.64c0.28,0.86,0.53,1.78,0.33,3.34C45.65,59.03,37,79.75,17.75,90.5" id="kvg:07230-s7" kvg:type="&#12754;" />
			<g id="kvg:07230-g4" kvg:element="&#21448;">
				<path d="M42.85,67.86c0.34,0.04,2.7-0.04,3.67-0.11c4.38-0.3,14.72-2.82,19.3-3.88c3.15-0.73,3.54,1.33,2.74,3.3C64.16,77.99,42.14,96.43,22.5,102" id="kvg:07230-s8" kvg:type="&#12743;" />
				<path d="M37.75,72.5c4.5,0.75,26.43,19.27,35.75,23c6.25,2.5,11.95,3.63,14.25,4" id="kvg:07230-s9" kvg:type="&#12751;" />
			</g>
		</g>
	</g>
</g>
</g>
<g id="kvg:StrokeNumbers_07230" style="font-size:8;fill:#808080">
	<text transform="matrix(1 0 0 1 61.50 7.50)">1</text>
	<text transform="matrix(1 0 0 1 24.50 25.55)">2</text>
	<text transform="matrix(1 0 0 1 41.50 25.50)">3</text>
	<text transform="matrix(1 0 0 1 61.50 22.40)">4</text>
	<text transform="matrix(1 0 0 1 25.25 43.50)">5</text>
	<text transform="matrix(1 0 0 1 11.50 57.25)">6</text>
	<text transform="matrix(1 0 0 1 39.25 51.18)">7</text>
	<text transform="matrix(1 0 0 1 48.50 64.50)">8</text>
	<text transform="matrix(1 0 0 1 48.50 76.50)">9</text>
</g>
</svg>