<svg xmlns="http://www.w3.org/2000/svg" xmlns:kvg="http://kanjivg.tagaini.net" height="109" meaning="one-sided, leaf, sheet, right-side kata radical (no. 91)" viewBox="0 0 109 109" width="109">
<g id="kvg:StrokePaths_07247" style="fill:none;stroke:#000000;stroke-width:3;stroke-linecap:round;stroke-linejoin:round;">
<g id="kvg:07247" kvg:element="&#29255;" kvg:radical="general">
	<path d="M32.9,17.47c1.07,1.07,1.5,2.75,1.5,4.34c0,50.45-8.15,60.7-19.9,71.45" id="kvg:07247-s1" kvg:type="&#12754;" />
	<path d="M62.54,12.75c0.92,0.92,1.37,2.12,1.37,4.02c0,3.9-0.04,16.18-0.04,19.73" id="kvg:07247-s2" kvg:type="&#12753;a" />
	<path d="M35.35,41.27c10.77-1.02,30.16-3.55,42.52-5.43c2.69-0.41,5.75-0.84,8.13-0.59" id="kvg:07247-s3" kvg:type="&#12752;b" />
	<path d="M34.94,62.07c2.68,0.18,4.85,0.19,7.41-0.2c10-1.54,22.53-3.81,26.5-4.63c2.39-0.49,4.61,0.76,4.61,3.22c0,5.54-0.15,23.54-0.15,28.29c0,4.48-0.07,5.65-0.07,8.5" id="kvg:07247-s4" kvg:type="&#12757;" />
</g>
</g>
<g id="kvg:StrokeNumbers_07247" style="font-size:8;fill:#808080">
	<text transform="matrix(1 0 0 1 24.50 18.50)">1</text>
	<text transform="matrix(1 0 0 1 53.50 13.50)">2</text>
	<text transform="matrix(1 0 0 1 39.50 37.63)">3</text>
	<text transform="matrix(1 0 0 1 39.50 58.55)">4</text>
</g>
</svg>