<svg xmlns="http://www.w3.org/2000/svg" xmlns:kvg="http://kanjivg.tagaini.net" height="109" meaning="paper, label, letter, composition" viewBox="0 0 109 109" width="109">
<g id="kvg:StrokePaths_0724b" style="fill:none;stroke:#000000;stroke-width:3;stroke-linecap:round;stroke-linejoin:round;">
<g id="kvg:0724b" kvg:element="&#29259;">
	<g id="kvg:0724b-g1" kvg:element="&#29255;" kvg:position="left" kvg:radical="general">
		<path d="M18.25,15.29c0.84,1.47,1.7,3.15,1.7,4.85c0,44.86,0.55,61.86-9.1,75.32" id="kvg:0724b-s1" kvg:type="&#12754;" />
		<path d="M35.36,12.5c0.66,0.38,1.61,2.22,1.59,3.3c-0.05,3.41-0.05,21.36-0.05,24.46" id="kvg:0724b-s2" kvg:type="&#12753;a" />
		<path d="M20.03,42.7C24.5,42.02,32,40.75,37.8,40.11c0.78-0.09,1.12-0.12,1.85-0.12" id="kvg:0724b-s3" kvg:type="&#12752;b" />
		<path d="M19.71,61.41c0.19-0.02,1.65,0.3,2.35,0.17c5.69-1.08,10.19-1.58,13.45-2.4c1.21-0.3,2.77,0.66,2.77,2.82c0,1.39-0.25,33.79-0.25,34.47" id="kvg:0724b-s4" kvg:type="&#12757;" />
	</g>
	<g id="kvg:0724b-g2" kvg:element="&#25108;" kvg:position="right">
		<g id="kvg:0724b-g3" kvg:element="&#25096;" kvg:position="top">
			<g id="kvg:0724b-g4" kvg:element="&#24331;" kvg:part="1">
				<path d="M45.22,27.89c1.13,0.51,3.2,0.57,4.33,0.51c8.79-0.47,26.44-5,36.62-5.7c1.88-0.13,3.01,0.24,3.95,0.5" id="kvg:0724b-s5" kvg:type="&#12752;" />
				<path d="M58.81,10.5c1.33,0.88,1.82,2.17,2.21,4.05c3.47,16.7,10.72,29.7,27.01,35.39c6.33,2.21,5.96-0.19,3.31-7.6" id="kvg:0724b-s6" kvg:type="&#12738;" />
			</g>
			<g id="kvg:0724b-g5" kvg:element="&#20031;">
				<path d="M80.93,30.7c-0.21,0.56-0.41,1.13-0.91,1.64c-4.3,4.45-15.71,10.85-33.7,16.11" id="kvg:0724b-s7" kvg:type="&#12754;" />
			</g>
			<g id="kvg:0724b-g6" kvg:element="&#24331;" kvg:part="2">
				<g id="kvg:0724b-g7" kvg:element="&#20022;">
					<path d="M70.42,10.18c3.42,1.35,8.89,4.44,10.49,6.75" id="kvg:0724b-s8" kvg:type="&#12756;" />
				</g>
			</g>
		</g>
		<g id="kvg:0724b-g8" kvg:element="&#25096;" kvg:position="bottom">
			<g id="kvg:0724b-g9" kvg:element="&#24331;" kvg:part="1">
				<path d="M45.77,66.63c1.17,0.44,3.31,0.57,4.47,0.44c10.21-1.12,27.91-4.83,38.43-5.43c1.94-0.11,3.11,0.21,4.08,0.43" id="kvg:0724b-s9" kvg:type="&#12752;" />
				<path d="M59.76,50.67c1.43,0.94,2.04,1.67,2.34,3.69c2.5,16.98,10.88,34.62,28.2,41.38c7.7,3,7.7,2,5.6-7.77" id="kvg:0724b-s10" kvg:type="&#12738;" />
			</g>
			<g id="kvg:0724b-g10" kvg:element="&#20031;">
				<path d="M83.16,69.28c0.1,0.63,0.21,1.61-0.2,2.51C80.54,77.08,67,89.28,48.05,96.39" id="kvg:0724b-s11" kvg:type="&#12754;" />
			</g>
			<g id="kvg:0724b-g11" kvg:element="&#24331;" kvg:part="2">
				<g id="kvg:0724b-g12" kvg:element="&#20022;">
					<path d="M69.92,48.87c3.26,1.45,8.46,4.77,9.99,7.25" id="kvg:0724b-s12" kvg:type="&#12756;" />
				</g>
			</g>
		</g>
	</g>
</g>
</g>
<g id="kvg:StrokeNumbers_0724b" style="font-size:8;fill:#808080">
	<text transform="matrix(1 0 0 1 10.50 14.50)">1</text>
	<text transform="matrix(1 0 0 1 26.25 12.50)">2</text>
	<text transform="matrix(1 0 0 1 25.25 38.50)">3</text>
	<text transform="matrix(1 0 0 1 25.25 57.50)">4</text>
	<text transform="matrix(1 0 0 1 43.50 24.50)">5</text>
	<text transform="matrix(1 0 0 1 49.50 11.50)">6</text>
	<text transform="matrix(1 0 0 1 73.50 32.50)">7</text>
	<text transform="matrix(1 0 0 1 67.50 7.50)">8</text>
	<text transform="matrix(1 0 0 1 43.50 63.50)">9</text>
	<text transform="matrix(1 0 0 1 48.50 55.50)">10</text>
	<text transform="matrix(1 0 0 1 73.50 71.50)">11</text>
	<text transform="matrix(1 0 0 1 66.25 57.50)">12</text>
</g>
</svg>