<svg xmlns="http://www.w3.org/2000/svg" xmlns:kvg="http://kanjivg.tagaini.net" height="109" meaning="breed, care for, shepherd, feed, pasture" viewBox="0 0 109 109" width="109">
<g id="kvg:StrokePaths_07267" style="fill:none;stroke:#000000;stroke-width:3;stroke-linecap:round;stroke-linejoin:round;">
<g id="kvg:07267" kvg:element="&#29287;">
	<g id="kvg:07267-g1" kvg:element="&#29275;" kvg:position="left" kvg:radical="general" kvg:variant="true">
		<path d="M22.02,25.89c0.03,0.65,0.18,1.7-0.06,2.61c-1.71,6.5-5.58,16-11.65,24.21" id="kvg:07267-s1" kvg:type="&#12754;" />
		<path d="M21.75,39.75c1,0.12,2.08,0.19,3.14,0.09c6.68-0.63,13.72-3.23,17.61-4.09c1.22-0.27,2.75-0.5,4-0.25" id="kvg:07267-s2" kvg:type="&#12752;" />
		<path d="M33.62,12.5c0.94,0.94,1.71,2.88,1.71,4.25c0,0.86,0.02,53.29,0.03,74.12c0,3.95,0,6.76,0,7.88" id="kvg:07267-s3" kvg:type="&#12753;" />
		<path d="M14.12,71.61c1.17,0.54,2.29,0.55,3.55-0.3c1.11-0.75,19.76-13.59,24.45-17.19" id="kvg:07267-s4" kvg:type="&#12736;" />
	</g>
	<g id="kvg:07267-g2" kvg:element="&#25908;" kvg:original="&#25909;" kvg:position="right" kvg:variant="true">
		<g id="kvg:07267-g3" kvg:position="top">
			<path d="M64.66,13.39c0.47,0.99,0.3,2.56-0.09,3.89C62.1,25.83,57.88,39.38,49.5,53" id="kvg:07267-s5" kvg:type="&#12754;" />
			<path d="M59.15,40.17c0.97,0.08,1.92,0,2.6-0.04c6.23-0.46,18.4-4.16,26.15-5.88c1.43-0.32,3.47-0.62,5.35-0.25" id="kvg:07267-s6" kvg:type="&#12752;" />
		</g>
		<g id="kvg:07267-g4" kvg:element="&#20034;" kvg:position="bottom">
			<g id="kvg:07267-g5" kvg:element="&#20031;">
				<path d="M80,46c0.55,1.22,0.6,2.59,0.02,4.82C74.8,71.1,64.5,87.5,45.76,96.25" id="kvg:07267-s7" kvg:type="&#12754;" />
			</g>
			<path d="M55.25,57.26c4.73,1.02,21.35,23.11,32.25,32.49c2.22,1.91,4.74,3.94,7.5,5" id="kvg:07267-s8" kvg:type="&#12751;" />
		</g>
	</g>
</g>
</g>
<g id="kvg:StrokeNumbers_07267" style="font-size:8;fill:#808080">
	<text transform="matrix(1 0 0 1 12.75 24.13)">1</text>
	<text transform="matrix(1 0 0 1 26.25 36.13)">2</text>
	<text transform="matrix(1 0 0 1 30.75 7.63)">3</text>
	<text transform="matrix(1 0 0 1 5.25 78.13)">4</text>
	<text transform="matrix(1 0 0 1 66.75 10.63)">5</text>
	<text transform="matrix(1 0 0 1 63.75 36.13)">6</text>
	<text transform="matrix(1 0 0 1 86.25 46.63)">7</text>
	<text transform="matrix(1 0 0 1 59.25 55.63)">8</text>
</g>
</svg>