<svg xmlns="http://www.w3.org/2000/svg" xmlns:kvg="http://kanjivg.tagaini.net" height="109" kun="&#12356;&#12396;, &#12356;&#12396;-" meaning="dog" on="&#12465;&#12531;" viewBox="0 0 109 109" width="109">
<g id="kvg:StrokePaths_072ac" style="fill:none;stroke:#000000;stroke-width:3;stroke-linecap:round;stroke-linejoin:round;">
<g id="kvg:072ac" kvg:element="&#29356;" kvg:radical="general">
	<g id="kvg:072ac-g1" kvg:element="&#22823;">
		<path d="M18.38,46.36c2.37,0.64,5.38,0.73,7.74,0.47c14.39-1.58,36.51-4.46,51.25-5.75c2.51-0.22,6-0.33,7.89,0.42" id="kvg:072ac-s1" kvg:type="&#12752;" />
		<path d="M50.25,15.75c1,1.08,1.61,2.16,1.74,4.32C53.75,48.25,46.5,79.75,17,92.25" id="kvg:072ac-s2" kvg:type="&#12754;" />
		<path d="M51.5,45c8.29,11.97,23.78,31.58,35.16,41.85c2.37,2.14,4.59,4.15,8.09,5.4" id="kvg:072ac-s3" kvg:type="&#12751;" />
	</g>
	<g id="kvg:072ac-g2" kvg:element="&#20022;">
		<path d="M67.33,20.25c6.9,3.89,8.78,6.85,10.92,10.5" id="kvg:072ac-s4" kvg:type="&#12756;" />
	</g>
</g>
</g>
<g id="kvg:StrokeNumbers_072ac" style="font-size:8;fill:#808080">
	<text transform="matrix(1 0 0 1 11.50 47.50)">1</text>
	<text transform="matrix(1 0 0 1 39.75 15.50)">2</text>
	<text transform="matrix(1 0 0 1 62.50 55.63)">3</text>
	<text transform="matrix(1 0 0 1 60.50 19.50)">4</text>
</g>
</svg>