<svg xmlns="http://www.w3.org/2000/svg" xmlns:kvg="http://kanjivg.tagaini.net" height="109" kun="&#12420;&#12414;&#12356;&#12396;" meaning="wolf, cruel, wicked, mean" on="&#12469;&#12452;" viewBox="0 0 109 109" width="109">
<g id="kvg:StrokePaths_072b2" style="fill:none;stroke:#000000;stroke-width:3;stroke-linecap:round;stroke-linejoin:round;">
<g id="kvg:072b2" kvg:element="&#29362;">
	<g id="kvg:072b2-g1" kvg:element="&#11944;" kvg:original="&#29356;" kvg:position="left" kvg:radical="tradit" kvg:variant="true">
		<path d="M39.29,17c0.07,0.53,0.31,1.56-0.14,2.13c-5.77,7.32-11.64,12.5-25.66,20.41" id="kvg:072b2-s1" kvg:type="&#12754;" />
		<path d="M20.5,17.5C46.25,38.25,40,103,24,89" id="kvg:072b2-s2" kvg:type="&#12757;va" />
		<path d="M32.33,42c0.05,0.67,0.22,1.96-0.1,2.68c-4.05,9.19-8.16,15.68-17.99,25.62" id="kvg:072b2-s3" kvg:type="&#12754;" />
	</g>
	<g id="kvg:072b2-g2" kvg:element="&#25165;" kvg:position="right">
		<g id="kvg:072b2-g3" kvg:element="&#25164;" kvg:original="&#25163;" kvg:variant="true">
			<path d="M46.75,38.5c1.2,0,3.24,0.4,5.59,0.25C64.4,38,77.42,36.5,93.59,35.25c2.34-0.18,3.91,0,5.41,0.5" id="kvg:072b2-s4" kvg:type="&#12752;" />
			<g id="kvg:072b2-g4" kvg:element="&#20101;">
				<path d="M77.77,12.83c1.23,0.92,2.17,2.49,2.26,5.52c0.4,14.55-0.26,67.66-0.26,72.62c0,8.78-7.21,0.5-8.71-0.75" id="kvg:072b2-s5" kvg:type="&#12762;" />
			</g>
			<path d="M79.29,36.5c-0.54,1.5-0.8,1.29-1.19,2.85c-2.29,9.17-15.46,29.28-33.48,41.59" id="kvg:072b2-s6" kvg:type="&#12754;" />
		</g>
	</g>
</g>
</g>
<g id="kvg:StrokeNumbers_072b2" style="font-size:8;fill:#808080">
	<text transform="matrix(1 0 0 1 31.50 15.50)">1</text>
	<text transform="matrix(1 0 0 1 13.25 17.55)">2</text>
	<text transform="matrix(1 0 0 1 24.50 43.50)">3</text>
	<text transform="matrix(1 0 0 1 44.50 34.50)">4</text>
	<text transform="matrix(1 0 0 1 68.50 13.50)">5</text>
	<text transform="matrix(1 0 0 1 66.50 48.50)">6</text>
</g>
</svg>