<svg xmlns="http://www.w3.org/2000/svg" xmlns:kvg="http://kanjivg.tagaini.net" height="109" meaning="status quo, conditions, circumstances, form, appearance" viewBox="0 0 109 109" width="109">
<g id="kvg:StrokePaths_072b6" style="fill:none;stroke:#000000;stroke-width:3;stroke-linecap:round;stroke-linejoin:round;">
<g id="kvg:072b6" kvg:element="&#29366;">
	<g id="kvg:072b6-g1" kvg:element="&#11942;" kvg:original="&#29247;" kvg:phon="&#20012;" kvg:position="left" kvg:radical="nelson" kvg:variant="true">
		<path d="M33.37,16.5c0.94,0.94,1.46,3,1.46,4.25c0,0.85-0.11,46.62-0.11,67c0,3.92,0.03,6,0.03,7.87" id="kvg:072b6-s1" kvg:type="&#12753;" />
		<path d="M14.75,30.5c3.53,1.85,8.12,6.62,10,10.5" id="kvg:072b6-s2" kvg:type="&#12756;" />
		<path d="M11.25,73.14c1.5,0.99,3.37,0.36,4.54-0.96C19.21,68.34,21.5,66,26.75,59.5" id="kvg:072b6-s3" kvg:type="&#12736;" />
	</g>
	<g id="kvg:072b6-g2" kvg:element="&#29356;" kvg:position="right" kvg:radical="tradit">
		<g id="kvg:072b6-g3" kvg:element="&#22823;">
			<path d="M43.88,47.11c2,0.64,4.9,0.47,6.62,0.26c8.75-1.08,24.18-3.39,31.96-4.29c1.79-0.21,4.41-0.21,6.19,0.17" id="kvg:072b6-s4" kvg:type="&#12752;" />
			<path d="M63.01,16.5c1,0.99,1.42,2.66,1.49,4.82c1,29.68-2.75,57.56-21.72,72.43" id="kvg:072b6-s5" kvg:type="&#12754;" />
			<path d="M64.25,46.25c4.35,11.11,15.58,29.31,22.97,38.03c1.53,1.81,3.66,4.35,6.03,6.1" id="kvg:072b6-s6" kvg:type="&#12751;" />
		</g>
		<g id="kvg:072b6-g4" kvg:element="&#20022;">
			<path d="M78.31,19.5c4.56,3.52,6.56,6.95,7.98,10.25" id="kvg:072b6-s7" kvg:type="&#12756;" />
		</g>
	</g>
</g>
</g>
<g id="kvg:StrokeNumbers_072b6" style="font-size:8;fill:#808080">
	<text transform="matrix(1 0 0 1 24.75 16.63)">1</text>
	<text transform="matrix(1 0 0 1 7.50 31.50)">2</text>
	<text transform="matrix(1 0 0 1 5.50 78.50)">3</text>
	<text transform="matrix(1 0 0 1 42.50 44.50)">4</text>
	<text transform="matrix(1 0 0 1 54.50 21.50)">5</text>
	<text transform="matrix(1 0 0 1 71.50 55.50)">6</text>
	<text transform="matrix(1 0 0 1 71.50 18.50)">7</text>
</g>
</svg>