<svg xmlns="http://www.w3.org/2000/svg" xmlns:kvg="http://kanjivg.tagaini.net" height="109" meaning="Pekinese dog, Japanese spaniel" viewBox="0 0 109 109" width="109">
<g id="kvg:StrokePaths_072c6" style="fill:none;stroke:#000000;stroke-width:3;stroke-linecap:round;stroke-linejoin:round;">
<g id="kvg:072c6" kvg:element="&#29382;">
	<g id="kvg:072c6-g1" kvg:element="&#11944;" kvg:original="&#29356;" kvg:position="left" kvg:radical="general" kvg:variant="true">
		<path d="M39.29,15c0.07,0.59,0.32,1.73-0.14,2.37c-5.94,8.13-11.97,13.88-26.4,22.67" id="kvg:072c6-s1" kvg:type="&#12754;" />
		<path d="M15.64,18.5c29.6,21.12,21.77,84.45,8.65,71.93" id="kvg:072c6-s2" kvg:type="&#12757;va" />
		<path d="M29.83,44c0.05,0.63,0.23,1.83-0.1,2.51c-4.27,8.62-8.61,14.71-18.98,24.03" id="kvg:072c6-s3" kvg:type="&#12754;" />
	</g>
	<g id="kvg:072c6-g2" kvg:element="&#20013;" kvg:position="right">
		<g id="kvg:072c6-g3" kvg:element="&#21475;">
			<path d="M46.06,37.88c0.48,0.26,1.42,1.36,1.57,2.04c1.09,4.89,2.37,17.58,3.45,26.83" id="kvg:072c6-s4" kvg:type="&#12753;" />
			<path d="M47.45,39.53c15.05-1.78,36.68-4.42,45.38-4.8c3.39-0.15,4.07,2.43,3.65,3.92c-1.44,5.1-2.23,12.1-4.42,22.02" id="kvg:072c6-s5" kvg:type="&#12757;b" />
			<path d="M51.22,64.21c9.75-1.32,29.28-2.46,42.62-3.12" id="kvg:072c6-s6" kvg:type="&#12752;b" />
		</g>
		<g id="kvg:072c6-g4" kvg:element="&#20008;">
			<path d="M69.76,11.25c1.1,0.45,1.76,2.02,1.98,2.91c0.22,0.9,0,78.74-0.22,84.34" id="kvg:072c6-s7" kvg:type="&#12753;" />
		</g>
	</g>
</g>
</g>
<g id="kvg:StrokeNumbers_072c6" style="font-size:8;fill:#808080">
	<text transform="matrix(1 0 0 1 31.50 14.63)">1</text>
	<text transform="matrix(1 0 0 1 9.50 20.50)">2</text>
	<text transform="matrix(1 0 0 1 21.50 46.50)">3</text>
	<text transform="matrix(1 0 0 1 40.50 46.50)">4</text>
	<text transform="matrix(1 0 0 1 49.50 35.50)">5</text>
	<text transform="matrix(1 0 0 1 55.50 60.50)">6</text>
	<text transform="matrix(1 0 0 1 61.50 11.50)">7</text>
</g>
</svg>