<svg xmlns="http://www.w3.org/2000/svg" xmlns:kvg="http://kanjivg.tagaini.net" height="109" kun="&#12378;&#12427;.&#12356;, &#12371;&#12377;.&#12356;, &#12431;&#12427;&#12364;&#12375;&#12371;.&#12356;" meaning="cunning, sly, crafty, miserly, mean, stingy" on="&#12467;&#12454;, &#12461;&#12519;&#12454;" viewBox="0 0 109 109" width="109">
<g id="kvg:StrokePaths_072e1" style="fill:none;stroke:#000000;stroke-width:3;stroke-linecap:round;stroke-linejoin:round;">
<g id="kvg:072e1" kvg:element="&#29409;">
	<g id="kvg:072e1-g1" kvg:element="&#11944;" kvg:original="&#29356;" kvg:position="left" kvg:radical="general" kvg:variant="true">
		<path d="M35.05,16.75c0.07,0.6,0.31,1.77-0.14,2.42c-5.6,8.29-11.3,14.16-24.91,23.13" id="kvg:072e1-s1" kvg:type="&#12754;" />
		<path d="M12.5,18.75c34,19.25,25.75,84.75,10.75,69" id="kvg:072e1-s2" kvg:type="&#12757;va" />
		<path d="M28.85,42.5c0.04,0.68,0.19,2.01-0.09,2.75c-3.55,9.43-7.15,16.1-15.76,26.3" id="kvg:072e1-s3" kvg:type="&#12754;" />
	</g>
	<g id="kvg:072e1-g2" kvg:element="&#20132;" kvg:position="right">
		<g id="kvg:072e1-g3" kvg:element="&#20128;" kvg:position="top">
			<path d="M65.62,14.5c0.84,0.55,2.23,2.67,2.23,3.76c0,4.32-0.02,8.55-0.11,11.65" id="kvg:072e1-s4" kvg:type="&#12753;a" />
			<path d="M43,31.88c2.36,0.66,4.71,0.86,6.11,0.67c12.44-1.7,31.49-3.22,41.21-3.69c2.37-0.11,3.58,0.06,5.34,0.85" id="kvg:072e1-s5" kvg:type="&#12752;" />
		</g>
		<g id="kvg:072e1-g4" kvg:element="&#29238;" kvg:position="bottom">
			<path d="M57.45,38.34c0.26,0.81-0.02,2.71-0.64,4.04c-2.67,5.74-6.52,11.2-12.05,15.57" id="kvg:072e1-s6" kvg:type="&#12754;" />
			<path d="M76.77,37.98c7.58,5.21,13.84,11.22,17.63,17.54" id="kvg:072e1-s7" kvg:type="&#12756;" />
			<path d="M78.58,49.91c0.47,0.98,0.64,2.71-0.15,4.45C71.25,70.25,59,83.5,42.25,94.4" id="kvg:072e1-s8" kvg:type="&#12754;" />
			<path d="M52.09,58.02c5.91,0.48,25.43,24.72,37.67,34c2.3,1.75,4,1.72,5.99,1.87" id="kvg:072e1-s9" kvg:type="&#12751;" />
		</g>
	</g>
</g>
</g>
<g id="kvg:StrokeNumbers_072e1" style="font-size:8;fill:#808080">
	<text transform="matrix(1 0 0 1 27.50 15.50)">1</text>
	<text transform="matrix(1 0 0 1 6.50 18.50)">2</text>
	<text transform="matrix(1 0 0 1 21.50 45.50)">3</text>
	<text transform="matrix(1 0 0 1 55.50 15.50)">4</text>
	<text transform="matrix(1 0 0 1 39.50 28.50)">5</text>
	<text transform="matrix(1 0 0 1 49.50 42.25)">6</text>
	<text transform="matrix(1 0 0 1 68.50 40.43)">7</text>
	<text transform="matrix(1 0 0 1 69.50 50.50)">8</text>
	<text transform="matrix(1 0 0 1 56.50 58.53)">9</text>
</g>
</svg>