<svg xmlns="http://www.w3.org/2000/svg" xmlns:kvg="http://kanjivg.tagaini.net" height="109" meaning="wolf, be flurried" viewBox="0 0 109 109" width="109">
<g id="kvg:StrokePaths_072fd" style="fill:none;stroke:#000000;stroke-width:3;stroke-linecap:round;stroke-linejoin:round;">
<g id="kvg:072fd" kvg:element="&#29437;">
	<g id="kvg:072fd-g1" kvg:element="&#11944;" kvg:original="&#29356;" kvg:position="left" kvg:radical="general" kvg:variant="true">
		<path d="M38.81,15.5c0.06,0.61,0.28,1.8-0.12,2.46C33.58,26.42,28.4,32.4,16,41.54" id="kvg:072fd-s1" kvg:type="&#12754;" />
		<path d="M18.5,19.5c30.25,20.75,19,85,6.5,70.5" id="kvg:072fd-s2" kvg:type="&#12757;va" />
		<path d="M31.84,44c0.04,0.65,0.2,1.9-0.09,2.61c-3.71,8.94-7.48,15.27-16.5,24.94" id="kvg:072fd-s3" kvg:type="&#12754;" />
	</g>
	<g id="kvg:072fd-g2" kvg:element="&#35997;" kvg:position="right">
		<g id="kvg:072fd-g3" kvg:element="&#30446;" kvg:position="top">
			<path d="M53.4,18.32c0.5,1.22,1.23,2.13,1.23,3.76c0,1.63,0.23,45-0.37,51.83" id="kvg:072fd-s4" kvg:type="&#12753;" />
			<path d="M55.47,20.74c2.84-0.2,24.49-3.31,27.08-3.55c2.16-0.2,3.31,1.12,3.31,2.65c0,3.72-0.64,51.09-0.64,52.31" id="kvg:072fd-s5" kvg:type="&#12757;a" />
			<path d="M54.69,37.94c5.31-0.47,25.91-3.31,30.47-3.31" id="kvg:072fd-s6" kvg:type="&#12752;a" />
			<path d="M54.92,53.88c8.02-0.9,21.77-2.72,30.27-2.9" id="kvg:072fd-s7" kvg:type="&#12752;a" />
			<path d="M54.56,72.21c8.02-0.67,23.33-2.44,30.64-2.44" id="kvg:072fd-s8" kvg:type="&#12752;a" />
		</g>
		<g id="kvg:072fd-g4" kvg:position="bottom">
			<path d="M61.37,79.87c0.45,1.14-0.39,2.21-1.23,3.09C57.25,86,52,90.75,45,93.81" id="kvg:072fd-s9" kvg:type="&#12754;" />
			<path d="M78.6,78.66c5.66,4.66,12.36,13.1,13.9,17.17" id="kvg:072fd-s10" kvg:type="&#12756;" />
		</g>
	</g>
</g>
</g>
<g id="kvg:StrokeNumbers_072fd" style="font-size:8;fill:#808080">
	<text transform="matrix(1 0 0 1 31.50 13.50)">1</text>
	<text transform="matrix(1 0 0 1 10.44 19.50)">2</text>
	<text transform="matrix(1 0 0 1 24.50 45.50)">3</text>
	<text transform="matrix(1 0 0 1 47.50 25.50)">4</text>
	<text transform="matrix(1 0 0 1 56.50 16.50)">5</text>
	<text transform="matrix(1 0 0 1 58.50 33.76)">6</text>
	<text transform="matrix(1 0 0 1 58.50 50.50)">7</text>
	<text transform="matrix(1 0 0 1 58.50 68.50)">8</text>
	<text transform="matrix(1 0 0 1 52.50 82.50)">9</text>
	<text transform="matrix(1 0 0 1 68.69 83.50)">10</text>
</g>
</svg>