<svg xmlns="http://www.w3.org/2000/svg" xmlns:kvg="http://kanjivg.tagaini.net" height="109" kun="&#12375;&#12423;&#12358;&#12376;&#12423;&#12358;" meaning="orangutan" on="&#12471;&#12519;&#12454;, &#12475;&#12452;, &#12477;&#12454;" viewBox="0 0 109 109" width="109">
<g id="kvg:StrokePaths_07329" style="fill:none;stroke:#000000;stroke-width:3;stroke-linecap:round;stroke-linejoin:round;">
<g id="kvg:07329" kvg:element="&#29481;">
	<g id="kvg:07329-g1" kvg:element="&#11944;" kvg:original="&#29356;" kvg:position="left" kvg:radical="general" kvg:variant="true">
		<path d="M38.04,16.75c0.07,0.6,0.32,1.77-0.14,2.42c-5.86,8.29-11.82,14.16-26.07,23.13" id="kvg:07329-s1" kvg:type="&#12754;" />
		<path d="M17.5,17.77c28.25,23.89,17.46,86.45,5.75,73.2" id="kvg:07329-s2" kvg:type="&#12757;va" />
		<path d="M30.34,42.94c0.04,0.68,0.21,1.99-0.09,2.72c-3.82,9.34-7.71,15.94-17,26.04" id="kvg:07329-s3" kvg:type="&#12754;" />
	</g>
	<g id="kvg:07329-g2" kvg:element="&#26143;" kvg:position="right">
		<g id="kvg:07329-g3" kvg:element="&#26085;" kvg:position="top">
			<path d="M47.82,15.21c0.69,0.6,1.36,2.09,1.42,2.94c0.05,0.85,3.53,23.7,3.8,24.54" id="kvg:07329-s4" kvg:type="&#12753;" />
			<path d="M50.22,16.39c3.67-0.31,32.05-3.23,35.39-3.54c2.79-0.26,4.81,0.89,4.06,4.74c-1.38,6.99-2.74,14.46-4.34,22.45" id="kvg:07329-s5" kvg:type="&#12757;a" />
			<path d="M51.64,28.21c4.98-0.27,30.33-2.33,35.95-2.64" id="kvg:07329-s6" kvg:type="&#12752;a" />
			<path d="M54.12,40c7.36-0.4,20.49-1.8,30.01-2.32" id="kvg:07329-s7" kvg:type="&#12752;a" />
		</g>
		<g id="kvg:07329-g4" kvg:element="&#29983;" kvg:position="bottom">
			<path d="M53.29,48.93c0.04,0.49,0.08,1.27-0.07,1.98c-0.87,4.17-5.89,13.33-12.75,18.94" id="kvg:07329-s8" kvg:type="&#12754;" />
			<path d="M52.92,60.09c1.04,0.27,2.94,0.33,3.99,0.27c7.5-0.39,24.86-2.46,31.33-2.87c1.72-0.11,2.44-0.06,3.36-0.02" id="kvg:07329-s9" kvg:type="&#12752;" />
			<path d="M67.28,44.14c0.55,0.51,2.32,2.36,2.32,4.83c0,1.02-0.07,37.19-0.18,43.55" id="kvg:07329-s10" kvg:type="&#12753;a" />
			<path d="M49.29,76.04c1.11,0.28,3.14,0.34,4.25,0.28c7.99-0.4,25.24-1.93,32.13-2.37c1.84-0.11,2.6-0.06,3.58-0.02" id="kvg:07329-s11" kvg:type="&#12752;" />
			<path d="M40.88,93.95c1.27,0.31,4.09,0.42,5.36,0.31c11.26-1.01,39.81-2.51,47.69-2.99c2.1-0.13,4.38-0.25,6.32,0.51" id="kvg:07329-s12" kvg:type="&#12752;" />
		</g>
	</g>
</g>
</g>
<g id="kvg:StrokeNumbers_07329" style="font-size:8;fill:#808080">
	<text transform="matrix(1 0 0 1 30.50 16.50)">1</text>
	<text transform="matrix(1 0 0 1 8.50 16.50)">2</text>
	<text transform="matrix(1 0 0 1 22.50 45.50)">3</text>
	<text transform="matrix(1 0 0 1 42.58 25.50)">4</text>
	<text transform="matrix(1 0 0 1 51.50 12.50)">5</text>
	<text transform="matrix(1 0 0 1 55.50 25.50)">6</text>
	<text transform="matrix(1 0 0 1 56.50 37.50)">7</text>
	<text transform="matrix(1 0 0 1 44.50 50.50)">8</text>
	<text transform="matrix(1 0 0 1 57.92 56.50)">9</text>
	<text transform="matrix(1 0 0 1 57.00 48.50)">10</text>
	<text transform="matrix(1 0 0 1 47.00 73.00)">11</text>
	<text transform="matrix(1 0 0 1 37.50 90.50)">12</text>
</g>
</svg>