<svg xmlns="http://www.w3.org/2000/svg" xmlns:kvg="http://kanjivg.tagaini.net" height="109" meaning="emperor's seal" viewBox="0 0 109 109" width="109">
<g id="kvg:StrokePaths_074bd" style="fill:none;stroke:#000000;stroke-width:3;stroke-linecap:round;stroke-linejoin:round;">
<g id="kvg:074bd" kvg:element="&#29885;">
	<g id="kvg:074bd-g1" kvg:element="&#29246;" kvg:phon="&#29246;" kvg:position="top">
		<g id="kvg:074bd-g2" kvg:element="&#19968;" kvg:radical="nelson">
			<path d="M22.51,14.61c3.62,0.39,6.19,0.25,9.12,0.04c11.89-0.84,33.31-2.55,45.62-3.01c3.13-0.12,6.33-0.05,9.44,0.47" id="kvg:074bd-s1" kvg:type="&#12752;" />
		</g>
		<g id="kvg:074bd-g3" kvg:element="&#20843;">
			<g id="kvg:074bd-g4" kvg:position="left">
				<path d="M37.96,17.92c0.12,0.88-0.19,1.59-0.88,2.16c-3.71,3.05-8.58,6.18-18.8,10.49" id="kvg:074bd-s2" kvg:type="&#12754;" />
			</g>
			<g id="kvg:074bd-g5" kvg:position="right">
				<path d="M72.5,16.5c5.81,1.5,15.01,6.16,16.46,8.49" id="kvg:074bd-s3" kvg:type="&#12756;/&#12751;" />
			</g>
		</g>
		<g id="kvg:074bd-g6" kvg:element="&#20866;">
			<path d="M25.85,29.32c1.04,1.04,1.48,2.43,1.48,3.79c0,2.29-0.03,18.03-0.04,26.89c-0.01,3.42-0.01,5.8-0.01,6" id="kvg:074bd-s4" kvg:type="&#12753;" />
			<path d="M27.58,30.07c6.81-0.55,41.45-3.06,48.3-3.63c3.91-0.33,5.78-0.15,5.77,4.07c-0.02,6.2-0.13,25.58-0.13,28.62c0,9.12-3.39,4-5.03,2.4" id="kvg:074bd-s5" kvg:type="&#12742;a" />
		</g>
		<path d="M53.17,15.63c0.92,0.92,1.23,1.93,1.23,3.29c0,2.72,0.1,26.66,0.03,39.59c-0.02,4.03-0.04,6.84-0.04,7.37" id="kvg:074bd-s6" kvg:type="&#12753;" />
		<g id="kvg:074bd-g7" kvg:element="&#29243;" kvg:variant="true">
			<g id="kvg:074bd-g8" kvg:element="&#20034;" kvg:position="top" kvg:variant="true">
				<g id="kvg:074bd-g9" kvg:element="&#20031;">
					<path d="M46.05,34.7c0.09,0.8-0.05,1.54-0.43,2.23c-1.39,3.02-5.52,8.25-11.5,11.58" id="kvg:074bd-s7" kvg:type="&#12754;" />
				</g>
				<path d="M36.5,38.43c3.93,0.73,9.15,4.46,10.68,7.03" id="kvg:074bd-s8" kvg:type="&#12756;/&#12751;" />
			</g>
			<g id="kvg:074bd-g10" kvg:element="&#20034;" kvg:position="bottom" kvg:variant="true">
				<g id="kvg:074bd-g11" kvg:element="&#20031;">
					<path d="M46.1,51.57c0.1,0.87-0.03,1.68-0.41,2.46c-1.43,3.42-5.99,9.17-12.02,12.99" id="kvg:074bd-s9" kvg:type="&#12754;" />
				</g>
				<path d="M37,54.62c3.49,0.86,8.12,5.19,9.48,8.18" id="kvg:074bd-s10" kvg:type="&#12756;/&#12751;" />
			</g>
		</g>
		<g id="kvg:074bd-g12" kvg:element="&#29243;" kvg:variant="true">
			<g id="kvg:074bd-g13" kvg:element="&#20034;" kvg:position="top" kvg:variant="true">
				<g id="kvg:074bd-g14" kvg:element="&#20031;">
					<path d="M72.07,32.81c0.08,0.75-0.02,1.47-0.32,2.16c-1.12,3.02-4.71,8.34-9.46,11.71" id="kvg:074bd-s11" kvg:type="&#12754;" />
				</g>
				<path d="M61.92,36.77c4.06,0.79,9.45,4.76,11.03,7.51" id="kvg:074bd-s12" kvg:type="&#12756;/&#12751;" />
			</g>
			<g id="kvg:074bd-g15" kvg:element="&#20034;" kvg:position="bottom" kvg:variant="true">
				<g id="kvg:074bd-g16" kvg:element="&#20031;">
					<path d="M72.63,50.6c0.09,0.78-0.03,1.52-0.34,2.22c-1.22,3.12-5.15,8.61-10.34,12.1" id="kvg:074bd-s13" kvg:type="&#12754;" />
				</g>
				<path d="M63.82,54.56c3.45,1.59,7.56,5.13,9.48,7.59" id="kvg:074bd-s14" kvg:type="&#12756;/&#12751;" />
			</g>
		</g>
	</g>
	<g id="kvg:074bd-g17" kvg:element="&#29577;" kvg:position="bottom" kvg:radical="tradit">
		<g id="kvg:074bd-g18" kvg:element="&#29579;" kvg:original="&#29577;" kvg:partial="true">
			<path d="M27.11,73.68c2.63,0.74,5.73,0.28,8.4,0.06c11.72-0.95,23.09-1.74,40.24-2.63c2.51-0.13,4.97-0.31,7.46,0.15" id="kvg:074bd-s15" kvg:type="&#12752;" />
			<path d="M53.37,75.4c0.92,0.92,1.27,2.1,1.27,3.86c0,5.17-0.02,9.49-0.02,14.86" id="kvg:074bd-s16" kvg:type="&#12753;a" />
			<path d="M30.84,84.95c3.29,0.55,5.61,0.36,8.17,0.14c8.9-0.76,22.83-2.03,31.86-2.59c2.85-0.18,5.84-0.24,8.68,0.22" id="kvg:074bd-s17" kvg:type="&#12752;" />
			<path d="M20.75,96.24c3.62,0.89,5.99,0.93,9.12,0.68c16.25-1.29,37.41-2.32,52.25-2.55c3.45-0.05,6.51,0.24,9.87,0.99" id="kvg:074bd-s18" kvg:type="&#12752;" />
		</g>
		<g id="kvg:074bd-g19" kvg:element="&#20022;">
			<path d="M75.25,87.11c2.51,1,4.66,3.14,5.2,4.39" id="kvg:074bd-s19" kvg:type="&#12756;" />
		</g>
	</g>
</g>
</g>
<g id="kvg:StrokeNumbers_074bd" style="font-size:8;fill:#808080">
	<text transform="matrix(1 0 0 1 15.50 14.50)">1</text>
	<text transform="matrix(1 0 0 1 26.50 23.50)">2</text>
	<text transform="matrix(1 0 0 1 65.50 20.50)">3</text>
	<text transform="matrix(1 0 0 1 18.75 40.63)">4</text>
	<text transform="matrix(1 0 0 1 41.25 27.50)">5</text>
	<text transform="matrix(1 0 0 1 47.50 22.63)">6</text>
	<text transform="matrix(1 0 0 1 38.75 36.50)">7</text>
	<text transform="matrix(1 0 0 1 31.50 43.50)">8</text>
	<text transform="matrix(1 0 0 1 39.25 52.63)">9</text>
	<text transform="matrix(1 0 0 1 30.50 60.50)">10</text>
	<text transform="matrix(1 0 0 1 63.50 34.63)">11</text>
	<text transform="matrix(1 0 0 1 56.25 42.50)">12</text>
	<text transform="matrix(1 0 0 1 63.50 52.55)">13</text>
	<text transform="matrix(1 0 0 1 57.75 60.50)">14</text>
	<text transform="matrix(1 0 0 1 16.50 76.63)">15</text>
	<text transform="matrix(1 0 0 1 43.50 80.50)">16</text>
	<text transform="matrix(1 0 0 1 21.50 87.13)">17</text>
	<text transform="matrix(1 0 0 1 10.50 98.50)">18</text>
	<text transform="matrix(1 0 0 1 65.50 90.13)">19</text>
</g>
</svg>