<svg xmlns="http://www.w3.org/2000/svg" xmlns:kvg="http://kanjivg.tagaini.net" height="109" meaning="petal, valve" viewBox="0 0 109 109" width="109">
<g id="kvg:StrokePaths_074e3" style="fill:none;stroke:#000000;stroke-width:3;stroke-linecap:round;stroke-linejoin:round;">
<g id="kvg:074e3" kvg:element="&#29923;">
	<g id="kvg:074e3-g1" kvg:element="&#36763;" kvg:variant="true">
		<g id="kvg:074e3-g2" kvg:element="&#31435;" kvg:position="top">
			<g id="kvg:074e3-g3" kvg:element="&#20128;" kvg:position="top">
				<path d="M23.62,13.75c1.01,1.31,1.51,1.31,1.51,4.35c0,3.05,0,3.65,0,7.65" id="kvg:074e3-s1" kvg:type="&#12753;a" />
				<path d="M9.35,27.2c0.83,0.33,1.8,0.38,2.62,0.33c4.67-0.28,17.74-2.53,24.81-2.77c1.38-0.05,2.21,0.16,2.9,0.32" id="kvg:074e3-s2" kvg:type="&#12752;" />
			</g>
			<g id="kvg:074e3-g4" kvg:position="bottom">
				<path d="M15.2,32.5c2.88,4.57,4.19,9.24,4.45,12.25" id="kvg:074e3-s3" kvg:type="&#12756;" />
				<path d="M33.26,28.25c0.54,0.54,0.61,1.82,0.54,2.27c-0.43,3.08-4.09,11.87-5.17,14.23" id="kvg:074e3-s4" kvg:type="&#12754;" />
				<path d="M9,48.8c1.04,0.39,2.26,0.53,3.29,0.39C17.5,48.5,28.75,47,34.87,46.7c1.73-0.09,2.77,0.19,3.63,0.38" id="kvg:074e3-s5" kvg:type="&#12736;" />
			</g>
		</g>
		<g id="kvg:074e3-g5" kvg:element="&#21313;" kvg:position="bottom">
			<path d="M10.18,69.73c0.66,0.9,1.88,1.13,2.54,0.9C21.13,67.69,31.5,63,37.9,60.27" id="kvg:074e3-s6" kvg:type="&#12752;" />
			<path d="M23.88,51.63c0.65,0.58,1.45,2.12,1.47,3.28c0.18,9.01,0.53,26.42-13.1,41.34" id="kvg:074e3-s7" kvg:type="&#12753;" />
		</g>
	</g>
	<g id="kvg:074e3-g6" kvg:element="&#29916;" kvg:radical="tradit">
		<g id="kvg:074e3-g7" kvg:element="&#20031;">
			<path d="M64.35,16c0.05,0.32-0.07,1.33-0.35,1.68c-3.51,4.45-8.44,8.11-17.59,11.7" id="kvg:074e3-s8" kvg:type="&#12754;" />
		</g>
		<path d="M43.33,30.28c0.4,0.71,1.02,1.96,1.13,3.99c1.09,21.13-0.72,45.87-13.9,55.94" id="kvg:074e3-s9" kvg:type="&#12754;" />
		<g id="kvg:074e3-g8" kvg:element="&#21430;" kvg:original="&#21430;" kvg:radical="nelson" kvg:variant="true">
			<path d="M52.39,29.76c0.73,0.62,1.31,2.75,1.31,4.01c0,6.44-0.14,40.09-0.14,50.55" id="kvg:074e3-s10" kvg:type="&#12753;" />
			<path d="M42.43,87.93c0.53,0.54,2.56,1.08,3.67,0.5c5.86-3.1,9.29-5.39,15.56-8.83" id="kvg:074e3-s11" kvg:type="&#12752;" />
			<path d="M59.34,71.43c1.63,3.15,4.22,12.96,4.62,17.87" id="kvg:074e3-s12" kvg:type="&#12756;" />
		</g>
		<path d="M59.06,28.17c0.18,0,0.76,0.6,0.96,1.8c2.2,13.17,5.88,41.13,13.51,57.54c1.16,2.49,2.39,4.04,3.22,4.85" id="kvg:074e3-s13" kvg:type="&#12751;" />
	</g>
	<g id="kvg:074e3-g9" kvg:element="&#36763;">
		<g id="kvg:074e3-g10" kvg:element="&#31435;" kvg:position="top">
			<g id="kvg:074e3-g11" kvg:element="&#20128;" kvg:position="top">
				<path d="M81.56,12.75c1.41,1.31,2.12,1.31,2.12,4.35c0,3.05,0,4.15,0,8.15" id="kvg:074e3-s14" kvg:type="&#12753;a" />
				<path d="M68.83,26.2c0.69,0.33,1.5,0.38,2.19,0.33c3.91-0.28,19.27-2.03,25.18-2.27c1.15-0.05,1.85,0.16,2.42,0.32" id="kvg:074e3-s15" kvg:type="&#12752;" />
			</g>
			<g id="kvg:074e3-g12" kvg:position="bottom">
				<path d="M74.65,31.5c2.71,4.66,3.94,9.43,4.18,12.5" id="kvg:074e3-s16" kvg:type="&#12756;" />
				<path d="M92.66,28.25c0.53,0.5,0.59,1.68,0.53,2.1c-0.43,2.85-4.01,10.97-5.07,13.15" id="kvg:074e3-s17" kvg:type="&#12754;" />
				<path d="M68.75,47.8c0.87,0.39,1.88,0.47,2.75,0.39c7.25-0.69,18.75-2.69,26.72-2.5c1.45,0.04,2.31,0.19,3.04,0.38" id="kvg:074e3-s18" kvg:type="&#12752;" />
			</g>
		</g>
		<g id="kvg:074e3-g13" kvg:element="&#21313;" kvg:position="bottom">
			<path d="M71.38,63.95c0.89,0.47,2.53,0.53,3.43,0.47c6.13-0.42,14.99-1.92,21.48-2.4c1.49-0.11,2.39,0.22,3.13,0.46" id="kvg:074e3-s19" kvg:type="&#12752;" />
			<path d="M83.14,48.63c0.66,0.52,1.68,2.62,1.68,4.96c0,6.05-0.19,42.74-0.22,44.29" id="kvg:074e3-s20" kvg:type="&#12753;" />
		</g>
	</g>
</g>
</g>
<g id="kvg:StrokeNumbers_074e3" style="font-size:8;fill:#808080">
	<text transform="matrix(1 0 0 1 14.50 13.50)">1</text>
	<text transform="matrix(1 0 0 1 2.50 27.50)">2</text>
	<text transform="matrix(1 0 0 1 7.75 36.50)">3</text>
	<text transform="matrix(1 0 0 1 25.50 34.50)">4</text>
	<text transform="matrix(1 0 0 1 1.50 48.50)">5</text>
	<text transform="matrix(1 0 0 1 2.50 70.50)">6</text>
	<text transform="matrix(1 0 0 1 17.50 59.50)">7</text>
	<text transform="matrix(1 0 0 1 55.50 15.50)">8</text>
	<text transform="matrix(1 0 0 1 37.50 37.50)">9</text>
	<text transform="matrix(1 0 0 1 45.75 39.50)">10</text>
	<text transform="matrix(1 0 0 1 40.50 83.50)">11</text>
	<text transform="matrix(1 0 0 1 56.75 68.80)">12</text>
	<text transform="matrix(1 0 0 1 59.50 28.73)">13</text>
	<text transform="matrix(1 0 0 1 69.50 12.50)">14</text>
	<text transform="matrix(1 0 0 1 68.50 23.50)">15</text>
	<text transform="matrix(1 0 0 1 64.50 35.50)">16</text>
	<text transform="matrix(1 0 0 1 82.75 34.43)">17</text>
	<text transform="matrix(1 0 0 1 65.75 44.50)">18</text>
	<text transform="matrix(1 0 0 1 68.50 60.50)">19</text>
	<text transform="matrix(1 0 0 1 74.50 55.50)">20</text>
</g>
</svg>