<svg xmlns="http://www.w3.org/2000/svg" xmlns:kvg="http://kanjivg.tagaini.net" height="109" kun="&#12418;&#12383;&#12356;" meaning="jar, jug, container" on="&#12458;&#12454;" viewBox="0 0 109 109" width="109">
<g id="kvg:StrokePaths_074ee" style="fill:none;stroke:#000000;stroke-width:3;stroke-linecap:round;stroke-linejoin:round;">
<g id="kvg:074ee" kvg:element="&#29934;">
	<g id="kvg:074ee-g1" kvg:element="&#20844;" kvg:position="top">
		<g id="kvg:074ee-g2" kvg:element="&#20843;" kvg:position="top">
			<path d="M43.37,12.71c0.5,0.75-0.03,1.62-0.7,2.52c-4.89,6.53-13.16,14.16-28.91,22.53" id="kvg:074ee-s1" kvg:type="&#12754;" />
			<path d="M60.31,8.89c4.7,1.7,20.34,19.4,28.82,23.63c3.27,1.63,4.45,2.51,7.63,3.04" id="kvg:074ee-s2" kvg:type="&#12751;" />
		</g>
		<g id="kvg:074ee-g3" kvg:element="&#21430;" kvg:position="bottom">
			<path d="M53.54,21.16c0.49,0.41,0.39,1.37-0.01,1.86c-5.43,6.61-10.25,12.28-17.98,18.87c-1.88,1.6-1.2,3.2,1.81,2.59c8.41-1.69,25.93-6.24,35.04-7.22" id="kvg:074ee-s3" kvg:type="&#12764;" />
			<path d="M63.83,29.66c4.99,2.42,12.88,9.96,14.13,13.73" id="kvg:074ee-s4" kvg:type="&#12756;" />
		</g>
	</g>
	<g id="kvg:074ee-g4" kvg:element="&#29926;" kvg:position="bottom" kvg:radical="general">
		<path d="M18.8,54.75c1.93,0.61,5.47,0.75,7.39,0.61c15.38-1.11,45.55-3.93,57.59-4.2c3.21-0.07,5.14,0.29,6.75,0.6" id="kvg:074ee-s5" kvg:type="&#12752;" />
		<path d="M 40.17,57.89 c 0.08,1 -0.22,3.05 -0.45,3.59 -2.47,5.66 -11.063542,28.477292 -13.333542,33.067292" id="kvg:074ee-s6" kvg:type="&#12753;" />
		<path d="M 19.926902,96.140909 c 1.035944,0.308484 2.43278,0.131632 3.283787,-0.03605 C 31.364157,94.498354 53.5,90.14 61.5,88.89" id="kvg:074ee-s7" kvg:type="&#12736;" />
		<path d="M40.24,65.68c0.87,0.21,2.28,0.12,3.14,0c7.62-1.04,21.09-3.28,26.77-3.29c1.35,0,2.85,1.5,2.66,3.03c-0.57,4.49-2.81,12.97-3.56,18.47c-1.42,10.4,1.75,12.5,12.5,12.5c11,0,13.25-0.75,13.25-9.5" id="kvg:074ee-s8" kvg:type="&#12744;" />
		<g id="kvg:074ee-g5" kvg:element="&#20022;">
			<path d="M45.1,71.98c3.51,1.7,9.06,6.99,9.94,9.63" id="kvg:074ee-s9" kvg:type="&#12756;" />
		</g>
	</g>
</g>
</g>
<g id="kvg:StrokeNumbers_074ee" style="font-size:8;fill:#808080">
	<text transform="matrix(1 0 0 1 33.25 11.77)">1</text>
	<text transform="matrix(1 0 0 1 55.25 6.70)">2</text>
	<text transform="matrix(1 0 0 1 46.25 23.62)">3</text>
	<text transform="matrix(1 0 0 1 61.50 27.64)">4</text>
	<text transform="matrix(1 0 0 1 11.25 54.64)">5</text>
	<text transform="matrix(1 0 0 1 30.50 65.64)">6</text>
	<text transform="matrix(1 0 0 1 16.5 94)">7</text>
	<text transform="matrix(1 0 0 1 45.50 62.32)">8</text>
	<text transform="matrix(1 0 0 1 40.50 78.64)">9</text>
</g>
</svg>