<svg xmlns="http://www.w3.org/2000/svg" xmlns:kvg="http://kanjivg.tagaini.net" height="109" kun="&#12356;.&#12365;&#12427;, &#12356;.&#12363;&#12377;, &#12356;.&#12369;&#12427;, &#12358;.&#12414;&#12428;&#12427;, &#12358;&#12414;.&#12428;&#12427;, &#12358;.&#12414;&#12428;, &#12358;&#12414;&#12428;, &#12358;.&#12416;, &#12362;.&#12358;, &#12399;.&#12360;&#12427;, &#12399;.&#12420;&#12377;, &#12365;, &#12394;&#12414;, &#12394;&#12414;-, &#12394;.&#12427;, &#12394;.&#12377;, &#12416;.&#12377;, -&#12358;" meaning="life, genuine, birth" on="&#12475;&#12452;, &#12471;&#12519;&#12454;" viewBox="0 0 109 109" width="109">
<g id="kvg:StrokePaths_0751f" style="fill:none;stroke:#000000;stroke-width:3;stroke-linecap:round;stroke-linejoin:round;">
<g id="kvg:0751f" kvg:element="&#29983;" kvg:radical="general">
	<path d="M31.26,25.89c0.36,1.36,0.35,2.65-0.05,3.79c-2.34,6.69-7.24,17.22-14.96,24.19" id="kvg:0751f-s1" kvg:type="&#12754;" />
	<path d="M31.13,40.67c2.37,0.33,4.03,0.07,5.64-0.12c9.5-1.1,25.15-4.12,35.35-5.83c2.51-0.42,4.86-0.73,7.38-0.33" id="kvg:0751f-s2" kvg:type="&#12752;" />
	<path d="M52.31,12.63c1.28,1.28,2.01,3.12,2.01,5.23c0,4.01,0,65.14,0,69.77" id="kvg:0751f-s3" kvg:type="&#12753;a" />
	<path d="M29.38,64.03c2.64,0.67,5.38,0.31,8.04-0.02C49.45,62.51,62.16,61,72.5,59.86c2.38-0.26,4.99-0.76,7.38-0.23" id="kvg:0751f-s4" kvg:type="&#12752;" />
	<path d="M15.75,90.25c3.04,0.75,6.21,0.94,8.4,0.8C40.62,90,68.12,86.5,83.3,85.75c3.63-0.18,7.68,0,10.07,0.73" id="kvg:0751f-s5" kvg:type="&#12752;" />
</g>
</g>
<g id="kvg:StrokeNumbers_0751f" style="font-size:8;fill:#808080">
	<text transform="matrix(1 0 0 1 22.75 25.63)">1</text>
	<text transform="matrix(1 0 0 1 36.00 37.28)">2</text>
	<text transform="matrix(1 0 0 1 42.50 10.50)">3</text>
	<text transform="matrix(1 0 0 1 21.50 66.13)">4</text>
	<text transform="matrix(1 0 0 1 8.50 89.50)">5</text>
</g>
</svg>