<svg xmlns="http://www.w3.org/2000/svg" xmlns:kvg="http://kanjivg.tagaini.net" height="109" kun="&#12399;&#12394;&#12399;.&#12384;, &#12399;&#12394;&#12399;.&#12384;&#12375;&#12356;" meaning="tremendously, very, great, exceedingly" on="&#12472;&#12531;" viewBox="0 0 109 109" width="109">
<g id="kvg:StrokePaths_0751a" style="fill:none;stroke:#000000;stroke-width:3;stroke-linecap:round;stroke-linejoin:round;">
<g id="kvg:0751a" kvg:element="&#29978;">
	<g id="kvg:0751a-g1" kvg:element="&#29976;" kvg:position="top" kvg:radical="tradit">
		<g id="kvg:0751a-g2" kvg:element="&#24319;" kvg:part="1">
			<g id="kvg:0751a-g3" kvg:element="&#21313;">
				<path d="M23.9,25.16c2.41,0.89,5.83,0.55,8.36,0.31c10.45-1,31.66-3.55,44.61-4.06c2.67-0.11,5.35-0.27,7.98,0.31" id="kvg:0751a-s1" kvg:type="&#12752;" />
				<g id="kvg:0751a-g4" kvg:element="&#20008;" kvg:radical="nelson">
					<path d="M38.97,13.86c0.96,0.96,1.25,2.02,1.25,3.57c0,0.81-0.1,38.19-0.1,43.94" id="kvg:0751a-s2" kvg:type="&#12753;a" />
				</g>
			</g>
			<path d="M66.59,10.75c0.83,0.83,1,2,1,3.32c0,0.81-0.09,38.72-0.09,44.8" id="kvg:0751a-s3" kvg:type="&#12753;a" />
		</g>
		<path d="M41.23,36.62c3.26-0.4,22.98-2.38,25.28-2.38" id="kvg:0751a-s4" kvg:type="&#12752;a" />
		<g id="kvg:0751a-g5" kvg:element="&#24319;" kvg:part="2">
			<path d="M41.23,49.05c6.27-0.8,20.23-1.89,24.84-2.08" id="kvg:0751a-s5" kvg:type="&#12752;a" />
		</g>
	</g>
	<g id="kvg:0751a-g6" kvg:element="&#21305;" kvg:position="bottom">
		<g id="kvg:0751a-g7" kvg:element="&#21274;" kvg:part="1">
			<path d="M15.63,63.26c4.01,1.28,8.51,0.6,12.62,0.27c14.96-1.22,41-4.02,53.62-4.61c4.22-0.2,8.58-0.04,12.75,0.76" id="kvg:0751a-s6" kvg:type="&#12752;" />
		</g>
		<g id="kvg:0751a-g8" kvg:element="&#20799;">
			<g id="kvg:0751a-g9" kvg:element="&#20843;" kvg:variant="true">
				<g id="kvg:0751a-g10" kvg:element="&#20031;" kvg:position="left">
					<path d="M48.52,65c0.35,0.62,0.42,1.58,0.2,2.28c-1.85,5.97-3.6,10.84-10.47,18.72" id="kvg:0751a-s7" kvg:type="&#12754;" />
				</g>
				<g id="kvg:0751a-g11" kvg:position="right">
					<path d="M61.49,63.53c0.87,0.86,1.12,2.16,1.12,3.51c0,2.08,0.01,4.45,0.01,7.48c0,5.97,1,6.97,9.73,6.97c6.27,0,8.07-0.83,9.15-1.7" id="kvg:0751a-s8" kvg:type="&#12767;" />
				</g>
			</g>
		</g>
		<g id="kvg:0751a-g12" kvg:element="&#21274;" kvg:part="2">
			<path d="M30.24,67.39c1.25,1.25,1.47,2.74,1.47,4.68c0,2.8-0.08,3.93-0.08,12.56c0,9.75,2,11.62,26.34,11.62c21.16,0,22.39-2.19,25.29-3.44" id="kvg:0751a-s9" kvg:type="&#12759;a" />
		</g>
	</g>
</g>
</g>
<g id="kvg:StrokeNumbers_0751a" style="font-size:8;fill:#808080">
	<text transform="matrix(1 0 0 1 17.25 25.63)">1</text>
	<text transform="matrix(1 0 0 1 29.25 15.13)">2</text>
	<text transform="matrix(1 0 0 1 56.25 12.13)">3</text>
	<text transform="matrix(1 0 0 1 45.75 33.05)">4</text>
	<text transform="matrix(1 0 0 1 45.75 45.50)">5</text>
	<text transform="matrix(1 0 0 1 17.25 60.13)">6</text>
	<text transform="matrix(1 0 0 1 39.75 73.55)">7</text>
	<text transform="matrix(1 0 0 1 54.75 72.13)">8</text>
	<text transform="matrix(1 0 0 1 23.25 75.13)">9</text>
</g>
</svg>