<svg xmlns="http://www.w3.org/2000/svg" xmlns:kvg="http://kanjivg.tagaini.net" height="109" kun="&#12360;&#12364;.&#12367;, &#12363;&#12367;.&#12377;&#12427;, &#12363;&#12366;.&#12427;, &#12399;&#12363;&#12426;&#12372;&#12392;, &#12399;&#12363;.&#12427;" meaning="brush-stroke, picture" on="&#12460;, &#12459;&#12463;, &#12456;, &#12459;&#12452;" viewBox="0 0 109 109" width="109">
<g id="kvg:StrokePaths_0753b" style="fill:none;stroke:#000000;stroke-width:3;stroke-linecap:round;stroke-linejoin:round;">
<g id="kvg:0753b" kvg:element="&#30011;">
	<g id="kvg:0753b-g1" kvg:element="&#19968;" kvg:radical="nelson">
		<path d="M26.13,23.42c1.98,0.38,4.51,0.58,6.49,0.38c12.89-1.3,29.64-3.55,42.7-4.63c3.29-0.27,5.13-0.04,6.94,0.37" id="kvg:0753b-s1" kvg:type="&#12752;" />
	</g>
	<g id="kvg:0753b-g2" kvg:element="&#30001;">
		<g id="kvg:0753b-g3" kvg:element="&#30000;" kvg:radical="tradit">
			<path d="M30.75,39.44c0.97,0.97,1.46,1.57,1.78,3.27c1.21,6.36,2.51,18.29,3.34,28.78c0.1,1.27,0.19,2.53,0.28,3.76" id="kvg:0753b-s2" kvg:type="&#12753;" />
			<path d="M33.25,41.27c12.25-2.02,32.09-4.15,39.43-4.71c3.12-0.24,4.71,1.67,4.54,3.43c-0.52,5.36-2,18.54-3.76,27.49c-0.36,1.85-0.74,3.54-1.12,4.97" id="kvg:0753b-s3" kvg:type="&#12757;a" />
			<g id="kvg:0753b-g4" kvg:element="&#20008;">
				<path d="M52.65,24.07c0.84,0.85,1.34,2.09,1.34,3.21c0,10.84-0.09,37.09-0.09,42.8" id="kvg:0753b-s4" kvg:type="&#12753;a" />
			</g>
			<path d="M35.63,56.14c8.25-1.39,32.87-3.89,38.7-3.96" id="kvg:0753b-s5" kvg:type="&#12752;a" />
			<path d="M37.25,72.82C48.5,71.75,59.75,70,71.94,69.7" id="kvg:0753b-s6" kvg:type="&#12752;a" />
		</g>
	</g>
	<g id="kvg:0753b-g5" kvg:element="&#20981;">
		<path d="M18.06,46.13c1.34,1.34,1.77,3.48,1.72,5.12c-0.28,8.63-0.5,21.08-0.93,34.25c0,2.75,0.42,3.73,3.51,3.37c11.95-1.39,52.28-3.55,66.89-4.26" id="kvg:0753b-s7" kvg:type="&#12740;a" />
		<path d="M91.86,36.88c1,1,1.5,2.33,1.4,4.38c-0.53,11.45-1.3,25.21-2.48,41.7c-0.15,2.06-0.3,4.16-0.45,6.3" id="kvg:0753b-s8" kvg:type="&#12753;" />
	</g>
</g>
</g>
<g id="kvg:StrokeNumbers_0753b" style="font-size:8;fill:#808080">
	<text transform="matrix(1 0 0 1 18.75 25.63)">1</text>
	<text transform="matrix(1 0 0 1 24.75 49.63)">2</text>
	<text transform="matrix(1 0 0 1 35.25 37.63)">3</text>
	<text transform="matrix(1 0 0 1 59.25 33.13)">4</text>
	<text transform="matrix(1 0 0 1 38.25 52.63)">5</text>
	<text transform="matrix(1 0 0 1 39.75 69.13)">6</text>
	<text transform="matrix(1 0 0 1 9.75 46.63)">7</text>
	<text transform="matrix(1 0 0 1 98.25 43.63)">8</text>
</g>
</svg>