<svg xmlns="http://www.w3.org/2000/svg" xmlns:kvg="http://kanjivg.tagaini.net" height="109" meaning="world, boundary" viewBox="0 0 109 109" width="109">
<g id="kvg:StrokePaths_0754c" style="fill:none;stroke:#000000;stroke-width:3;stroke-linecap:round;stroke-linejoin:round;">
<g id="kvg:0754c" kvg:element="&#30028;">
	<g id="kvg:0754c-g1" kvg:element="&#30000;" kvg:position="top" kvg:radical="general">
		<path d="M27.97,16.22c0.78,0.78,1.28,1.28,1.56,2.62c1.41,6.75,2.76,14.26,3.69,22.78c0.11,0.98,0.21,1.94,0.31,2.86" id="kvg:0754c-s1" kvg:type="&#12753;" />
		<path d="M30.39,17.55c13.86-1.55,33.36-3.3,44.49-4.27c3.51-0.31,5.75,1.74,5.34,4.26C79,25.12,77.58,31.6,76.16,38.79c-0.21,1.08-0.41,1.84-0.91,3.24" id="kvg:0754c-s2" kvg:type="&#12757;a" />
		<path d="M52.75,16.75C53.88,18,54.12,19,54.11,20.5c-0.02,6.11,0.23,17.81,0.23,19.78" id="kvg:0754c-s3" kvg:type="&#12753;a" />
		<path d="M32.7,29.78c14.43-1.53,36.97-3.25,44.65-3.69" id="kvg:0754c-s4" kvg:type="&#12752;a" />
		<path d="M34.45,42.92c11.17-1.04,25.3-2.42,40.15-3.17" id="kvg:0754c-s5" kvg:type="&#12752;a" />
	</g>
	<g id="kvg:0754c-g2" kvg:element="&#20171;" kvg:phon="&#20171;" kvg:position="bottom">
		<g id="kvg:0754c-g3" kvg:element="&#20154;" kvg:position="top">
			<path d="M46.88,43.62c0,1.25-0.48,2.58-1.41,3.97c-4.22,6.29-15.01,17.67-28.72,25.59" id="kvg:0754c-s6" kvg:type="&#12754;" />
			<path d="M59.75,43.02c6.75,5.85,19.27,17.27,27.99,23.5c2.76,1.97,5.41,3.6,8.77,4.31" id="kvg:0754c-s7" kvg:type="&#12751;" />
		</g>
		<g id="kvg:0754c-g4" kvg:position="bottom">
			<g id="kvg:0754c-g5" kvg:element="&#20031;">
				<path d="M41.64,61.93c0.57,0.68,0.95,1.78,0.96,3.03c0.15,11.92,0.36,25.81-11.85,33.67" id="kvg:0754c-s8" kvg:type="&#12754;" />
			</g>
			<g id="kvg:0754c-g6" kvg:element="&#20008;">
				<path d="M65.39,58.85c1,1,1.29,2.15,1.29,3.56c0,3.59,0.05,21.23-0.08,31.47c-0.03,2.18-0.06,3.86-0.09,4.72" id="kvg:0754c-s9" kvg:type="&#12753;" />
			</g>
		</g>
	</g>
</g>
</g>
<g id="kvg:StrokeNumbers_0754c" style="font-size:8;fill:#808080">
	<text transform="matrix(1 0 0 1 23.50 25.50)">1</text>
	<text transform="matrix(1 0 0 1 31.50 14.50)">2</text>
	<text transform="matrix(1 0 0 1 46.50 24.13)">3</text>
	<text transform="matrix(1 0 0 1 35.50 26.50)">4</text>
	<text transform="matrix(1 0 0 1 36.50 39.13)">5</text>
	<text transform="matrix(1 0 0 1 33.50 53.50)">6</text>
	<text transform="matrix(1 0 0 1 73.50 51.50)">7</text>
	<text transform="matrix(1 0 0 1 35.25 71.50)">8</text>
	<text transform="matrix(1 0 0 1 59.25 66.50)">9</text>
</g>
</svg>