<svg xmlns="http://www.w3.org/2000/svg" xmlns:kvg="http://kanjivg.tagaini.net" height="109" kun="&#12354;.&#12383;&#12427;, &#12354;.&#12390;&#12427;, &#12414;&#12373;.&#12395;" meaning="bear, accept, undertake, just" on="&#12488;&#12454;" viewBox="0 0 109 109" width="109">
<g id="kvg:StrokePaths_07576" style="fill:none;stroke:#000000;stroke-width:3;stroke-linecap:round;stroke-linejoin:round;">
<g id="kvg:07576" kvg:element="&#30070;">
	<g id="kvg:07576-g1" kvg:element="&#23578;" kvg:position="top" kvg:variant="true">
		<g id="kvg:07576-g2" kvg:element="&#11916;" kvg:original="&#23567;" kvg:position="top" kvg:variant="true">
			<path d="M52.96,9.87c0.09,0.26,1.17,1.35,1.26,2.99c0.4,7.9,0.24,15.07,0.24,17.76" id="kvg:07576-s1" kvg:type="&#12753;" />
			<path d="M28.52,16.33c3.72,2.14,9.61,8.8,10.54,12.13" id="kvg:07576-s2" kvg:type="&#12756;" />
			<path d="M78.51,13.75c0.03,0.32,0.05,0.83-0.05,1.3c-0.61,2.74-4.11,8.74-8.9,12.42" id="kvg:07576-s3" kvg:type="&#12754;" />
		</g>
		<g id="kvg:07576-g3" kvg:position="bottom">
			<g id="kvg:07576-g4" kvg:element="&#20866;" kvg:variant="true">
				<path d="M20.57,29.63c-0.22,4.46-3.98,14.9-5.82,17.56" id="kvg:07576-s4" kvg:type="&#12756;" />
				<path d="M22.49,33.18c3.31,0,46.71-3.81,63.3-4.62c11.46-0.56,7.46,5.19-0.65,10.2" id="kvg:07576-s5" kvg:type="&#12758;" />
			</g>
			<g id="kvg:07576-g5" kvg:element="&#21475;">
				<path d="M36.14,40.79c0.28,0.31,0.61,0.56,0.7,0.96c0.81,3.56,1.84,11.03,2.65,16.25" id="kvg:07576-s6" kvg:type="&#12753;" />
				<path d="M37.91,42.38c5.25-0.75,27.37-2.25,32.22-3.01c1.22-0.19,2.64,0.93,2.12,3.1c-0.84,3.54-1.55,5.07-2.98,9.88" id="kvg:07576-s7" kvg:type="&#12757;b" />
				<path d="M40.08,55.19c8.17-0.44,24.42-1.94,30.94-2.12" id="kvg:07576-s8" kvg:type="&#12752;b" />
			</g>
		</g>
	</g>
	<g id="kvg:07576-g6" kvg:element="&#30000;" kvg:position="bottom" kvg:radical="tradit">
		<path d="M27.85,64.11c0.37,0.63,0.87,1.55,1.07,2.33c1.63,6.38,3.1,21.81,4.06,33.56" id="kvg:07576-s9" kvg:type="&#12753;" />
		<path d="M29.58,66.58c14.42-1.33,38.19-3.23,47.87-3.85c3.56-0.23,4.87,2.62,4.67,4.33c-0.71,6.26-2.87,21.19-4.28,31.2" id="kvg:07576-s10" kvg:type="&#12757;a" />
		<path d="M53.93,66.4c0.82,0.6,0.96,2.35,0.95,3.47c-0.05,7.4,0.23,23.89,0.23,26.57" id="kvg:07576-s11" kvg:type="&#12753;a" />
		<path d="M31.39,81.94c4.22-0.31,45.32-3.16,48.81-3.16" id="kvg:07576-s12" kvg:type="&#12752;a" />
		<path d="M33.17,97.84c10.58-0.84,32.41-2.42,45.29-2.59" id="kvg:07576-s13" kvg:type="&#12752;a" />
	</g>
</g>
</g>
<g id="kvg:StrokeNumbers_07576" style="font-size:8;fill:#808080">
	<text transform="matrix(1 0 0 1 43.50 10.50)">1</text>
	<text transform="matrix(1 0 0 1 20.50 15.50)">2</text>
	<text transform="matrix(1 0 0 1 69.50 12.50)">3</text>
	<text transform="matrix(1 0 0 1 13.50 31.50)">4</text>
	<text transform="matrix(1 0 0 1 23.50 29.50)">5</text>
	<text transform="matrix(1 0 0 1 28.75 46.25)">6</text>
	<text transform="matrix(1 0 0 1 40.75 39.18)">7</text>
	<text transform="matrix(1 0 0 1 42.50 51.50)">8</text>
	<text transform="matrix(1 0 0 1 19.75 70.03)">9</text>
	<text transform="matrix(1 0 0 1 30.75 62.50)">10</text>
	<text transform="matrix(1 0 0 1 45.50 73.50)">11</text>
	<text transform="matrix(1 0 0 1 33.50 78.50)">12</text>
	<text transform="matrix(1 0 0 1 35.50 93.50)">13</text>
</g>
</svg>