<svg xmlns="http://www.w3.org/2000/svg" xmlns:kvg="http://kanjivg.tagaini.net" height="109" kun="&#12354;&#12375;" meaning="head, counter for animals" on="&#12498;&#12461;, &#12471;&#12519;, &#12477;, &#12498;&#12484;" viewBox="0 0 109 109" width="109">
<g id="kvg:StrokePaths_0758b" style="fill:none;stroke:#000000;stroke-width:3;stroke-linecap:round;stroke-linejoin:round;">
<g id="kvg:0758b" kvg:element="&#30091;" kvg:radical="general">
	<path d="M22.22,23c2.78,0.5,4.46,0.89,7.28,0.5c16-2.25,36.97-6.25,54.69-6.25c9.56,0,5.56,4-0.69,9.5" id="kvg:0758b-s1" kvg:type="&#12758;" />
	<g id="kvg:0758b-g1" kvg:element="&#21340;" kvg:original="&#12488;">
		<path d="M52.87,21.25c1.09,0.5,1.74,2.25,1.96,3.25c0.22,1,0.5,45.25,0.28,51.5" id="kvg:0758b-s2" kvg:type="&#12753;" />
		<path d="M55.38,50c7.12-0.75,10.62-1.5,21.35-3c1.73-0.24,2.18-0.25,3.26,0" id="kvg:0758b-s3" kvg:type="&#12752;" />
	</g>
	<g id="kvg:0758b-g2" kvg:element="&#20154;">
		<path d="M35.75,44.64c0.06,0.99,0.12,2.56-0.11,3.98c-1.36,8.39-9.16,26.32-19.83,37.59" id="kvg:0758b-s4" kvg:type="&#12754;" />
		<path d="M30.75,64.5c8.2,3.64,44.2,20.84,53.11,24.42c3.02,1.21,5.61,1.73,8.64,2.08" id="kvg:0758b-s5" kvg:type="&#12751;" />
	</g>
</g>
</g>
<g id="kvg:StrokeNumbers_0758b" style="font-size:8;fill:#808080">
	<text transform="matrix(1 0 0 1 15.75 24.50)">1</text>
	<text transform="matrix(1 0 0 1 47.50 31.50)">2</text>
	<text transform="matrix(1 0 0 1 59.50 45.50)">3</text>
	<text transform="matrix(1 0 0 1 26.50 49.63)">4</text>
	<text transform="matrix(1 0 0 1 37.50 64.50)">5</text>
</g>
</svg>