<svg xmlns="http://www.w3.org/2000/svg" xmlns:kvg="http://kanjivg.tagaini.net" height="109" kun="&#12420;.&#12416;" meaning="trailing sickness, sick radical (no. 104)" on="&#12480;&#12463;, &#12491;&#12515;&#12463;, &#12477;&#12454;, &#12472;&#12519;&#12454;, &#12471;&#12484;" viewBox="0 0 109 109" width="109">
<g id="kvg:StrokePaths_07592" style="fill:none;stroke:#000000;stroke-width:3;stroke-linecap:round;stroke-linejoin:round;">
<g id="kvg:07592" kvg:element="&#30098;" kvg:radical="tradit">
	<path d="M60.06,6.88c1.34,1.34,1.51,2.74,1.51,4.4c0,0.79-0.07,7.96-0.07,10.71" id="kvg:07592-s1" kvg:type="&#12753;a" />
	<path d="M31.38,23.08c1.62,1.05,4.46,1.37,6.04,1.45c2.09,0.1,3.53,0.06,4.73,0c14.48-0.65,29.23-2.03,43.99-3.26c3.45-0.29,6.82-0.38,10.25,0.21" id="kvg:07592-s2" kvg:type="&#12752;" />
	<path d="M33.99,24.75c0.75,0.75,0.69,2.18,0.66,3.25c-1.16,32.15-9.16,48.05-20.84,64.47" id="kvg:07592-s3" kvg:type="&#12754;" />
	<path d="M10.75,29.25c3.88,2.2,10.03,9.07,11,12.5" id="kvg:07592-s4" kvg:type="&#12756;" />
	<path d="M7.17,60.63c1.9,0.72,2.49,0.51,4.16-0.36c6.76-3.55,10.67-5.82,15.79-8.89" id="kvg:07592-s5" kvg:type="&#12736;" />
</g>
</g>
<g id="kvg:StrokeNumbers_07592" style="font-size:8;fill:#808080">
	<text transform="matrix(1 0 0 1 50.33 9.05)">1</text>
	<text transform="matrix(1 0 0 1 35.75 20.38)">2</text>
	<text transform="matrix(1 0 0 1 26.25 32.25)">3</text>
	<text transform="matrix(1 0 0 1 5.25 26.25)">4</text>
	<text transform="matrix(1 0 0 1 4.25 55.25)">5</text>
</g>
</svg>