<svg xmlns="http://www.w3.org/2000/svg" xmlns:kvg="http://kanjivg.tagaini.net" height="109" meaning="children's diseases" viewBox="0 0 109 109" width="109">
<g id="kvg:StrokePaths_075b3" style="fill:none;stroke:#000000;stroke-width:3;stroke-linecap:round;stroke-linejoin:round;">
<g id="kvg:075b3" kvg:element="&#30131;">
	<g id="kvg:075b3-g1" kvg:element="&#30098;" kvg:position="tare" kvg:radical="general">
		<path d="M56.41,10.13c0.7,0.36,2.18,2.66,2.32,3.37c0.14,0.71,0.07,5.3-0.07,9.74" id="kvg:075b3-s1" kvg:type="&#12753;a" />
		<path d="M26.13,24.23c1.52,0.54,4.3,0.63,5.82,0.54c15.8-0.91,41.55-2.02,55.61-2.73c2.53-0.13,4.05,0.26,5.31,0.53" id="kvg:075b3-s2" kvg:type="&#12752;" />
		<path d="M31.49,25.5c0,1.27,0,2.52-0.01,3.75c-0.17,32.93-2.75,49.03-16.68,63.22" id="kvg:075b3-s3" kvg:type="&#12754;" />
		<path d="M13.75,35.25c3.62,2.12,9.34,8.71,10.25,12" id="kvg:075b3-s4" kvg:type="&#12756;" />
		<path d="M12.17,66.03c1.39,0.68,1.82,0.49,3.04-0.35c4.94-3.37,7.8-5.52,11.54-8.43" id="kvg:075b3-s5" kvg:type="&#12736;" />
	</g>
	<g id="kvg:075b3-g2" kvg:element="&#29976;">
		<g id="kvg:075b3-g3" kvg:element="&#24319;" kvg:part="1">
			<g id="kvg:075b3-g4" kvg:element="&#21313;">
				<path d="M36.91,47.59c1.4,0.39,3.96,0.49,5.35,0.39c10.28-0.72,29.84-1.84,46.69-2.79c2.32-0.13,3.72,0.19,4.89,0.38" id="kvg:075b3-s6" kvg:type="&#12752;" />
				<path d="M48.12,32.64c1.16,0.42,1.85,1.88,2.08,2.72c0.23,0.84,0,55.4-0.23,60.64" id="kvg:075b3-s7" kvg:type="&#12753;" />
			</g>
			<path d="M75.55,29.75c1.16,0.42,1.85,1.88,2.08,2.72s0,57.96-0.23,63.19" id="kvg:075b3-s8" kvg:type="&#12753;" />
		</g>
		<path d="M50.41,67.53c5.93-0.29,23.89-1.15,27.07-1.15" id="kvg:075b3-s9" kvg:type="&#12752;" />
		<g id="kvg:075b3-g5" kvg:element="&#24319;" kvg:part="2">
			<path d="M50.41,90.91c6.91-0.21,20.43-0.97,26.81-1.17" id="kvg:075b3-s10" kvg:type="&#12752;" />
		</g>
	</g>
</g>
</g>
<g id="kvg:StrokeNumbers_075b3" style="font-size:8;fill:#808080">
	<text transform="matrix(1 0 0 1 48.85 11.85)">1</text>
	<text transform="matrix(1 0 0 1 28.50 21.50)">2</text>
	<text transform="matrix(1 0 0 1 23.71 33.50)">3</text>
	<text transform="matrix(1 0 0 1 6.54 36.50)">4</text>
	<text transform="matrix(1 0 0 1 4.50 66.50)">5</text>
	<text transform="matrix(1 0 0 1 35.50 44.50)">6</text>
	<text transform="matrix(1 0 0 1 40.44 34.50)">7</text>
	<text transform="matrix(1 0 0 1 67.44 32.50)">8</text>
	<text transform="matrix(1 0 0 1 54.50 64.50)">9</text>
	<text transform="matrix(1 0 0 1 53.50 87.50)">10</text>
</g>
</svg>