<svg xmlns="http://www.w3.org/2000/svg" xmlns:kvg="http://kanjivg.tagaini.net" height="109" kun="&#12360;&#12420;&#12415;" meaning="contagious disease, leprosy" on="&#12524;&#12452;, &#12521;&#12452;" viewBox="0 0 109 109" width="109">
<g id="kvg:StrokePaths_07658" style="fill:none;stroke:#000000;stroke-width:3;stroke-linecap:round;stroke-linejoin:round;">
<g id="kvg:07658" kvg:element="&#30296;">
	<g id="kvg:07658-g1" kvg:element="&#30098;" kvg:position="tare" kvg:radical="general">
		<path d="M57.91,11.13c0.7,0.36,2.18,2.66,2.32,3.37c0.14,0.71,0.07,3.8-0.07,8.24" id="kvg:07658-s1" kvg:type="&#12753;a" />
		<path d="M26.63,23.73c1.52,0.54,4.3,0.63,5.82,0.54c15.8-0.91,40.05-2.02,54.11-2.73c2.53-0.13,4.05,0.26,5.31,0.53" id="kvg:07658-s2" kvg:type="&#12752;" />
		<path d="M31.49,24.5c0,37.22-3.24,52.75-17.44,69.72" id="kvg:07658-s3" kvg:type="&#12754;" />
		<path d="M14.25,36c3.62,1.81,9.34,7.44,10.25,10.25" id="kvg:07658-s4" kvg:type="&#12756;" />
		<path d="M11.67,64.07c1.44,0.61,1.88,0.43,3.15-0.31c5.11-3,8.06-4.92,11.93-7.51" id="kvg:07658-s5" kvg:type="&#12736;" />
	</g>
	<g id="kvg:07658-g2" kvg:element="&#33836;">
		<g id="kvg:07658-g3" kvg:element="&#33401;" kvg:original="&#33400;" kvg:position="top" kvg:variant="true">
			<path d="M39,36.7c1.12,0.51,2.43,0.62,3.56,0.51c10.34-0.94,29.33-3.07,41.25-3.14c1.88-0.01,3,0.24,3.94,0.5" id="kvg:07658-s6" kvg:type="&#12752;" />
			<path d="M50.19,29.19c1.28,1.18,1.69,1.53,1.82,2.26c1.28,6.77,0.64,7.42,1.01,9.88" id="kvg:07658-s7" kvg:type="&#12753;a" />
			<path d="M70.98,26.75c0.82,0.82,1.2,2.05,1.09,3.28c-0.32,3.72-0.82,5.72-1.05,10.06" id="kvg:07658-s8" kvg:type="&#12753;a" />
		</g>
		<g id="kvg:07658-g4" kvg:element="&#31162;" kvg:position="bottom">
			<g id="kvg:07658-g5" kvg:element="&#26085;">
				<g id="kvg:07658-g6" kvg:element="&#30000;" kvg:part="1" kvg:variant="true">
					<path d="M42.28,45.99c0.28,0.36,0.28,0.6,0.43,1.05c1.23,3.69,2.3,13.16,3.02,20.01" id="kvg:07658-s9" kvg:type="&#12753;" />
					<path d="M43.59,46.84c9.79-0.74,29.03-1.5,36.34-2.14c2.69-0.24,3.29,1.61,3.07,3.89c-0.36,3.7-0.63,7.97-2.21,15.22" id="kvg:07658-s10" kvg:type="&#12757;" />
					<path d="M44.96,55.43c3.19-0.3,33.93-1.7,36.57-1.79" id="kvg:07658-s11" kvg:type="&#12752;" />
					<path d="M45.88,64.92c10.01-1.28,24.76-1.86,34.49-2.32" id="kvg:07658-s12" kvg:type="&#12752;" />
				</g>
			</g>
			<g id="kvg:07658-g7" kvg:element="&#31160;">
				<path d="M37.69,72.61c0.8,0.34,1.37,1.34,1.43,2.01c0.28,3.31,1.88,18.47,2.33,22.14" id="kvg:07658-s13" kvg:type="&#12753;" />
				<path d="M39.12,73.66c6.39-0.79,45.54-3.03,46.82-3.08c1.92-0.08,3.6,1.05,3.54,3.12c-0.16,5.48-1.99,14.45-4.04,19.43c-2.15,5.24-4.19,3.11-6.57,0.16" id="kvg:07658-s14" kvg:type="&#12742;" />
				<g id="kvg:07658-g8" kvg:element="&#30000;" kvg:part="2" kvg:variant="true">
					<path d="M61.24,46.05c0.42,0.6,1.07,1.19,1.07,2.28c-0.01,4.79,0.18,33.2,0.18,34.67" id="kvg:07658-s15" kvg:type="&#12753;" />
				</g>
				<path d="M51.83,86.4c1.16,0.75,2.44,1.15,3.47,0.83c2.89-0.89,14.75-4.93,20.8-6.55" id="kvg:07658-s16" kvg:type="&#65302;" />
				<path d="M70.35,75.87c3.23,1.74,8.34,7.29,9.14,10.11" id="kvg:07658-s17" kvg:type="&#12756;" />
			</g>
		</g>
	</g>
</g>
</g>
<g id="kvg:StrokeNumbers_07658" style="font-size:8;fill:#808080">
	<text transform="matrix(1 0 0 1 50.50 12.50)">1</text>
	<text transform="matrix(1 0 0 1 29.66 21.85)">2</text>
	<text transform="matrix(1 0 0 1 23.71 33.50)">3</text>
	<text transform="matrix(1 0 0 1 6.54 35.50)">4</text>
	<text transform="matrix(1 0 0 1 3.72 66.50)">5</text>
	<text transform="matrix(1 0 0 1 36.50 33.50)">6</text>
	<text transform="matrix(1 0 0 1 42.25 31.50)">7</text>
	<text transform="matrix(1 0 0 1 64.50 30.50)">8</text>
	<text transform="matrix(1 0 0 1 36.50 53.50)">9</text>
	<text transform="matrix(1 0 0 1 43.50 44.50)">10</text>
	<text transform="matrix(1 0 0 1 47.50 53.88)">11</text>
	<text transform="matrix(1 0 0 1 48.50 62.80)">12</text>
	<text transform="matrix(1 0 0 1 28.50 80.50)">13</text>
	<text transform="matrix(1 0 0 1 39.50 71.65)">14</text>
	<text transform="matrix(1 0 0 1 66.50 52.50)">15</text>
	<text transform="matrix(1 0 0 1 48.50 81.50)">16</text>
	<text transform="matrix(1 0 0 1 76.25 79.50)">17</text>
</g>
</svg>