<svg xmlns="http://www.w3.org/2000/svg" xmlns:kvg="http://kanjivg.tagaini.net" height="109" kun="&#12418;&#12418;" meaning="hundred" on="&#12498;&#12515;&#12463;, &#12499;&#12515;&#12463;" viewBox="0 0 109 109" width="109">
<g id="kvg:StrokePaths_0767e" style="fill:none;stroke:#000000;stroke-width:3;stroke-linecap:round;stroke-linejoin:round;">
<g id="kvg:0767e" kvg:element="&#30334;">
	<g id="kvg:0767e-g1" kvg:element="&#19968;" kvg:position="top" kvg:radical="nelson">
		<path d="M16.13,20.23c2.22,0.54,6.29,0.75,8.51,0.54c21.49-2.02,41.86-4.39,59.22-4.98c3.7-0.12,5.92,0.26,7.77,0.53" id="kvg:0767e-s1" kvg:type="&#12752;" />
	</g>
	<g id="kvg:0767e-g2" kvg:element="&#30333;" kvg:position="bottom" kvg:radical="tradit">
		<g id="kvg:0767e-g3" kvg:position="top">
			<path d="M52.31,21.75c0.19,1.38,0.19,2.5-0.38,3.93c-1.65,4.19-4.81,9.19-8.66,14.68" id="kvg:0767e-s2" kvg:type="&#12754;" />
		</g>
		<g id="kvg:0767e-g4" kvg:element="&#26085;" kvg:position="bottom">
			<path d="M30.75,42.82c0.96,0.96,1.64,2.45,1.72,4.19c0.41,8.74,0.96,32.92,1.18,43.74c0.05,2.48,0.08,4.12,0.1,4.5" id="kvg:0767e-s3" kvg:type="&#12753;" />
			<path d="M33.55,44.8c10.35-1.37,35.73-4.38,38.78-4.59c3.15-0.22,4.92,1.17,4.92,4.24c0,4.48-0.68,32-0.92,44.06c-0.06,3.02-0.1,5.05-0.11,5.48" id="kvg:0767e-s4" kvg:type="&#12757;a" />
			<path d="M34.14,66.95c10.24-1.08,32.11-3.2,41.44-3.57" id="kvg:0767e-s5" kvg:type="&#12752;a" />
			<path d="M34.97,92.87c8.78-0.87,30.53-2.12,40.06-2.39" id="kvg:0767e-s6" kvg:type="&#12752;a" />
		</g>
	</g>
</g>
</g>
<g id="kvg:StrokeNumbers_0767e" style="font-size:8;fill:#808080">
	<text transform="matrix(1 0 0 1 8.25 21.50)">1</text>
	<text transform="matrix(1 0 0 1 42.50 28.63)">2</text>
	<text transform="matrix(1 0 0 1 23.50 51.50)">3</text>
	<text transform="matrix(1 0 0 1 33.50 41.50)">4</text>
	<text transform="matrix(1 0 0 1 37.50 63.10)">5</text>
	<text transform="matrix(1 0 0 1 37.50 89.50)">6</text>
</g>
</svg>