<svg xmlns="http://www.w3.org/2000/svg" xmlns:kvg="http://kanjivg.tagaini.net" height="109" kun="&#12402;&#12403;, &#12354;&#12363;&#12366;&#12428;" meaning="skin cracks or roughness" on="&#12463;&#12531;, &#12461;&#12531;" viewBox="0 0 109 109" width="109">
<g id="kvg:StrokePaths_076b9" style="fill:none;stroke:#000000;stroke-width:3;stroke-linecap:round;stroke-linejoin:round;">
<g id="kvg:076b9" kvg:element="&#30393;">
	<g id="kvg:076b9-g1" kvg:element="&#30382;" kvg:position="left" kvg:radical="general">
		<path d="M16.27,29.7c0.38,1.14,1.16,1.75,1.08,4.11c-0.78,24.56,0.15,40.94-9.8,57.53" id="kvg:076b9-s1" kvg:type="&#12754;" />
		<path d="M17.7,32.04c9.55-1.29,14.05-1.79,24.33-2.89c9.03-0.97,4.72,3.85,0.26,8.17" id="kvg:076b9-s2" kvg:type="&#12758;b" />
		<path d="M28.8,15.25c0.94,0.52,1.5,2.34,1.68,3.38c0.19,1.04-0.07,20.8-0.07,31.46" id="kvg:076b9-s3" kvg:type="&#12753;a" />
		<path d="M20.28,51.19c1.12,0.36,2.21,0.54,4.51,0.37c4.21-0.31,16.23-1.89,17.77-2.42c1.54-0.54,2.94,1.62,2.12,3.43C37,69.75,31,81.5,17.27,92.51" id="kvg:076b9-s4" kvg:type="&#12743;" />
		<path d="M23.44,61.73c8.31,5.52,16.56,14.52,21.62,25.5" id="kvg:076b9-s5" kvg:type="&#12751;" />
	</g>
	<g id="kvg:076b9-g2" kvg:element="&#36557;" kvg:position="right">
		<g id="kvg:076b9-g3" kvg:element="&#20886;" kvg:position="top">
			<path d="M57.15,16.46c-0.09,3.78-2.23,13.68-3,15.94" id="kvg:076b9-s6" kvg:type="&#12756;" />
			<path d="M57.14,19.98c5.21-0.69,26.67-2.2,36.98-2.75c7.84-0.42,0.22,6.39-0.75,7.56" id="kvg:076b9-s7" kvg:type="&#12758;b" />
		</g>
		<g id="kvg:076b9-g4" kvg:element="&#36554;" kvg:position="bottom">
			<path d="M60.09,35.89c0.78,0.37,2.2,0.45,2.98,0.37c7.5-0.81,17.79-2.27,26.55-2.74c1.29-0.07,2.07,0.17,2.72,0.36" id="kvg:076b9-s8" kvg:type="&#12752;" />
			<path d="M58.34,45.35c0.54,0.47,1.22,1.82,1.32,2.44c0.8,4.93,2.16,13.44,3.12,21.42" id="kvg:076b9-s9" kvg:type="&#12753;" />
			<path d="M60.41,46.02c8.16-0.9,26.06-3.07,31.63-3.21c2.3-0.06,2.78,1.22,2.68,2.62c-0.34,4.81-2.09,13.2-3.92,21.08" id="kvg:076b9-s10" kvg:type="&#12757;a" />
			<path d="M62.33,56.17c6.15-0.23,19-2.48,30.58-2.48" id="kvg:076b9-s11" kvg:type="&#12752;a" />
			<path d="M62.33,66.3c7.15-0.93,19.61-1.71,28.92-1.71" id="kvg:076b9-s12" kvg:type="&#12752;a" />
			<path d="M53.68,77.14c1.19,0.64,3.36,0.74,4.56,0.64c20.11-1.66,17.76-2.12,37.67-2.87c1.98-0.07,3.18,0.31,4.17,0.63" id="kvg:076b9-s13" kvg:type="&#12752;" />
			<path d="M73.42,24.05c0.5,0.57,2.15,1.7,2.15,4.45c0,1.15-0.06,61.46-0.17,68.64" id="kvg:076b9-s14" kvg:type="&#12753;" />
		</g>
	</g>
</g>
</g>
<g id="kvg:StrokeNumbers_076b9" style="font-size:8;fill:#808080">
	<text transform="matrix(1 0 0 1 10.25 37.50)">1</text>
	<text transform="matrix(1 0 0 1 20.50 28.50)">2</text>
	<text transform="matrix(1 0 0 1 18.50 14.50)">3</text>
	<text transform="matrix(1 0 0 1 21.75 48.50)">4</text>
	<text transform="matrix(1 0 0 1 19.50 70.50)">5</text>
	<text transform="matrix(1 0 0 1 50.50 17.50)">6</text>
	<text transform="matrix(1 0 0 1 60.75 16.50)">7</text>
	<text transform="matrix(1 0 0 1 58.50 32.50)">8</text>
	<text transform="matrix(1 0 0 1 52.50 52.50)">9</text>
	<text transform="matrix(1 0 0 1 60.50 43.50)">10</text>
	<text transform="matrix(1 0 0 1 64.50 53.38)">11</text>
	<text transform="matrix(1 0 0 1 63.50 63.30)">12</text>
	<text transform="matrix(1 0 0 1 49.50 74.50)">13</text>
	<text transform="matrix(1 0 0 1 63.50 27.50)">14</text>
</g>
</svg>