<svg xmlns="http://www.w3.org/2000/svg" xmlns:kvg="http://kanjivg.tagaini.net" height="109" meaning="prefecture" viewBox="0 0 109 109" width="109">
<g id="kvg:StrokePaths_0770c" style="fill:none;stroke:#000000;stroke-width:3;stroke-linecap:round;stroke-linejoin:round;">
<g id="kvg:0770c" kvg:element="&#30476;">
	<g id="kvg:0770c-g1" kvg:position="top">
		<g id="kvg:0770c-g2" kvg:element="&#30446;" kvg:radical="tradit">
			<path d="M43.42,13.91c1.09,1.09,1.39,2.61,1.39,3.84c0,1.06,0,25.55,0,34.75c0,1.48,0,3.54,0,4.01" id="kvg:0770c-s1" kvg:type="&#12753;" />
			<path d="M45.82,16.29c2.61-0.15,21.98-2.62,24.39-2.8c2.38-0.18,3.39,1.28,3.38,3.39c-0.02,5.77-0.12,25.48-0.16,33.87c-0.01,1.6-0.01,2.79-0.01,3.39" id="kvg:0770c-s2" kvg:type="&#12757;a" />
			<path d="M46.03,28.68c5.6-0.56,22.13-2.2,26.32-2.2" id="kvg:0770c-s3" kvg:type="&#12752;a" />
			<path d="M45.99,41.08c8.64-0.83,18.51-1.83,26.05-2.09" id="kvg:0770c-s4" kvg:type="&#12752;a" />
			<path d="M46.56,53.67c6.31-0.29,18.31-1.42,25.65-1.63" id="kvg:0770c-s5" kvg:type="&#12752;a" />
		</g>
		<path d="M25.75,27c0.75,1,1.5,2.5,1.5,4.25S26,60.12,26,63.25c0,2.25,0.24,4.42,3,4.25c4.12-0.25,54.25-3.75,56.5-3.75s5.25,0.25,7,0.5" id="kvg:0770c-s6" kvg:type="&#12759;" />
	</g>
	<g id="kvg:0770c-g3" kvg:element="&#23567;" kvg:position="bottom" kvg:radical="nelson" kvg:variant="true">
		<path d="M53.29,67.62c1.11,1.11,1.64,2.76,1.64,4.77c0,6.38-0.11,14.5-0.16,20.74c-0.01,1.81-0.02,3.47-0.02,4.88" id="kvg:0770c-s7" kvg:type="&#12753;/&#12762;" />
		<path d="M37.13,77c0.14,1.04,0.03,1.92-0.62,2.75c-3.13,4-10.01,9.75-20.51,15.5" id="kvg:0770c-s8" kvg:type="&#12754;" />
		<path d="M73.96,77.37C79.5,80.5,86.5,87,88.75,92" id="kvg:0770c-s9" kvg:type="&#12756;" />
	</g>
</g>
</g>
<g id="kvg:StrokeNumbers_0770c" style="font-size:8;fill:#808080">
	<text transform="matrix(1 0 0 1 38.50 22.50)">1</text>
	<text transform="matrix(1 0 0 1 46.50 12.50)">2</text>
	<text transform="matrix(1 0 0 1 49.05 25.50)">3</text>
	<text transform="matrix(1 0 0 1 48.88 37.50)">4</text>
	<text transform="matrix(1 0 0 1 49.06 50.50)">5</text>
	<text transform="matrix(1 0 0 1 19.50 35.50)">6</text>
	<text transform="matrix(1 0 0 1 47.25 76.63)">7</text>
	<text transform="matrix(1 0 0 1 28.50 77.50)">8</text>
	<text transform="matrix(1 0 0 1 64.50 77.50)">9</text>
</g>
</svg>