<svg xmlns="http://www.w3.org/2000/svg" xmlns:kvg="http://kanjivg.tagaini.net" height="109" meaning="stare, watch, look at, see, scrutinize" viewBox="0 0 109 109" width="109">
<g id="kvg:StrokePaths_0773a" style="fill:none;stroke:#000000;stroke-width:3;stroke-linecap:round;stroke-linejoin:round;">
<g id="kvg:0773a" kvg:element="&#30522;">
	<g id="kvg:0773a-g1" kvg:element="&#30446;" kvg:position="left" kvg:radical="general">
		<path d="M13.37,25.12c0.88,0.88,1.31,2.27,1.31,3.76c0,1.21,0.11,37.28,0.05,51.87c-0.01,3.44-0.02,5.62-0.02,5.76" id="kvg:0773a-s1" kvg:type="&#12753;" />
		<path d="M15.22,25.95c1.57-0.05,11.5-1.76,15.64-2.36c2.75-0.4,4.06,0.48,4.02,3.41c-0.08,5.85,0.06,34.16-0.01,51.5c-0.01,2.58-0.01,4.92-0.01,6.89" id="kvg:0773a-s2" kvg:type="&#12757;a" />
		<path d="M15.69,43.48c5.63-0.48,12-0.98,17.83-1.46" id="kvg:0773a-s3" kvg:type="&#12752;a" />
		<path d="M15.84,61.5c6-0.5,10.53-1.25,17.98-1.69" id="kvg:0773a-s4" kvg:type="&#12752;a" />
		<path d="M16.08,82.17c5.17-0.27,11.35-0.91,17.68-0.94" id="kvg:0773a-s5" kvg:type="&#12752;a" />
	</g>
	<g id="kvg:0773a-g2" kvg:element="&#20806;" kvg:phon="&#20806;" kvg:position="right">
		<g id="kvg:0773a-g3" kvg:element="&#20799;" kvg:original="&#20843;" kvg:part="1" kvg:position="left">
			<g id="kvg:0773a-g4" kvg:element="&#20031;">
				<path d="M57.29,17.41c1.15,1.15,1.31,2.47,1.39,4.57C60.38,71.38,57.5,81,42.15,93.43" id="kvg:0773a-s6" kvg:type="&#12754;" />
			</g>
			<g id="kvg:0773a-g5" kvg:element="&#20907;">
				<g id="kvg:0773a-g6" kvg:position="top">
					<path d="M42.41,38.06c3.69,1.91,8.52,7.35,9.45,10.32" id="kvg:0773a-s7" kvg:type="&#12756;" />
				</g>
				<g id="kvg:0773a-g7" kvg:position="bottom">
					<path d="M41.61,69.62c1.05,0.48,2.35,0.4,3.14-0.14c1.1-0.76,7.99-6.06,12.31-9.7" id="kvg:0773a-s8" kvg:type="&#12736;" />
				</g>
			</g>
		</g>
		<g id="kvg:0773a-g8" kvg:position="right">
			<g id="kvg:0773a-g9" kvg:element="&#20799;" kvg:original="&#20843;" kvg:part="2">
				<path d="M71.14,16.4c1.21,1.21,1.49,2.32,1.49,3.97c0,9.59,0.12,56,0.12,61.57c0,8.99,1.34,10.79,12.44,10.79c9.9,0,11.81-1.9,11.81-8.18" id="kvg:0773a-s9" kvg:type="&#12767;" />
			</g>
			<path d="M90.39,30.25c0.11,1.07-0.01,2.11-0.65,3.01c-2.86,3.99-5.49,6.87-12.55,12.39" id="kvg:0773a-s10" kvg:type="&#12754;" />
			<path d="M75.7,52.02c5.72,2.84,14.77,11.67,16.2,16.09" id="kvg:0773a-s11" kvg:type="&#12756;" />
		</g>
	</g>
</g>
</g>
<g id="kvg:StrokeNumbers_0773a" style="font-size:8;fill:#808080">
	<text transform="matrix(1 0 0 1 7.50 32.50)">1</text>
	<text transform="matrix(1 0 0 1 17.25 22.50)">2</text>
	<text transform="matrix(1 0 0 1 19.49 40.50)">3</text>
	<text transform="matrix(1 0 0 1 19.32 58.50)">4</text>
	<text transform="matrix(1 0 0 1 19.50 78.50)">5</text>
	<text transform="matrix(1 0 0 1 48.75 17.50)">6</text>
	<text transform="matrix(1 0 0 1 39.50 34.55)">7</text>
	<text transform="matrix(1 0 0 1 39.75 65.50)">8</text>
	<text transform="matrix(1 0 0 1 65.50 13.63)">9</text>
	<text transform="matrix(1 0 0 1 79.50 30.50)">10</text>
	<text transform="matrix(1 0 0 1 80.50 53.50)">11</text>
</g>
</svg>