<svg xmlns="http://www.w3.org/2000/svg" xmlns:kvg="http://kanjivg.tagaini.net" height="109" meaning="eyelids" viewBox="0 0 109 109" width="109">
<g id="kvg:StrokePaths_077bc" style="fill:none;stroke:#000000;stroke-width:3;stroke-linecap:round;stroke-linejoin:round;">
<g id="kvg:077bc" kvg:element="&#30652;">
	<g id="kvg:077bc-g1" kvg:element="&#30446;" kvg:position="left" kvg:radical="general">
		<path d="M12.88,21.07c0.29,1.36,0.71,2.4,0.71,4.16c0,1.77-0.1,57.97,0,59.75" id="kvg:077bc-s1" kvg:type="&#12753;" />
		<path d="M14.07,22.26c1.62-0.02,12.48-1.82,13.96-1.9c1.23-0.07,2.1,1.49,2.1,3.13c0,6.04-0.57,45.89-0.57,59.68" id="kvg:077bc-s2" kvg:type="&#12757;a" />
		<path d="M14.04,41.84c4.48-0.46,11.21-1.02,14.85-0.79" id="kvg:077bc-s3" kvg:type="&#12752;a" />
		<path d="M14.17,60.14c4.3-0.21,10.83-0.89,15.29-1.08" id="kvg:077bc-s4" kvg:type="&#12752;a" />
		<path d="M13.54,81.25c4.41-0.25,10.37-0.9,15.95-0.87" id="kvg:077bc-s5" kvg:type="&#12752;a" />
	</g>
	<g id="kvg:077bc-g2" kvg:element="&#20681;" kvg:position="right">
		<g id="kvg:077bc-g3" kvg:element="&#20154;" kvg:position="top">
			<path d="M62.36,10c0.08,0.85,0.34,2.28-0.15,3.43C59.09,20.7,50.27,35.99,35.5,46.25" id="kvg:077bc-s6" kvg:type="&#12754;" />
			<path d="M62.55,15c4.54,5.39,24.11,23.01,29.12,26.96c1.7,1.34,3.88,1.91,5.58,2.29" id="kvg:077bc-s7" kvg:type="&#12751;" />
		</g>
		<g id="kvg:077bc-g4" kvg:position="bottom">
			<g id="kvg:077bc-g5" kvg:element="&#19968;">
				<path d="M51.79,39.96c0.79,0.21,2.23,0.22,3.02,0.21c6.05-0.06,13.69-0.92,18.64-1.68c1.3-0.2,2.1,0.1,2.76,0.2" id="kvg:077bc-s8" kvg:type="&#12752;" />
			</g>
			<g id="kvg:077bc-g6" kvg:element="&#21475;">
				<path d="M39.42,53.68c0.28,0.28,0.57,0.52,0.69,0.87C41.08,57.33,42.67,65,43.33,70" id="kvg:077bc-s9" kvg:type="&#12753;" />
				<path d="M40.73,55.15c7.09-1.27,14.61-2.64,17.89-3.01c1.2-0.13,1.92,0.79,1.75,1.58c-0.71,3.25-1.54,8-2.59,12.5" id="kvg:077bc-s10" kvg:type="&#12757;b" />
				<path d="M43.46,68.38c3.85-0.41,10.58-1.13,15.87-1.76" id="kvg:077bc-s11" kvg:type="&#12752;b" />
			</g>
			<g id="kvg:077bc-g7" kvg:element="&#21475;">
				<path d="M66.43,50.59c0.27,0.31,0.55,0.57,0.67,0.95c0.94,3.07,2.57,11.53,3.21,17.04" id="kvg:077bc-s12" kvg:type="&#12753;" />
				<path d="M68.12,52.67c5.66-1.17,16.3-2.37,19.47-2.77c1.16-0.15,1.86,0.87,1.69,1.74c-0.69,3.58-2.49,8.41-3.51,13.37" id="kvg:077bc-s13" kvg:type="&#12757;b" />
				<path d="M70.43,67.39c3.73-0.46,12.38-1.24,17.5-1.94" id="kvg:077bc-s14" kvg:type="&#12752;b" />
			</g>
			<g id="kvg:077bc-g8" kvg:element="&#20154;">
				<path d="M50.94,72.12c0.23,1.19,0.15,2.33-0.16,3.1c-2.74,6.75-8.52,15.16-19.76,23.29" id="kvg:077bc-s15" kvg:type="&#12754;" />
				<path d="M50.77,79.82c3.36,1.87,7.65,6.84,9.28,11.56" id="kvg:077bc-s16" kvg:type="&#12751;" />
			</g>
			<g id="kvg:077bc-g9" kvg:element="&#20154;">
				<path d="M76.35,71.87c0.21,1.21,0.13,2.38-0.15,3.16C73.7,81.89,68,90.97,57.78,99.25" id="kvg:077bc-s17" kvg:type="&#12754;" />
				<path d="M75.11,81.45c6.77,2.77,15.42,10.14,18.72,17.12" id="kvg:077bc-s18" kvg:type="&#12751;" />
			</g>
		</g>
	</g>
</g>
</g>
<g id="kvg:StrokeNumbers_077bc" style="font-size:8;fill:#808080">
	<text transform="matrix(1 0 0 1 6.85 28.50)">1</text>
	<text transform="matrix(1 0 0 1 14.50 18.50)">2</text>
	<text transform="matrix(1 0 0 1 17.49 38.50)">3</text>
	<text transform="matrix(1 0 0 1 17.32 56.85)">4</text>
	<text transform="matrix(1 0 0 1 17.50 77.85)">5</text>
	<text transform="matrix(1 0 0 1 54.50 11.50)">6</text>
	<text transform="matrix(1 0 0 1 68.50 17.50)">7</text>
	<text transform="matrix(1 0 0 1 54.50 36.50)">8</text>
	<text transform="matrix(1 0 0 1 33.50 59.50)">9</text>
	<text transform="matrix(1 0 0 1 41.50 50.50)">10</text>
	<text transform="matrix(1 0 0 1 45.50 64.50)">11</text>
	<text transform="matrix(1 0 0 1 61.50 62.50)">12</text>
	<text transform="matrix(1 0 0 1 68.50 48.50)">13</text>
	<text transform="matrix(1 0 0 1 73.50 63.50)">14</text>
	<text transform="matrix(1 0 0 1 38.50 79.50)">15</text>
	<text transform="matrix(1 0 0 1 55.25 81.50)">16</text>
	<text transform="matrix(1 0 0 1 65.25 76.50)">17</text>
	<text transform="matrix(1 0 0 1 81.50 82.50)">18</text>
</g>
</svg>