<svg xmlns="http://www.w3.org/2000/svg" xmlns:kvg="http://kanjivg.tagaini.net" height="109" meaning="mound, bud" viewBox="0 0 109 109" width="109">
<g id="kvg:StrokePaths_0789a" style="fill:none;stroke:#000000;stroke-width:3;stroke-linecap:round;stroke-linejoin:round;">
<g id="kvg:0789a" kvg:element="&#30874;">
	<g id="kvg:0789a-g1" kvg:element="&#30707;" kvg:position="left" kvg:radical="general">
		<path d="M11.71,24.63c0.71,0.16,2.52,0.7,3.22,0.66c8.9-0.54,14.64-2.19,26.53-3.13c1.19-0.1,1.89,0.07,2.49,0.15" id="kvg:0789a-s1" kvg:type="&#12752;" />
		<path d="M26.45,26.77c0.05,1.07,0.12,2.76-0.11,4.29c-1.39,9.06-9.39,28.91-20.33,41.08" id="kvg:0789a-s2" kvg:type="&#12754;" />
		<g id="kvg:0789a-g2" kvg:element="&#21475;">
			<path d="M19.5,55.69c0.28,0.52,0.56,0.96,0.68,1.62c0.96,5.21,2.12,19.08,2.78,28.44" id="kvg:0789a-s3" kvg:type="&#12753;" />
			<path d="M21.23,58.04C28,57,35.85,56.4,39,55.73c1.15-0.24,1.83,1.45,1.67,2.87c-0.67,5.92-2.44,12.58-3.45,20.77" id="kvg:0789a-s4" kvg:type="&#12757;b" />
			<path d="M23.09,82.43c4.91-1.05,9.91-0.99,16.35-2.3" id="kvg:0789a-s5" kvg:type="&#12752;b" />
		</g>
	</g>
	<g id="kvg:0789a-g3" kvg:position="right">
		<g id="kvg:0789a-g4" kvg:element="&#31435;" kvg:position="top">
			<g id="kvg:0789a-g5" kvg:element="&#20128;" kvg:position="top">
				<path d="M68.75,12.25c1,0.75,1.5,0.75,1.5,2.5s0,6.75,0,11.5" id="kvg:0789a-s6" kvg:type="&#12753;a" />
				<path d="M49.5,27.7c1.16,0.33,2.53,0.38,3.68,0.33c6.57-0.28,27.07-2.53,36.99-2.77c1.94-0.05,3.1,0.16,4.07,0.32" id="kvg:0789a-s7" kvg:type="&#12752;" />
			</g>
			<g id="kvg:0789a-g6" kvg:position="bottom">
				<path d="M56.83,31.83c3.56,5.99,5.18,12.13,5.5,16.08" id="kvg:0789a-s8" kvg:type="&#12756;" />
				<path d="M83.76,28.83c0.68,0.67,0.76,1,0.68,1.55C83.89,34.16,79.37,45.62,78,48.5" id="kvg:0789a-s9" kvg:type="&#12754;" />
				<path d="M43.92,52.52c1.49,0.2,3.24,0.27,4.73,0.2c16.25-0.86,26.56-2.63,45.39-3.04c2.49-0.06,3.98,0.1,5.22,0.19" id="kvg:0789a-s10" kvg:type="&#12752;" />
			</g>
		</g>
		<g id="kvg:0789a-g7" kvg:element="&#21475;" kvg:position="bottom">
			<path d="M51.08,64.31c0.68,0.56,1.38,1.04,1.69,1.75c2.38,5.64,2.72,20.19,3.72,31.28" id="kvg:0789a-s11" kvg:type="&#12753;" />
			<path d="M53.38,66.71c11.37-0.96,26.8-2.7,32.17-3.38c1.95-0.25,3.14,1.48,2.86,2.95c-1.16,6.06-2.06,17.55-3.79,25.94" id="kvg:0789a-s12" kvg:type="&#12757;b" />
			<path d="M57.87,94.18c6.07-0.55,21.76-1.5,30.09-2.34" id="kvg:0789a-s13" kvg:type="&#12752;b" />
		</g>
	</g>
</g>
</g>
<g id="kvg:StrokeNumbers_0789a" style="font-size:8;fill:#808080">
	<text transform="matrix(1 0 0 1 5.92 24.50)">1</text>
	<text transform="matrix(1 0 0 1 18.08 35.50)">2</text>
	<text transform="matrix(1 0 0 1 14.25 70.50)">3</text>
	<text transform="matrix(1 0 0 1 23.50 54.57)">4</text>
	<text transform="matrix(1 0 0 1 25.50 78.50)">5</text>
	<text transform="matrix(1 0 0 1 61.75 9.42)">6</text>
	<text transform="matrix(1 0 0 1 48.58 24.35)">7</text>
	<text transform="matrix(1 0 0 1 50.50 38.50)">8</text>
	<text transform="matrix(1 0 0 1 76.50 35.50)">9</text>
	<text transform="matrix(1 0 0 1 40.50 49.23)">10</text>
	<text transform="matrix(1 0 0 1 42.50 71.50)">11</text>
	<text transform="matrix(1 0 0 1 55.42 62.74)">12</text>
	<text transform="matrix(1 0 0 1 59.50 90.50)">13</text>
</g>
</svg>