<svg xmlns="http://www.w3.org/2000/svg" xmlns:kvg="http://kanjivg.tagaini.net" height="109" meaning="cornerstone, large, great, eminent" viewBox="0 0 109 109" width="109">
<g id="kvg:StrokePaths_078b5" style="fill:none;stroke:#000000;stroke-width:3;stroke-linecap:round;stroke-linejoin:round;">
<g id="kvg:078b5" kvg:element="&#30901;">
	<g id="kvg:078b5-g1" kvg:element="&#30707;" kvg:position="left" kvg:radical="general">
		<path d="M14.53,25.27c0.67,0.14,1.9,0.18,2.55,0.14c8.35-0.5,14.21-1.55,25.37-2.42c1.11-0.09,1.78,0.06,2.33,0.14" id="kvg:078b5-s1" kvg:type="&#12752;" />
		<path d="M26.81,26.75c0.05,0.98,0.11,2.54-0.1,3.94c-1.28,8.31-8.64,26.54-18.7,37.72" id="kvg:078b5-s2" kvg:type="&#12754;" />
		<g id="kvg:078b5-g2" kvg:element="&#21475;">
			<path d="M19.71,53.91c0.26,0.47,0.53,0.87,0.64,1.46c0.91,4.69,2.01,17.62,2.63,26.05" id="kvg:078b5-s3" kvg:type="&#12753;" />
			<path d="M21.26,55.57c6.99-1.32,16.34-2.54,19.9-3.19c1.3-0.24,2.07,1.4,1.89,2.78c-0.76,5.74-2.26,13.69-3.4,21.62" id="kvg:078b5-s4" kvg:type="&#12757;b" />
			<path d="M24.29,79.61C29.64,78.62,33,78,42.03,77.5" id="kvg:078b5-s5" kvg:type="&#12752;b" />
		</g>
	</g>
	<g id="kvg:078b5-g3" kvg:element="&#35998;" kvg:position="right">
		<g id="kvg:078b5-g4" kvg:element="&#21340;" kvg:original="&#12488;" kvg:position="top" kvg:variant="true">
			<path d="M68.73,11.55c0.52,0.7,1.52,3.2,1.77,5.28c0.02,0.9-0.01,14.18-0.03,19.8" id="kvg:078b5-s6" kvg:type="&#12753;" />
			<path d="M71.14,22.22c4.11-0.47,17.35-1.95,19.04-1.95c1.69,0,2.54,0,3.8,0" id="kvg:078b5-s7" kvg:type="&#12752;" />
		</g>
		<g id="kvg:078b5-g5" kvg:element="&#35997;" kvg:position="bottom">
			<g id="kvg:078b5-g6" kvg:element="&#30446;" kvg:position="top">
				<path d="M53.08,36.51c0.58,0.99,1.43,2.21,1.43,3.55c0,1.34,0.26,34.86-0.42,40.52" id="kvg:078b5-s8" kvg:type="&#12753;" />
				<path d="M54.48,38.08c3.3-0.29,29.46-1.93,32.46-2.25c2.51-0.26,3.84,0.78,3.84,2.03c0,3.07-0.74,39.74-0.74,40.75" id="kvg:078b5-s9" kvg:type="&#12757;a" />
				<path d="M54.57,51.31c6.17-0.63,30.1-1.9,35.4-2.11" id="kvg:078b5-s10" kvg:type="&#12752;a" />
				<path d="M54.84,64.53c9.31-1.1,25.29-1.72,35.17-2.26" id="kvg:078b5-s11" kvg:type="&#12752;a" />
				<path d="M54.41,77.93c9.31-0.92,27.1-1.07,35.59-1.4" id="kvg:078b5-s12" kvg:type="&#12752;a" />
			</g>
			<g id="kvg:078b5-g7" kvg:position="bottom">
				<path d="M61.86,84.73c0.47,1.05,0.07,2.27-0.87,3.08c-2.85,2.47-10.77,7.69-16.48,10.71" id="kvg:078b5-s13" kvg:type="&#12754;" />
				<path d="M80.24,84.56c5.81,3.37,12.67,9.64,14.26,12.73" id="kvg:078b5-s14" kvg:type="&#12756;" />
			</g>
		</g>
	</g>
</g>
</g>
<g id="kvg:StrokeNumbers_078b5" style="font-size:8;fill:#808080">
	<text transform="matrix(1 0 0 1 8.25 25.50)">1</text>
	<text transform="matrix(1 0 0 1 17.58 35.50)">2</text>
	<text transform="matrix(1 0 0 1 15.25 68.50)">3</text>
	<text transform="matrix(1 0 0 1 24.50 51.57)">4</text>
	<text transform="matrix(1 0 0 1 26.50 75.50)">5</text>
	<text transform="matrix(1 0 0 1 60.00 12.50)">6</text>
	<text transform="matrix(1 0 0 1 75.50 18.50)">7</text>
	<text transform="matrix(1 0 0 1 44.42 39.50)">8</text>
	<text transform="matrix(1 0 0 1 56.50 34.95)">9</text>
	<text transform="matrix(1 0 0 1 58.50 48.20)">10</text>
	<text transform="matrix(1 0 0 1 58.50 61.63)">11</text>
	<text transform="matrix(1 0 0 1 58.50 74.89)">12</text>
	<text transform="matrix(1 0 0 1 48.50 88.50)">13</text>
	<text transform="matrix(1 0 0 1 72.33 91.49)">14</text>
</g>
</svg>