<svg xmlns="http://www.w3.org/2000/svg" xmlns:kvg="http://kanjivg.tagaini.net" height="109" kun="&#12367;&#12425;.&#12356;, &#12373;&#12356;&#12431;.&#12356;" meaning="imperial throne, happiness" on="&#12477;" viewBox="0 0 109 109" width="109">
<g id="kvg:StrokePaths_0795a" style="fill:none;stroke:#000000;stroke-width:3;stroke-linecap:round;stroke-linejoin:round;">
<g id="kvg:0795a" kvg:element="&#31066;">
	<g id="kvg:0795a-g1" kvg:element="&#31034;" kvg:position="left" kvg:radical="general" kvg:variant="true">
		<g id="kvg:0795a-g2" kvg:position="top">
			<path d="M17.48,17.55c1.38,0.34,2.77,0.44,4.16,0.3c4.55-0.3,10.94-1.08,15.62-1.47c1.42-0.2,2.83-0.12,4.24,0.25" id="kvg:0795a-s1" kvg:type="&#12752;" />
			<path d="M11.91,35.65c1.99,0.13,3.98,0.09,5.96-0.1c7.02-0.59,16.8-1.76,24.75-2.5c1.98-0.23,3.96-0.28,5.96-0.14" id="kvg:0795a-s2" kvg:type="&#12752;" />
		</g>
		<g id="kvg:0795a-g3" kvg:position="bottom">
			<path d="M29.59,36.93c0.95,1.79,1.28,3.69,1.01,5.69c0.04,8.29-0.01,32.64-0.08,45.75c-0.02,4.04-0.04,7.01-0.06,8.12" id="kvg:0795a-s3" kvg:type="&#12753;" />
			<path d="M19.88,48.75c0.4,1.69,0.59,3.4,0.49,5.12c-0.61,10.5-2.36,22.38-8.56,32.59" id="kvg:0795a-s4" kvg:type="&#12754;" />
			<path d="M41.3,45.75c0.95,1,1.42,3.03,1.42,3.97c0,4.53-0.21,22.16-0.21,31.61" id="kvg:0795a-s5" kvg:type="&#12753;/&#12756;" />
		</g>
	</g>
	<g id="kvg:0795a-g4" kvg:element="&#20045;" kvg:position="right">
		<g id="kvg:0795a-g5" kvg:element="&#20031;">
			<path d="M67.52,12.5c0.25,1.54,0.07,3.01-0.54,4.4c-2.51,7.15-8.3,18.89-17.24,28.35" id="kvg:0795a-s6" kvg:type="&#12754;" />
		</g>
		<path d="M63.36,31.8c1.8,0.27,3.6,0.32,5.4,0.15c10.67-0.65,16.55-2.86,24.61-3.54c1.87-0.2,3.75-0.14,5.62,0.18" id="kvg:0795a-s7" kvg:type="&#12752;" />
		<path d="M66.89,33.71c1.19,1.23,1.57,2.79,1.57,4.17c0,10.16-0.06,37.44-0.08,52.63c0,3.52-0.01,6.4-0.01,8.25" id="kvg:0795a-s8" kvg:type="&#12753;" />
		<path d="M71.32,51.19c6.93-0.69,11.25-1.13,17.29-1.72c1.63-0.16,3.23-0.3,4.86,0.01" id="kvg:0795a-s9" kvg:type="&#12752;b" />
		<path d="M70.98,68.63c4.08-0.46,12.42-1.48,21.64-2.46c1.61-0.24,3.23-0.22,4.86,0.05" id="kvg:0795a-s10" kvg:type="&#12752;b" />
	</g>
</g>
</g>
<g id="kvg:StrokeNumbers_0795a" style="font-size:8;fill:#808080">
	<text transform="matrix(1 0 0 1 10.50 17.50)">1</text>
	<text transform="matrix(1 0 0 1 4.50 35.50)">2</text>
	<text transform="matrix(1 0 0 1 21.50 44.50)">3</text>
	<text transform="matrix(1 0 0 1 9.50 47.16)">4</text>
	<text transform="matrix(1 0 0 1 37.44 42.50)">5</text>
	<text transform="matrix(1 0 0 1 58.50 10.50)">6</text>
	<text transform="matrix(1 0 0 1 68.50 28.68)">7</text>
	<text transform="matrix(1 0 0 1 60.44 42.50)">8</text>
	<text transform="matrix(1 0 0 1 72.44 47.53)">9</text>
	<text transform="matrix(1 0 0 1 71.69 64.46)">10</text>
</g>
</svg>