<svg xmlns="http://www.w3.org/2000/svg" xmlns:kvg="http://kanjivg.tagaini.net" height="109" meaning="ancestral shrine" viewBox="0 0 109 109" width="109">
<g id="kvg:StrokePaths_07962" style="fill:none;stroke:#000000;stroke-width:3;stroke-linecap:round;stroke-linejoin:round;">
<g id="kvg:07962" kvg:element="&#31074;">
	<g id="kvg:07962-g1" kvg:element="&#31035;" kvg:original="&#31034;" kvg:position="left" kvg:radicalForm="true" kvg:variant="true">
		<path d="M28.58,15c3.33,2.06,6.9,5.15,9.75,8.75" id="kvg:07962-s1" kvg:type="&#12756;" />
		<path d="M15.08,38c1.01,0.45,2.59,1.2,4.26,0.7c2.05-0.61,17.24-3.45,19.74-4.2s5.02,1.01,3.5,3.25C37.33,45.5,26.08,60.25,17.33,68" id="kvg:07962-s2" kvg:type="&#12743;" />
		<path d="M31,54.61c0.12,0.29,1.65,1.53,1.77,3.39c0.57,8.93,0.06,33.7,0.06,36.75" id="kvg:07962-s3" kvg:type="&#12753;" />
		<path d="M33.83,55c3.76,2.18,7.78,5.44,11,9.25" id="kvg:07962-s4" kvg:type="&#12756;" />
	</g>
	<g id="kvg:07962-g2" kvg:element="&#23571;" kvg:position="right">
		<g id="kvg:07962-g3" kvg:position="top">
			<g id="kvg:07962-g4" kvg:element="&#20031;">
				<path d="M65.03,15.64c0.05,0.8,0.2,2.08-0.09,3.2c-1.79,6.75-7.47,21.54-16.18,30.59" id="kvg:07962-s5" kvg:type="&#12754;" />
			</g>
			<path d="M60.98,37.24c1.48,0.08,2.61,0.01,3.54-0.04c12.24-0.69,19.04-2.47,25.34-2.85c1.53-0.09,2.46,0.18,3.23,0.37" id="kvg:07962-s6" kvg:type="&#12752;" />
		</g>
		<g id="kvg:07962-g5" kvg:element="&#23567;" kvg:position="bottom">
			<path d="M71.62,38.69c0.07,0.4,0.99,2.11,1.06,4.67c0.34,12.32-0.22,40.77-0.22,44.97c0,9.52-6.1,1.27-7.37,0.21" id="kvg:07962-s7" kvg:type="&#12762;" />
			<path d="M57.15,56.38c0.03,0.57,0.07,1.47-0.07,2.28c-0.79,4.82-5.35,15.38-11.6,21.85" id="kvg:07962-s8" kvg:type="&#12754;" />
			<path d="M84.3,55.81c4.15,4.03,10.72,16.57,11.76,22.84" id="kvg:07962-s9" kvg:type="&#12756;" />
		</g>
	</g>
</g>
</g>
<g id="kvg:StrokeNumbers_07962" style="font-size:8;fill:#808080">
	<text transform="matrix(1 0 0 1 22.50 15.50)">1</text>
	<text transform="matrix(1 0 0 1 6.58 37.50)">2</text>
	<text transform="matrix(1 0 0 1 26.50 67.48)">3</text>
	<text transform="matrix(1 0 0 1 37.50 54.50)">4</text>
	<text transform="matrix(1 0 0 1 55.50 14.50)">5</text>
	<text transform="matrix(1 0 0 1 66.50 33.50)">6</text>
	<text transform="matrix(1 0 0 1 63.92 47.18)">7</text>
	<text transform="matrix(1 0 0 1 48.50 58.50)">8</text>
	<text transform="matrix(1 0 0 1 81.25 52.36)">9</text>
</g>
</svg>