<svg xmlns="http://www.w3.org/2000/svg" xmlns:kvg="http://kanjivg.tagaini.net" height="109" meaning="Shinto purification ceremony" viewBox="0 0 109 109" width="109">
<g id="kvg:StrokePaths_0798a" style="fill:none;stroke:#000000;stroke-width:3;stroke-linecap:round;stroke-linejoin:round;">
<g id="kvg:0798a" kvg:element="&#31114;">
	<g id="kvg:0798a-g1" kvg:element="&#31034;" kvg:position="left" kvg:radical="general" kvg:variant="true">
		<g id="kvg:0798a-g2" kvg:position="top">
			<path d="M13.98,19.33c0.77,0.48,2.19,0.53,2.96,0.48c4.84-0.33,12.62-1.72,17.53-2.17c1.28-0.12,2.06,0.23,2.71,0.47" id="kvg:0798a-s1" kvg:type="&#12752;" />
			<path d="M10.62,36.85c0.98,0.5,2.77,0.55,3.74,0.5c6.15-0.32,16.02-2.33,23.1-2.86c1.62-0.12,2.6,0.24,3.42,0.48" id="kvg:0798a-s2" kvg:type="&#12752;" />
		</g>
		<g id="kvg:0798a-g3" kvg:position="bottom">
			<path d="M25.5,38c1.25,1.5,0.94,1.98,1.45,2.89c0.53,0.91,0,51.67-0.52,57.36" id="kvg:0798a-s3" kvg:type="&#12753;" />
			<path d="M15.93,49.5c0.45,1.47,0.44,2.23,0.44,3.48c0,9.12-0.88,21.6-7.62,33.27" id="kvg:0798a-s4" kvg:type="&#12754;" />
			<path d="M36.17,46.75c0.95,0.43,1.52,1.95,1.7,2.82c0.19,0.87,0,27-0.19,32.43" id="kvg:0798a-s5" kvg:type="&#12753;/&#12756;" />
		</g>
	</g>
	<g id="kvg:0798a-g4" kvg:element="&#22865;" kvg:position="right">
		<g id="kvg:0798a-g5" kvg:position="top">
			<g id="kvg:0798a-g6" kvg:position="left">
				<path d="M43.5,23c1.04,0,1.08,0.15,2.11,0c4.4-0.64,15.11-1.9,18.7-2.59c1.03-0.19,1.29-0.23,1.94,0" id="kvg:0798a-s6" kvg:type="&#12752;" />
				<path d="M45.62,34.13c1.18,0,1.23,0.11,2.4,0c7.65-0.74,13.13-2.6,17.23-3.35c1.17-0.21,1.47-0.25,2.21,0" id="kvg:0798a-s7" kvg:type="&#12752;" />
				<path d="M44.5,47.69c1.08,1.18,1.22,0.77,3.26-0.17c5.55-2.55,12.53-5.5,20.59-8.84" id="kvg:0798a-s8" kvg:type="&#12752;" />
				<path d="M52.09,11.15c1.91,0.85,3.09,2.27,3.24,3.46c0.42,3.39,1.54,29.19,2.03,40.93" id="kvg:0798a-s9" kvg:type="&#12753;" />
			</g>
			<g id="kvg:0798a-g7" kvg:element="&#20992;" kvg:position="right">
				<path d="M69,14.75c0.89,0.53,3.45,1.33,4.25,1.25c9.5-1,15.47-1.71,19-2.25c2.3-0.35,3.35,0.78,3.5,3.25c0.52,8.49-2.5,23.75-7.5,33.32c-2.67,5.11-5.49-0.08-6.13-0.53" id="kvg:0798a-s10" kvg:type="&#12742;" />
				<path d="M81.75,18.1c0.04,0.7,0.06,1.82-0.09,2.83C80.13,30.86,74.5,43.5,66,49.75" id="kvg:0798a-s11" kvg:type="&#12754;" />
			</g>
		</g>
		<g id="kvg:0798a-g8" kvg:element="&#22823;" kvg:position="bottom">
			<path d="M45.61,69.12c1.04,0.4,2.21,0.25,2.9,0.17c11.88-1.42,32.79-3.3,43.66-4c0.87-0.05,2.41-0.03,3.38-0.01" id="kvg:0798a-s12" kvg:type="&#12752;" />
			<path d="M67.21,55.25c0.44,0.56,0.67,1.22,0.65,2.44C67.65,78.84,57.07,90,39.66,96.5" id="kvg:0798a-s13" kvg:type="&#12754;" />
			<path d="M67.5,67.25c6.07,7.25,20.22,23.34,26.28,28.2c2.06,1.65,2.78,1.9,3.72,2.05" id="kvg:0798a-s14" kvg:type="&#12751;" />
		</g>
	</g>
</g>
</g>
<g id="kvg:StrokeNumbers_0798a" style="font-size:8;fill:#808080">
	<text transform="matrix(1 0 0 1 7.75 18.50)">1</text>
	<text transform="matrix(1 0 0 1 3.50 35.50)">2</text>
	<text transform="matrix(1 0 0 1 18.50 46.50)">3</text>
	<text transform="matrix(1 0 0 1 6.50 51.50)">4</text>
	<text transform="matrix(1 0 0 1 30.50 44.50)">5</text>
	<text transform="matrix(1 0 0 1 42.75 19.50)">6</text>
	<text transform="matrix(1 0 0 1 41.50 31.50)">7</text>
	<text transform="matrix(1 0 0 1 43.50 44.50)">8</text>
	<text transform="matrix(1 0 0 1 47.50 9.50)">9</text>
	<text transform="matrix(1 0 0 1 65.50 11.50)">10</text>
	<text transform="matrix(1 0 0 1 70.50 26.50)">11</text>
	<text transform="matrix(1 0 0 1 42.50 65.50)">12</text>
	<text transform="matrix(1 0 0 1 56.75 64.23)">13</text>
	<text transform="matrix(1 0 0 1 76.50 75.50)">14</text>
</g>
</svg>