<svg xmlns="http://www.w3.org/2000/svg" xmlns:kvg="http://kanjivg.tagaini.net" height="109" kun="&#12362;&#12394;&#12364;&#12374;&#12427;" meaning="long-tailed monkey" on="&#12464;, &#12464;&#12454;" viewBox="0 0 109 109" width="109">
<g id="kvg:StrokePaths_079ba" style="fill:none;stroke:#000000;stroke-width:3;stroke-linecap:round;stroke-linejoin:round;">
<g id="kvg:079ba" kvg:element="&#31162;">
	<g id="kvg:079ba-g1" kvg:element="&#26085;">
		<g id="kvg:079ba-g2" kvg:element="&#30000;" kvg:part="1" kvg:variant="true">
			<path d="M26.77,15.42c0.38,0.54,0.38,0.9,0.58,1.57c1.67,5.48,3.67,20.17,4.65,30.27" id="kvg:079ba-s1" kvg:type="&#12753;" />
			<path d="M28.53,16.75c13.26-0.55,37.48-2.98,47.38-3.52c3.64-0.2,5.58,0.52,5.29,3.86c-0.48,5.41-2.2,16.66-4.35,27.23" id="kvg:079ba-s2" kvg:type="&#12757;" />
			<path d="M30.4,30.81c4.32-0.27,45.26-2.86,48.82-2.86" id="kvg:079ba-s3" kvg:type="&#12752;" />
			<path d="M32.2,44.83c13.55-1.33,31.59-2.22,44.77-2.37" id="kvg:079ba-s4" kvg:type="&#12752;" />
		</g>
	</g>
	<g id="kvg:079ba-g3" kvg:element="&#31160;" kvg:radical="general">
		<path d="M20.78,56.39c0.72,0.86,2.45,2.57,2.61,3.8C24.25,66.75,28,92.25,28.98,99" id="kvg:079ba-s5" kvg:type="&#12753;" />
		<path d="M23.35,59.79c8.65-0.96,58.1-4.96,59.8-5.3c3.64-0.72,6.05,1.76,5.92,3.88C88.75,63.5,85,85.5,82.13,92c-3.58,8.12-4.88,5-8.1-0.06" id="kvg:079ba-s6" kvg:type="&#12742;" />
		<g id="kvg:079ba-g4" kvg:element="&#30000;" kvg:part="2" kvg:variant="true">
			<path d="M52.44,16.59C53,17.5,53.89,18.4,53.88,20c-0.01,7.03,0.24,50.84,0.24,53" id="kvg:079ba-s7" kvg:type="&#12753;" />
		</g>
		<path d="M38,77.25c1.5,1.25,3.17,1.94,4.5,1.5C46.25,77.5,61.15,72.25,69,70" id="kvg:079ba-s8" kvg:type="&#65302;" />
		<path d="M64.77,63.33c3.02,2.71,7.79,11.16,8.54,15.38" id="kvg:079ba-s9" kvg:type="&#12756;" />
	</g>
</g>
</g>
<g id="kvg:StrokeNumbers_079ba" style="font-size:8;fill:#808080">
	<text transform="matrix(1 0 0 1 21.50 23.88)">1</text>
	<text transform="matrix(1 0 0 1 31.50 13.05)">2</text>
	<text transform="matrix(1 0 0 1 36.25 27.50)">3</text>
	<text transform="matrix(1 0 0 1 36.50 41.50)">4</text>
	<text transform="matrix(1 0 0 1 16.00 65.50)">5</text>
	<text transform="matrix(1 0 0 1 26.50 55.75)">6</text>
	<text transform="matrix(1 0 0 1 44.75 24.18)">7</text>
	<text transform="matrix(1 0 0 1 37.50 73.35)">8</text>
	<text transform="matrix(1 0 0 1 69.50 64.78)">9</text>
</g>
</svg>