<svg xmlns="http://www.w3.org/2000/svg" xmlns:kvg="http://kanjivg.tagaini.net" height="109" kun="&#12414;&#12368;&#12373;, &#12414;&#12368;&#12373;&#12363;&#12358;" meaning="fodder" on="&#12510;&#12484;, &#12496;&#12484;" viewBox="0 0 109 109" width="109">
<g id="kvg:StrokePaths_079e3" style="fill:none;stroke:#000000;stroke-width:3;stroke-linecap:round;stroke-linejoin:round;">
<g id="kvg:079e3" kvg:element="&#31203;">
	<g id="kvg:079e3-g1" kvg:element="&#31166;" kvg:position="left" kvg:radical="general">
		<g id="kvg:079e3-g2" kvg:element="&#20031;" kvg:position="top">
			<path d="M39.75,17c0.08,0.35,0.16,0.91-0.16,1.42C37.7,21.41,26.85,27.98,12,32" id="kvg:079e3-s1" kvg:type="&#12754;" />
		</g>
		<g id="kvg:079e3-g3" kvg:element="&#26408;" kvg:position="bottom">
			<path d="M10.37,45.65c0.36,0.13,1.33,0.35,2.29,0.4c2.65,0.13,24.39-1.99,31.03-2.65c0.96-0.1,1.21-0.13,1.81,0" id="kvg:079e3-s2" kvg:type="&#12752;" />
			<path d="M30.89,28.41c0.43,0.43,0.69,1.93,0.78,2.78c0.09,0.86,0,59.71-0.09,65.06" id="kvg:079e3-s3" kvg:type="&#12753;" />
			<path d="M31.5,47C27.14,57.73,19.87,70.97,10,79.75" id="kvg:079e3-s4" kvg:type="&#12754;" />
			<path d="M33.25,50.75c4.3,2.74,7.94,8.22,10.25,11.75" id="kvg:079e3-s5" kvg:type="&#12756;/&#12751;" />
		</g>
	</g>
	<g id="kvg:079e3-g4" kvg:element="&#26411;" kvg:position="right">
		<path d="M47.68,34.57c1.21,0.34,3.42,0.4,4.63,0.34c6.11-0.31,29.86-2.66,36.96-2.81c2.01-0.04,3.22,0.16,4.23,0.33" id="kvg:079e3-s6" kvg:type="&#12752;" />
		<g id="kvg:079e3-g5" kvg:element="&#26408;">
			<path d="M49.67,54.49c0.83,0.19,3.06,0.22,5.28,0.19c12.65-0.22,20.66-1.82,31.51-2.15c2.22-0.07,2.78-0.19,4.17,0" id="kvg:079e3-s7" kvg:type="&#12752;" />
			<path d="M65.94,13.25c0.92,0.47,1.46,2.11,1.65,3.05c0.18,0.94,0,74.84-0.18,80.7" id="kvg:079e3-s8" kvg:type="&#12753;" />
			<path d="M68,54.25c-5.2,10.73-18.7,25.92-29.5,32" id="kvg:079e3-s9" kvg:type="&#12754;" />
			<path d="M68,54.25c3.85,4.22,20.76,24.19,24.94,28.34C94.36,83.99,95.58,84.6,97,85" id="kvg:079e3-s10" kvg:type="&#12751;" />
		</g>
	</g>
</g>
</g>
<g id="kvg:StrokeNumbers_079e3" style="font-size:8;fill:#808080">
	<text transform="matrix(1 0 0 1 31.50 14.50)">1</text>
	<text transform="matrix(1 0 0 1 3.50 44.50)">2</text>
	<text transform="matrix(1 0 0 1 24.00 37.31)">3</text>
	<text transform="matrix(1 0 0 1 21.50 55.50)">4</text>
	<text transform="matrix(1 0 0 1 39.75 52.50)">5</text>
	<text transform="matrix(1 0 0 1 43.50 31.50)">6</text>
	<text transform="matrix(1 0 0 1 47.50 50.50)">7</text>
	<text transform="matrix(1 0 0 1 56.00 14.35)">8</text>
	<text transform="matrix(1 0 0 1 54.50 64.50)">9</text>
	<text transform="matrix(1 0 0 1 76.50 62.50)">10</text>
</g>
</svg>