<svg xmlns="http://www.w3.org/2000/svg" xmlns:kvg="http://kanjivg.tagaini.net" height="109" kun="&#12431;&#12425;" meaning="straw, hollow stem" on="&#12459;&#12531;" viewBox="0 0 109 109" width="109">
<g id="kvg:StrokePaths_07a08" style="fill:none;stroke:#000000;stroke-width:3;stroke-linecap:round;stroke-linejoin:round;">
<g id="kvg:07a08" kvg:element="&#31240;">
	<g id="kvg:07a08-g1" kvg:element="&#31166;" kvg:position="left" kvg:radical="general">
		<g id="kvg:07a08-g2" kvg:element="&#20031;" kvg:position="top">
			<path d="M40.01,13.75c0.07,0.34,0.16,0.87-0.15,1.35C38.06,17.94,27.69,24.18,13.5,28" id="kvg:07a08-s1" kvg:type="&#12754;" />
		</g>
		<g id="kvg:07a08-g3" kvg:element="&#26408;" kvg:position="bottom">
			<path d="M10.87,43.93c0.53,0.15,1.94,0.39,3.36,0.45c3.88,0.15,21.15-2.24,30.86-2.99c1.41-0.11,1.76-0.15,2.65,0" id="kvg:07a08-s2" kvg:type="&#12752;" />
			<path d="M31.83,24c0.37,0.45,0.58,2.01,0.66,2.91c0.07,0.9,0,63.49-0.07,69.09" id="kvg:07a08-s3" kvg:type="&#12753;" />
			<path d="M32.5,44.75c-4.66,11.63-12.44,25.99-23,35.5" id="kvg:07a08-s4" kvg:type="&#12754;" />
			<path d="M35.5,50.25c3.88,2.27,7.16,6.83,9.25,9.75" id="kvg:07a08-s5" kvg:type="&#12756;/&#12751;" />
		</g>
	</g>
	<g id="kvg:07a08-g4" kvg:element="&#26097;" kvg:position="right">
		<g id="kvg:07a08-g5" kvg:element="&#26085;" kvg:position="top">
			<path d="M53.49,16.02c0.27,0.47,0.27,0.8,0.42,1.4c1.21,4.91,1.82,17.33,2.57,26.49" id="kvg:07a08-s6" kvg:type="&#12753;" />
			<path d="M54.22,17.25c8.16-0.98,24.71-2.15,30.8-2.97c2.24-0.3,2.69,1.73,2.58,2.8c-0.42,3.92-2.15,18.48-3.17,25.04" id="kvg:07a08-s7" kvg:type="&#12757;a" />
			<path d="M55.81,28.75c2.62-0.38,26.65-2.18,30.17-1.87" id="kvg:07a08-s8" kvg:type="&#12752;a" />
			<path d="M57.18,41.12c7.48-1.07,19.33-1.18,27.36-1.86" id="kvg:07a08-s9" kvg:type="&#12752;a" />
		</g>
		<g id="kvg:07a08-g6" kvg:element="&#24178;" kvg:position="bottom">
			<path d="M53.5,53.9c0.71,0.38,3.15,0.41,3.86,0.34c4.9-0.45,21.54-1.52,29.9-2.26c1.18-0.1,3.65,0.33,4.24,0.52" id="kvg:07a08-s10" kvg:type="&#12752;" />
			<g id="kvg:07a08-g7" kvg:element="&#21313;">
				<path d="M44.99,70.39c1.47,0.35,4.19,0.51,5.65,0.39c15.11-1.29,28.14-2.74,44.23-2.88c2.46-0.02,3.93,0.2,5.15,0.38" id="kvg:07a08-s11" kvg:type="&#12752;" />
				<path d="M70.33,55.22c0.42,0.48,1.38,1.97,1.38,4.53c0,0.96-0.05,33.02-0.14,39" id="kvg:07a08-s12" kvg:type="&#12753;" />
			</g>
		</g>
	</g>
</g>
</g>
<g id="kvg:StrokeNumbers_07a08" style="font-size:8;fill:#808080">
	<text transform="matrix(1 0 0 1 32.50 12.50)">1</text>
	<text transform="matrix(1 0 0 1 3.50 42.50)">2</text>
	<text transform="matrix(1 0 0 1 25.50 32.50)">3</text>
	<text transform="matrix(1 0 0 1 20.25 53.90)">4</text>
	<text transform="matrix(1 0 0 1 40.50 50.50)">5</text>
	<text transform="matrix(1 0 0 1 46.50 22.50)">6</text>
	<text transform="matrix(1 0 0 1 56.50 13.50)">7</text>
	<text transform="matrix(1 0 0 1 59.50 25.50)">8</text>
	<text transform="matrix(1 0 0 1 60.50 37.50)">9</text>
	<text transform="matrix(1 0 0 1 47.50 50.50)">10</text>
	<text transform="matrix(1 0 0 1 47.50 67.50)">11</text>
	<text transform="matrix(1 0 0 1 60.50 63.50)">12</text>
</g>
</svg>