<svg xmlns="http://www.w3.org/2000/svg" xmlns:kvg="http://kanjivg.tagaini.net" height="109" kun="&#12362;&#12392;&#12375;&#12354;&#12394;" meaning="sunken trap" on="&#12475;&#12452;" viewBox="0 0 109 109" width="109">
<g id="kvg:StrokePaths_07a7d" style="fill:none;stroke:#000000;stroke-width:3;stroke-linecap:round;stroke-linejoin:round;">
<g id="kvg:07a7d" kvg:element="&#31357;">
	<g id="kvg:07a7d-g1" kvg:element="&#31348;" kvg:position="top" kvg:radical="general" kvg:variant="true">
		<g id="kvg:07a7d-g2" kvg:element="&#23424;" kvg:position="top">
			<path d="M51.73,8c1.19,0.4,2.89,2.39,2.86,3.56c-0.09,3.67-0.09,6.32-0.09,9.66" id="kvg:07a7d-s1" kvg:type="&#12753;a" />
			<g id="kvg:07a7d-g3" kvg:element="&#20886;">
				<path d="M19.98,21.26c0,3.85-3.06,14.43-4.46,16.99" id="kvg:07a7d-s2" kvg:type="&#12756;" />
				<path d="M20.1,24.29c13.9-0.79,56.51-4.46,65.44-4.17c11.55,0.36,2.32,7.05-0.59,9.06" id="kvg:07a7d-s3" kvg:type="&#12758;b" />
			</g>
		</g>
		<g id="kvg:07a7d-g4" kvg:element="&#20843;" kvg:position="bottom" kvg:variant="true">
			<path d="M40.76,27c0.04,0.41,0.18,1.1-0.09,1.65c-2.47,5.06-7.64,10.9-15.69,15.77" id="kvg:07a7d-s4" kvg:type="&#12754;" />
			<path d="M62.59,24.37c0.38,0.47,0.71,1.03,0.71,1.77c0,1.95-0.27,5.34-0.27,7.57c0,5.19,5.51,4.6,10.02,4.6c4.75,0,8.82-0.67,9.49-1.05" id="kvg:07a7d-s5" kvg:type="&#12767;/&#12751;" />
		</g>
	</g>
	<g id="kvg:07a7d-g5" kvg:element="&#20117;" kvg:position="bottom">
		<g id="kvg:07a7d-g6" kvg:element="&#20108;" kvg:part="1">
			<path d="M26.07,55.89c1.18,0.36,3.28,0.23,4.42,0.16c8.89-0.54,40.27-1.76,52.1-1.97c1.92-0.03,3.16-0.08,4.54,0.66" id="kvg:07a7d-s6" kvg:type="&#12752;" />
		</g>
		<g id="kvg:07a7d-g7" kvg:element="&#24318;">
			<g id="kvg:07a7d-g8" kvg:element="&#20108;" kvg:part="2">
				<g id="kvg:07a7d-g9" kvg:element="&#21313;" kvg:part="1">
					<path d="M15.99,72.72c1.81,0.29,5.14,0.4,6.94,0.33c10.66-0.45,48.5-2.46,64.24-2.74c3.01-0.06,4.83,0.16,6.34,0.31" id="kvg:07a7d-s7" kvg:type="&#12752;" />
				</g>
			</g>
			<g id="kvg:07a7d-g10" kvg:element="&#20031;">
				<path d="M40.16,44.67c0.91,0.68,1.51,1.86,1.81,2.54c0.3,0.68-0.2,20.92-0.2,22.45c0,15.13-9.37,25.33-23.27,30.09" id="kvg:07a7d-s8" kvg:type="&#12754;" />
			</g>
			<g id="kvg:07a7d-g11" kvg:element="&#21313;" kvg:part="2">
				<path d="M63.06,44.25c1.01,0.32,1.61,1.46,1.81,2.1c0.2,0.65,0,51.6-0.2,55.65" id="kvg:07a7d-s9" kvg:type="&#12753;" />
			</g>
		</g>
	</g>
</g>
</g>
<g id="kvg:StrokeNumbers_07a7d" style="font-size:8;fill:#808080">
	<text transform="matrix(1 0 0 1 43.85 8.50)">1</text>
	<text transform="matrix(1 0 0 1 13.50 22.50)">2</text>
	<text transform="matrix(1 0 0 1 23.71 20.50)">3</text>
	<text transform="matrix(1 0 0 1 30.50 33.50)">4</text>
	<text transform="matrix(1 0 0 1 54.50 31.50)">5</text>
	<text transform="matrix(1 0 0 1 17.50 55.50)">6</text>
	<text transform="matrix(1 0 0 1 8.50 72.50)">7</text>
	<text transform="matrix(1 0 0 1 32.50 48.50)">8</text>
	<text transform="matrix(1 0 0 1 54.50 45.50)">9</text>
</g>
</svg>