<svg xmlns="http://www.w3.org/2000/svg" xmlns:kvg="http://kanjivg.tagaini.net" height="109" meaning="empty, sky, void, vacant, vacuum" viewBox="0 0 109 109" width="109">
<g id="kvg:StrokePaths_07a7a" style="fill:none;stroke:#000000;stroke-width:3;stroke-linecap:round;stroke-linejoin:round;">
<g id="kvg:07a7a" kvg:element="&#31354;">
	<g id="kvg:07a7a-g1" kvg:element="&#31348;" kvg:position="top" kvg:radical="general" kvg:variant="true">
		<g id="kvg:07a7a-g2" kvg:element="&#23424;">
			<path d="M52.29,12c0.96,0.75,1.7,2,1.7,3.64c0,3.36-0.08,7.61-0.08,10.67" id="kvg:07a7a-s1" kvg:type="&#12753;a" />
			<g id="kvg:07a7a-g3" kvg:element="&#20886;">
				<path d="M27.07,27.75c0,3.34-1.57,8.5-4.63,15.25" id="kvg:07a7a-s2" kvg:type="&#12756;" />
				<path d="M27.65,30c18.85-2.75,40.6-5.12,52.95-5.75c9.9-0.5,4.15,5-0.6,8.75" id="kvg:07a7a-s3" kvg:type="&#12758;b" />
			</g>
		</g>
		<g id="kvg:07a7a-g4" kvg:element="&#20843;" kvg:variant="true">
			<path d="M41.51,39c0.24,1.5-0.01,2.38-0.67,3.76C38.17,48.4,33.38,55.88,25,61.25" id="kvg:07a7a-s4" kvg:type="&#12754;" />
			<path d="M59.76,32.97c0.94,1.02,1.43,2.47,1.49,4.03c0.12,3.47,0.06,6.75,0.06,9.48c0,5.77,1.69,7.33,11.45,7.33c5.5,0,10.54-1.04,12.25-1.56" id="kvg:07a7a-s5" kvg:type="&#12767;a/&#12751;" />
		</g>
	</g>
	<g id="kvg:07a7a-g5" kvg:element="&#24037;" kvg:phon="&#24037;" kvg:position="bottom">
		<path d="M32.29,68.97c2.46,1.03,5.63,0.46,7.97,0.22c7.7-0.76,18.13-2.01,27.36-2.76c2.53-0.21,5.16-0.53,7.62,0.32" id="kvg:07a7a-s6" kvg:type="&#12752;" />
		<path d="M53.08,70.45c0.67,0.8,0.96,2.05,0.96,3.5c0,5.56-0.1,14.66-0.1,16.3" id="kvg:07a7a-s7" kvg:type="&#12753;a" />
		<path d="M19.5,92.55c3.17,1.27,6.19,1,9.52,0.7c13.57-1.2,37.71-3.53,54.11-4.35c3.19-0.16,6.33-0.28,9.37,0.9" id="kvg:07a7a-s8" kvg:type="&#12752;" />
	</g>
</g>
</g>
<g id="kvg:StrokeNumbers_07a7a" style="font-size:8;fill:#808080">
	<text transform="matrix(1 0 0 1 43.50 10.93)">1</text>
	<text transform="matrix(1 0 0 1 20.75 28.13)">2</text>
	<text transform="matrix(1 0 0 1 31.25 25.63)">3</text>
	<text transform="matrix(1 0 0 1 33.50 39.13)">4</text>
	<text transform="matrix(1 0 0 1 50.50 37.93)">5</text>
	<text transform="matrix(1 0 0 1 25.00 71.50)">6</text>
	<text transform="matrix(1 0 0 1 45.50 78.50)">7</text>
	<text transform="matrix(1 0 0 1 11.25 93.50)">8</text>
</g>
</svg>