<svg xmlns="http://www.w3.org/2000/svg" xmlns:kvg="http://kanjivg.tagaini.net" height="109" kun="&#12383;.&#12388;, -&#12383;.&#12388;, &#12383;.&#12385;-, &#12383;.&#12390;&#12427;, -&#12383;.&#12390;&#12427;, &#12383;.&#12390;-, &#12383;&#12390;-, -&#12383;.&#12390;, -&#12384;.&#12390;, -&#12384;.&#12390;&#12427;" meaning="stand up, rise, set up, erect" on="&#12522;&#12484;, &#12522;&#12517;&#12454;, &#12522;&#12483;&#12488;&#12523;" viewBox="0 0 109 109" width="109">
<g id="kvg:StrokePaths_07acb" style="fill:none;stroke:#000000;stroke-width:3;stroke-linecap:round;stroke-linejoin:round;">
<g id="kvg:07acb" kvg:element="&#31435;" kvg:radical="general">
	<g id="kvg:07acb-g1" kvg:element="&#20128;" kvg:position="top">
		<path d="M51.51,15c1.43,1.43,2.24,3.25,2.24,5.81c0,4.06,0,9.56,0,13.69" id="kvg:07acb-s1" kvg:type="&#12753;a" />
		<path d="M22,37.86c2.62,0.51,4.75,0.34,7,0.16c11.38-0.9,36.13-3.4,50.65-4.26c2.38-0.14,4.86-0.01,6.86,0.4" id="kvg:07acb-s2" kvg:type="&#12752;" />
	</g>
	<g id="kvg:07acb-g2" kvg:position="bottom">
		<path d="M32,49c4.75,9.75,8.25,22.5,9.5,31.5" id="kvg:07acb-s3" kvg:type="&#12756;" />
		<path d="M74,39c0.75,1.38,0.81,3.29,0.5,4.5c-2.88,11.12-8.5,30.38-12.75,42" id="kvg:07acb-s4" kvg:type="&#12754;" />
		<path d="M15.25,88.8c2.33,0.45,5.89,0.53,7.82,0.39c18.3-1.32,40.31-1.94,64.83-2.75c3.24-0.11,6.14,0.05,8.47,0.88" id="kvg:07acb-s5" kvg:type="&#12752;" />
	</g>
</g>
</g>
<g id="kvg:StrokeNumbers_07acb" style="font-size:8;fill:#808080">
	<text transform="matrix(1 0 0 1 42.75 15.50)">1</text>
	<text transform="matrix(1 0 0 1 13.50 38.50)">2</text>
	<text transform="matrix(1 0 0 1 24.25 49.50)">3</text>
	<text transform="matrix(1 0 0 1 64.75 44.63)">4</text>
	<text transform="matrix(1 0 0 1 7.50 91.50)">5</text>
</g>
</svg>