<svg xmlns="http://www.w3.org/2000/svg" xmlns:kvg="http://kanjivg.tagaini.net" height="109" meaning="stop, halt" viewBox="0 0 109 109" width="109">
<g id="kvg:StrokePaths_07ad9" style="fill:none;stroke:#000000;stroke-width:3;stroke-linecap:round;stroke-linejoin:round;">
<g id="kvg:07ad9" kvg:element="&#31449;">
	<g id="kvg:07ad9-g1" kvg:element="&#31435;" kvg:position="left" kvg:radical="general">
		<g id="kvg:07ad9-g2" kvg:element="&#20128;" kvg:position="top">
			<path d="M27.81,14c1.09,1,1.66,2.33,1.66,3.37c0,2.36,0,9.77,0,16.17" id="kvg:07ad9-s1" kvg:type="&#12753;a" />
			<path d="M11,34.91c1.16,0.3,2.53,0.35,3.68,0.3c6.57-0.26,20.57-1.97,29.49-2.58c1.93-0.13,3.1,0.14,4.07,0.3" id="kvg:07ad9-s2" kvg:type="&#12752;" />
		</g>
		<g id="kvg:07ad9-g3" kvg:position="bottom">
			<path d="M17.25,45.25c5.18,10.25,7.53,20.74,8,27.5" id="kvg:07ad9-s3" kvg:type="&#12756;" />
			<path d="M40.18,39.98c0.88,1.26,0.5,3.9,0.31,4.9c-1.94,10.36-6.01,26.99-7.74,32.37" id="kvg:07ad9-s4" kvg:type="&#12754;" />
			<path d="M12,87.32c0.97,1.2,3.14,1.17,4.1,0.7c10.59-5.19,19.25-9.99,28.65-14.27" id="kvg:07ad9-s5" kvg:type="&#12736;/&#12752;" />
		</g>
	</g>
	<g id="kvg:07ad9-g4" kvg:element="&#21344;" kvg:position="right">
		<g id="kvg:07ad9-g5" kvg:element="&#21340;" kvg:original="&#12488;" kvg:position="top" kvg:variant="true">
			<path d="M69.81,13.63c0.76,0.43,2.36,3.26,2.51,4.13c0.15,0.87-0.25,34.62-0.25,47.37" id="kvg:07ad9-s6" kvg:type="&#12753;a" />
			<path d="M74.82,42.68c8.41-1.07,16.72-2.82,17.9-2.88s3.28-0.17,4.23-0.02" id="kvg:07ad9-s7" kvg:type="&#12752;b" />
		</g>
		<g id="kvg:07ad9-g6" kvg:element="&#21475;" kvg:position="bottom">
			<path d="M52.66,65.55c0.49,0.53,0.98,0.97,1.19,1.63c1.68,5.22,3.2,20.11,4.35,29.48" id="kvg:07ad9-s8" kvg:type="&#12753;" />
			<path d="M54.21,67.62c11.68-2,32.99-3.13,38.53-3.89c2.02-0.28,3.24,2.8,2.95,4.43c-1.2,6.77-2.7,14.26-4.35,22.84" id="kvg:07ad9-s9" kvg:type="&#12757;b" />
			<path d="M59.38,94.68c7.68-0.44,24.25-1.53,34.35-1.98" id="kvg:07ad9-s10" kvg:type="&#12752;b" />
		</g>
	</g>
</g>
</g>
<g id="kvg:StrokeNumbers_07ad9" style="font-size:8;fill:#808080">
	<text transform="matrix(1 0 0 1 18.50 14.50)">1</text>
	<text transform="matrix(1 0 0 1 2.66 34.50)">2</text>
	<text transform="matrix(1 0 0 1 9.50 48.50)">3</text>
	<text transform="matrix(1 0 0 1 30.50 45.50)">4</text>
	<text transform="matrix(1 0 0 1 4.50 82.50)">5</text>
	<text transform="matrix(1 0 0 1 59.44 14.76)">6</text>
	<text transform="matrix(1 0 0 1 82.44 37.50)">7</text>
	<text transform="matrix(1 0 0 1 47.50 81.50)">8</text>
	<text transform="matrix(1 0 0 1 57.50 62.50)">9</text>
	<text transform="matrix(1 0 0 1 61.50 90.50)">10</text>
</g>
</svg>