<svg xmlns="http://www.w3.org/2000/svg" xmlns:kvg="http://kanjivg.tagaini.net" height="109" meaning="quiver, arrow holder, (kokuji)" viewBox="0 0 109 109" width="109">
<g id="kvg:StrokePaths_07b02" style="fill:none;stroke:#000000;stroke-width:3;stroke-linecap:round;stroke-linejoin:round;">
<g id="kvg:07b02" kvg:element="&#31490;">
	<g id="kvg:07b02-g1" kvg:element="&#31481;" kvg:position="top" kvg:radical="general" kvg:variant="true">
		<g id="kvg:07b02-g2" kvg:position="left">
			<path d="M28,10.25c0.04,0.58,0.08,1.51-0.08,2.34C26.98,17.53,21.61,28.36,14.25,35" id="kvg:07b02-s1" kvg:type="&#12754;" />
			<path d="M26.98,21c4.22,0,17.78-1.95,22.52-1.95" id="kvg:07b02-s2" kvg:type="&#12752;b" />
			<path d="M32.5,22.75c2.4,1.94,6.21,7.96,6.81,10.97" id="kvg:07b02-s3" kvg:type="&#12756;/&#12753;" />
		</g>
		<g id="kvg:07b02-g3" kvg:position="right">
			<path d="M60.24,9.5c0.03,0.46,0.13,1.2-0.06,1.84C58.71,16.17,54.64,23.07,49.25,29" id="kvg:07b02-s4" kvg:type="&#12754;" />
			<path d="M60.5,18.45c5.29,0,24.69-1.94,30.63-1.94" id="kvg:07b02-s5" kvg:type="&#12752;b" />
			<path d="M74.96,22.15c0.03,0.28,0.06,0.72-0.05,1.12c-0.65,2.36-4.34,7.56-9.41,10.73" id="kvg:07b02-s6" kvg:type="&#12754;/&#12762;" />
		</g>
	</g>
	<g id="kvg:07b02-g4" kvg:element="&#20024;" kvg:position="bottom">
		<g id="kvg:07b02-g5" kvg:element="&#20061;">
			<path d="M48.05,34.88c0.76,0.54,1.86,1.71,1.82,2.69C48.75,65.75,39.75,86.75,18,97.5" id="kvg:07b02-s7" kvg:type="&#12754;" />
			<g id="kvg:07b02-g6" kvg:element="&#20057;">
				<path d="M22.25,50.75c2,0.25,3.5,0.25,5.5,0c5.3-0.66,42.23-6.7,43.09-6.75c1.93-0.11,3.86,0.88,3.28,3.46c-0.87,3.8-3.26,22.28-3.5,31.74C70.25,94,74.25,97.5,85.11,97.24c9.13-0.22,10.13-2.99,10.13-11.82" id="kvg:07b02-s8" kvg:type="&#12744;" />
			</g>
		</g>
		<g id="kvg:07b02-g7" kvg:element="&#20022;">
			<path d="M33,62c8.31,3.13,21.48,12.86,23.56,17.72" id="kvg:07b02-s9" kvg:type="&#12756;" />
		</g>
	</g>
</g>
</g>
<g id="kvg:StrokeNumbers_07b02" style="font-size:8;fill:#808080">
	<text transform="matrix(1 0 0 1 19.50 9.50)">1</text>
	<text transform="matrix(1 0 0 1 32.50 17.50)">2</text>
	<text transform="matrix(1 0 0 1 27.50 30.48)">3</text>
	<text transform="matrix(1 0 0 1 51.50 8.50)">4</text>
	<text transform="matrix(1 0 0 1 66.50 15.33)">5</text>
	<text transform="matrix(1 0 0 1 64.25 28.25)">6</text>
	<text transform="matrix(1 0 0 1 40.50 41.50)">7</text>
	<text transform="matrix(1 0 0 1 14.50 51.50)">8</text>
	<text transform="matrix(1 0 0 1 25.50 62.50)">9</text>
</g>
</svg>