<svg xmlns="http://www.w3.org/2000/svg" xmlns:kvg="http://kanjivg.tagaini.net" height="109" meaning="fish trap, weir" viewBox="0 0 109 109" width="109">
<g id="kvg:StrokePaths_07b4c" style="fill:none;stroke:#000000;stroke-width:3;stroke-linecap:round;stroke-linejoin:round;">
<g id="kvg:07b4c" kvg:element="&#31564;">
	<g id="kvg:07b4c-g1" kvg:element="&#31481;" kvg:position="top" kvg:radical="general" kvg:variant="true">
		<g id="kvg:07b4c-g2" kvg:position="left">
			<path d="M29.49,12.25c0.04,0.61,0.09,1.57-0.09,2.44C28.31,19.82,22.06,31.1,13.5,38" id="kvg:07b4c-s1" kvg:type="&#12754;" />
			<path d="M27.48,25.48c3.99,0,19.54-2.93,24.02-2.93" id="kvg:07b4c-s2" kvg:type="&#12752;b" />
			<path d="M32.75,27.25c2.76,2.07,7.12,8.5,7.81,11.72" id="kvg:07b4c-s3" kvg:type="&#12756;/&#12753;" />
		</g>
		<g id="kvg:07b4c-g3" kvg:position="right">
			<path d="M66.49,10c0.03,0.43,0.13,1.12-0.06,1.73C65.03,16.25,61.14,22.7,56,28.25" id="kvg:07b4c-s4" kvg:type="&#12754;" />
			<path d="M64.48,22.58c4.53,0,22.56-3.42,27.65-3.42" id="kvg:07b4c-s5" kvg:type="&#12752;b" />
			<path d="M78.99,24c0.03,0.33,0.06,0.85-0.06,1.32C78.22,28.12,74.12,34.25,68.5,38" id="kvg:07b4c-s6" kvg:type="&#12754;/&#12762;" />
		</g>
	</g>
	<g id="kvg:07b4c-g4" kvg:element="&#20840;" kvg:position="bottom">
		<g id="kvg:07b4c-g5" kvg:element="&#20154;" kvg:original="&#20837;" kvg:position="top" kvg:variant="true">
			<path d="M51.25,32.75c0.11,0.88,0.42,2.32-0.22,3.55C47.04,43.9,33.35,60.06,11.5,70.25" id="kvg:07b4c-s7" kvg:type="&#12754;" />
			<path d="M51.25,37.33c6.71,4.3,29.18,19.02,35.25,22.28c2.06,1.11,4.7,1.58,6.75,1.9" id="kvg:07b4c-s8" kvg:type="&#12751;" />
		</g>
		<g id="kvg:07b4c-g6" kvg:element="&#29579;" kvg:original="&#29577;" kvg:partial="true" kvg:position="bottom">
			<path d="M35.5,61.45c0.8,0.28,3.39,0.6,4.2,0.52c3.74-0.37,20.33-1.89,29.35-2.18c1.23-0.04,2.34,0.05,3.36,0.28" id="kvg:07b4c-s9" kvg:type="&#12752;" />
			<path d="M52.6,62.88c1.18,0.96,1.18,1.54,1.18,2.31c0,5.4,0.59,23.04,0.3,28.44" id="kvg:07b4c-s10" kvg:type="&#12753;a" />
			<path d="M34.5,78.04c0.92,0.64,3.96,0.31,4.91,0.28C50,78,60.59,76.71,72.12,75.58c1.15-0.11,3.68-0.26,5.4,0.3" id="kvg:07b4c-s11" kvg:type="&#12752;" />
			<path d="M20.35,97.08c0.81,0.47,5.02,0.16,6.4,0.01c19.5-2.09,38.91-3.49,59.44-4.66c2.21-0.12,4.86,0.8,5.96,1.55" id="kvg:07b4c-s12" kvg:type="&#12752;" />
		</g>
	</g>
</g>
</g>
<g id="kvg:StrokeNumbers_07b4c" style="font-size:8;fill:#808080">
	<text transform="matrix(1 0 0 1 21.50 12.50)">1</text>
	<text transform="matrix(1 0 0 1 34.50 21.50)">2</text>
	<text transform="matrix(1 0 0 1 27.50 34.50)">3</text>
	<text transform="matrix(1 0 0 1 57.50 9.50)">4</text>
	<text transform="matrix(1 0 0 1 71.25 18.50)">5</text>
	<text transform="matrix(1 0 0 1 67.50 31.50)">6</text>
	<text transform="matrix(1 0 0 1 43.50 34.50)">7</text>
	<text transform="matrix(1 0 0 1 58.50 40.50)">8</text>
	<text transform="matrix(1 0 0 1 42.50 58.50)">9</text>
	<text transform="matrix(1 0 0 1 43.50 70.50)">10</text>
	<text transform="matrix(1 0 0 1 24.25 78.50)">11</text>
	<text transform="matrix(1 0 0 1 9.50 96.50)">12</text>
</g>
</svg>