<svg xmlns="http://www.w3.org/2000/svg" xmlns:kvg="http://kanjivg.tagaini.net" height="109" meaning="bamboo shoot" viewBox="0 0 109 109" width="109">
<g id="kvg:StrokePaths_07b4d" style="fill:none;stroke:#000000;stroke-width:3;stroke-linecap:round;stroke-linejoin:round;">
<g id="kvg:07b4d" kvg:element="&#31565;">
	<g id="kvg:07b4d-g1" kvg:element="&#31481;" kvg:position="top" kvg:radical="general" kvg:variant="true">
		<g id="kvg:07b4d-g2" kvg:position="left">
			<path d="M30.5,9.5c0.04,0.56,0.09,1.44-0.09,2.25c-1.07,4.74-7.23,15.14-15.66,21.5" id="kvg:07b4d-s1" kvg:type="&#12754;" />
			<path d="M29.23,22.18c3.18,0,18.95-2.07,22.52-2.07" id="kvg:07b4d-s2" kvg:type="&#12752;b" />
			<path d="M36.02,24.08c2.47,1.44,6.37,5.92,6.98,8.17" id="kvg:07b4d-s3" kvg:type="&#12756;/&#12753;" />
		</g>
		<g id="kvg:07b4d-g3" kvg:position="right">
			<path d="M67,9.25c0.04,0.46,0.16,1.2-0.08,1.84c-1.77,4.83-6.68,11.72-13.17,17.66" id="kvg:07b4d-s4" kvg:type="&#12754;" />
			<path d="M65.73,21.02c4.2,0,22.43-3.56,27.15-3.56" id="kvg:07b4d-s5" kvg:type="&#12752;b" />
			<path d="M77.25,22.75c0.03,0.25,0.07,0.65-0.06,1.02c-0.77,2.14-5.17,6.85-11.19,9.73" id="kvg:07b4d-s6" kvg:type="&#12754;/&#12762;" />
		</g>
	</g>
	<g id="kvg:07b4d-g4" kvg:element="&#26092;" kvg:position="bottom">
		<g id="kvg:07b4d-g5" kvg:element="&#21241;">
			<g id="kvg:07b4d-g6" kvg:element="&#20031;">
				<path d="M39.25,35.5c0.07,0.59,0.14,1.51-0.13,2.36C37.49,42.82,28.71,54.22,16,60.89" id="kvg:07b4d-s7" kvg:type="&#12754;" />
			</g>
			<path d="M37.25,43.41c1.23,0.63,2.96,0.84,4.93,0.42c1.97-0.42,39.21-4.31,44.14-4.52c4.93-0.21,5.92,2.09,5.18,6.49c-0.74,4.39-3,36.21-9.09,50.71c-1.88,4.47-5.72-1.13-8.63-3.75" id="kvg:07b4d-s8" kvg:type="&#12742;" />
		</g>
		<g id="kvg:07b4d-g7" kvg:element="&#26085;">
			<path d="M37.11,54.63c0.78,0.76,1.56,1.13,1.56,2.14c0,1.01-0.26,30.15,0,31.15" id="kvg:07b4d-s9" kvg:type="&#12753;" />
			<path d="M39.62,56.4c1.92-0.13,19.82-1.61,21.57-1.76c1.46-0.13,2.4,1.42,2.28,2.17c-0.23,1.54-0.45,28.57-0.45,29.33" id="kvg:07b4d-s10" kvg:type="&#12757;a" />
			<path d="M38.74,70.29c2.28,0,21.8-1.47,24.38-1.47" id="kvg:07b4d-s11" kvg:type="&#12752;a" />
			<path d="M38.86,84.37c5.37-0.6,17.56-1.13,24.25-1.64" id="kvg:07b4d-s12" kvg:type="&#12752;a" />
		</g>
	</g>
</g>
</g>
<g id="kvg:StrokeNumbers_07b4d" style="font-size:8;fill:#808080">
	<text transform="matrix(1 0 0 1 23.50 10.50)">1</text>
	<text transform="matrix(1 0 0 1 36.50 17.50)">2</text>
	<text transform="matrix(1 0 0 1 30.50 31.50)">3</text>
	<text transform="matrix(1 0 0 1 58.50 9.50)">4</text>
	<text transform="matrix(1 0 0 1 71.50 16.50)">5</text>
	<text transform="matrix(1 0 0 1 65.50 29.50)">6</text>
	<text transform="matrix(1 0 0 1 30.50 40.50)">7</text>
	<text transform="matrix(1 0 0 1 46.50 39.50)">8</text>
	<text transform="matrix(1 0 0 1 30.50 62.50)">9</text>
	<text transform="matrix(1 0 0 1 40.50 53.50)">10</text>
	<text transform="matrix(1 0 0 1 42.50 66.38)">11</text>
	<text transform="matrix(1 0 0 1 42.50 80.50)">12</text>
</g>
</svg>