<svg xmlns="http://www.w3.org/2000/svg" xmlns:kvg="http://kanjivg.tagaini.net" height="109" meaning="insert, fit into, attach (a clog thong)" viewBox="0 0 109 109" width="109">
<g id="kvg:StrokePaths_07b9d" style="fill:none;stroke:#000000;stroke-width:3;stroke-linecap:round;stroke-linejoin:round;">
<g id="kvg:07b9d" kvg:element="&#31645;">
	<g id="kvg:07b9d-g1" kvg:element="&#31481;" kvg:position="top" kvg:radical="general" kvg:variant="true">
		<g id="kvg:07b9d-g2" kvg:position="left">
			<path d="M30,10.25c0.04,0.58,0.09,1.49-0.09,2.32c-1.06,4.89-7.12,15.61-15.42,22.18" id="kvg:07b9d-s1" kvg:type="&#12754;" />
			<path d="M28.48,21.69c3.85,0,16.2-1.85,20.52-1.85" id="kvg:07b9d-s2" kvg:type="&#12752;b" />
			<path d="M33.25,22.5c2.49,1.63,6.44,6.69,7.06,9.22" id="kvg:07b9d-s3" kvg:type="&#12756;/&#12753;" />
		</g>
		<g id="kvg:07b9d-g3" kvg:position="right">
			<path d="M64.48,9.5c0.03,0.43,0.14,1.12-0.07,1.73c-1.6,4.52-6.04,10.97-11.91,16.52" id="kvg:07b9d-s4" kvg:type="&#12754;" />
			<path d="M62.75,18.73c5.08,0,23.68-2.88,29.38-2.88" id="kvg:07b9d-s5" kvg:type="&#12752;b" />
			<path d="M77.49,19.5c0.03,0.28,0.06,0.71-0.05,1.11c-0.65,2.34-4.36,7.49-9.44,10.64" id="kvg:07b9d-s6" kvg:type="&#12754;/&#12762;" />
		</g>
	</g>
	<g id="kvg:07b9d-g4" kvg:element="&#25297;" kvg:position="bottom">
		<g id="kvg:07b9d-g5" kvg:element="&#25164;" kvg:original="&#25163;" kvg:position="left" kvg:variant="true">
			<path d="M18.06,53.86c2.11,0.23,1.28,0.5,3.54,0.23c5.56-0.68,13.14-1.82,22.41-2.88" id="kvg:07b9d-s7" kvg:type="&#12752;" />
			<path d="M33.6,36.25c0.47,0.71,1.62,1.93,1.7,4.28c0.39,11.28,0.24,49.95,0.24,53.8c0,11.05-6.12,2.74-7.51,1.55" id="kvg:07b9d-s8" kvg:type="&#12762;" />
			<path d="M13.87,77.83c2.45,1.5,4.03,0.81,6.48-0.47c1.44-0.76,20.28-11.84,26.41-15.48" id="kvg:07b9d-s9" kvg:type="&#12736;" />
		</g>
		<g id="kvg:07b9d-g6" kvg:element="&#29976;" kvg:position="right">
			<g id="kvg:07b9d-g7" kvg:element="&#24319;" kvg:part="1">
				<g id="kvg:07b9d-g8" kvg:element="&#21313;">
					<path d="M49,50.01c1.31,0.35,3.7,0.43,5.01,0.35c9.62-0.64,24.42-2.58,40.19-3.42c2.17-0.12,3.48,0.17,4.57,0.34" id="kvg:07b9d-s10" kvg:type="&#12752;" />
					<path d="M59.48,36.03c0.78,0.38,1.25,1.73,1.4,2.5c0.16,0.77,0,56.15-0.16,60.96" id="kvg:07b9d-s11" kvg:type="&#12753;" />
				</g>
				<path d="M82.79,32.41c1.04,0.4,1.66,1.81,1.87,2.62c0.21,0.81,0,58.71-0.21,63.75" id="kvg:07b9d-s12" kvg:type="&#12753;" />
			</g>
			<path d="M62.38,70.28c5.23-0.3,19.31-1.71,22.12-1.71" id="kvg:07b9d-s13" kvg:type="&#12752;" />
			<g id="kvg:07b9d-g9" kvg:element="&#24319;" kvg:part="2">
				<path d="M62.13,95.84c6.19-0.12,16.52-0.85,22.23-0.97" id="kvg:07b9d-s14" kvg:type="&#12752;" />
			</g>
		</g>
	</g>
</g>
</g>
<g id="kvg:StrokeNumbers_07b9d" style="font-size:8;fill:#808080">
	<text transform="matrix(1 0 0 1 22.50 11.85)">1</text>
	<text transform="matrix(1 0 0 1 33.57 18.18)">2</text>
	<text transform="matrix(1 0 0 1 28.50 30.85)">3</text>
	<text transform="matrix(1 0 0 1 54.50 9.50)">4</text>
	<text transform="matrix(1 0 0 1 67.14 15.18)">5</text>
	<text transform="matrix(1 0 0 1 79.47 25.47)">6</text>
	<text transform="matrix(1 0 0 1 10.29 56.02)">7</text>
	<text transform="matrix(1 0 0 1 25.29 41.20)">8</text>
	<text transform="matrix(1 0 0 1 5.75 79.53)">9</text>
	<text transform="matrix(1 0 0 1 43.50 46.50)">10</text>
	<text transform="matrix(1 0 0 1 48.71 38.16)">11</text>
	<text transform="matrix(1 0 0 1 72.50 38.50)">12</text>
	<text transform="matrix(1 0 0 1 62.91 67.29)">13</text>
	<text transform="matrix(1 0 0 1 62.91 93.29)">14</text>
</g>
</svg>