<svg xmlns="http://www.w3.org/2000/svg" xmlns:kvg="http://kanjivg.tagaini.net" height="109" kun="&#12399;&#12371;" meaning="bamboo rice basket" on="&#12479;&#12531;" viewBox="0 0 109 109" width="109">
<g id="kvg:StrokePaths_07baa" style="fill:none;stroke:#000000;stroke-width:3;stroke-linecap:round;stroke-linejoin:round;">
<g id="kvg:07baa" kvg:element="&#31658;">
	<g id="kvg:07baa-g1" kvg:element="&#31481;" kvg:position="top" kvg:radical="general" kvg:variant="true">
		<g id="kvg:07baa-g2" kvg:position="left">
			<path d="M32.5,9.75c0.04,0.45,0.08,1.17-0.08,1.82C31.46,15.41,25.99,23.84,18.5,29" id="kvg:07baa-s1" kvg:type="&#12754;" />
			<path d="M29.73,19.79c3.71,0,17.61-3.29,21.77-3.29" id="kvg:07baa-s2" kvg:type="&#12752;b" />
			<path d="M34.77,21.58c1.87,1.3,4.83,5.36,5.29,7.38" id="kvg:07baa-s3" kvg:type="&#12756;/&#12753;" />
		</g>
		<g id="kvg:07baa-g3" kvg:position="right">
			<path d="M61.25,9c0.02,0.36,0.1,0.94-0.05,1.44c-1.07,3.78-4.03,9.17-7.96,13.81" id="kvg:07baa-s4" kvg:type="&#12754;" />
			<path d="M61.98,17.16c4.73,0,22.08-3.57,27.4-3.57" id="kvg:07baa-s5" kvg:type="&#12752;b" />
			<path d="M74.27,17.75c0.02,0.22,0.04,0.58-0.04,0.9c-0.45,1.9-3,6.06-6.49,8.6" id="kvg:07baa-s6" kvg:type="&#12754;/&#12762;" />
		</g>
	</g>
	<g id="kvg:07baa-g4" kvg:element="&#21336;" kvg:position="bottom">
		<g id="kvg:07baa-g5" kvg:element="&#11917;" kvg:original="&#12388;" kvg:position="top">
			<path d="M23.99,35.77c3.49,3.1,7.23,8.52,7.73,10.07" id="kvg:07baa-s7" kvg:type="&#12756;" />
			<path d="M45.52,32.9c1.8,1.82,6.11,6.6,6.83,9.56" id="kvg:07baa-s8" kvg:type="&#12756;" />
			<path d="M80.01,29.25c0.46,0.59,0.95,1.93,0.19,2.88c-1.7,2.12-6.2,8.37-10.41,12.02" id="kvg:07baa-s9" kvg:type="&#12754;" />
		</g>
		<g id="kvg:07baa-g6" kvg:element="&#30002;" kvg:part="1" kvg:position="bottom">
			<g id="kvg:07baa-g7" kvg:element="&#30000;" kvg:partial="true">
				<path d="M28.17,51.82c0.34,0.4,1.34,2.18,1.53,2.68c1.52,4.14,2.44,11.9,3.4,19.58" id="kvg:07baa-s10" kvg:type="&#12753;" />
				<path d="M29.73,52.48c12.63-1.39,38.98-3.77,47.68-4.48c3.19-0.26,5.12,0.56,5.03,2.3c-0.22,4.14-3.75,17.68-4.32,19.41" id="kvg:07baa-s11" kvg:type="&#12757;" />
				<path d="M32.88,61.16c3.79-0.33,44.02-3.11,47.15-3.22" id="kvg:07baa-s12" kvg:type="&#12752;" />
				<path d="M33.68,72.31c10.99-1.32,32.5-3.03,44.53-3.84" id="kvg:07baa-s13" kvg:type="&#12752;" />
			</g>
			<g id="kvg:07baa-g8" kvg:element="&#19968;">
				<path d="M17.98,83.57c1.38,0.56,3.92,0.69,5.31,0.56c9.21-0.88,49.38-4.61,66.63-5.37c2.3-0.1,3.69,0.27,4.84,0.54" id="kvg:07baa-s14" kvg:type="&#12752;" />
			</g>
			<g id="kvg:07baa-g9" kvg:element="&#30002;" kvg:part="2">
				<g id="kvg:07baa-g10" kvg:element="&#20008;">
					<path d="M54.47,51.75c0.58,0.3,0.94,1.14,0.95,2.17c0.04,5.2,0.17,45.9,0.19,47.6" id="kvg:07baa-s15" kvg:type="&#12753;" />
				</g>
			</g>
		</g>
	</g>
</g>
</g>
<g id="kvg:StrokeNumbers_07baa" style="font-size:8;fill:#808080">
	<text transform="matrix(1 0 0 1 24.50 8.50)">1</text>
	<text transform="matrix(1 0 0 1 39.25 15.05)">2</text>
	<text transform="matrix(1 0 0 1 29.25 27.48)">3</text>
	<text transform="matrix(1 0 0 1 53.25 7.40)">4</text>
	<text transform="matrix(1 0 0 1 71.25 11.33)">5</text>
	<text transform="matrix(1 0 0 1 64.50 24.50)">6</text>
	<text transform="matrix(1 0 0 1 16.50 39.50)">7</text>
	<text transform="matrix(1 0 0 1 40.25 39.10)">8</text>
	<text transform="matrix(1 0 0 1 70.25 34.03)">9</text>
	<text transform="matrix(1 0 0 1 19.25 59.95)">10</text>
	<text transform="matrix(1 0 0 1 34.50 49.50)">11</text>
	<text transform="matrix(1 0 0 1 35.25 59.50)">12</text>
	<text transform="matrix(1 0 0 1 36.50 69.50)">13</text>
	<text transform="matrix(1 0 0 1 14.50 80.50)">14</text>
	<text transform="matrix(1 0 0 1 59.50 55.50)">15</text>
</g>
</svg>