<svg xmlns="http://www.w3.org/2000/svg" xmlns:kvg="http://kanjivg.tagaini.net" height="109" kun="&#12356;&#12414;&#12375;.&#12417;&#12427;, &#12399;&#12426;" meaning="warning, counsel, presept, needle" on="&#12471;&#12531;" viewBox="0 0 109 109" width="109">
<g id="kvg:StrokePaths_07bb4" style="fill:none;stroke:#000000;stroke-width:3;stroke-linecap:round;stroke-linejoin:round;">
<g id="kvg:07bb4" kvg:element="&#31668;">
	<g id="kvg:07bb4-g1" kvg:element="&#31481;" kvg:position="top" kvg:radical="general" kvg:variant="true">
		<g id="kvg:07bb4-g2" kvg:position="left">
			<path d="M27,9.75c0.03,0.56,0.07,1.44-0.07,2.25c-0.8,4.74-5.4,15.13-11.69,21.5" id="kvg:07bb4-s1" kvg:type="&#12754;" />
			<path d="M26.64,20.59c4.34,0.23,18.48-2.8,23.36-2.54" id="kvg:07bb4-s2" kvg:type="&#12752;b" />
			<path d="M32.77,23.08c3.08,1.97,7.96,8.1,8.73,11.17" id="kvg:07bb4-s3" kvg:type="&#12756;/&#12753;" />
		</g>
		<g id="kvg:07bb4-g3" kvg:position="right">
			<path d="M60.75,10.25c0.03,0.48,0.14,1.26-0.06,1.94c-1.5,5.08-5.67,12.32-11.19,18.56" id="kvg:07bb4-s4" kvg:type="&#12754;" />
			<path d="M61.5,19.19c5.42,0,25.29-3.8,31.38-3.8" id="kvg:07bb4-s5" kvg:type="&#12752;b" />
			<path d="M73.78,20.37c0.02,0.18,0.04,0.46-0.04,0.72c-0.5,1.52-3.34,4.86-7.24,6.9" id="kvg:07bb4-s6" kvg:type="&#12754;/&#12762;" />
		</g>
	</g>
	<g id="kvg:07bb4-g4" kvg:element="&#21688;" kvg:position="bottom">
		<g id="kvg:07bb4-g5" kvg:element="&#25101;" kvg:original="&#25100;" kvg:part="1" kvg:variant="true">
			<g id="kvg:07bb4-g6" kvg:element="&#21378;" kvg:part="1">
				<path d="M28.26,44.44c0.04,1.17-0.04,3.02-0.08,4.7c-0.34,15.73-4.49,38.37-13.37,45.68" id="kvg:07bb4-s7" kvg:type="&#12754;" />
			</g>
			<g id="kvg:07bb4-g7" kvg:element="&#25096;" kvg:part="1">
				<g id="kvg:07bb4-g8" kvg:element="&#24331;" kvg:part="1">
					<g id="kvg:07bb4-g9" kvg:element="&#21378;" kvg:part="2">
						<path d="M25.4,44.05c1.48,0.31,4.22,0.34,5.69,0.31c7.66-0.12,36.15-2.75,51.97-3.03c2.47-0.04,3.96,0.15,5.2,0.31" id="kvg:07bb4-s8" kvg:type="&#12752;" />
					</g>
				</g>
				<g id="kvg:07bb4-g10" kvg:element="&#19968;">
					<path d="M33.9,56.46c1.18,0.34,3.35,0.47,4.53,0.34c4.17-0.46,10.63-1.09,14.45-1.4c1.95-0.16,3.64-0.28,4.63-0.11" id="kvg:07bb4-s9" kvg:type="&#12752;" />
				</g>
			</g>
		</g>
		<g id="kvg:07bb4-g11" kvg:element="&#21475;">
			<path d="M35.2,66.68c0.27,0.4,0.56,0.73,0.68,1.23c0.95,3.94,1.6,12.02,2.26,19.09" id="kvg:07bb4-s10" kvg:type="&#12753;" />
			<path d="M37.08,68.7c8.32-1.44,13.63-2.08,18.4-2.56c1.74-0.18,2.79,1.04,2.54,2.07c-1.03,4.27-1.75,7.79-3.29,13.7" id="kvg:07bb4-s11" kvg:type="&#12757;b" />
			<path d="M37.88,84.64C43.1,84.09,49.83,84,57,83.17" id="kvg:07bb4-s12" kvg:type="&#12752;b" />
		</g>
		<g id="kvg:07bb4-g12" kvg:element="&#25101;" kvg:original="&#25100;" kvg:part="2" kvg:variant="true">
			<g id="kvg:07bb4-g13" kvg:element="&#25096;" kvg:part="2">
				<g id="kvg:07bb4-g14" kvg:element="&#24331;" kvg:part="2">
					<path d="M61,32c1.39,1.44,1.88,1.84,2.26,4.93c2.99,24.32,11.24,47.32,28.28,59.73c5.07,3.69,4.12-0.36,3.42-6.72" id="kvg:07bb4-s13" kvg:type="&#12738;" />
				</g>
				<g id="kvg:07bb4-g15" kvg:element="&#20031;">
					<path d="M85.92,52.25c0.11,1.04,0.22,2.68-0.21,4.16C83.14,65.19,68.91,85.2,48.75,97" id="kvg:07bb4-s14" kvg:type="&#12754;" />
				</g>
				<g id="kvg:07bb4-g16" kvg:element="&#24331;" kvg:part="3">
					<g id="kvg:07bb4-g17" kvg:element="&#20022;">
						<path d="M76.5,27.75c3.34,1.35,8.69,4.44,10.25,6.75" id="kvg:07bb4-s15" kvg:type="&#12756;" />
					</g>
				</g>
			</g>
		</g>
	</g>
</g>
</g>
<g id="kvg:StrokeNumbers_07bb4" style="font-size:8;fill:#808080">
	<text transform="matrix(1 0 0 1 19.50 10.50)">1</text>
	<text transform="matrix(1 0 0 1 34.50 16.50)">2</text>
	<text transform="matrix(1 0 0 1 26.50 29.50)">3</text>
	<text transform="matrix(1 0 0 1 52.50 11.85)">4</text>
	<text transform="matrix(1 0 0 1 69.50 15.85)">5</text>
	<text transform="matrix(1 0 0 1 75.81 25.24)">6</text>
	<text transform="matrix(1 0 0 1 20.25 54.18)">7</text>
	<text transform="matrix(1 0 0 1 28.50 41.50)">8</text>
	<text transform="matrix(1 0 0 1 34.50 53.50)">9</text>
	<text transform="matrix(1 0 0 1 26.14 76.36)">10</text>
	<text transform="matrix(1 0 0 1 36.50 65.50)">11</text>
	<text transform="matrix(1 0 0 1 40.50 81.50)">12</text>
	<text transform="matrix(1 0 0 1 51.50 38.73)">13</text>
	<text transform="matrix(1 0 0 1 73.50 54.50)">14</text>
	<text transform="matrix(1 0 0 1 69.60 35.79)">15</text>
</g>
</svg>