<svg xmlns="http://www.w3.org/2000/svg" xmlns:kvg="http://kanjivg.tagaini.net" height="109" kun="&#12399;&#12371;" meaning="box" on="&#12461;&#12519;&#12454;" viewBox="0 0 109 109" width="109">
<g id="kvg:StrokePaths_07bcb" style="fill:none;stroke:#000000;stroke-width:3;stroke-linecap:round;stroke-linejoin:round;">
<g id="kvg:07bcb" kvg:element="&#31691;">
	<g id="kvg:07bcb-g1" kvg:element="&#31481;" kvg:position="top" kvg:radical="general" kvg:variant="true">
		<g id="kvg:07bcb-g2" kvg:position="left">
			<path d="M28.24,9c0.04,0.6,0.09,1.55-0.09,2.41c-1.04,5.08-7,16.25-15.16,23.09" id="kvg:07bcb-s1" kvg:type="&#12754;" />
			<path d="M26.25,21.7c4.41,0,18.55-2.15,23.5-2.15" id="kvg:07bcb-s2" kvg:type="&#12752;b" />
			<path d="M34.75,23.25c2.74,1.76,7.07,7.26,7.75,10" id="kvg:07bcb-s3" kvg:type="&#12756;/&#12753;" />
		</g>
		<g id="kvg:07bcb-g3" kvg:position="right">
			<path d="M62.48,9c0.03,0.49,0.15,1.29-0.07,1.99c-1.64,5.2-6.16,12.62-12.16,19.01" id="kvg:07bcb-s4" kvg:type="&#12754;" />
			<path d="M60.73,19.64c5.68,0,26.52-3.79,32.9-3.79" id="kvg:07bcb-s5" kvg:type="&#12752;b" />
			<path d="M77.25,21.25c0.03,0.24,0.07,0.61-0.06,0.95c-0.79,2-5.28,6.37-11.43,9.05" id="kvg:07bcb-s6" kvg:type="&#12754;/&#12762;" />
		</g>
	</g>
	<g id="kvg:07bcb-g4" kvg:position="bottom">
		<g id="kvg:07bcb-g5" kvg:element="&#21274;" kvg:part="1" kvg:position="kamae">
			<path d="M20.39,39.24c1.53,0.25,4.33,0.26,5.85,0.19c15.87-0.69,40.96-2.75,58.36-3.01c2.54-0.04,4.07,0.07,5.34,0.19" id="kvg:07bcb-s7" kvg:type="&#12752;" />
		</g>
		<g id="kvg:07bcb-g6" kvg:element="&#22846;">
			<g id="kvg:07bcb-g7" kvg:element="&#22823;" kvg:part="1">
				<path d="M32.5,50.44c1.22,0.32,3.46,0.44,4.69,0.39c7.81-0.34,37.64-2.39,45.19-1.9c2.03,0.13,3.26,0.21,4.28,0.37" id="kvg:07bcb-s8" kvg:type="&#12752;" />
			</g>
			<g id="kvg:07bcb-g8" kvg:element="&#20174;">
				<g id="kvg:07bcb-g9" kvg:element="&#20154;" kvg:position="left">
					<path d="M41.4,56.93c0,0.48,0.06,0.88-0.09,1.43c-1.41,5.18-5.63,11.63-11.82,17.36" id="kvg:07bcb-s9" kvg:type="&#12754;" />
					<path d="M40.79,66.68c2.46,1.21,5.6,4.43,6.79,7.48" id="kvg:07bcb-s10" kvg:type="&#12751;" />
				</g>
				<g id="kvg:07bcb-g10" kvg:element="&#20154;" kvg:position="right">
					<path d="M77.75,54.75c0,0.4,0.07,0.74-0.07,1.2c-1.16,3.91-4.48,10.86-8.43,14.8" id="kvg:07bcb-s11" kvg:type="&#12754;" />
					<path d="M77,64.25c3.31,2.62,5.85,5.91,7.83,9.89" id="kvg:07bcb-s12" kvg:type="&#12751;" />
				</g>
			</g>
			<g id="kvg:07bcb-g11" kvg:element="&#22823;" kvg:part="2">
				<path d="M56.75,41.5c0.38,0.69,1.1,1.48,1,2.96c-1.75,25.54-9,38.29-25,47.04" id="kvg:07bcb-s13" kvg:type="&#12754;" />
				<path d="M55.25,63c5.34,6.85,17.08,19.02,24.31,22.96c2.03,1.1,2.57,1.42,3.44,1.54" id="kvg:07bcb-s14" kvg:type="&#12751;" />
			</g>
		</g>
		<g id="kvg:07bcb-g12" kvg:element="&#21274;" kvg:position="kamae">
			<path d="M24.14,41.7c0,3.09,0,50.7,0,53.6c0,2.2,1,3.28,2.75,3.09C30.45,98,67.25,95,86.49,94.99c3.25,0,6.01,0.19,8.01,0.58" id="kvg:07bcb-s15" kvg:type="&#12759;" />
		</g>
	</g>
</g>
</g>
<g id="kvg:StrokeNumbers_07bcb" style="font-size:8;fill:#808080">
	<text transform="matrix(1 0 0 1 19.50 9.50)">1</text>
	<text transform="matrix(1 0 0 1 34.50 17.50)">2</text>
	<text transform="matrix(1 0 0 1 29.50 30.50)">3</text>
	<text transform="matrix(1 0 0 1 53.50 10.50)">4</text>
	<text transform="matrix(1 0 0 1 68.50 15.85)">5</text>
	<text transform="matrix(1 0 0 1 64.50 27.85)">6</text>
	<text transform="matrix(1 0 0 1 23.25 36.50)">7</text>
	<text transform="matrix(1 0 0 1 32.50 48.10)">8</text>
	<text transform="matrix(1 0 0 1 32.50 61.50)">9</text>
	<text transform="matrix(1 0 0 1 43.50 66.95)">10</text>
	<text transform="matrix(1 0 0 1 68.50 57.50)">11</text>
	<text transform="matrix(1 0 0 1 81.50 64.50)">12</text>
	<text transform="matrix(1 0 0 1 46.50 46.50)">13</text>
	<text transform="matrix(1 0 0 1 60.50 66.50)">14</text>
	<text transform="matrix(1 0 0 1 13.25 48.50)">15</text>
</g>
</svg>