<svg xmlns="http://www.w3.org/2000/svg" xmlns:kvg="http://kanjivg.tagaini.net" height="109" meaning="bamboo grove" viewBox="0 0 109 109" width="109">
<g id="kvg:StrokePaths_07bc1" style="fill:none;stroke:#000000;stroke-width:3;stroke-linecap:round;stroke-linejoin:round;">
<g id="kvg:07bc1" kvg:element="&#31681;">
	<g id="kvg:07bc1-g1" kvg:element="&#31481;" kvg:position="top" kvg:radical="general" kvg:variant="true">
		<g id="kvg:07bc1-g2" kvg:position="left">
			<path d="M31,9.75c0.04,0.55,0.08,1.43-0.08,2.22c-0.97,4.69-6.54,14.98-14.17,21.28" id="kvg:07bc1-s1" kvg:type="&#12754;" />
			<path d="M29.23,21.07c4.32,0,19.67-1.85,24.52-1.85" id="kvg:07bc1-s2" kvg:type="&#12752;b" />
			<path d="M34.25,22.25c2.38,1.81,6.16,7.44,6.75,10.25" id="kvg:07bc1-s3" kvg:type="&#12756;/&#12753;" />
		</g>
		<g id="kvg:07bc1-g3" kvg:position="right">
			<path d="M64.24,9.5c0.03,0.45,0.12,1.17-0.06,1.8c-1.34,4.71-5.04,11.42-9.94,17.2" id="kvg:07bc1-s4" kvg:type="&#12754;" />
			<path d="M64.98,19.74c4.82,0,23.49-2.23,28.9-2.23" id="kvg:07bc1-s5" kvg:type="&#12752;b" />
			<path d="M77.5,22c0.03,0.26,0.06,0.67-0.06,1.04C76.7,25.24,72.5,30.05,66.75,33" id="kvg:07bc1-s6" kvg:type="&#12754;/&#12762;" />
		</g>
	</g>
	<g id="kvg:07bc1-g4" kvg:element="&#30343;" kvg:position="bottom">
		<g id="kvg:07bc1-g5" kvg:element="&#30333;" kvg:position="top">
			<g id="kvg:07bc1-g6" kvg:position="top">
				<path d="M50.07,30.75c0.28,0.35,0.32,0.77,0.25,1.07c-0.39,1.78-3.76,6.04-6.83,8.43" id="kvg:07bc1-s7" kvg:type="&#12754;" />
			</g>
			<g id="kvg:07bc1-g7" kvg:element="&#26085;" kvg:position="bottom">
				<path d="M32.93,40.48c0.45,0.59,0.8,1.68,0.9,2.45c0.53,4.3,1.96,16.97,2.14,20.85" id="kvg:07bc1-s8" kvg:type="&#12753;" />
				<path d="M34.72,42.1c10.72-1.06,35.47-2.4,39.42-2.78c1.9-0.18,3.13,1.56,2.72,3.18c-0.93,3.6-1.96,12.85-3.81,19.74" id="kvg:07bc1-s9" kvg:type="&#12757;a" />
				<path d="M35.31,52.48c9.5-1.11,31.47-2.3,37.96-2.3" id="kvg:07bc1-s10" kvg:type="&#12752;a" />
				<path d="M37.57,61.97c11.05-0.38,25.82-1.99,34.94-1.98" id="kvg:07bc1-s11" kvg:type="&#12752;a" />
			</g>
		</g>
		<g id="kvg:07bc1-g8" kvg:element="&#29579;" kvg:original="&#29577;" kvg:partial="true" kvg:position="bottom">
			<path d="M29.06,71.91c1.05,0.46,4.48,0.16,5.55,0.03c4.95-0.62,30.28-1.9,42.2-2.38c1.62-0.06,3.1,0.09,4.44,0.48" id="kvg:07bc1-s12" kvg:type="&#12752;" />
			<path d="M53.56,72.39c0.84,1.66,0.84,2.65,0.84,3.98c0,9.29-0.05,6.43-0.05,17.99" id="kvg:07bc1-s13" kvg:type="&#12753;a" />
			<path d="M30.75,83.6c0.94,0.58,4.03,0.35,4.99,0.25c9.98-1.01,24.63-1.99,36.36-3.02c1.17-0.1,3.74-0.23,5.49,0.27" id="kvg:07bc1-s14" kvg:type="&#12752;" />
			<path d="M17.48,95.67c0.86,0.43,5.38,0.98,6.86,0.89c17.74-1.01,40.44-2.76,62.55-3.26c3.71-0.09,5.35,0.45,6.92,1.2" id="kvg:07bc1-s15" kvg:type="&#12752;" />
		</g>
	</g>
</g>
</g>
<g id="kvg:StrokeNumbers_07bc1" style="font-size:8;fill:#808080">
	<text transform="matrix(1 0 0 1 23.50 10.50)">1</text>
	<text transform="matrix(1 0 0 1 36.50 17.50)">2</text>
	<text transform="matrix(1 0 0 1 29.50 29.50)">3</text>
	<text transform="matrix(1 0 0 1 55.50 10.50)">4</text>
	<text transform="matrix(1 0 0 1 69.50 15.85)">5</text>
	<text transform="matrix(1 0 0 1 64.50 28.50)">6</text>
	<text transform="matrix(1 0 0 1 44.50 28.50)">7</text>
	<text transform="matrix(1 0 0 1 24.50 44.50)">8</text>
	<text transform="matrix(1 0 0 1 34.50 38.50)">9</text>
	<text transform="matrix(1 0 0 1 38.50 49.50)">10</text>
	<text transform="matrix(1 0 0 1 40.50 59.50)">11</text>
	<text transform="matrix(1 0 0 1 18.50 71.50)">12</text>
	<text transform="matrix(1 0 0 1 44.50 79.50)">13</text>
	<text transform="matrix(1 0 0 1 20.25 84.50)">14</text>
	<text transform="matrix(1 0 0 1 7.50 96.50)">15</text>
</g>
</svg>