<svg xmlns="http://www.w3.org/2000/svg" xmlns:kvg="http://kanjivg.tagaini.net" height="109" meaning="rob" viewBox="0 0 109 109" width="109">
<g id="kvg:StrokePaths_07c12" style="fill:none;stroke:#000000;stroke-width:3;stroke-linecap:round;stroke-linejoin:round;">
<g id="kvg:07c12" kvg:element="&#31762;">
	<g id="kvg:07c12-g1" kvg:element="&#31639;" kvg:position="top" kvg:variant="true">
		<g id="kvg:07c12-g2" kvg:element="&#31481;" kvg:position="top" kvg:radical="general" kvg:variant="true">
			<g id="kvg:07c12-g3" kvg:position="left">
				<path d="M28,10.56c0.03,0.49,0.07,1.26-0.07,1.96c-0.85,4.13-5.74,13.19-12.43,18.74" id="kvg:07c12-s1" kvg:type="&#12754;" />
				<path d="M27.23,20.1c4.32,0,18.17-3.57,23.02-3.57" id="kvg:07c12-s2" kvg:type="&#12752;b" />
				<path d="M34.27,20.79c2.04,1.55,5.28,6.38,5.79,8.8" id="kvg:07c12-s3" kvg:type="&#12756;/&#12753;" />
			</g>
			<g id="kvg:07c12-g4" kvg:position="right">
				<path d="M60.75,10c0.03,0.4,0.11,1.04-0.05,1.59c-1.24,4.18-4.66,10.14-9.19,15.27" id="kvg:07c12-s4" kvg:type="&#12754;" />
				<path d="M59.48,18.61c4.73,0,24.58-2.83,29.9-2.83" id="kvg:07c12-s5" kvg:type="&#12752;b" />
				<path d="M71.78,19.73c0.01,0.22,0.03,0.57-0.03,0.88c-0.36,1.86-2.42,5.94-5.25,8.44" id="kvg:07c12-s6" kvg:type="&#12754;/&#12762;" />
			</g>
		</g>
		<g id="kvg:07c12-g5" kvg:position="bottom">
			<g id="kvg:07c12-g6" kvg:element="&#30446;">
				<path d="M31.71,32.86c0.29,0.53,0.54,1.21,0.93,2.08c0.27,0.59,2.65,19.61,2.65,19.92" id="kvg:07c12-s7" kvg:type="&#12753;" />
				<path d="M34.11,34.17c3.29-0.17,33.38-2.46,36.37-2.64c2.5-0.15,3.51,1.23,3.26,3.74c-0.29,2.91-1,10.05-2.47,18.25" id="kvg:07c12-s8" kvg:type="&#12757;a" />
				<path d="M34.57,40.25c6.49-0.29,32.89-2.36,38.17-2.51" id="kvg:07c12-s9" kvg:type="&#12752;a" />
				<path d="M35,46.42c8.72-0.51,28.9-2,37.37-2.24" id="kvg:07c12-s10" kvg:type="&#12752;a" />
				<path d="M34.91,53.15c6.54-0.19,28.25-1.62,36.72-1.86" id="kvg:07c12-s11" kvg:type="&#12752;a" />
			</g>
			<g id="kvg:07c12-g7" kvg:element="&#24318;" kvg:variant="true">
				<g id="kvg:07c12-g8" kvg:element="&#22823;">
					<g id="kvg:07c12-g9" kvg:element="&#21313;" kvg:part="1" kvg:partial="true">
						<path d="M14.62,62.99c1.29,0.59,4.72,0.67,7.46,0.52c13.66-0.76,45.81-3.13,62.43-3.98c2.86-0.15,5.15-0.08,7.73,0.39" id="kvg:07c12-s12" kvg:type="&#12752;" />
					</g>
					<g id="kvg:07c12-g10" kvg:element="&#20031;">
						<path d="M45,55.3c0.24,1.15-0.25,2.71-0.72,3.43C36.25,71,24.5,80.5,13.25,86.44" id="kvg:07c12-s13" kvg:type="&#12754;" />
					</g>
					<path d="M63.75,60.92c5.87,5.17,19.55,18.34,25.41,21.8c1.99,1.17,2.69,1.35,3.59,1.46" id="kvg:07c12-s14" kvg:type="&#12751;" />
				</g>
			</g>
		</g>
	</g>
	<g id="kvg:07c12-g11" kvg:position="bottom">
		<g id="kvg:07c12-g12" kvg:element="&#20031;">
			<path d="M46.31,70c0.06,0.55,0.21,1.57-0.12,2.2c-3.94,7.55-11.44,14.55-21.69,21.09" id="kvg:07c12-s15" kvg:type="&#12754;" />
		</g>
		<g id="kvg:07c12-g13" kvg:element="&#21430;">
			<path d="M57.04,70.5c0.44,0.48,0.28,2.14-0.06,2.72c-4.98,8.53-9.06,14.77-15.14,20.2c-1.92,1.72-1.9,3.24,0.89,2.72c7.52-1.39,20.27-4.89,30.59-6.92" id="kvg:07c12-s16" kvg:type="&#12764;" />
			<path d="M66.37,80.54c4.47,3.25,11.55,13.37,12.67,18.43" id="kvg:07c12-s17" kvg:type="&#12756;" />
		</g>
	</g>
</g>
</g>
<g id="kvg:StrokeNumbers_07c12" style="font-size:8;fill:#808080">
	<text transform="matrix(1 0 0 1 20.50 11.50)">1</text>
	<text transform="matrix(1 0 0 1 32.50 15.50)">2</text>
	<text transform="matrix(1 0 0 1 30.25 27.50)">3</text>
	<text transform="matrix(1 0 0 1 53.25 9.40)">4</text>
	<text transform="matrix(1 0 0 1 65.50 14.50)">5</text>
	<text transform="matrix(1 0 0 1 62.25 25.25)">6</text>
	<text transform="matrix(1 0 0 1 25.25 40.18)">7</text>
	<text transform="matrix(1 0 0 1 34.50 31.50)">8</text>
	<text transform="matrix(1 0 0 1 37.50 38.50)">9</text>
	<text transform="matrix(1 0 0 1 37.50 44.50)">10</text>
	<text transform="matrix(1 0 0 1 38.50 51.50)">11</text>
	<text transform="matrix(1 0 0 1 4.25 62.50)">12</text>
	<text transform="matrix(1 0 0 1 35.50 59.50)">13</text>
	<text transform="matrix(1 0 0 1 72.50 68.15)">14</text>
	<text transform="matrix(1 0 0 1 36.50 74.50)">15</text>
	<text transform="matrix(1 0 0 1 50.50 67.50)">16</text>
	<text transform="matrix(1 0 0 1 62.50 77.50)">17</text>
</g>
</svg>