<svg xmlns="http://www.w3.org/2000/svg" xmlns:kvg="http://kanjivg.tagaini.net" height="109" meaning="dekametre, (kokuji)" viewBox="0 0 109 109" width="109">
<g id="kvg:StrokePaths_07c75" style="fill:none;stroke:#000000;stroke-width:3;stroke-linecap:round;stroke-linejoin:round;">
<g id="kvg:07c75" kvg:element="&#31861;">
	<g id="kvg:07c75-g1" kvg:element="&#31859;" kvg:position="left" kvg:radical="general" kvg:variant="true">
		<path d="M15.44,26.89c2.92,2.26,7.33,8.65,8.06,12.16" id="kvg:07c75-s1" kvg:type="&#12756;" />
		<path d="M48.26,23.47c0.02,0.35,0.05,0.9-0.05,1.4c-0.57,2.96-3.87,9.45-8.39,13.42" id="kvg:07c75-s2" kvg:type="&#12754;" />
		<path d="M13.1,47.05c0.67,0.16,2.45,0.55,4.23,0.47c6.37-0.31,18.99-1.85,26.19-2.35c1.77-0.12,2.22-0.16,3.34,0" id="kvg:07c75-s3" kvg:type="&#12752;" />
		<path d="M30.52,16.46c0.88,0.45,1.41,2.03,1.59,2.94s0,70.74-0.18,76.39" id="kvg:07c75-s4" kvg:type="&#12753;" />
		<path d="M32.52,47.46C29.26,57.95,21.33,72.67,14,78.73" id="kvg:07c75-s5" kvg:type="&#12754;" />
		<path d="M35.12,53.82c5.53,3.1,9.6,6.67,11.65,11.9" id="kvg:07c75-s6" kvg:type="&#12756;/&#12751;" />
	</g>
	<g id="kvg:07c75-g2" kvg:element="&#21313;" kvg:position="right">
		<path d="M53.53,46.4c1.53,0.5,3.27,0.66,5.03,0.5c8.97-0.82,22.07-1.68,35.64-2.64c1.75-0.12,2.84,0.08,4.6,0.44" id="kvg:07c75-s7" kvg:type="&#12752;" />
		<path d="M72.6,14.75c1.21,0.48,2.17,2.14,2.17,3.14c0,10.13,0,73.58-0.24,79.61" id="kvg:07c75-s8" kvg:type="&#12753;" />
	</g>
</g>
</g>
<g id="kvg:StrokeNumbers_07c75" style="font-size:8;fill:#808080">
	<text transform="matrix(1 0 0 1 8.85 26.50)">1</text>
	<text transform="matrix(1 0 0 1 40.50 20.50)">2</text>
	<text transform="matrix(1 0 0 1 5.50 47.50)">3</text>
	<text transform="matrix(1 0 0 1 21.50 15.50)">4</text>
	<text transform="matrix(1 0 0 1 21.50 57.50)">5</text>
	<text transform="matrix(1 0 0 1 39.58 54.50)">6</text>
	<text transform="matrix(1 0 0 1 51.50 43.50)">7</text>
	<text transform="matrix(1 0 0 1 63.50 14.60)">8</text>
</g>
</svg>