<svg xmlns="http://www.w3.org/2000/svg" xmlns:kvg="http://kanjivg.tagaini.net" height="109" kun="&#12385;&#12414;&#12365;" meaning="rice dumplings steamed in bamboo leaves" on="&#12477;&#12454;" viewBox="0 0 109 109" width="109">
<g id="kvg:StrokePaths_07cbd" style="fill:none;stroke:#000000;stroke-width:3;stroke-linecap:round;stroke-linejoin:round;">
<g id="kvg:07cbd" kvg:element="&#31933;">
	<g id="kvg:07cbd-g1" kvg:element="&#31859;" kvg:position="left" kvg:radical="general" kvg:variant="true">
		<path d="M14.25,23.75c2.63,2.83,6.59,10.84,7.25,15.25" id="kvg:07cbd-s1" kvg:type="&#12756;" />
		<path d="M45.26,19.72c0.02,0.39,0.04,0.99-0.05,1.54c-0.54,3.26-3.65,10.4-7.89,14.78" id="kvg:07cbd-s2" kvg:type="&#12754;" />
		<path d="M11.1,47.28c0.58,0.21,2.11,0.74,3.65,0.63c5.49-0.41,21.27-3.43,27.48-4.11c1.52-0.17,1.92-0.21,2.88,0" id="kvg:07cbd-s3" kvg:type="&#12752;" />
		<path d="M28.2,11c0.96,0.59,1.54,2.67,1.73,3.85c0.19,1.19-0.19,70.9-0.19,83.69" id="kvg:07cbd-s4" kvg:type="&#12753;" />
		<path d="M29.25,47C26.04,58.57,18.23,74.82,11,81.5" id="kvg:07cbd-s5" kvg:type="&#12754;" />
		<path d="M32.37,53.57c4.82,3.68,8.36,7.93,10.15,14.15" id="kvg:07cbd-s6" kvg:type="&#12756;/&#12751;" />
	</g>
	<g id="kvg:07cbd-g2" kvg:element="&#23447;" kvg:position="right">
		<g id="kvg:07cbd-g3" kvg:element="&#23424;" kvg:position="top">
			<path d="M69.26,10.25c0.89,0.37,2.16,2.19,2.13,3.26c-0.07,3.37-0.07,7.25-0.07,10.32" id="kvg:07cbd-s7" kvg:type="&#12753;a" />
			<g id="kvg:07cbd-g4" kvg:element="&#20886;">
				<path d="M52,22.81c0,3.11-2.34,13.13-3.41,15.2" id="kvg:07cbd-s8" kvg:type="&#12756;" />
				<path d="M52.03,25.74c6.4-0.85,32.99-2.78,38.15-2.85c9.82-0.14,1.74,6.68-0.39,9.11" id="kvg:07cbd-s9" kvg:type="&#12758;b" />
			</g>
		</g>
		<g id="kvg:07cbd-g5" kvg:element="&#31034;" kvg:position="bottom">
			<g id="kvg:07cbd-g6" kvg:position="top">
				<path d="M56.35,40.6c0.65,0.27,1.82,0.28,2.47,0.27c4.43-0.12,17.7-1.65,22.05-1.73c1.08-0.02,1.72,0.13,2.26,0.26" id="kvg:07cbd-s10" kvg:type="&#12752;" />
				<path d="M46.83,56.95c1.12,0.4,3.17,0.47,4.29,0.4c8.43-0.58,27.98-2.73,41.59-2.74c1.86,0,2.98,0.19,3.91,0.39" id="kvg:07cbd-s11" kvg:type="&#12752;" />
			</g>
			<g id="kvg:07cbd-g7" kvg:position="bottom">
				<path d="M69.3,58.59c0.06,0.4,1.21,2.06,1.26,4.57c0.28,12.06,0.22,24.16,0.22,28.27c0,8.73-5.61,1.63-8.49-1.29" id="kvg:07cbd-s12" kvg:type="&#12753;" />
				<path d="M56.25,71c0.04,0.51,0.09,1.32-0.08,2.06c-0.99,4.34-8.18,12.81-15.98,18.63" id="kvg:07cbd-s13" kvg:type="&#12754;" />
				<path d="M81.25,70.5C86.71,73.7,95.63,83.28,97,88.25" id="kvg:07cbd-s14" kvg:type="&#12756;" />
			</g>
		</g>
	</g>
</g>
</g>
<g id="kvg:StrokeNumbers_07cbd" style="font-size:8;fill:#808080">
	<text transform="matrix(1 0 0 1 7.71 24.58)">1</text>
	<text transform="matrix(1 0 0 1 38.14 22.66)">2</text>
	<text transform="matrix(1 0 0 1 4.75 47.50)">3</text>
	<text transform="matrix(1 0 0 1 21.25 14.06)">4</text>
	<text transform="matrix(1 0 0 1 18.50 56.50)">5</text>
	<text transform="matrix(1 0 0 1 35.50 54.50)">6</text>
	<text transform="matrix(1 0 0 1 62.50 11.50)">7</text>
	<text transform="matrix(1 0 0 1 45.93 26.74)">8</text>
	<text transform="matrix(1 0 0 1 54.71 22.73)">9</text>
	<text transform="matrix(1 0 0 1 54.50 36.50)">10</text>
	<text transform="matrix(1 0 0 1 45.50 53.50)">11</text>
	<text transform="matrix(1 0 0 1 59.25 65.80)">12</text>
	<text transform="matrix(1 0 0 1 45.50 69.50)">13</text>
	<text transform="matrix(1 0 0 1 76.50 67.15)">14</text>
</g>
</svg>