<svg xmlns="http://www.w3.org/2000/svg" xmlns:kvg="http://kanjivg.tagaini.net" height="109" kun="&#12416;&#12425;&#12373;&#12365;" meaning="purple, violet" on="&#12471;" viewBox="0 0 109 109" width="109">
<g id="kvg:StrokePaths_07d2b" style="fill:none;stroke:#000000;stroke-width:3;stroke-linecap:round;stroke-linejoin:round;">
<g id="kvg:07d2b" kvg:element="&#32043;">
	<g id="kvg:07d2b-g1" kvg:element="&#27492;" kvg:phon="&#27492;" kvg:position="top">
		<g id="kvg:07d2b-g2" kvg:element="&#27490;" kvg:position="left">
			<g id="kvg:07d2b-g3" kvg:element="&#21340;" kvg:original="&#12488;">
				<path d="M36.13,13.32c1.09,1.09,1.41,2.43,1.41,3.92c0,1-0.04,15.76-0.04,21.01" id="kvg:07d2b-s1" kvg:type="&#12753;a" />
				<path d="M38.58,26.08c4.37-0.68,6.32-1.12,10.26-1.77c1.03-0.17,2.12-0.5,3.14-0.16" id="kvg:07d2b-s2" kvg:type="&#12752;b" />
			</g>
			<path d="M23.02,24.31c0.96,0.96,1.41,2.19,1.41,3.92c0,5.36,0.03,10.64,0.03,15.08" id="kvg:07d2b-s3" kvg:type="&#12753;a" />
			<path d="M14,46.57c1.03,1.03,2.48,0.96,3.59,0.52c8.94-3.54,18.54-7.22,33.43-13.09" id="kvg:07d2b-s4" kvg:type="&#12736;/&#12752;" />
		</g>
		<g id="kvg:07d2b-g4" kvg:element="&#21269;" kvg:position="right">
			<path d="M85.44,13.98c0,0.9-0.81,2.25-1.35,2.75c-3.26,2.96-9.09,6.4-16.88,9.57" id="kvg:07d2b-s5" kvg:type="&#12754;" />
			<path d="M63.06,11.71c0.8,0.8,1.22,2.16,1.22,3.49c0,1.59-0.03,7.2-0.03,16.17c0,7.1,1.25,8.76,14.05,8.76c11.45,0,12.95-1.64,12.95-8.84" id="kvg:07d2b-s6" kvg:type="&#12767;" />
		</g>
	</g>
	<g id="kvg:07d2b-g5" kvg:element="&#31992;" kvg:position="bottom" kvg:radical="general">
		<path d="M52.5,39.5c0.25,1.38-0.09,2.47-1.5,3.75c-2.88,2.62-5.75,5-10.75,8.5c-1.02,0.72-0.74,2.47,0.25,2.75c3.5,1,6,2.5,10.25,5.25" id="kvg:07d2b-s7" kvg:type="&#12764;" />
		<path d="M65.75,46.5c0.12,1.62-0.25,2.75-1.5,3.75c-10.31,8.25-18.25,13-29.75,20c-1.97,1.2-1.54,2.31,0.5,2c10-1.5,25.62-3.88,37.62-5.88" id="kvg:07d2b-s8" kvg:type="&#12764;" />
		<path d="M69.25,61.25c3.44,2.21,8.89,9.07,9.75,12.5" id="kvg:07d2b-s9" kvg:type="&#12756;" />
		<path d="M53.73,73.25c1.01,1.01,1.3,2.38,1.3,4.54c0,4.56,0.04,10.08,0.04,15.45c0,1.83-0.06,3.54-0.06,5" id="kvg:07d2b-s10" kvg:type="&#12753;" />
		<path d="M39.46,81.75c0.16,1.25-0.21,2-1.31,2.89c-3.69,3-12.1,8.59-17.4,11.11" id="kvg:07d2b-s11" kvg:type="&#12754;" />
		<path d="M72,81.5c5.21,2.52,14.14,9.23,16,11.75" id="kvg:07d2b-s12" kvg:type="&#12756;" />
	</g>
</g>
</g>
<g id="kvg:StrokeNumbers_07d2b" style="font-size:8;fill:#808080">
	<text transform="matrix(1 0 0 1 27.75 13.50)">1</text>
	<text transform="matrix(1 0 0 1 41.50 22.50)">2</text>
	<text transform="matrix(1 0 0 1 13.50 24.13)">3</text>
	<text transform="matrix(1 0 0 1 6.50 49.50)">4</text>
	<text transform="matrix(1 0 0 1 76.50 14.50)">5</text>
	<text transform="matrix(1 0 0 1 54.50 12.50)">6</text>
	<text transform="matrix(1 0 0 1 41.50 46.50)">7</text>
	<text transform="matrix(1 0 0 1 58.50 47.50)">8</text>
	<text transform="matrix(1 0 0 1 62.50 61.50)">9</text>
	<text transform="matrix(1 0 0 1 43.50 79.50)">10</text>
	<text transform="matrix(1 0 0 1 28.50 82.50)">11</text>
	<text transform="matrix(1 0 0 1 63.50 78.13)">12</text>
</g>
</svg>