<svg xmlns="http://www.w3.org/2000/svg" xmlns:kvg="http://kanjivg.tagaini.net" height="109" kun="&#12367;&#12429;" meaning="black clothing, priest" on="&#12471;" viewBox="0 0 109 109" width="109">
<g id="kvg:StrokePaths_07dc7" style="fill:none;stroke:#000000;stroke-width:3;stroke-linecap:round;stroke-linejoin:round;">
<g id="kvg:07dc7" kvg:element="&#32199;">
	<g id="kvg:07dc7-g1" kvg:element="&#31992;" kvg:position="left" kvg:radical="general">
		<path d="M26.4,12.42c0.36,1.42,0.38,2.47-0.18,4.01C23.75,23.25,18.75,31,13.93,36.44c-0.67,0.75-0.72,3.27,0,3.54c3.81,1.42,8.14,1.78,11.41,4.38" id="kvg:07dc7-s1" kvg:type="&#12764;" />
		<path d="M36.13,25.18c0.28,0.57,0.35,2.43,0,3.04c-5.52,9.6-14.23,21.87-21.83,30.02c-1.74,1.87,0.43,2.94,1.57,2.56c4.75-1.59,17.05-4.93,23.16-6.45" id="kvg:07dc7-s2" kvg:type="&#12764;" />
		<path d="M33,46c3.18,2.47,8.21,10.16,9,14" id="kvg:07dc7-s3" kvg:type="&#12756;" />
		<path d="M28.31,60.37c0.09,0.36,1.25,1.85,1.34,4.09c0.43,10.79-0.27,30.79-0.27,34.46" id="kvg:07dc7-s4" kvg:type="&#12753;" />
		<path d="M21,68.75c0.15,1.13,0.13,3.37-0.15,4.19c-1.8,5.3-6.3,15.52-8.85,20.06" id="kvg:07dc7-s5" kvg:type="&#12754;" />
		<path d="M37.18,68.29c3.12,3.77,5.52,12.52,6.24,15.94" id="kvg:07dc7-s6" kvg:type="&#12756;" />
	</g>
	<g id="kvg:07dc7-g2" kvg:position="right">
		<g id="kvg:07dc7-g3" kvg:element="&#24027;" kvg:position="top">
			<path d="M55.88,14.01c0.15,1.25,0.02,2.16-0.34,3.18c-2.39,6.82-4.31,11.68-10.35,18.9c-0.98,1.18-0.45,0.99,0,1.32c6.51,4.75,10.08,9.46,13.51,18.54" id="kvg:07dc7-s7" kvg:type="&#12763;" />
			<path d="M72.41,11.63c0.48,1.34-0.03,3.2-0.42,4.09c-2.06,4.66-5.73,11.6-11.56,18.5c-0.56,0.67-0.27,0.92,0.25,1.31C66.85,40.06,71.9,46.6,74.74,54.5" id="kvg:07dc7-s8" kvg:type="&#12763;" />
			<path d="M87.85,12.25c0.39,0.94,0.35,1.97,0.17,2.91c-0.97,5.15-2.93,9.98-9.31,17.87c-0.55,0.68-0.24,0.87,0.25,1.31c7.01,6.21,10.38,12.25,12.97,19.25" id="kvg:07dc7-s9" kvg:type="&#12763;" />
		</g>
		<g id="kvg:07dc7-g4" kvg:element="&#30000;" kvg:position="bottom">
			<path d="M50.82,61.83c0.29,0.59,0.3,0.98,0.46,1.71c1.31,5.97,2.9,22.64,3.67,33.63" id="kvg:07dc7-s10" kvg:type="&#12753;" />
			<path d="M51.76,63.4c10.04-1.33,30.54-3.34,38.3-3.92c2.85-0.21,4.3,1.51,4.15,3.11c-0.57,5.86-1.41,22.88-3.81,33.09" id="kvg:07dc7-s11" kvg:type="&#12757;a" />
			<path d="M70.78,63.55c0.27,0.81,0.8,1.26,0.79,2.31c-0.04,6.92,0.18,25,0.18,27.51" id="kvg:07dc7-s12" kvg:type="&#12753;a" />
			<path d="M53.95,79.24c3.39-0.29,34.36-3.11,37.16-3.11" id="kvg:07dc7-s13" kvg:type="&#12752;a" />
			<path d="M54.97,95.1c7.48,0,25.73-1.96,36.05-2.12" id="kvg:07dc7-s14" kvg:type="&#12752;a" />
		</g>
	</g>
</g>
</g>
<g id="kvg:StrokeNumbers_07dc7" style="font-size:8;fill:#808080">
	<text transform="matrix(1 0 0 1 19.50 12.50)">1</text>
	<text transform="matrix(1 0 0 1 33.75 20.05)">2</text>
	<text transform="matrix(1 0 0 1 34.75 43.50)">3</text>
	<text transform="matrix(1 0 0 1 22.50 67.50)">4</text>
	<text transform="matrix(1 0 0 1 13.50 71.50)">5</text>
	<text transform="matrix(1 0 0 1 34.50 64.50)">6</text>
	<text transform="matrix(1 0 0 1 48.50 13.50)">7</text>
	<text transform="matrix(1 0 0 1 63.50 10.50)">8</text>
	<text transform="matrix(1 0 0 1 80.50 10.50)">9</text>
	<text transform="matrix(1 0 0 1 41.50 70.50)">10</text>
	<text transform="matrix(1 0 0 1 48.50 58.50)">11</text>
	<text transform="matrix(1 0 0 1 74.50 69.50)">12</text>
	<text transform="matrix(1 0 0 1 55.50 75.23)">13</text>
	<text transform="matrix(1 0 0 1 56.50 91.50)">14</text>
</g>
</svg>