<svg xmlns="http://www.w3.org/2000/svg" xmlns:kvg="http://kanjivg.tagaini.net" height="109" meaning="variant of radical 125" viewBox="0 0 109 109" width="109">
<g id="kvg:StrokePaths_08002" style="fill:none;stroke:#000000;stroke-width:3;stroke-linecap:round;stroke-linejoin:round;">
<g id="kvg:08002" kvg:element="&#32770;" kvg:original="&#32769;" kvg:partial="true" kvg:radical="tradit">
	<g id="kvg:08002-g1" kvg:element="&#22303;">
		<path d="M25.25,33.59c2.05,0.95,5.76,0.86,7.88,0.59c10.24-1.31,21.19-2.92,33.12-4.5c2.42-0.32,4.74-0.65,7.12,0.01" id="kvg:08002-s1" kvg:type="&#12752;" />
		<path d="M51.17,14.62c1.04,1.04,1.27,2.38,1.27,3.89c0,8.95-0.07,26.62-0.07,29.75" id="kvg:08002-s2" kvg:type="&#12753;a" />
		<path d="M9.88,53.01c4.38,1.74,9.19,0.85,13.48,0.22c15.9-2.35,39.02-5.23,65.53-6.46c3.92-0.18,8.3-0.38,12.13,0.7" id="kvg:08002-s3" kvg:type="&#12752;" />
	</g>
	<path d="M86.84,22.6c-0.11,2.06-1.33,4.57-2.92,6.38C63.48,52.19,39,71.88,8,86.75" id="kvg:08002-s4" kvg:type="&#12754;" />
</g>
</g>
<g id="kvg:StrokeNumbers_08002" style="font-size:8;fill:#808080">
	<text transform="matrix(1 0 0 1 20.25 31.25)">1</text>
	<text transform="matrix(1 0 0 1 45 13.25)">2</text>
	<text transform="matrix(1 0 0 1 5 50.25)">3</text>
	<text transform="matrix(1 0 0 1 81 21)">4</text>
</g>
</svg>