<svg xmlns="http://www.w3.org/2000/svg" xmlns:kvg="http://kanjivg.tagaini.net" height="109" meaning="hoe" viewBox="0 0 109 109" width="109">
<g id="kvg:StrokePaths_08028" style="fill:none;stroke:#000000;stroke-width:3;stroke-linecap:round;stroke-linejoin:round;">
<g id="kvg:08028" kvg:element="&#32808;">
	<g id="kvg:08028-g1" kvg:element="&#32786;" kvg:position="left" kvg:radical="general">
		<g id="kvg:08028-g2" kvg:element="&#20031;">
			<path d="M41.75,19.75c0.25,1-0.17,1.48-0.64,1.78C34,26,24.25,30,15,32.75" id="kvg:08028-s1" kvg:type="&#12754;" />
		</g>
		<g id="kvg:08028-g3" kvg:element="&#26410;">
			<path d="M13.47,40.61c0.51,0.34,3.94,0.94,4.46,0.91c5.31-0.39,15.08-2.08,23.5-3.45c0.84-0.14,2.36,0.16,2.79,0.33" id="kvg:08028-s2" kvg:type="&#12752;" />
			<g id="kvg:08028-g4" kvg:element="&#26408;">
				<path d="M10.84,53.8c0.4,0.31,2.98,1.04,4.06,0.93C22,54,32.25,52.62,41.38,51.38c1.07-0.15,3.02-0.19,3.7,0.12" id="kvg:08028-s3" kvg:type="&#12752;" />
				<path d="M26.85,13c1.18,0.46,2.12,3.43,2.12,4.39c0,3.7,0.4,73.58,0.16,79.36" id="kvg:08028-s4" kvg:type="&#12753;" />
				<path d="M28.53,54.36C25.26,63.9,16.8,78.37,9.99,83.77" id="kvg:08028-s5" kvg:type="&#12754;" />
				<path d="M32.5,60.98c4.82,2.76,8.36,7.01,11.25,11.77" id="kvg:08028-s6" kvg:type="&#12756;/&#12751;" />
			</g>
		</g>
	</g>
	<g id="kvg:08028-g5" kvg:element="&#36785;" kvg:position="right">
		<g id="kvg:08028-g6" kvg:element="&#36784;" kvg:position="top">
			<g id="kvg:08028-g7" kvg:element="&#21378;">
				<path d="M49.75,19.48C50.9,19.9,53,20,54.15,19.9c9.29-0.79,29.64-3.62,34.6-3.98c1.9-0.14,3.05,0.2,4.01,0.41" id="kvg:08028-s7" kvg:type="&#12752;" />
				<path d="M52.5,20.5c0.03,1.86-0.05,2.29-0.05,4.96c0,17.19,0.3,48.04-9.95,63.79" id="kvg:08028-s8" kvg:type="&#12754;" />
			</g>
			<path d="M59.3,28.09c1.34,0.42,3.29,1.03,4.63,0.92c8.52-0.73,15.82-2.26,20.8-2.7c2.21-0.2,3.07-0.3,4.18-0.09" id="kvg:08028-s9" kvg:type="&#12752;" />
			<path d="M55.75,39.05c1.5-0.05,3-0.05,4.28-0.16c3.82-0.35,26.78-4.16,30.87-4.26c0.99-0.02,2.85,0.16,3.35,0.33" id="kvg:08028-s10" kvg:type="&#12752;" />
			<path d="M61.2,40.84c0.8,1.16,0.88,1.92,0.88,3.84c0,9.08-0.78,12.76-0.78,14.3s0.99,2.35,2.35,1.25C66.75,57.75,70,55.5,74.75,52" id="kvg:08028-s11" kvg:type="&#12761;" />
			<path d="M88.75,39.75c0.02,0.16,0.04,0.41-0.04,0.64c-0.48,1.35-3.23,4.31-7,6.12" id="kvg:08028-s12" kvg:type="&#12754;" />
			<path d="M67.75,39c6.5,5.75,17.5,12.25,24.01,16.65c1.33,0.9,2.43,1.33,3.74,1.6" id="kvg:08028-s13" kvg:type="&#12751;" />
		</g>
		<g id="kvg:08028-g8" kvg:element="&#23544;" kvg:position="bottom">
			<path d="M55.75,69.56c0.8,0.54,2.25,0.57,3.07,0.54c9.04-0.42,27.43-2.51,37.2-3.32c1.33-0.11,2.13,0.25,2.8,0.52" id="kvg:08028-s14" kvg:type="&#12752;" />
			<path d="M83.58,58.25c0.09,0.35,1.25,1.84,1.25,4.09c0,15.1,0.29,23.47,0.29,27.14c0,12.03-6.13,2.53-8.18,0.68" id="kvg:08028-s15" kvg:type="&#12762;" />
			<path d="M58.75,75.5c3.35,1.94,8.66,7.98,9.5,11" id="kvg:08028-s16" kvg:type="&#12756;" />
		</g>
	</g>
</g>
</g>
<g id="kvg:StrokeNumbers_08028" style="font-size:8;fill:#808080">
	<text transform="matrix(1 0 0 1 36.25 16.25)">1</text>
	<text transform="matrix(1 0 0 1 6.25 42.25)">2</text>
	<text transform="matrix(1 0 0 1 3.25 54.25)">3</text>
	<text transform="matrix(1 0 0 1 18.25 12.25)">4</text>
	<text transform="matrix(1 0 0 1 17.25 63.25)">5</text>
	<text transform="matrix(1 0 0 1 34.49 60.75)">6</text>
	<text transform="matrix(1 0 0 1 50.61 17.50)">7</text>
	<text transform="matrix(1 0 0 1 45.25 28.25)">8</text>
	<text transform="matrix(1 0 0 1 60.25 26.25)">9</text>
	<text transform="matrix(1 0 0 1 56.25 36.70)">10</text>
	<text transform="matrix(1 0 0 1 51.99 47.13)">11</text>
	<text transform="matrix(1 0 0 1 89.87 44.88)">12</text>
	<text transform="matrix(1 0 0 1 74.67 43.98)">13</text>
	<text transform="matrix(1 0 0 1 52.50 67.88)">14</text>
	<text transform="matrix(1 0 0 1 71.87 61.63)">15</text>
	<text transform="matrix(1 0 0 1 50.25 83.38)">16</text>
</g>
</svg>