<svg xmlns="http://www.w3.org/2000/svg" xmlns:kvg="http://kanjivg.tagaini.net" height="109" meaning="question mark" viewBox="0 0 109 109" width="109">
<g id="kvg:StrokePaths_08036" style="fill:none;stroke:#000000;stroke-width:3;stroke-linecap:round;stroke-linejoin:round;">
<g id="kvg:08036" kvg:element="&#32822;">
	<g id="kvg:08036-g1" kvg:element="&#32819;" kvg:position="left" kvg:radical="general">
		<path d="M13.94,19.79c2.23,1.06,5.87,0.85,8.22,0.58c7.16-0.82,16.35-2,26.09-3.49c2.61-0.4,5.25-0.63,7.75-0.17" id="kvg:08036-s1" kvg:type="&#12752;" />
		<path d="M24.68,23.32c0.88,0.88,1.03,2.08,1.03,3.47c0,1.39-0.08,40.1-0.08,45.09" id="kvg:08036-s2" kvg:type="&#12753;a" />
		<path d="M26.55,37.48c9.2-1.73,11.45-2.23,19.58-3.08" id="kvg:08036-s3" kvg:type="&#12752;a" />
		<path d="M26.74,51.7c7.51-1.2,10.26-1.95,19.42-2.8" id="kvg:08036-s4" kvg:type="&#12752;a" />
		<path d="M13.5,76.24c1.5,0.88,2.75,1.13,4.17,0.52c3.39-1.46,21.02-9.81,26.21-12.17" id="kvg:08036-s5" kvg:type="&#12736;" />
		<path d="M46,20.25c1.09,1.09,1.1,2.43,1.1,3.88c-0.01,5.94-0.07,43.46-0.09,62.37c0,3.98-0.01,7.14-0.01,9" id="kvg:08036-s6" kvg:type="&#12753;" />
	</g>
	<g id="kvg:08036-g2" kvg:element="&#11983;" kvg:original="&#37009;" kvg:position="right" kvg:variant="true">
		<path d="M63.92,17.42c2.33,0.58,3.92,0.6,6.08,0.21c5.62-1.02,14-3,17.42-4.21c2.98-1.05,5.22,1.48,3.92,3.83c-2.08,3.75-8.21,14-11.83,19" id="kvg:08036-s7" kvg:type="&#12743;" />
		<path d="M79.5,36.25c21.62,13.25,16,42.25,2.48,33.66" id="kvg:08036-s8" kvg:type="&#12757;va" />
		<path d="M66.33,18.5c0.83,0.84,1,2.08,1,3.87c0,11.95,0.02,48.06,0.03,65.5c0,4.04,0,7.1,0,8.63" id="kvg:08036-s9" kvg:type="&#12753;" />
	</g>
</g>
</g>
<g id="kvg:StrokeNumbers_08036" style="font-size:8;fill:#808080">
	<text transform="matrix(1 0 0 1 15.25 17.25)">1</text>
	<text transform="matrix(1 0 0 1 18.25 31.25)">2</text>
	<text transform="matrix(1 0 0 1 30.25 33.25)">3</text>
	<text transform="matrix(1 0 0 1 30.25 48.25)">4</text>
	<text transform="matrix(1 0 0 1 5.25 77.25)">5</text>
	<text transform="matrix(1 0 0 1 50.25 28.00)">6</text>
	<text transform="matrix(1 0 0 1 63.25 15.25)">7</text>
	<text transform="matrix(1 0 0 1 76.25 46.25)">8</text>
	<text transform="matrix(1 0 0 1 60.25 26.78)">9</text>
</g>
</svg>