<svg xmlns="http://www.w3.org/2000/svg" xmlns:kvg="http://kanjivg.tagaini.net" height="109" meaning="certainly, (kokuji)" viewBox="0 0 109 109" width="109">
<g id="kvg:StrokePaths_08062" style="fill:none;stroke:#000000;stroke-width:3;stroke-linecap:round;stroke-linejoin:round;">
<g id="kvg:08062" kvg:element="&#32866;">
	<g id="kvg:08062-g1" kvg:element="&#32819;" kvg:position="left" kvg:radical="general">
		<path d="M10.05,18.31c0.78,0.35,2.21,0.39,3,0.35c6.2-0.32,18.53-2.56,27.72-3.16c1.3-0.09,2.08,0.17,2.73,0.34" id="kvg:08062-s1" kvg:type="&#12752;" />
		<path d="M16.87,20.57c0.25,1.18,0.99,2.33,0.99,3.72c0,1.39-0.12,45.8-0.12,50.79" id="kvg:08062-s2" kvg:type="&#12753;a" />
		<path d="M18.71,36.48c5.54-0.98,8.79-0.98,16.3-1.83" id="kvg:08062-s3" kvg:type="&#12752;a" />
		<path d="M17.96,52.95c5.79-1.2,9.11-1.7,16.18-2.55" id="kvg:08062-s4" kvg:type="&#12752;a" />
		<path d="M10.25,77.19c0.93,0.56,2.62,0.71,3.4,0.3c3.13-1.63,16.18-8.04,20.98-10.65" id="kvg:08062-s5" kvg:type="&#12736;" />
		<path d="M34.01,19c0.77,1.25,0.85,1.46,0.85,2.85s0.12,64.03,0.12,75.4" id="kvg:08062-s6" kvg:type="&#12753;" />
	</g>
	<g id="kvg:08062-g2" kvg:element="&#23450;" kvg:position="right">
		<g id="kvg:08062-g3" kvg:element="&#23424;" kvg:position="top">
			<path d="M64.91,11.67c0.71,0.8,1.93,2.8,1.91,3.9c-0.07,3.46-0.07,6.98-0.07,10.13" id="kvg:08062-s7" kvg:type="&#12753;a" />
			<g id="kvg:08062-g4" kvg:element="&#20886;">
				<path d="M47.48,26.66c0,3.43-3.54,12.86-5.15,15.14" id="kvg:08062-s8" kvg:type="&#12756;" />
				<path d="M47.87,28.76c11.77-2.11,31.12-3.63,42.19-4.14c10.17-0.47,3.22,6.21,0.05,8.96" id="kvg:08062-s9" kvg:type="&#12758;b" />
			</g>
		</g>
		<g id="kvg:08062-g5" kvg:element="&#30091;" kvg:position="bottom" kvg:variant="true">
			<path d="M50.07,43.21c2.21,0.42,4.34,0.28,6.58,0c7.49-0.95,21.04-2.4,24.56-2.4c3.03,0,1.96,0.12,4.39,0.12" id="kvg:08062-s10" kvg:type="&#12752;" />
			<g id="kvg:08062-g6" kvg:element="&#21340;" kvg:original="&#12488;">
				<path d="M65.66,42.7c0.81,0.42,1.3,1.9,1.46,2.75c0.16,0.85,0.37,29.08,0.21,34.37" id="kvg:08062-s11" kvg:type="&#12753;" />
				<path d="M67.53,61.35c7.08-0.51,9.9-1.03,20.59-2.06c1.72-0.17,2.17-0.17,3.25,0" id="kvg:08062-s12" kvg:type="&#12752;" />
			</g>
			<g id="kvg:08062-g7" kvg:element="&#20154;">
				<path d="M53.29,53.21c0.04,1.02,0.08,2.64-0.07,4.1C52.3,65.98,49,84,39.81,94.92" id="kvg:08062-s13" kvg:type="&#12754;" />
				<path d="M51.94,69.55C60.5,75.75,79,88.5,87.68,93c2.08,1.08,3.78,1.66,5.81,2" id="kvg:08062-s14" kvg:type="&#12751;" />
			</g>
		</g>
	</g>
</g>
</g>
<g id="kvg:StrokeNumbers_08062" style="font-size:8;fill:#808080">
	<text transform="matrix(1 0 0 1 8.25 15.25)">1</text>
	<text transform="matrix(1 0 0 1 10.25 27.80)">2</text>
	<text transform="matrix(1 0 0 1 21.25 32.25)">3</text>
	<text transform="matrix(1 0 0 1 21.25 48.25)">4</text>
	<text transform="matrix(1 0 0 1 2.25 77.25)">5</text>
	<text transform="matrix(1 0 0 1 27.25 26.25)">6</text>
	<text transform="matrix(1 0 0 1 57.25 12.25)">7</text>
	<text transform="matrix(1 0 0 1 41.25 27.25)">8</text>
	<text transform="matrix(1 0 0 1 51.25 25.25)">9</text>
	<text transform="matrix(1 0 0 1 48.25 40.25)">10</text>
	<text transform="matrix(1 0 0 1 58.25 52.25)">11</text>
	<text transform="matrix(1 0 0 1 71.25 57.25)">12</text>
	<text transform="matrix(1 0 0 1 41.50 55.25)">13</text>
	<text transform="matrix(1 0 0 1 55.25 69.90)">14</text>
</g>
</svg>