<svg xmlns="http://www.w3.org/2000/svg" xmlns:kvg="http://kanjivg.tagaini.net" height="109" kun="&#12399;&#12425;" meaning="belly, stomach" on="&#12488;" viewBox="0 0 109 109" width="109">
<g id="kvg:StrokePaths_0809a" style="fill:none;stroke:#000000;stroke-width:3;stroke-linecap:round;stroke-linejoin:round;">
<g id="kvg:0809a" kvg:element="&#32922;">
	<g id="kvg:0809a-g1" kvg:element="&#26376;" kvg:original="&#32905;" kvg:position="left" kvg:radical="general" kvg:variant="true">
		<path d="M17.25,19.75c1,0.75,1.5,2.5,1.5,3.5c0,19-0.88,41.58-0.5,36c0.79-11.71-1.34,21.54-8.75,35" id="kvg:0809a-s1" kvg:type="&#12754;" />
		<path d="M19.32,21.48c2.19-0.06,12.64-2.26,14.27-2.38c2.92-0.22,3.64,1.26,3.64,2.58c0,3.12-0.55,44.65-0.55,62.36c0,12.18-4.74,4.68-6.6,3.21" id="kvg:0809a-s2" kvg:type="&#12742;a" />
		<path d="M20.82,40.3c4.23-0.27,11.96-1.55,15.68-1.56" id="kvg:0809a-s3" kvg:type="&#12752;a" />
		<path d="M19.26,57.73c3.96-0.09,12.16-1.4,17.54-1.85" id="kvg:0809a-s4" kvg:type="&#12752;a" />
	</g>
	<g id="kvg:0809a-g2" kvg:element="&#22303;" kvg:position="right">
		<path d="M45.5,51.21c1.18,0.22,4.46,0.47,5.64,0.41c9.73-0.45,23.61-2.62,36.25-3.41c1.96-0.12,4.13,0.27,5.11,0.38" id="kvg:0809a-s5" kvg:type="&#12752;" />
		<path d="M65.75,17c1.25,0.75,2.34,1.83,2.34,3.63c0,11.61-0.32,50.77-0.32,66.12" id="kvg:0809a-s6" kvg:type="&#12753;a" />
		<path d="M42.25,88.5c0.97,0.33,5.53,1.08,6.5,1c12.06-0.92,33.56-2.58,44.34-3c1.62-0.07,4.09,0.84,4.91,1" id="kvg:0809a-s7" kvg:type="&#12752;" />
	</g>
</g>
</g>
<g id="kvg:StrokeNumbers_0809a" style="font-size:8;fill:#808080">
	<text transform="matrix(1 0 0 1 11.25 27.25)">1</text>
	<text transform="matrix(1 0 0 1 21.25 17.25)">2</text>
	<text transform="matrix(1 0 0 1 23.25 37.25)">3</text>
	<text transform="matrix(1 0 0 1 23.25 54.25)">4</text>
	<text transform="matrix(1 0 0 1 43.25 48.25)">5</text>
	<text transform="matrix(1 0 0 1 56.25 17.25)">6</text>
	<text transform="matrix(1 0 0 1 42.25 85.25)">7</text>
</g>
</svg>