<svg xmlns="http://www.w3.org/2000/svg" xmlns:kvg="http://kanjivg.tagaini.net" height="109" meaning="fertilizer, get fat, fertile, manure, pamper" viewBox="0 0 109 109" width="109">
<g id="kvg:StrokePaths_080a5" style="fill:none;stroke:#000000;stroke-width:3;stroke-linecap:round;stroke-linejoin:round;">
<g id="kvg:080a5" kvg:element="&#32933;">
	<g id="kvg:080a5-g1" kvg:element="&#26376;" kvg:original="&#32905;" kvg:position="left" kvg:radical="general" kvg:variant="true">
		<path d="M18.83,18.91c0.82,0.82,1.25,2.31,1.26,3.23C20.75,61.5,20,77.5,9,92" id="kvg:080a5-s1" kvg:type="&#12754;" />
		<path d="M21.1,21.07c1.52-0.23,14.01-2.57,15.15-2.83c2.03-0.46,3.54,1.13,3.54,3.33c0,5.68-0.13,45.86-0.13,64.31c0,11.84-5.91,3-7.32,1.55" id="kvg:080a5-s2" kvg:type="&#12742;a" />
		<path d="M21.35,39.11c6.65-0.86,9.9-1.36,17.3-2.1" id="kvg:080a5-s3" kvg:type="&#12752;a" />
		<path d="M20.99,56.85c5.96-0.59,12.82-1.22,17.67-1.69" id="kvg:080a5-s4" kvg:type="&#12752;a" />
	</g>
	<g id="kvg:080a5-g2" kvg:element="&#24052;" kvg:phon="&#24052;" kvg:position="right">
		<g id="kvg:080a5-g3" kvg:element="&#24049;" kvg:original="&#24051;" kvg:part="1">
			<path d="M51.75,26.75c0.84,0.25,2.55,0.54,4.75,0.21c10.43-1.58,22.79-2.99,30.25-3.62c2.84-0.24,5.27,0.76,4.9,4.13c-0.53,4.77-1.65,9.86-3.05,17.24c-0.3,1.56-0.61,3.22-0.93,5" id="kvg:080a5-s5" kvg:type="&#12757;" />
			<path d="M70.27,27.93c0.9,0.9,1.34,2.32,1.34,3.58c0,6.49-0.11,7.24,0.01,17.61" id="kvg:080a5-s6" kvg:type="&#12753;a" />
		</g>
		<g id="kvg:080a5-g4" kvg:element="&#24049;" kvg:original="&#24051;" kvg:part="2">
			<path d="M55.2,51.4c3.78-0.45,26.55-2.4,31.49-2.4" id="kvg:080a5-s7" kvg:type="&#12752;a" />
			<path d="M52.88,27.66c0.73,0.73,1.36,2.09,1.36,3.53C54.24,39.57,54,63.75,54,71c0,18,3.05,18.32,20.08,18.32c18.92,0,21.16-2.07,21.16-11.17" id="kvg:080a5-s8" kvg:type="&#12767;" />
		</g>
	</g>
</g>
</g>
<g id="kvg:StrokeNumbers_080a5" style="font-size:8;fill:#808080">
	<text transform="matrix(1 0 0 1 13.80 27.50)">1</text>
	<text transform="matrix(1 0 0 1 23.25 17.50)">2</text>
	<text transform="matrix(1 0 0 1 24.75 35.50)">3</text>
	<text transform="matrix(1 0 0 1 24.75 53.50)">4</text>
	<text transform="matrix(1 0 0 1 56.25 23.50)">5</text>
	<text transform="matrix(1 0 0 1 64.50 36.13)">6</text>
	<text transform="matrix(1 0 0 1 58.50 48.05)">7</text>
	<text transform="matrix(1 0 0 1 46.50 34.63)">8</text>
</g>
</svg>