<svg xmlns="http://www.w3.org/2000/svg" xmlns:kvg="http://kanjivg.tagaini.net" height="109" kun="&#12402;&#12418;&#12429;&#12366;" meaning="offerings to gods" on="&#12477;, &#12469;&#12463;" viewBox="0 0 109 109" width="109">
<g id="kvg:StrokePaths_080d9" style="fill:none;stroke:#000000;stroke-width:3;stroke-linecap:round;stroke-linejoin:round;">
<g id="kvg:080d9" kvg:element="&#32985;">
	<g id="kvg:080d9-g1" kvg:element="&#26376;" kvg:original="&#32905;" kvg:position="left" kvg:radical="general" kvg:variant="true">
		<path d="M18.58,19.08c0.92,0.92,1.17,3.55,1.17,4.5c0,6.92,0.13,25.48-0.33,33.33c-0.66,11.18-2.17,25.33-9,36" id="kvg:080d9-s1" kvg:type="&#12754;" />
		<path d="M20.82,20.97c2.41-0.06,12.91-2.25,14.71-2.37c3.21-0.22,4.01,1.76,4.01,3.07c0,3.11-0.6,45.55-0.6,63.22c0,12.15-4.64,3.82-6.69,2.37" id="kvg:080d9-s2" kvg:type="&#12742;a" />
		<path d="M20.15,41.18c4.92-0.34,13.92-1.99,18.25-2.02" id="kvg:080d9-s3" kvg:type="&#12752;a" />
		<path d="M19.42,60.25c4.43-0.1,13.48-1.66,19.5-2.17" id="kvg:080d9-s4" kvg:type="&#12752;a" />
	</g>
	<g id="kvg:080d9-g2" kvg:element="&#20045;" kvg:position="right">
		<g id="kvg:080d9-g3" kvg:element="&#20031;">
			<path d="M64.58,14.42c0.06,0.81,0.2,3.6-0.17,4.73c-2.36,7.33-8.59,20.34-18.67,30.93" id="kvg:080d9-s5" kvg:type="&#12754;" />
		</g>
		<path d="M58.95,34.27c0.91,0.36,3.89,0.04,4.8-0.02c12.05-0.75,19-1.75,28.67-3.5c1.66-0.3,3.36,0.14,4.67,0.5" id="kvg:080d9-s6" kvg:type="&#12752;" />
		<path d="M67.25,35.42c0.92,0.92,1.02,2.84,1.19,3.76c0.17,0.91-0.02,49.71-0.19,55.41" id="kvg:080d9-s7" kvg:type="&#12753;" />
		<path d="M68.66,50.7c5.7-0.8,12.98-1.82,19.43-2.62c1.52-0.19,3.21-0.24,4.83,0.17" id="kvg:080d9-s8" kvg:type="&#12752;b" />
		<path d="M69.08,68.08c4.42-0.42,14.17-1.58,20.67-2.17c0.91-0.08,4.88-0.25,5.33-0.17" id="kvg:080d9-s9" kvg:type="&#12752;b" />
	</g>
</g>
</g>
<g id="kvg:StrokeNumbers_080d9" style="font-size:8;fill:#808080">
	<text transform="matrix(1 0 0 1 10.25 23.25)">1</text>
	<text transform="matrix(1 0 0 1 22.25 17.25)">2</text>
	<text transform="matrix(1 0 0 1 24.25 37.25)">3</text>
	<text transform="matrix(1 0 0 1 24.25 56.25)">4</text>
	<text transform="matrix(1 0 0 1 55.25 15.25)">5</text>
	<text transform="matrix(1 0 0 1 66.25 30.25)">6</text>
	<text transform="matrix(1 0 0 1 60.00 45.25)">7</text>
	<text transform="matrix(1 0 0 1 73.25 45.85)">8</text>
	<text transform="matrix(1 0 0 1 73.25 64.25)">9</text>
</g>
</svg>