<svg xmlns="http://www.w3.org/2000/svg" xmlns:kvg="http://kanjivg.tagaini.net" height="109" meaning="leg, shin" viewBox="0 0 109 109" width="109">
<g id="kvg:StrokePaths_0811b" style="fill:none;stroke:#000000;stroke-width:3;stroke-linecap:round;stroke-linejoin:round;">
<g id="kvg:0811b" kvg:element="&#33051;">
	<g id="kvg:0811b-g1" kvg:element="&#26376;" kvg:original="&#32905;" kvg:position="left" kvg:radical="general" kvg:variant="true">
		<path d="M17.92,19.75c0.48,0.96,1.5,2.25,1.5,4.33c0,2.92,0.02,24.83-0.5,32.67c-0.73,11.15-1.5,22.07-8.42,34.89" id="kvg:0811b-s1" kvg:type="&#12754;" />
		<path d="M19.25,20.42c2.04-0.06,13.37-2.94,14.89-3.07c2.72-0.23,3.4,1.3,3.4,2.66c0,3.22-0.29,45.64-0.29,63.91c0,12.57-5.1,5.67-6.83,4.17" id="kvg:0811b-s2" kvg:type="&#12742;a" />
		<path d="M20.08,39.42c4.61-0.21,12.45-1.48,16.5-1.5" id="kvg:0811b-s3" kvg:type="&#12752;a" />
		<path d="M19.75,57.92c3.85-0.08,10.77-1.08,16-1.5" id="kvg:0811b-s4" kvg:type="&#12752;a" />
	</g>
	<g id="kvg:0811b-g2" kvg:position="right">
		<g id="kvg:0811b-g3" kvg:element="&#19968;">
			<path d="M45.92,19.08c1.83,0.42,4,0.73,5.17,0.67c8.5-0.46,25.67-1.75,36.33-2.5c1.94-0.14,5.03,0.29,6,0.5" id="kvg:0811b-s5" kvg:type="&#12752;" />
		</g>
		<g id="kvg:0811b-g4" kvg:element="&#24027;">
			<path d="M54.08,26.92c0.25,0.98,0.17,2.19-0.17,3c-1.99,4.81-3.45,5.77-7.38,10.9c-0.76,0.99-0.36,0.97,0,1.28c4.07,3.49,6.32,5.96,9.22,11.99" id="kvg:0811b-s6" kvg:type="&#12763;" />
			<path d="M72.25,24.75c0.45,0.9,0.25,2.09-0.17,2.83c-2.23,4.01-5.22,6.81-9.41,11.49c-0.46,0.51-0.25,1.06,0.16,1.35c5,3.62,7.41,7.82,9.25,13.15" id="kvg:0811b-s7" kvg:type="&#12763;" />
			<path d="M88.58,23.42c0.41,0.68,0.52,1.97,0.17,2.67c-1.87,3.66-5.1,7.85-8.64,12.36c-0.39,0.5-0.2,0.93,0.15,1.25c4.54,4.12,7.13,6.71,9.49,13.23" id="kvg:0811b-s8" kvg:type="&#12763;" />
		</g>
		<g id="kvg:0811b-g5" kvg:element="&#24037;">
			<path d="M48.92,63.08c0.69,0.27,5.97,0.58,6.67,0.5c3.25-0.37,24.86-2.38,30.33-2.67c1.07-0.05,4.12,0.44,5,0.67" id="kvg:0811b-s9" kvg:type="&#12752;" />
			<path d="M68.61,63.4c1,1,1.15,2.53,1.15,3.79c0,8.84-0.05,6.74-0.05,21.9" id="kvg:0811b-s10" kvg:type="&#12753;a" />
			<path d="M45.08,90.25c0.71,0.4,3.95,0.62,5.17,0.5c10-1,28.65-1.91,40.5-2.5c1.94-0.1,5.86,0.71,6.83,1.33" id="kvg:0811b-s11" kvg:type="&#12752;" />
		</g>
	</g>
</g>
</g>
<g id="kvg:StrokeNumbers_0811b" style="font-size:8;fill:#808080">
	<text transform="matrix(1 0 0 1 11.25 26.25)">1</text>
	<text transform="matrix(1 0 0 1 20.25 17.25)">2</text>
	<text transform="matrix(1 0 0 1 23.25 36.25)">3</text>
	<text transform="matrix(1 0 0 1 23.25 54.25)">4</text>
	<text transform="matrix(1 0 0 1 44.25 16.25)">5</text>
	<text transform="matrix(1 0 0 1 45.25 30.25)">6</text>
	<text transform="matrix(1 0 0 1 63.25 28.25)">7</text>
	<text transform="matrix(1 0 0 1 79.25 27.25)">8</text>
	<text transform="matrix(1 0 0 1 42.25 64.25)">9</text>
	<text transform="matrix(1 0 0 1 59.25 72.25)">10</text>
	<text transform="matrix(1 0 0 1 42.25 87.25)">11</text>
</g>
</svg>