<svg xmlns="http://www.w3.org/2000/svg" xmlns:kvg="http://kanjivg.tagaini.net" height="109" kun="&#12354;&#12372;, &#12360;&#12425;" meaning="jaw" on="&#12469;&#12452;" viewBox="0 0 109 109" width="109">
<g id="kvg:StrokePaths_0816e" style="fill:none;stroke:#000000;stroke-width:3;stroke-linecap:round;stroke-linejoin:round;">
<g id="kvg:0816e" kvg:element="&#33134;">
	<g id="kvg:0816e-g1" kvg:element="&#26376;" kvg:original="&#32905;" kvg:position="left" kvg:radical="general" kvg:variant="true">
		<path d="M16.92,19.08c0.61,0.95,1.43,1.92,1.43,4.04c0,0.94,0.18,22.41-0.47,30.13c-0.93,11,0.28,21.33-7.88,37.72" id="kvg:0816e-s1" kvg:type="&#12754;" />
		<path d="M18.45,20.36c2.14-0.06,12.35-1.8,13.94-1.93c2.85-0.23,3.56,1.79,3.56,3.13c0,3.18-0.04,44.09-0.04,62.17c0,12.44-4.01,5.67-5.83,4.18" id="kvg:0816e-s2" kvg:type="&#12742;a" />
		<path d="M18.95,40.29c4.51-0.35,12.74-1.54,16.7-1.57" id="kvg:0816e-s3" kvg:type="&#12752;a" />
		<path d="M18.56,59.52c3.57-0.11,11.87-1.04,16.72-1.6" id="kvg:0816e-s4" kvg:type="&#12752;a" />
	</g>
	<g id="kvg:0816e-g2" kvg:element="&#24605;" kvg:position="right">
		<g id="kvg:0816e-g3" kvg:element="&#30000;" kvg:position="top">
			<path d="M47.75,17.92c0.25,0.54,1.36,2.5,1.5,3.17c1.12,5.51,2.73,24.26,3.39,34.42" id="kvg:0816e-s5" kvg:type="&#12753;" />
			<path d="M49.75,19.75c8-0.75,29.34-2.96,37-3.5c2.81-0.2,3.99,2.18,3.83,3.67c-0.56,5.44-1.38,23.2-3.83,33.33" id="kvg:0816e-s6" kvg:type="&#12757;a" />
			<path d="M67.58,20.25c1.17,1,1.6,2.57,1.59,3.92c-0.06,7.41,0.07,24.21,0.07,26.41" id="kvg:0816e-s7" kvg:type="&#12753;a" />
			<path d="M52.15,35.26c3.43-0.17,34.27-2.67,37.1-2.67" id="kvg:0816e-s8" kvg:type="&#12752;a" />
			<path d="M54.98,52.66c8.13-0.74,24.42-1.6,31.82-1.82" id="kvg:0816e-s9" kvg:type="&#12752;a" />
		</g>
		<g id="kvg:0816e-g4" kvg:element="&#24515;" kvg:position="bottom">
			<path d="M48.76,73.21c0.41,2.5-4.11,14.05-7.35,18.21" id="kvg:0816e-s10" kvg:type="&#12756;" />
			<path d="M54.94,66.84C60.06,81.45,68.5,92,86.75,93.58c6.18,0.54,7.11-2,3.5-7" id="kvg:0816e-s11" kvg:type="&#12767;b" />
			<path d="M70.58,67.25c1.36,3.21,5.15,7.39,6,2.85" id="kvg:0816e-s12" kvg:type="&#12756;a" />
			<path d="M85.83,63.92c5.4,3.18,9.81,6.03,13.08,10.97" id="kvg:0816e-s13" kvg:type="&#12756;" />
		</g>
	</g>
</g>
</g>
<g id="kvg:StrokeNumbers_0816e" style="font-size:8;fill:#808080">
	<text transform="matrix(1 0 0 1 9.50 26.38)">1</text>
	<text transform="matrix(1 0 0 1 19.25 16.25)">2</text>
	<text transform="matrix(1 0 0 1 22.25 37.25)">3</text>
	<text transform="matrix(1 0 0 1 22.25 56.25)">4</text>
	<text transform="matrix(1 0 0 1 42.25 27.25)">5</text>
	<text transform="matrix(1 0 0 1 51.25 16.25)">6</text>
	<text transform="matrix(1 0 0 1 73.25 27.25)">7</text>
	<text transform="matrix(1 0 0 1 56.25 32.25)">8</text>
	<text transform="matrix(1 0 0 1 57.25 49.20)">9</text>
	<text transform="matrix(1 0 0 1 40.25 72.25)">10</text>
	<text transform="matrix(1 0 0 1 51.25 82.25)">11</text>
	<text transform="matrix(1 0 0 1 60.25 66.25)">12</text>
	<text transform="matrix(1 0 0 1 75.25 65.25)">13</text>
</g>
</svg>