<svg xmlns="http://www.w3.org/2000/svg" xmlns:kvg="http://kanjivg.tagaini.net" height="109" meaning="diaphragm" viewBox="0 0 109 109" width="109">
<g id="kvg:StrokePaths_08188" style="fill:none;stroke:#000000;stroke-width:3;stroke-linecap:round;stroke-linejoin:round;">
<g id="kvg:08188" kvg:element="&#33160;">
	<g id="kvg:08188-g1" kvg:element="&#26376;" kvg:original="&#32905;" kvg:position="left" kvg:radical="general" kvg:variant="true">
		<path d="M18.92,18.42c0.52,0.97,1,2.83,1,4.5c0,0.95,0.34,24.81-0.21,32.69c-0.78,11.2-1.59,22.49-8.96,35.37" id="kvg:08188-s1" kvg:type="&#12754;" />
		<path d="M20.82,19.98C22.84,19.93,32.5,18.22,34,18.1c2.69-0.22,3.37,1.26,3.37,2.58c0,3.13-0.5,44.25-0.5,62.01c0,12.21-4.73,5.53-6.45,4.06" id="kvg:08188-s2" kvg:type="&#12742;a" />
		<path d="M20.65,39.16c4.2-0.22,11.89-1.29,15.58-1.31" id="kvg:08188-s3" kvg:type="&#12752;a" />
		<path d="M20.6,58.51c3.64-0.07,11.18-1.19,16.12-1.58" id="kvg:08188-s4" kvg:type="&#12752;a" />
	</g>
	<g id="kvg:08188-g2" kvg:element="&#39730;" kvg:position="right">
		<g id="kvg:08188-g3" kvg:position="top">
			<g id="kvg:08188-g4" kvg:element="&#19968;">
				<path d="M47.42,16.92c2.33,0.58,3.83,0.79,5.33,0.67c7-0.58,25.54-1.34,34.5-2.33c2.25-0.25,4.75,0,6.67,0.17" id="kvg:08188-s5" kvg:type="&#12752;" />
			</g>
			<g id="kvg:08188-g5" kvg:element="&#21475;">
				<path d="M53.92,26.08c0.27,0.26,1.38,2.01,1.5,2.33c0.94,2.58,1.19,7.52,1.83,12.17" id="kvg:08188-s6" kvg:type="&#12753;" />
				<path d="M56.25,27.42c7.81-1.29,22.97-2.56,27-3c1.47-0.16,3.38,1.89,3.17,2.83c-0.87,3.88-2,5.45-3.17,9.67" id="kvg:08188-s7" kvg:type="&#12757;b" />
				<path d="M58.08,38.92c5-0.22,21.33-1.28,27.67-1.5" id="kvg:08188-s8" kvg:type="&#12752;b" />
			</g>
		</g>
		<g id="kvg:08188-g6" kvg:position="bottom">
			<g id="kvg:08188-g7" kvg:element="&#20866;">
				<path d="M48.58,47.08c0.67,0.92,2,3.25,1.83,5.17c-0.17,1.91,0,38.64,0,41.83" id="kvg:08188-s9" kvg:type="&#12753;" />
				<path d="M50.42,49.58c5.68-0.76,39.14-2.97,40.26-3.23c1.8-0.42,2.9,0.88,2.9,3.59c0,2.96-0.45,31.96-0.45,36.34c0,7.05-4.13,3.47-7.21,1.47" id="kvg:08188-s10" kvg:type="&#12742;a" />
			</g>
			<g id="kvg:08188-g8" kvg:element="&#20799;" kvg:original="&#20843;" kvg:variant="true">
				<g id="kvg:08188-g9" kvg:element="&#20031;">
					<path d="M64.58,51.08c0.35,0.79,0,1.48-0.09,1.97c-0.7,3.58-3.3,8.69-10.16,12.43" id="kvg:08188-s11" kvg:type="&#12754;" />
				</g>
				<path d="M74.63,50.43c0.32,0.61,0.58,1.34,0.6,2.28c0.09,4.22,0.06,3.82,0.06,5.36c0,3.61,2.74,3.01,5.96,3.01c3.4,0,6.18-0.27,6.66-0.54" id="kvg:08188-s12" kvg:type="&#12767;" />
			</g>
			<path d="M56.92,69.75c0.32,0.12,2.66,0.79,3.5,0.83c2.32,0.12,14.2-1.35,21.11-2.05c1-0.1,2.42,0.41,3.05,0.55" id="kvg:08188-s13" kvg:type="&#12752;" />
			<path d="M69.61,72.2c0.77,0.9,1.29,1.44,1.29,2.33c0,3.46-0.19,11.59-0.19,19.41" id="kvg:08188-s14" kvg:type="&#12753;" />
		</g>
	</g>
</g>
</g>
<g id="kvg:StrokeNumbers_08188" style="font-size:8;fill:#808080">
	<text transform="matrix(1 0 0 1 9.25 22.25)">1</text>
	<text transform="matrix(1 0 0 1 21.25 16.25)">2</text>
	<text transform="matrix(1 0 0 1 24.25 35.25)">3</text>
	<text transform="matrix(1 0 0 1 23.25 55.25)">4</text>
	<text transform="matrix(1 0 0 1 45.25 13.25)">5</text>
	<text transform="matrix(1 0 0 1 46.25 29.25)">6</text>
	<text transform="matrix(1 0 0 1 58.25 25.25)">7</text>
	<text transform="matrix(1 0 0 1 60.25 35.25)">8</text>
	<text transform="matrix(1 0 0 1 41.25 47.25)">9</text>
	<text transform="matrix(1 0 0 1 51.25 47.20)">10</text>
	<text transform="matrix(1 0 0 1 55.25 57.25)">11</text>
	<text transform="matrix(1 0 0 1 78.25 55.25)">12</text>
	<text transform="matrix(1 0 0 1 62.25 67.25)">13</text>
	<text transform="matrix(1 0 0 1 59.25 80.25)">14</text>
</g>
</svg>