<svg xmlns="http://www.w3.org/2000/svg" xmlns:kvg="http://kanjivg.tagaini.net" height="109" kun="&#12358;.&#12416;, &#12358;&#12415;" meaning="pus, fester, discharge" on="&#12494;&#12454;, &#12489;&#12454;" viewBox="0 0 109 109" width="109">
<g id="kvg:StrokePaths_081bf" style="fill:none;stroke:#000000;stroke-width:3;stroke-linecap:round;stroke-linejoin:round;">
<g id="kvg:081bf" kvg:element="&#33215;">
	<g id="kvg:081bf-g1" kvg:element="&#26376;" kvg:original="&#32905;" kvg:position="left" kvg:radical="general" kvg:variant="true">
		<path d="M17.47,20.74c0.52,0.95,0.88,1.88,1.05,2.8c0.17,0.92,0.15,25.91-0.41,33.63c-0.8,11-0.86,19.83-8.11,34.72" id="kvg:081bf-s1" kvg:type="&#12754;" />
		<path d="M18.57,22.81c4.18-1.06,11.15-2.34,12.71-2.46c2.8-0.23,3.5,1.31,3.5,2.67c0,3.23-0.53,46.22-0.53,64.55c0,12.61-5.91,3.55-7.7,2.04" id="kvg:081bf-s2" kvg:type="&#12742;a" />
		<path d="M18.57,41.2c4.61-0.35,11.53-1.54,15.58-1.57" id="kvg:081bf-s3" kvg:type="&#12752;a" />
		<path d="M18.01,60.65c3.79-0.08,10.64-0.78,15.79-1.2" id="kvg:081bf-s4" kvg:type="&#12752;a" />
	</g>
	<g id="kvg:081bf-g2" kvg:element="&#36786;" kvg:position="right">
		<g id="kvg:081bf-g3" kvg:element="&#26354;" kvg:position="top">
			<g id="kvg:081bf-g4" kvg:element="&#26085;" kvg:part="1">
				<path d="M48.31,21.55c0.27,0.51,0.83,1.79,1.02,2.44c0.94,3.26,3.56,17.23,3.65,17.91" id="kvg:081bf-s5" kvg:type="&#12753;" />
				<path d="M50.25,22.5c2.52-0.32,33.39-3.65,35.61-3.74c2.25-0.1,2.84,1.39,2.6,3.14c-0.48,3.45-2.76,10.1-4.71,17.08" id="kvg:081bf-s6" kvg:type="&#12757;a" />
			</g>
			<g id="kvg:081bf-g5" kvg:element="&#24318;" kvg:part="1" kvg:variant="true">
				<g id="kvg:081bf-g6" kvg:element="&#20031;">
					<g id="kvg:081bf-g7" kvg:element="&#21313;" kvg:part="1">
						<path d="M59.1,11.89c0.79,0.46,1.74,2.05,1.81,2.98c0.39,5.63,0.86,16.63,1.49,24.76" id="kvg:081bf-s7" kvg:type="&#12753;a" />
					</g>
				</g>
				<path d="M73.07,11.23c1.08,0.46,1.52,2.05,1.41,2.98c-1.01,8.9-1.12,18.53-1.92,23.72" id="kvg:081bf-s8" kvg:type="&#12753;a" />
				<g id="kvg:081bf-g8" kvg:element="&#26085;" kvg:part="2">
					<g id="kvg:081bf-g9" kvg:element="&#21313;" kvg:part="2">
						<path d="M51.35,30.63c2.09,0,32.8-3.1,35.16-3.1" id="kvg:081bf-s9" kvg:type="&#12752;a" />
					</g>
				</g>
				<path d="M53.6,40.69c4.26-0.33,24.92-2.68,30.22-2.96" id="kvg:081bf-s10" kvg:type="&#12752;a" />
			</g>
		</g>
		<g id="kvg:081bf-g10" kvg:element="&#36784;" kvg:position="bottom">
			<g id="kvg:081bf-g11" kvg:element="&#21378;">
				<path d="M48.76,49.54c1.08,0.41,3.05,0.5,4.13,0.41c8.73-0.77,27.66-2.99,32.32-3.34c1.79-0.13,1.96,0.22,3.77,0.4" id="kvg:081bf-s11" kvg:type="&#12752;" />
				<path d="M51.47,50.14c0,22.74-5.13,35.07-12.41,41.74" id="kvg:081bf-s12" kvg:type="&#12754;" />
			</g>
			<path d="M58.01,58.25c0.67,0.29,1.89,0.37,2.56,0.29c4.25-0.5,15.01-2.47,19.24-2.94c1.1-0.12,1.78,0.14,2.33,0.28" id="kvg:081bf-s13" kvg:type="&#12752;" />
			<path d="M52.41,68.22c0.67,0.29,1.89,0.37,2.56,0.29c4.25-0.5,27.78-3.49,32.37-3.58c1.11-0.02,3.2,0.14,3.75,0.28" id="kvg:081bf-s14" kvg:type="&#12752;" />
			<path d="M58.39,70.57c1.06,1.32,0.99,1.89,0.99,3.78c0,8.94-0.07,19.44-0.71,20.9c-0.58,1.33,0.78,2.87,2.26,1.73c1.48-1.13,9.65-9.08,11.62-10.21" id="kvg:081bf-s15" kvg:type="&#12761;" />
			<path d="M86.01,70.74c0.02,0.22,0.04,0.56-0.03,0.87c-0.4,1.83-2.68,5.86-5.8,8.32" id="kvg:081bf-s16" kvg:type="&#12754;" />
			<path d="M67.31,71.69c5.38,1.67,20.85,17.21,25.06,20.4c1.43,1.08,2.65,1.54,4.07,1.85" id="kvg:081bf-s17" kvg:type="&#12751;" />
		</g>
	</g>
</g>
</g>
<g id="kvg:StrokeNumbers_081bf" style="font-size:8;fill:#808080">
	<text transform="matrix(1 0 0 1 12.00 29.00)">1</text>
	<text transform="matrix(1 0 0 1 21.50 18.50)">2</text>
	<text transform="matrix(1 0 0 1 22.50 37.50)">3</text>
	<text transform="matrix(1 0 0 1 22.50 57.50)">4</text>
	<text transform="matrix(1 0 0 1 43.50 30.33)">5</text>
	<text transform="matrix(1 0 0 1 51.50 20.50)">6</text>
	<text transform="matrix(1 0 0 1 52.50 11.50)">7</text>
	<text transform="matrix(1 0 0 1 66.50 8.50)">8</text>
	<text transform="matrix(1 0 0 1 55.00 28.50)">9</text>
	<text transform="matrix(1 0 0 1 53.50 38.50)">10</text>
	<text transform="matrix(1 0 0 1 53.00 47.88)">11</text>
	<text transform="matrix(1 0 0 1 40.50 57.55)">12</text>
	<text transform="matrix(1 0 0 1 57.50 56.48)">13</text>
	<text transform="matrix(1 0 0 1 53.50 66.50)">14</text>
	<text transform="matrix(1 0 0 1 51.50 78.83)">15</text>
	<text transform="matrix(1 0 0 1 75.50 73.50)">16</text>
	<text transform="matrix(1 0 0 1 64.50 79.50)">17</text>
</g>
</svg>