<svg xmlns="http://www.w3.org/2000/svg" xmlns:kvg="http://kanjivg.tagaini.net" height="109" meaning="area between eye and cheek, face" viewBox="0 0 109 109" width="109">
<g id="kvg:StrokePaths_081c9" style="fill:none;stroke:#000000;stroke-width:3;stroke-linecap:round;stroke-linejoin:round;">
<g id="kvg:081c9" kvg:element="&#33225;">
	<g id="kvg:081c9-g1" kvg:element="&#26376;" kvg:original="&#32905;" kvg:position="left" kvg:radical="general" kvg:variant="true">
		<path d="M17.58,19.92c0.51,0.96,1.19,6.58,1.19,3.42c0-0.57,0.25,23.35-0.39,32.68c-0.73,10.68-3.05,25.08-8.8,35.29" id="kvg:081c9-s1" kvg:type="&#12754;" />
		<path d="M19.32,20.82c1.76-0.06,10.15-1.77,11.46-1.89c2.34-0.22,2.93,1.27,2.93,2.59c0,3.13-0.44,45.36-0.44,63.15c0,12.24-4.85,5.88-6.35,4.41" id="kvg:081c9-s2" kvg:type="&#12742;a" />
		<path d="M19.65,41.63c3.48-0.19,10.04-1.2,13.1-1.21" id="kvg:081c9-s3" kvg:type="&#12752;a" />
		<path d="M18.25,61.42c3.15-0.07,9.55-0.81,13.83-1.17" id="kvg:081c9-s4" kvg:type="&#12752;a" />
	</g>
	<g id="kvg:081c9-g2" kvg:element="&#20681;" kvg:position="right">
		<g id="kvg:081c9-g3" kvg:element="&#20154;" kvg:position="top">
			<path d="M65.23,13.67c0.07,0.73,0.3,1.97-0.13,2.95c-2.73,6.26-10.44,19.42-23.35,28.26" id="kvg:081c9-s5" kvg:type="&#12754;" />
			<path d="M66.4,15.97c3.9,4.68,20.68,19.96,24.98,23.38c1.46,1.16,3.33,1.66,4.79,1.99" id="kvg:081c9-s6" kvg:type="&#12751;" />
		</g>
		<g id="kvg:081c9-g4" kvg:position="bottom">
			<g id="kvg:081c9-g5" kvg:element="&#19968;">
				<path d="M54.25,41.25c0.46,0.17,3.2,0.51,3.67,0.5c3.53-0.05,16.49-2.53,19.33-2.33c0.76,0.05,3.12,0.25,3.5,0.33" id="kvg:081c9-s7" kvg:type="&#12752;" />
			</g>
			<g id="kvg:081c9-g6" kvg:element="&#21475;">
				<path d="M45.25,51.25c0.2,0.26,1.1,0.85,1.19,1.17c0.71,2.54,1.5,9.77,1.98,14.33" id="kvg:081c9-s8" kvg:type="&#12753;" />
				<path d="M47.75,52.53c6.75-1.19,11.87-1.42,14.99-1.77c1.14-0.13,1.82,0.75,1.66,1.48c-0.68,3.06-1.47,7.53-2.47,11.76" id="kvg:081c9-s9" kvg:type="&#12757;b" />
				<path d="M48.58,66c3.92-0.46,9.77-1.26,15.16-1.98" id="kvg:081c9-s10" kvg:type="&#12752;b" />
			</g>
			<g id="kvg:081c9-g7" kvg:element="&#21475;">
				<path d="M70.08,49.58c0.2,0.26,1.24,0.67,1.33,1c0.7,2.58,1.54,9.69,2.02,14.32" id="kvg:081c9-s11" kvg:type="&#12753;" />
				<path d="M72.43,51.44c5.78-0.93,12.56-1.48,15.8-1.8c1.18-0.12,1.9,0.69,1.73,1.38c-0.7,2.84-0.83,6.13-1.87,10.06" id="kvg:081c9-s12" kvg:type="&#12757;b" />
				<path d="M74.39,63.4c4.14-0.3,9.86-0.82,15.55-1.28" id="kvg:081c9-s13" kvg:type="&#12752;b" />
			</g>
			<g id="kvg:081c9-g8" kvg:element="&#20154;">
				<path d="M57.07,69.55c0.17,1.09,0.11,2.13-0.12,2.84c-2.01,6.17-6.62,14.34-14.88,21.78" id="kvg:081c9-s14" kvg:type="&#12754;" />
				<path d="M56.71,78.93c2.97,1.6,6.76,5.87,8.21,9.9" id="kvg:081c9-s15" kvg:type="&#12751;" />
			</g>
			<g id="kvg:081c9-g9" kvg:element="&#20154;">
				<path d="M80.29,67.91c0.16,1.13,0.1,2.21-0.12,2.94c-1.93,6.4-6.36,14.86-14.28,22.57" id="kvg:081c9-s16" kvg:type="&#12754;" />
				<path d="M81.03,77.86c4.56,2.51,10.39,9.19,12.61,15.51" id="kvg:081c9-s17" kvg:type="&#12751;" />
			</g>
		</g>
	</g>
</g>
</g>
<g id="kvg:StrokeNumbers_081c9" style="font-size:8;fill:#808080">
	<text transform="matrix(1 0 0 1 9.25 26.25)">1</text>
	<text transform="matrix(1 0 0 1 20.25 17.25)">2</text>
	<text transform="matrix(1 0 0 1 22.25 38.25)">3</text>
	<text transform="matrix(1 0 0 1 22.25 58.25)">4</text>
	<text transform="matrix(1 0 0 1 56.25 14.25)">5</text>
	<text transform="matrix(1 0 0 1 75.25 21.25)">6</text>
	<text transform="matrix(1 0 0 1 59.25 38.25)">7</text>
	<text transform="matrix(1 0 0 1 39.25 59.25)">8</text>
	<text transform="matrix(1 0 0 1 48.25 49.25)">9</text>
	<text transform="matrix(1 0 0 1 51.25 62.25)">10</text>
	<text transform="matrix(1 0 0 1 65.00 62.63)">11</text>
	<text transform="matrix(1 0 0 1 73.25 48.25)">12</text>
	<text transform="matrix(1 0 0 1 76.25 60.25)">13</text>
	<text transform="matrix(1 0 0 1 45.25 75.25)">14</text>
	<text transform="matrix(1 0 0 1 59.25 80.25)">15</text>
	<text transform="matrix(1 0 0 1 69.25 73.25)">16</text>
	<text transform="matrix(1 0 0 1 83.25 78.25)">17</text>
</g>
</svg>