<svg xmlns="http://www.w3.org/2000/svg" xmlns:kvg="http://kanjivg.tagaini.net" height="109" kun="&#12418;&#12420;.&#12358;, &#12418;&#12420;&#12356;&#12406;&#12397;" meaning="moor, berth" on="&#12507;&#12454;" viewBox="0 0 109 109" width="109">
<g id="kvg:StrokePaths_0822b" style="fill:none;stroke:#000000;stroke-width:3;stroke-linecap:round;stroke-linejoin:round;">
<g id="kvg:0822b" kvg:element="&#33323;">
	<g id="kvg:0822b-g1" kvg:element="&#33311;" kvg:position="left" kvg:radical="general">
		<path d="M27.89,11.17c0.61,1.58,0.24,2.49-0.11,4.09c-0.35,1.59-1.78,2.5-6.11,10.66" id="kvg:0822b-s1" kvg:type="&#12754;" />
		<path d="M16.92,28.42c0.9,1.35,1.29,3.02,1.29,4.71c0,1.69,0.12,24.01,0.23,27.06C18.95,75.53,13.5,91.5,7.92,96.92" id="kvg:0822b-s2" kvg:type="&#12754;" />
		<path d="M17.25,29.25c3.6-0.61,13.91-2.56,17.17-3.17c3.26-0.61,4.12,0.78,4.12,2.92c0,2.14-0.34,53.99-0.34,57.05c0,11.7-6.26,2.81-6.94,2.2" id="kvg:0822b-s3" kvg:type="&#12742;a" />
		<path d="M24.28,35.44c1.85,1.91,6.46,6.99,6.92,9.22" id="kvg:0822b-s4" kvg:type="&#12756;" />
		<path d="M26.75,56.08c1.12,1.59,1.41,2.43,1.41,3.7c0,1.27,0.21,15.97-0.24,19.13" id="kvg:0822b-s5" kvg:type="&#12753;" />
		<path d="M9.92,56.75c1.33,1.5,2.51,1.15,3.79,0.83S44.39,47.67,46,47.67" id="kvg:0822b-s6" kvg:type="&#12736;/&#12752;" />
	</g>
	<g id="kvg:0822b-g2" kvg:element="&#26041;" kvg:position="right">
		<g id="kvg:0822b-g3" kvg:element="&#20128;" kvg:position="top">
			<path d="M68.58,11.92c1.47,0.63,2.65,1.83,2.65,4.4c0,4.58-0.25,8.73,0.02,12.6" id="kvg:0822b-s7" kvg:type="&#12753;a" />
			<path d="M45.42,31.42c1.63,0.25,3.08,0.33,5.83,0.17c10.73-0.65,27.76-3.47,42.33-4c2.25-0.08,4.17,0.17,5.83,0.83" id="kvg:0822b-s8" kvg:type="&#12752;" />
		</g>
		<g id="kvg:0822b-g4" kvg:position="bottom">
			<path d="M70.08,36.92c6.17,3.83,11.92,5.33,18.33,6.83c3.02,0.71,2.98,2.04,2.5,4.83c-1.34,7.8-12.16,35.41-16,41.5c-4.16,6.61-6.93-0.45-8.17-1.33" id="kvg:0822b-s9" kvg:type="&#12742;a" />
			<path d="M69.58,33.42c0.38,1.58,0.62,2.56,0.17,4.33C66.62,49.98,57.71,76.92,43.67,88.5" id="kvg:0822b-s10" kvg:type="&#12754;" />
		</g>
	</g>
</g>
</g>
<g id="kvg:StrokeNumbers_0822b" style="font-size:8;fill:#808080">
	<text transform="matrix(1 0 0 1 21.19 8.25)">1</text>
	<text transform="matrix(1 0 0 1 8.25 34.25)">2</text>
	<text transform="matrix(1 0 0 1 30.25 23.25)">3</text>
	<text transform="matrix(1 0 0 1 22.19 48.66)">4</text>
	<text transform="matrix(1 0 0 1 22.25 63.25)">5</text>
	<text transform="matrix(1 0 0 1 1.25 54.25)">6</text>
	<text transform="matrix(1 0 0 1 61.25 11.25)">7</text>
	<text transform="matrix(1 0 0 1 44.25 28.25)">8</text>
	<text transform="matrix(1 0 0 1 77.25 38.25)">9</text>
	<text transform="matrix(1 0 0 1 58.25 40.25)">10</text>
</g>
</svg>