<svg xmlns="http://www.w3.org/2000/svg" xmlns:kvg="http://kanjivg.tagaini.net" height="109" meaning="fighting ship" viewBox="0 0 109 109" width="109">
<g id="kvg:StrokePaths_0825f" style="fill:none;stroke:#000000;stroke-width:3;stroke-linecap:round;stroke-linejoin:round;">
<g id="kvg:0825f" kvg:element="&#33375;">
	<g id="kvg:0825f-g1" kvg:element="&#33311;" kvg:position="left" kvg:radical="general">
		<path d="M27.68,10.75c1.17,1.86,0.68,2.79-0.1,4.11C26,17.5,23.5,21.5,20.17,25.25" id="kvg:0825f-s1" kvg:type="&#12754;" />
		<path d="M17.42,27.08c0.91,1.27,1.17,2.41,1.17,4c0,1.59,0.58,22.79,0.68,25.65C19.72,69.25,15.5,86,8.08,91.25" id="kvg:0825f-s2" kvg:type="&#12754;" />
		<path d="M18.5,28.64c3.6-0.64,12.69-2.86,15.95-3.5c3.26-0.64,3.09,1.27,3.09,3.5c0,2.22-0.34,56.21-0.34,59.39c0,9.97-6.25,2.36-6.94,1.72" id="kvg:0825f-s3" kvg:type="&#12742;a" />
		<path d="M24.7,34.19c1.43,2.03,4.99,7.44,5.34,9.8" id="kvg:0825f-s4" kvg:type="&#12756;" />
		<path d="M26.25,54.92c1,1.61,1.33,2.55,1.33,3.83c0,2.2,0.32,18.24,0,20.83" id="kvg:0825f-s5" kvg:type="&#12753;" />
		<path d="M10.58,54.58c0.38,1.24,2.88,0.83,4.08,0.49c1.21-0.33,28.32-9.74,29.83-9.74" id="kvg:0825f-s6" kvg:type="&#12736;/&#12752;" />
	</g>
	<g id="kvg:0825f-g2" kvg:element="&#31461;" kvg:position="right">
		<g id="kvg:0825f-g3" kvg:element="&#31435;" kvg:position="top">
			<g id="kvg:0825f-g4" kvg:element="&#20128;" kvg:position="top">
				<path d="M66.08,11.42c0.79,0.72,1.67,1.82,1.67,3.5c0,1.67,0,2.45,0,7" id="kvg:0825f-s7" kvg:type="&#12753;a" />
				<path d="M48.25,23.19c0.89,0.22,3.51,0.88,6.5,0.69c8-0.52,23-2.05,30.5-2.68c2.49-0.21,4.59,0.46,5.33,0.57" id="kvg:0825f-s8" kvg:type="&#12752;" />
			</g>
			<g id="kvg:0825f-g5" kvg:position="bottom">
				<path d="M55.85,26.37c3.12,3.63,4.54,6.83,4.83,9.23" id="kvg:0825f-s9" kvg:type="&#12756;" />
				<path d="M80.58,23.25c0.35,0.32,0.77,1.57,0.73,1.83c-0.28,1.81-2.88,7.56-3.58,8.95" id="kvg:0825f-s10" kvg:type="&#12754;" />
				<path d="M44.75,39.08c1.11,0.31,3.25,0.67,6.17,0.33C63.33,38,76.8,36.47,90.75,36.08c3-0.08,5.25,0.18,6.17,0.33" id="kvg:0825f-s11" kvg:type="&#12752;" />
			</g>
		</g>
		<g id="kvg:0825f-g6" kvg:element="&#37324;" kvg:position="bottom">
			<path d="M51.08,47.58c0.26,0.33,1.02,1.91,1.17,2.33c1.19,3.47,2.26,15.53,3,22" id="kvg:0825f-s12" kvg:type="&#12753;" />
			<path d="M53.43,49.16c9.2-0.92,25.48-2.45,32.35-3.22c2.52-0.28,4.22,2.16,4.09,3.16c-0.47,3.67-1.68,13.36-3.45,21.15" id="kvg:0825f-s13" kvg:type="&#12757;a" />
			<path d="M54.58,59.25c3-0.34,30.02-2.36,32.5-2.5" id="kvg:0825f-s14" kvg:type="&#12752;a" />
			<path d="M55.75,70.42c6.63-0.37,20.85-1.73,30-2.33" id="kvg:0825f-s15" kvg:type="&#12752;a" />
			<path d="M69.13,50.04c0.46,0.53,0.78,1.52,0.8,2.82c0.16,9.48,0.05,36.22,0.05,38.86" id="kvg:0825f-s16" kvg:type="&#12753;a" />
			<path d="M51.58,79.78c0.65,0.25,4.34,0.84,5,0.81c6.8-0.28,19.42-1.71,27.83-1.76c0.35,0,3.43,0.05,5,0.41" id="kvg:0825f-s17" kvg:type="&#12752;" />
			<path d="M46.25,92.97c0.86,0.29,4.76,0.86,5.62,0.81c5.32-0.29,22.05-2,37.88-2c1.43,0,5.62,0.3,6.33,0.45" id="kvg:0825f-s18" kvg:type="&#12752;" />
		</g>
	</g>
</g>
</g>
<g id="kvg:StrokeNumbers_0825f" style="font-size:8;fill:#808080">
	<text transform="matrix(1 0 0 1 20.25 9.88)">1</text>
	<text transform="matrix(1 0 0 1 8.25 31.25)">2</text>
	<text transform="matrix(1 0 0 1 30.25 23.25)">3</text>
	<text transform="matrix(1 0 0 1 22.25 47.25)">4</text>
	<text transform="matrix(1 0 0 1 22.25 64.25)">5</text>
	<text transform="matrix(1 0 0 1 2.25 52.25)">6</text>
	<text transform="matrix(1 0 0 1 58.25 11.25)">7</text>
	<text transform="matrix(1 0 0 1 45.25 20.25)">8</text>
	<text transform="matrix(1 0 0 1 50.25 32.25)">9</text>
	<text transform="matrix(1 0 0 1 69.25 31.25)">10</text>
	<text transform="matrix(1 0 0 1 42.25 36.25)">11</text>
	<text transform="matrix(1 0 0 1 42.25 56.05)">12</text>
	<text transform="matrix(1 0 0 1 53.25 46.25)">13</text>
	<text transform="matrix(1 0 0 1 57.25 57.25)">14</text>
	<text transform="matrix(1 0 0 1 57.25 68.25)">15</text>
	<text transform="matrix(1 0 0 1 73.25 54.25)">16</text>
	<text transform="matrix(1 0 0 1 42.25 79.25)">17</text>
	<text transform="matrix(1 0 0 1 41.25 90.25)">18</text>
</g>
</svg>