<svg xmlns="http://www.w3.org/2000/svg" xmlns:kvg="http://kanjivg.tagaini.net" height="109" kun="&#12358;&#12375;&#12392;&#12425;" meaning="northeast (Oriental zodiac), stopping, good radical (no. 138)" on="&#12467;&#12531;, &#12468;&#12531;" viewBox="0 0 109 109" width="109">
<g id="kvg:StrokePaths_0826e" style="fill:none;stroke:#000000;stroke-width:3;stroke-linecap:round;stroke-linejoin:round;">
<g id="kvg:0826e" kvg:element="&#33390;" kvg:radical="general">
	<path d="M31.01,16.87c1.49,1.01,3.85,0.87,6.74,0.46c8.19-1.17,21.42-3.12,27.25-3.7c3.15-0.31,6.03,1.05,5.81,4.25C70.28,25.27,68.5,40.25,67.25,47" id="kvg:0826e-s1" kvg:type="&#12757;" />
	<path d="M34.25,32.5c9.5-1.38,27.81-3.48,34.75-4" id="kvg:0826e-s2" kvg:type="&#12752;a" />
	<path d="M34.36,47.79C44.25,46.75,56,45.5,66.75,44.5" id="kvg:0826e-s3" kvg:type="&#12752;a" />
	<path d="M32.26,17.87c0.81,0.81,0.94,2.01,0.94,3c0,3.26-0.08,66.92-0.08,71.51c0,4.11,1.22,5.28,4.75,2.25c5.54-4.75,10.88-9,15.32-12.71" id="kvg:0826e-s4" kvg:type="&#12761;" />
	<path d="M75.26,50.92c-0.01,1.08-0.41,2.18-1.1,2.84c-4.79,4.61-7.04,7.11-10.67,10.11" id="kvg:0826e-s5" kvg:type="&#12754;" />
	<path d="M42.35,53.57c4.62,0,23.79,18.52,34.32,27.52c3.64,3.12,8.83,6.91,13.89,8.46" id="kvg:0826e-s6" kvg:type="&#12751;" />
</g>
</g>
<g id="kvg:StrokeNumbers_0826e" style="font-size:8;fill:#808080">
	<text transform="matrix(1 0 0 1 34.50 14.50)">1</text>
	<text transform="matrix(1 0 0 1 37.50 28.55)">2</text>
	<text transform="matrix(1 0 0 1 37.50 44.98)">3</text>
	<text transform="matrix(1 0 0 1 25.50 24.50)">4</text>
	<text transform="matrix(1 0 0 1 76.50 48.50)">5</text>
	<text transform="matrix(1 0 0 1 39.75 62.50)">6</text>
</g>
</svg>