<svg xmlns="http://www.w3.org/2000/svg" xmlns:kvg="http://kanjivg.tagaini.net" height="109" kun="&#12363;.&#12427;" meaning="cutting (grass)" on="&#12460;&#12452;, &#12459;&#12452;" viewBox="0 0 109 109" width="109">
<g id="kvg:StrokePaths_082c5" style="fill:none;stroke:#000000;stroke-width:3;stroke-linecap:round;stroke-linejoin:round;">
<g id="kvg:082c5" kvg:element="&#33477;">
	<g id="kvg:082c5-g1" kvg:element="&#33401;" kvg:original="&#33400;" kvg:position="top" kvg:radical="general" kvg:variant="true">
		<path d="M18.5,26.27c3.06,0.62,6.14,0.69,9.26,0.33c14.87-1.72,37.73-4.11,52.12-4.85c3.9-0.25,7.77-0.08,11.62,0.53" id="kvg:082c5-s1" kvg:type="&#12752;" />
		<path d="M35.75,14.5c1.06,1.06,1.31,2.12,1.5,3C39,25.75,40,32.25,40.5,35.25" id="kvg:082c5-s2" kvg:type="&#12753;a" />
		<path d="M69.5,11c0.38,1.5,0.28,2.25,0,3.75C68.12,22.12,67.38,25.5,66,32" id="kvg:082c5-s3" kvg:type="&#12753;a" />
	</g>
	<g id="kvg:082c5-g2" kvg:element="&#21000;" kvg:position="bottom">
		<g id="kvg:082c5-g3" kvg:element="&#20034;" kvg:position="left">
			<g id="kvg:082c5-g4" kvg:element="&#20031;">
				<path d="M46.31,43.34c0.19,1.66,0.17,3.25-0.74,5.38c-8.82,20.65-16.45,34.03-32.36,45.01" id="kvg:082c5-s4" kvg:type="&#12754;" />
			</g>
			<path d="M22.48,54.13C34.5,60,45.85,72.17,51.74,81.56" id="kvg:082c5-s5" kvg:type="&#12751;" />
		</g>
		<g id="kvg:082c5-g5" kvg:element="&#20994;" kvg:original="&#20992;" kvg:position="right" kvg:variant="true">
			<path d="M64.21,44c0.79,0.74,1.17,2.63,1.17,4.3c0,8.55,0,17.65,0,24.08c0,3.22,0,5.77,0,7.25" id="kvg:082c5-s6" kvg:type="&#12753;" />
			<path d="M82.16,33.7c0.79,0.74,1.17,2.18,1.17,4.3c0,12.25,0.04,51.5,0.04,55.5c0,10.6-6.31,1.21-7.52,0.2" id="kvg:082c5-s7" kvg:type="&#12762;" />
		</g>
	</g>
</g>
</g>
<g id="kvg:StrokeNumbers_082c5" style="font-size:8;fill:#808080">
	<text transform="matrix(1 0 0 1 12.50 26.50)">1</text>
	<text transform="matrix(1 0 0 1 25.50 14.50)">2</text>
	<text transform="matrix(1 0 0 1 60.50 11.50)">3</text>
	<text transform="matrix(1 0 0 1 37.50 45.50)">4</text>
	<text transform="matrix(1 0 0 1 14.50 54.50)">5</text>
	<text transform="matrix(1 0 0 1 55.50 44.50)">6</text>
	<text transform="matrix(1 0 0 1 72.25 35.50)">7</text>
</g>
</svg>