<svg xmlns="http://www.w3.org/2000/svg" xmlns:kvg="http://kanjivg.tagaini.net" height="109" meaning="any, at all, in the least" viewBox="0 0 109 109" width="109">
<g id="kvg:StrokePaths_082df" style="fill:none;stroke:#000000;stroke-width:3;stroke-linecap:round;stroke-linejoin:round;">
<g id="kvg:082df" kvg:element="&#33503;">
	<g id="kvg:082df-g1" kvg:element="&#33401;" kvg:original="&#33400;" kvg:position="top" kvg:radical="general" kvg:variant="true">
		<path d="M19.75,25.52c1.29,0.53,2.8,0.63,4.1,0.53c11.9-0.96,49.9-4.96,63.62-5.03c2.16-0.01,3.45,0.25,4.53,0.51" id="kvg:082df-s1" kvg:type="&#12752;" />
		<path d="M33.5,13c1.61,1.27,2.13,1.66,2.3,2.44c1.61,7.33,1.7,12.56,2.45,17.06" id="kvg:082df-s2" kvg:type="&#12753;a" />
		<path d="M66.61,10.25c1.14,0.75,1.46,2.69,1.24,3.89c-1.31,7.01-1.91,9.52-3.34,16.11" id="kvg:082df-s3" kvg:type="&#12753;a" />
	</g>
	<g id="kvg:082df-g2" kvg:element="&#21477;" kvg:position="bottom">
		<g id="kvg:082df-g3" kvg:element="&#21241;">
			<g id="kvg:082df-g4" kvg:element="&#20031;">
				<path d="M44.62,30.75c0.08,0.69,0.17,1.77-0.16,2.76c-1.92,5.82-12.91,18.58-27.96,26.4" id="kvg:082df-s4" kvg:type="&#12754;" />
			</g>
			<path d="M42.31,41.72c0.97,0.63,2.33,0.84,3.88,0.42c1.55-0.42,31.65-4.31,35.49-4.86c2.91-0.42,4.27,1.47,4.07,4.4c-0.43,6.49-4.65,39.01-10.86,53.25c-1.79,4.1-3.92,1.57-6.21-1.05" id="kvg:082df-s5" kvg:type="&#12742;" />
		</g>
		<g id="kvg:082df-g5" kvg:element="&#21475;">
			<path d="M30.67,56.05c0.38,0.3,0.77,0.56,0.94,0.94c1.33,3.01,2.32,13.53,3.22,18.94" id="kvg:082df-s6" kvg:type="&#12753;" />
			<path d="M32.15,58.22c9.85-1.7,21.48-3.38,26.79-3.83c1.94-0.17,3.23,0.78,2.83,2.33c-1.03,4.03-2,8.85-3.71,14.39" id="kvg:082df-s7" kvg:type="&#12757;b" />
			<path d="M35.09,73.89c6.24-0.51,16.8-1.39,25.37-2.17" id="kvg:082df-s8" kvg:type="&#12752;b" />
		</g>
	</g>
</g>
</g>
<g id="kvg:StrokeNumbers_082df" style="font-size:8;fill:#808080">
	<text transform="matrix(1 0 0 1 12.25 26.25)">1</text>
	<text transform="matrix(1 0 0 1 25.00 14.25)">2</text>
	<text transform="matrix(1 0 0 1 57.25 11.25)">3</text>
	<text transform="matrix(1 0 0 1 32.25 40.25)">4</text>
	<text transform="matrix(1 0 0 1 50.25 38.25)">5</text>
	<text transform="matrix(1 0 0 1 25.25 65.25)">6</text>
	<text transform="matrix(1 0 0 1 37.00 53.93)">7</text>
	<text transform="matrix(1 0 0 1 39.00 70.25)">8</text>
</g>
</svg>