<svg xmlns="http://www.w3.org/2000/svg" xmlns:kvg="http://kanjivg.tagaini.net" height="109" meaning="torch" viewBox="0 0 109 109" width="109">
<g id="kvg:StrokePaths_082e3" style="fill:none;stroke:#000000;stroke-width:3;stroke-linecap:round;stroke-linejoin:round;">
<g id="kvg:082e3" kvg:element="&#33507;">
	<g id="kvg:082e3-g1" kvg:element="&#33401;" kvg:original="&#33400;" kvg:position="top" kvg:radical="general" kvg:variant="true">
		<path d="M16.08,24.42c2.32,0.94,5.96,0.75,8.5,0.5c14.67-1.42,46.17-4.33,59.89-4.41c2.55-0.01,5.3,0.58,6.62,0.91" id="kvg:082e3-s1" kvg:type="&#12752;" />
		<path d="M36.08,12.25c1.67,0.75,2.72,2.11,2.83,3c1.08,8.25,1.5,16,2,19" id="kvg:082e3-s2" kvg:type="&#12753;a" />
		<path d="M66.25,10.08c1.25,1.42,1.62,2.44,1.25,3.92c-1.12,4.5-2.12,12-3.75,17.75" id="kvg:082e3-s3" kvg:type="&#12753;a" />
	</g>
	<g id="kvg:082e3-g2" kvg:element="&#24040;" kvg:position="bottom">
		<g id="kvg:082e3-g3" kvg:element="&#21274;" kvg:part="1" kvg:variant="true">
			<path d="M23.92,39.92C25,41,26.13,42.5,26.13,43.36c0,0.72,0,48.69-0.23,52.94" id="kvg:082e3-s4" kvg:type="&#12753;" />
		</g>
		<g id="kvg:082e3-g4" kvg:element="&#20108;" kvg:part="1">
			<path d="M26.09,41.93c11.28-0.64,36.66-3.18,53.82-4.18c3.94-0.23,5.08-0.25,7.5,0.67" id="kvg:082e3-s5" kvg:type="&#12752;" />
		</g>
		<path d="M26.42,58.58c25.09-1.34,29.06-2.1,46.45-3.61c2.64-0.23,4.89,0.77,4.72,2.77c-0.34,4.16-1.33,9.33-2.5,14" id="kvg:082e3-s6" kvg:type="&#12757;" />
		<path d="M27.08,75.42c10.14-0.81,42.3-3.33,51.83-3.83" id="kvg:082e3-s7" kvg:type="&#12752;" />
		<g id="kvg:082e3-g5" kvg:element="&#20108;" kvg:part="2">
			<g id="kvg:082e3-g6" kvg:element="&#21274;" kvg:part="2" kvg:variant="true">
				<path d="M25.92,96.08c11.49-0.6,27.79-2.9,54.5-3.5c4.05-0.09,10.67,0.5,12.83,1.83" id="kvg:082e3-s8" kvg:type="&#12752;" />
			</g>
		</g>
	</g>
</g>
</g>
<g id="kvg:StrokeNumbers_082e3" style="font-size:8;fill:#808080">
	<text transform="matrix(1 0 0 1 9.25 25.25)">1</text>
	<text transform="matrix(1 0 0 1 27.25 11.60)">2</text>
	<text transform="matrix(1 0 0 1 57.25 11.25)">3</text>
	<text transform="matrix(1 0 0 1 14.25 48.25)">4</text>
	<text transform="matrix(1 0 0 1 25.25 38.25)">5</text>
	<text transform="matrix(1 0 0 1 30.25 55.25)">6</text>
	<text transform="matrix(1 0 0 1 30.25 71.25)">7</text>
	<text transform="matrix(1 0 0 1 30.25 92.25)">8</text>
</g>
</svg>