<svg xmlns="http://www.w3.org/2000/svg" xmlns:kvg="http://kanjivg.tagaini.net" height="109" kun="&#12367;&#12427;.&#12375;&#12356;, -&#12368;&#12427;.&#12375;&#12356;, &#12367;&#12427;.&#12375;&#12416;, &#12367;&#12427;.&#12375;&#12417;&#12427;, &#12395;&#12364;.&#12356;, &#12395;&#12364;.&#12427;" meaning="suffering, trial, worry, hardship, feel bitter, scowl" on="&#12463;" viewBox="0 0 109 109" width="109">
<g id="kvg:StrokePaths_082e6" style="fill:none;stroke:#000000;stroke-width:3;stroke-linecap:round;stroke-linejoin:round;">
<g id="kvg:082e6" kvg:element="&#33510;">
	<g id="kvg:082e6-g1" kvg:element="&#33401;" kvg:original="&#33400;" kvg:position="top" kvg:radical="general" kvg:variant="true">
		<path d="M19.5,29.65c3.31,0.68,6.61,0.8,9.93,0.43c17.14-1.91,33.6-3.07,52.71-4.02c3.38-0.14,6.75,0.05,10.1,0.58" id="kvg:082e6-s1" kvg:type="&#12752;" />
		<path d="M37.25,15.25c1.06,1.06,1.38,2.25,1.5,3.5C39.53,26.53,40.09,31.42,41,39" id="kvg:082e6-s2" kvg:type="&#12753;a" />
		<path d="M71.5,13.75c0.42,1.18,0.6,2.52,0.25,4c-1.5,6.25-2.5,11-4.5,19.5" id="kvg:082e6-s3" kvg:type="&#12753;a" />
	</g>
	<g id="kvg:082e6-g2" kvg:element="&#21476;" kvg:phon="&#21476;" kvg:position="bottom">
		<g id="kvg:082e6-g3" kvg:element="&#21313;">
			<path d="M15.62,56.19c3.46,0.6,6.92,0.72,10.36,0.27c17-2.22,37.18-3.78,56.63-4.78c3.97-0.2,7.93-0.16,11.89,0.23" id="kvg:082e6-s4" kvg:type="&#12752;" />
			<path d="M52.83,36.75c1.02,1.02,1.56,2.62,1.56,3.71c0,8.42,0.02,21.42,0.02,29.04" id="kvg:082e6-s5" kvg:type="&#12753;a" />
		</g>
		<g id="kvg:082e6-g4" kvg:element="&#21475;">
			<path d="M33.02,71.09c0.82,0.82,1.42,1.87,1.59,3.02c0.84,5.74,1.9,11.46,2.93,18.62c0.18,1.27,0.36,2.53,0.54,3.78" id="kvg:082e6-s6" kvg:type="&#12753;" />
			<path d="M35.1,72.45c10.08-0.93,31.36-3.31,38.23-3.46c2.84-0.06,4.22,2.34,3.88,3.74c-1.34,5.4-3.09,11.28-5.05,17.96" id="kvg:082e6-s7" kvg:type="&#12757;b" />
			<path d="M39.51,93.83c8.69-0.54,19.65-1.53,29.62-2.19c1.62-0.11,3.15-0.2,4.55-0.27" id="kvg:082e6-s8" kvg:type="&#12752;b" />
		</g>
	</g>
</g>
</g>
<g id="kvg:StrokeNumbers_082e6" style="font-size:8;fill:#808080">
	<text transform="matrix(1 0 0 1 13.50 31.63)">1</text>
	<text transform="matrix(1 0 0 1 28.50 15.50)">2</text>
	<text transform="matrix(1 0 0 1 63.50 14.50)">3</text>
	<text transform="matrix(1 0 0 1 8.25 57.50)">4</text>
	<text transform="matrix(1 0 0 1 46.50 46.50)">5</text>
	<text transform="matrix(1 0 0 1 26.25 78.50)">6</text>
	<text transform="matrix(1 0 0 1 37.50 69.50)">7</text>
	<text transform="matrix(1 0 0 1 42.75 89.50)">8</text>
</g>
</svg>