<svg xmlns="http://www.w3.org/2000/svg" xmlns:kvg="http://kanjivg.tagaini.net" height="109" kun="&#12367;&#12373;" meaning="adlay, plantain" on="&#12452;, &#12471;, &#12527;" viewBox="0 0 109 109" width="109">
<g id="kvg:StrokePaths_082e1" style="fill:none;stroke:#000000;stroke-width:3;stroke-linecap:round;stroke-linejoin:round;">
<g id="kvg:082e1" kvg:element="&#33505;">
	<g id="kvg:082e1-g1" kvg:element="&#33401;" kvg:original="&#33400;" kvg:position="top" kvg:radical="general" kvg:variant="true">
		<path d="M17.25,23.92c1.29,0.53,6.8,0.73,8.1,0.63c11.9-0.96,45.68-4.06,59.4-4.13c2.16-0.01,6.25,0.9,7.33,1.17" id="kvg:082e1-s1" kvg:type="&#12752;" />
		<path d="M37.75,12.25c1,1,2.57,2.75,2.67,3.67c1.08,10.58,1.62,15.95,2.17,19" id="kvg:082e1-s2" kvg:type="&#12753;a" />
		<path d="M66.08,10.25c1.12,1,1.82,2.15,1.67,3.67c-0.5,5-2.38,14.08-4,19.83" id="kvg:082e1-s3" kvg:type="&#12753;a" />
	</g>
	<g id="kvg:082e1-g2" kvg:element="&#20197;" kvg:position="bottom" kvg:variant="true">
		<g id="kvg:082e1-g3" kvg:position="left">
			<path d="m21.591369,40.667301c1.09,0.5,2.28,1.72,2.46,3.25,1.67,14.37,3.67,31,4.92,39.75" id="kvg:082e1-s4" kvg:type="&#12753;" />
			<path d="m15.280894,90.593896c2.25,1.32,3.9,0.34,6.32,-1.32,1.61,-1.11,14.59,-10.49,21.43,-15.82" id="kvg:082e1-s5" kvg:type="&#12736;" />
			<g id="kvg:082e1-g4" kvg:element="&#20022;">
				<path d="m42.400494,42.083327c4.3,4.16,11.11,17.12,12.18,23.59" id="kvg:082e1-s6" kvg:type="&#12756;" />
			</g>
		</g>
		<g id="kvg:082e1-g5" kvg:element="&#20154;" kvg:position="right">
			<path d="M75.75,39c1.25,1.75,1.9,3.26,1.5,5.25C72.87,66.2,66.5,85.5,48.06,98.32" id="kvg:082e1-s7" kvg:type="&#12754;" />
			<path d="M72.1,72.17C78.44,76.6,88.48,90.4,90.06,97.3" id="kvg:082e1-s8" kvg:type="&#12751;" />
		</g>
	</g>
</g>
</g>
<g id="kvg:StrokeNumbers_082e1" style="font-size:8;fill:#808080">
	<text transform="matrix(1 0 0 1 10.25 23.25)">1</text>
	<text transform="matrix(1 0 0 1 28.25 12.25)">2</text>
	<text transform="matrix(1 0 0 1 58.25 10.25)">3</text>
	<text transform="matrix(1 0 0 1 13.25 43.25)">4</text>
	<text transform="matrix(1 0 0 1 8.26 97)">5</text>
	<text transform="matrix(1 0 0 1 31.25 43.25)">6</text>
	<text transform="matrix(1 0 0 1 66.25 42.25)">7</text>
	<text transform="matrix(1 0 0 1 76.25 71.25)">8</text>
</g>
</svg>