<svg xmlns="http://www.w3.org/2000/svg" xmlns:kvg="http://kanjivg.tagaini.net" height="109" meaning="kudzu-like plant" viewBox="0 0 109 109" width="109">
<g id="kvg:StrokePaths_082fb" style="fill:none;stroke:#000000;stroke-width:3;stroke-linecap:round;stroke-linejoin:round;">
<g id="kvg:082fb" kvg:element="&#33531;">
	<g id="kvg:082fb-g1" kvg:element="&#33401;" kvg:original="&#33400;" kvg:position="top" kvg:radical="general" kvg:variant="true">
		<path d="M18.17,21.79c1.34,0.55,3.59,0.87,6.23,0.71c12.86-0.75,47.2-3.27,61.44-3.34c2.24-0.01,5.17,0.34,6.92,1.06" id="kvg:082fb-s1" kvg:type="&#12752;" />
		<path d="M37.92,10.75c1.58,1,2.81,2.62,3,3.5c1.75,8.25,1.83,13.33,2.33,16.33" id="kvg:082fb-s2" kvg:type="&#12753;a" />
		<path d="M67.92,9.42c1.33,1.08,1.21,2.66,1,4.17c-0.92,6.58-2.04,11.35-3.5,16.5" id="kvg:082fb-s3" kvg:type="&#12753;a" />
	</g>
	<g id="kvg:082fb-g2" kvg:element="&#20184;" kvg:position="bottom">
		<g id="kvg:082fb-g3" kvg:element="&#20155;" kvg:original="&#20154;" kvg:position="left" kvg:variant="true">
			<path d="M39.86,33.84c0.29,1.67-0.08,3.86-1.03,5.29c-6.07,9.13-14.35,20.63-28.24,31.74" id="kvg:082fb-s4" kvg:type="&#12754;" />
			<path d="M31.19,52.31c0.45,0.85,1.19,2.62,1.22,3.8c0.33,11.14,0.5,37.14,0.33,43.31" id="kvg:082fb-s5" kvg:type="&#12753;" />
		</g>
		<g id="kvg:082fb-g4" kvg:element="&#23544;" kvg:position="right">
			<path d="M38.42,52.58c2.58,0.92,5.95,1.12,7.33,1c10-0.83,28.61-3.01,41.67-3.83c2.28-0.14,5.52,0.66,6.67,1" id="kvg:082fb-s6" kvg:type="&#12752;" />
			<path d="M74.75,34.08C75.5,35,77,35.75,77.08,37.92c0.4,10.42-0.29,50.05-0.3,53.6c-0.03,9.49-4.7,0.83-6.86-0.26" id="kvg:082fb-s7" kvg:type="&#12762;" />
			<path d="M48.17,62.81c4.02,2.63,10.4,10.8,11.41,14.89" id="kvg:082fb-s8" kvg:type="&#12756;" />
		</g>
	</g>
</g>
</g>
<g id="kvg:StrokeNumbers_082fb" style="font-size:8;fill:#808080">
	<text transform="matrix(1 0 0 1 12.25 21.25)">1</text>
	<text transform="matrix(1 0 0 1 29.25 11.60)">2</text>
	<text transform="matrix(1 0 0 1 58.25 10.25)">3</text>
	<text transform="matrix(1 0 0 1 30.25 32.25)">4</text>
	<text transform="matrix(1 0 0 1 25.25 68.25)">5</text>
	<text transform="matrix(1 0 0 1 41.25 50.25)">6</text>
	<text transform="matrix(1 0 0 1 66.00 38.25)">7</text>
	<text transform="matrix(1 0 0 1 41.25 67.25)">8</text>
</g>
</svg>