<svg xmlns="http://www.w3.org/2000/svg" xmlns:kvg="http://kanjivg.tagaini.net" height="109" kun="&#12411;" meaning="duckweed, mugwort" on="&#12504;&#12452;, &#12499;&#12519;&#12454;, &#12507;&#12454;" viewBox="0 0 109 109" width="109">
<g id="kvg:StrokePaths_082f9" style="fill:none;stroke:#000000;stroke-width:3;stroke-linecap:round;stroke-linejoin:round;">
<g id="kvg:082f9" kvg:element="&#33529;">
	<g id="kvg:082f9-g1" kvg:element="&#33401;" kvg:original="&#33400;" kvg:position="top" kvg:radical="general" kvg:variant="true">
		<path d="M19.25,21.25c1.29,0.53,4.5,0.5,7.67,0.33c11.92-0.63,44.95-3.26,58.67-3.33c2.16-0.01,5.42,0.4,6.5,0.67" id="kvg:082f9-s1" kvg:type="&#12752;" />
		<path d="M38.42,11.42c1.58,0.83,2.7,2.54,2.83,3.33c1.25,7.42,0.98,13.14,1.33,15.83" id="kvg:082f9-s2" kvg:type="&#12753;a" />
		<path d="M66.75,8.58c1.65,1.01,1.29,2.61,1,4.17c-0.83,4.5-2,10.33-3.92,16.67" id="kvg:082f9-s3" kvg:type="&#12753;a" />
	</g>
	<g id="kvg:082f9-g2" kvg:element="&#24179;" kvg:position="bottom" kvg:variant="true">
		<g id="kvg:082f9-g3" kvg:element="&#24178;" kvg:part="1">
			<path d="M26.42,35.58c3.08,0.67,5.83,0.67,9.17,0.67c6.83,0,30.19-1.6,41.83-2.17c1.64-0.08,6.51-0.15,7.33,0" id="kvg:082f9-s4" kvg:type="&#12752;" />
		</g>
		<path d="M39.94,44.35c0.05,0.38,0.11,0.99-0.1,1.54c-1.21,3.24-8.17,10.34-17.68,14.69" id="kvg:082f9-s5" kvg:type="&#12754;" />
		<path d="M67.15,40.37c7,3.63,14.74,11.26,16.5,16.92" id="kvg:082f9-s6" kvg:type="&#12756;" />
		<g id="kvg:082f9-g4" kvg:element="&#24178;" kvg:part="2">
			<g id="kvg:082f9-g5" kvg:element="&#21313;">
				<path d="M14.08,65.92c2.92,1.33,6.42,1.08,10,0.83c18.3-1.28,38.93-2.44,61.67-3.33C90,63.25,93,63.5,94.92,64.25" id="kvg:082f9-s7" kvg:type="&#12752;" />
				<path d="M53.25,36.58c0.85,0.37,0.94,4.62,1.11,5.36c0.17,0.74-0.11,54.02-0.28,58.64" id="kvg:082f9-s8" kvg:type="&#12753;" />
			</g>
		</g>
	</g>
</g>
</g>
<g id="kvg:StrokeNumbers_082f9" style="font-size:8;fill:#808080">
	<text transform="matrix(1 0 0 1 12.25 22.25)">1</text>
	<text transform="matrix(1 0 0 1 29.25 12.25)">2</text>
	<text transform="matrix(1 0 0 1 58.25 9.25)">3</text>
	<text transform="matrix(1 0 0 1 19.25 36.25)">4</text>
	<text transform="matrix(1 0 0 1 31.25 46.25)">5</text>
	<text transform="matrix(1 0 0 1 61.25 47.25)">6</text>
	<text transform="matrix(1 0 0 1 7.25 65.25)">7</text>
	<text transform="matrix(1 0 0 1 46.00 46.25)">8</text>
</g>
</svg>