<svg xmlns="http://www.w3.org/2000/svg" xmlns:kvg="http://kanjivg.tagaini.net" height="109" kun="&#12367;&#12428;, &#12394;&#12363;.&#12428;, &#12394;&#12375;" meaning="must not, do not, be not" on="&#12496;&#12463;, &#12508;, &#12510;&#12463;, &#12514;, &#12490;&#12452;" viewBox="0 0 109 109" width="109">
<g id="kvg:StrokePaths_083ab" style="fill:none;stroke:#000000;stroke-width:3;stroke-linecap:round;stroke-linejoin:round;">
<g id="kvg:083ab" kvg:element="&#33707;">
	<g id="kvg:083ab-g1" kvg:element="&#33401;" kvg:original="&#33400;" kvg:position="top" kvg:radical="general" kvg:variant="true">
		<path d="M21,23.77c1.29,0.53,2.8,0.63,4.1,0.53C37,23.33,71,20.33,84.72,20.26c2.16-0.01,3.45,0.25,4.53,0.51" id="kvg:083ab-s1" kvg:type="&#12752;" />
		<path d="M37.75,12.5c1.75,1.43,2.31,1.87,2.5,2.75C42,23.5,42.5,30.5,43,33.5" id="kvg:083ab-s2" kvg:type="&#12753;a" />
		<path d="M68.25,10.75c0.42,1.18,0.87,2.02,0.5,3.5C67,21.25,66.25,25,64.25,32" id="kvg:083ab-s3" kvg:type="&#12753;a" />
	</g>
	<g id="kvg:083ab-g2" kvg:position="bottom">
		<g id="kvg:083ab-g3" kvg:element="&#26085;">
			<path d="M31.52,39.9c0.52,0.53,1.44,2.3,1.54,3c0.7,5.35,2.66,17.43,2.66,17.78c0,0.35,0.17,0.35,0.34,1.06" id="kvg:083ab-s4" kvg:type="&#12753;" />
			<path d="M33.91,41.49c7.84-0.99,36.93-4.14,39.59-4.25c2.21-0.09,3.56,2.46,3.47,3C76.25,44.5,74,55,72.79,59.38" id="kvg:083ab-s5" kvg:type="&#12757;a" />
			<path d="M34.43,50.06c3.95,0,36.19-2.9,40.66-2.9" id="kvg:083ab-s6" kvg:type="&#12752;a" />
			<path d="M36.24,60.26c8.04-0.38,26.31-1.89,36.33-2.22" id="kvg:083ab-s7" kvg:type="&#12752;a" />
		</g>
		<g id="kvg:083ab-g4" kvg:element="&#22823;">
			<path d="M18.38,74.61c1.62,0.39,3.45,0.21,4.51,0.11c19.86-1.97,50.86-4.22,66.36-5.14C90.59,69.5,93,69.5,94.5,69.5" id="kvg:083ab-s8" kvg:type="&#12752;" />
			<path d="M54.11,61c-0.11,1.25,0.54,1.13,0.38,2.23C51.75,82,39.95,92.8,16.5,98.75" id="kvg:083ab-s9" kvg:type="&#12754;" />
			<path d="M54,71.5c7.85,6.09,24.85,20.45,32.69,24.53c2.67,1.39,3.59,1.59,4.81,1.72" id="kvg:083ab-s10" kvg:type="&#12751;" />
		</g>
	</g>
</g>
</g>
<g id="kvg:StrokeNumbers_083ab" style="font-size:8;fill:#808080">
	<text transform="matrix(1 0 0 1 14.50 24.50)">1</text>
	<text transform="matrix(1 0 0 1 29.44 13.50)">2</text>
	<text transform="matrix(1 0 0 1 58.50 11.50)">3</text>
	<text transform="matrix(1 0 0 1 25.44 46.91)">4</text>
	<text transform="matrix(1 0 0 1 33.50 38.50)">5</text>
	<text transform="matrix(1 0 0 1 38.50 48.50)">6</text>
	<text transform="matrix(1 0 0 1 39.50 58.50)">7</text>
	<text transform="matrix(1 0 0 1 9.50 74.50)">8</text>
	<text transform="matrix(1 0 0 1 46.50 67.50)">9</text>
	<text transform="matrix(1 0 0 1 67.50 80.46)">10</text>
</g>
</svg>