<svg xmlns="http://www.w3.org/2000/svg" xmlns:kvg="http://kanjivg.tagaini.net" height="109" kun="&#12367;&#12373;" meaning="grass, grassy field" on="&#12508;&#12454;, &#12514;&#12454;" viewBox="0 0 109 109" width="109">
<g id="kvg:StrokePaths_083bd" style="fill:none;stroke:#000000;stroke-width:3;stroke-linecap:round;stroke-linejoin:round;">
<g id="kvg:083bd" kvg:element="&#33725;">
	<g id="kvg:083bd-g1" kvg:element="&#33401;" kvg:original="&#33400;" kvg:position="top" kvg:radical="general" kvg:variant="true">
		<path d="M17.33,22.33c1.29,0.53,5.42,0.92,8.5,0.67c11.9-0.96,45.11-3.43,58.83-3.5c2.16-0.01,6.75,0.9,7.83,1.17" id="kvg:083bd-s1" kvg:type="&#12752;" />
		<path d="M35.83,11.33c1.92,0.42,1.99,1.36,2.17,2.17c1.64,7.55,2.2,14.76,2.67,17.5" id="kvg:083bd-s2" kvg:type="&#12753;a" />
		<path d="M67,9c1.83,0.83,2.2,3.01,1.83,4.33c-1.12,4.05-1.87,10.32-3.5,15.5" id="kvg:083bd-s3" kvg:type="&#12753;a" />
	</g>
	<g id="kvg:083bd-g2" kvg:position="bottom">
		<g id="kvg:083bd-g3" kvg:element="&#22823;">
			<path d="M18,40c1.88,0.39,5.1,1.16,7.5,1c18.11-1.22,41.5-2.75,56-3.67c2.49-0.16,6.58-0.17,8.83,0.33" id="kvg:083bd-s4" kvg:type="&#12752;" />
			<path d="M51.33,26.42c0.33,1.47,0.34,2.36-0.16,3.54c-7.75,18.46-19.39,31.66-34.42,40.21" id="kvg:083bd-s5" kvg:type="&#12754;" />
			<path d="M62.5,40.17c7.3,5.63,16.83,16.67,28.18,21.16c2.31,0.92,2.98,1.31,3.99,1.42" id="kvg:083bd-s6" kvg:type="&#12751;" />
		</g>
		<g id="kvg:083bd-g4" kvg:element="&#24318;">
			<g id="kvg:083bd-g5" kvg:element="&#21313;" kvg:part="1">
				<path d="M21,72.67c1.2,0.58,4,1.08,7.67,0.83c12.49-0.85,38.5-3.37,54.33-4.33c2.75-0.17,6.83,0.54,7.83,0.83" id="kvg:083bd-s7" kvg:type="&#12752;" />
			</g>
			<g id="kvg:083bd-g6" kvg:element="&#20031;">
				<path d="M42.7,57.67c0.7,1.01,1.36,2.06,1.42,3.53c0.69,16.47-0.65,32.32-19.87,39.88" id="kvg:083bd-s8" kvg:type="&#12754;" />
			</g>
			<g id="kvg:083bd-g7" kvg:element="&#21313;" kvg:part="2">
				<path d="M65.33,57.17c1.83,1,1.98,2.94,1.98,4.53c0,7.16,0,32.67-0.16,39.3" id="kvg:083bd-s9" kvg:type="&#12753;" />
			</g>
		</g>
	</g>
</g>
</g>
<g id="kvg:StrokeNumbers_083bd" style="font-size:8;fill:#808080">
	<text transform="matrix(1 0 0 1 10.50 22.50)">1</text>
	<text transform="matrix(1 0 0 1 27.50 11.50)">2</text>
	<text transform="matrix(1 0 0 1 58.50 9.50)">3</text>
	<text transform="matrix(1 0 0 1 10.50 40.50)">4</text>
	<text transform="matrix(1 0 0 1 43.50 30.50)">5</text>
	<text transform="matrix(1 0 0 1 73.50 47.50)">6</text>
	<text transform="matrix(1 0 0 1 28.50 70.50)">7</text>
	<text transform="matrix(1 0 0 1 36.50 64.50)">8</text>
	<text transform="matrix(1 0 0 1 57.75 56.50)">9</text>
</g>
</svg>