<svg xmlns="http://www.w3.org/2000/svg" xmlns:kvg="http://kanjivg.tagaini.net" height="109" kun="&#12362;.&#12385;&#12427;, &#12362;.&#12385;, &#12362;.&#12392;&#12377;" meaning="fall, drop, come down, village, hamlet" on="&#12521;&#12463;" viewBox="0 0 109 109" width="109">
<g id="kvg:StrokePaths_0843d" style="fill:none;stroke:#000000;stroke-width:3;stroke-linecap:round;stroke-linejoin:round;">
<g id="kvg:0843d" kvg:element="&#33853;">
	<g id="kvg:0843d-g1" kvg:element="&#33401;" kvg:original="&#33400;" kvg:position="top" kvg:radical="general" kvg:variant="true">
		<path d="M16.5,25.52c2.5,0.73,6.23,0.68,9.38,0.35C41.5,24.25,65.62,22.5,81,22.12c3.08-0.08,6.48-0.08,9.5,0.66" id="kvg:0843d-s1" kvg:type="&#12752;" />
		<path d="M34,14.88c1,0.5,2,1.67,2.2,2.46c1.89,7.38,3.76,14.98,4.3,17.67" id="kvg:0843d-s2" kvg:type="&#12753;a" />
		<path d="M71.09,11.88c0.53,1.12,0.66,2.65,0.34,3.98C69.55,23.7,68.8,26.62,66.75,34" id="kvg:0843d-s3" kvg:type="&#12753;a" />
	</g>
	<g id="kvg:0843d-g2" kvg:element="&#27931;" kvg:phon="&#27931;" kvg:position="bottom">
		<g id="kvg:0843d-g3" kvg:element="&#27701;" kvg:original="&#27700;" kvg:position="left" kvg:variant="true">
			<path d="M23.62,39.38c3.07,1.27,7.93,5.24,8.7,7.22" id="kvg:0843d-s4" kvg:type="&#12756;" />
			<path d="M16.88,55.93c3.39,1.23,8.75,5.07,9.6,6.99" id="kvg:0843d-s5" kvg:type="&#12756;" />
			<path d="M15.25,92.87c1.33,0.21,2.6-0.14,3.41-1.16c3.68-4.71,7.37-10.46,10.72-16.46" id="kvg:0843d-s6" kvg:type="&#12736;" />
		</g>
		<g id="kvg:0843d-g4" kvg:element="&#21508;" kvg:position="right">
			<g id="kvg:0843d-g5" kvg:element="&#22786;" kvg:position="top">
				<path d="M55.68,36.75c0.04,0.48,0.08,1.23-0.08,1.92C54.6,42.71,48.91,51.57,41.12,57" id="kvg:0843d-s7" kvg:type="&#12754;" />
				<path d="M56.32,43.21c0.33,0.03,1.76,0.12,2.68-0.08c4-0.88,8.75-2.25,13.13-3.34c2.29-0.57,3.54,1.55,2.38,3.66C69.42,52.67,56,70.88,37.22,77.67" id="kvg:0843d-s8" kvg:type="&#12743;" />
				<path d="M49.97,49.17c4.84,3.75,25.61,17.3,34.08,22.1c2.37,1.34,4.74,2.42,7.45,2.86" id="kvg:0843d-s9" kvg:type="&#12751;" />
			</g>
			<g id="kvg:0843d-g6" kvg:element="&#21475;" kvg:position="bottom">
				<path d="M46.5,78.88c0.62,0.44,1,1.02,1.14,1.74c0.68,3.58,1.42,8.77,2.09,13.51c0.18,1.24,0.35,2.44,0.52,3.58" id="kvg:0843d-s10" kvg:type="&#12753;" />
				<path d="M48.59,80.33c7.04-0.98,20.35-2.34,25.78-2.89c2.24-0.23,3.76,1.44,3.13,3.6c-1.01,3.52-2.04,6.77-3.24,11.41" id="kvg:0843d-s11" kvg:type="&#12757;b" />
				<path d="M51.16,95.16c5.2-0.25,13.84-1.17,22.1-1.62c1.02-0.06,2.01-0.1,2.99-0.14" id="kvg:0843d-s12" kvg:type="&#12752;b" />
			</g>
		</g>
	</g>
</g>
</g>
<g id="kvg:StrokeNumbers_0843d" style="font-size:8;fill:#808080">
	<text transform="matrix(1 0 0 1 9.75 25.63)">1</text>
	<text transform="matrix(1 0 0 1 25.50 15.50)">2</text>
	<text transform="matrix(1 0 0 1 61.50 13.50)">3</text>
	<text transform="matrix(1 0 0 1 15.50 39.13)">4</text>
	<text transform="matrix(1 0 0 1 9.75 56.50)">5</text>
	<text transform="matrix(1 0 0 1 8.25 99.13)">6</text>
	<text transform="matrix(1 0 0 1 47.25 38.50)">7</text>
	<text transform="matrix(1 0 0 1 60.50 39.50)">8</text>
	<text transform="matrix(1 0 0 1 55.88 51.50)">9</text>
	<text transform="matrix(1 0 0 1 38.88 86.50)">10</text>
	<text transform="matrix(1 0 0 1 52.12 76.88)">11</text>
	<text transform="matrix(1 0 0 1 52.12 92.38)">12</text>
</g>
</svg>