<svg xmlns="http://www.w3.org/2000/svg" xmlns:kvg="http://kanjivg.tagaini.net" height="109" kun="&#12411;&#12358;&#12416;.&#12427;" meaning="interment, bury, shelve" on="&#12477;&#12454;" viewBox="0 0 109 109" width="109">
<g id="kvg:StrokePaths_0846c" style="fill:none;stroke:#000000;stroke-width:3;stroke-linecap:round;stroke-linejoin:round;">
<g id="kvg:0846c" kvg:element="&#33900;">
	<g id="kvg:0846c-g1" kvg:element="&#33401;" kvg:original="&#33400;" kvg:position="top" kvg:radical="general" kvg:variant="true">
		<path d="M20.5,21.52c2.5,0.73,5.39,0.74,7.76,0.46c14.49-1.73,39.75-3.75,54.12-4.35c2.96-0.12,5.97-0.06,8.88,0.65" id="kvg:0846c-s1" kvg:type="&#12752;" />
		<path d="M39.25,11.25c0.91,1,1.2,2.12,1.37,3c1.6,8.25,1.82,9,2.51,13.25" id="kvg:0846c-s2" kvg:type="&#12753;a" />
		<path d="M69.75,9.25c0.42,1.18,0.35,2.27,0,3.75c-1.75,7.5-2,8.62-3.25,12.75" id="kvg:0846c-s3" kvg:type="&#12753;a" />
	</g>
	<g id="kvg:0846c-g2" kvg:position="bottom">
		<g id="kvg:0846c-g3" kvg:element="&#27515;">
			<g id="kvg:0846c-g4" kvg:element="&#27513;">
				<g id="kvg:0846c-g5" kvg:element="&#19968;">
					<path d="M26.67,35.66c2.96,0.34,5.68,0.28,8.33-0.04c12.12-1.49,30.59-3.03,41.12-3.62c2.58-0.15,5.17-0.07,7.74,0.28" id="kvg:0846c-s4" kvg:type="&#12752;" />
				</g>
				<g id="kvg:0846c-g6" kvg:element="&#22805;">
					<path d="M38.31,38.25c-0.06,0.75-0.09,1.72-0.41,2.39C35.5,45.5,30.75,53,21.86,59.8" id="kvg:0846c-s5" kvg:type="&#12754;" />
					<path d="M38.37,44.85c0.23,0.02,1.22,0.07,1.87-0.07c3.52-0.78,6.27-1.28,10.12-2.26c2.09-0.53,3.29,1.27,2.59,2.84C49.77,52.42,36.21,69.06,23,72.71" id="kvg:0846c-s6" kvg:type="&#12743;" />
					<path d="M32.75,53.62c2.15,0.81,5.56,3.33,6.1,4.59" id="kvg:0846c-s7" kvg:type="&#12756;" />
				</g>
			</g>
			<g id="kvg:0846c-g7" kvg:element="&#21269;">
				<path d="M84.91,41.32c-0.03,0.68-0.41,1.3-1,1.73c-3,2.16-8.15,4.57-15.87,6.84" id="kvg:0846c-s8" kvg:type="&#12754;" />
				<path d="M63.36,39.3c0.85,0.85,0.99,2.07,0.99,3.08c0,0.76-0.05,8.9-0.05,11.25c0,6.99,2.32,8.09,13.17,8.09c11.27,0,12.52-1.22,13-7.34" id="kvg:0846c-s9" kvg:type="&#12767;" />
			</g>
		</g>
		<g id="kvg:0846c-g8" kvg:element="&#24318;">
			<g id="kvg:0846c-g9" kvg:element="&#21313;" kvg:part="1">
				<path d="M17.38,79.98c3.87,0.9,7.73,0.57,11.13,0.18c16.56-1.87,40.93-3.65,58.5-4.24c3.24-0.11,6.43-0.29,9.62,0.4" id="kvg:0846c-s10" kvg:type="&#12752;" />
			</g>
			<g id="kvg:0846c-g10" kvg:element="&#20031;">
				<path d="M42.39,69c0.68,0.68,0.92,2,0.92,3.19c0,10.22-2.8,24.31-16.15,29.31" id="kvg:0846c-s11" kvg:type="&#12754;" />
			</g>
			<g id="kvg:0846c-g11" kvg:element="&#21313;" kvg:part="2">
				<path d="M68.05,67c0.97,0.97,1.18,2.12,1.18,4c0,4.96-0.09,15.62-0.09,24c0,2.87,0.03,3.85-0.02,5.5" id="kvg:0846c-s12" kvg:type="&#12753;" />
			</g>
		</g>
	</g>
</g>
</g>
<g id="kvg:StrokeNumbers_0846c" style="font-size:8;fill:#808080">
	<text transform="matrix(1 0 0 1 14.25 21.13)">1</text>
	<text transform="matrix(1 0 0 1 30.50 11.50)">2</text>
	<text transform="matrix(1 0 0 1 60.75 9.13)">3</text>
	<text transform="matrix(1 0 0 1 18.75 35.50)">4</text>
	<text transform="matrix(1 0 0 1 28.50 45.50)">5</text>
	<text transform="matrix(1 0 0 1 43.50 42.13)">6</text>
	<text transform="matrix(1 0 0 1 37.50 53.50)">7</text>
	<text transform="matrix(1 0 0 1 76.50 41.50)">8</text>
	<text transform="matrix(1 0 0 1 55.25 41.75)">9</text>
	<text transform="matrix(1 0 0 1 7.50 81.50)">10</text>
	<text transform="matrix(1 0 0 1 32.50 75.50)">11</text>
	<text transform="matrix(1 0 0 1 56.50 69.50)">12</text>
</g>
</svg>