<svg xmlns="http://www.w3.org/2000/svg" xmlns:kvg="http://kanjivg.tagaini.net" height="109" kun="&#12383;&#12384;.&#12377;" meaning="correct" on="&#12488;&#12454;" viewBox="0 0 109 109" width="109">
<g id="kvg:StrokePaths_08463" style="fill:none;stroke:#000000;stroke-width:3;stroke-linecap:round;stroke-linejoin:round;">
<g id="kvg:08463" kvg:element="&#33891;">
	<g id="kvg:08463-g1" kvg:element="&#33401;" kvg:original="&#33400;" kvg:position="top" kvg:radical="general" kvg:variant="true">
		<path d="M20.5,23.27c1.29,0.53,2.8,0.56,4.1,0.53c11.9-0.3,45.4-2.46,59.12-2.53c2.16-0.01,3.45,0.25,4.53,0.51" id="kvg:08463-s1" kvg:type="&#12752;" />
		<path d="M37.5,13.25c1.5,1.25,1.98,1.63,2.14,2.4c1.5,7.19,1.43,13.74,1.86,16.35" id="kvg:08463-s2" kvg:type="&#12753;a" />
		<path d="M66.75,11.25c1.12,1,1.37,2.52,1,4c-1.12,4.5-2.38,7.5-4,13.25" id="kvg:08463-s3" kvg:type="&#12753;a" />
	</g>
	<g id="kvg:08463-g2" kvg:element="&#37325;" kvg:position="bottom">
		<g id="kvg:08463-g3" kvg:element="&#21315;" kvg:part="1">
			<g id="kvg:08463-g4" kvg:element="&#20031;">
				<path d="M74.38,28.42c0.12,0.31-0.94,1.96-1.63,2.29c-5.25,2.56-18.25,7.54-41.86,10.35" id="kvg:08463-s4" kvg:type="&#12754;" />
			</g>
			<g id="kvg:08463-g5" kvg:element="&#21313;" kvg:part="1">
				<path d="M19.75,48.27c1.52,0.42,4.31,0.55,5.82,0.42c8.93-0.77,42.43-4.06,58.61-4.44c2.53-0.06,4.05,0.2,5.31,0.41" id="kvg:08463-s5" kvg:type="&#12752;" />
			</g>
		</g>
		<g id="kvg:08463-g6" kvg:element="&#37324;">
			<path d="M30.19,55.51c0.38,0.33,0.39,0.57,0.6,0.99c1.72,3.47,3.33,13.35,4.39,19.82" id="kvg:08463-s6" kvg:type="&#12753;" />
			<path d="M31.96,56.38c13.29-0.87,33.58-2.07,43.51-2.8c3.65-0.27,4.01,2.68,3.83,3.64c-0.69,3.5-2.88,11.12-4.55,16.96" id="kvg:08463-s7" kvg:type="&#12757;a" />
			<path d="M33.44,65.13C39.5,65,72.82,63.29,76.4,63.15" id="kvg:08463-s8" kvg:type="&#12752;a" />
			<path d="M34.86,74.35c10.89-0.85,26.17-1.24,39.39-1.84" id="kvg:08463-s9" kvg:type="&#12752;a" />
			<g id="kvg:08463-g7" kvg:element="&#21315;" kvg:part="2">
				<g id="kvg:08463-g8" kvg:element="&#21313;" kvg:part="2">
					<path d="M52.25,39.62c1.25,0.39,2.25,2.7,2.25,3.52c0,10.61,0,46.64-0.25,51.49" id="kvg:08463-s10" kvg:type="&#12753;" />
				</g>
			</g>
			<path d="M30.41,84.97c0.92,0.25,2.6,0.28,3.53,0.25c9.58-0.29,31.06-1.69,41.5-2.27c1.53-0.08,2.45,0.12,3.22,0.24" id="kvg:08463-s11" kvg:type="&#12752;" />
			<path d="M20.14,95.92c1.49,0.35,4.22,0.41,5.71,0.35c15.49-0.59,43.41-2.62,60.32-2.93c2.48-0.05,3.97,0.17,5.21,0.35" id="kvg:08463-s12" kvg:type="&#12752;" />
		</g>
	</g>
</g>
</g>
<g id="kvg:StrokeNumbers_08463" style="font-size:8;fill:#808080">
	<text transform="matrix(1 0 0 1 14.50 23.50)">1</text>
	<text transform="matrix(1 0 0 1 28.66 13.50)">2</text>
	<text transform="matrix(1 0 0 1 58.50 11.50)">3</text>
	<text transform="matrix(1 0 0 1 56.50 32.50)">4</text>
	<text transform="matrix(1 0 0 1 12.50 48.50)">5</text>
	<text transform="matrix(1 0 0 1 23.50 60.50)">6</text>
	<text transform="matrix(1 0 0 1 35.50 54.50)">7</text>
	<text transform="matrix(1 0 0 1 37.50 62.50)">8</text>
	<text transform="matrix(1 0 0 1 39.50 71.50)">9</text>
	<text transform="matrix(1 0 0 1 43.50 45.50)">10</text>
	<text transform="matrix(1 0 0 1 21.50 86.50)">11</text>
	<text transform="matrix(1 0 0 1 9.50 97.50)">12</text>
</g>
</svg>