<svg xmlns="http://www.w3.org/2000/svg" xmlns:kvg="http://kanjivg.tagaini.net" height="109" meaning="garlic" viewBox="0 0 109 109" width="109">
<g id="kvg:StrokePaths_0849c" style="fill:none;stroke:#000000;stroke-width:3;stroke-linecap:round;stroke-linejoin:round;">
<g id="kvg:0849c" kvg:element="&#33948;">
	<g id="kvg:0849c-g1" kvg:element="&#33401;" kvg:original="&#33400;" kvg:position="top" kvg:radical="general" kvg:variant="true">
		<path d="M21,24.27c1.29,0.53,2.8,0.63,4.1,0.53C37,23.83,72,20.33,85.72,20.26c2.16-0.01,3.45,0.25,4.53,0.51" id="kvg:0849c-s1" kvg:type="&#12752;" />
		<path d="M38.25,13c1.75,1.43,2.31,1.87,2.5,2.75C42.5,24,42.5,30,43,33" id="kvg:0849c-s2" kvg:type="&#12753;a" />
		<path d="M68.75,10.75c1.12,1,1.87,2.52,1.5,4c-1.12,4.5-2.88,10.5-4.5,16.25" id="kvg:0849c-s3" kvg:type="&#12753;a" />
	</g>
	<g id="kvg:0849c-g2" kvg:position="bottom">
		<g id="kvg:0849c-g3" kvg:element="&#31034;" kvg:position="left">
			<g id="kvg:0849c-g4" kvg:position="top">
				<path d="M21.85,42.99c0.67,0.27,1.89,0.35,2.56,0.27c4.25-0.47,14.37-3.19,18.88-3.26c1.11-0.02,1.78,0.13,2.34,0.27" id="kvg:0849c-s4" kvg:type="&#12752;" />
				<path d="M16.08,58.92c1.08,0.39,3.06,0.46,4.14,0.39c8.14-0.56,18.28-3.81,27.12-4.67c1.79-0.17,2.88,0.18,3.78,0.38" id="kvg:0849c-s5" kvg:type="&#12752;" />
			</g>
			<g id="kvg:0849c-g5" kvg:position="bottom">
				<path d="M34.36,60.09c0.07,0.37,1.36,1.92,1.42,4.27c0.31,11.26,0.25,24.05,0.25,27.89c0,8.15-3.5,2.93-6.74,0.19" id="kvg:0849c-s6" kvg:type="&#12753;" />
				<path d="M25,70.67c0.03,0.5,0.07,1.29-0.07,2.02c-0.81,4.25-6.65,12.55-13,18.25" id="kvg:0849c-s7" kvg:type="&#12754;" />
				<path d="M43.9,69.93c2.51,2.22,6.61,8.89,7.24,12.34" id="kvg:0849c-s8" kvg:type="&#12756;" />
			</g>
		</g>
		<g id="kvg:0849c-g6" kvg:element="&#31034;" kvg:position="right">
			<g id="kvg:0849c-g7" kvg:position="top">
				<path d="M63.35,39.49c0.67,0.27,1.89,0.35,2.56,0.27c4.25-0.47,13.37-2.19,17.88-2.26c1.11-0.02,1.78,0.13,2.34,0.27" id="kvg:0849c-s9" kvg:type="&#12752;" />
				<path d="M57.08,56.92c1.08,0.39,3.06,0.46,4.14,0.39c8.14-0.56,21.28-2.56,29.12-3.17c1.79-0.14,2.88,0.18,3.78,0.38" id="kvg:0849c-s10" kvg:type="&#12752;" />
			</g>
			<g id="kvg:0849c-g8" kvg:position="bottom">
				<path d="M74.36,58.59c0.07,0.37,1.36,1.92,1.42,4.27c0.31,11.26,0.25,27.05,0.25,30.89c0,8.15-3.5,2.93-6.74,0.19" id="kvg:0849c-s11" kvg:type="&#12753;" />
				<path d="M64.5,68.67c0.03,0.51,0.06,1.33-0.06,2.07c-0.74,4.35-6.15,12.86-12,18.71" id="kvg:0849c-s12" kvg:type="&#12754;" />
				<path d="M84.4,69.18c3.9,3.44,10.26,13.75,11.24,19.09" id="kvg:0849c-s13" kvg:type="&#12756;" />
			</g>
		</g>
	</g>
</g>
</g>
<g id="kvg:StrokeNumbers_0849c" style="font-size:8;fill:#808080">
	<text transform="matrix(1 0 0 1 14.50 25.50)">1</text>
	<text transform="matrix(1 0 0 1 30.50 13.50)">2</text>
	<text transform="matrix(1 0 0 1 60.50 11.50)">3</text>
	<text transform="matrix(1 0 0 1 15.50 43.40)">4</text>
	<text transform="matrix(1 0 0 1 9.75 59.50)">5</text>
	<text transform="matrix(1 0 0 1 27.50 66.50)">6</text>
	<text transform="matrix(1 0 0 1 17.50 71.50)">7</text>
	<text transform="matrix(1 0 0 1 41.50 66.50)">8</text>
	<text transform="matrix(1 0 0 1 55.50 40.50)">9</text>
	<text transform="matrix(1 0 0 1 54.50 53.50)">10</text>
	<text transform="matrix(1 0 0 1 65.50 66.50)">11</text>
	<text transform="matrix(1 0 0 1 52.75 68.50)">12</text>
	<text transform="matrix(1 0 0 1 80.50 66.50)">13</text>
</g>
</svg>