<svg xmlns="http://www.w3.org/2000/svg" xmlns:kvg="http://kanjivg.tagaini.net" height="109" kun="&#12424;&#12418;&#12366;" meaning="mugwort" on="&#12467;&#12454;" viewBox="0 0 109 109" width="109">
<g id="kvg:StrokePaths_084bf" style="fill:none;stroke:#000000;stroke-width:3;stroke-linecap:round;stroke-linejoin:round;">
<g id="kvg:084bf" kvg:element="&#33983;">
	<g id="kvg:084bf-g1" kvg:element="&#33401;" kvg:original="&#33400;" kvg:position="top" kvg:radical="general" kvg:variant="true">
		<path d="M16,20.86c1.64,0.44,3.56,0.53,5.21,0.44c15.12-0.8,46.87-3.73,64.29-3.79c2.74-0.01,4.39,0.21,5.75,0.43" id="kvg:084bf-s1" kvg:type="&#12752;" />
		<path d="M35.25,11c1.75,1.43,2.31,1.87,2.5,2.75C39.5,22,39,26,39.5,29" id="kvg:084bf-s2" kvg:type="&#12753;a" />
		<path d="M69.71,9c0.9,0.8,1.5,2.03,1.21,3.22c-0.91,3.62-1.51,9.66-2.82,14.28" id="kvg:084bf-s3" kvg:type="&#12753;a" />
	</g>
	<g id="kvg:084bf-g2" kvg:element="&#39640;" kvg:position="bottom">
		<g id="kvg:084bf-g3" kvg:position="top">
			<g id="kvg:084bf-g4" kvg:element="&#20128;">
				<path d="M51.86,24.25c0.84,0.4,2.21,1.97,2.21,2.77c0,2.96-0.26,3.04-0.11,5.55" id="kvg:084bf-s4" kvg:type="&#12753;a" />
				<path d="M21.9,34.73c1.47,0.09,4.84,0.64,6.27,0.51c11.57-1.07,39.24-3.6,54.96-3.88c2.43-0.04,3.67,0.04,5.48,0.65" id="kvg:084bf-s5" kvg:type="&#12752;" />
			</g>
			<g id="kvg:084bf-g5" kvg:element="&#21475;">
				<path d="M36.75,42.2c0.52,0.26,1.15,0.92,1.28,1.29C39.5,47.5,40,51,40.83,56.15" id="kvg:084bf-s6" kvg:type="&#12753;" />
				<path d="M40,43.93c12-1.43,22.75-2.68,28.81-3.13c1.44-0.11,2.9,1.97,2.75,2.74c-0.31,1.71-1.41,4.48-3.38,8.59" id="kvg:084bf-s7" kvg:type="&#12757;b" />
				<path d="M41.57,54.91c7.18-0.38,18.99-1.83,28.84-2.41" id="kvg:084bf-s8" kvg:type="&#12752;b" />
			</g>
		</g>
		<g id="kvg:084bf-g6" kvg:position="bottom">
			<g id="kvg:084bf-g7" kvg:element="&#20866;">
				<path d="M23.75,62.52c0.72,1.12,1.23,2.46,1.46,4.47c0.88,7.65,0.38,26.99,0.54,32.5" id="kvg:084bf-s9" kvg:type="&#12753;" />
				<path d="M25.61,65.71c9.89-0.45,55.32-3.54,57.14-3.81c4.5-0.67,7.21,0.89,6.25,6.93c-1.32,8.3-2.5,17.92-4.5,25.43c-1.66,6.21-6,2.25-8.05,0" id="kvg:084bf-s10" kvg:type="&#12742;a" />
			</g>
			<g id="kvg:084bf-g8" kvg:element="&#21475;">
				<path d="M41.25,72.58c0.29,0.28,0.59,0.51,0.72,0.86c1.01,2.76,2.23,10.35,2.92,15.3" id="kvg:084bf-s11" kvg:type="&#12753;" />
				<path d="M43.07,74.45c8.97-1.43,17.25-2.38,22.37-2.89c2.08-0.21,4.08,1.13,3.88,2.46c-0.51,3.31-1.41,6.21-3.07,10.66" id="kvg:084bf-s12" kvg:type="&#12757;b" />
				<path d="M46.01,86.32c6.03-0.41,13.85-0.62,22.13-1.24" id="kvg:084bf-s13" kvg:type="&#12752;b" />
			</g>
		</g>
	</g>
</g>
</g>
<g id="kvg:StrokeNumbers_084bf" style="font-size:8;fill:#808080">
	<text transform="matrix(1 0 0 1 9.85 20.50)">1</text>
	<text transform="matrix(1 0 0 1 26.50 10.50)">2</text>
	<text transform="matrix(1 0 0 1 61.50 9.50)">3</text>
	<text transform="matrix(1 0 0 1 44.50 27.50)">4</text>
	<text transform="matrix(1 0 0 1 14.75 34.50)">5</text>
	<text transform="matrix(1 0 0 1 31.50 50.50)">6</text>
	<text transform="matrix(1 0 0 1 42.50 41.18)">7</text>
	<text transform="matrix(1 0 0 1 45.75 51.10)">8</text>
	<text transform="matrix(1 0 0 1 17.75 69.50)">9</text>
	<text transform="matrix(1 0 0 1 28.75 62.50)">10</text>
	<text transform="matrix(1 0 0 1 33.50 79.50)">11</text>
	<text transform="matrix(1 0 0 1 43.50 71.50)">12</text>
	<text transform="matrix(1 0 0 1 47.50 83.50)">13</text>
</g>
</svg>