<svg xmlns="http://www.w3.org/2000/svg" xmlns:kvg="http://kanjivg.tagaini.net" height="109" kun="&#12402;&#12375;" meaning="water chestnut" on="&#12522;&#12519;&#12454;" viewBox="0 0 109 109" width="109">
<g id="kvg:StrokePaths_08506" style="fill:none;stroke:#000000;stroke-width:3;stroke-linecap:round;stroke-linejoin:round;">
<g id="kvg:08506" kvg:element="&#34054;">
	<g id="kvg:08506-g1" kvg:element="&#33401;" kvg:original="&#33400;" kvg:position="top" kvg:radical="general" kvg:variant="true">
		<path d="M16.75,20.27c1.4,0.29,3.03,0.35,4.44,0.29c12.89-0.53,50.8-3.26,65.65-3.3c2.34-0.01,3.74,0.14,4.91,0.28" id="kvg:08506-s1" kvg:type="&#12752;" />
		<path d="M38.25,10.5c1.12,1.11,1.48,1.45,1.6,2.14c1.12,6.42,2.08,13.03,2.4,15.36" id="kvg:08506-s2" kvg:type="&#12753;a" />
		<path d="M71.13,10.75c0.19,0.76,0.43,1.33,0.22,2.27c-1.22,5.52-1.77,8.28-3.1,13.48" id="kvg:08506-s3" kvg:type="&#12753;a" />
	</g>
	<g id="kvg:08506-g2" kvg:position="bottom">
		<g id="kvg:08506-g3" kvg:element="&#27701;" kvg:original="&#27700;" kvg:position="left" kvg:variant="true">
			<path d="M22.28,29.25c3.92,1.05,10.13,4.31,11.11,5.94" id="kvg:08506-s4" kvg:type="&#12756;" />
			<g id="kvg:08506-g4" kvg:element="&#20940;" kvg:part="1">
				<g id="kvg:08506-g5" kvg:element="&#20907;" kvg:partial="true" kvg:variant="true">
					<path d="M18.5,49.84c3.39,1.02,8.75,4.21,9.59,5.8" id="kvg:08506-s5" kvg:type="&#12756;" />
					<path d="M16.61,91.33c1.43,1.15,3.15,1.2,4.05-0.22c2.62-4.13,5.25-9.18,7.63-14.45" id="kvg:08506-s6" kvg:type="&#12736;" />
				</g>
			</g>
		</g>
		<g id="kvg:08506-g6" kvg:element="&#20940;" kvg:part="2" kvg:position="right">
			<g id="kvg:08506-g7" kvg:position="top">
				<g id="kvg:08506-g8" kvg:element="&#22303;">
					<path d="M42.2,40.47c0.83,0.27,3.86,0.34,4.69,0.27c10.69-0.92,23.73-2.49,34.91-3.17c1.38-0.08,3.22,0.13,3.91,0.26" id="kvg:08506-s7" kvg:type="&#12752;" />
					<path d="M60.66,28.12c0.12,0.23,1.71,1.2,1.71,2.68c0,4.64,0.25,12.71,0.25,19.69" id="kvg:08506-s8" kvg:type="&#12753;a" />
					<path d="M37.56,51.76c1.81,0.74,4.4,0.95,5.42,0.87c12.66-1.02,33.21-3.05,44.53-3.53c1.7-0.07,2.73,0.17,3.58,0.36" id="kvg:08506-s9" kvg:type="&#12752;" />
				</g>
				<g id="kvg:08506-g9" kvg:element="&#20843;" kvg:original="&#20799;">
					<g id="kvg:08506-g10" kvg:element="&#20031;" kvg:position="left">
						<path d="M52.92,54.65c0.04,0.41,0.09,1.05-0.08,1.63c-1.01,3.45-6.35,11.66-14.77,15.63" id="kvg:08506-s10" kvg:type="&#12754;" />
					</g>
					<g id="kvg:08506-g11" kvg:position="right">
						<path d="M71.54,51.92c0.42,0.38,0.75,0.82,0.78,1.4c0.11,2.6-0.3,5.12-0.3,6.88c0,4.12,5.02,3.66,9.97,3.66c5.22,0,8.66-0.53,9.39-0.83" id="kvg:08506-s11" kvg:type="&#12740;" />
					</g>
				</g>
			</g>
			<g id="kvg:08506-g12" kvg:element="&#22786;" kvg:position="bottom">
				<path d="M57.5,62.71c0.05,0.54,0.27,1.46-0.1,2.17C55,69.53,49.02,78.13,38.99,86.11" id="kvg:08506-s12" kvg:type="&#12754;" />
				<path d="M55.6,72.69c0.28,0.02,1.77,0.25,2.56,0.15c4.72-0.59,13.21-2.17,16.91-2.84c2.54-0.46,3.26,0.53,2.61,1.79c-3.56,6.89-20.97,22.9-38.95,27.71" id="kvg:08506-s13" kvg:type="&#12743;" />
				<path d="M50.6,77.1c5,3.49,27.65,16.77,34.39,19.96c2.01,0.95,3.63,1.42,5.59,1.7" id="kvg:08506-s14" kvg:type="&#12751;" />
			</g>
		</g>
	</g>
</g>
</g>
<g id="kvg:StrokeNumbers_08506" style="font-size:8;fill:#808080">
	<text transform="matrix(1 0 0 1 10.50 20.50)">1</text>
	<text transform="matrix(1 0 0 1 29.50 10.50)">2</text>
	<text transform="matrix(1 0 0 1 61.50 10.50)">3</text>
	<text transform="matrix(1 0 0 1 14.50 30.50)">4</text>
	<text transform="matrix(1 0 0 1 9.50 50.50)">5</text>
	<text transform="matrix(1 0 0 1 8.50 96.50)">6</text>
	<text transform="matrix(1 0 0 1 42.50 37.50)">7</text>
	<text transform="matrix(1 0 0 1 52.75 29.50)">8</text>
	<text transform="matrix(1 0 0 1 32.75 49.50)">9</text>
	<text transform="matrix(1 0 0 1 39.50 61.50)">10</text>
	<text transform="matrix(1 0 0 1 73.80 57.86)">11</text>
	<text transform="matrix(1 0 0 1 54.93 60.82)">12</text>
	<text transform="matrix(1 0 0 1 60.37 69.88)">13</text>
	<text transform="matrix(1 0 0 1 57.50 80.50)">14</text>
</g>
</svg>