<svg xmlns="http://www.w3.org/2000/svg" xmlns:kvg="http://kanjivg.tagaini.net" height="109" meaning="turnip" viewBox="0 0 109 109" width="109">
<g id="kvg:StrokePaths_0856a" style="fill:none;stroke:#000000;stroke-width:3;stroke-linecap:round;stroke-linejoin:round;">
<g id="kvg:0856a" kvg:element="&#34154;">
	<g id="kvg:0856a-g1" kvg:element="&#33401;" kvg:original="&#33400;" kvg:position="top" kvg:radical="general" kvg:variant="true">
		<path d="M20.5,22.77c1.29,0.53,2.8,0.63,4.1,0.53c11.9-0.96,44.4-3.96,58.12-4.03c2.16-0.01,3.45,0.25,4.53,0.51" id="kvg:0856a-s1" kvg:type="&#12752;" />
		<path d="M37.25,12c1.58,1.27,2.09,1.65,2.26,2.43C41.1,21.72,41.55,28.35,42,31" id="kvg:0856a-s2" kvg:type="&#12753;a" />
		<path d="M66.53,9.75c1.27,0.91,2.1,2.29,1.69,3.63c-1.27,4.09-2.11,10.9-3.94,16.12" id="kvg:0856a-s3" kvg:type="&#12753;a" />
	</g>
	<g id="kvg:0856a-g2" kvg:element="&#28961;" kvg:position="bottom">
		<g id="kvg:0856a-g3" kvg:position="top">
			<g id="kvg:0856a-g4" kvg:element="&#20031;">
				<path d="M33.34,31.5c0.04,0.5,0.15,1.43-0.08,1.99c-2.9,6.99-7.2,13.4-14.76,19.04" id="kvg:0856a-s4" kvg:type="&#12754;" />
			</g>
			<path d="M31.25,41.56c9.1-0.3,38.01-4.67,46.73-5.42c2.03-0.17,3.25,0.22,4.27,0.45" id="kvg:0856a-s5" kvg:type="&#12752;" />
			<g id="kvg:0856a-g5" kvg:element="&#19968;">
				<path d="M14.75,59.42c1.52,0.44,4.32,0.65,5.82,0.44C26.72,59,71.75,55.8,88.19,55.2c2.53-0.09,4.05,0.21,5.31,0.43" id="kvg:0856a-s6" kvg:type="&#12752;" />
			</g>
			<path d="M32.37,43.62c0.78,0.49,1.24,2.22,1.4,3.2c0.15,0.99,1.19,18.04,1.73,29.13" id="kvg:0856a-s7" kvg:type="&#12753;" />
			<path d="M46.1,41.56c0.65,0.69,1.38,2.29,1.45,3.34c0.45,6.35,0.95,22.35,1.21,30.04" id="kvg:0856a-s8" kvg:type="&#12753;" />
			<path d="M61.37,40.34c0.38,0.91,1.03,2.81,0.96,3.64c-0.58,6.49-1.08,16.36-1.83,29.15" id="kvg:0856a-s9" kvg:type="&#12753;" />
			<path d="M74.87,39.25c0.63,1,0.71,2.33,0.46,3.95C74.5,48.5,74,60.75,72,73.13" id="kvg:0856a-s10" kvg:type="&#12753;" />
			<path d="M19.25,76.53c1.52,0.44,4.31,0.54,5.82,0.44c8.68-0.6,42.68-3.43,59.11-4.03c2.53-0.09,4.05,0.21,5.31,0.43" id="kvg:0856a-s11" kvg:type="&#12752;" />
		</g>
		<g id="kvg:0856a-g6" kvg:element="&#28780;" kvg:original="&#28779;" kvg:position="bottom" kvg:variant="true">
			<path d="M23.25,85.98c0,4.72-5.35,11.67-6.75,13.02" id="kvg:0856a-s12" kvg:type="&#12756;" />
			<path d="M38.27,83.42c2.93,2.79,5.7,10.47,6.44,14.82" id="kvg:0856a-s13" kvg:type="&#12756;" />
			<path d="M58.62,81.91c3.15,2.75,8.15,11.33,8.93,15.61" id="kvg:0856a-s14" kvg:type="&#12756;" />
			<path d="M78.52,80.61c4.25,2.97,10.98,12.21,12.04,16.83" id="kvg:0856a-s15" kvg:type="&#12756;" />
		</g>
	</g>
</g>
</g>
<g id="kvg:StrokeNumbers_0856a" style="font-size:8;fill:#808080">
	<text transform="matrix(1 0 0 1 13.85 22.50)">1</text>
	<text transform="matrix(1 0 0 1 28.50 12.50)">2</text>
	<text transform="matrix(1 0 0 1 58.50 10.50)">3</text>
	<text transform="matrix(1 0 0 1 25.50 32.50)">4</text>
	<text transform="matrix(1 0 0 1 37.50 38.50)">5</text>
	<text transform="matrix(1 0 0 1 7.50 61.25)">6</text>
	<text transform="matrix(1 0 0 1 26.50 53.50)">7</text>
	<text transform="matrix(1 0 0 1 40.50 50.50)">8</text>
	<text transform="matrix(1 0 0 1 54.50 48.03)">9</text>
	<text transform="matrix(1 0 0 1 65.50 47.50)">10</text>
	<text transform="matrix(1 0 0 1 9.50 77.50)">11</text>
	<text transform="matrix(1 0 0 1 13.50 87.50)">12</text>
	<text transform="matrix(1 0 0 1 28.50 89.50)">13</text>
	<text transform="matrix(1 0 0 1 49.50 87.50)">14</text>
	<text transform="matrix(1 0 0 1 68.50 84.50)">15</text>
</g>
</svg>