<svg xmlns="http://www.w3.org/2000/svg" xmlns:kvg="http://kanjivg.tagaini.net" height="109" meaning="abalone, dried fish, surname" viewBox="0 0 109 109" width="109">
<g id="kvg:StrokePaths_086ab" style="fill:none;stroke:#000000;stroke-width:3;stroke-linecap:round;stroke-linejoin:round;">
<g id="kvg:086ab" kvg:element="&#34475;">
	<g id="kvg:086ab-g1" kvg:element="&#34411;" kvg:position="left" kvg:radical="tradit">
		<g id="kvg:086ab-g2" kvg:element="&#20013;">
			<g id="kvg:086ab-g3" kvg:element="&#21475;">
				<path d="M11.76,37.76c0.43,0.6,0.96,1.64,1.05,2.42c0.81,6.79,1.75,15.58,2.92,25.71" id="kvg:086ab-s1" kvg:type="&#12753;" />
				<path d="M13.59,39.7c6.49-1.14,19.72-2.99,24.42-3.43c1.83-0.17,2.68,1.61,2.45,3.32c-0.78,5.83-2.35,12.53-3.62,22.23" id="kvg:086ab-s2" kvg:type="&#12757;b" />
				<path d="M14.97,64.09c5.32-0.6,15.78-1.59,24.11-2.47" id="kvg:086ab-s3" kvg:type="&#12752;b" />
			</g>
			<g id="kvg:086ab-g4" kvg:element="&#20008;">
				<path d="M24.42,17.25c1.08,1,2.26,2.75,2.26,4.47c0,4.78-0.2,49.78-0.2,63.16" id="kvg:086ab-s4" kvg:type="&#12753;a" />
			</g>
		</g>
		<path d="M10.57,91.27c0.6,1.16,2.46,1.11,3.06,0.82c0.6-0.29,22.04-11.15,25.76-13.47" id="kvg:086ab-s5" kvg:type="&#12736;" />
		<path d="M34,69.5c3.2,2.89,8.26,11.89,9.06,16.39" id="kvg:086ab-s6" kvg:type="&#12756;" />
	</g>
	<g id="kvg:086ab-g5" kvg:element="&#21253;" kvg:position="right">
		<g id="kvg:086ab-g6" kvg:element="&#21241;">
			<g id="kvg:086ab-g7" kvg:element="&#20031;">
				<path d="M62.61,13c0.05,0.81,0.25,2.16-0.09,3.26c-2.27,7.19-8.43,20.71-16.91,31.22" id="kvg:086ab-s7" kvg:type="&#12754;" />
			</g>
			<path d="M58.49,31.18c0.98,0.61,2.35,0.82,3.92,0.41s23.59-4.78,27.49-5.14c1.85-0.17,3.95,1.12,3.87,3.41c-0.27,6.89-2.52,26.14-8.6,39.21c-1.84,3.95-3.96,1.53-6.27-1.02" id="kvg:086ab-s8" kvg:type="&#12742;" />
		</g>
		<g id="kvg:086ab-g8" kvg:element="&#24051;">
			<g id="kvg:086ab-g9" kvg:element="&#24049;" kvg:variant="true">
				<path d="M53.53,45.24c1.28,0.94,2.37,0.94,4.25,0.63c3.81-0.63,15.64-2.27,16.8-2.39c1.54-0.16,2.75,1.03,2.2,3.47C76.62,47.68,75,54,73.16,60.48" id="kvg:086ab-s9" kvg:type="&#12757;" />
				<path d="M56.74,62.85c4.12-0.45,12.57-1.79,18.43-2.18" id="kvg:086ab-s10" kvg:type="&#12752;" />
				<path d="M55.52,46.52c-0.02,1.73,0.52,2.39,0.51,4.09C56,56.04,55.67,79.86,55.67,84.6c0,10.3,1.39,11.08,22.07,11.08c17.28,0,19.4-0.94,19.4-12.39" id="kvg:086ab-s11" kvg:type="&#12767;" />
			</g>
		</g>
	</g>
</g>
</g>
<g id="kvg:StrokeNumbers_086ab" style="font-size:8;fill:#808080">
	<text transform="matrix(1 0 0 1 6.25 44.50)">1</text>
	<text transform="matrix(1 0 0 1 15.50 35.50)">2</text>
	<text transform="matrix(1 0 0 1 18.50 60.50)">3</text>
	<text transform="matrix(1 0 0 1 14.50 16.40)">4</text>
	<text transform="matrix(1 0 0 1 4.50 90.50)">5</text>
	<text transform="matrix(1 0 0 1 37.50 70.50)">6</text>
	<text transform="matrix(1 0 0 1 54.50 12.50)">7</text>
	<text transform="matrix(1 0 0 1 66.50 27.50)">8</text>
	<text transform="matrix(1 0 0 1 57.50 42.50)">9</text>
	<text transform="matrix(1 0 0 1 58.50 59.50)">10</text>
	<text transform="matrix(1 0 0 1 46.50 54.50)">11</text>
</g>
</svg>