<svg xmlns="http://www.w3.org/2000/svg" xmlns:kvg="http://kanjivg.tagaini.net" height="109" meaning="millipede" viewBox="0 0 109 109" width="109">
<g id="kvg:StrokePaths_086b0" style="fill:none;stroke:#000000;stroke-width:3;stroke-linecap:round;stroke-linejoin:round;">
<g id="kvg:086b0" kvg:element="&#34480;">
	<g id="kvg:086b0-g1" kvg:element="&#34411;" kvg:position="left" kvg:radical="general">
		<g id="kvg:086b0-g2" kvg:element="&#20013;">
			<g id="kvg:086b0-g3" kvg:element="&#21475;">
				<path d="M13.76,36.9c0.44,0.51,0.98,1.4,1.08,2.06c0.83,5.79,1.79,13.29,3,21.93" id="kvg:086b0-s1" kvg:type="&#12753;" />
				<path d="M15.64,38.98c6.66-0.97,20.74-2.83,25.56-3.2c1.88-0.14,2.74,1.38,2.51,2.83c-0.8,4.98-1.9,8.84-3.2,17.12" id="kvg:086b0-s2" kvg:type="&#12757;b" />
				<path d="M18.08,58.43c5.36-0.98,17.24-1.98,24.73-2.89" id="kvg:086b0-s3" kvg:type="&#12752;b" />
			</g>
			<g id="kvg:086b0-g4" kvg:element="&#20008;">
				<path d="M27.42,16.75c1.08,1,2.26,2.75,2.26,4.47c0,4.78-0.2,44.78-0.2,58.16" id="kvg:086b0-s4" kvg:type="&#12753;a" />
			</g>
		</g>
		<path d="M14.07,85.27c0.6,1.16,2.46,1.11,3.06,0.82c0.6-0.29,22.04-11.65,25.76-13.97" id="kvg:086b0-s5" kvg:type="&#12736;" />
		<path d="M38.5,64c2.67,2.72,6.89,11.17,7.56,15.39" id="kvg:086b0-s6" kvg:type="&#12756;" />
	</g>
	<g id="kvg:086b0-g5" kvg:element="&#30001;" kvg:position="right">
		<g id="kvg:086b0-g6" kvg:element="&#30000;" kvg:part="1" kvg:partial="true">
			<path d="M53,39.67c0.75,1.36,1.33,2.76,1.5,3.94c1.43,9.72,1.16,33.19,2.01,51.1" id="kvg:086b0-s7" kvg:type="&#12753;" />
			<path d="M55.52,42.3c13.44-2.43,25.08-2.77,33.58-3.72c3.12-0.35,4.29,2.47,4.12,5.07c-0.62,9.55-0.5,32.58-2.47,48.31" id="kvg:086b0-s8" kvg:type="&#12757;a" />
		</g>
		<g id="kvg:086b0-g7" kvg:element="&#20008;">
			<path d="M70.86,13.11c1.16,1.14,1.85,2.79,1.85,4.29c0.04,14.85,0.21,69.08,0.21,72.95" id="kvg:086b0-s9" kvg:type="&#12753;a" />
		</g>
		<g id="kvg:086b0-g8" kvg:element="&#30000;" kvg:part="2" kvg:partial="true">
			<path d="M56.04,65.03c3.71-0.47,33.15-3.37,36.22-3.37" id="kvg:086b0-s10" kvg:type="&#12752;a" />
			<path d="M57.11,92.28c9.39-0.69,22.43-2.66,33.75-2.92" id="kvg:086b0-s11" kvg:type="&#12752;a" />
		</g>
	</g>
</g>
</g>
<g id="kvg:StrokeNumbers_086b0" style="font-size:8;fill:#808080">
	<text transform="matrix(1 0 0 1 7.50 38.50)">1</text>
	<text transform="matrix(1 0 0 1 17.50 35.50)">2</text>
	<text transform="matrix(1 0 0 1 21.50 55.50)">3</text>
	<text transform="matrix(1 0 0 1 17.50 17.50)">4</text>
	<text transform="matrix(1 0 0 1 5.50 87.50)">5</text>
	<text transform="matrix(1 0 0 1 41.58 65.50)">6</text>
	<text transform="matrix(1 0 0 1 47.50 49.50)">7</text>
	<text transform="matrix(1 0 0 1 56.50 38.50)">8</text>
	<text transform="matrix(1 0 0 1 61.50 13.50)">9</text>
	<text transform="matrix(1 0 0 1 59.50 61.50)">10</text>
	<text transform="matrix(1 0 0 1 59.50 88.50)">11</text>
</g>
</svg>