<svg xmlns="http://www.w3.org/2000/svg" xmlns:kvg="http://kanjivg.tagaini.net" height="109" meaning="dragonfly, moon moth" viewBox="0 0 109 109" width="109">
<g id="kvg:StrokePaths_086c9" style="fill:none;stroke:#000000;stroke-width:3;stroke-linecap:round;stroke-linejoin:round;">
<g id="kvg:086c9" kvg:element="&#34505;">
	<g id="kvg:086c9-g1" kvg:element="&#34411;" kvg:position="left" kvg:radical="general">
		<g id="kvg:086c9-g2" kvg:element="&#20013;">
			<g id="kvg:086c9-g3" kvg:element="&#21475;">
				<path d="M12.76,39.4c0.44,0.51,0.98,1.4,1.08,2.06c0.83,5.79,1.29,11.54,2.97,22.43" id="kvg:086c9-s1" kvg:type="&#12753;" />
				<path d="M14.16,41.48c6.65-0.97,20.23-2.83,25.04-3.2c1.88-0.14,2.74,1.38,2.51,2.83c-0.8,4.98-1.4,9.34-2.7,17.62" id="kvg:086c9-s2" kvg:type="&#12757;b" />
				<path d="M17.06,61.93c5.35-0.98,16.19-2.68,24.26-3.39" id="kvg:086c9-s3" kvg:type="&#12752;b" />
			</g>
			<g id="kvg:086c9-g4" kvg:element="&#20008;">
				<path d="M25.92,20.25c1.08,1,2.26,2.75,2.26,4.47c0,4.78-0.2,42.28-0.2,55.66" id="kvg:086c9-s4" kvg:type="&#12753;a" />
			</g>
		</g>
		<path d="M11.57,88.77c0.6,1.16,2.46,1.11,3.06,0.82c0.6-0.29,22.04-13.65,25.76-15.97" id="kvg:086c9-s5" kvg:type="&#12736;" />
		<path d="M37.25,66.75c2.42,3.03,6.7,10.93,7.31,15.64" id="kvg:086c9-s6" kvg:type="&#12756;" />
	</g>
	<g id="kvg:086c9-g5" kvg:element="&#20196;" kvg:position="right">
		<g id="kvg:086c9-g6" kvg:element="&#20154;" kvg:position="top">
			<path d="M67.15,12.5c0.07,1.01,0.3,2.66-0.14,4.07C64.25,25.5,55.5,43.75,45.25,54.6" id="kvg:086c9-s7" kvg:type="&#12754;" />
			<path d="M67.17,17.29c4.53,5.36,21,27.04,24.82,31.5c1.3,1.51,2.96,2.16,4.26,2.59" id="kvg:086c9-s8" kvg:type="&#12751;" />
		</g>
		<g id="kvg:086c9-g7" kvg:position="bottom">
			<g id="kvg:086c9-g8" kvg:element="&#19968;">
				<path d="M62.2,41.83c4.14,2.1,10.71,8.62,11.74,11.88" id="kvg:086c9-s9" kvg:type="&#12756;" />
			</g>
			<g id="kvg:086c9-g9" kvg:element="&#12510;">
				<path d="M51.19,61.87c1.07,0.88,3.33,1.31,4.55,1.08c2.41-0.44,27.75-4.31,30.29-4.75c2.54-0.44,3.18,1.04,1.35,3.38c-4.28,5.48-16.57,20.49-18.18,22.25" id="kvg:086c9-s10" kvg:type="&#12742;a" />
				<path d="M57.25,76.9c4.35,2.62,15.62,12.73,17.67,19.6" id="kvg:086c9-s11" kvg:type="&#12756;" />
			</g>
		</g>
	</g>
</g>
</g>
<g id="kvg:StrokeNumbers_086c9" style="font-size:8;fill:#808080">
	<text transform="matrix(1 0 0 1 6.50 46.50)">1</text>
	<text transform="matrix(1 0 0 1 15.50 37.50)">2</text>
	<text transform="matrix(1 0 0 1 19.50 58.85)">3</text>
	<text transform="matrix(1 0 0 1 15.54 20.85)">4</text>
	<text transform="matrix(1 0 0 1 3.72 90.50)">5</text>
	<text transform="matrix(1 0 0 1 40.50 67.85)">6</text>
	<text transform="matrix(1 0 0 1 58.50 14.50)">7</text>
	<text transform="matrix(1 0 0 1 73.50 22.50)">8</text>
	<text transform="matrix(1 0 0 1 64.50 40.50)">9</text>
	<text transform="matrix(1 0 0 1 48.50 59.50)">10</text>
	<text transform="matrix(1 0 0 1 57.50 75.50)">11</text>
</g>
</svg>