<svg xmlns="http://www.w3.org/2000/svg" xmlns:kvg="http://kanjivg.tagaini.net" height="109" meaning="lizard" viewBox="0 0 109 109" width="109">
<g id="kvg:StrokePaths_08734" style="fill:none;stroke:#000000;stroke-width:3;stroke-linecap:round;stroke-linejoin:round;">
<g id="kvg:08734" kvg:element="&#34612;">
	<g id="kvg:08734-g1" kvg:element="&#34411;" kvg:position="left" kvg:radical="general">
		<g id="kvg:08734-g2" kvg:element="&#20013;">
			<g id="kvg:08734-g3" kvg:element="&#21475;">
				<path d="M12.26,34.26c0.46,0.6,1.02,1.64,1.12,2.42c0.87,6.79,1.87,15.58,3.12,25.71" id="kvg:08734-s1" kvg:type="&#12753;" />
				<path d="M13.72,35.7c6.93-1.14,21.11-2.49,26.13-2.93c1.96-0.17,2.86,1.61,2.62,3.32c-0.83,5.83-2.48,12.04-3.83,21.74" id="kvg:08734-s2" kvg:type="&#12757;b" />
				<path d="M16.76,59.59C24.5,58.75,32,58.5,41.02,57.62" id="kvg:08734-s3" kvg:type="&#12752;b" />
			</g>
			<g id="kvg:08734-g4" kvg:element="&#20008;">
				<path d="M25.42,14.75c1.08,1,2.26,2.75,2.26,4.47c0,4.78-0.2,46.78-0.2,60.16" id="kvg:08734-s4" kvg:type="&#12753;a" />
			</g>
		</g>
		<path d="M10.57,86.27c0.6,1.16,2.46,1.11,3.06,0.82C14.23,86.8,32,78.5,38.88,75.12" id="kvg:08734-s5" kvg:type="&#12736;" />
		<path d="M33.5,67.25c3.2,2.76,8.26,11.35,9.06,15.64" id="kvg:08734-s6" kvg:type="&#12756;" />
	</g>
	<g id="kvg:08734-g5" kvg:element="&#26131;" kvg:position="right">
		<g id="kvg:08734-g6" kvg:element="&#26085;" kvg:position="top">
			<path d="M55.15,15.91c1.1,1.34,1.78,2.92,1.83,3.79c0.26,4.69,2.37,23.39,2.51,24.27" id="kvg:08734-s7" kvg:type="&#12753;" />
			<path d="M58.16,17.45c2.33-0.11,22.37-2.83,24.49-2.96c1.77-0.11,2.83,2.59,2.77,3.26c-0.42,4.94-1.25,13.02-2.75,24.08" id="kvg:08734-s8" kvg:type="&#12757;a" />
			<path d="M58.91,30.07c8.2-0.84,19.91-2.24,25.35-2.49" id="kvg:08734-s9" kvg:type="&#12752;a" />
			<path d="M60.17,42.3c6.77-0.91,16.47-1.84,22.81-2.28" id="kvg:08734-s10" kvg:type="&#12752;a" />
		</g>
		<g id="kvg:08734-g7" kvg:element="&#21247;" kvg:position="bottom">
			<g id="kvg:08734-g8" kvg:element="&#21241;">
				<g id="kvg:08734-g9" kvg:element="&#20031;">
					<path d="M62.09,47.7c0.04,0.46,0.17,1.23-0.08,1.86c-1.6,3.9-8.1,12.46-15.03,17.76" id="kvg:08734-s11" kvg:type="&#12754;" />
				</g>
				<path d="M61.88,56.57c0.81,0.45,1.95,0.6,3.25,0.3c1.3-0.3,22.33-2.85,25.57-3c3.24-0.15,4.01,1.52,3.41,4.65C92,69.5,90,81.5,83.81,93.42C80.93,98.97,78,97,75.12,91.67" id="kvg:08734-s12" kvg:type="&#12742;" />
			</g>
			<g id="kvg:08734-g10" kvg:element="&#20031;">
				<path d="M66.69,59.56c0.05,0.52,0.23,1.4-0.09,2.1C62.75,70,57.75,75.5,50.81,81.78" id="kvg:08734-s13" kvg:type="&#12754;" />
			</g>
			<g id="kvg:08734-g11" kvg:element="&#20031;">
				<path d="M80.1,58.15c0.07,0.82,0.26,2.14-0.13,3.28C77.25,69.25,69,82.25,57.66,92.76" id="kvg:08734-s14" kvg:type="&#12754;" />
			</g>
		</g>
	</g>
</g>
</g>
<g id="kvg:StrokeNumbers_08734" style="font-size:8;fill:#808080">
	<text transform="matrix(1 0 0 1 5.50 40.50)">1</text>
	<text transform="matrix(1 0 0 1 15.50 31.50)">2</text>
	<text transform="matrix(1 0 0 1 19.50 55.50)">3</text>
	<text transform="matrix(1 0 0 1 15.54 15.50)">4</text>
	<text transform="matrix(1 0 0 1 2.50 88.50)">5</text>
	<text transform="matrix(1 0 0 1 36.50 67.85)">6</text>
	<text transform="matrix(1 0 0 1 48.50 24.50)">7</text>
	<text transform="matrix(1 0 0 1 58.50 14.50)">8</text>
	<text transform="matrix(1 0 0 1 62.50 26.50)">9</text>
	<text transform="matrix(1 0 0 1 62.50 38.50)">10</text>
	<text transform="matrix(1 0 0 1 50.50 52.50)">11</text>
	<text transform="matrix(1 0 0 1 65.50 53.50)">12</text>
	<text transform="matrix(1 0 0 1 55.50 66.50)">13</text>
	<text transform="matrix(1 0 0 1 68.50 67.50)">14</text>
</g>
</svg>