<svg xmlns="http://www.w3.org/2000/svg" xmlns:kvg="http://kanjivg.tagaini.net" height="109" meaning="bat" viewBox="0 0 109 109" width="109">
<g id="kvg:StrokePaths_08759" style="fill:none;stroke:#000000;stroke-width:3;stroke-linecap:round;stroke-linejoin:round;">
<g id="kvg:08759" kvg:element="&#34649;">
	<g id="kvg:08759-g1" kvg:element="&#34411;" kvg:position="left" kvg:radical="general">
		<g id="kvg:08759-g2" kvg:element="&#20013;">
			<g id="kvg:08759-g3" kvg:element="&#21475;">
				<path d="M11.26,35.9c0.48,0.6,1.08,1.64,1.19,2.43c0.92,6.81,1.98,15.64,3.31,25.82" id="kvg:08759-s1" kvg:type="&#12753;" />
				<path d="M12.72,37.98c6.93-0.97,19.61-2.83,24.63-3.2c1.96-0.14,2.86,1.38,2.62,2.83c-0.83,4.98-1.98,12.84-3.33,21.12" id="kvg:08759-s2" kvg:type="&#12757;b" />
				<path d="M15.76,61.43c5.58-0.98,14.96-1.48,22.76-2.39" id="kvg:08759-s3" kvg:type="&#12752;b" />
			</g>
			<g id="kvg:08759-g4" kvg:element="&#20008;">
				<path d="M23.42,14.25c1.08,1,2.26,2.75,2.26,4.47c0,4.78-0.2,48.78-0.2,62.16" id="kvg:08759-s4" kvg:type="&#12753;a" />
			</g>
		</g>
		<path d="M11.07,85.27c0.6,1.16,2.46,1.11,3.06,0.82c0.6-0.29,21.04-9.65,24.76-11.97" id="kvg:08759-s5" kvg:type="&#12736;" />
		<path d="M34,65.75c2.31,2.41,5.98,9.9,6.56,13.64" id="kvg:08759-s6" kvg:type="&#12756;" />
	</g>
	<g id="kvg:08759-g5" kvg:element="&#25153;" kvg:position="right">
		<g id="kvg:08759-g6" kvg:element="&#25144;" kvg:position="tare">
			<path d="M47.55,15.76c0.95,0.49,3.16,0.83,4.11,0.8c9.79-0.34,29.4-2.56,38.01-2.9c1.57-0.06,2.51,0.14,3.29,0.29" id="kvg:08759-s7" kvg:type="&#12752;" />
			<path d="M48.48,30.91c1.23,0.15,2.76,0.26,4.5,0.17c11.49-0.6,28.66-3.07,36.23-3.82c1.64-0.16,4.15,0.37,3.23,3.51c-1.37,4.68-2.41,6.43-3.85,11.99" id="kvg:08759-s8" kvg:type="&#12757;c" />
			<path d="M51.11,47.25c6.06,0,30.1-3.25,40.74-3.75" id="kvg:08759-s9" kvg:type="&#12752;b" />
			<path d="M50.66,31.18c0.3,1.3,0.5,2.96,0.52,5.18C51.33,64.3,47.57,83.43,35.25,94" id="kvg:08759-s10" kvg:type="&#12754;" />
		</g>
		<g id="kvg:08759-g7" kvg:element="&#20874;">
			<g id="kvg:08759-g8" kvg:element="&#20866;">
				<path d="M52.93,60.71c0.41,0.64,0.53,2.16,0.55,3.31c0.03,2.97,2.6,31.55,2.6,33.47" id="kvg:08759-s11" kvg:type="&#12753;" />
				<path d="M53.84,61.99c5.19-0.51,38.35-4.38,39.38-4.56c2.18-0.38,3.18,2.35,3.18,3.03c0,6.78-2.94,28.64-3.98,31.33c-3.67,9.45-5.32,2.43-6.96,0.77" id="kvg:08759-s12" kvg:type="&#12742;a" />
			</g>
			<g id="kvg:08759-g9" kvg:element="&#24318;" kvg:variant="true">
				<g id="kvg:08759-g10" kvg:element="&#21313;" kvg:part="1" kvg:variant="true">
					<path d="M54.62,77.56c5.93-0.4,27.35-3.26,40.31-3.52" id="kvg:08759-s13" kvg:type="&#12752;" />
				</g>
				<g id="kvg:08759-g11" kvg:element="&#20031;" kvg:variant="true">
					<path d="M66.08,63.5c0.77,0.27,1.22,1.2,1.38,1.73c0.15,0.53,0,26.33-0.15,29.66" id="kvg:08759-s14" kvg:type="&#12753;" />
				</g>
				<g id="kvg:08759-g12" kvg:element="&#21313;" kvg:part="2" kvg:variant="true">
					<path d="M77.54,61.07c0.77,0.27,1.22,1.2,1.38,1.73c0.15,0.53,0,28.63-0.15,31.96" id="kvg:08759-s15" kvg:type="&#12753;" />
				</g>
			</g>
		</g>
	</g>
</g>
</g>
<g id="kvg:StrokeNumbers_08759" style="font-size:8;fill:#808080">
	<text transform="matrix(1 0 0 1 4.85 38.50)">1</text>
	<text transform="matrix(1 0 0 1 14.66 34.50)">2</text>
	<text transform="matrix(1 0 0 1 17.50 57.50)">3</text>
	<text transform="matrix(1 0 0 1 15.54 15.50)">4</text>
	<text transform="matrix(1 0 0 1 3.72 87.50)">5</text>
	<text transform="matrix(1 0 0 1 38.50 67.85)">6</text>
	<text transform="matrix(1 0 0 1 47.50 12.50)">7</text>
	<text transform="matrix(1 0 0 1 52.50 27.50)">8</text>
	<text transform="matrix(1 0 0 1 56.50 43.50)">9</text>
	<text transform="matrix(1 0 0 1 43.50 38.50)">10</text>
	<text transform="matrix(1 0 0 1 46.25 86.50)">11</text>
	<text transform="matrix(1 0 0 1 56.50 58.50)">12</text>
	<text transform="matrix(1 0 0 1 57.00 74.50)">13</text>
	<text transform="matrix(1 0 0 1 69.50 68.50)">14</text>
	<text transform="matrix(1 0 0 1 81.25 66.08)">15</text>
</g>
</svg>