<svg xmlns="http://www.w3.org/2000/svg" xmlns:kvg="http://kanjivg.tagaini.net" height="109" kun="&#12395;&#12375;, &#12395;&#12394;" meaning="small, edible, helical fresh-water mollusk" on="&#12521;" viewBox="0 0 109 109" width="109">
<g id="kvg:StrokePaths_087ba" style="fill:none;stroke:#000000;stroke-width:3;stroke-linecap:round;stroke-linejoin:round;">
<g id="kvg:087ba" kvg:element="&#34746;">
	<g id="kvg:087ba-g1" kvg:element="&#34411;" kvg:position="left" kvg:radical="general">
		<g id="kvg:087ba-g2" kvg:element="&#20013;">
			<g id="kvg:087ba-g3" kvg:element="&#21475;">
				<path d="M12.76,37.4c0.46,0.51,1.02,1.4,1.12,2.06c0.87,5.79,1.87,12.29,3.12,20.93" id="kvg:087ba-s1" kvg:type="&#12753;" />
				<path d="M14.72,39.48c6.93-0.97,21.61-3.33,26.63-3.7c1.96-0.14,2.86,1.38,2.62,2.83c-0.83,4.98-1.98,8.34-3.33,16.62" id="kvg:087ba-s2" kvg:type="&#12757;b" />
				<path d="M17.26,58.43c5.58-0.98,17.96-2.48,25.76-3.39" id="kvg:087ba-s3" kvg:type="&#12752;b" />
			</g>
			<g id="kvg:087ba-g4" kvg:element="&#20008;">
				<path d="M25.92,18.25c1.08,1,2.26,2.75,2.26,4.47c0,4.78-0.2,43.28-0.2,56.66" id="kvg:087ba-s4" kvg:type="&#12753;a" />
			</g>
		</g>
		<path d="M13.07,84.77c0.6,1.16,2.46,1.11,3.06,0.82c0.6-0.29,21.54-11.15,25.26-13.47" id="kvg:087ba-s5" kvg:type="&#12736;" />
		<path d="M37.5,65.75c2.49,2.67,6.43,10.99,7.06,15.14" id="kvg:087ba-s6" kvg:type="&#12756;" />
	</g>
	<g id="kvg:087ba-g5" kvg:element="&#32047;" kvg:position="right">
		<g id="kvg:087ba-g6" kvg:element="&#30000;" kvg:position="top">
			<path d="M49.56,15.95c0.25,0.36,0.62,1.05,0.75,1.5c1.11,3.76,2.25,13.08,2.93,20.1" id="kvg:087ba-s7" kvg:type="&#12753;" />
			<path d="M50.58,16.89c8.58-0.95,32.17-3.14,39.48-3.35c2.37-0.07,2.83,1.95,2.7,2.99c-0.44,3.79-3.05,11.14-4.72,19.26" id="kvg:087ba-s8" kvg:type="&#12757;a" />
			<path d="M68.59,16.85c0.45,0.68,1.18,1.82,1.2,2.63c0.17,5.37,0.06,12.38,0.06,15.21" id="kvg:087ba-s9" kvg:type="&#12753;a" />
			<path d="M53.04,26.19c2.79-0.37,34.67-2.65,36.98-2.8" id="kvg:087ba-s10" kvg:type="&#12752;a" />
			<path d="M53.33,35.72c6.18-0.4,26.18-1.09,34.71-1.75" id="kvg:087ba-s11" kvg:type="&#12752;a" />
		</g>
		<g id="kvg:087ba-g7" kvg:element="&#31992;" kvg:position="bottom">
			<path d="M67.68,36.87c0.38,1.09,0.16,1.98-0.69,3.08c-2,2.6-5.74,6.3-9.41,9.62c-0.72,0.65-0.76,2.53,0,2.72c2.61,0.65,7.7,2.09,9.68,3.5" id="kvg:087ba-s12" kvg:type="&#12764;" />
			<path d="M82.3,41.85c0.38,0.54,0.15,2.14-0.38,2.72c-8.18,8.88-14.99,12.96-27.14,22.88c-1.32,1.08-0.76,1.81,0.76,1.45c6.36-1.51,23.89-5.04,32.07-6.49" id="kvg:087ba-s13" kvg:type="&#12764;" />
			<path d="M81.94,55.8c3.61,2.63,9.34,10.82,10.24,14.91" id="kvg:087ba-s14" kvg:type="&#12756;" />
			<path d="M70.04,69.48c0.07,0.2,0.97,1.06,1.04,2.35c0.33,6.21-0.21,24.05-0.21,26.16" id="kvg:087ba-s15" kvg:type="&#12753;" />
			<path d="M57.77,76.79c0.22,0.67,0.18,2.89-0.22,3.37c-2.61,3.15-9.13,9.22-12.82,11.92" id="kvg:087ba-s16" kvg:type="&#12754;" />
			<path d="M81.69,78.09c4.04,3.14,10.97,11.5,12.42,14.64" id="kvg:087ba-s17" kvg:type="&#12756;" />
		</g>
	</g>
</g>
</g>
<g id="kvg:StrokeNumbers_087ba" style="font-size:8;fill:#808080">
	<text transform="matrix(1 0 0 1 7.50 45.50)">1</text>
	<text transform="matrix(1 0 0 1 15.50 35.85)">2</text>
	<text transform="matrix(1 0 0 1 19.50 54.50)">3</text>
	<text transform="matrix(1 0 0 1 17.50 18.50)">4</text>
	<text transform="matrix(1 0 0 1 5.50 88.50)">5</text>
	<text transform="matrix(1 0 0 1 40.50 65.50)">6</text>
	<text transform="matrix(1 0 0 1 42.50 22.18)">7</text>
	<text transform="matrix(1 0 0 1 53.50 13.50)">8</text>
	<text transform="matrix(1 0 0 1 74.50 21.50)">9</text>
	<text transform="matrix(1 0 0 1 55.50 23.95)">10</text>
	<text transform="matrix(1 0 0 1 56.50 33.50)">11</text>
	<text transform="matrix(1 0 0 1 55.50 43.80)">12</text>
	<text transform="matrix(1 0 0 1 72.50 42.50)">13</text>
	<text transform="matrix(1 0 0 1 83.50 56.50)">14</text>
	<text transform="matrix(1 0 0 1 61.50 74.50)">15</text>
	<text transform="matrix(1 0 0 1 47.50 77.50)">16</text>
	<text transform="matrix(1 0 0 1 77.50 75.43)">17</text>
</g>
</svg>