<svg xmlns="http://www.w3.org/2000/svg" xmlns:kvg="http://kanjivg.tagaini.net" height="109" meaning="coiled up" viewBox="0 0 109 109" width="109">
<g id="kvg:StrokePaths_087e0" style="fill:none;stroke:#000000;stroke-width:3;stroke-linecap:round;stroke-linejoin:round;">
<g id="kvg:087e0" kvg:element="&#34784;">
	<g id="kvg:087e0-g1" kvg:element="&#34411;" kvg:position="left" kvg:radical="general">
		<g id="kvg:087e0-g2" kvg:element="&#20013;">
			<g id="kvg:087e0-g3" kvg:element="&#21475;">
				<path d="M10.76,36.04c0.4,0.6,0.89,1.65,0.98,2.44c0.76,6.84,1.63,15.7,2.72,25.92" id="kvg:087e0-s1" kvg:type="&#12753;" />
				<path d="M12.47,37.99c7.03-0.24,18.34-2.03,22.72-2.47c1.71-0.17,3.49,1.13,3.28,2.85c-0.73,5.88-2.23,11.13-3.4,20.91" id="kvg:087e0-s2" kvg:type="&#12757;b" />
				<path d="M14.68,61.08c6.07-0.58,14.82-1.58,22.46-2.01" id="kvg:087e0-s3" kvg:type="&#12752;b" />
			</g>
			<g id="kvg:087e0-g4" kvg:element="&#20008;">
				<path d="M23.42,14.25c1.08,1,1.76,2.75,1.76,4.47c0,4.78-0.2,50.28-0.2,63.66" id="kvg:087e0-s4" kvg:type="&#12753;a" />
			</g>
		</g>
		<path d="M11.07,87.51c0.51,0.88,2.09,0.84,2.6,0.62c0.51-0.22,20.31-9.02,23.47-10.77" id="kvg:087e0-s5" kvg:type="&#12736;" />
		<path d="M33.25,70.5c2.93,3.07,7.57,12.62,8.31,17.39" id="kvg:087e0-s6" kvg:type="&#12756;" />
	</g>
	<g id="kvg:087e0-g5" kvg:element="&#30058;" kvg:position="right">
		<g id="kvg:087e0-g6" kvg:element="&#37318;" kvg:position="top">
			<g id="kvg:087e0-g7" kvg:element="&#20031;">
				<path d="M83.79,11.75c0.1,0.26,0.13,0.64-0.19,1.06c-2.6,3.46-16.71,6.71-33.46,9.5" id="kvg:087e0-s7" kvg:type="&#12754;" />
			</g>
			<g id="kvg:087e0-g8" kvg:element="&#31859;">
				<path d="M53.23,27.02c2.11,1.46,5.29,5.6,5.82,7.88" id="kvg:087e0-s8" kvg:type="&#12756;" />
				<path d="M86.1,20.25c0.02,0.33,0.13,0.89-0.04,1.34c-1.41,3.61-3.66,7.84-8.3,12.8" id="kvg:087e0-s9" kvg:type="&#12754;" />
				<path d="M45.04,38.97c0.64,0.15,2.34,0.39,4.04,0.44c4.67,0.15,35.61-3.78,43.05-3.48c1.7,0.07,2.12-0.15,3.19,0" id="kvg:087e0-s10" kvg:type="&#12752;" />
				<path d="M68.63,21.53c0.77,0.31,1.39,1.85,1.39,2.51c0,3.93,0,35.86-0.15,39.78" id="kvg:087e0-s11" kvg:type="&#12753;" />
				<path d="M68.06,37.91c-4.46,7.71-15.1,17.66-25.14,22.11" id="kvg:087e0-s12" kvg:type="&#12754;" />
				<path d="M70.85,37.95c3.05,2.72,17.68,16.87,21,19.54c1.12,0.91,2.09,1.3,3.21,1.55" id="kvg:087e0-s13" kvg:type="&#12751;" />
			</g>
		</g>
		<g id="kvg:087e0-g9" kvg:element="&#30000;" kvg:position="bottom">
			<path d="M50.13,70.29c0.28,0.48,0.29,0.81,0.44,1.4c1.26,4.9,2.84,17.53,3.59,26.56" id="kvg:087e0-s14" kvg:type="&#12753;" />
			<path d="M50.97,71.36c12.55-1.39,28.99-2.93,36.48-3.41c2.75-0.18,4.15,1.24,4,2.56c-0.62,5.42-2.45,18.17-4.55,26.5" id="kvg:087e0-s15" kvg:type="&#12757;a" />
			<path d="M69.51,71.33c0.6,0.92,0.81,1.3,0.8,2.59c-0.02,6.09,0.18,18.78,0.18,20.76" id="kvg:087e0-s16" kvg:type="&#12753;a" />
			<path d="M53.26,83.16c3.27-0.24,33.02-2.41,35.72-2.41" id="kvg:087e0-s17" kvg:type="&#12752;a" />
			<path d="M54.68,96.14c8.66-0.32,22.22-1.75,32.19-1.88" id="kvg:087e0-s18" kvg:type="&#12752;a" />
		</g>
	</g>
</g>
</g>
<g id="kvg:StrokeNumbers_087e0" style="font-size:8;fill:#808080">
	<text transform="matrix(1 0 0 1 5.50 44.50)">1</text>
	<text transform="matrix(1 0 0 1 14.50 34.50)">2</text>
	<text transform="matrix(1 0 0 1 16.50 57.50)">3</text>
	<text transform="matrix(1 0 0 1 14.50 14.50)">4</text>
	<text transform="matrix(1 0 0 1 3.50 88.50)">5</text>
	<text transform="matrix(1 0 0 1 35.50 69.50)">6</text>
	<text transform="matrix(1 0 0 1 76.50 10.50)">7</text>
	<text transform="matrix(1 0 0 1 47.50 29.50)">8</text>
	<text transform="matrix(1 0 0 1 78.25 24.03)">9</text>
	<text transform="matrix(1 0 0 1 42.50 35.50)">10</text>
	<text transform="matrix(1 0 0 1 61.50 28.50)">11</text>
	<text transform="matrix(1 0 0 1 50.50 48.50)">12</text>
	<text transform="matrix(1 0 0 1 80.50 45.50)">13</text>
	<text transform="matrix(1 0 0 1 42.25 77.50)">14</text>
	<text transform="matrix(1 0 0 1 54.25 68.50)">15</text>
	<text transform="matrix(1 0 0 1 74.25 76.50)">16</text>
	<text transform="matrix(1 0 0 1 57.50 80.50)">17</text>
	<text transform="matrix(1 0 0 1 57.50 93.50)">18</text>
</g>
</svg>