<svg xmlns="http://www.w3.org/2000/svg" xmlns:kvg="http://kanjivg.tagaini.net" height="109" meaning="python, boa constrictor" viewBox="0 0 109 109" width="109">
<g id="kvg:StrokePaths_0880e" style="fill:none;stroke:#000000;stroke-width:3;stroke-linecap:round;stroke-linejoin:round;">
<g id="kvg:0880e" kvg:element="&#34830;">
	<g id="kvg:0880e-g1" kvg:element="&#34411;" kvg:position="left" kvg:radical="tradit">
		<g id="kvg:0880e-g2" kvg:element="&#20013;">
			<g id="kvg:0880e-g3" kvg:element="&#21475;">
				<path d="M11.26,36.9c0.46,0.51,1.02,1.4,1.12,2.06c0.87,5.79,1.12,14.29,2.62,23.43" id="kvg:0880e-s1" kvg:type="&#12753;" />
				<path d="M13.22,38.98c6.93-0.97,17.11-2.83,22.13-3.2c1.96-0.14,2.86,1.38,2.62,2.83c-0.83,4.98-1.98,11.84-3.33,20.12" id="kvg:0880e-s2" kvg:type="&#12757;b" />
				<path d="M15.26,60.43c6.24-0.43,12.99-1.18,21.76-1.89" id="kvg:0880e-s3" kvg:type="&#12752;b" />
			</g>
			<g id="kvg:0880e-g4" kvg:element="&#20008;">
				<path d="M22.42,17.75c1.08,1,2.26,2.75,2.26,4.47c0,4.78-0.2,45.28-0.2,58.66" id="kvg:0880e-s4" kvg:type="&#12753;a" />
			</g>
		</g>
		<path d="M11.57,85.77c0.6,1.16,2.46,1.11,3.06,0.82c0.6-0.29,18.04-9.15,21.76-11.47" id="kvg:0880e-s5" kvg:type="&#12736;" />
		<path d="M32,66.75c3.2,3.03,8.26,12.44,9.06,17.14" id="kvg:0880e-s6" kvg:type="&#12756;" />
	</g>
	<g id="kvg:0880e-g5" kvg:position="right">
		<g id="kvg:0880e-g6" kvg:element="&#33401;" kvg:original="&#33400;" kvg:position="top" kvg:variant="true">
			<path d="M42.15,24.03c1.4,0.41,3.03,0.5,4.43,0.41c12.86-0.76,29.56-3.69,44.38-3.75c2.33-0.01,3.73,0.2,4.9,0.4" id="kvg:0880e-s7" kvg:type="&#12752;" />
			<path d="M53.67,13.31c1.38,1.13,1.87,1.46,1.97,2.16C56.5,21.75,56.75,28,57.09,31.5" id="kvg:0880e-s8" kvg:type="&#12753;a" />
			<path d="M78.45,11.75c0.33,0.93,0.97,2.56,0.89,3.75c-0.34,5-1.59,8.25-2.5,13.82" id="kvg:0880e-s9" kvg:type="&#12753;a" />
		</g>
		<g id="kvg:0880e-g7" kvg:position="bottom">
			<g id="kvg:0880e-g8" kvg:element="&#22823;">
				<path d="M44.91,40.06c1.44,0.36,3.16,0.72,5.01,0.57c13.93-1.13,28.84-3,39.99-3.85c1.92-0.15,3.46-0.07,5.19,0.39" id="kvg:0880e-s10" kvg:type="&#12752;" />
				<path d="M66.24,27.25c0.23,1.18,0.31,1.92-0.11,2.84C59.25,45.25,52.5,53.75,42.69,62.33" id="kvg:0880e-s11" kvg:type="&#12754;" />
				<path d="M73.78,38.46c4.76,4.43,15.86,15.71,20.61,18.68c1.62,1.01,2.18,1.16,2.91,1.25" id="kvg:0880e-s12" kvg:type="&#12751;" />
			</g>
			<g id="kvg:0880e-g9" kvg:element="&#21321;">
				<g id="kvg:0880e-g10" kvg:element="&#21313;" kvg:position="top">
					<path d="M56.08,56.93c0.77,0.23,2.19,0.29,2.96,0.23c5.71-0.41,13.46-1.16,19.69-1.68c1.28-0.11,2.06,0.11,2.7,0.23" id="kvg:0880e-s13" kvg:type="&#12752;" />
					<path d="M68.82,48.13c0.25,0.24,0.78,1.78,0.83,2.25c0.05,0.47-0.03,13.64-0.08,16.61" id="kvg:0880e-s14" kvg:type="&#12753;" />
				</g>
				<g id="kvg:0880e-g11" kvg:element="&#24318;" kvg:position="bottom">
					<g id="kvg:0880e-g12" kvg:element="&#21313;" kvg:part="1">
						<path d="M45.63,74.6c1.25,0.42,3.54,0.49,4.79,0.42c13.01-0.71,26.05-2.85,42.58-3.21c2.08-0.05,3.34,0.2,4.38,0.42" id="kvg:0880e-s15" kvg:type="&#12752;" />
					</g>
					<g id="kvg:0880e-g13" kvg:element="&#20031;">
						<path d="M58.8,65.1c0.36,0.67,0.7,1.37,0.73,2.34c0.29,8.91-0.78,21.55-12.71,29.96" id="kvg:0880e-s16" kvg:type="&#12754;" />
					</g>
					<g id="kvg:0880e-g14" kvg:element="&#21313;" kvg:part="2">
						<path d="M80.44,62.05c0.46,0.56,1.29,1.37,1.29,2.55c0,5.29,0,29.5-0.14,34.4" id="kvg:0880e-s17" kvg:type="&#12753;" />
					</g>
				</g>
			</g>
		</g>
	</g>
</g>
</g>
<g id="kvg:StrokeNumbers_0880e" style="font-size:8;fill:#808080">
	<text transform="matrix(1 0 0 1 5.75 43.50)">1</text>
	<text transform="matrix(1 0 0 1 14.50 34.50)">2</text>
	<text transform="matrix(1 0 0 1 17.50 57.50)">3</text>
	<text transform="matrix(1 0 0 1 13.50 18.50)">4</text>
	<text transform="matrix(1 0 0 1 8.50 82.50)">5</text>
	<text transform="matrix(1 0 0 1 33.50 67.50)">6</text>
	<text transform="matrix(1 0 0 1 35.50 23.50)">7</text>
	<text transform="matrix(1 0 0 1 45.50 13.50)">8</text>
	<text transform="matrix(1 0 0 1 70.50 11.50)">9</text>
	<text transform="matrix(1 0 0 1 41.50 37.45)">10</text>
	<text transform="matrix(1 0 0 1 58.50 31.63)">11</text>
	<text transform="matrix(1 0 0 1 82.00 44.80)">12</text>
	<text transform="matrix(1 0 0 1 56.75 54.50)">13</text>
	<text transform="matrix(1 0 0 1 61.50 46.50)">14</text>
	<text transform="matrix(1 0 0 1 43.50 71.50)">15</text>
	<text transform="matrix(1 0 0 1 48.50 65.50)">16</text>
	<text transform="matrix(1 0 0 1 72.50 67.18)">17</text>
</g>
</svg>