<svg xmlns="http://www.w3.org/2000/svg" xmlns:kvg="http://kanjivg.tagaini.net" height="109" meaning="nosebleed" viewBox="0 0 109 109" width="109">
<g id="kvg:StrokePaths_08844" style="fill:none;stroke:#000000;stroke-width:3;stroke-linecap:round;stroke-linejoin:round;">
<g id="kvg:08844" kvg:element="&#34884;">
	<g id="kvg:08844-g1" kvg:element="&#34880;" kvg:position="left" kvg:radical="general">
		<path d="M33.82,13.08c0.03,0.49,0.15,1.32-0.07,1.97c-1.6,4.67-6.17,13.23-12.51,18.85" id="kvg:08844-s1" kvg:type="&#12754;" />
		<g id="kvg:08844-g2" kvg:element="&#30399;">
			<path d="M15.25,33.45c0.51,0.55,0.84,1.8,0.92,2.51c0.62,5.6,2.87,38.77,3.29,48.83" id="kvg:08844-s2" kvg:type="&#12753;a" />
			<path d="M16.73,36.47c6.56-1.16,24.66-3.15,27.06-3.19c1.71-0.03,2.46,0.97,2.26,2.54c-0.4,3.19-1.63,35.46-2.39,39.84" id="kvg:08844-s3" kvg:type="&#12757;b" />
			<path d="M26.47,36.9c0.15,0.53,0.69,1.47,0.71,2.14c0.32,10.62,0.32,32.95,0,43.27" id="kvg:08844-s4" kvg:type="&#12753;a" />
			<path d="M34.98,35.88c0.01,0.46,0.69,2.09,0.69,2.87c0.01,8.8,0.16,29.19,0.04,39.67" id="kvg:08844-s5" kvg:type="&#12753;a" />
			<path d="M11.13,86.09c0.7,1.53,2.48,1.28,3.18,1.03c9.69-3.37,22.94-8.87,34.52-13.13" id="kvg:08844-s6" kvg:type="&#12752;" />
		</g>
	</g>
	<g id="kvg:08844-g3" kvg:element="&#19985;" kvg:position="right">
		<path d="M54.53,21.29c1.41,0.65,2.95,0.94,4.61,0.79c11.2-1.06,19.51-2.51,29.62-3.34c2.87-0.23,3.81,2.98,3.07,5.86c-2.57,9.94-7.27,49.45-9.43,66.45" id="kvg:08844-s7" kvg:type="&#12757;" />
		<path d="M69.41,24.24c0.88,0.58,1.15,2.75,1.08,3.95c-0.7,12.51-7.73,54.41-9.66,64.6" id="kvg:08844-s8" kvg:type="&#12753;" />
		<g id="kvg:08844-g4" kvg:element="&#19968;">
			<path d="M51.43,55.12c1.31,0.59,3.73,0.7,5.04,0.59C67.75,54.75,82,53,93.71,52.19c2.19-0.15,3.51,0.28,4.6,0.58" id="kvg:08844-s9" kvg:type="&#12752;" />
		</g>
		<path d="M42.75,92.72c1.47,0.66,4.15,1.31,5.62,1.2c15.88-1.17,27.2-3.09,45.49-3.38c2.44-0.04,3.91,0.31,5.13,0.64" id="kvg:08844-s10" kvg:type="&#12752;" />
	</g>
</g>
</g>
<g id="kvg:StrokeNumbers_08844" style="font-size:8;fill:#808080">
	<text transform="matrix(1 0 0 1 24.44 12.13)">1</text>
	<text transform="matrix(1 0 0 1 9.44 43.06)">2</text>
	<text transform="matrix(1 0 0 1 17.50 31.98)">3</text>
	<text transform="matrix(1 0 0 1 21.44 45.91)">4</text>
	<text transform="matrix(1 0 0 1 29.44 45.83)">5</text>
	<text transform="matrix(1 0 0 1 7.44 83)">6</text>
	<text transform="matrix(1 0 0 1 51.44 15.68)">7</text>
	<text transform="matrix(1 0 0 1 62.44 30.60)">8</text>
	<text transform="matrix(1 0 0 1 50 52)">9</text>
	<text transform="matrix(1 0 0 1 42 90)">10</text>
</g>
</svg>