<svg xmlns="http://www.w3.org/2000/svg" xmlns:kvg="http://kanjivg.tagaini.net" height="109" meaning="coat" viewBox="0 0 109 109" width="109">
<g id="kvg:StrokePaths_0888d" style="fill:none;stroke:#000000;stroke-width:3;stroke-linecap:round;stroke-linejoin:round;">
<g id="kvg:0888d" kvg:element="&#34957;">
	<g id="kvg:0888d-g1" kvg:element="&#34916;" kvg:original="&#34915;" kvg:position="left" kvg:radical="general" kvg:variant="true">
		<path d="M24.33,12c3.07,2.53,6.37,6.32,9,10.75" id="kvg:0888d-s1" kvg:type="&#12756;" />
		<path d="M13.2,33.86c0.94,0.39,2.37,0.86,3.96,0.61c4.59-0.72,18.87-4.33,21.19-4.99c2.33-0.66,4.58,0.83,3.26,2.85C33.86,44.15,24.4,58.52,13,67.5" id="kvg:0888d-s2" kvg:type="&#12743;" />
		<path d="M27,54.61c0.12,0.29,1.65,1.53,1.77,3.39c0.57,8.93,0.06,36.7,0.06,39.75" id="kvg:0888d-s3" kvg:type="&#12753;" />
		<path d="M41.25,48.39c0.2,0.85,0.4,1.08,0,1.7c-1.2,1.87-4.9,6.45-7.3,8.66" id="kvg:0888d-s4" kvg:type="&#12754;" />
		<path d="M31.58,59.5C35.16,62.2,39,66.26,42.08,71" id="kvg:0888d-s5" kvg:type="&#12756;" />
	</g>
	<g id="kvg:0888d-g2" kvg:element="&#21253;" kvg:position="right">
		<g id="kvg:0888d-g3" kvg:element="&#21241;">
			<g id="kvg:0888d-g4" kvg:element="&#20031;">
				<path d="M62.63,15c0.05,0.69,0.23,1.83-0.09,2.77c-2.11,6.1-7.82,17.56-15.69,26.46" id="kvg:0888d-s6" kvg:type="&#12754;" />
			</g>
			<path d="M60.31,29.18c0.92,0.61,2.21,0.82,3.68,0.41s22.1-3.04,25.74-3.64c2.76-0.45,4.26,0.8,4.14,4.41c-0.23,6.89-2.95,27.81-7.74,40.71c-2.39,6.43-5.22,2.03-7.4-0.52" id="kvg:0888d-s7" kvg:type="&#12742;" />
		</g>
		<g id="kvg:0888d-g5" kvg:element="&#24051;">
			<g id="kvg:0888d-g6" kvg:element="&#24049;" kvg:variant="true">
				<path d="M53.68,45.74c1.2,0.94,2.23,0.94,4,0.63c3.59-0.63,17.18-2.77,18.27-2.89c1.45-0.16,2.58,0.53,2.07,2.97c-0.15,0.73-1.65,7.55-3.38,14.03" id="kvg:0888d-s8" kvg:type="&#12757;" />
				<path d="M56.22,63.35c3.88-0.45,14.21-1.79,19.72-2.18" id="kvg:0888d-s9" kvg:type="&#12752;" />
				<path d="M55.14,47.02c0,1.48,0.43,3.39,0.42,5.09c-0.03,5.43,0.13,27.75,0.13,32.49c0,10.3,2.31,12.08,21.2,12.08c16.25,0,19.75-3.07,19.75-12.89" id="kvg:0888d-s10" kvg:type="&#12767;" />
			</g>
		</g>
	</g>
</g>
</g>
<g id="kvg:StrokeNumbers_0888d" style="font-size:8;fill:#808080">
	<text transform="matrix(1 0 0 1 15.50 11.50)">1</text>
	<text transform="matrix(1 0 0 1 5.50 33.50)">2</text>
	<text transform="matrix(1 0 0 1 21.94 68.50)">3</text>
	<text transform="matrix(1 0 0 1 39.50 45.50)">4</text>
	<text transform="matrix(1 0 0 1 32.50 73.83)">5</text>
	<text transform="matrix(1 0 0 1 54.69 14.50)">6</text>
	<text transform="matrix(1 0 0 1 67.94 26.43)">7</text>
	<text transform="matrix(1 0 0 1 58.19 42.50)">8</text>
	<text transform="matrix(1 0 0 1 59.50 59.50)">9</text>
	<text transform="matrix(1 0 0 1 45.44 53.20)">10</text>
</g>
</svg>