<svg xmlns="http://www.w3.org/2000/svg" xmlns:kvg="http://kanjivg.tagaini.net" height="109" meaning="thin kimono, embroidery" viewBox="0 0 109 109" width="109">
<g id="kvg:StrokePaths_08897" style="fill:none;stroke:#000000;stroke-width:3;stroke-linecap:round;stroke-linejoin:round;">
<g id="kvg:08897" kvg:element="&#34967;">
	<g id="kvg:08897-g1" kvg:element="&#34916;" kvg:original="&#34915;" kvg:position="left" kvg:radical="general" kvg:variant="true">
		<path d="M21.83,13.25c3.41,2.71,7.07,6.77,10,11.5" id="kvg:08897-s1" kvg:type="&#12756;" />
		<path d="M12.2,37.36c0.94,0.39,4.36,0.83,5.96,0.61c3.34-0.47,16.37-4.83,18.69-5.49c2.33-0.66,4.58,0.83,3.26,2.85C32.36,47.15,24.5,58.5,12.5,69.5" id="kvg:08897-s2" kvg:type="&#12743;" />
		<path d="M28.5,54.61c0.12,0.29,1.65,1.53,1.77,3.39c0.57,8.93,0.06,35.2,0.06,38.25" id="kvg:08897-s3" kvg:type="&#12753;" />
		<path d="M43.31,44.89c0.15,1.08,0.29,1.37,0,2.15c-0.88,2.36-3.6,8.17-5.36,10.96" id="kvg:08897-s4" kvg:type="&#12754;" />
		<path d="M34.33,59c2.65,2.59,5.48,6.47,7.75,11" id="kvg:08897-s5" kvg:type="&#12756;" />
	</g>
	<g id="kvg:08897-g2" kvg:position="right">
		<path d="M66.93,13.75c0.06,0.93,0.26,2.47-0.11,3.76c-2.55,8.81-8.87,23.94-19.84,35.36" id="kvg:08897-s6" kvg:type="&#12754;" />
		<path d="M67.62,17.6c3.67,5.81,19.09,24.24,23.14,28.49c1.37,1.44,3.14,2.06,4.51,2.47" id="kvg:08897-s7" kvg:type="&#12751;" />
		<g id="kvg:08897-g3" kvg:element="&#24417;">
			<g id="kvg:08897-g4" kvg:element="&#20031;">
				<path d="M75.35,40.33c0.07,0.56,0.25,1.51-0.13,2.24c-2.47,4.78-10.78,14.07-23.01,20.59" id="kvg:08897-s8" kvg:type="&#12754;" />
			</g>
			<g id="kvg:08897-g5" kvg:element="&#20031;">
				<path d="M81.63,54.89c0.08,0.6,0.3,1.63-0.17,2.39c-3.2,5.23-13.66,15.69-29.35,22.92" id="kvg:08897-s9" kvg:type="&#12754;" />
			</g>
			<g id="kvg:08897-g6" kvg:element="&#20031;">
				<path d="M88.79,68.1c0.11,0.7,0.23,1.8-0.21,2.81c-2.6,5.92-17.55,18.89-38.01,26.84" id="kvg:08897-s10" kvg:type="&#12754;" />
			</g>
		</g>
	</g>
</g>
</g>
<g id="kvg:StrokeNumbers_08897" style="font-size:8;fill:#808080">
	<text transform="matrix(1 0 0 1 15.50 13.50)">1</text>
	<text transform="matrix(1 0 0 1 4.50 37.50)">2</text>
	<text transform="matrix(1 0 0 1 22.50 70.50)">3</text>
	<text transform="matrix(1 0 0 1 43.50 42.50)">4</text>
	<text transform="matrix(1 0 0 1 33.50 72.50)">5</text>
	<text transform="matrix(1 0 0 1 57.50 14.50)">6</text>
	<text transform="matrix(1 0 0 1 74.50 21.50)">7</text>
	<text transform="matrix(1 0 0 1 67.50 41.50)">8</text>
	<text transform="matrix(1 0 0 1 73.44 56.50)">9</text>
	<text transform="matrix(1 0 0 1 77.44 71.46)">10</text>
</g>
</svg>