<svg xmlns="http://www.w3.org/2000/svg" xmlns:kvg="http://kanjivg.tagaini.net" height="109" meaning="sleeve, wing (building), extension, give cold shoulder" viewBox="0 0 109 109" width="109">
<g id="kvg:StrokePaths_08896" style="fill:none;stroke:#000000;stroke-width:3;stroke-linecap:round;stroke-linejoin:round;">
<g id="kvg:08896" kvg:element="&#34966;">
	<g id="kvg:08896-g1" kvg:element="&#34916;" kvg:original="&#34915;" kvg:position="left" kvg:radical="general" kvg:variant="true">
		<path d="M23.83,16.5c3.42,2.59,7.07,6.22,10,10.75" id="kvg:08896-s1" kvg:type="&#12756;" />
		<path d="M13.2,39.86c2.56,0.86,5.01,0.55,7.62-0.12c5.81-1.49,15.04-4.02,16.79-4.51c3.39-0.96,4.06,1.62,2.69,3.71C32.6,50.62,22.75,64,11.5,74" id="kvg:08896-s2" kvg:type="&#12743;" />
		<path d="M30,56.11c0.88,0.88,1.27,2.01,1.27,3.64c0,6.56,0.03,21.2,0.05,29.75c0.01,3.12,0.01,5.43,0.01,6.25" id="kvg:08896-s3" kvg:type="&#12753;" />
		<path d="M43.08,51.39c0,0.74-0.13,1.37-0.46,1.98c-1,1.88-1.7,3.8-3.17,5.63" id="kvg:08896-s4" kvg:type="&#12754;" />
		<path d="M35.08,60c3.5,2.18,6,4.19,9,8" id="kvg:08896-s5" kvg:type="&#12756;" />
	</g>
	<g id="kvg:08896-g2" kvg:element="&#30001;" kvg:position="right">
		<g id="kvg:08896-g3" kvg:element="&#30000;" kvg:part="1" kvg:partial="true">
			<path d="M50.5,47.33c1.02,1.02,1.38,2.12,1.5,3.15c1.2,10.31,2.32,20.21,3.68,33.01c0.34,3.21,0.7,6.6,1.08,10.22" id="kvg:08896-s6" kvg:type="&#12753;" />
			<path d="M52.52,49.6c14.83-1.89,28.85-3.48,37.48-4.34c4.04-0.4,5.43,1.79,5.13,5.5c-0.7,8.82-2.13,26.37-4.12,40.07" id="kvg:08896-s7" kvg:type="&#12757;a" />
		</g>
		<g id="kvg:08896-g4" kvg:element="&#20008;">
			<path d="M70.86,15.86c1.33,1.33,1.85,2.77,1.85,4.1c0,14.16-0.04,64.55-0.04,68.58" id="kvg:08896-s8" kvg:type="&#12753;a" />
		</g>
		<g id="kvg:08896-g5" kvg:element="&#30000;" kvg:part="2" kvg:partial="true">
			<path d="M55.04,68.87c13.09-1.74,23.84-2.49,37.97-3.53" id="kvg:08896-s9" kvg:type="&#12752;a" />
			<path d="M57.36,90.61c13.52-0.98,21.68-1.8,33-2.02" id="kvg:08896-s10" kvg:type="&#12752;a" />
		</g>
	</g>
</g>
</g>
<g id="kvg:StrokeNumbers_08896" style="font-size:8;fill:#808080">
	<text transform="matrix(1 0 0 1 16.50 16.50)">1</text>
	<text transform="matrix(1 0 0 1 5.44 40.50)">2</text>
	<text transform="matrix(1 0 0 1 24.44 69.50)">3</text>
	<text transform="matrix(1 0 0 1 40.50 48.91)">4</text>
	<text transform="matrix(1 0 0 1 34.50 70.50)">5</text>
	<text transform="matrix(1 0 0 1 45.50 59.50)">6</text>
	<text transform="matrix(1 0 0 1 55.50 46.50)">7</text>
	<text transform="matrix(1 0 0 1 61.50 16.50)">8</text>
	<text transform="matrix(1 0 0 1 58.19 65.50)">9</text>
	<text transform="matrix(1 0 0 1 60.50 87.50)">10</text>
</g>
</svg>