<svg xmlns="http://www.w3.org/2000/svg" xmlns:kvg="http://kanjivg.tagaini.net" height="109" meaning="sleeve length, (kokuji)" viewBox="0 0 109 109" width="109">
<g id="kvg:StrokePaths_088c4" style="fill:none;stroke:#000000;stroke-width:3;stroke-linecap:round;stroke-linejoin:round;">
<g id="kvg:088c4" kvg:element="&#35012;">
	<g id="kvg:088c4-g1" kvg:element="&#34916;" kvg:original="&#34915;" kvg:position="left" kvg:radical="general" kvg:variant="true">
		<path d="M19.83,14c3.07,2.53,6.37,6.32,9,10.75" id="kvg:088c4-s1" kvg:type="&#12756;" />
		<path d="M10.7,35.36c0.94,0.39,2.35,0.7,3.96,0.61c4.09-0.22,18.37-3.83,20.69-4.49c2.33-0.66,4.08,1.33,2.76,3.35C30.36,46.65,24,56,12,67.5" id="kvg:088c4-s2" kvg:type="&#12743;" />
		<path d="M27.5,52.11c0.12,0.29,1.15,1.53,1.27,3.39c0.57,8.93,0.06,38.2,0.06,41.25" id="kvg:088c4-s3" kvg:type="&#12753;" />
		<path d="M40.75,45.39c0.2,0.85,0.4,1.08,0,1.7c-1.2,1.87-4.9,6.45-7.3,8.66" id="kvg:088c4-s4" kvg:type="&#12754;" />
		<path d="M31.33,56.25c3.16,3,6.54,7.5,9.25,12.75" id="kvg:088c4-s5" kvg:type="&#12756;" />
	</g>
	<g id="kvg:088c4-g2" kvg:element="&#34892;" kvg:position="right">
		<g id="kvg:088c4-g3" kvg:element="&#24435;" kvg:position="left">
			<path d="M60.64,17c0.04,0.39,0.19,1.08-0.08,1.56c-1.93,3.36-7,9.21-14.08,14.9" id="kvg:088c4-s6" kvg:type="&#12754;" />
			<g id="kvg:088c4-g4" kvg:element="&#20155;" kvg:original="&#20154;" kvg:variant="true">
				<path d="M61.93,34.27c0.05,0.66,0.17,1.78-0.1,2.63c-2.15,6.77-8.56,15.95-17.33,25.13" id="kvg:088c4-s7" kvg:type="&#12754;" />
				<path d="M55.45,51.62c0.27,0.24,0.93,2.09,0.98,2.58c0.05,0.49,0,35.77-0.05,38.8" id="kvg:088c4-s8" kvg:type="&#12753;" />
			</g>
		</g>
		<g id="kvg:088c4-g5" kvg:position="right">
			<path d="M70.34,20.8c0.62,0.36,3.23,0.38,3.86,0.36c6.3-0.16,15.18-2.53,18.02-2.38c1.02,0.06,1.64,0.17,2.15,0.35" id="kvg:088c4-s9" kvg:type="&#12752;" />
			<path d="M65.59,43.5c0.87,0.52,2.46,0.6,3.33,0.52c7.58-0.76,18.58-2.76,26.91-3.01c1.45-0.04,2.32,0.24,3.04,0.5" id="kvg:088c4-s10" kvg:type="&#12752;" />
			<path d="M83.25,43.66c0.07,0.45,0.99,2.37,1.06,5.25c0.34,13.85-0.22,36.8-0.22,41.51c0,7.65-6.1-0.48-7.37-1.67" id="kvg:088c4-s11" kvg:type="&#12762;" />
		</g>
	</g>
</g>
</g>
<g id="kvg:StrokeNumbers_088c4" style="font-size:8;fill:#808080">
	<text transform="matrix(1 0 0 1 11.50 13.50)">1</text>
	<text transform="matrix(1 0 0 1 3.50 35.50)">2</text>
	<text transform="matrix(1 0 0 1 21.50 66.50)">3</text>
	<text transform="matrix(1 0 0 1 41.50 44.40)">4</text>
	<text transform="matrix(1 0 0 1 32.50 70.50)">5</text>
	<text transform="matrix(1 0 0 1 51.50 16.50)">6</text>
	<text transform="matrix(1 0 0 1 53.25 37.50)">7</text>
	<text transform="matrix(1 0 0 1 49.50 65.50)">8</text>
	<text transform="matrix(1 0 0 1 67.50 17.50)">9</text>
	<text transform="matrix(1 0 0 1 65.50 40.50)">10</text>
	<text transform="matrix(1 0 0 1 74.50 52.50)">11</text>
</g>
</svg>