<svg xmlns="http://www.w3.org/2000/svg" xmlns:kvg="http://kanjivg.tagaini.net" height="109" kun="&#12388;&#12388;.&#12416;" meaning="wrap, pack up, cover, conceal" on="&#12507;&#12454;, &#12459;" viewBox="0 0 109 109" width="109">
<g id="kvg:StrokePaths_088f9" style="fill:none;stroke:#000000;stroke-width:3;stroke-linecap:round;stroke-linejoin:round;">
<g id="kvg:088f9" kvg:element="&#35065;">
	<g id="kvg:088f9-g1" kvg:element="&#34915;" kvg:part="1" kvg:position="top" kvg:radical="tradit">
		<g id="kvg:088f9-g2" kvg:element="&#20128;" kvg:radical="nelson">
			<path d="M51.79,9.75c0.66,0.35,1.75,1.59,1.75,2.42c0,1.35-0.09,5.27-0.09,6.76" id="kvg:088f9-s1" kvg:type="&#12753;a" />
			<path d="M19.5,21.25c1.42,0.06,4.64,0.4,6.02,0.33c15.35-0.7,40.63-4.17,55.74-4.35c2.33-0.03,3.52,0.03,5.26,0.43" id="kvg:088f9-s2" kvg:type="&#12752;" />
		</g>
	</g>
	<g id="kvg:088f9-g3" kvg:position="bottom">
		<g id="kvg:088f9-g4" kvg:element="&#26524;" kvg:variant="true">
			<g id="kvg:088f9-g5" kvg:element="&#30000;" kvg:part="1">
				<g id="kvg:088f9-g6" kvg:element="&#26085;">
					<path d="M29.59,29.22c0.55,0.38,1.33,0.83,1.33,1.39c0,0.56,3.67,15.21,3.67,15.49c0,0.28,0.1,0.27,0.19,0.83" id="kvg:088f9-s3" kvg:type="&#12753;" />
					<path d="M31.03,30.05c1.64-0.17,41.78-4.28,43.28-4.37c1.97-0.12,3.69,1.07,3.7,2.37c0.02,2.21-3.29,14.67-3.29,15.09" id="kvg:088f9-s4" kvg:type="&#12757;a" />
					<path d="M32.94,37.83c2.22-0.14,41.13-4,43.64-4.16" id="kvg:088f9-s5" kvg:type="&#12752;a" />
					<path d="M35.46,45.59c4.53-0.59,33.32-3.32,38.96-3.94" id="kvg:088f9-s6" kvg:type="&#12752;a" />
				</g>
			</g>
			<g id="kvg:088f9-g7" kvg:element="&#26408;" kvg:variant="true">
				<path d="M19.86,52.77c1.23,0.11,4.52,0.26,7.81,0.2c9.04-0.15,28.86-3.1,55.17-4.32c3.29-0.15,4.11,0.02,6.16,0.1" id="kvg:088f9-s7" kvg:type="&#12752;" />
				<g id="kvg:088f9-g8" kvg:element="&#30000;" kvg:part="2">
					<path d="M51.9,28.33c1.08,0.26,1.72,1.19,1.94,1.72c0.21,0.53,0,24.4-0.22,27.7" id="kvg:088f9-s8" kvg:type="&#12753;" />
				</g>
				<path d="M38.91,57.67c0.05,0.89-0.26,1.61-0.57,2.02c-3.46,4.63-10.82,9.69-16.59,12.16" id="kvg:088f9-s9" kvg:type="&#12754;" />
				<path d="M68.84,54.65c6.41,1.85,12.41,5.6,16.6,10.11" id="kvg:088f9-s10" kvg:type="&#12756;/&#12751;" />
			</g>
		</g>
		<g id="kvg:088f9-g9" kvg:element="&#34915;" kvg:part="2" kvg:radical="tradit">
			<path d="M51.42,61.16c0.1,0.65,0.38,1.72-0.19,2.6c-3.69,5.65-19.17,17.92-34.17,24.89" id="kvg:088f9-s11" kvg:type="&#12754;" />
			<path d="M40.22,77.17c0.45,0.31,0.94,1.62,0.94,2.16c-0.03,6.85-0.3,15.67-0.3,16.83c0,1.16,1.11,1.82,2.52,0.95c1.41-0.87,10.88-8.86,16.34-12.74" id="kvg:088f9-s12" kvg:type="&#12761;" />
			<path d="M74.02,62.62c0.02,0.24,0.26,1.16,0.11,1.48c-0.91,1.98-3.74,4.81-8.35,8.76" id="kvg:088f9-s13" kvg:type="&#12754;" />
			<path d="M55.54,65.83c1.42,0.83,3.7,3.18,4.09,3.54c5.82,5.24,19.96,18.63,23.89,21.71c1.48,1.17,2.75,1.66,4.23,1.99" id="kvg:088f9-s14" kvg:type="&#12751;" />
		</g>
	</g>
</g>
</g>
<g id="kvg:StrokeNumbers_088f9" style="font-size:8;fill:#808080">
	<text transform="matrix(1 0 0 1 43.50 9.50)">1</text>
	<text transform="matrix(1 0 0 1 12.50 21.50)">2</text>
	<text transform="matrix(1 0 0 1 22.50 35.50)">3</text>
	<text transform="matrix(1 0 0 1 33.50 28.50)">4</text>
	<text transform="matrix(1 0 0 1 37.50 36.50)">5</text>
	<text transform="matrix(1 0 0 1 38.50 44.50)">6</text>
	<text transform="matrix(1 0 0 1 12.50 54.68)">7</text>
	<text transform="matrix(1 0 0 1 58.50 33.50)">8</text>
	<text transform="matrix(1 0 0 1 29.50 61.50)">9</text>
	<text transform="matrix(1 0 0 1 77.50 56.45)">10</text>
	<text transform="matrix(1 0 0 1 41.50 64.50)">11</text>
	<text transform="matrix(1 0 0 1 30.75 89.50)">12</text>
	<text transform="matrix(1 0 0 1 63.50 64.50)">13</text>
	<text transform="matrix(1 0 0 1 50.50 75.50)">14</text>
</g>
</svg>