<svg xmlns="http://www.w3.org/2000/svg" xmlns:kvg="http://kanjivg.tagaini.net" height="109" meaning="diaper" viewBox="0 0 109 109" width="109">
<g id="kvg:StrokePaths_08913" style="fill:none;stroke:#000000;stroke-width:3;stroke-linecap:round;stroke-linejoin:round;">
<g id="kvg:08913" kvg:element="&#35091;">
	<g id="kvg:08913-g1" kvg:element="&#34916;" kvg:original="&#34915;" kvg:position="left" kvg:radical="general" kvg:variant="true">
		<path d="M18.33,12.5c3.07,2.53,6.37,6.32,9,10.75" id="kvg:08913-s1" kvg:type="&#12756;" />
		<path d="M9.2,35.86c0.94,0.39,3.37,0.89,4.96,0.61c4.09-0.72,16.87-4.33,19.19-4.99c2.33-0.66,3.97,0.76,2.76,2.85C29,46.5,23.08,56.41,10.5,68" id="kvg:08913-s2" kvg:type="&#12743;" />
		<path d="M25,52.11c0.12,0.29,1.65,1.53,1.77,3.39c0.57,8.93,0.06,36.2,0.06,39.25" id="kvg:08913-s3" kvg:type="&#12753;" />
		<path d="M37.82,45.89c0.14,1.12,0.28,1.42,0,2.23c-0.84,2.45-3.44,8.48-5.12,11.38" id="kvg:08913-s4" kvg:type="&#12754;" />
		<path d="M29.08,58c2.56,2.47,5.3,6.17,7.5,10.5" id="kvg:08913-s5" kvg:type="&#12756;" />
	</g>
	<g id="kvg:08913-g2" kvg:element="&#20445;" kvg:position="right">
		<g id="kvg:08913-g3" kvg:element="&#20155;" kvg:original="&#20154;" kvg:position="left" kvg:variant="true">
			<path d="M55.29,18c0.18,1.87-0.18,4.25-0.63,5.92c-2.81,10.44-5.89,21.19-14.4,33.62" id="kvg:08913-s6" kvg:type="&#12754;" />
			<path d="M48.87,50c0.46,0.61,0.58,1.97,0.58,3.23c0,7.02-0.42,32.77-0.42,40.52" id="kvg:08913-s7" kvg:type="&#12753;" />
		</g>
		<g id="kvg:08913-g4" kvg:element="&#21574;" kvg:position="right">
			<g id="kvg:08913-g5" kvg:element="&#21475;" kvg:position="top">
				<path d="M62.09,16.88c0.28,0.37,0.56,0.68,0.68,1.15c0.96,3.68,2.52,12.58,3.17,19.19" id="kvg:08913-s8" kvg:type="&#12753;" />
				<path d="M63.47,18.58c7.28-1.13,20.36-2.34,23.59-2.83c1.18-0.18,2.39,1.05,2.22,2.09c-0.7,4.3-2.37,9.51-3.4,15.46" id="kvg:08913-s9" kvg:type="&#12757;b" />
				<path d="M66.07,35.59c3.79-0.55,13.68-1.34,22.19-1.76" id="kvg:08913-s10" kvg:type="&#12752;b" />
			</g>
			<g id="kvg:08913-g6" kvg:element="&#26408;" kvg:position="bottom">
				<path d="M56.15,52.33c1.31,0,3.29,0.41,5.04,0.26c7.95-0.69,19.83-1.85,31.89-3.17c1.75-0.19,2.66,0.08,3.79,0.5" id="kvg:08913-s11" kvg:type="&#12752;" />
				<path d="M75.24,39.52c0.76,0.46,1.36,2.99,1.36,3.95c0,6.5,0,43.72-0.15,49.53" id="kvg:08913-s12" kvg:type="&#12753;" />
				<path d="M76.37,53.57C71.75,63.5,64,75.25,55.69,82.87" id="kvg:08913-s13" kvg:type="&#12754;" />
				<path d="M77.03,52.88c2.37,4.58,13.76,22.5,16.53,26.36c0.94,1.31,1.75,1.87,2.69,2.24" id="kvg:08913-s14" kvg:type="&#12751;" />
			</g>
		</g>
	</g>
</g>
</g>
<g id="kvg:StrokeNumbers_08913" style="font-size:8;fill:#808080">
	<text transform="matrix(1 0 0 1 11.50 12.50)">1</text>
	<text transform="matrix(1 0 0 1 2.50 36.50)">2</text>
	<text transform="matrix(1 0 0 1 19.50 67.50)">3</text>
	<text transform="matrix(1 0 0 1 37.50 43.50)">4</text>
	<text transform="matrix(1 0 0 1 28.59 70.82)">5</text>
	<text transform="matrix(1 0 0 1 48.54 21.93)">6</text>
	<text transform="matrix(1 0 0 1 43.50 62.50)">7</text>
	<text transform="matrix(1 0 0 1 57.50 26.50)">8</text>
	<text transform="matrix(1 0 0 1 66.75 15.50)">9</text>
	<text transform="matrix(1 0 0 1 67.16 32.75)">10</text>
	<text transform="matrix(1 0 0 1 53.39 49.73)">11</text>
	<text transform="matrix(1 0 0 1 64.50 45.50)">12</text>
	<text transform="matrix(1 0 0 1 61.41 60.98)">13</text>
	<text transform="matrix(1 0 0 1 82.50 59.13)">14</text>
</g>
</svg>