<svg xmlns="http://www.w3.org/2000/svg" xmlns:kvg="http://kanjivg.tagaini.net" height="109" kun="&#12431;&#12369;" meaning="translate, reason, circumstance, case" on="&#12516;&#12463;" viewBox="0 0 109 109" width="109">
<g id="kvg:StrokePaths_08a33" style="fill:none;stroke:#000000;stroke-width:3;stroke-linecap:round;stroke-linejoin:round;">
<g id="kvg:08a33" kvg:element="&#35379;">
	<g id="kvg:08a33-g1" kvg:element="&#35328;" kvg:position="left" kvg:radical="general">
		<path d="M23.55,13.25c2.69,1.41,6.96,5.8,7.63,8" id="kvg:08a33-s1" kvg:type="&#12756;" />
		<path d="M10.62,31.83c1.7,0.56,4.01,0.55,5.76,0.39c7.62-0.72,15.85-1.79,22.38-2.67c2.14-0.29,4.19-0.54,6.34-0.12" id="kvg:08a33-s2" kvg:type="&#12752;" />
		<path d="M16.43,44.81c1.28,0.36,3.01,0.25,4.32,0.07c4.27-0.59,9-1.66,13.01-2.35c1.39-0.24,3.11-0.52,4.51-0.28" id="kvg:08a33-s3" kvg:type="&#12752;" />
		<path d="M17.05,55.83c1.21,0.37,2.98,0.17,4.22,0.03c3.67-0.39,7.21-1.02,12.59-2.09c1.38-0.27,3.07-0.56,4.47-0.31" id="kvg:08a33-s4" kvg:type="&#12752;" />
		<g id="kvg:08a33-g2" kvg:element="&#21475;">
			<path d="M14.26,68.4c0.86,0.86,1.39,2.21,1.72,3.95c1.14,6.03,1.83,9.96,2.47,15.63c0.16,1.39,0.3,2.75,0.41,4.02" id="kvg:08a33-s5" kvg:type="&#12753;" />
			<path d="M16.19,70.12c7.93-1.5,13.03-2.16,19.19-3.03c2.69-0.38,4.35,0.49,3.77,3.54c-1.03,5.37-1.99,9.41-3.59,15.83" id="kvg:08a33-s6" kvg:type="&#12757;b" />
			<path d="M18.92,89.05c4.49-0.45,9.18-0.83,14.81-1.42c1.11-0.12,2.28-0.25,3.49-0.38" id="kvg:08a33-s7" kvg:type="&#12752;b" />
		</g>
	</g>
	<g id="kvg:08a33-g3" kvg:element="&#23610;" kvg:phon="&#23610;" kvg:position="right">
		<g id="kvg:08a33-g4" kvg:element="&#23608;">
			<path d="M52.89,21.32c1.5,0.77,3.42,1.2,5.02,1.04c10.34-0.99,22.44-2.75,25.88-3.22c2.96-0.4,3.96,1.95,3.46,4.19C85.88,29.5,84.75,33.5,83,41.75" id="kvg:08a33-s8" kvg:type="&#12757;c" />
			<path d="M57.5,45.25c3.43-0.2,16.2-1.73,23.99-2.58c2.02-0.22,3.64-0.38,4.57-0.43" id="kvg:08a33-s9" kvg:type="&#12752;b" />
			<g id="kvg:08a33-g5" kvg:element="&#20843;" kvg:part="1">
				<path d="M55.34,22.62c0.9,0.9,1.22,2.43,1.24,3.88c0.55,32.26-2.95,54.88-17.08,69.26" id="kvg:08a33-s10" kvg:type="&#12754;" />
			</g>
		</g>
		<g id="kvg:08a33-g6" kvg:element="&#20843;" kvg:part="2">
			<path d="M64.75,44.75c4.75,10.16,14.56,29.82,22.03,40.44c2.04,2.89,4.47,6.06,7.47,8.31" id="kvg:08a33-s11" kvg:type="&#12751;" />
		</g>
	</g>
</g>
</g>
<g id="kvg:StrokeNumbers_08a33" style="font-size:8;fill:#808080">
	<text transform="matrix(1 0 0 1 15.75 13.50)">1</text>
	<text transform="matrix(1 0 0 1 3.75 32.50)">2</text>
	<text transform="matrix(1 0 0 1 9.75 46.55)">3</text>
	<text transform="matrix(1 0 0 1 9.75 57.50)">4</text>
	<text transform="matrix(1 0 0 1 8.50 75.50)">5</text>
	<text transform="matrix(1 0 0 1 18.75 66.50)">6</text>
	<text transform="matrix(1 0 0 1 23.25 85.55)">7</text>
	<text transform="matrix(1 0 0 1 57.50 19.50)">8</text>
	<text transform="matrix(1 0 0 1 62.25 41.50)">9</text>
	<text transform="matrix(1 0 0 1 46.50 30.50)">10</text>
	<text transform="matrix(1 0 0 1 72.50 56.50)">11</text>
</g>
</svg>