<svg xmlns="http://www.w3.org/2000/svg" xmlns:kvg="http://kanjivg.tagaini.net" height="109" kun="&#12356;&#12388;&#12431;.&#12427;" meaning="lie, falsehood, deceive, pretend" on="&#12469;" viewBox="0 0 109 109" width="109">
<g id="kvg:StrokePaths_08a50" style="fill:none;stroke:#000000;stroke-width:3;stroke-linecap:round;stroke-linejoin:round;">
<g id="kvg:08a50" kvg:element="&#35408;">
	<g id="kvg:08a50-g1" kvg:element="&#35328;" kvg:position="left" kvg:radical="general">
		<path d="M25.5,14.75c3.15,1.81,8.14,7.44,8.93,10.25" id="kvg:08a50-s1" kvg:type="&#12756;" />
		<path d="M11.12,36.08c1.93,0.63,4.52,0.23,6.5,0.08c8.25-0.64,19.81-2.52,26.63-3.35c1.47-0.18,3.12-0.43,4.59-0.14" id="kvg:08a50-s2" kvg:type="&#12752;" />
		<path d="M20.18,48.81c1.18,0.34,2.76,0.23,3.96,0.04c4.53-0.73,8.6-1.5,12.61-2.08c1.34-0.19,2.92-0.5,4.26-0.27" id="kvg:08a50-s3" kvg:type="&#12752;" />
		<path d="M19.8,61.83c1.19,0.36,2.87,0.16,4.1,0.05c3.79-0.33,9.4-1.74,13.1-2.41c1.19-0.21,2.64-0.47,3.83-0.26" id="kvg:08a50-s4" kvg:type="&#12752;" />
		<g id="kvg:08a50-g2" kvg:element="&#21475;">
			<path d="M17.01,75.15c0.73,0.6,0.99,1.48,1.22,2.35c0.8,3.07,1.72,8.4,2.56,12.99c0.28,1.54,0.56,3,0.82,4.26" id="kvg:08a50-s5" kvg:type="&#12753;" />
			<path d="M18.94,76.94c8.69-1.89,13.23-2.8,18.82-3.99c3.54-0.75,5.71-0.98,4.62,3.3c-0.8,3.16-1.64,6.7-3.08,11.76" id="kvg:08a50-s6" kvg:type="&#12757;b" />
			<path d="M22.42,92.25c6.19-1.27,9.94-2.18,15.85-3.09c1.08-0.17,2.22-0.33,3.46-0.5" id="kvg:08a50-s7" kvg:type="&#12752;b" />
		</g>
	</g>
	<g id="kvg:08a50-g3" kvg:element="&#20045;" kvg:phon="&#20045;" kvg:position="right">
		<g id="kvg:08a50-g4" kvg:element="&#20031;">
			<path d="M66,13.5c0.05,0.83,0.24,2.16-0.1,3.31C63.75,24.25,57.75,37.25,48.56,48" id="kvg:08a50-s8" kvg:type="&#12754;" />
		</g>
		<path d="M62.5,31.72c2.12,0.28,3.89-0.14,5.28-0.32c9.85-1.27,14.22-2.52,21.48-4.26c2.25-0.54,5-0.89,6.96-0.52" id="kvg:08a50-s9" kvg:type="&#12752;" />
		<path d="M70.16,34.21c0.94,0.94,1.28,2.17,1.28,3.63c0,5.04,0.02,35.54,0.02,51.79c0,3.43-0.06,5.94-0.09,7" id="kvg:08a50-s10" kvg:type="&#12753;" />
		<path d="M72.82,51.94C78,51,83.62,50.12,89.86,48.81c1.36-0.29,2.89-0.43,4.37-0.07" id="kvg:08a50-s11" kvg:type="&#12752;b" />
		<path d="M72.49,71.69c3.49-0.41,9.26-1.32,17.78-2.67c1.61-0.26,3.35-0.41,4.97-0.04" id="kvg:08a50-s12" kvg:type="&#12752;b" />
	</g>
</g>
</g>
<g id="kvg:StrokeNumbers_08a50" style="font-size:8;fill:#808080">
	<text transform="matrix(1 0 0 1 19.50 15.50)">1</text>
	<text transform="matrix(1 0 0 1 3.75 37.63)">2</text>
	<text transform="matrix(1 0 0 1 12.50 50.50)">3</text>
	<text transform="matrix(1 0 0 1 12.75 62.50)">4</text>
	<text transform="matrix(1 0 0 1 11.25 85.48)">5</text>
	<text transform="matrix(1 0 0 1 20.25 73.63)">6</text>
	<text transform="matrix(1 0 0 1 24.75 88.55)">7</text>
	<text transform="matrix(1 0 0 1 56.25 14.50)">8</text>
	<text transform="matrix(1 0 0 1 68.25 28.63)">9</text>
	<text transform="matrix(1 0 0 1 61.50 43.50)">10</text>
	<text transform="matrix(1 0 0 1 75.50 47.50)">11</text>
	<text transform="matrix(1 0 0 1 75.31 67.50)">12</text>
</g>
</svg>