<svg xmlns="http://www.w3.org/2000/svg" xmlns:kvg="http://kanjivg.tagaini.net" height="109" kun="&#12398;&#12398;&#12375;.&#12427;, &#12399;&#12376;, &#12399;&#12378;&#12363;&#12375;.&#12417;&#12427;" meaning="ridicule" on="&#12467;&#12454;, &#12463;" viewBox="0 0 109 109" width="109">
<g id="kvg:StrokePaths_08a6c" style="fill:none;stroke:#000000;stroke-width:3;stroke-linecap:round;stroke-linejoin:round;">
<g id="kvg:08a6c" kvg:element="&#35436;">
	<g id="kvg:08a6c-g1" kvg:element="&#35328;" kvg:position="left" kvg:radical="general">
		<path d="M22.05,15.25c3.58,2.12,9.23,8.71,10.13,12" id="kvg:08a6c-s1" kvg:type="&#12756;" />
		<path d="M10.87,36.48c0.74,0.19,3.53,0.22,4.27,0.19c9.07-0.34,18.18-2.17,24.78-2.33c1.23-0.03,3.07,0.09,3.68,0.19" id="kvg:08a6c-s2" kvg:type="&#12752;" />
		<path d="M17.18,48.56c0.43,0.12,3.04,0.13,3.47,0.12c4.44-0.14,10.86-1.43,15.34-2.05c0.7-0.1,3.68,0.06,4.04,0.12" id="kvg:08a6c-s3" kvg:type="&#12752;" />
		<path d="M16.3,60.83c0.38,0.12,2.71,0.13,3.1,0.12c3.97-0.13,13.43-2.11,17.33-2.09c0.63,0,3.29,0.06,3.6,0.11" id="kvg:08a6c-s4" kvg:type="&#12752;" />
		<g id="kvg:08a6c-g2" kvg:element="&#21475;">
			<path d="M15.76,74.9c0.41,0.35,0.88,1.1,1.01,1.56c1.17,4.02,3.17,13.89,4.34,19.79" id="kvg:08a6c-s5" kvg:type="&#12753;" />
			<path d="M16.94,76.37c7.2-0.89,14.9-2.1,21.55-3c1.67-0.22,2.68,1.04,2.44,2.06c-0.99,4.25-1.86,8.22-3.62,15.28" id="kvg:08a6c-s6" kvg:type="&#12757;b" />
			<path d="M20.92,93.05c5.37-0.54,10.68-0.97,18.06-1.81" id="kvg:08a6c-s7" kvg:type="&#12752;b" />
		</g>
	</g>
	<g id="kvg:08a6c-g3" kvg:element="&#21518;" kvg:position="right">
		<g id="kvg:08a6c-g4" kvg:position="kamae">
			<g id="kvg:08a6c-g5" kvg:element="&#21378;" kvg:variant="true">
				<g id="kvg:08a6c-g6" kvg:element="&#20031;">
					<path d="M84.34,13.89c0.08,0.4,0.17,1.04-0.17,1.62c-2.01,3.41-13.54,10.88-29.33,15.46" id="kvg:08a6c-s8" kvg:type="&#12754;" />
				</g>
				<path d="M51.44,30.25c0.45,0.64,0.9,1.48,0.9,2.54c0,36.51-2.96,53.14-11.34,62.46" id="kvg:08a6c-s9" kvg:type="&#12754;" />
			</g>
			<path d="M54.06,43.84c1.69,0.16,3.11,0.06,4.21-0.08c8.98-1.15,22.36-2.9,34.4-3.73c1.82-0.13,2.92,0.2,3.84,0.41" id="kvg:08a6c-s10" kvg:type="&#12752;" />
		</g>
		<g id="kvg:08a6c-g7" kvg:element="&#21475;">
			<path d="M56.94,66.85c0.47,0.48,1.06,1.89,1.16,2.52c1.15,6.88,2.58,16.98,3.7,25.59" id="kvg:08a6c-s11" kvg:type="&#12753;" />
			<path d="M58.25,68.71c10.5-1.71,26-3.71,31.16-4.19c2.08-0.19,3.54,1.93,3.32,3.35c-0.94,5.87-2.52,13.93-4.53,22.4" id="kvg:08a6c-s12" kvg:type="&#12757;b" />
			<path d="M61.73,92.88c7.02-0.63,22.52-2.13,29.92-2.38" id="kvg:08a6c-s13" kvg:type="&#12752;b" />
		</g>
	</g>
</g>
</g>
<g id="kvg:StrokeNumbers_08a6c" style="font-size:8;fill:#808080">
	<text transform="matrix(1 0 0 1 15.50 16.50)">1</text>
	<text transform="matrix(1 0 0 1 3.50 37.50)">2</text>
	<text transform="matrix(1 0 0 1 9.50 49.50)">3</text>
	<text transform="matrix(1 0 0 1 9.50 62.50)">4</text>
	<text transform="matrix(1 0 0 1 9.75 81.50)">5</text>
	<text transform="matrix(1 0 0 1 18.50 72.50)">6</text>
	<text transform="matrix(1 0 0 1 23.50 89.50)">7</text>
	<text transform="matrix(1 0 0 1 74.50 13.50)">8</text>
	<text transform="matrix(1 0 0 1 45.50 39.50)">9</text>
	<text transform="matrix(1 0 0 1 56.50 40.50)">10</text>
	<text transform="matrix(1 0 0 1 50.50 82.50)">11</text>
	<text transform="matrix(1 0 0 1 59.50 64.50)">12</text>
	<text transform="matrix(1 0 0 1 63.50 89.50)">13</text>
</g>
</svg>