<svg xmlns="http://www.w3.org/2000/svg" xmlns:kvg="http://kanjivg.tagaini.net" height="109" meaning="censure, blame" viewBox="0 0 109 109" width="109">
<g id="kvg:StrokePaths_08a9a" style="fill:none;stroke:#000000;stroke-width:3;stroke-linecap:round;stroke-linejoin:round;">
<g id="kvg:08a9a" kvg:element="&#35482;">
	<g id="kvg:08a9a-g1" kvg:element="&#35328;" kvg:position="left" kvg:radical="general">
		<path d="M20.8,16.25c3.84,1.85,9.92,7.62,10.88,10.5" id="kvg:08a9a-s1" kvg:type="&#12756;" />
		<path d="M9.12,37.16c0.75,0.27,3.61,0.31,4.36,0.27c9.28-0.49,18.6-3.12,25.35-3.36c1.26-0.04,3.14,0.13,3.76,0.27" id="kvg:08a9a-s2" kvg:type="&#12752;" />
		<path d="M16.68,49.06c0.43,0.12,3.04,0.13,3.47,0.12c4.44-0.14,10.36-1.43,14.84-2.05c0.7-0.1,3.68,0.06,4.04,0.12" id="kvg:08a9a-s3" kvg:type="&#12752;" />
		<path d="M15.8,61.33c0.38,0.12,2.71,0.13,3.1,0.12c3.97-0.13,12.36-1.95,16.83-2.59c0.63-0.09,3.29,0.06,3.6,0.11" id="kvg:08a9a-s4" kvg:type="&#12752;" />
		<g id="kvg:08a9a-g2" kvg:element="&#21475;">
			<path d="M16.01,75.9c0.39,0.36,1.33,1.65,1.46,2.13c1.11,4.21,2.52,13.54,3.64,19.71" id="kvg:08a9a-s5" kvg:type="&#12753;" />
			<path d="M17.44,77.37c9.06-1.62,14.4-3.1,21.05-4c1.67-0.22,2.68,1.04,2.44,2.06c-0.99,4.25-1.86,9.22-3.62,16.28" id="kvg:08a9a-s6" kvg:type="&#12757;b" />
			<path d="M21.42,94.55C26.8,94,33.1,93.57,40.48,92.74" id="kvg:08a9a-s7" kvg:type="&#12752;b" />
		</g>
	</g>
	<g id="kvg:08a9a-g3" kvg:element="&#32918;" kvg:position="right" kvg:variant="true">
		<g id="kvg:08a9a-g4" kvg:element="&#11916;" kvg:original="&#23567;" kvg:position="top" kvg:variant="true">
			<path d="M69.49,13c0.12,0.36,1.67,1.85,1.67,4.11c0,7.73,0.09,19.9,0.09,23.59" id="kvg:08a9a-s8" kvg:type="&#12753;" />
			<path d="M59.69,19.32c0.05,0.58,0.12,1.5-0.12,2.33c-1.39,4.93-8.1,12.67-15.68,18.1" id="kvg:08a9a-s9" kvg:type="&#12754;" />
			<path d="M79.81,20.1c6.6,3.22,14.92,11,16.57,16.02" id="kvg:08a9a-s10" kvg:type="&#12756;" />
		</g>
		<g id="kvg:08a9a-g5" kvg:element="&#26376;" kvg:position="bottom">
			<path d="M53.86,41.38c0.66,0.89,1.1,1.78,1.32,2.67c0.22,0.89,0.31,49.59,0.22,51.59" id="kvg:08a9a-s11" kvg:type="&#12754;" />
			<path d="M54.99,42.77c5.76-0.77,27.88-3.03,29.84-3.28c3.52-0.44,4.39,2.82,4.39,4.22c0,9.59-0.16,26.25-0.16,44.27c0,10.8-5.93,2.48-7.91,0.92" id="kvg:08a9a-s12" kvg:type="&#12742;a" />
			<path d="M56.49,57.55c9.01-1.33,23.72-2,31.63-2.67" id="kvg:08a9a-s13" kvg:type="&#12752;a" />
			<path d="M55.83,73.15c7.03-0.67,24.79-1.72,32.92-2.17" id="kvg:08a9a-s14" kvg:type="&#12752;a" />
		</g>
	</g>
</g>
</g>
<g id="kvg:StrokeNumbers_08a9a" style="font-size:8;fill:#808080">
	<text transform="matrix(1 0 0 1 13.50 15.50)">1</text>
	<text transform="matrix(1 0 0 1 1.75 37.50)">2</text>
	<text transform="matrix(1 0 0 1 9.50 50.50)">3</text>
	<text transform="matrix(1 0 0 1 9.50 62.50)">4</text>
	<text transform="matrix(1 0 0 1 11.25 84.50)">5</text>
	<text transform="matrix(1 0 0 1 18.50 74.50)">6</text>
	<text transform="matrix(1 0 0 1 24.50 91.50)">7</text>
	<text transform="matrix(1 0 0 1 64.50 9.50)">8</text>
	<text transform="matrix(1 0 0 1 51.50 20.50)">9</text>
	<text transform="matrix(1 0 0 1 75.50 16.50)">10</text>
	<text transform="matrix(1 0 0 1 45.50 49.50)">11</text>
	<text transform="matrix(1 0 0 1 55.50 39.50)">12</text>
	<text transform="matrix(1 0 0 1 59.25 53.82)">13</text>
	<text transform="matrix(1 0 0 1 59.25 69.50)">14</text>
</g>
</svg>