<svg xmlns="http://www.w3.org/2000/svg" xmlns:kvg="http://kanjivg.tagaini.net" height="109" kun="&#12383;&#12400;&#12363;.&#12427;, &#12383;&#12406;&#12425;.&#12363;&#12377;, &#12383;.&#12425;&#12377;" meaning="cheat, coax" on="&#12461;&#12519;&#12454;" viewBox="0 0 109 109" width="109">
<g id="kvg:StrokePaths_08a91" style="fill:none;stroke:#000000;stroke-width:3;stroke-linecap:round;stroke-linejoin:round;">
<g id="kvg:08a91" kvg:element="&#35473;">
	<g id="kvg:08a91-g1" kvg:element="&#35328;" kvg:position="left" kvg:radical="general">
		<path d="M18.8,13c3.49,2.16,9.01,8.89,9.88,12.25" id="kvg:08a91-s1" kvg:type="&#12756;" />
		<path d="M9.12,35.08c0.71,0.23,3.4,0.27,4.1,0.23c8.73-0.42,17.48-2.67,23.83-2.87c1.18-0.04,2.95,0.11,3.54,0.23" id="kvg:08a91-s2" kvg:type="&#12752;" />
		<path d="M13.68,47.56c0.43,0.12,3.04,0.13,3.47,0.12c4.44-0.14,11.86-1.43,16.34-2.05c0.7-0.1,3.68,0.06,4.04,0.12" id="kvg:08a91-s3" kvg:type="&#12752;" />
		<path d="M14.8,59.33c0.38,0.12,2.71,0.13,3.1,0.12c3.97-0.13,11.93-2.11,15.83-2.09c0.63,0,3.29,0.06,3.6,0.11" id="kvg:08a91-s4" kvg:type="&#12752;" />
		<g id="kvg:08a91-g2" kvg:element="&#21475;">
			<path d="M15.01,71.9c0.39,0.36,0.83,1.15,0.96,1.63c1.11,4.21,2.02,15.54,3.14,21.71" id="kvg:08a91-s5" kvg:type="&#12753;" />
			<path d="M16.44,73.37c7.2-0.89,11.9-2.1,18.55-3c1.67-0.22,2.68,1.04,2.44,2.06c-0.99,4.25-1.36,10.22-3.12,17.28" id="kvg:08a91-s6" kvg:type="&#12757;b" />
			<path d="M18.92,92.05c5.37-0.54,10.18-0.97,17.56-1.81" id="kvg:08a91-s7" kvg:type="&#12752;b" />
		</g>
	</g>
	<g id="kvg:08a91-g3" kvg:element="&#29378;" kvg:position="right">
		<g id="kvg:08a91-g4" kvg:element="&#11944;" kvg:original="&#29356;" kvg:position="left" kvg:variant="true">
			<path d="M60.39,13.5c0.05,0.69,0.23,2.02-0.1,2.77c-4.19,9.51-8.45,16.24-18.63,26.52" id="kvg:08a91-s8" kvg:type="&#12754;" />
			<path d="M42.8,18c24.7,21.25,16.95,89,3.04,69.38" id="kvg:08a91-s9" kvg:type="&#12757;va" />
			<path d="M53.63,44.5c0.03,0.64,0.15,1.89-0.06,2.58c-2.71,8.86-5.47,15.13-12.06,24.71" id="kvg:08a91-s10" kvg:type="&#12754;" />
		</g>
		<g id="kvg:08a91-g5" kvg:element="&#29579;" kvg:original="&#29577;" kvg:partial="true" kvg:position="right">
			<path d="M62.75,24.98c0.75,0.39,3.17,0.53,3.94,0.52c6.06,0,16.81-1.75,25.3-2.86c1.14-0.15,2.2,0.08,3.15,0.41" id="kvg:08a91-s11" kvg:type="&#12752;" />
			<path d="M76.66,25c1.27,2.4,1.27,3.83,1.27,5.75c0,13.41-0.01,36.75-0.01,58.25" id="kvg:08a91-s12" kvg:type="&#12753;a" />
			<path d="M63.45,55.65c0.55,0.37,2.88,0.67,3.45,0.66c6.81-0.07,15.6-2.07,22.79-3.1c0.69-0.1,2.21-0.15,3.25,0.17" id="kvg:08a91-s13" kvg:type="&#12752;" />
			<path d="M60.02,90.71c1.29,0.36,2.93,0.4,3.74,0.38c8.42-0.21,19.51-2.11,31.51-2.62c1.29-0.05,2.84,0.34,3.48,0.67" id="kvg:08a91-s14" kvg:type="&#12752;" />
		</g>
	</g>
</g>
</g>
<g id="kvg:StrokeNumbers_08a91" style="font-size:8;fill:#808080">
	<text transform="matrix(1 0 0 1 12.50 13.50)">1</text>
	<text transform="matrix(1 0 0 1 1.75 34.50)">2</text>
	<text transform="matrix(1 0 0 1 6.50 48.50)">3</text>
	<text transform="matrix(1 0 0 1 7.50 60.50)">4</text>
	<text transform="matrix(1 0 0 1 8.50 79.50)">5</text>
	<text transform="matrix(1 0 0 1 18.50 69.50)">6</text>
	<text transform="matrix(1 0 0 1 22.50 88.50)">7</text>
	<text transform="matrix(1 0 0 1 52.50 13.10)">8</text>
	<text transform="matrix(1 0 0 1 36.50 17.50)">9</text>
	<text transform="matrix(1 0 0 1 43.50 47.50)">10</text>
	<text transform="matrix(1 0 0 1 64.50 22.50)">11</text>
	<text transform="matrix(1 0 0 1 67.50 35.55)">12</text>
	<text transform="matrix(1 0 0 1 60.50 52.50)">13</text>
	<text transform="matrix(1 0 0 1 59.50 87.50)">14</text>
</g>
</svg>