<svg xmlns="http://www.w3.org/2000/svg" xmlns:kvg="http://kanjivg.tagaini.net" height="109" kun="&#12362;&#12375;.&#12360;&#12427;" meaning="instruct" on="&#12459;&#12452;" viewBox="0 0 109 109" width="109">
<g id="kvg:StrokePaths_08aa8" style="fill:none;stroke:#000000;stroke-width:3;stroke-linecap:round;stroke-linejoin:round;">
<g id="kvg:08aa8" kvg:element="&#35496;">
	<g id="kvg:08aa8-g1" kvg:element="&#35328;" kvg:position="left" kvg:radical="general">
		<path d="M17.8,13c3.49,1.99,9.01,8.16,9.88,11.25" id="kvg:08aa8-s1" kvg:type="&#12756;" />
		<path d="M9.62,34.08c0.71,0.23,3.4,0.27,4.1,0.23c8.73-0.42,16.03-2.31,22.33-3.37c1.17-0.2,2.95,0.11,3.54,0.23" id="kvg:08aa8-s2" kvg:type="&#12752;" />
		<path d="M14.18,47.56c0.43,0.12,3.04,0.13,3.47,0.12c4.44-0.14,9.36-1.43,13.84-2.05c0.7-0.1,3.68,0.06,4.04,0.12" id="kvg:08aa8-s3" kvg:type="&#12752;" />
		<path d="M13.8,59.83c0.38,0.12,2.71,0.13,3.1,0.12c3.97-0.13,10.36-1.95,14.83-2.59c0.63-0.09,3.29,0.06,3.6,0.11" id="kvg:08aa8-s4" kvg:type="&#12752;" />
		<g id="kvg:08aa8-g2" kvg:element="&#21475;">
			<path d="M13.01,71.4c0.29,0.4,0.63,1.27,0.73,1.8c0.84,4.63,2.28,16,3.13,22.8" id="kvg:08aa8-s5" kvg:type="&#12753;" />
			<path d="M13.94,73.37c7.2-0.89,14.9-3.1,21.55-4c1.67-0.22,2.68,1.04,2.44,2.06c-0.99,4.25-2.93,11.82-3.62,19.28" id="kvg:08aa8-s6" kvg:type="&#12757;b" />
			<path d="M16.92,93.05c5.37-0.54,12.18-1.47,19.56-2.31" id="kvg:08aa8-s7" kvg:type="&#12752;b" />
		</g>
	</g>
	<g id="kvg:08aa8-g3" kvg:element="&#27598;" kvg:position="right" kvg:variant="true">
		<g id="kvg:08aa8-g4" kvg:position="top">
			<g id="kvg:08aa8-g5" kvg:element="&#20031;">
				<path d="M56.62,11.5c0.04,0.68,0.12,1.78-0.07,2.74c-1.19,5.9-6.05,18.26-12.67,26.26" id="kvg:08aa8-s8" kvg:type="&#12754;" />
			</g>
			<path d="M55.62,26.53c0.98,0.28,3.83,0.45,4.79,0.28c5.48-0.96,16.67-3.18,27.07-4.66c1.6-0.23,3.65,0.13,4.46,0.28" id="kvg:08aa8-s9" kvg:type="&#12752;" />
		</g>
		<g id="kvg:08aa8-g6" kvg:element="&#27597;" kvg:position="bottom">
			<g id="kvg:08aa8-g7" kvg:element="&#27595;" kvg:part="1" kvg:variant="true">
				<path d="M54.41,38.65c0.97,0.85,1.67,3.7,1.21,5.9c-2.37,11.2-5.12,27.7-7.13,35.07c-0.87,3.2-0.47,4.33,1.4,4.33c14.93,0,29.11,0.8,42.14,4.7" id="kvg:08aa8-s10" kvg:type="&#12763;" />
				<path d="M56.82,41.2c0.93-0.15,2.71-0.31,3.52-0.41c8.37-1.03,19.43-3.44,24.08-3.44c2.36,0,2.99,1.68,2.83,3.72c-1.18,15.03-5.19,45.49-8.55,53.19c-2.94,6.73-8.03,0.04-8.68-0.7" id="kvg:08aa8-s11" kvg:type="&#12742;" />
			</g>
			<path d="M63.19,44.54c3.53,1.57,9.11,6.46,9.99,8.9" id="kvg:08aa8-s12" kvg:type="&#12756;" />
			<path d="M62.69,67.83c3.61,2.1,9.33,8.63,10.24,11.9" id="kvg:08aa8-s13" kvg:type="&#12756;" />
			<g id="kvg:08aa8-g8" kvg:element="&#27595;" kvg:part="2" kvg:variant="true">
				<path d="M39.14,61.89c1.22,0.52,3.46,0.57,4.69,0.52c12.74-0.59,27.8-3.56,51.25-3.7c2.04-0.01,3.27,0.24,4.29,0.5" id="kvg:08aa8-s14" kvg:type="&#12752;" />
			</g>
		</g>
	</g>
</g>
</g>
<g id="kvg:StrokeNumbers_08aa8" style="font-size:8;fill:#808080">
	<text transform="matrix(1 0 0 1 10.50 13.50)">1</text>
	<text transform="matrix(1 0 0 1 2.75 33.05)">2</text>
	<text transform="matrix(1 0 0 1 7.00 48.73)">3</text>
	<text transform="matrix(1 0 0 1 7.00 61.90)">4</text>
	<text transform="matrix(1 0 0 1 7.00 78.50)">5</text>
	<text transform="matrix(1 0 0 1 16.50 69.50)">6</text>
	<text transform="matrix(1 0 0 1 19.50 89.50)">7</text>
	<text transform="matrix(1 0 0 1 47.50 11.50)">8</text>
	<text transform="matrix(1 0 0 1 60.50 24.50)">9</text>
	<text transform="matrix(1 0 0 1 45.50 46.50)">10</text>
	<text transform="matrix(1 0 0 1 57.75 37.63)">11</text>
	<text transform="matrix(1 0 0 1 57.50 53.50)">12</text>
	<text transform="matrix(1 0 0 1 54.50 74.73)">13</text>
	<text transform="matrix(1 0 0 1 37.50 59.50)">14</text>
</g>
</svg>