<svg xmlns="http://www.w3.org/2000/svg" xmlns:kvg="http://kanjivg.tagaini.net" height="109" meaning="talk" viewBox="0 0 109 109" width="109">
<g id="kvg:StrokePaths_08b5a" style="fill:none;stroke:#000000;stroke-width:3;stroke-linecap:round;stroke-linejoin:round;">
<g id="kvg:08b5a" kvg:element="&#35674;">
	<g id="kvg:08b5a-g1" kvg:element="&#35328;" kvg:position="left" kvg:radical="general">
		<path d="M15.8,14.5c3.66,1.81,9.46,7.44,10.38,10.25" id="kvg:08b5a-s1" kvg:type="&#12756;" />
		<path d="M7.12,33.08c0.71,0.23,3.4,0.27,4.1,0.23c8.73-0.42,16.98-2.17,23.33-2.37c1.18-0.04,2.95,0.11,3.54,0.23" id="kvg:08b5a-s2" kvg:type="&#12752;" />
		<path d="M11.18,46.06c0.43,0.12,3.04,0.13,3.47,0.12c4.44-0.14,11.36-1.93,15.84-2.55c0.7-0.1,3.68,0.06,4.04,0.12" id="kvg:08b5a-s3" kvg:type="&#12752;" />
		<path d="M11.3,57.33c0.38,0.12,2.71,0.13,3.1,0.12c3.97-0.13,12.93-1.61,16.83-1.59c0.63,0,3.29,0.06,3.6,0.11" id="kvg:08b5a-s4" kvg:type="&#12752;" />
		<g id="kvg:08b5a-g2" kvg:element="&#21475;">
			<path d="M12.51,71.4c0.39,0.36,0.89,1.14,0.96,1.63C14.5,80.25,15,86.5,15.61,93.25" id="kvg:08b5a-s5" kvg:type="&#12753;" />
			<path d="M13.44,72.87c7.2-0.89,13.4-2.6,20.05-3.5c1.67-0.22,2.68,1.04,2.44,2.06c-0.99,4.25-1.36,8.72-3.12,15.78" id="kvg:08b5a-s6" kvg:type="&#12757;b" />
			<path d="M16.92,89.05c5.37-0.54,11.68-0.97,19.06-1.81" id="kvg:08b5a-s7" kvg:type="&#12752;b" />
		</g>
	</g>
	<g id="kvg:08b5a-g3" kvg:element="&#35203;" kvg:position="right" kvg:variant="true">
		<g id="kvg:08b5a-g4" kvg:element="&#35198;" kvg:position="top" kvg:variant="true">
			<g id="kvg:08b5a-g5" kvg:element="&#35199;" kvg:variant="true">
				<path d="M42.89,16.18c1.38,0.41,3.89,0.51,5.27,0.41c7.73-0.55,30.92-4.11,38.99-4.27c2.29-0.04,3.67-0.26,4.81-0.06" id="kvg:08b5a-s8" kvg:type="&#12752;" />
				<path d="M42.75,26.36c0.48,0.77,1.08,1.4,1.18,2.38c0.25,2.43,1.66,8.25,1.9,12.14" id="kvg:08b5a-s9" kvg:type="&#12753;" />
				<path d="M43.83,27.17c9.84-1.25,44.91-4.62,49.98-5.04c1.86-0.15,2.71,1.52,2.71,2.46c0,2.53-2,8.93-3.12,13.11" id="kvg:08b5a-s10" kvg:type="&#12757;" />
				<path d="M56.91,16.78c0.65,0.48,1.11,2.12,1.17,3.09c0.18,2.88,0.93,12.88,1.8,17.01" id="kvg:08b5a-s11" kvg:type="&#12753;" />
				<path d="M75.02,14.29c0.51,0.38,0.72,1.72,0.72,3.45c-0.02,6.89-0.22,12.35-1.05,18.64" id="kvg:08b5a-s12" kvg:type="&#12753;" />
				<path d="M46.35,38.2c3.57-0.16,41.92-3.63,46.59-3.61" id="kvg:08b5a-s13" kvg:type="&#12752;" />
			</g>
		</g>
		<g id="kvg:08b5a-g6" kvg:element="&#26089;" kvg:position="bottom">
			<g id="kvg:08b5a-g7" kvg:element="&#26085;" kvg:position="top">
				<path d="M50.78,45.31c0.43,1.02,0.65,1.53,1.15,2.72c0.72,1.7,1.92,17.5,2.6,19.03" id="kvg:08b5a-s14" kvg:type="&#12753;" />
				<path d="M51.42,46.87c2.45-0.16,31.43-3.79,33.65-3.39c0.88,0.16,1.72,1.43,1.39,3.05c-0.63,3.05-1.29,12.95-2.44,18.41" id="kvg:08b5a-s15" kvg:type="&#12757;a" />
				<path d="M53.39,55.51c3.32,0,27.69-2.86,31.44-2.86" id="kvg:08b5a-s16" kvg:type="&#12752;a" />
				<path d="M54.49,64.69c4.91,0,26.09-2.04,29.15-2.04" id="kvg:08b5a-s17" kvg:type="&#12752;a" />
			</g>
			<g id="kvg:08b5a-g8" kvg:element="&#21313;" kvg:position="bottom">
				<path d="M42.55,77.43c1.44,0.42,4.09,0.54,5.52,0.42c12.45-1.01,33.83-3.68,45.54-3.65c2.4,0.01,3.84,0.2,5.04,0.42" id="kvg:08b5a-s18" kvg:type="&#12752;" />
				<path d="M68.04,66.69c0.32,0.35,0.99,2.62,1.06,3.32c0.06,0.7-0.04,24.6-0.1,28.98" id="kvg:08b5a-s19" kvg:type="&#12753;" />
			</g>
		</g>
	</g>
</g>
</g>
<g id="kvg:StrokeNumbers_08b5a" style="font-size:8;fill:#808080">
	<text transform="matrix(1 0 0 1 9.50 14.50)">1</text>
	<text transform="matrix(1 0 0 1 0.50 34.50)">2</text>
	<text transform="matrix(1 0 0 1 4.50 47.50)">3</text>
	<text transform="matrix(1 0 0 1 4.50 58.50)">4</text>
	<text transform="matrix(1 0 0 1 5.50 77.50)">5</text>
	<text transform="matrix(1 0 0 1 15.50 69.50)">6</text>
	<text transform="matrix(1 0 0 1 18.50 85.50)">7</text>
	<text transform="matrix(1 0 0 1 36.25 16.50)">8</text>
	<text transform="matrix(1 0 0 1 38.25 36.50)">9</text>
	<text transform="matrix(1 0 0 1 45.50 24.70)">10</text>
	<text transform="matrix(1 0 0 1 61.50 22.50)">11</text>
	<text transform="matrix(1 0 0 1 78.50 20.50)">12</text>
	<text transform="matrix(1 0 0 1 47.50 34.50)">13</text>
	<text transform="matrix(1 0 0 1 41.50 52.50)">14</text>
	<text transform="matrix(1 0 0 1 53.50 44.33)">15</text>
	<text transform="matrix(1 0 0 1 56.50 53.50)">16</text>
	<text transform="matrix(1 0 0 1 57.50 62.50)">17</text>
	<text transform="matrix(1 0 0 1 41.00 75.10)">18</text>
	<text transform="matrix(1 0 0 1 58.50 71.50)">19</text>
</g>
</svg>