<svg xmlns="http://www.w3.org/2000/svg" xmlns:kvg="http://kanjivg.tagaini.net" height="109" kun="&#12383;&#12395;, &#12383;&#12395;&#12364;&#12431;" meaning="valley" on="&#12465;&#12452;" viewBox="0 0 109 109" width="109">
<g id="kvg:StrokePaths_08c3f" style="fill:none;stroke:#000000;stroke-width:3;stroke-linecap:round;stroke-linejoin:round;">
<g id="kvg:08c3f" kvg:element="&#35903;">
	<g id="kvg:08c3f-g1" kvg:element="&#22874;" kvg:position="left">
		<g id="kvg:08c3f-g2" kvg:position="top">
			<g id="kvg:08c3f-g3" kvg:element="&#11940;" kvg:original="&#29226;" kvg:variant="true">
				<path d="M40,13.39c0.07,0.27,0.25,0.8-0.14,1.1C36.25,17.25,25.75,22,13.32,24.5" id="kvg:08c3f-s1" kvg:type="&#12754;" />
				<path d="M16.76,27.53c0.02,0.35,0.05,0.9-0.04,1.41c-0.53,2.96-3.04,8.26-7.39,13.89" id="kvg:08c3f-s2" kvg:type="&#12754;" />
				<path d="M26.92,26.36c2.37,1.79,6.11,7.35,6.7,10.13" id="kvg:08c3f-s3" kvg:type="&#12756;" />
				<path d="M38.07,22.97c3.09,1.79,7.98,7.35,8.75,10.14" id="kvg:08c3f-s4" kvg:type="&#12756;" />
			</g>
			<g id="kvg:08c3f-g4" kvg:element="&#24186;">
				<path d="M24.64,35.6c0.29,0.98,0.45,1.67-0.15,2.78c-1.14,2.12-3.34,4.54-5.26,7.34c-0.48,0.7-0.31,1.93,0.29,2.02c3.48,0.51,7.01,1.31,9.64,3.11" id="kvg:08c3f-s5" kvg:type="&#12764;" />
				<path d="M40.31,38.51c0.17,1.52-0.43,2.57-0.88,3.05c-6.14,6.71-14.5,13.3-21.4,20.39c-0.98,1.01-0.58,1.64,0.58,1.31c4.89-1.37,17.07-4.19,23.35-5.5" id="kvg:08c3f-s6" kvg:type="&#12764;" />
				<path d="M39.19,52.79c1.91,1.88,4.94,7.72,5.41,10.64" id="kvg:08c3f-s7" kvg:type="&#12756;" />
			</g>
		</g>
		<g id="kvg:08c3f-g5" kvg:element="&#22823;" kvg:position="bottom">
			<path d="M9.89,73.95c0.71,0.33,2.59,0.73,4.09,0.58c10.13-1,20.44-2.99,29.54-3.47c1.56-0.08,2.82-0.04,4.23,0.22" id="kvg:08c3f-s8" kvg:type="&#12752;" />
			<path d="M29.81,65.34c0.3,0.42,0.29,1.32,0.19,2.21c-1.65,13.51-8.16,23.72-18.75,28.24" id="kvg:08c3f-s9" kvg:type="&#12754;" />
			<path d="M29.76,77.96c6.63,2.81,13.96,10.56,16.43,15.47" id="kvg:08c3f-s10" kvg:type="&#12751;" />
		</g>
	</g>
	<g id="kvg:08c3f-g6" kvg:element="&#35895;" kvg:position="right" kvg:radical="general">
		<g id="kvg:08c3f-g7" kvg:position="top">
			<path d="M65.23,15.48c0.03,0.45,0.07,1.17-0.07,1.82c-0.81,3.84-5.43,12.28-11.76,17.45" id="kvg:08c3f-s11" kvg:type="&#12754;" />
			<path d="M79.08,15.08C84.9,19,91.99,26.49,93.98,30.5" id="kvg:08c3f-s12" kvg:type="&#12756;" />
		</g>
		<g id="kvg:08c3f-g8" kvg:position="bottom">
			<path d="M74.13,27.75c0.06,0.86,0.3,2.3-0.13,3.45c-3.58,9.68-10.25,23.55-22.59,33.05" id="kvg:08c3f-s13" kvg:type="&#12754;" />
			<path d="M73.96,34.33c5.08,8.4,14.55,20.4,19.21,24.86c1.16,1.11,2.49,1.83,3.58,2.2" id="kvg:08c3f-s14" kvg:type="&#12751;" />
			<g id="kvg:08c3f-g9" kvg:element="&#21475;">
				<path d="M59.59,66.86c0.31,0.46,0.62,0.84,0.75,1.41c1.06,4.53,1.83,18.04,2.55,26.18" id="kvg:08c3f-s15" kvg:type="&#12753;" />
				<path d="M61.02,68.75c9.23-1.25,18.61-2.14,23.71-3.04c1.74-0.31,2.81,2.08,2.54,3.43c-1.27,6.48-2.72,11.29-3.89,19.25" id="kvg:08c3f-s16" kvg:type="&#12757;b" />
				<path d="M63.71,90.66c6.71-0.62,14.49-1.06,23.23-1.79" id="kvg:08c3f-s17" kvg:type="&#12752;b" />
			</g>
		</g>
	</g>
</g>
</g>
<g id="kvg:StrokeNumbers_08c3f" style="font-size:8;fill:#808080">
	<text transform="matrix(1 0 0 1 32.50 11.50)">1</text>
	<text transform="matrix(1 0 0 1 8.50 32.50)">2</text>
	<text transform="matrix(1 0 0 1 21.50 31.50)">3</text>
	<text transform="matrix(1 0 0 1 32.50 28.50)">4</text>
	<text transform="matrix(1 0 0 1 17.50 38.50)">5</text>
	<text transform="matrix(1 0 0 1 29.50 44.25)">6</text>
	<text transform="matrix(1 0 0 1 40.50 51.50)">7</text>
	<text transform="matrix(1 0 0 1 3.50 74.10)">8</text>
	<text transform="matrix(1 0 0 1 21.50 70.50)">9</text>
	<text transform="matrix(1 0 0 1 37.50 81.50)">10</text>
	<text transform="matrix(1 0 0 1 55.50 15.50)">11</text>
	<text transform="matrix(1 0 0 1 76.50 12.50)">12</text>
	<text transform="matrix(1 0 0 1 63.50 31.50)">13</text>
	<text transform="matrix(1 0 0 1 79.50 41.50)">14</text>
	<text transform="matrix(1 0 0 1 50.50 74.50)">15</text>
	<text transform="matrix(1 0 0 1 62.50 65.50)">16</text>
	<text transform="matrix(1 0 0 1 65.50 87.50)">17</text>
</g>
</svg>