<svg xmlns="http://www.w3.org/2000/svg" xmlns:kvg="http://kanjivg.tagaini.net" height="109" kun="&#12354;&#12365;&#12394;.&#12356;, &#12354;&#12365;&#12394;.&#12358;, &#12358;.&#12427;, &#12363;.&#12358;" meaning="buy, tradesman" on="&#12467;, &#12459;" viewBox="0 0 109 109" width="109">
<g id="kvg:StrokePaths_08cc8" style="fill:none;stroke:#000000;stroke-width:3;stroke-linecap:round;stroke-linejoin:round;">
<g id="kvg:08cc8" kvg:element="&#36040;">
	<g id="kvg:08cc8-g1" kvg:element="&#35199;" kvg:original="&#35198;" kvg:position="top" kvg:radical="nelson" kvg:variant="true">
		<path d="M24.75,14.84c1.45,0.59,4.11,0.68,5.57,0.59c13.39-0.81,36.87-3.87,45.84-3.19c2.42,0.18,3.88,0.28,5.09,0.58" id="kvg:08cc8-s1" kvg:type="&#12752;" />
		<path d="M21.24,26.81c0.35,0.27,0.71,0.5,0.86,0.84c1.22,2.71,2.67,10.19,3.5,15.06" id="kvg:08cc8-s2" kvg:type="&#12753;" />
		<path d="M23.42,28.74C36.75,26.5,77.5,23,86.25,22.51c1.62-0.09,2.59,1.41,2.36,2.24c-0.96,3.41-2.99,9.36-5.04,14.28" id="kvg:08cc8-s3" kvg:type="&#12757;" />
		<path d="M39.37,15.25c1.28,0.48,2.13,2.13,2.29,3.09c0.49,2.85,1.66,14.5,2.84,21.16" id="kvg:08cc8-s4" kvg:type="&#12754;" />
		<path d="M62.88,13.25c1.06,0.49,1.38,2.63,1.1,4.85c-0.73,5.83-0.73,10.68-1.94,20.15" id="kvg:08cc8-s5" kvg:type="&#12767;" />
		<path d="M25.45,40.71c5.2-0.43,47.05-3.21,58.38-3.61" id="kvg:08cc8-s6" kvg:type="&#12752;" />
	</g>
	<g id="kvg:08cc8-g2" kvg:element="&#35997;" kvg:position="bottom" kvg:radical="tradit">
		<g id="kvg:08cc8-g3" kvg:element="&#30446;" kvg:position="top">
			<path d="M33.53,48.09c0.61,0.82,1.5,2.93,1.5,4.02c0,1.09,0.28,27.6-0.45,32.17" id="kvg:08cc8-s7" kvg:type="&#12753;" />
			<path d="M35.05,50.03c3.45-0.14,33.21-3.88,36.35-4.04c2.61-0.14,4.01,0.76,4.01,3.27c0,2.49-0.77,32.35-0.77,33.16" id="kvg:08cc8-s8" kvg:type="&#12757;a" />
			<path d="M35.1,60.04c6.45-0.31,33.94-3.21,39.46-3.21" id="kvg:08cc8-s9" kvg:type="&#12752;a" />
			<path d="M35.38,70.37c9.72-0.6,28.91-2.32,39.22-2.44" id="kvg:08cc8-s10" kvg:type="&#12752;a" />
			<path d="M34.93,81.63C44.66,81.18,65.73,79,74.6,79" id="kvg:08cc8-s11" kvg:type="&#12752;a" />
		</g>
		<g id="kvg:08cc8-g4" kvg:position="bottom">
			<path d="M43.07,86.25c0.62,1.21-0.47,2.39-1.71,3.27c-3.73,2.66-13.54,8.33-21,11.48" id="kvg:08cc8-s12" kvg:type="&#12754;" />
			<path d="M63.54,84.45c7.78,4.25,16.98,11.94,19.1,15.65" id="kvg:08cc8-s13" kvg:type="&#12756;" />
		</g>
	</g>
</g>
</g>
<g id="kvg:StrokeNumbers_08cc8" style="font-size:8;fill:#808080">
	<text transform="matrix(1 0 0 1 18.50 15.50)">1</text>
	<text transform="matrix(1 0 0 1 15.50 34.50)">2</text>
	<text transform="matrix(1 0 0 1 25.50 25.50)">3</text>
	<text transform="matrix(1 0 0 1 34.50 22.50)">4</text>
	<text transform="matrix(1 0 0 1 56.72 21.85)">5</text>
	<text transform="matrix(1 0 0 1 29.50 37.50)">6</text>
	<text transform="matrix(1 0 0 1 26.50 54.50)">7</text>
	<text transform="matrix(1 0 0 1 38.50 47.10)">8</text>
	<text transform="matrix(1 0 0 1 39.50 57.50)">9</text>
	<text transform="matrix(1 0 0 1 39.50 67.50)">10</text>
	<text transform="matrix(1 0 0 1 39.50 78.88)">11</text>
	<text transform="matrix(1 0 0 1 26.50 92.50)">12</text>
	<text transform="matrix(1 0 0 1 57.50 91.50)">13</text>
</g>
</svg>