<svg xmlns="http://www.w3.org/2000/svg" xmlns:kvg="http://kanjivg.tagaini.net" height="109" kun="&#12362;&#12367;&#12364;&#12365;, &#12405;.&#12416;" meaning="epilogue, postscript" on="&#12495;&#12484;, &#12496;&#12484;" viewBox="0 0 109 109" width="109">
<g id="kvg:StrokePaths_08dcb" style="fill:none;stroke:#000000;stroke-width:3;stroke-linecap:round;stroke-linejoin:round;">
<g id="kvg:08dcb" kvg:element="&#36299;">
	<g id="kvg:08dcb-g1" kvg:element="&#36275;" kvg:position="left" kvg:radical="general">
		<g id="kvg:08dcb-g2" kvg:element="&#21475;">
			<path d="M13.78,22.21c0.37,0.32,0.75,0.58,0.91,0.97c1.28,3.13,2.85,13.7,3.73,19.32" id="kvg:08dcb-s1" kvg:type="&#12753;" />
			<path d="M15.61,23.9c8.76-1.68,18.79-2.5,23.13-2.91c1.58-0.15,2.54,0.89,2.31,1.77c-1.04,4.06-2.15,9.85-3.43,14.5" id="kvg:08dcb-s2" kvg:type="&#12757;b" />
			<path d="M19.06,40.19c5.09-0.46,13.15-1.34,20.14-2.05" id="kvg:08dcb-s3" kvg:type="&#12752;b" />
		</g>
		<path d="M27.37,41.74c1.09,0.5,1.96,2.23,1.96,3.25c0,5.51,0.28,27.01,0.28,37" id="kvg:08dcb-s4" kvg:type="&#12753;a" />
		<path d="M29.88,58.74c3.37-0.49,7.87-1.74,11.35-2.5c1.7-0.37,2.18-0.25,3.26,0" id="kvg:08dcb-s5" kvg:type="&#12752;b" />
		<path d="M14.37,54.49c1.09,0.5,1.74,2.25,1.96,3.25c0.22,1,1.42,18.01,2.42,30.76" id="kvg:08dcb-s6" kvg:type="&#12754;" />
		<path d="M11.5,90.07c0.75,1.43,2.89,1.38,3.7,0.9c9.55-5.72,13.8-8.22,25.3-14.98" id="kvg:08dcb-s7" kvg:type="&#12736;/&#12751;" />
	</g>
	<g id="kvg:08dcb-g3" kvg:position="right">
		<g id="kvg:08dcb-g4" kvg:element="&#29356;" kvg:part="1">
			<g id="kvg:08dcb-g5" kvg:element="&#22823;">
				<path d="M45.25,32.89c1.37,0.38,3.88,0.46,5.25,0.38c8.96-0.52,32.52-3.83,40.96-3.38c2.27,0.12,3.65,0.18,4.79,0.37" id="kvg:08dcb-s8" kvg:type="&#12752;" />
				<path d="M65.41,10.75c0.94,1.35,1.95,1.92,1.83,4.4c-1.18,22.9-5.97,54.8-30.29,78.82" id="kvg:08dcb-s9" kvg:type="&#12754;" />
			</g>
		</g>
		<g id="kvg:08dcb-g6" kvg:element="&#20031;">
			<path d="M85.76,45c0.09,1.22,0.13,3.46-0.18,4.9C81.94,66.79,72.25,89,52,97.29" id="kvg:08dcb-s10" kvg:type="&#12754;" />
		</g>
		<g id="kvg:08dcb-g7" kvg:element="&#29356;" kvg:part="2">
			<g id="kvg:08dcb-g8" kvg:element="&#20022;">
				<path d="M60.5,55.25c5.34,7.44,20.42,26.94,29.85,36.39c1.63,1.64,2.86,2.38,4.4,2.86" id="kvg:08dcb-s11" kvg:type="&#12751;" />
				<path d="M81.02,14.58c3.28,1.7,8.47,6.99,9.29,9.63" id="kvg:08dcb-s12" kvg:type="&#12756;" />
			</g>
		</g>
	</g>
</g>
</g>
<g id="kvg:StrokeNumbers_08dcb" style="font-size:8;fill:#808080">
	<text transform="matrix(1 0 0 1 9.50 30.50)">1</text>
	<text transform="matrix(1 0 0 1 16.50 20.50)">2</text>
	<text transform="matrix(1 0 0 1 21.50 37.50)">3</text>
	<text transform="matrix(1 0 0 1 22.54 49.50)">4</text>
	<text transform="matrix(1 0 0 1 32.50 54.50)">5</text>
	<text transform="matrix(1 0 0 1 5.50 55.50)">6</text>
	<text transform="matrix(1 0 0 1 3.50 92.50)">7</text>
	<text transform="matrix(1 0 0 1 44.50 30.50)">8</text>
	<text transform="matrix(1 0 0 1 56.75 11.50)">9</text>
	<text transform="matrix(1 0 0 1 74.50 44.50)">10</text>
	<text transform="matrix(1 0 0 1 65.50 56.38)">11</text>
	<text transform="matrix(1 0 0 1 74.50 11.50)">12</text>
</g>
</svg>