<svg xmlns="http://www.w3.org/2000/svg" xmlns:kvg="http://kanjivg.tagaini.net" height="109" meaning="lame, lameness, odd shoe" viewBox="0 0 109 109" width="109">
<g id="kvg:StrokePaths_08ddb" style="fill:none;stroke:#000000;stroke-width:3;stroke-linecap:round;stroke-linejoin:round;">
<g id="kvg:08ddb" kvg:element="&#36315;">
	<g id="kvg:08ddb-g1" kvg:element="&#36275;" kvg:position="left" kvg:radical="general">
		<g id="kvg:08ddb-g2" kvg:element="&#21475;">
			<path d="M14.28,23.21c0.37,0.32,0.75,0.58,0.91,0.97c1.28,3.13,3.35,14.7,4.23,20.32" id="kvg:08ddb-s1" kvg:type="&#12753;" />
			<path d="M16.11,24.9c8.76-1.68,17.79-3,22.13-3.41c1.58-0.15,2.54,0.89,2.31,1.77c-1.04,4.06-2.15,11.35-3.43,16" id="kvg:08ddb-s2" kvg:type="&#12757;b" />
			<path d="M20.06,42.19c5.09-0.46,11.65-1.84,18.64-2.55" id="kvg:08ddb-s3" kvg:type="&#12752;b" />
		</g>
		<path d="M26.87,42.74c1.09,0.5,1.96,2.23,1.96,3.25c0,5.51,0.28,25.01,0.28,35" id="kvg:08ddb-s4" kvg:type="&#12753;a" />
		<path d="M30.38,58.74c3.37-0.49,5.87-1.24,9.35-1.5c1.74-0.13,2.18-0.25,3.26,0" id="kvg:08ddb-s5" kvg:type="&#12752;b" />
		<path d="M15.37,57.99c1.09,0.5,1.74,2.25,1.96,3.25c0.22,1,0.42,14.01,0.42,25.76" id="kvg:08ddb-s6" kvg:type="&#12754;" />
		<path d="M10.5,88.57c1.5,1.43,3.37,1.35,4.2,0.9C22.91,85,30.44,80.5,39.5,75.49" id="kvg:08ddb-s7" kvg:type="&#12736;/&#12751;" />
	</g>
	<g id="kvg:08ddb-g3" kvg:element="&#30382;" kvg:position="right">
		<path d="M52.75,29.37c0.62,1.09,1.04,4.07,1.03,6.35c-0.12,25.66-2.03,45.53-15.91,58.92" id="kvg:08ddb-s8" kvg:type="&#12754;" />
		<path d="M52.63,30.01c12.87-1.76,29.88-3.84,35.01-4.18c9.03-0.59,1.65,8.41,0.37,9.28" id="kvg:08ddb-s9" kvg:type="&#12758;b" />
		<path d="M67.47,14.75c1.5,0.5,2.39,2.25,2.69,3.25s-0.11,21.5-0.11,31.75" id="kvg:08ddb-s10" kvg:type="&#12753;a" />
		<path d="M55.86,51.83c1.34,0.34,1.64,0.91,4.31,0.4c5.72-1.1,17.78-3.94,23.47-4.74c1.9-0.27,3.41,2.03,2.51,3.77c-9.65,18.5-19.65,34.5-39.53,43.64" id="kvg:08ddb-s11" kvg:type="&#12743;" />
		<path d="M57.04,57.37c3.51,0.85,20.68,23.76,32.92,33.14c1.9,1.46,3.29,2.44,5.07,2.92" id="kvg:08ddb-s12" kvg:type="&#12751;" />
	</g>
</g>
</g>
<g id="kvg:StrokeNumbers_08ddb" style="font-size:8;fill:#808080">
	<text transform="matrix(1 0 0 1 8.50 30.50)">1</text>
	<text transform="matrix(1 0 0 1 18.66 20.50)">2</text>
	<text transform="matrix(1 0 0 1 22.50 38.85)">3</text>
	<text transform="matrix(1 0 0 1 22.50 51.50)">4</text>
	<text transform="matrix(1 0 0 1 32.50 55.50)">5</text>
	<text transform="matrix(1 0 0 1 7.50 58.50)">6</text>
	<text transform="matrix(1 0 0 1 3.50 91.50)">7</text>
	<text transform="matrix(1 0 0 1 46.50 38.60)">8</text>
	<text transform="matrix(1 0 0 1 53.25 26.50)">9</text>
	<text transform="matrix(1 0 0 1 55.50 14.50)">10</text>
	<text transform="matrix(1 0 0 1 56.50 49.50)">11</text>
	<text transform="matrix(1 0 0 1 55.50 69.30)">12</text>
</g>
</svg>