<svg xmlns="http://www.w3.org/2000/svg" xmlns:kvg="http://kanjivg.tagaini.net" height="109" kun="&#12354;&#12392;" meaning="remains, clue, footprint" on="&#12477;&#12454;, &#12471;&#12519;&#12454;" viewBox="0 0 109 109" width="109">
<g id="kvg:StrokePaths_08e2a" style="fill:none;stroke:#000000;stroke-width:3;stroke-linecap:round;stroke-linejoin:round;">
<g id="kvg:08e2a" kvg:element="&#36394;">
	<g id="kvg:08e2a-g1" kvg:element="&#36275;" kvg:position="left" kvg:radical="general">
		<g id="kvg:08e2a-g2" kvg:element="&#21475;">
			<path d="M15.28,20.71c0.37,0.32,0.75,0.58,0.91,0.97c1.28,3.13,2.35,13.7,3.23,19.32" id="kvg:08e2a-s1" kvg:type="&#12753;" />
			<path d="M17.11,22.4c8.76-1.68,16.79-2.5,21.13-2.91c1.58-0.15,2.54,0.89,2.31,1.77c-1.04,4.06-2.15,10.85-3.43,15.5" id="kvg:08e2a-s2" kvg:type="&#12757;b" />
			<path d="M20.06,39.69c5.09-0.46,11.65-1.34,18.64-2.05" id="kvg:08e2a-s3" kvg:type="&#12752;b" />
		</g>
		<path d="M27.87,39.74c1.09,0.5,1.96,2.23,1.96,3.25c0,5.51,0.28,26.01,0.28,36" id="kvg:08e2a-s4" kvg:type="&#12753;a" />
		<path d="M30.38,57.74c3.37-0.49,6.87-1.74,10.35-2c1.74-0.13,2.18-0.25,3.26,0" id="kvg:08e2a-s5" kvg:type="&#12752;b" />
		<path d="M16.87,52.99c1.09,0.5,1.74,2.25,1.96,3.25c0.22,1-0.08,18.51-0.08,30.26" id="kvg:08e2a-s6" kvg:type="&#12754;" />
		<path d="M11.5,87.57c1,0.68,2.87,1.35,3.7,0.9C23.41,84,31.44,78.5,40.5,73.49" id="kvg:08e2a-s7" kvg:type="&#12736;/&#12751;" />
	</g>
	<g id="kvg:08e2a-g3" kvg:element="&#23447;" kvg:position="right">
		<g id="kvg:08e2a-g4" kvg:element="&#23424;" kvg:position="top">
			<path d="M68.13,13c1.09,0.38,2.65,2.27,2.63,3.38c-0.08,3.5-0.08,9.02-0.08,12.2" id="kvg:08e2a-s8" kvg:type="&#12753;a" />
			<g id="kvg:08e2a-g5" kvg:element="&#20886;">
				<path d="M49.83,27.56c0,3.52-2.45,14.85-3.56,17.2" id="kvg:08e2a-s9" kvg:type="&#12756;" />
				<path d="M49.69,31.19c6.83-0.77,35.74-4.01,41.28-4.3c8.65-0.45,1.83,6.06-0.32,7.7" id="kvg:08e2a-s10" kvg:type="&#12758;b" />
			</g>
		</g>
		<g id="kvg:08e2a-g6" kvg:element="&#31034;" kvg:position="bottom">
			<g id="kvg:08e2a-g7" kvg:position="top">
				<path d="M55.35,41.99c1.03,0.27,2.92,0.27,3.96,0.27C63.75,42.25,76,40.5,81.26,40c1.71-0.16,2.75,0.13,3.61,0.27" id="kvg:08e2a-s11" kvg:type="&#12752;" />
				<path d="M48.08,55.92c1.08,0.39,3.06,0.46,4.14,0.39c8.14-0.56,27.98-2.65,41.12-2.67c1.8,0,2.88,0.18,3.78,0.38" id="kvg:08e2a-s12" kvg:type="&#12752;" />
			</g>
			<g id="kvg:08e2a-g8" kvg:position="bottom">
				<path d="M69.64,57.09c0.08,0.42,1.54,2.18,1.61,4.85c0.35,12.79,0.29,25.61,0.29,29.96c0,9.25-3.97,3.32-7.65,0.22" id="kvg:08e2a-s13" kvg:type="&#12753;" />
				<path d="M55.49,68.17c0.03,0.52,0.08,1.34-0.07,2.09c-0.87,4.41-7.16,13.01-13.99,18.93" id="kvg:08e2a-s14" kvg:type="&#12754;" />
				<path d="M82.65,69.18c4.68,3.71,12.32,14.83,13.49,20.59" id="kvg:08e2a-s15" kvg:type="&#12756;" />
			</g>
		</g>
	</g>
</g>
</g>
<g id="kvg:StrokeNumbers_08e2a" style="font-size:8;fill:#808080">
	<text transform="matrix(1 0 0 1 10.50 28.50)">1</text>
	<text transform="matrix(1 0 0 1 18.50 18.50)">2</text>
	<text transform="matrix(1 0 0 1 22.50 36.50)">3</text>
	<text transform="matrix(1 0 0 1 23.50 48.50)">4</text>
	<text transform="matrix(1 0 0 1 32.50 54.50)">5</text>
	<text transform="matrix(1 0 0 1 8.50 54.50)">6</text>
	<text transform="matrix(1 0 0 1 4.50 89.50)">7</text>
	<text transform="matrix(1 0 0 1 60.50 13.50)">8</text>
	<text transform="matrix(1 0 0 1 45.50 25.03)">9</text>
	<text transform="matrix(1 0 0 1 53.50 27.50)">10</text>
	<text transform="matrix(1 0 0 1 54.50 39.50)">11</text>
	<text transform="matrix(1 0 0 1 46.50 53.50)">12</text>
	<text transform="matrix(1 0 0 1 60.50 65.50)">13</text>
	<text transform="matrix(1 0 0 1 43.50 67.50)">14</text>
	<text transform="matrix(1 0 0 1 77.50 66.50)">15</text>
</g>
</svg>