<svg xmlns="http://www.w3.org/2000/svg" xmlns:kvg="http://kanjivg.tagaini.net" height="109" kun="&#12395;&#12376;.&#12427;, &#12405;.&#12416;" meaning="edge forward, trample" on="&#12522;&#12531;" viewBox="0 0 109 109" width="109">
<g id="kvg:StrokePaths_08eaa" style="fill:none;stroke:#000000;stroke-width:3;stroke-linecap:round;stroke-linejoin:round;">
<g id="kvg:08eaa" kvg:element="&#36522;">
	<g id="kvg:08eaa-g1" kvg:element="&#36275;" kvg:position="left" kvg:radical="general">
		<g id="kvg:08eaa-g2" kvg:element="&#21475;">
			<path d="M13.28,21.21c0.37,0.32,0.75,0.58,0.91,0.97c1.28,3.13,1.85,16.2,2.73,21.82" id="kvg:08eaa-s1" kvg:type="&#12753;" />
			<path d="M15.11,23.4c8.76-1.68,14.29-2.5,18.63-2.91c1.58-0.15,2.54,0.89,2.31,1.77c-1.04,4.06-2.15,12.35-3.43,17" id="kvg:08eaa-s2" kvg:type="&#12757;b" />
			<path d="M17.06,41.69c5.09-0.46,11.15-1.34,18.14-2.05" id="kvg:08eaa-s3" kvg:type="&#12752;b" />
		</g>
		<path d="M25.87,42.74c1.09,0.5,1.96,2.23,1.96,3.25c0,5.51,0.28,28.01,0.28,38" id="kvg:08eaa-s4" kvg:type="&#12753;a" />
		<path d="M28.38,61.24c3.37-0.49,5.87-1.24,9.35-1.5c1.74-0.13,2.18-0.25,3.26,0" id="kvg:08eaa-s5" kvg:type="&#12752;b" />
		<path d="M16.37,57.99c1.09,0.5,1.74,2.25,1.96,3.25c0.22,1-0.08,17.01-0.08,28.76" id="kvg:08eaa-s6" kvg:type="&#12754;" />
		<path d="M11.5,90.83c0.33,0.66,3.27,1.03,4.07,0.66c7.93-3.7,15.18-7.35,23.93-11.5" id="kvg:08eaa-s7" kvg:type="&#12736;/&#12751;" />
	</g>
	<g id="kvg:08eaa-g3" kvg:element="&#34298;" kvg:position="right">
		<g id="kvg:08eaa-g4" kvg:element="&#33401;" kvg:original="&#33400;" kvg:position="top" kvg:variant="true">
			<path d="M42.5,21.53c1.26,0.51,2.73,0.61,3.99,0.51c11.58-0.94,32.75-3.51,46.1-3.58c2.1-0.01,3.36,0.24,4.41,0.5" id="kvg:08eaa-s8" kvg:type="&#12752;" />
			<path d="M53.62,11.86c1.32,1.08,1.75,1.41,1.89,2.08c1.32,6.22,1.95,12.64,2.33,14.9" id="kvg:08eaa-s9" kvg:type="&#12753;a" />
			<path d="M79.17,9.41c0.32,0.89,0.63,1.52,0.38,2.64c-1.55,6.7-2.02,9.62-4.28,15.66" id="kvg:08eaa-s10" kvg:type="&#12753;a" />
		</g>
		<g id="kvg:08eaa-g5" kvg:position="bottom">
			<g id="kvg:08eaa-g6" kvg:position="kamae">
				<g id="kvg:08eaa-g7" kvg:element="&#38272;">
					<g id="kvg:08eaa-g8" kvg:position="left">
						<path d="M44.64,34.16c0.55,0.35,0.97,1.89,1.08,2.6c0.11,0.71-0.07,55.1-0.18,59.52" id="kvg:08eaa-s11" kvg:type="&#12753;" />
						<path d="M45.88,35.32c1.85-0.08,13.48-2.09,15.16-2.19c1.4-0.08,2.13,0.71,2.2,1.34c0.1,0.96-1.17,15.13-1.17,15.61" id="kvg:08eaa-s12" kvg:type="&#12757;a" />
						<path d="M46.2,42.59c4.53-0.46,11.47-1.66,15.83-2.16" id="kvg:08eaa-s13" kvg:type="&#12752;a" />
						<path d="M45.88,50.11c6.14-0.9,9.78-1.19,15.21-1.6" id="kvg:08eaa-s14" kvg:type="&#12752;a" />
					</g>
					<g id="kvg:08eaa-g9" kvg:position="right">
						<path d="M71.73,31.64c0.34,0.45,0.68,1.4,0.68,2c0,0.6,0.42,14.83,0.54,15.42" id="kvg:08eaa-s15" kvg:type="&#12753;" />
						<path d="M72.48,32.85c1.92-0.07,17.5-2.02,19.24-2.11c1.46-0.07,2.29,0.81,2.28,1.27c-0.38,13.73-0.38,52.54-0.38,62.49c0,8.48-5.5-0.17-6.62-1.09" id="kvg:08eaa-s16" kvg:type="&#12742;a" />
						<path d="M72.82,39.81c2.6,0,17.01-0.98,19.95-0.98" id="kvg:08eaa-s17" kvg:type="&#12752;a" />
						<path d="M72.98,47.43c3.84,0,15.09-1.26,20.06-1.26" id="kvg:08eaa-s18" kvg:type="&#12752;a" />
					</g>
				</g>
				<g id="kvg:08eaa-g10" kvg:element="&#38585;">
					<g id="kvg:08eaa-g11" kvg:element="&#20155;" kvg:original="&#20154;" kvg:variant="true">
						<path d="M58.68,52.65c0.08,0.78-0.02,1.79-0.3,2.46c-1.73,4.24-3.92,7.83-7.89,13" id="kvg:08eaa-s19" kvg:type="&#12754;" />
						<path d="M56.95,60.64c0.39,0.43,0.69,1.39,0.71,2.07c0.23,6.01-0.32,22.89-0.12,26.02" id="kvg:08eaa-s20" kvg:type="&#12753;" />
					</g>
					<path d="M71.96,49.65c0.04,0.48-0.01,1.11-0.14,1.52c-0.79,2.62-1.8,4.65-3.61,7.84" id="kvg:08eaa-s21" kvg:type="&#12754;" />
					<path d="M57.55,60.77c4.52-0.57,21.71-2.21,23.64-2.52" id="kvg:08eaa-s22" kvg:type="&#12752;b" />
					<path d="M68.39,60.48c0.22,0.22,0.39,0.53,0.39,0.91c0,3.9,0.03,17.86-0.11,24" id="kvg:08eaa-s23" kvg:type="&#12753;a" />
					<path d="M58.16,68.17c4.26-0.47,20.1-1.83,21.93-2.09" id="kvg:08eaa-s24" kvg:type="&#12752;b" />
					<path d="M57.64,76.59c4.5-0.39,20.62-1.7,22.55-1.91" id="kvg:08eaa-s25" kvg:type="&#12752;b" />
					<path d="M57.64,86.7c4.52-0.57,22.43-1.65,24.36-1.96" id="kvg:08eaa-s26" kvg:type="&#12752;b" />
				</g>
			</g>
		</g>
	</g>
</g>
</g>
<g id="kvg:StrokeNumbers_08eaa" style="font-size:8;fill:#808080">
	<text transform="matrix(1 0 0 1 8.50 28.50)">1</text>
	<text transform="matrix(1 0 0 1 17.50 19.85)">2</text>
	<text transform="matrix(1 0 0 1 19.50 38.85)">3</text>
	<text transform="matrix(1 0 0 1 20.50 49.50)">4</text>
	<text transform="matrix(1 0 0 1 31.50 57.50)">5</text>
	<text transform="matrix(1 0 0 1 8.58 57.50)">6</text>
	<text transform="matrix(1 0 0 1 4.50 93.50)">7</text>
	<text transform="matrix(1 0 0 1 39.50 18.50)">8</text>
	<text transform="matrix(1 0 0 1 46.50 10.50)">9</text>
	<text transform="matrix(1 0 0 1 68.50 8.50)">10</text>
	<text transform="matrix(1 0 0 1 36.50 42.50)">11</text>
	<text transform="matrix(1 0 0 1 46.50 32.50)">12</text>
	<text transform="matrix(1 0 0 1 49.25 40.50)">13</text>
	<text transform="matrix(1 0 0 1 49.25 48.50)">14</text>
	<text transform="matrix(1 0 0 1 65.50 39.50)">15</text>
	<text transform="matrix(1 0 0 1 78.50 29.50)">16</text>
	<text transform="matrix(1 0 0 1 75.50 38.50)">17</text>
	<text transform="matrix(1 0 0 1 75.50 45.50)">18</text>
	<text transform="matrix(1 0 0 1 49.50 57.50)">19</text>
	<text transform="matrix(1 0 0 1 49.50 74.20)">20</text>
	<text transform="matrix(1 0 0 1 64.25 51.13)">21</text>
	<text transform="matrix(1 0 0 1 60.50 57.13)">22</text>
	<text transform="matrix(1 0 0 1 71.50 65.63)">23</text>
	<text transform="matrix(1 0 0 1 59.50 66.50)">24</text>
	<text transform="matrix(1 0 0 1 59.66 74.50)">25</text>
	<text transform="matrix(1 0 0 1 59.54 84.50)">26</text>
</g>
</svg>