<svg xmlns="http://www.w3.org/2000/svg" xmlns:kvg="http://kanjivg.tagaini.net" height="109" kun="&#12363;&#12425;.&#12356;" meaning="pungent, spicy, harsh, cruel, severe" on="&#12521;&#12484;" viewBox="0 0 109 109" width="109">
<g id="kvg:StrokePaths_08fa3" style="fill:none;stroke:#000000;stroke-width:3;stroke-linecap:round;stroke-linejoin:round;">
<g id="kvg:08fa3" kvg:element="&#36771;">
	<g id="kvg:08fa3-g1" kvg:element="&#36763;" kvg:position="left" kvg:radical="general" kvg:variant="true">
		<g id="kvg:08fa3-g2" kvg:element="&#31435;" kvg:position="top">
			<g id="kvg:08fa3-g3" kvg:element="&#20128;" kvg:position="top">
				<path d="M27.62,13.75c1.01,1.31,1.51,1.31,1.51,4.35c0,3.05,0,5.65,0,9.65" id="kvg:08fa3-s1" kvg:type="&#12753;a" />
				<path d="M13.1,29.58c0.83,0.27,1.81,0.31,2.64,0.27c4.71-0.23,17.89-2.46,25.01-2.66c1.39-0.04,2.23,0.13,2.92,0.26" id="kvg:08fa3-s2" kvg:type="&#12752;" />
			</g>
			<g id="kvg:08fa3-g4" kvg:position="bottom">
				<path d="M19.45,35.25c2.4,4.66,3.49,9.43,3.71,12.5" id="kvg:08fa3-s3" kvg:type="&#12756;" />
				<path d="M37.26,30.75c0.54,0.54,0.61,1.82,0.54,2.27c-0.43,3.08-4.09,11.87-5.17,14.23" id="kvg:08fa3-s4" kvg:type="&#12754;" />
				<path d="M11,51.8c1.11,0.39,2.42,0.53,3.52,0.39C20.11,51.5,34.3,49,40.86,48.7c1.85-0.09,2.96,0.19,3.89,0.38" id="kvg:08fa3-s5" kvg:type="&#12752;" />
			</g>
		</g>
		<g id="kvg:08fa3-g5" kvg:element="&#21313;" kvg:position="bottom" kvg:variant="true">
			<path d="M12.68,70.75c0.73,0.88,2.06,1.1,2.79,0.88c9.25-2.87,20.64-7.44,27.68-10.11" id="kvg:08fa3-s6" kvg:type="&#12754;" />
			<path d="M27.23,53.13c0.83,0.58,1.83,2.14,1.86,3.31c0.23,9.11,0.68,26.72-16.59,41.8" id="kvg:08fa3-s7" kvg:type="&#12736;" />
		</g>
	</g>
	<g id="kvg:08fa3-g6" kvg:element="&#26463;" kvg:position="right">
		<g id="kvg:08fa3-g7" kvg:element="&#26408;" kvg:part="1">
			<path d="M48.97,26.61c1.06,0.32,3,0.38,4.06,0.32c8.91-0.44,25.19-2.75,34.74-3.05c1.76-0.06,2.83,0.15,3.71,0.32" id="kvg:08fa3-s8" kvg:type="&#12752;" />
		</g>
		<g id="kvg:08fa3-g8" kvg:element="&#21475;">
			<path d="M48.74,39.45c0.3,0.32,0.61,0.59,0.75,0.99c1.05,3.2,2.81,12.01,3.52,17.75" id="kvg:08fa3-s9" kvg:type="&#12753;" />
			<path d="M50.63,41.19c12.12-1.69,31.89-4.03,35.44-4.35c2.21-0.2,3.61,2.07,3.02,3.92c-1.57,4.96-1.95,8.15-3.18,11.95" id="kvg:08fa3-s10" kvg:type="&#12757;b" />
			<path d="M53.16,56.81c8.76-1.21,26.86-2.54,35.05-3.14" id="kvg:08fa3-s11" kvg:type="&#12752;b" />
		</g>
		<g id="kvg:08fa3-g9" kvg:element="&#26408;" kvg:part="2">
			<path d="M65.75,12.25c1.25,0.5,2,2.25,2.25,3.25s0,77.75-0.25,84" id="kvg:08fa3-s12" kvg:type="&#12753;" />
			<path d="M67.42,57.07C62.74,67.11,50.58,81.32,40.86,87" id="kvg:08fa3-s13" kvg:type="&#12754;" />
			<path d="M67.99,57.6c4.12,6.15,17.47,21.9,24.38,26.35c1.61,1.04,2.61,1.84,4.02,2.2" id="kvg:08fa3-s14" kvg:type="&#12751;" />
		</g>
	</g>
</g>
</g>
<g id="kvg:StrokeNumbers_08fa3" style="font-size:8;fill:#808080">
	<text transform="matrix(1 0 0 1 19.75 13.50)">1</text>
	<text transform="matrix(1 0 0 1 5.50 29.50)">2</text>
	<text transform="matrix(1 0 0 1 12.50 39.50)">3</text>
	<text transform="matrix(1 0 0 1 29.75 36.50)">4</text>
	<text transform="matrix(1 0 0 1 3.75 52.50)">5</text>
	<text transform="matrix(1 0 0 1 5.75 71.50)">6</text>
	<text transform="matrix(1 0 0 1 20.50 59.50)">7</text>
	<text transform="matrix(1 0 0 1 47.50 23.50)">8</text>
	<text transform="matrix(1 0 0 1 41.50 45.50)">9</text>
	<text transform="matrix(1 0 0 1 49.50 37.50)">10</text>
	<text transform="matrix(1 0 0 1 54.50 53.50)">11</text>
	<text transform="matrix(1 0 0 1 53.50 11.50)">12</text>
	<text transform="matrix(1 0 0 1 51.50 66.50)">13</text>
	<text transform="matrix(1 0 0 1 74.50 65.50)">14</text>
</g>
</svg>