<svg xmlns="http://www.w3.org/2000/svg" xmlns:kvg="http://kanjivg.tagaini.net" height="109" meaning="sign of the dragon, 7-9AM, fifth sign of Chinese zodiac, shin dragon radical (no. 161)" viewBox="0 0 109 109" width="109">
<g id="kvg:StrokePaths_08fb0" style="fill:none;stroke:#000000;stroke-width:3;stroke-linecap:round;stroke-linejoin:round;">
<g id="kvg:08fb0" kvg:element="&#36784;" kvg:radical="general">
	<g id="kvg:08fb0-g1" kvg:element="&#21378;">
		<path d="M21.38,22.48c3.17,1.13,6.88,0.47,10.14,0.14c10.82-1.1,27.45-3.28,36.62-4.31c3.49-0.39,7.06-0.72,10.5,0.02" id="kvg:08fb0-s1" kvg:type="&#12752;" />
		<path d="M25,23.75c1,1,1.18,2.37,1.18,4.81c0,15.69-2.3,43.19-13.43,59.44" id="kvg:08fb0-s2" kvg:type="&#12754;" />
	</g>
	<path d="M37.5,34.39c2.13,0.86,5.31,0.44,7.52,0.13c5.97-0.82,14.94-2.2,20.74-2.97c2.35-0.31,4.94-0.36,7.24,0.21" id="kvg:08fb0-s3" kvg:type="&#12752;" />
	<path d="M29,48.89c3.38,0.74,7.45,0.52,10.39,0.11c11.61-1.62,30.15-3.76,39.61-4.57c3.14-0.27,6.65-0.68,9.76,0.08" id="kvg:08fb0-s4" kvg:type="&#12752;" />
	<path d="M38.25,52.25c1.12,1.12,1.39,2.5,1.39,5c0,11.82,0.05,29.94,0.05,31.94s1.65,3.14,3.74,1.64s11.45-9.95,14.78-12.59" id="kvg:08fb0-s5" kvg:type="&#12761;" />
	<path d="M75.02,51.64c0.09,0.94-0.14,1.81-0.72,2.58c-1.92,2.53-4.76,4.82-9.99,8.25" id="kvg:08fb0-s6" kvg:type="&#12754;" />
	<path d="M47,55.25c7.58,2.1,25.56,19.66,36.3,27.22c3.07,2.16,6.07,4.41,11.45,6.28" id="kvg:08fb0-s7" kvg:type="&#12751;" />
</g>
</g>
<g id="kvg:StrokeNumbers_08fb0" style="font-size:8;fill:#808080">
	<text transform="matrix(1 0 0 1 24.25 20.25)">1</text>
	<text transform="matrix(1 0 0 1 18.25 32.25)">2</text>
	<text transform="matrix(1 0 0 1 31.25 32.88)">3</text>
	<text transform="matrix(1 0 0 1 30.50 46.38)">4</text>
	<text transform="matrix(1 0 0 1 32.25 60.25)">5</text>
	<text transform="matrix(1 0 0 1 65.25 55.38)">6</text>
	<text transform="matrix(1 0 0 1 46.25 65.25)">7</text>
</g>
</svg>