<svg xmlns="http://www.w3.org/2000/svg" xmlns:kvg="http://kanjivg.tagaini.net" height="109" kun="&#12399;&#12427;&#12363;" meaning="far, distant" on="&#12465;&#12452;, &#12462;&#12519;&#12454;" viewBox="0 0 109 109" width="109">
<g id="kvg:StrokePaths_08fe5" style="fill:none;stroke:#000000;stroke-width:3;stroke-linecap:round;stroke-linejoin:round;">
<g id="kvg:08fe5" kvg:element="&#36837;">
	<g id="kvg:08fe5-g1" kvg:element="&#20866;">
		<path d="M43.67,17.53c0.55,1.21,0.92,1.7,0.73,3.88c-0.18,2.18,0.18,53.35,0.18,56.98" id="kvg:08fe5-s1" kvg:type="&#12753;" />
		<path d="M44.63,19.33c6.31-0.82,36.99-3.58,38.37-3.71c5.78-0.56,5.5,2.09,5.29,5.98c-0.11,2.06,0.17,50.72,0.17,55.46c0,8.31-4.35,4.56-7.7,0.66" id="kvg:08fe5-s2" kvg:type="&#12742;a" />
	</g>
	<g id="kvg:08fe5-g2" kvg:element="&#21475;">
		<path d="M55.1,34.77c0.3,0.47,0.62,0.85,0.75,1.44c1.06,4.62,1.83,17.35,2.56,25.63" id="kvg:08fe5-s3" kvg:type="&#12753;" />
		<path d="M56,36.53c6.5-1.03,13.9-1.52,17.49-2.18c1.31-0.24,2.1,1.44,1.91,2.86c-0.78,5.89-1.69,12.98-2.84,21.13" id="kvg:08fe5-s4" kvg:type="&#12757;b" />
		<path d="M58.56,59.05c4.28-0.19,10.19-0.51,16.07-0.8" id="kvg:08fe5-s5" kvg:type="&#12752;b" />
	</g>
	<g id="kvg:08fe5-g3" kvg:element="&#36790;" kvg:position="nyo" kvg:radical="general">
		<path d="M16.46,14c4.43,1.74,11.44,7.17,12.54,9.88" id="kvg:08fe5-s6" kvg:type="&#12756;" />
		<path d="M13.71,34c4.07,1.44,10.53,5.9,11.54,8.13" id="kvg:08fe5-s7" kvg:type="&#12756;" />
		<path d="M10,55.94c2.25,0.85,3.75,0.43,4.75,0.21c1-0.21,8.5-2.49,10-2.92c1.5-0.43,3.75,1.07,2.75,2.35s-4.5,6.19-5.25,7.26c-0.75,1.07-0.5,2.99,1,4.48s3.25,3.7,4,4.98C28,73.59,28,74.66,26.5,75.73c-1.5,1.07-9.5,6.54-11,6.97" id="kvg:08fe5-s8" kvg:type="&#12747;" />
		<path d="M11.25,84.65c3.02-0.5,8.99-1.4,13.59-0.76c7.91,1.1,30.77,7.27,35.22,8.57C72.13,96,81.44,97.01,90.5,95.24" id="kvg:08fe5-s9" kvg:type="&#12751;" />
	</g>
</g>
</g>
<g id="kvg:StrokeNumbers_08fe5" style="font-size:8;fill:#808080">
	<text transform="matrix(1 0 0 1 36.50 24.50)">1</text>
	<text transform="matrix(1 0 0 1 47.50 15.50)">2</text>
	<text transform="matrix(1 0 0 1 49.25 42.50)">3</text>
	<text transform="matrix(1 0 0 1 57.50 33.50)">4</text>
	<text transform="matrix(1 0 0 1 61.75 55.50)">5</text>
	<text transform="matrix(1 0 0 1 9.25 13.50)">6</text>
	<text transform="matrix(1 0 0 1 6.50 33.50)">7</text>
	<text transform="matrix(1 0 0 1 3.50 56.50)">8</text>
	<text transform="matrix(1 0 0 1 4.50 85.50)">9</text>
</g>
</svg>