<svg xmlns="http://www.w3.org/2000/svg" xmlns:kvg="http://kanjivg.tagaini.net" height="109" kun="&#12354;.&#12358;" meaning="meet, encounter, interview, treat, entertain, receive, deal with" on="&#12464;&#12454;" viewBox="0 0 109 109" width="109">
<g id="kvg:StrokePaths_09047" style="fill:none;stroke:#000000;stroke-width:3;stroke-linecap:round;stroke-linejoin:round;">
<g id="kvg:09047" kvg:element="&#36935;">
	<g id="kvg:09047-g1" kvg:element="&#31162;" kvg:phon="&#31162;">
		<g id="kvg:09047-g2" kvg:element="&#26085;">
			<g id="kvg:09047-g3" kvg:element="&#30000;" kvg:part="1" kvg:variant="true">
				<path d="M45.58,16.32c0.8,0.8,1.35,1.91,1.52,2.9c0.93,4.97,2.16,12.67,3.01,19.14c0.2,1.53,0.38,3,0.53,4.34" id="kvg:09047-s1" kvg:type="&#12753;" />
				<path d="M47.59,17.95c9.69-1.31,23.44-3.35,31.18-4.06c3.8-0.35,6.32-0.26,5.81,4.26c-0.43,3.83-1.66,9.78-3.02,16.11c-0.35,1.64-0.68,2.87-1.22,5.01" id="kvg:09047-s2" kvg:type="&#12757;a" />
				<path d="M50.17,29.09c6.08-0.84,29.55-3.42,32.1-3.42" id="kvg:09047-s3" kvg:type="&#12752;a" />
				<path d="M51.71,40.19c9.67-1.12,18.79-2.32,28.21-3" id="kvg:09047-s4" kvg:type="&#12752;a" />
			</g>
		</g>
		<g id="kvg:09047-g4" kvg:element="&#31160;">
			<path d="M42.55,49.47c1.11,1.11,1.3,2.28,1.47,3.71c1.1,9.06,1.92,15.27,2.8,22.58c0.23,1.91,0.43,3.55,0.58,4.73" id="kvg:09047-s5" kvg:type="&#12753;" />
			<path d="M44.99,52.1c5.43-0.71,33.3-3.42,40.77-4.25c3.92-0.44,6.36,0.28,5.89,4.8c-0.63,6.07-2.97,20.51-4.8,25.44c-2.55,6.87-5.1,1.79-6.78-0.3" id="kvg:09047-s6" kvg:type="&#12742;a" />
			<g id="kvg:09047-g5" kvg:element="&#30000;" kvg:part="2" kvg:variant="true">
				<path d="M64.44,17.82c1,1,1.4,2.43,1.4,3.9c0,8.04-0.02,40.32-0.02,42.8" id="kvg:09047-s7" kvg:type="&#12753;a" />
			</g>
			<path d="M55.09,67.86c1.07,1.06,2.51,0.89,3.46,0.52c2.68-1.06,11.92-4.42,17.52-6.32" id="kvg:09047-s8" kvg:type="&#12736;" />
			<path d="M74.38,56.88c2.09,2.11,5.4,8.69,5.92,11.98" id="kvg:09047-s9" kvg:type="&#12756;" />
		</g>
	</g>
	<g id="kvg:09047-g6" kvg:element="&#11980;" kvg:original="&#36790;" kvg:position="nyo" kvg:radical="tradit">
		<path d="M20.12,18.62c3.93,1.9,10.14,7.81,11.12,10.76" id="kvg:09047-s10" kvg:type="&#12756;" />
		<path d="M13,50.5c2.25,1,3.75,0.5,4.75,0.25s9.01-3.22,10.5-3.75c2.12-0.75,3.96,0.35,2.75,2.75c-7.12,14.12-7.62,9.62,0,19c1.06,1.3,1.25,2.75-0.25,4S21,81,19.5,81.5" id="kvg:09047-s11" kvg:type="&#12747;" />
		<path d="M15.25,83c3-0.5,8.95-1.48,13.5-0.75c6.25,1,30.07,7.71,34.5,9c12,3.5,19.5,4.5,26.5,4.5" id="kvg:09047-s12" kvg:type="&#12751;a" />
	</g>
</g>
</g>
<g id="kvg:StrokeNumbers_09047" style="font-size:8;fill:#808080">
	<text transform="matrix(1 0 0 1 40.50 25.63)">1</text>
	<text transform="matrix(1 0 0 1 48.75 14.50)">2</text>
	<text transform="matrix(1 0 0 1 53.25 26.50)">3</text>
	<text transform="matrix(1 0 0 1 53.25 37.48)">4</text>
	<text transform="matrix(1 0 0 1 35.25 58.40)">5</text>
	<text transform="matrix(1 0 0 1 45.75 49.63)">6</text>
	<text transform="matrix(1 0 0 1 68.50 22.50)">7</text>
	<text transform="matrix(1 0 0 1 53.25 64.63)">8</text>
	<text transform="matrix(1 0 0 1 78.75 58.63)">9</text>
	<text transform="matrix(1 0 0 1 9.50 18.13)">10</text>
	<text transform="matrix(1 0 0 1 3.50 49.63)">11</text>
	<text transform="matrix(1 0 0 1 5.50 83.50)">12</text>
</g>
</svg>