<svg xmlns="http://www.w3.org/2000/svg" xmlns:kvg="http://kanjivg.tagaini.net" height="109" meaning="carry, luck, destiny, fate, lot, transport, progress, advance" viewBox="0 0 109 109" width="109">
<g id="kvg:StrokePaths_0904b" style="fill:none;stroke:#000000;stroke-width:3;stroke-linecap:round;stroke-linejoin:round;">
<g id="kvg:0904b" kvg:element="&#36939;">
	<g id="kvg:0904b-g1" kvg:element="&#36557;" kvg:phon="&#36557;">
		<g id="kvg:0904b-g2" kvg:element="&#20886;">
			<path d="M42.88,15.75c-0.1,3.3-2.52,10.03-3.38,12" id="kvg:0904b-s1" kvg:type="&#12756;" />
			<path d="M43.58,18.04c11.79-1.73,28.79-3.79,41.2-4.54c6.23-0.38,4.22,4-0.93,7.98" id="kvg:0904b-s2" kvg:type="&#12758;b" />
		</g>
		<g id="kvg:0904b-g3" kvg:element="&#36554;">
			<path d="M48.43,28.32c1.57,0.3,3.95,0.14,5.71-0.06c6.53-0.76,13.77-1.78,20.74-2.4c1.77-0.16,3.6-0.19,5.35,0.22" id="kvg:0904b-s3" kvg:type="&#12752;" />
			<path d="M46.08,37.83c0.92,0.92,1.2,2.01,1.29,2.58c0.61,3.57,1.83,10.77,2.87,18.06c0.17,1.16,0.32,2.3,0.46,3.38" id="kvg:0904b-s4" kvg:type="&#12753;" />
			<path d="M48.51,39.06c8.85-1.1,26.09-3.65,30.95-4.1c2.3-0.21,3.8,0.79,3.63,3.43c-0.25,3.83-1.92,11.09-3.23,17.83c-0.22,1.12-0.45,2.21-0.71,3.26" id="kvg:0904b-s5" kvg:type="&#12757;a" />
			<path d="M50.25,49.24c7.38-0.99,21.5-3.24,30.52-3.73" id="kvg:0904b-s6" kvg:type="&#12752;a" />
			<path d="M51.5,59.56c7.02-0.86,18.75-2.19,26.89-2.69" id="kvg:0904b-s7" kvg:type="&#12752;a" />
			<path d="M40.29,70.38c2.96,0.75,5.35,0.67,7.96,0.43c10.72-0.99,24.7-2.28,34.88-2.85c2.7-0.15,5.19-0.09,7.84,0.46" id="kvg:0904b-s8" kvg:type="&#12752;" />
			<path d="M62.61,18.04c0.99,0.99,1.64,2.21,1.64,3.62c0,0.88-0.02,42.01-0.11,58.34c-0.02,2.91-0.03,5.03-0.05,6" id="kvg:0904b-s9" kvg:type="&#12753;" />
		</g>
	</g>
	<g id="kvg:0904b-g4" kvg:element="&#11980;" kvg:original="&#36790;" kvg:position="nyo" kvg:radical="tradit">
		<path d="M18.75,20c3.35,1.61,8.66,6.63,9.5,9.13" id="kvg:0904b-s10" kvg:type="&#12756;" />
		<path d="M13.25,50.5C15.5,51.5,17,51,18,50.75S27.25,47.5,28.75,47c3.25-1.08,3.59,1.06,1.44,4.1C23,61.25,23.25,61,30.72,67.27c2.88,2.42,2.8,3.84,0.53,5.73c-1.5,1.25-9.25,8-10.75,8.5" id="kvg:0904b-s11" kvg:type="&#12747;" />
		<path d="M16.25,83c3-0.5,9-1.75,13.5-0.75s29.32,7.71,33.75,9c12,3.5,21.25,4.5,30.25,2.75" id="kvg:0904b-s12" kvg:type="&#12751;a" />
	</g>
</g>
</g>
<g id="kvg:StrokeNumbers_0904b" style="font-size:8;fill:#808080">
	<text transform="matrix(1 0 0 1 36.75 19.63)">1</text>
	<text transform="matrix(1 0 0 1 48.75 13.63)">2</text>
	<text transform="matrix(1 0 0 1 47.50 25.50)">3</text>
	<text transform="matrix(1 0 0 1 39.75 46.63)">4</text>
	<text transform="matrix(1 0 0 1 50.25 35.50)">5</text>
	<text transform="matrix(1 0 0 1 51.50 46.63)">6</text>
	<text transform="matrix(1 0 0 1 53.50 57.50)">7</text>
	<text transform="matrix(1 0 0 1 39.75 67.63)">8</text>
	<text transform="matrix(1 0 0 1 55.50 24.13)">9</text>
	<text transform="matrix(1 0 0 1 7.50 21.13)">10</text>
	<text transform="matrix(1 0 0 1 4.50 51.19)">11</text>
	<text transform="matrix(1 0 0 1 6.50 84.50)">12</text>
</g>
</svg>