<svg xmlns="http://www.w3.org/2000/svg" xmlns:kvg="http://kanjivg.tagaini.net" height="109" kun="&#12362;&#12363;" meaning="hill" on="&#12461;&#12517;&#12454;" viewBox="0 0 109 109" width="109">
<g id="kvg:StrokePaths_090b1" style="fill:none;stroke:#000000;stroke-width:3;stroke-linecap:round;stroke-linejoin:round;">
<g id="kvg:090b1" kvg:element="&#37041;">
	<g id="kvg:090b1-g1" kvg:element="&#19992;" kvg:position="left">
		<g id="kvg:090b1-g2" kvg:element="&#26020;">
			<path d="M47.24,9c0.07,0.34,0.25,0.97-0.13,1.35c-4.73,4.74-11.72,9.08-24.04,12.9" id="kvg:090b1-s1" kvg:type="&#12754;" />
			<path d="M18.37,22.63c1.38,0.87,1.94,2.67,1.98,5.26C20.5,39.25,20.25,66.5,20.52,77" id="kvg:090b1-s2" kvg:type="&#12753;" />
			<path d="M20.28,39.81c6.32-1.08,22.09-3.13,29.76-4.49c1.14-0.2,3.15-0.17,3.87,0" id="kvg:090b1-s3" kvg:type="&#12752;" />
			<path d="M42.14,36.8c0.43,0.58,0.8,2.57,0.78,3.75c-0.21,11.82-0.14,19.7-0.14,29.45" id="kvg:090b1-s4" kvg:type="&#12753;" />
		</g>
		<g id="kvg:090b1-g3" kvg:element="&#19968;">
			<path d="M11.25,78.58c0.73,1.18,2.08,1.4,2.78,1.18C23,77,46.1,69.63,53.84,67.49" id="kvg:090b1-s5" kvg:type="&#12752;" />
		</g>
	</g>
	<g id="kvg:090b1-g4" kvg:element="&#11983;" kvg:original="&#37009;" kvg:position="right" kvg:radical="general" kvg:variant="true">
		<path d="M64.67,17.56c0.85,0.09,2.36,0.7,3.45,0.49c4.71-0.91,17.92-2.94,20.4-3.85c3.05-1.12,6.11,1.12,4.75,3.73s-10.63,19.99-13,23.72" id="kvg:090b1-s6" kvg:type="&#12743;" />
		<path d="M79.76,42.21C101.25,54.5,92.75,92,80.04,76.35" id="kvg:090b1-s7" kvg:type="&#12757;va" />
		<path d="M66.89,19.05c0.22,1.12,0,74.2-0.22,81.2" id="kvg:090b1-s8" kvg:type="&#12753;" />
	</g>
</g>
</g>
<g id="kvg:StrokeNumbers_090b1" style="font-size:8;fill:#808080">
	<text transform="matrix(1 0 0 1 38.50 8.50)">1</text>
	<text transform="matrix(1 0 0 1 10.50 23.50)">2</text>
	<text transform="matrix(1 0 0 1 24.50 35.50)">3</text>
	<text transform="matrix(1 0 0 1 35.50 47.50)">4</text>
	<text transform="matrix(1 0 0 1 2.50 78.50)">5</text>
	<text transform="matrix(1 0 0 1 67.50 14.50)">6</text>
	<text transform="matrix(1 0 0 1 74.25 47.50)">7</text>
	<text transform="matrix(1 0 0 1 59.25 26.50)">8</text>
</g>
</svg>