<svg xmlns="http://www.w3.org/2000/svg" xmlns:kvg="http://kanjivg.tagaini.net" height="109" kun="&#12388;.&#12427;, &#12388;.&#12426;, &#12388;.&#12426;-" meaning="angling, fish, catch, allure, ensnare" on="&#12481;&#12519;&#12454;" viewBox="0 0 109 109" width="109">
<g id="kvg:StrokePaths_091e3" style="fill:none;stroke:#000000;stroke-width:3;stroke-linecap:round;stroke-linejoin:round;">
<g id="kvg:091e3" kvg:element="&#37347;">
	<g id="kvg:091e3-g1" kvg:element="&#37329;" kvg:position="left" kvg:radical="general">
		<path d="M32.5,14.49c0,0.79,0.05,1.42-0.14,2.37c-1.01,4.94-10.89,21.94-19.13,29.26" id="kvg:091e3-s1" kvg:type="&#12754;" />
		<path d="M34.14,20.21c4.74,2.15,10.8,7.87,13.11,13.29" id="kvg:091e3-s2" kvg:type="&#12756;/&#12751;" />
		<path d="M22,41c1.41,0,2.72,0.07,4.13-0.08c3.99-0.43,10.08-1.72,14.5-2.04c1.12-0.08,2.25-0.13,3.38-0.13" id="kvg:091e3-s3" kvg:type="&#12752;" />
		<path d="M14.34,56.06c2.29,0.44,4.02,0.36,5.7,0.14c6.09-0.77,13.84-1.83,22.25-2.88c0.74-0.09,2.09-0.1,3.49-0.1" id="kvg:091e3-s4" kvg:type="&#12752;" />
		<path d="M31.95,42.94C33,44,33.19,45,33.19,46.58c0,4.35,0.06,28.29,0.06,36.23" id="kvg:091e3-s5" kvg:type="&#12753;a" />
		<path d="M19.14,67.76c2.6,4.01,3.87,8.35,4.4,10.69" id="kvg:091e3-s6" kvg:type="&#12756;" />
		<path d="M45.02,61.42c0.25,0.69,0.29,1.74,0.01,2.27c-1.02,1.92-2.26,4.21-5.11,8.59" id="kvg:091e3-s7" kvg:type="&#12754;" />
		<path d="M15.75,88.5c0.94,0.94,2.28,1.19,3.75,0.5c7.25-3.38,11.75-5.25,24.75-11.25" id="kvg:091e3-s8" kvg:type="&#12736;/&#12752;" />
	</g>
	<g id="kvg:091e3-g2" kvg:element="&#21242;" kvg:phon="&#21242;" kvg:position="right">
		<g id="kvg:091e3-g3" kvg:element="&#21241;">
			<g id="kvg:091e3-g4" kvg:element="&#20031;">
				<path d="M64.27,15.5c0.48,1,0.21,1.98-0.06,3.04c-1.95,7.59-6.33,18.34-12.45,29.06" id="kvg:091e3-s9" kvg:type="&#12754;" />
			</g>
			<path d="M61.69,33.46c1.94,0.41,3.75,0.44,5.04,0.23c4.9-0.8,14.54-2.37,19.29-2.97c4.36-0.56,7.23,0.12,7,5.19C92.38,49.5,88.88,71.38,83.88,87c-3.89,12.16-7.75,6.88-11.03,2.16" id="kvg:091e3-s10" kvg:type="&#12742;" />
		</g>
		<g id="kvg:091e3-g5" kvg:element="&#20022;">
			<path d="M58.79,52.17c4.05,2.83,10.45,11.65,11.46,16.06" id="kvg:091e3-s11" kvg:type="&#12756;" />
		</g>
	</g>
</g>
</g>
<g id="kvg:StrokeNumbers_091e3" style="font-size:8;fill:#808080">
	<text transform="matrix(1 0 0 1 24.75 17.50)">1</text>
	<text transform="matrix(1 0 0 1 40.50 21.50)">2</text>
	<text transform="matrix(1 0 0 1 28.50 37.55)">3</text>
	<text transform="matrix(1 0 0 1 13.50 53.50)">4</text>
	<text transform="matrix(1 0 0 1 25.50 49.50)">5</text>
	<text transform="matrix(1 0 0 1 11.25 67.50)">6</text>
	<text transform="matrix(1 0 0 1 37.50 62.50)">7</text>
	<text transform="matrix(1 0 0 1 7.50 91.50)">8</text>
	<text transform="matrix(1 0 0 1 55.50 15.50)">9</text>
	<text transform="matrix(1 0 0 1 66.50 30.05)">10</text>
	<text transform="matrix(1 0 0 1 51.50 59.50)">11</text>
</g>
</svg>