<svg xmlns="http://www.w3.org/2000/svg" xmlns:kvg="http://kanjivg.tagaini.net" height="109" kun="&#12388;&#12427;&#12366;" meaning="sword, dagger, saber" on="&#12465;&#12531;" viewBox="0 0 109 109" width="109">
<g id="kvg:StrokePaths_091fc" style="fill:none;stroke:#000000;stroke-width:3;stroke-linecap:round;stroke-linejoin:round;">
<g id="kvg:091fc" kvg:element="&#37372;">
	<g id="kvg:091fc-g1" kvg:element="&#37329;" kvg:position="left" kvg:radical="tradit">
		<path d="M30.25,15.49c0,0.71,0.05,1.27-0.14,2.13c-0.97,4.43-10.22,19.21-18.14,25.76" id="kvg:091fc-s1" kvg:type="&#12754;" />
		<path d="M33.14,22.96c4.2,1.62,9.57,5.94,11.61,10.04" id="kvg:091fc-s2" kvg:type="&#12751;" />
		<path d="M19.25,42c1.69,0,2.45,0.09,3,0.06c4.87-0.31,9.36-1.03,15.09-1.25c0.83-0.03,1.01-0.05,2.41-0.05" id="kvg:091fc-s3" kvg:type="&#12752;" />
		<path d="M14.09,56.81c0.59,0.33,2.56,0.43,3.17,0.43c6.74,0.01,18.49-1.49,23.28-2.17c0.74-0.1,2.38-0.13,3.49,0.15" id="kvg:091fc-s4" kvg:type="&#12752;" />
		<path d="M28.95,43.69c1.24,0.78,1.24,2.52,1.24,3.14c0,4.35,0.62,32.63,0.31,36.98" id="kvg:091fc-s5" kvg:type="&#12753;a" />
		<path d="M14.89,68.51c4.08,3.26,6.07,6.79,6.9,8.69" id="kvg:091fc-s6" kvg:type="&#12756;" />
		<path d="M42.29,62.05c0.23,0.71,0.35,1.75,0.26,2.35c-0.23,1.54-2.05,4.36-4.63,8.88" id="kvg:091fc-s7" kvg:type="&#12754;" />
		<path d="M13.5,87.75c1.25,1.25,2.92,1.68,4,1.25c1.25-0.5,8.75-4,24.25-9.75" id="kvg:091fc-s8" kvg:type="&#12752;" />
	</g>
	<g id="kvg:091fc-g2" kvg:element="&#20996;" kvg:position="right">
		<g id="kvg:091fc-g3" kvg:element="&#20992;">
			<path d="M48.16,23.9c1.57,0.83,3.52,0.57,4.91,0.45c9.98-0.85,24.52-1.74,30.72-2.59c4.03-0.55,5.82,1.66,5.6,5.55c-0.59,10.25-8.15,48.44-15.11,60.41c-4.75,8.16-6.31,5.81-9.32,0.26" id="kvg:091fc-s9" kvg:type="&#12742;" />
			<g id="kvg:091fc-g4" kvg:element="&#20034;" kvg:part="1">
				<g id="kvg:091fc-g5" kvg:element="&#20031;">
					<path d="M67.32,27.33c0.08,1.44,0.11,3.72-0.16,5.8C64.56,53.43,57,78.25,40.5,92.11" id="kvg:091fc-s10" kvg:type="&#12754;" />
				</g>
			</g>
		</g>
		<g id="kvg:091fc-g6" kvg:element="&#20034;" kvg:part="2">
			<path d="M49.12,42.25c1.51,0,2.42,0.54,3.11,1.33c8.15,9.2,28.47,34.69,38.2,41.81c2.37,1.74,3.94,3.01,6.06,3.61" id="kvg:091fc-s11" kvg:type="&#12751;" />
		</g>
	</g>
</g>
</g>
<g id="kvg:StrokeNumbers_091fc" style="font-size:8;fill:#808080">
	<text transform="matrix(1 0 0 1 22.50 15.50)">1</text>
	<text transform="matrix(1 0 0 1 36.66 20.50)">2</text>
	<text transform="matrix(1 0 0 1 23.50 39.50)">3</text>
	<text transform="matrix(1 0 0 1 6.50 57.50)">4</text>
	<text transform="matrix(1 0 0 1 22.50 51.85)">5</text>
	<text transform="matrix(1 0 0 1 7.50 69.50)">6</text>
	<text transform="matrix(1 0 0 1 34.50 65.50)">7</text>
	<text transform="matrix(1 0 0 1 5.50 91.50)">8</text>
	<text transform="matrix(1 0 0 1 45.50 20.50)">9</text>
	<text transform="matrix(1 0 0 1 56.50 33.50)">10</text>
	<text transform="matrix(1 0 0 1 44.25 50.88)">11</text>
</g>
</svg>