<svg xmlns="http://www.w3.org/2000/svg" xmlns:kvg="http://kanjivg.tagaini.net" height="109" meaning="hatchet, adze" viewBox="0 0 109 109" width="109">
<g id="kvg:StrokePaths_091ff" style="fill:none;stroke:#000000;stroke-width:3;stroke-linecap:round;stroke-linejoin:round;">
<g id="kvg:091ff" kvg:element="&#37375;">
	<g id="kvg:091ff-g1" kvg:element="&#37329;" kvg:position="left" kvg:radical="general">
		<path d="M32.75,12.24c0,0.93,0.06,1.67-0.17,2.79c-1.16,5.82-12.18,25.23-21.61,33.84" id="kvg:091ff-s1" kvg:type="&#12754;" />
		<path d="M34.14,20.46c4.92,2.11,11.21,7.72,13.61,13.04" id="kvg:091ff-s2" kvg:type="&#12756;/&#12751;" />
		<path d="M21.5,41.5c1.62,0,2.35,0.09,2.88,0.06c4.67-0.31,10.06-1.53,15.56-1.75c0.8-0.03,0.97-0.05,2.31-0.05" id="kvg:091ff-s3" kvg:type="&#12752;" />
		<path d="M14.09,54.81c0.59,0.33,2.56,0.45,3.17,0.43C23,55,34.5,52.75,41.54,52.58c0.75-0.02,2.38-0.13,3.49,0.15" id="kvg:091ff-s4" kvg:type="&#12752;" />
		<path d="M29.45,43.69c1.24,0.78,1.24,2.52,1.24,3.14c0,4.35,0.62,32.63,0.31,36.98" id="kvg:091ff-s5" kvg:type="&#12753;a" />
		<path d="M14.64,65.51c4.22,5.32,6.29,11.08,7.15,14.19" id="kvg:091ff-s6" kvg:type="&#12756;" />
		<path d="M44.12,60.05c0.37,0.93,0.56,2.29,0.41,3.08c-0.37,2.02-3.26,5.71-7.36,11.65" id="kvg:091ff-s7" kvg:type="&#12754;" />
		<path d="M13,90.32c1.3,0.9,2.87,0.67,4.7,0.22C19.05,90.21,29.43,85.38,43,80" id="kvg:091ff-s8" kvg:type="&#12736;/&#12752;" />
	</g>
	<g id="kvg:091ff-g2" kvg:element="&#26020;" kvg:position="right">
		<path d="M86.79,12.5c0.07,0.33,0.29,0.98-0.14,1.34c-5.92,4.91-13.48,8.63-25.95,12.85" id="kvg:091ff-s9" kvg:type="&#12754;" />
		<path d="M57.09,26.33c0.85,1.79,0.83,3.49,0.83,5.44c0,19.23-0.42,43.98-12.12,57.5" id="kvg:091ff-s10" kvg:type="&#12754;" />
		<path d="M58.09,44.38c0.49,0.18,2.4,0.28,3.69,0.1c8.97-1.23,24.73-2.68,32.84-3.24c1.3-0.09,3.56-0.18,4.37,0" id="kvg:091ff-s11" kvg:type="&#12752;" />
		<path d="M79.68,45.48c0.94,0.63,1.5,2.84,1.69,4.1c0.19,1.26,0,41.54-0.19,49.42" id="kvg:091ff-s12" kvg:type="&#12753;" />
	</g>
</g>
</g>
<g id="kvg:StrokeNumbers_091ff" style="font-size:8;fill:#808080">
	<text transform="matrix(1 0 0 1 24.50 12.50)">1</text>
	<text transform="matrix(1 0 0 1 38.50 20.50)">2</text>
	<text transform="matrix(1 0 0 1 27.71 38.50)">3</text>
	<text transform="matrix(1 0 0 1 6.50 57.50)">4</text>
	<text transform="matrix(1 0 0 1 23.50 50.50)">5</text>
	<text transform="matrix(1 0 0 1 7.50 67.50)">6</text>
	<text transform="matrix(1 0 0 1 37.50 62.50)">7</text>
	<text transform="matrix(1 0 0 1 5.50 92.50)">8</text>
	<text transform="matrix(1 0 0 1 77.50 13.50)">9</text>
	<text transform="matrix(1 0 0 1 47.50 40.50)">10</text>
	<text transform="matrix(1 0 0 1 61.50 40.50)">11</text>
	<text transform="matrix(1 0 0 1 70.50 53.50)">12</text>
</g>
</svg>