<svg xmlns="http://www.w3.org/2000/svg" xmlns:kvg="http://kanjivg.tagaini.net" height="109" kun="&#12363;&#12435;&#12374;&#12375;" meaning="ornamental hairpiece" on="&#12487;&#12531;, &#12486;&#12531;" viewBox="0 0 109 109" width="109">
<g id="kvg:StrokePaths_0923f" style="fill:none;stroke:#000000;stroke-width:3;stroke-linecap:round;stroke-linejoin:round;">
<g id="kvg:0923f" kvg:element="&#37439;">
	<g id="kvg:0923f-g1" kvg:element="&#37329;" kvg:position="left" kvg:radical="general">
		<path d="M31.75,15.24c0,0.77,0.05,1.39-0.16,2.32c-1.12,4.83-11.76,20.93-20.87,28.07" id="kvg:0923f-s1" kvg:type="&#12754;" />
		<path d="M32.39,21.46c4.47,2.03,11.18,8.42,13.36,13.54" id="kvg:0923f-s2" kvg:type="&#12756;/&#12751;" />
		<path d="M19,42.5c1.71,0,2.49,0.09,3.05,0.06c4.95-0.31,10.67-1.53,16.5-1.75c0.84-0.03,1.02-0.05,2.45-0.05" id="kvg:0923f-s3" kvg:type="&#12752;" />
		<path d="M13.09,56.81c0.59,0.33,2.56,0.48,3.17,0.43c5.49-0.49,17.74-1.99,25.28-2.67c0.74-0.07,2.38-0.13,3.49,0.15" id="kvg:0923f-s4" kvg:type="&#12752;" />
		<path d="M29.45,45.19c1.24,0.78,1.24,2.52,1.24,3.14c0,4.35,0.62,32.63,0.31,36.98" id="kvg:0923f-s5" kvg:type="&#12753;a" />
		<path d="M14.39,67.51c4.67,4.76,6.95,9.91,7.9,12.69" id="kvg:0923f-s6" kvg:type="&#12756;" />
		<path d="M43.51,62.55c0.45,0.74,0.33,1.88,0.01,2.45c-1.27,2.25-3.53,4.55-8.6,9.28" id="kvg:0923f-s7" kvg:type="&#12754;" />
		<path d="M13.5,92.25c1.25,1,2.75,0.75,4.5,0.25c1.29-0.37,11.25-5.75,24.25-11.75" id="kvg:0923f-s8" kvg:type="&#12736;/&#12752;" />
	</g>
	<g id="kvg:0923f-g2" kvg:element="&#30000;" kvg:position="right">
		<path d="M52,24.73c0.3,1.13,1.23,2.93,1.28,4.33c0.57,14.07,1.28,39.95,1.7,62.69" id="kvg:0923f-s9" kvg:type="&#12753;" />
		<path d="M53.39,26.84c10.37-1.26,28.39-3.53,36.2-4.09c3.41-0.25,4.79,2.16,4.64,5.5C93.66,40.48,92,72,90.78,90.15" id="kvg:0923f-s10" kvg:type="&#12757;a" />
		<path d="M70.45,26.2c0.65,0.61,1.09,2.42,1.08,4.44c-0.05,13.27,0.25,51.53,0.25,56.35" id="kvg:0923f-s11" kvg:type="&#12753;a" />
		<path d="M54.42,55.86c3.4-0.55,35.27-2.86,38.08-2.86" id="kvg:0923f-s12" kvg:type="&#12752;a" />
		<path d="M55.12,88.78c7.5,0,25.17-2,35.53-2.3" id="kvg:0923f-s13" kvg:type="&#12752;a" />
	</g>
</g>
</g>
<g id="kvg:StrokeNumbers_0923f" style="font-size:8;fill:#808080">
	<text transform="matrix(1 0 0 1 23.50 14.50)">1</text>
	<text transform="matrix(1 0 0 1 37.50 22.50)">2</text>
	<text transform="matrix(1 0 0 1 24.50 39.50)">3</text>
	<text transform="matrix(1 0 0 1 6.50 57.50)">4</text>
	<text transform="matrix(1 0 0 1 23.50 52.50)">5</text>
	<text transform="matrix(1 0 0 1 7.50 68.50)">6</text>
	<text transform="matrix(1 0 0 1 35.50 64.50)">7</text>
	<text transform="matrix(1 0 0 1 5.50 91.50)">8</text>
	<text transform="matrix(1 0 0 1 46.50 42.50)">9</text>
	<text transform="matrix(1 0 0 1 53.50 23.50)">10</text>
	<text transform="matrix(1 0 0 1 62.50 34.88)">11</text>
	<text transform="matrix(1 0 0 1 57.50 52.50)">12</text>
	<text transform="matrix(1 0 0 1 58.50 85.50)">13</text>
</g>
</svg>