<svg xmlns="http://www.w3.org/2000/svg" xmlns:kvg="http://kanjivg.tagaini.net" height="109" meaning="measuring unit, 1/16 of a ryou, percent, small, slight" viewBox="0 0 109 109" width="109">
<g id="kvg:StrokePaths_09296" style="fill:none;stroke:#000000;stroke-width:3;stroke-linecap:round;stroke-linejoin:round;">
<g id="kvg:09296" kvg:element="&#37526;">
	<g id="kvg:09296-g1" kvg:element="&#37329;" kvg:position="left" kvg:radical="general">
		<path d="M29.75,12.74c0,0.78,0.05,1.41-0.16,2.35C28.47,20,17.83,36.37,8.72,43.63" id="kvg:09296-s1" kvg:type="&#12754;" />
		<path d="M31.39,19.96c4.47,2.19,10.18,8.02,12.36,13.54" id="kvg:09296-s2" kvg:type="&#12756;/&#12751;" />
		<path d="M16.25,40.5c1.75,0.5,2.99,0.59,3.55,0.56c4.95-0.31,10.17-1.53,16-1.75c0.84-0.03,1.02-0.05,2.45-0.05" id="kvg:09296-s3" kvg:type="&#12752;" />
		<path d="M11.59,55.31c0.59,0.33,2.56,0.48,3.17,0.43c5.49-0.49,15.99-1.74,22.78-2.67c0.74-0.1,2.38-0.13,3.49,0.15" id="kvg:09296-s4" kvg:type="&#12752;" />
		<path d="M26.45,40.69c1.24,0.78,1.24,2.52,1.24,3.14C27.69,48.18,28,80,28,84.81" id="kvg:09296-s5" kvg:type="&#12753;a" />
		<path d="M13.64,67.26c3.93,4.48,5.85,9.32,6.65,11.94" id="kvg:09296-s6" kvg:type="&#12756;" />
		<path d="M40.2,61.55c0.3,0.84,0.46,2.06,0.34,2.76c-0.3,1.81-2.71,5.13-6.12,10.47" id="kvg:09296-s7" kvg:type="&#12754;" />
		<path d="M11,90.75c1.25,1,2.75,0.75,4.5,0.25c1.29-0.37,11.25-5.75,24.25-11.75" id="kvg:09296-s8" kvg:type="&#12736;/&#12752;" />
	</g>
	<g id="kvg:09296-g2" kvg:element="&#26417;" kvg:position="right">
		<path d="M57.99,18.86c0.03,0.52,0.12,1.5-0.06,2.09c-2.2,7.35-5.43,15.55-10.71,23.54" id="kvg:09296-s9" kvg:type="&#12754;" />
		<g id="kvg:09296-g3" kvg:element="&#26410;">
			<path d="M56.99,32c0.67,0.27,2.41,0.3,3.08,0.27c7.01-0.31,19.98-2.2,28.51-3.1c1.12-0.12,1.8,0.13,2.36,0.27" id="kvg:09296-s10" kvg:type="&#12752;" />
			<g id="kvg:09296-g4" kvg:element="&#26408;">
				<path d="M45.89,53.31c0.83,0.3,3.05,0.49,5.26,0.28c9.49-0.89,25.72-1.58,40.95-3.06c2.21-0.21,4.17,0.3,5.55,0.6" id="kvg:09296-s11" kvg:type="&#12752;" />
				<path d="M67.98,11.25c1.14,0.49,1.82,2.2,2.05,3.17s0,77.97-0.23,84.08" id="kvg:09296-s12" kvg:type="&#12753;" />
				<path d="M69.75,52.54c-5.26,11.75-18.86,29.56-29.8,36.21" id="kvg:09296-s13" kvg:type="&#12754;" />
				<path d="M70.35,53.31c3.51,6.41,18.35,24.71,23.58,30.06c1.31,1.34,2.35,2.02,3.62,2.42" id="kvg:09296-s14" kvg:type="&#12751;" />
			</g>
		</g>
	</g>
</g>
</g>
<g id="kvg:StrokeNumbers_09296" style="font-size:8;fill:#808080">
	<text transform="matrix(1 0 0 1 22.50 13.50)">1</text>
	<text transform="matrix(1 0 0 1 34.50 20.50)">2</text>
	<text transform="matrix(1 0 0 1 22.50 37.50)">3</text>
	<text transform="matrix(1 0 0 1 4.50 56.85)">4</text>
	<text transform="matrix(1 0 0 1 20.50 50.50)">5</text>
	<text transform="matrix(1 0 0 1 5.50 66.50)">6</text>
	<text transform="matrix(1 0 0 1 32.50 63.50)">7</text>
	<text transform="matrix(1 0 0 1 3.50 91.50)">8</text>
	<text transform="matrix(1 0 0 1 49.50 19.50)">9</text>
	<text transform="matrix(1 0 0 1 59.50 29.50)">10</text>
	<text transform="matrix(1 0 0 1 48.50 50.50)">11</text>
	<text transform="matrix(1 0 0 1 55.50 10.50)">12</text>
	<text transform="matrix(1 0 0 1 54.50 63.50)">13</text>
	<text transform="matrix(1 0 0 1 76.50 61.50)">14</text>
</g>
</svg>