<svg xmlns="http://www.w3.org/2000/svg" xmlns:kvg="http://kanjivg.tagaini.net" height="109" meaning="plating, gilding" viewBox="0 0 109 109" width="109">
<g id="kvg:StrokePaths_0934d" style="fill:none;stroke:#000000;stroke-width:3;stroke-linecap:round;stroke-linejoin:round;">
<g id="kvg:0934d" kvg:element="&#37709;">
	<g id="kvg:0934d-g1" kvg:element="&#37329;" kvg:position="left" kvg:radical="general">
		<path d="M29.75,17.49c0,0.78,0.05,1.4-0.15,2.33c-1.04,4.87-10.92,21.1-19.38,28.3" id="kvg:0934d-s1" kvg:type="&#12754;" />
		<path d="M31.89,22.71c4.47,1.91,10.18,6.98,12.36,11.79" id="kvg:0934d-s2" kvg:type="&#12756;/&#12751;" />
		<path d="M21,43c1.5,0,2.18,0.09,2.67,0.06C28,42.74,33,41.53,38.1,41.3c0.74-0.03,0.9-0.05,2.15-0.05" id="kvg:0934d-s3" kvg:type="&#12752;" />
		<path d="M14.59,55.81c0.59,0.33,2.56,0.48,3.17,0.43c5.49-0.49,15.74-2.49,22.78-2.67c0.75-0.02,2.38-0.13,3.49,0.15" id="kvg:0934d-s4" kvg:type="&#12752;" />
		<path d="M28.45,43.69c1.24,0.78,1.24,2.52,1.24,3.14c0,4.35,0.62,32.63,0.31,36.98" id="kvg:0934d-s5" kvg:type="&#12753;a" />
		<path d="M14.89,66.26c3.78,5.04,5.63,10.5,6.4,13.44" id="kvg:0934d-s6" kvg:type="&#12756;" />
		<path d="M43.17,60.55c0.33,0.85,0.5,2.09,0.37,2.82c-0.33,1.85-2.93,5.23-6.62,10.66" id="kvg:0934d-s7" kvg:type="&#12754;" />
		<path d="M12.5,89.83c1.5,1.42,3.13,1.09,4.28,0.68c1.34-0.48,11.55-5.01,25.47-10.75" id="kvg:0934d-s8" kvg:type="&#12736;/&#12752;" />
	</g>
	<g id="kvg:0934d-g2" kvg:element="&#24230;" kvg:position="right">
		<g id="kvg:0934d-g3" kvg:element="&#24191;" kvg:position="tare">
			<path d="M71.52,15.13c0.53,0.35,1.64,2.63,1.75,3.34c0.11,0.7,0.05,3.75-0.05,8.14" id="kvg:0934d-s9" kvg:type="&#12753;a" />
			<g id="kvg:0934d-g4" kvg:element="&#21378;">
				<path d="M51.62,28.41c1.05,0.49,2.99,0.57,4.04,0.49c10.98-0.83,23.32-2.93,35.52-3.81c1.75-0.13,2.81,0.24,3.69,0.48" id="kvg:0934d-s10" kvg:type="&#12752;" />
				<path d="M54,29.94c0.25,1.31,0.52,4.74,0.44,6.83C53.81,52.87,56.5,76,40.96,91.59" id="kvg:0934d-s11" kvg:type="&#12754;" />
			</g>
		</g>
		<g id="kvg:0934d-g5" kvg:element="&#24319;">
			<g id="kvg:0934d-g6" kvg:element="&#21313;">
				<path d="M58.24,42.13c1.01,0.4,2.86,0.47,3.87,0.4c5.26-0.36,23.09-3.05,28.59-3.27c1.68-0.07,2.69,0.19,3.53,0.39" id="kvg:0934d-s12" kvg:type="&#12752;" />
				<path d="M66.32,33.63c0.83,0.37,1.33,1.66,1.49,2.4c0.17,0.74,1.2,11.48,1.72,17.42" id="kvg:0934d-s13" kvg:type="&#12753;" />
			</g>
			<path d="M81.52,31.71c0.83,0.37,1.33,1.66,1.49,2.4c0.17,0.74-1.48,9.76-1.98,16.6" id="kvg:0934d-s14" kvg:type="&#12753;a" />
			<path d="M69.53,52.17c3.22-0.42,8.22-1.17,13.22-1.49" id="kvg:0934d-s15" kvg:type="&#12752;b" />
		</g>
		<g id="kvg:0934d-g7" kvg:element="&#21448;">
			<path d="M63.25,61.91c1.2,0.23,1.35,0.58,3.75,0.23c2.4-0.35,16.89-2.29,18.54-2.64c1.65-0.35,2.98,1.35,2.25,2.56C79,76.75,65.15,87.42,51.79,92.5" id="kvg:0934d-s16" kvg:type="&#12743;" />
			<path d="M62.19,66.23c3.35,0.62,19.72,17.21,31.39,24.01c1.82,1.06,3.14,1.76,4.83,2.12" id="kvg:0934d-s17" kvg:type="&#12751;" />
		</g>
	</g>
</g>
</g>
<g id="kvg:StrokeNumbers_0934d" style="font-size:8;fill:#808080">
	<text transform="matrix(1 0 0 1 21.50 18.50)">1</text>
	<text transform="matrix(1 0 0 1 36.50 22.50)">2</text>
	<text transform="matrix(1 0 0 1 25.25 39.48)">3</text>
	<text transform="matrix(1 0 0 1 7.50 57.50)">4</text>
	<text transform="matrix(1 0 0 1 22.50 51.50)">5</text>
	<text transform="matrix(1 0 0 1 7.50 67.50)">6</text>
	<text transform="matrix(1 0 0 1 35.75 63.50)">7</text>
	<text transform="matrix(1 0 0 1 4.50 91.50)">8</text>
	<text transform="matrix(1 0 0 1 63.50 14.50)">9</text>
	<text transform="matrix(1 0 0 1 51.50 25.50)">10</text>
	<text transform="matrix(1 0 0 1 45.50 40.88)">11</text>
	<text transform="matrix(1 0 0 1 56.50 39.50)">12</text>
	<text transform="matrix(1 0 0 1 70.50 35.50)">13</text>
	<text transform="matrix(1 0 0 1 85.50 33.50)">14</text>
	<text transform="matrix(1 0 0 1 71.25 48.50)">15</text>
	<text transform="matrix(1 0 0 1 59.50 58.50)">16</text>
	<text transform="matrix(1 0 0 1 56.50 73.50)">17</text>
</g>
</svg>