<svg xmlns="http://www.w3.org/2000/svg" xmlns:kvg="http://kanjivg.tagaini.net" height="109" kun="&#12362;&#12418;&#12397;.&#12427;, &#12367;&#12414;" meaning="Africa, flatter, fawn upon, corner, nook, recess" on="&#12450;, &#12458;" viewBox="0 0 109 109" width="109">
<g id="kvg:StrokePaths_0963f" style="fill:none;stroke:#000000;stroke-width:3;stroke-linecap:round;stroke-linejoin:round;">
<g id="kvg:0963f" kvg:element="&#38463;">
	<g id="kvg:0963f-g1" kvg:element="&#11990;" kvg:original="&#38428;" kvg:position="left" kvg:radical="general" kvg:variant="true">
		<path d="M16.92,20.42c1.58,0.83,3.41,0.54,4.96,0.18c4.25-0.97,8.82-2.69,11.04-3.43c3-1,4.7,0.6,3.67,3.08C35.12,23.75,31.5,33,29,38" id="kvg:0963f-s1" kvg:type="&#12743;" />
		<path d="M29,38.5c10.11,7.7,9.62,29.62,1.01,25.29" id="kvg:0963f-s2" kvg:type="&#12757;va" />
		<path d="M18.87,21.5c1.06,1.06,1.21,2.25,1.21,3.75c0,3.66,0.02,44.29,0.03,61.38c0,2.75,0,4.88,0,6.12" id="kvg:0963f-s3" kvg:type="&#12753;" />
	</g>
	<g id="kvg:0963f-g2" kvg:element="&#21487;" kvg:phon="&#21487;" kvg:position="right">
		<g id="kvg:0963f-g3" kvg:element="&#19969;" kvg:part="1">
			<g id="kvg:0963f-g4" kvg:element="&#19968;">
				<path d="M42.5,22.73c3.75,0.65,6.73,0.43,9.77-0.01c8.9-1.28,22.52-3.61,32.72-4.96c3.2-0.42,5.86-0.37,9.02,0.31" id="kvg:0963f-s4" kvg:type="&#12752;" />
			</g>
		</g>
		<g id="kvg:0963f-g5" kvg:element="&#21475;">
			<path d="M46.37,39.76c0.85,0.61,1.34,1.44,1.46,2.47c0.91,3.41,1.48,9.45,2.35,14.74c0.25,1.51,0.48,2.97,0.68,4.28" id="kvg:0963f-s5" kvg:type="&#12753;" />
			<path d="M48.75,41.49c7.23-1.6,11.66-2.6,15.88-3.21c3.32-0.47,5.46-0.07,4.59,3.74c-0.96,4.17-2.08,9.58-3.44,14.66" id="kvg:0963f-s6" kvg:type="&#12757;b" />
			<path d="M51.57,59.53c4.7-0.44,7.64-1.14,12.92-1.84c1.24-0.16,2.59-0.33,4.1-0.48" id="kvg:0963f-s7" kvg:type="&#12752;b" />
		</g>
		<g id="kvg:0963f-g6" kvg:element="&#19969;" kvg:part="2">
			<g id="kvg:0963f-g7" kvg:element="&#20101;">
				<path d="M83.08,21.08c1.17,1.17,1.51,2.92,1.51,4.77c0,14.56-0.01,56.94-0.01,61.9c0,10.38-5.96,2-7.46,0.75" id="kvg:0963f-s8" kvg:type="&#12762;" />
			</g>
		</g>
	</g>
</g>
</g>
<g id="kvg:StrokeNumbers_0963f" style="font-size:8;fill:#808080">
	<text transform="matrix(1 0 0 1 23.00 17.25)">1</text>
	<text transform="matrix(1 0 0 1 25.25 47.25)">2</text>
	<text transform="matrix(1 0 0 1 12.25 26.23)">3</text>
	<text transform="matrix(1 0 0 1 42.25 20.25)">4</text>
	<text transform="matrix(1 0 0 1 42.00 48.08)">5</text>
	<text transform="matrix(1 0 0 1 49.00 38.25)">6</text>
	<text transform="matrix(1 0 0 1 54.25 55.93)">7</text>
	<text transform="matrix(1 0 0 1 76.00 30.25)">8</text>
</g>
</svg>