<svg xmlns="http://www.w3.org/2000/svg" xmlns:kvg="http://kanjivg.tagaini.net" height="109" kun="&#12379;&#12414;.&#12356;" meaning="narrow" on="&#12461;&#12519;&#12454;, &#12467;&#12454;" viewBox="0 0 109 109" width="109">
<g id="kvg:StrokePaths_0965c" style="fill:none;stroke:#000000;stroke-width:3;stroke-linecap:round;stroke-linejoin:round;">
<g id="kvg:0965c" kvg:element="&#38492;">
	<g id="kvg:0965c-g1" kvg:element="&#11990;" kvg:original="&#38428;" kvg:position="left" kvg:radical="general" kvg:variant="true">
		<path d="M14.37,16.66c0.74,0.44,1.84,0.56,3.13,0.64c3.5,0.21,12-1.79,15.14-2.08c3.25-0.31,4.62,1.15,3.26,3.83c-1.36,2.68-8.13,15.21-10.51,19.05" id="kvg:0965c-s1" kvg:type="&#12743;" />
		<path d="M25.38,38.09c13.59,9.16,10.87,42.91,0.7,31.87" id="kvg:0965c-s2" kvg:type="&#12757;va" />
		<path d="M15.54,18.03c0.46,0.72,0.28,2.59,0.5,3.74c0.22,1.15,0,68.3-0.22,75.49" id="kvg:0965c-s3" kvg:type="&#12753;" />
	</g>
	<g id="kvg:0965c-g2" kvg:element="&#22846;" kvg:position="right">
		<g id="kvg:0965c-g3" kvg:element="&#22823;" kvg:part="1">
			<path d="M40.75,30.65c1.42,0.44,4.04,0.56,5.46,0.44c9.08-0.76,34.76-4.02,43.55-3.52c2.37,0.14,3.8,0.21,4.99,0.43" id="kvg:0965c-s4" kvg:type="&#12752;" />
		</g>
		<g id="kvg:0965c-g4" kvg:element="&#20174;">
			<g id="kvg:0965c-g5" kvg:element="&#20154;" kvg:position="left">
				<path d="M51.01,40.74c0,0.59,0.05,1.09-0.08,1.78c-1.16,6.45-4.62,14.48-9.71,21.6" id="kvg:0965c-s5" kvg:type="&#12754;" />
				<path d="M48.89,53.71c2.48,1.74,5.65,6.39,6.86,10.79" id="kvg:0965c-s6" kvg:type="&#12751;" />
			</g>
			<g id="kvg:0965c-g6" kvg:element="&#20154;" kvg:position="right">
				<path d="M84.27,37.24c0,0.63,0.08,1.17-0.08,1.88c-1.34,6.14-5.17,17.06-9.72,23.26" id="kvg:0965c-s7" kvg:type="&#12754;" />
				<path d="M81.14,51.71c4.91,3.39,8.68,7.64,11.61,12.79" id="kvg:0965c-s8" kvg:type="&#12751;" />
			</g>
		</g>
		<g id="kvg:0965c-g7" kvg:element="&#22823;" kvg:part="2">
			<path d="M64.25,11.25c0.48,1.17,1.18,2.52,1.25,5.04C66.75,62.75,62,80.75,34.75,97" id="kvg:0965c-s9" kvg:type="&#12754;" />
			<path d="M64.25,54c5.58,12.03,17.85,33.38,25.41,40.29c2.12,1.94,2.68,2.5,3.59,2.71" id="kvg:0965c-s10" kvg:type="&#12751;" />
		</g>
	</g>
</g>
</g>
<g id="kvg:StrokeNumbers_0965c" style="font-size:8;fill:#808080">
	<text transform="matrix(1 0 0 1 17.50 14.50)">1</text>
	<text transform="matrix(1 0 0 1 22.50 47.50)">2</text>
	<text transform="matrix(1 0 0 1 8.44 23.50)">3</text>
	<text transform="matrix(1 0 0 1 40.50 27.50)">4</text>
	<text transform="matrix(1 0 0 1 42.50 41.50)">5</text>
	<text transform="matrix(1 0 0 1 53.50 56.50)">6</text>
	<text transform="matrix(1 0 0 1 75.50 38.50)">7</text>
	<text transform="matrix(1 0 0 1 87.50 53.50)">8</text>
	<text transform="matrix(1 0 0 1 54.19 12.50)">9</text>
	<text transform="matrix(1 0 0 1 75.50 71.21)">10</text>
</g>
</svg>