<svg xmlns="http://www.w3.org/2000/svg" xmlns:kvg="http://kanjivg.tagaini.net" height="109" meaning="precipitous, inaccessible place, impregnable position, steep place, sharp eyes" viewBox="0 0 109 109" width="109">
<g id="kvg:StrokePaths_0967a" style="fill:none;stroke:#000000;stroke-width:3;stroke-linecap:round;stroke-linejoin:round;">
<g id="kvg:0967a" kvg:element="&#38522;">
	<g id="kvg:0967a-g1" kvg:element="&#11990;" kvg:original="&#38428;" kvg:position="left" kvg:radical="general" kvg:variant="true">
		<path d="M13.25,19.75c0.88,0.38,2.1,0.6,3.14,0.36c5.86-1.36,11.75-2.93,14.27-3.71c3-0.93,4.6,1.35,3.42,3.6c-1.71,3.25-5.71,10.87-8.58,15.58" id="kvg:0967a-s1" kvg:type="&#12743;" />
		<path d="M25.5,35.58c14.25,7.17,11.88,32.3,0.67,26" id="kvg:0967a-s2" kvg:type="&#12757;va" />
		<path d="M15.37,20.37c0.69,0.69,0.96,1.75,0.96,2.53c0,0.81,0.02,47.42,0.03,66.35c0,3.31,0,5.77,0,7" id="kvg:0967a-s3" kvg:type="&#12753;" />
	</g>
	<g id="kvg:0967a-g2" kvg:element="&#20681;" kvg:partial="true" kvg:phon="&#20681;V" kvg:position="right">
		<g id="kvg:0967a-g3" kvg:element="&#20154;" kvg:position="top">
			<path d="M62.87,10.75c0.07,0.78,0.08,1.83-0.38,2.88C59.75,19.82,53.25,33,40.96,44.6" id="kvg:0967a-s4" kvg:type="&#12754;" />
			<path d="M61.78,16.3c4.85,3.58,18.01,15.32,24.71,21.22c2.15,1.89,4.21,3.55,6.81,4.79" id="kvg:0967a-s5" kvg:type="&#12751;" />
		</g>
		<g id="kvg:0967a-g4" kvg:position="bottom">
			<g id="kvg:0967a-g5" kvg:element="&#19968;">
				<path d="M49.28,43.59c1.35,0.66,3.37,0.35,4.61,0.2c4.47-0.55,13.33-2.2,20-2.91c1.27-0.13,3.49-0.51,4.63-0.14" id="kvg:0967a-s6" kvg:type="&#12752;" />
			</g>
			<g id="kvg:0967a-g6" kvg:element="&#21475;">
				<path d="M43.68,55.68c0.76,0.76,1.2,1.82,1.33,2.52c1.04,5.58,1.53,8.41,2.27,13.06c0.19,1.17,0.39,2.45,0.61,3.92" id="kvg:0967a-s7" kvg:type="&#12753;" />
				<path d="M45.66,57.06c9.99-1.28,26.51-3.15,33.22-3.78c3-0.28,4.75,1.34,4.12,3.67c-1.07,3.95-2.57,7.69-3.97,12.08" id="kvg:0967a-s8" kvg:type="&#12757;b" />
				<path d="M48.83,72.51c5.45-0.44,19.11-1.78,28.43-2.59c1.82-0.16,3.45-0.29,4.79-0.38" id="kvg:0967a-s9" kvg:type="&#12752;b" />
			</g>
			<g id="kvg:0967a-g7" kvg:element="&#20154;">
				<path d="M61.79,45.07c0.95,0.94,1.36,2.54,1.36,4.4c0,24.76-4.27,38.28-25.15,49.28" id="kvg:0967a-s10" kvg:type="&#12754;" />
				<path d="M62.5,72.53c4.62,4.1,17.21,16.16,22.97,20.88c1.67,1.37,3.43,2.99,5.53,3.65" id="kvg:0967a-s11" kvg:type="&#12751;" />
			</g>
		</g>
	</g>
</g>
</g>
<g id="kvg:StrokeNumbers_0967a" style="font-size:8;fill:#808080">
	<text transform="matrix(1 0 0 1 16.50 16.50)">1</text>
	<text transform="matrix(1 0 0 1 23.25 45.13)">2</text>
	<text transform="matrix(1 0 0 1 8.50 27.50)">3</text>
	<text transform="matrix(1 0 0 1 54.50 14.50)">4</text>
	<text transform="matrix(1 0 0 1 71.50 21.50)">5</text>
	<text transform="matrix(1 0 0 1 54.50 40.50)">6</text>
	<text transform="matrix(1 0 0 1 38.50 66.13)">7</text>
	<text transform="matrix(1 0 0 1 45.75 53.50)">8</text>
	<text transform="matrix(1 0 0 1 51.49 69.50)">9</text>
	<text transform="matrix(1 0 0 1 52.50 51.50)">10</text>
	<text transform="matrix(1 0 0 1 75.50 81.13)">11</text>
</g>
</svg>