<svg xmlns="http://www.w3.org/2000/svg" xmlns:kvg="http://kanjivg.tagaini.net" height="109" kun="&#12365;&#12431;, -&#12366;&#12431;" meaning="occasion, side, edge, verge, dangerous, adventurous, indecent, time, when" on="&#12469;&#12452;" viewBox="0 0 109 109" width="109">
<g id="kvg:StrokePaths_0969b" style="fill:none;stroke:#000000;stroke-width:3;stroke-linecap:round;stroke-linejoin:round;">
<g id="kvg:0969b" kvg:element="&#38555;">
	<g id="kvg:0969b-g1" kvg:element="&#11990;" kvg:original="&#38428;" kvg:position="left" kvg:radical="general" kvg:variant="true">
		<path d="M 13.17,17.17 c 1.08,0.33 2.39,0.38 3.6,0.19 5.26,-0.81 10.21,-2.13 12.65,-2.94 3,-1 4.53,1.14 3.42,3.58 -1.58,3.5 -6.5,13.17 -8.83,16.5" id="kvg:0969b-s1" kvg:type="&#12743;" />
		<path d="M 24,34.5 c 11.75,10.5 9,32.75 -1.83,24" id="kvg:0969b-s2" kvg:type="&#12757;va" />
		<path d="M 14.12,17.75 c 0.75,0.75 1.21,1.75 1.21,3 0,0.87 -0.12,48.62 -0.12,67.25 0,3.26 -0.06,5.57 -0.1,6.5" id="kvg:0969b-s3" kvg:type="&#12753;" />
	</g>
	<g id="kvg:0969b-g2" kvg:element="&#31085;" kvg:phon="&#31085;" kvg:position="right">
		<g id="kvg:0969b-g3" kvg:position="top">
			<g id="kvg:0969b-g4" kvg:element="&#26376;">
				<path d="M 46.15,13.25 c 0.47,1.25 0.21,2.75 -0.36,4 -2.52,5.5 -7.79,12.12 -10.54,15" id="kvg:0969b-s4" kvg:type="&#12754;" />
				<path d="M 49.26,16.1 c 2.75,-0.35 8.05,-1.71 10.04,-2.1 2.52,-0.5 3.71,1.09 2.97,3.5 -3.52,11.38 -13.02,25.25 -24.05,32.75" id="kvg:0969b-s5" kvg:type="&#12743;a" />
				<path d="M 46.38,23.88 c 1,0.43 4.99,3.03 6.99,5.62" id="kvg:0969b-s6" kvg:type="&#12756;/&#12752;" />
				<path d="M 39.25,32.12 c 1.46,0.95 5.85,4.99 7.07,7.12" id="kvg:0969b-s7" kvg:type="&#12756;/&#12752;" />
			</g>
			<path d="M 70.59,17 c 1.41,0.38 2.79,0.27 4.02,0 2.88,-0.62 8.000654,-1.102904 11.130654,-1.722904 3.05,-0.61 5.21,1.05 3.75,3.75 -3.25,6 -9.102249,13.490798 -14.86773,18.35225" id="kvg:0969b-s8" kvg:type="&#12743;" />
			<path d="M 64.25,25.5 c 2.92,-0.26 20.17,17.28 21.93,18.83 1.75,1.55 5.07,3.92 8.07,5.42" id="kvg:0969b-s9" kvg:type="&#12751;" />
		</g>
		<g id="kvg:0969b-g5" kvg:element="&#31034;" kvg:position="bottom">
			<path d="M 50.26,49.623701 c 1.16,0.44 2.94,0.5 4.12,0.47 5.11,-0.1 11.84,-1.18 16.38,-1.47 1.35,-0.09 2.65,-0.17 3.97,0.13" id="kvg:0969b-s10" kvg:type="&#12752;" />
			<path d="M 39.71,63.453701 c 3.16,0.51 5.45,0.07 7.79,-0.13 8.63,-0.75 21.85,-2.13 30.07,-2.63 2.37,-0.14 4.93,-0.23 7.41,0.23" id="kvg:0969b-s11" kvg:type="&#12752;" />
			<path d="M 62.16,64.453701 c 0.74,0.74 1.09,2.14 1.09,3.73 0,12.49 0.08,18.301779 0.08,22.551779 0,9.15 -6.05,1.04 -7.05,-0.04" id="kvg:0969b-s12" kvg:type="&#12753;" />
			<path d="M 45,72.833701 c 0.04,0.42 0.08,1.09 -0.07,1.69 -0.89,3.56 -8.211616,11.300164 -15.191616,16.090164" id="kvg:0969b-s13" kvg:type="&#12754;" />
			<path d="M 77.38,72.963701 c 5.25,3.5 12.114519,11.014683 14.634519,16.444683" id="kvg:0969b-s14" kvg:type="&#12756;" />
		</g>
	</g>
</g>
</g>
<g id="kvg:StrokeNumbers_0969b" style="font-size:8;fill:#808080">
	<text transform="matrix(1 0 0 1 15.50 14.50)">1</text>
	<text transform="matrix(1 0 0 1 20.50 42.50)">2</text>
	<text transform="matrix(1 0 0 1 7.50 25.50)">3</text>
	<text transform="matrix(1 0 0 1 38.25 14.98)">4</text>
	<text transform="matrix(1 0 0 1 49.50 12.50)">5</text>
	<text transform="matrix(1 0 0 1 50.25 25.33)">6</text>
	<text transform="matrix(1 0 0 1 42.58 33.69)">7</text>
	<text transform="matrix(1 0 0 1 70.50 14.50)">8</text>
	<text transform="matrix(1 0 0 1 69.02 26.04)">9</text>
	<text transform="matrix(1 0 0 1 51.50 46.71)">10</text>
	<text transform="matrix(1 0 0 1 38.70 60.71)">11</text>
	<text transform="matrix(1 0 0 1 50.83 71.60)">12</text>
	<text transform="matrix(1 0 0 1 33.50 75.71)">13</text>
	<text transform="matrix(1 0 0 1 66.94 71.43)">14</text>
</g>
</svg>