<svg xmlns="http://www.w3.org/2000/svg" xmlns:kvg="http://kanjivg.tagaini.net" height="109" kun="&#12431;&#12425;&#12376;, &#12367;&#12388;" meaning="straw sandals" on="&#12450;&#12452;, &#12459;&#12452;" viewBox="0 0 109 109" width="109">
<g id="kvg:StrokePaths_0978b" style="fill:none;stroke:#000000;stroke-width:3;stroke-linecap:round;stroke-linejoin:round;">
<g id="kvg:0978b" kvg:element="&#38795;">
	<g id="kvg:0978b-g1" kvg:element="&#38761;" kvg:position="left" kvg:radical="general">
		<g id="kvg:0978b-g2" kvg:element="&#24319;" kvg:position="top">
			<g id="kvg:0978b-g3" kvg:element="&#21313;">
				<path d="M9.65,25.22c0.9,0.51,3.04,0.54,3.95,0.51C21,25.5,39.75,23,48.3,21.36c1.47-0.28,1.9-0.26,2.65,0" id="kvg:0978b-s1" kvg:type="&#12752;" />
				<path d="M20.6,14.93c0.57,0.36,0.91,1.62,1.02,2.34c0.11,0.72,1.5,14.13,2.11,22.28" id="kvg:0978b-s2" kvg:type="&#12753;" />
			</g>
			<path d="M38.67,12.5c0.57,0.36,1.1,1.61,1.02,2.34c-0.41,3.89,0,8.79-1.6,20.44" id="kvg:0978b-s3" kvg:type="&#12753;a" />
			<path d="M24.15,37.62c2.16,0,14.41-1.87,16.36-2.03" id="kvg:0978b-s4" kvg:type="&#12752;b" />
		</g>
		<g id="kvg:0978b-g4" kvg:position="bottom">
			<path d="M15.05,48.56c0.25,0.43,0.51,0.78,0.62,1.31c0.88,4.22,1.89,9.09,3.36,17.04" id="kvg:0978b-s5" kvg:type="&#12753;" />
			<path d="M16.13,49.7c8.87-0.95,25.92-3.22,29.48-3.85c1.3-0.23,2.41,1.37,2.18,2.69c-0.47,2.72-1.73,6.34-2.75,11.08" id="kvg:0978b-s6" kvg:type="&#12757;" />
			<path d="M19.65,63.97c4.19-0.7,21.38-2.95,26.69-3.66" id="kvg:0978b-s7" kvg:type="&#12752;" />
			<path d="M10.78,75.78c1.03,0.58,2.9,0.62,3.94,0.58c8.08-0.34,23.01-2.5,32-3.42c1.7-0.17,2.74-0.28,3.59,0.01" id="kvg:0978b-s8" kvg:type="&#12752;" />
			<path d="M30.42,39.36c0.66,0.48,1.05,2.16,1.19,3.12c0.13,0.96,0,49.53-0.13,55.52" id="kvg:0978b-s9" kvg:type="&#12753;" />
		</g>
	</g>
	<g id="kvg:0978b-g5" kvg:element="&#22317;" kvg:position="right">
		<g id="kvg:0978b-g6" kvg:element="&#22303;" kvg:position="top">
			<path d="M54.55,31.74c0.95,0.48,2.7,0.55,3.66,0.48c9-0.61,18.15-2.87,30.5-3.3c1.59-0.06,2.55,0.23,3.34,0.47" id="kvg:0978b-s10" kvg:type="&#12752;" />
			<path d="M70.95,13.37c0.13,0.32,1.91,1.65,1.91,3.66c0,12.97,0.15,12.71,0.15,29.86" id="kvg:0978b-s11" kvg:type="&#12753;a" />
			<path d="M54.2,48.15c1.44,0.51,3.08,0.58,4.53,0.51C67.25,48.25,82,46,91.45,45.63c2.4-0.09,3.33,0.24,4.55,0.5" id="kvg:0978b-s12" kvg:type="&#12752;" />
		</g>
		<g id="kvg:0978b-g7" kvg:element="&#22303;" kvg:position="bottom">
			<path d="M55.32,71.46c0.98,0.38,2.76,0.49,3.74,0.38C69,70.75,79,69.5,90.09,68.69c1.62-0.12,2.6,0.18,3.41,0.37" id="kvg:0978b-s13" kvg:type="&#12752;" />
			<path d="M72.1,54.32c0.12,0.28,1.68,1.45,1.68,3.22c0,11.39,0.13,17.64,0.13,32.7" id="kvg:0978b-s14" kvg:type="&#12753;a" />
			<path d="M50.3,93.01c1.44,0.51,3.09,0.64,4.53,0.51c11.92-1.02,24.36-2.86,40.33-3.54c2.4-0.1,3.34,0.25,4.55,0.5" id="kvg:0978b-s15" kvg:type="&#12752;" />
		</g>
	</g>
</g>
</g>
<g id="kvg:StrokeNumbers_0978b" style="font-size:8;fill:#808080">
	<text transform="matrix(1 0 0 1 3.50 25.50)">1</text>
	<text transform="matrix(1 0 0 1 11.50 14.50)">2</text>
	<text transform="matrix(1 0 0 1 30.50 10.50)">3</text>
	<text transform="matrix(1 0 0 1 26.50 34.50)">4</text>
	<text transform="matrix(1 0 0 1 7.50 54.50)">5</text>
	<text transform="matrix(1 0 0 1 17.50 46.50)">6</text>
	<text transform="matrix(1 0 0 1 22.25 60.18)">7</text>
	<text transform="matrix(1 0 0 1 3.50 76.50)">8</text>
	<text transform="matrix(1 0 0 1 34.50 44.03)">9</text>
	<text transform="matrix(1 0 0 1 52.50 28.50)">10</text>
	<text transform="matrix(1 0 0 1 58.50 12.50)">11</text>
	<text transform="matrix(1 0 0 1 51.50 45.50)">12</text>
	<text transform="matrix(1 0 0 1 52.50 68.50)">13</text>
	<text transform="matrix(1 0 0 1 58.50 57.50)">14</text>
	<text transform="matrix(1 0 0 1 46.50 89.50)">15</text>
</g>
</svg>