<svg xmlns="http://www.w3.org/2000/svg" xmlns:kvg="http://kanjivg.tagaini.net" height="109" kun="&#12356;&#12383;&#12384;.&#12367;, &#12356;&#12383;&#12384;&#12365;" meaning="place on the head, receive, top of head, top, summit, peak" on="&#12481;&#12519;&#12454;" viewBox="0 0 109 109" width="109">
<g id="kvg:StrokePaths_09802" style="fill:none;stroke:#000000;stroke-width:3;stroke-linecap:round;stroke-linejoin:round;">
<g id="kvg:09802" kvg:element="&#38914;">
	<g id="kvg:09802-g1" kvg:element="&#19969;" kvg:phon="&#19969;" kvg:position="left">
		<g id="kvg:09802-g2" kvg:element="&#19968;">
			<path d="M10.2,28.38c1.94,0.76,5.27,0.49,7.31,0.27c7.08-0.74,16.92-1.78,23.25-2.5c2.07-0.24,4.62-0.52,6.55-0.25" id="kvg:09802-s1" kvg:type="&#12752;" />
		</g>
		<g id="kvg:09802-g3" kvg:element="&#20101;">
			<path d="M30.55,30.06c0.88,0.88,1.38,2.44,1.38,4.52c0,13.24,0.02,48.34,0.02,52.85c0,10.21-6.64,0.46-7.99-0.67" id="kvg:09802-s2" kvg:type="&#12762;" />
		</g>
	</g>
	<g id="kvg:09802-g4" kvg:element="&#38913;" kvg:position="right" kvg:radical="general">
		<path d="M49.98,19.08c2.77,0.54,5.05,0.52,7.14,0.24c9.49-1.25,22.9-2.61,31.63-3.3c2.04-0.16,4.78-0.38,6.78,0.21" id="kvg:09802-s3" kvg:type="&#12752;" />
		<path d="M69.99,20.81c0.07,0.74,0.04,1.48-0.32,2.13c-1.42,2.56-3.34,5.6-7.11,9.33" id="kvg:09802-s4" kvg:type="&#12754;" />
		<g id="kvg:09802-g5" kvg:element="&#35997;">
			<g id="kvg:09802-g6" kvg:element="&#30446;" kvg:position="top">
				<path d="M54.14,33.71c0.89,0.89,1.29,2.32,1.29,3.7c0,0.96-0.05,23.17-0.06,36.21c0,1.83,0,3.49,0,4.88" id="kvg:09802-s5" kvg:type="&#12753;" />
				<path d="M56.06,35.09c2.98-0.17,27.19-3.06,29.9-3.26c2.26-0.17,3.85,1.04,3.85,3.21c0,2.83-0.1,21.67-0.12,36.96c0,1.84,0,3.61,0,5.25" id="kvg:09802-s6" kvg:type="&#12757;a" />
				<path d="M56.26,48.05c6.36-0.8,26.18-2.9,32.55-3.27" id="kvg:09802-s7" kvg:type="&#12752;a" />
				<path d="M56.51,61.07c8.49-0.82,23.8-2.3,31.94-2.79" id="kvg:09802-s8" kvg:type="&#12752;a" />
				<path d="M56.53,75.1c8.72-1.1,23.52-1.97,32.19-2.49" id="kvg:09802-s9" kvg:type="&#12752;a" />
			</g>
			<g id="kvg:09802-g7" kvg:position="bottom">
				<path d="M63.64,80.24c0.42,1.31-0.17,2.42-1,3.37C60.14,86.5,53.2,92.59,48.2,96" id="kvg:09802-s10" kvg:type="&#12754;" />
				<path d="M79.27,80.01c6.16,4.31,13.43,12.12,15.11,15.89" id="kvg:09802-s11" kvg:type="&#12756;" />
			</g>
		</g>
	</g>
</g>
</g>
<g id="kvg:StrokeNumbers_09802" style="font-size:8;fill:#808080">
	<text transform="matrix(1 0 0 1 4.50 30.13)">1</text>
	<text transform="matrix(1 0 0 1 24.75 39.13)">2</text>
	<text transform="matrix(1 0 0 1 49.50 16.50)">3</text>
	<text transform="matrix(1 0 0 1 61.50 26.50)">4</text>
	<text transform="matrix(1 0 0 1 47.25 42.13)">5</text>
	<text transform="matrix(1 0 0 1 55.50 32.50)">6</text>
	<text transform="matrix(1 0 0 1 60.75 44.50)">7</text>
	<text transform="matrix(1 0 0 1 60.75 57.50)">8</text>
	<text transform="matrix(1 0 0 1 60.75 71.90)">9</text>
	<text transform="matrix(1 0 0 1 47.25 86.83)">10</text>
	<text transform="matrix(1 0 0 1 72.75 87.13)">11</text>
</g>
</svg>