<svg xmlns="http://www.w3.org/2000/svg" xmlns:kvg="http://kanjivg.tagaini.net" height="109" kun="&#12411;&#12362;, &#12411;&#12411;" meaning="cheeks, jaw" on="&#12461;&#12519;&#12454;" viewBox="0 0 109 109" width="109">
<g id="kvg:StrokePaths_0982c" style="fill:none;stroke:#000000;stroke-width:3;stroke-linecap:round;stroke-linejoin:round;">
<g id="kvg:0982c" kvg:element="&#38956;">
	<g id="kvg:0982c-g1" kvg:element="&#22846;" kvg:position="left">
		<g id="kvg:0982c-g2" kvg:element="&#20108;" kvg:part="1">
			<g id="kvg:0982c-g3" kvg:element="&#22823;" kvg:part="1">
				<path d="M13.75,28.89c0.94,0.38,2.66,0.38,3.6,0.38C24,29.25,38,27,45.96,25.89c1.55-0.22,2.5,0.18,3.29,0.37" id="kvg:0982c-s1" kvg:type="&#12752;" />
			</g>
		</g>
		<g id="kvg:0982c-g4" kvg:element="&#20174;">
			<g id="kvg:0982c-g5" kvg:element="&#20154;" kvg:position="left" kvg:variant="true">
				<path d="M14.5,37.75c2.29,2,5.9,8.24,6.48,11.35" id="kvg:0982c-s2" kvg:type="&#12756;" />
			</g>
			<g id="kvg:0982c-g6" kvg:element="&#20154;" kvg:position="right" kvg:variant="true">
				<path d="M48.77,33.64c0.03,0.38,0.06,0.98-0.06,1.52c-0.68,3.21-4.6,10.27-9.97,14.58" id="kvg:0982c-s3" kvg:type="&#12754;" />
				<g id="kvg:0982c-g7" kvg:element="&#20108;" kvg:part="2">
					<path d="M9.88,58.14c1.47,0.35,3.12,0.22,4.08,0.1c10.04-1.32,26.75-4.01,37.82-4.16C52.98,54.06,52.9,54,54.25,54" id="kvg:0982c-s4" kvg:type="&#12752;" />
				</g>
			</g>
		</g>
		<g id="kvg:0982c-g8" kvg:element="&#22823;" kvg:part="2">
			<path d="M30.62,11.25c0.34,1.17,0.88,2.52,0.88,5.04c0,46.84-1.12,64.57-21.99,80.21" id="kvg:0982c-s5" kvg:type="&#12754;" />
			<path d="M32.25,64.75c4.62,1.96,14,12.7,17.07,19.13" id="kvg:0982c-s6" kvg:type="&#12756;/&#12751;" />
		</g>
	</g>
	<g id="kvg:0982c-g9" kvg:element="&#38913;" kvg:position="right" kvg:radical="general">
		<g id="kvg:0982c-g10" kvg:position="top">
			<path d="M54.95,18.82c1.15,0.53,3.26,0.61,4.41,0.53c9.5-0.62,27.63-3.81,35.02-4.06c1.92-0.07,3.07,0.26,4.02,0.52" id="kvg:0982c-s7" kvg:type="&#12752;" />
			<path d="M73.73,20.93c0.01,0.24,0.02,0.61-0.02,0.96c-0.26,2.02-2.85,6.45-4.89,9.16" id="kvg:0982c-s8" kvg:type="&#12754;" />
		</g>
		<g id="kvg:0982c-g11" kvg:element="&#35997;" kvg:position="bottom">
			<g id="kvg:0982c-g12" kvg:element="&#30446;" kvg:position="top">
				<path d="M59.91,33.2c0.5,1.03,1.23,1.8,1.23,3.17c0,1.38-0.17,38.14,0,39.51" id="kvg:0982c-s9" kvg:type="&#12753;" />
				<path d="M61.98,34.58c2.83-0.17,25.18-3.22,27.77-3.43c2.15-0.17,3.85,1.91,3.67,3.18c-0.23,1.62-1,38.05-1,39.08" id="kvg:0982c-s10" kvg:type="&#12757;a" />
				<path d="M61.93,47.1c4.05,0,23.98-2.32,30.05-2.69" id="kvg:0982c-s11" kvg:type="&#12752;a" />
				<path d="M61.66,59.21c10.11-0.46,21.5-1.98,29.25-2.46" id="kvg:0982c-s12" kvg:type="&#12752;a" />
				<path d="M61.9,73.4c6.54-1.02,21.5-1.89,29.75-2.41" id="kvg:0982c-s13" kvg:type="&#12752;a" />
			</g>
			<g id="kvg:0982c-g13" kvg:position="bottom">
				<path d="M67.66,79.98c0.39,1.44,0.28,2.33-0.5,3.37C64.8,86.51,56.93,93.77,52.21,97.5" id="kvg:0982c-s14" kvg:type="&#12754;" />
				<path d="M83.07,78.37c6.31,4.67,13.76,13.13,15.48,17.21" id="kvg:0982c-s15" kvg:type="&#12756;" />
			</g>
		</g>
	</g>
</g>
</g>
<g id="kvg:StrokeNumbers_0982c" style="font-size:8;fill:#808080">
	<text transform="matrix(1 0 0 1 7.50 28.50)">1</text>
	<text transform="matrix(1 0 0 1 7.50 39.50)">2</text>
	<text transform="matrix(1 0 0 1 40.25 35.50)">3</text>
	<text transform="matrix(1 0 0 1 2.50 58.50)">4</text>
	<text transform="matrix(1 0 0 1 22.50 10.50)">5</text>
	<text transform="matrix(1 0 0 1 36.50 65.50)">6</text>
	<text transform="matrix(1 0 0 1 58.63 17.85)">7</text>
	<text transform="matrix(1 0 0 1 64.50 25.85)">8</text>
	<text transform="matrix(1 0 0 1 53.59 40.85)">9</text>
	<text transform="matrix(1 0 0 1 60.50 31.85)">10</text>
	<text transform="matrix(1 0 0 1 64.20 43.85)">11</text>
	<text transform="matrix(1 0 0 1 64.01 55.85)">12</text>
	<text transform="matrix(1 0 0 1 64.06 69.50)">13</text>
	<text transform="matrix(1 0 0 1 56.50 83.85)">14</text>
	<text transform="matrix(1 0 0 1 76.06 85.50)">15</text>
</g>
</svg>