<svg xmlns="http://www.w3.org/2000/svg" xmlns:kvg="http://kanjivg.tagaini.net" height="109" meaning="Japanese noodles, (kokuji)" viewBox="0 0 109 109" width="109">
<g id="kvg:StrokePaths_09942" style="fill:none;stroke:#000000;stroke-width:3;stroke-linecap:round;stroke-linejoin:round;">
<g id="kvg:09942" kvg:element="&#39234;">
	<g id="kvg:09942-g1" kvg:element="&#39136;" kvg:original="&#39135;" kvg:position="left" kvg:radical="general" kvg:variant="true">
		<path d="M27.76,12.14c0.05,0.69,0.26,1.83-0.1,2.75c-2.37,6.06-9.19,17.91-18.85,26.82" id="kvg:09942-s1" kvg:type="&#12754;" />
		<path d="M30.27,18.33c4.96,1.92,12.8,7.9,14.04,10.88" id="kvg:09942-s2" kvg:type="&#12756;/&#12751;" />
		<path d="M21.75,33.52c0.38,0.17,1.08,0.21,1.46,0.17c2.42-0.29,10.37-2.44,12.71-2.24c0.63,0.05,1.01,0.08,1.33,0.16" id="kvg:09942-s3" kvg:type="&#12752;" />
		<path d="M16.77,41.94c0.39,0.78,0.78,1.68,0.78,2.72c0,1.04-0.13,53.29,0,54.34" id="kvg:09942-s4" kvg:type="&#12753;" />
		<path d="M17.69,43.57c2.2-0.13,18.91-2.67,20.92-2.83c1.67-0.13,2.74,1.45,2.61,2.22c-0.26,1.57-1.97,18.54-2.52,22.01" id="kvg:09942-s5" kvg:type="&#12757;" />
		<path d="M18.08,53.73c2.97,0,18.36-2.31,21.72-2.31" id="kvg:09942-s6" kvg:type="&#12752;a" />
		<path d="M17.94,65.06C24,64.5,31.25,63.5,38.79,63.02" id="kvg:09942-s7" kvg:type="&#12752;a" />
		<path d="M17.39,77.56c3.73-0.25,15.96-2.17,19.57-1.99c0.97,0.04,1.56,0.07,2.05,0.14" id="kvg:09942-s8" kvg:type="&#12752;c" />
		<path d="M17.89,89.81c3.73-0.25,15.96-2.17,19.57-1.99c0.97,0.04,1.56,0.07,2.05,0.14" id="kvg:09942-s9" kvg:type="&#12752;c" />
	</g>
	<g id="kvg:09942-g2" kvg:position="right">
		<g id="kvg:09942-g3" kvg:element="&#22234;" kvg:position="top">
			<g id="kvg:09942-g4" kvg:element="&#22231;" kvg:part="1">
				<path d="M52.31,21.06c0.4,0.49,0.9,1.82,1,2.46c0.86,5.34,2.25,16.16,3.14,26.98" id="kvg:09942-s10" kvg:type="&#12753;" />
				<path d="M53.7,22.33c11-1.41,27.98-2.73,34.46-3.33c2.6-0.24,3.08,1.2,2.84,3.31c-0.75,6.66-3.25,18.69-5.08,25.95" id="kvg:09942-s11" kvg:type="&#12757;a" />
			</g>
			<g id="kvg:09942-g5" kvg:element="&#20154;" kvg:variant="true">
				<path d="M70.92,24.35c0.06,0.38,0.24,1.21,0.13,1.79c-0.63,3.46-4.3,10.1-9.26,15.69" id="kvg:09942-s12" kvg:type="&#12754;" />
				<path d="M70.45,31.83c3.79,1.17,9.33,5.85,10.27,8.13" id="kvg:09942-s13" kvg:type="&#12756;/&#12751;" />
			</g>
			<g id="kvg:09942-g6" kvg:element="&#22231;" kvg:part="2">
				<path d="M56.48,47.7c7.04,0,19.72-1.17,29.44-1.31" id="kvg:09942-s14" kvg:type="&#12752;a" />
			</g>
		</g>
		<g id="kvg:09942-g7" kvg:element="&#30399;" kvg:position="bottom">
			<path d="M51.47,62.34c0.5,0.78,1.15,1.62,1.26,2.28c0.85,5.23,1.53,18.87,2.11,28.28" id="kvg:09942-s15" kvg:type="&#12753;a" />
			<path d="M53.01,63.99c9.02-1.08,33.09-2.96,36.35-3.19c2.05-0.14,3.2,1.03,2.99,3.18c-0.3,3.03-2.33,23.32-3.38,27.41" id="kvg:09942-s16" kvg:type="&#12757;b" />
			<path d="M65.06,64.15c0.21,0.5,0.42,0.91,0.51,1.54c0.72,4.94,0.76,17.91,1.25,26.78" id="kvg:09942-s17" kvg:type="&#12753;a" />
			<path d="M78.26,62.54c0.38,0.6,0.75,1.62,0.68,2.38c-0.63,7.65-1,16.45-1.78,26.24" id="kvg:09942-s18" kvg:type="&#12753;a" />
			<path d="M43.42,93.72c1.6,0.45,4.54,0.58,6.14,0.45C60.5,93.25,80,92.25,92.98,91.99c2.67-0.05,4.27,0.21,5.6,0.44" id="kvg:09942-s19" kvg:type="&#12752;" />
		</g>
	</g>
</g>
</g>
<g id="kvg:StrokeNumbers_09942" style="font-size:8;fill:#808080">
	<text transform="matrix(1 0 0 1 20.50 12.50)">1</text>
	<text transform="matrix(1 0 0 1 33.50 17.50)">2</text>
	<text transform="matrix(1 0 0 1 25.50 30.50)">3</text>
	<text transform="matrix(1 0 0 1 10.50 50.50)">4</text>
	<text transform="matrix(1 0 0 1 19.50 40.50)">5</text>
	<text transform="matrix(1 0 0 1 22.46 51.50)">6</text>
	<text transform="matrix(1 0 0 1 22.50 62.50)">7</text>
	<text transform="matrix(1 0 0 1 22.47 74.50)">8</text>
	<text transform="matrix(1 0 0 1 22.46 86.50)">9</text>
	<text transform="matrix(1 0 0 1 44.50 32.50)">10</text>
	<text transform="matrix(1 0 0 1 54.50 18.50)">11</text>
	<text transform="matrix(1 0 0 1 60.50 29.50)">12</text>
	<text transform="matrix(1 0 0 1 74.25 32.50)">13</text>
	<text transform="matrix(1 0 0 1 64.50 45.50)">14</text>
	<text transform="matrix(1 0 0 1 43.25 69.50)">15</text>
	<text transform="matrix(1 0 0 1 53.50 60.50)">16</text>
	<text transform="matrix(1 0 0 1 57.50 71.50)">17</text>
	<text transform="matrix(1 0 0 1 69.25 70.50)">18</text>
	<text transform="matrix(1 0 0 1 41.50 90.50)">19</text>
</g>
</svg>