<svg xmlns="http://www.w3.org/2000/svg" xmlns:kvg="http://kanjivg.tagaini.net" height="109" meaning="grey horse" viewBox="0 0 109 109" width="109">
<g id="kvg:StrokePaths_09a05" style="fill:none;stroke:#000000;stroke-width:3;stroke-linecap:round;stroke-linejoin:round;">
<g id="kvg:09a05" kvg:element="&#39429;">
	<g id="kvg:09a05-g1" kvg:element="&#39340;" kvg:position="left" kvg:radical="general">
		<path d="M16.94,16.31c0.56,0.69,0.99,2.88,0.99,3.95c-0.05,9.81-0.31,39.39-1.07,42.26" id="kvg:09a05-s1" kvg:type="&#12753;" />
		<path d="M19.62,17.44c8.57-0.56,22.35-2.47,24.95-2.84c1.03-0.15,2.77-0.26,3.29-0.03" id="kvg:09a05-s2" kvg:type="&#12752;b" />
		<path d="M31.71,17.5c0.28,0.4,1.05,0.93,1.04,1.58c-0.02,6.55-0.07,29.67-0.28,39.97" id="kvg:09a05-s3" kvg:type="&#12753;a" />
		<path d="M18.4,32.61c6.86-0.62,20.14-3.2,23.09-3.61c1.03-0.15,2.77-0.26,3.29-0.03" id="kvg:09a05-s4" kvg:type="&#12752;b" />
		<path d="M18.01,45.94c6.86-0.62,20.69-3.73,23.63-4.14c1.03-0.15,2.77-0.26,3.29-0.03" id="kvg:09a05-s5" kvg:type="&#12752;b" />
		<path d="M17.66,61.88c6.77-1.5,22.15-3.78,25.87-4.42c4.75-0.81,4.59,2.98,4.33,6.85c-0.73,10.98-2.65,22.17-6.16,29.28c-3.01,6.1-5.83,0.43-6.81-0.91" id="kvg:09a05-s6" kvg:type="&#12742;a" />
		<g id="kvg:09a05-g2" kvg:element="&#28780;" kvg:original="&#28779;" kvg:variant="true">
			<path d="M12.37,71.58c0.31,6.8-0.63,12.78-0.95,14.14" id="kvg:09a05-s7" kvg:type="&#12756;" />
			<path d="M19.87,71.49c1.19,2.23,2.19,5.04,2.47,9.02" id="kvg:09a05-s8" kvg:type="&#12756;" />
			<path d="M28.12,68.98c0.61,1.09,2.81,4.69,3.08,8.25" id="kvg:09a05-s9" kvg:type="&#12756;" />
			<path d="M35.63,66.83c1.37,2.13,3.62,4.34,4.11,7.16" id="kvg:09a05-s10" kvg:type="&#12756;" />
		</g>
	</g>
	<g id="kvg:09a05-g3" kvg:element="&#38585;" kvg:position="right">
		<g id="kvg:09a05-g4" kvg:element="&#20155;" kvg:original="&#20154;" kvg:variant="true">
			<path d="M63.63,13c0.16,1.72-0.04,3.97-0.56,5.44c-3.25,9.38-7.37,17.32-14.82,28.74" id="kvg:09a05-s11" kvg:type="&#12754;" />
			<path d="M56.69,33.65c0.63,0.88,1.11,2.8,1.15,4.16c0.37,12.12-0.51,55.13-0.2,61.44" id="kvg:09a05-s12" kvg:type="&#12753;" />
		</g>
		<path d="M82.69,13c0.07,0.92-0.02,2.12-0.24,2.9c-1.44,5-3.26,8.87-6.56,14.96" id="kvg:09a05-s13" kvg:type="&#12754;" />
		<path d="M57.66,34.41c10.09-0.91,36.09-2.96,39.22-3.59" id="kvg:09a05-s14" kvg:type="&#12752;b" />
		<path d="M75.81,34.33c0.55,0.7,0.99,1.65,0.99,2.85c0,12.21,0.06,34.88-0.27,54.12" id="kvg:09a05-s15" kvg:type="&#12753;a" />
		<path d="M58.14,51.82c6.89-0.94,32-2.69,34.95-3.21" id="kvg:09a05-s16" kvg:type="&#12752;b" />
		<path d="M57.8,70.29c7.27-0.8,33.15-2.91,36.27-3.35" id="kvg:09a05-s17" kvg:type="&#12752;b" />
		<path d="M57.8,93.18c7.3-1.14,36.06-2.32,39.2-2.95" id="kvg:09a05-s18" kvg:type="&#12752;b" />
	</g>
</g>
</g>
<g id="kvg:StrokeNumbers_09a05" style="font-size:8;fill:#808080">
	<text transform="matrix(1 0 0 1 11.50 25.50)">1</text>
	<text transform="matrix(1 0 0 1 17.50 14.50)">2</text>
	<text transform="matrix(1 0 0 1 36.50 24.50)">3</text>
	<text transform="matrix(1 0 0 1 21.50 28.50)">4</text>
	<text transform="matrix(1 0 0 1 21.68 41.50)">5</text>
	<text transform="matrix(1 0 0 1 21.54 57.65)">6</text>
	<text transform="matrix(1 0 0 1 6.50 74.35)">7</text>
	<text transform="matrix(1 0 0 1 15.50 78.50)">8</text>
	<text transform="matrix(1 0 0 1 23.50 75.50)">9</text>
	<text transform="matrix(1 0 0 1 29.50 71.50)">10</text>
	<text transform="matrix(1 0 0 1 53.50 12.50)">11</text>
	<text transform="matrix(1 0 0 1 47.50 53.50)">12</text>
	<text transform="matrix(1 0 0 1 70.50 12.50)">13</text>
	<text transform="matrix(1 0 0 1 63.50 30.65)">14</text>
	<text transform="matrix(1 0 0 1 79.50 41.58)">15</text>
	<text transform="matrix(1 0 0 1 62.25 47.50)">16</text>
	<text transform="matrix(1 0 0 1 62.25 66.50)">17</text>
	<text transform="matrix(1 0 0 1 62.25 89.50)">18</text>
</g>
</svg>