<svg xmlns="http://www.w3.org/2000/svg" xmlns:kvg="http://kanjivg.tagaini.net" height="109" meaning="hair hanging long, mane, long hair radical (no.190)" viewBox="0 0 109 109" width="109">
<g id="kvg:StrokePaths_09adf" style="fill:none;stroke:#000000;stroke-width:3;stroke-linecap:round;stroke-linejoin:round;">
<g id="kvg:09adf" kvg:element="&#39647;" kvg:radical="general">
	<g id="kvg:09adf-g1" kvg:element="&#38263;" kvg:position="left" kvg:variant="true">
		<path d="M25.5,19.25C27,20.75,27,21,27,22.5s0.5,34.5,0.5,36.75" id="kvg:09adf-s1" kvg:type="&#12753;a" />
		<path d="M27.85,21.27C33,21,44.25,18,50.96,17.89c1.56-0.03,2.5,0.18,3.29,0.37" id="kvg:09adf-s2" kvg:type="&#12752;b" />
		<path d="M28.75,34.25c4.55-0.53,15.22-2.45,18.9-2.98c1.38-0.2,2.79-0.14,3.85,0.18" id="kvg:09adf-s3" kvg:type="&#12752;b" />
		<path d="M28.5,46.75c4.55-0.53,15.22-2.45,18.9-2.98c1.38-0.2,2.79-0.14,3.85,0.18" id="kvg:09adf-s4" kvg:type="&#12752;b" />
		<path d="M11.88,62.42c0.86,0.3,2.43,0.35,3.29,0.3c8.92-0.51,28.04-4.74,40.21-5.15c1.43-0.05,2.29,0.15,3,0.3" id="kvg:09adf-s5" kvg:type="&#12752;" />
		<g id="kvg:09adf-g2" kvg:element="&#21430;">
			<path d="M32.65,63.31c0.1,0.94-0.47,2.32-0.8,2.8c-4.35,6.39-5.6,8.39-11.6,15.54c-1.5,1.79-0.74,3.69,1.84,2.96c7.4-2.1,20.9-5.85,30.01-8.82" id="kvg:09adf-s6" kvg:type="&#12764;" />
			<path d="M45.01,65.67c3.9,3.41,10.07,14,11.05,19.3" id="kvg:09adf-s7" kvg:type="&#12756;" />
		</g>
	</g>
	<g id="kvg:09adf-g3" kvg:element="&#24417;" kvg:position="right">
		<g id="kvg:09adf-g4" kvg:element="&#20031;">
			<path d="M82.68,16c0.05,0.58,0.25,1.58-0.12,2.32C79.75,24,73.5,32.25,62.25,39.66" id="kvg:09adf-s8" kvg:type="&#12754;" />
		</g>
		<g id="kvg:09adf-g5" kvg:element="&#20031;">
			<path d="M88.21,35.56c0.08,0.68,0.36,1.9-0.15,2.73C84.25,44.5,75.25,56.5,61.73,64.4" id="kvg:09adf-s9" kvg:type="&#12754;" />
		</g>
		<g id="kvg:09adf-g6" kvg:element="&#20031;">
			<path d="M90.29,58.4c0.11,0.91,0.42,2.43-0.21,3.66C85.75,70.5,72.18,86.66,51.32,97" id="kvg:09adf-s10" kvg:type="&#12754;" />
		</g>
	</g>
</g>
</g>
<g id="kvg:StrokeNumbers_09adf" style="font-size:8;fill:#808080">
	<text transform="matrix(1 0 0 1 19.50 31.13)">1</text>
	<text transform="matrix(1 0 0 1 24.50 17.50)">2</text>
	<text transform="matrix(1 0 0 1 31.50 30.50)">3</text>
	<text transform="matrix(1 0 0 1 31.33 42.50)">4</text>
	<text transform="matrix(1 0 0 1 9.50 58.50)">5</text>
	<text transform="matrix(1 0 0 1 21.50 70.50)">6</text>
	<text transform="matrix(1 0 0 1 38.50 69.50)">7</text>
	<text transform="matrix(1 0 0 1 74.44 16.50)">8</text>
	<text transform="matrix(1 0 0 1 80.50 36.50)">9</text>
	<text transform="matrix(1 0 0 1 79.50 59.50)">10</text>
</g>
</svg>