<svg xmlns="http://www.w3.org/2000/svg" xmlns:kvg="http://kanjivg.tagaini.net" height="109" kun="&#12363;&#12425;&#12384;, &#12363;&#12383;&#12385;" meaning="the body, substance, object, reality" on="&#12479;&#12452;, &#12486;&#12452;" viewBox="0 0 109 109" width="109">
<g id="kvg:StrokePaths_09ad4" style="fill:none;stroke:#000000;stroke-width:3;stroke-linecap:round;stroke-linejoin:round;">
<g id="kvg:09ad4" kvg:element="&#39636;">
	<g id="kvg:09ad4-g1" kvg:element="&#39592;" kvg:position="left" kvg:radical="general">
		<g id="kvg:09ad4-g2" kvg:position="top">
			<path d="M17.62,17.2c0.25,0.48,0.96,2.54,0.99,3.17c0.14,2.88,1.59,18.34,1.59,18.66" id="kvg:09ad4-s1" kvg:type="&#12753;a" />
			<path d="M18.81,18.63c1.42-0.03,14.69-2.13,21.29-3.57c1.41-0.31,2.91,1.19,2.68,2.39c-0.66,3.41-2.25,11.52-2.91,19.72" id="kvg:09ad4-s2" kvg:type="&#12757;b" />
			<path d="M29.07,24.62c0.25,0.48,0.46,1.54,0.49,2.17c0.15,2.81,0.32,11.48,0.31,11.79" id="kvg:09ad4-s3" kvg:type="&#12753;a" />
			<path d="M29.98,26.41c1.41-0.03,9.45-1.47,10.73-1.64" id="kvg:09ad4-s4" kvg:type="&#12752;a" />
			<path d="M13.04,38.62c-0.02,3.61-1.35,11-1.81,13.38" id="kvg:09ad4-s5" kvg:type="&#12756;" />
			<path d="M13.19,41.26c5.8-1.18,28.64-4.59,32.44-4.79c5.94-0.32,0.23,5.3-1.25,7.24" id="kvg:09ad4-s6" kvg:type="&#12758;b" />
		</g>
		<g id="kvg:09ad4-g3" kvg:element="&#26376;" kvg:position="bottom">
			<path d="M20.3,49.12c0.38,0.71,0.63,1.43,0.76,2.14c0.13,0.71,0.18,43.93,0.13,45.54" id="kvg:09ad4-s7" kvg:type="&#12753;/&#12754;" />
			<path d="M21.79,51.32c1.49-0.17,15.64-2.65,16.75-2.85c1.98-0.35,2.73,2.27,2.48,3.32c-0.24,1.01-0.37,24.87-0.37,39.04c0,9.09-4.48,3.15-5.72,1.57" id="kvg:09ad4-s8" kvg:type="&#12742;a" />
			<path d="M21.79,63.81c5.08-1.05,14.23-2.14,18.7-2.67" id="kvg:09ad4-s9" kvg:type="&#12752;a" />
			<path d="M21.49,75.67c3.97-0.53,14.17-1.62,18.76-1.97" id="kvg:09ad4-s10" kvg:type="&#12752;a" />
		</g>
	</g>
	<g id="kvg:09ad4-g4" kvg:element="&#35914;" kvg:position="right">
		<g id="kvg:09ad4-g5" kvg:element="&#26354;" kvg:position="top">
			<g id="kvg:09ad4-g6" kvg:element="&#26085;" kvg:part="1">
				<path d="M53.91,23.31c0.39,0.5,1.12,1.28,1.29,1.93c0.79,3.02,3.88,19.5,4.01,20.17" id="kvg:09ad4-s11" kvg:type="&#12753;" />
				<path d="M56.1,24.21c2.53-0.3,33.46-3.17,35.69-3.07c1.18,0.05,2.91,1.21,2.61,2.75c-0.58,2.96-4.17,17.66-4.7,18.58" id="kvg:09ad4-s12" kvg:type="&#12757;" />
			</g>
			<g id="kvg:09ad4-g7" kvg:element="&#24318;">
				<g id="kvg:09ad4-g8" kvg:element="&#21313;" kvg:part="1">
					<path d="M65.05,13.81c0.57,0.21,1.33,1.7,1.37,2.12c0.89,9.25,2.48,21.62,2.87,25.41" id="kvg:09ad4-s13" kvg:type="&#12752;" />
				</g>
				<g id="kvg:09ad4-g9" kvg:element="&#20031;" kvg:variant="true">
					<path d="M80.02,12c0.73,0.26,0.85,1.67,0.81,2.2c-0.58,8.05-1.83,23.3-1.9,27.13" id="kvg:09ad4-s14" kvg:type="&#12753;" />
				</g>
				<g id="kvg:09ad4-g10" kvg:element="&#21313;" kvg:part="2">
					<path d="M57.55,32.83c2.1,0,32.53-2.46,34.9-2.46" id="kvg:09ad4-s15" kvg:type="&#12753;" />
				</g>
			</g>
			<g id="kvg:09ad4-g11" kvg:element="&#26085;" kvg:part="2">
				<path d="M59.42,42.78c4.27-0.31,24.83-1.99,30.15-2.26" id="kvg:09ad4-s16" kvg:type="&#12752;" />
			</g>
		</g>
		<g id="kvg:09ad4-g12" kvg:element="&#35910;" kvg:position="bottom">
			<g id="kvg:09ad4-g13" kvg:position="top">
				<path d="M52.43,52.4c1.1,0.7,3.12,0.78,4.23,0.7c11.47-0.8,26.59-2.6,34.66-2.99c1.84-0.09,2.94,0.33,3.86,0.69" id="kvg:09ad4-s17" kvg:type="&#12752;" />
			</g>
			<g id="kvg:09ad4-g14" kvg:position="bottom">
				<g id="kvg:09ad4-g15" kvg:element="&#21475;">
					<path d="M59.21,60.85c0.37,0.35,0.85,1.88,0.92,2.34c0.5,3.31,1.59,5.64,2.32,12.23" id="kvg:09ad4-s18" kvg:type="&#12753;" />
					<path d="M60.65,62.26c5.67-0.66,22.15-2.97,26.01-3.07c1.6-0.04,2.38,0.87,2.02,2.79c-0.65,3.46-1.84,5.15-2.69,9.21" id="kvg:09ad4-s19" kvg:type="&#12757;b" />
					<path d="M62.76,73.73c4.19,0,18.81-2.17,24.59-2.27" id="kvg:09ad4-s20" kvg:type="&#12752;b" />
				</g>
				<path d="M61.64,79.45c1.76,1.88,4.56,7.75,5,10.68" id="kvg:09ad4-s21" kvg:type="&#12756;" />
				<path d="M85.21,76.28c0.01,0.31,0.38,1.88,0.33,2.33c-0.26,2.65-2.12,7.92-4.18,11.48" id="kvg:09ad4-s22" kvg:type="&#12754;" />
				<path d="M50.13,94.85c1.22,0.68,3.46,0.79,4.68,0.68c12.7-1.14,27.54-3.09,41.05-3.56c2.03-0.07,3.25,0.33,4.27,0.67" id="kvg:09ad4-s23" kvg:type="&#12752;" />
			</g>
		</g>
	</g>
</g>
</g>
<g id="kvg:StrokeNumbers_09ad4" style="font-size:8;fill:#808080">
	<text transform="matrix(1 0 0 1 12.50 25.50)">1</text>
	<text transform="matrix(1 0 0 1 21.50 15.50)">2</text>
	<text transform="matrix(1 0 0 1 23.50 32.50)">3</text>
	<text transform="matrix(1 0 0 1 30.50 24.50)">4</text>
	<text transform="matrix(1 0 0 1 6.50 42.50)">5</text>
	<text transform="matrix(1 0 0 1 13.50 37.50)">6</text>
	<text transform="matrix(1 0 0 1 13.63 58.85)">7</text>
	<text transform="matrix(1 0 0 1 23.50 47.50)">8</text>
	<text transform="matrix(1 0 0 1 25.50 59.50)">9</text>
	<text transform="matrix(1 0 0 1 25.50 71.50)">10</text>
	<text transform="matrix(1 0 0 1 47.50 30.88)">11</text>
	<text transform="matrix(1 0 0 1 54.25 21.80)">12</text>
	<text transform="matrix(1 0 0 1 54.50 11.50)">13</text>
	<text transform="matrix(1 0 0 1 69.25 10.50)">14</text>
	<text transform="matrix(1 0 0 1 59.50 30.50)">15</text>
	<text transform="matrix(1 0 0 1 60.25 40.50)">16</text>
	<text transform="matrix(1 0 0 1 50.50 49.50)">17</text>
	<text transform="matrix(1 0 0 1 49.75 67.50)">18</text>
	<text transform="matrix(1 0 0 1 60.50 59.28)">19</text>
	<text transform="matrix(1 0 0 1 65.50 70.50)">20</text>
	<text transform="matrix(1 0 0 1 53.50 83.50)">21</text>
	<text transform="matrix(1 0 0 1 74.50 81.50)">22</text>
	<text transform="matrix(1 0 0 1 47.50 92.50)">23</text>
</g>
</svg>