<svg xmlns="http://www.w3.org/2000/svg" xmlns:kvg="http://kanjivg.tagaini.net" height="109" meaning="loose, dishevelled, pore, cavity in overboiled daikon" viewBox="0 0 109 109" width="109">
<g id="kvg:StrokePaths_09b06" style="fill:none;stroke:#000000;stroke-width:3;stroke-linecap:round;stroke-linejoin:round;">
<g id="kvg:09b06" kvg:element="&#39686;">
	<g id="kvg:09b06-g1" kvg:element="&#39647;" kvg:position="top" kvg:radical="general">
		<g id="kvg:09b06-g2" kvg:element="&#38263;" kvg:position="left" kvg:variant="true">
			<path d="M26.36,12.09c1.25,0.92,1.25,1.07,1.25,1.99s0.42,19.88,0.42,21.26" id="kvg:09b06-s1" kvg:type="&#12753;a" />
			<path d="M29.4,14.6c4.3-0.17,13.62-2,19.22-2.07c1.31-0.02,2.09,0.11,2.74,0.23" id="kvg:09b06-s2" kvg:type="&#12752;b" />
			<path d="M28.58,21.54c3.8-0.32,13.21-2,16.28-2.32c1.16-0.12,2.33-0.08,3.21,0.11" id="kvg:09b06-s3" kvg:type="&#12752;b" />
			<path d="M28.37,28.69c3.8-0.32,13.21-2,16.28-2.32c1.16-0.12,2.33-0.08,3.21,0.11" id="kvg:09b06-s4" kvg:type="&#12752;b" />
			<path d="M13.49,37.12c1.05,0.23,2.98,0.35,4.03,0.23C29.75,36,41.75,33.5,51.44,33.48c1.75,0,2.8,0.11,3.67,0.23" id="kvg:09b06-s5" kvg:type="&#12752;" />
			<path d="M32.07,38.32c0.07,0.54-0.31,1.33-0.53,1.61c-2.88,3.68-3.71,4.83-7.69,8.94c-1,1.03-0.48,2.75,1.22,2.23c6.56-1.98,14.57-4.65,22.05-7.21" id="kvg:09b06-s6" kvg:type="&#12764;" />
			<path d="M42.66,39.54c3.01,1.63,7.77,6.69,8.52,9.22" id="kvg:09b06-s7" kvg:type="&#12756;" />
		</g>
		<g id="kvg:09b06-g3" kvg:element="&#24417;" kvg:position="right">
			<g id="kvg:09b06-g4" kvg:element="&#20031;">
				<path d="M81.99,10.5c0.05,0.29,0.24,0.81-0.12,1.18c-2.78,2.9-8.95,7.1-20.07,10.88" id="kvg:09b06-s8" kvg:type="&#12754;" />
			</g>
			<g id="kvg:09b06-g5" kvg:element="&#20031;">
				<path d="M86.62,21.78c0.07,0.3,0.34,0.83-0.14,1.19c-3.64,2.71-12.23,7.94-25.15,11.39" id="kvg:09b06-s9" kvg:type="&#12754;" />
			</g>
			<g id="kvg:09b06-g6" kvg:element="&#20031;">
				<path d="M91.07,33.29c0.09,0.37,0.34,0.99-0.18,1.49C87.36,38.22,76.25,44.79,59.18,49" id="kvg:09b06-s10" kvg:type="&#12754;" />
			</g>
		</g>
	</g>
	<g id="kvg:09b06-g7" kvg:element="&#26494;" kvg:position="bottom">
		<g id="kvg:09b06-g8" kvg:element="&#26408;" kvg:position="left">
			<path d="M16.26,65.09c0.45,0.16,3.08,0.28,4.27,0.21c5.09-0.27,18.33-2.2,26.5-3.02c1.18-0.12,2.78-0.16,3.52,0" id="kvg:09b06-s11" kvg:type="&#12752;" />
			<path d="M35.78,53c0.68,0.27,1.63,2.01,1.77,2.55c0.14,0.54-0.09,39.85-0.23,43.2" id="kvg:09b06-s12" kvg:type="&#12753;" />
			<path d="M36.39,65.54C30.75,76.25,25.25,82.5,13.38,90.56" id="kvg:09b06-s13" kvg:type="&#12754;" />
			<path d="M40.66,71.37c2.61,1.6,6.92,6.81,9.12,9.92" id="kvg:09b06-s14" kvg:type="&#12751;" />
		</g>
		<g id="kvg:09b06-g9" kvg:element="&#20844;" kvg:position="right">
			<g id="kvg:09b06-g10" kvg:element="&#20843;" kvg:position="top">
				<path d="M64.55,54.23c0.23,0.49-0.01,1.06-0.32,1.65c-2.2,4.27-6.35,10.61-13.02,14.74" id="kvg:09b06-s15" kvg:type="&#12754;" />
				<path d="M73.75,50.13c2.58,1.34,11.15,15.26,15.8,18.58c1.79,1.29,2.44,1.97,4.18,2.39" id="kvg:09b06-s16" kvg:type="&#12751;" />
			</g>
			<g id="kvg:09b06-g11" kvg:element="&#21430;" kvg:position="bottom">
				<path d="M70.13,68.35c0.41,0.54,0.32,1.82-0.01,2.47c-4.5,8.78-6.87,12.93-15.01,22.4c-1.72,2-1,4.24,1.5,3.44c6.96-2.25,20.24-5.63,27.78-6.93" id="kvg:09b06-s17" kvg:type="&#12764;" />
				<path d="M77.59,81.47c4.19,3.21,10.34,12.74,11.39,17.73" id="kvg:09b06-s18" kvg:type="&#12756;" />
			</g>
		</g>
	</g>
</g>
</g>
<g id="kvg:StrokeNumbers_09b06" style="font-size:8;fill:#808080">
	<text transform="matrix(1 0 0 1 21.85 25.85)">1</text>
	<text transform="matrix(1 0 0 1 30.50 11.50)">2</text>
	<text transform="matrix(1 0 0 1 32.50 20.50)">3</text>
	<text transform="matrix(1 0 0 1 32.33 27.50)">4</text>
	<text transform="matrix(1 0 0 1 5.50 37.50)">5</text>
	<text transform="matrix(1 0 0 1 19.50 46.50)">6</text>
	<text transform="matrix(1 0 0 1 37.50 43.50)">7</text>
	<text transform="matrix(1 0 0 1 73.50 10.50)">8</text>
	<text transform="matrix(1 0 0 1 77.59 23.50)">9</text>
	<text transform="matrix(1 0 0 1 79.50 35.50)">10</text>
	<text transform="matrix(1 0 0 1 7.50 66.50)">11</text>
	<text transform="matrix(1 0 0 1 26.25 59.50)">12</text>
	<text transform="matrix(1 0 0 1 19.50 75.23)">13</text>
	<text transform="matrix(1 0 0 1 41.25 71.15)">14</text>
	<text transform="matrix(1 0 0 1 52.50 57.50)">15</text>
	<text transform="matrix(1 0 0 1 67.50 57.50)">16</text>
	<text transform="matrix(1 0 0 1 60.50 70.50)">17</text>
	<text transform="matrix(1 0 0 1 76.25 79.50)">18</text>
</g>
</svg>