<svg xmlns="http://www.w3.org/2000/svg" xmlns:kvg="http://kanjivg.tagaini.net" height="109" kun="&#12363;&#12388;&#12425;" meaning="wig, hair piece" on="&#12496;&#12531;, &#12510;&#12531;" viewBox="0 0 109 109" width="109">
<g id="kvg:StrokePaths_09b18" style="fill:none;stroke:#000000;stroke-width:3;stroke-linecap:round;stroke-linejoin:round;">
<g id="kvg:09b18" kvg:element="&#39704;">
	<g id="kvg:09b18-g1" kvg:element="&#39647;" kvg:position="top" kvg:radical="general">
		<g id="kvg:09b18-g2" kvg:element="&#38263;" kvg:position="left" kvg:variant="true">
			<path d="M27.09,9.95c1.22,0.74,1.22,0.86,1.22,1.6c0,0.74,0.41,16.54,0.41,17.65" id="kvg:09b18-s1" kvg:type="&#12753;a" />
			<path d="M29.15,10.96c4.19-0.13,12.67-2.11,18.12-2.17c1.27-0.01,2.04,0.09,2.67,0.18" id="kvg:09b18-s2" kvg:type="&#12752;b" />
			<path d="M29.73,17.36c3.7-0.26,12.37-1.71,15.36-1.97c1.12-0.1,2.27-0.07,3.13,0.09" id="kvg:09b18-s3" kvg:type="&#12752;b" />
			<path d="M29.52,23.53c3.7-0.26,12.37-2.21,15.36-2.47c1.13-0.1,2.27-0.07,3.13,0.09" id="kvg:09b18-s4" kvg:type="&#12752;b" />
			<path d="M12.52,31.12c0.88,0.19,2.49,0.22,3.36,0.19c9.13-0.32,21.64-3.08,34.1-3.33c1.46-0.03,2.34,0.09,3.07,0.19" id="kvg:09b18-s5" kvg:type="&#12752;" />
			<g id="kvg:09b18-g3" kvg:element="&#21430;">
				<path d="M30.34,31.2c0.08,0.46-0.41,1.12-0.65,1.38c-2.2,2.42-4.45,4.92-6.92,7.17c-1.12,1.01-0.57,2,1.5,1.46c6.48-1.71,12.98-3.46,20.88-5.35" id="kvg:09b18-s6" kvg:type="&#12764;" />
				<path d="M42.64,32.62c2.2,1.28,5.68,5.28,6.23,7.27" id="kvg:09b18-s7" kvg:type="&#12756;" />
			</g>
		</g>
		<g id="kvg:09b18-g4" kvg:element="&#24417;" kvg:position="right">
			<g id="kvg:09b18-g5" kvg:element="&#20031;">
				<path d="M79.41,8.5c0.06,0.3,0.25,0.82-0.12,1.2c-2.89,2.94-9.3,7.21-20.85,11.05" id="kvg:09b18-s8" kvg:type="&#12754;" />
			</g>
			<g id="kvg:09b18-g6" kvg:element="&#20031;">
				<path d="M84.92,16.75c0.07,0.33,0.33,0.91-0.14,1.31c-3.52,2.98-11.83,8.74-24.31,12.53" id="kvg:09b18-s9" kvg:type="&#12754;" />
			</g>
			<g id="kvg:09b18-g7" kvg:element="&#20031;">
				<path d="M89.83,25.8c0.08,0.32,0.31,0.85-0.16,1.28c-3.27,2.94-13.56,8.57-29.36,12.18" id="kvg:09b18-s10" kvg:type="&#12754;" />
			</g>
		</g>
	</g>
	<g id="kvg:09b18-g8" kvg:element="&#26364;" kvg:position="bottom">
		<g id="kvg:09b18-g9" kvg:element="&#26085;" kvg:position="top">
			<path d="M33.13,44.41c0.27,0.22,0.27,0.37,0.42,0.65c1.22,2.28,2.36,8.35,3.11,12.61" id="kvg:09b18-s11" kvg:type="&#12753;" />
			<path d="M34.38,45.02c9.87-0.77,32.44-3.06,39.46-3.63c1.66-0.14,3,1.58,2.77,2.98c-0.37,2.31-2.11,6.47-3.29,10.31" id="kvg:09b18-s12" kvg:type="&#12757;a" />
			<path d="M36.14,50.62c3.07-0.22,36.85-3.37,39.38-3.46" id="kvg:09b18-s13" kvg:type="&#12752;a" />
			<path d="M37.14,56.45c6.78-0.24,26.82-2.47,36.18-2.87" id="kvg:09b18-s14" kvg:type="&#12752;a" />
		</g>
		<g id="kvg:09b18-g10" kvg:position="bottom">
			<g id="kvg:09b18-g11" kvg:element="&#32594;" kvg:original="&#32593;" kvg:variant="true">
				<path d="M24.38,62.62c0.31,0.21,0.64,0.39,0.77,0.66c1.09,2.13,2.25,7.99,3,11.81" id="kvg:09b18-s15" kvg:type="&#12753;" />
				<path d="M25.9,63.68c6.92-0.83,53.75-4.05,57.43-4.33c1.34-0.1,3.17,0.72,2.81,1.92c-0.75,2.5-2.1,6.78-4.1,10.34" id="kvg:09b18-s16" kvg:type="&#12757;a" />
				<path d="M44.69,62.5c0.21,1.42,1.32,8.33,1.54,9.93" id="kvg:09b18-s17" kvg:type="&#12753;a" />
				<path d="M63.13,61.11c-0.21,2.3-0.35,7.18-0.76,9.75" id="kvg:09b18-s18" kvg:type="&#12753;a" />
				<path d="M29.14,73.57c4.32-0.31,47.45-3.28,53.39-3.77" id="kvg:09b18-s19" kvg:type="&#12752;a" />
			</g>
			<g id="kvg:09b18-g12" kvg:element="&#21448;">
				<path d="M32.25,81.7c1.72,0.19,1.94,0.48,5.39,0.19c3.45-0.29,29.57-3.13,31.94-3.42c2.37-0.29,4.05,1.12,2.29,2.41c-14.23,10.4-30.55,17.2-51.6,21.12" id="kvg:09b18-s20" kvg:type="&#12743;" />
				<path d="M34.78,85.63c4.95,0.36,29.11,10.06,46.33,14.03c2.68,0.62,4.63,1.03,7.13,1.24" id="kvg:09b18-s21" kvg:type="&#12751;" />
			</g>
		</g>
	</g>
</g>
</g>
<g id="kvg:StrokeNumbers_09b18" style="font-size:8;fill:#808080">
	<text transform="matrix(1 0 0 1 21.50 18.63)">1</text>
	<text transform="matrix(1 0 0 1 30.50 7.50)">2</text>
	<text transform="matrix(1 0 0 1 33.50 16.50)">3</text>
	<text transform="matrix(1 0 0 1 33.50 22.50)">4</text>
	<text transform="matrix(1 0 0 1 5.50 32.50)">5</text>
	<text transform="matrix(1 0 0 1 16.50 39.50)">6</text>
	<text transform="matrix(1 0 0 1 48.50 35.50)">7</text>
	<text transform="matrix(1 0 0 1 71.50 8.50)">8</text>
	<text transform="matrix(1 0 0 1 76.50 19.50)">9</text>
	<text transform="matrix(1 0 0 1 78.50 28.50)">10</text>
	<text transform="matrix(1 0 0 1 26.50 51.88)">11</text>
	<text transform="matrix(1 0 0 1 38.50 42.50)">12</text>
	<text transform="matrix(1 0 0 1 38.50 49.50)">13</text>
	<text transform="matrix(1 0 0 1 39.50 55.50)">14</text>
	<text transform="matrix(1 0 0 1 16.50 70.58)">15</text>
	<text transform="matrix(1 0 0 1 27.50 61.50)">16</text>
	<text transform="matrix(1 0 0 1 48.25 68.50)">17</text>
	<text transform="matrix(1 0 0 1 66.50 67.50)">18</text>
	<text transform="matrix(1 0 0 1 31.25 71.28)">19</text>
	<text transform="matrix(1 0 0 1 34.50 80.50)">20</text>
	<text transform="matrix(1 0 0 1 26.50 90.50)">21</text>
</g>
</svg>