<svg xmlns="http://www.w3.org/2000/svg" xmlns:kvg="http://kanjivg.tagaini.net" height="109" meaning="foolish, Russia" viewBox="0 0 109 109" width="109">
<g id="kvg:StrokePaths_09b6f" style="fill:none;stroke:#000000;stroke-width:3;stroke-linecap:round;stroke-linejoin:round;">
<g id="kvg:09b6f" kvg:element="&#39791;">
	<g id="kvg:09b6f-g1" kvg:element="&#39770;" kvg:position="top" kvg:radical="general">
		<g id="kvg:09b6f-g2" kvg:element="&#131210;" kvg:original="&#21241;" kvg:position="top" kvg:variant="true">
			<path d="M45,10.5c0.07,0.46,0.14,1.2-0.13,1.86c-1.6,3.93-10.79,12.54-23.36,17.81" id="kvg:09b6f-s1" kvg:type="&#12754;" />
			<path d="M42,17.34c2.84,0,18.45-2.41,21.44-2.63c2.56-0.18,2.88,1.95,1.81,2.85c-4.5,3.79-7,5.95-11.75,11.07" id="kvg:09b6f-s2" kvg:type="&#12743;" />
		</g>
		<g id="kvg:09b6f-g3" kvg:position="bottom">
			<g id="kvg:09b6f-g4" kvg:element="&#30000;">
				<path d="M28.99,30.48c0.4,0.37,0.41,0.62,0.63,1.09c1.8,3.82,2.5,13.46,3.61,20.59" id="kvg:09b6f-s3" kvg:type="&#12753;" />
				<path d="M29.86,31.5c13.96-0.96,37.88-3.59,48.3-4.4c3.83-0.3,4.84,0.65,4.59,3.3c-0.37,3.9-2.5,13.34-4.25,19.77" id="kvg:09b6f-s4" kvg:type="&#12757;a" />
				<path d="M55,29.95c0.5,4.96,0.25,15.81,0.25,19.11" id="kvg:09b6f-s5" kvg:type="&#12753;a" />
				<path d="M32.46,40.87c4.55-0.37,43.48-3.13,47.24-3.28" id="kvg:09b6f-s6" kvg:type="&#12752;a" />
				<path d="M33.95,51.12C44,50.71,64.62,49,78.5,48.33" id="kvg:09b6f-s7" kvg:type="&#12752;a" />
			</g>
			<g id="kvg:09b6f-g5" kvg:element="&#28780;" kvg:original="&#28779;" kvg:variant="true">
				<path d="M23,56.27c0,5.33-5.95,13.21-7.5,14.73" id="kvg:09b6f-s8" kvg:type="&#12756;" />
				<path d="M39.02,57.31c2.47,1.67,4.82,6.25,5.44,8.84" id="kvg:09b6f-s9" kvg:type="&#12756;" />
				<path d="M60.12,54.62c2.54,1.91,6.55,7.87,7.18,10.84" id="kvg:09b6f-s10" kvg:type="&#12756;" />
				<path d="M80.02,54.94c4.96,2.17,12.8,8.91,14.04,12.28" id="kvg:09b6f-s11" kvg:type="&#12756;" />
			</g>
		</g>
	</g>
	<g id="kvg:09b6f-g6" kvg:element="&#26085;" kvg:position="bottom">
		<path d="M32.77,72.68c0.53,0.72,0.97,1.09,1.06,2.01c0.42,4.06,3.32,23.82,3.5,24.75" id="kvg:09b6f-s12" kvg:type="&#12753;" />
		<path d="M33.71,73.89c5.54-0.64,37.23-3.21,39.95-3.21c2.27-0.01,3.59,1.07,3.56,3.13c-0.02,1.42-4.7,24.06-4.7,24.76" id="kvg:09b6f-s13" kvg:type="&#12757;a" />
		<path d="M35.24,84.93c7.26-0.18,32.76-2.18,40.05-2.2" id="kvg:09b6f-s14" kvg:type="&#12752;a" />
		<path d="M37.55,96.91c8.24-0.1,24.96-1.53,35.22-1.46" id="kvg:09b6f-s15" kvg:type="&#12752;a" />
	</g>
</g>
</g>
<g id="kvg:StrokeNumbers_09b6f" style="font-size:8;fill:#808080">
	<text transform="matrix(1 0 0 1 37.50 10.50)">1</text>
	<text transform="matrix(1 0 0 1 50.50 13.50)">2</text>
	<text transform="matrix(1 0 0 1 23.50 38.48)">3</text>
	<text transform="matrix(1 0 0 1 36.50 28.50)">4</text>
	<text transform="matrix(1 0 0 1 48.50 36.50)">5</text>
	<text transform="matrix(1 0 0 1 35.50 38.50)">6</text>
	<text transform="matrix(1 0 0 1 37.50 48.50)">7</text>
	<text transform="matrix(1 0 0 1 17.50 56.50)">8</text>
	<text transform="matrix(1 0 0 1 32.50 61.50)">9</text>
	<text transform="matrix(1 0 0 1 51.50 59.50)">10</text>
	<text transform="matrix(1 0 0 1 71.25 59.88)">11</text>
	<text transform="matrix(1 0 0 1 23.50 79.50)">12</text>
	<text transform="matrix(1 0 0 1 34.50 70.50)">13</text>
	<text transform="matrix(1 0 0 1 39.50 81.50)">14</text>
	<text transform="matrix(1 0 0 1 40.50 93.50)">15</text>
</g>
</svg>