<svg xmlns="http://www.w3.org/2000/svg" xmlns:kvg="http://kanjivg.tagaini.net" height="109" meaning="sushi, seasoned rice" viewBox="0 0 109 109" width="109">
<g id="kvg:StrokePaths_09b93" style="fill:none;stroke:#000000;stroke-width:3;stroke-linecap:round;stroke-linejoin:round;">
<g id="kvg:09b93" kvg:element="&#39827;">
	<g id="kvg:09b93-g1" kvg:element="&#39770;" kvg:position="left" kvg:radical="general">
		<g id="kvg:09b93-g2" kvg:element="&#131210;" kvg:original="&#21241;" kvg:position="top" kvg:variant="true">
			<path d="M27.99,14.25c0.05,0.57,0.1,1.48-0.09,2.31c-1.11,4.86-7.46,15.53-16.16,22.06" id="kvg:09b93-s1" kvg:type="&#12754;" />
			<path d="M26.39,23.38c1.93,0,13.82-3.44,15.85-3.73c1.74-0.25,2.13,2.17,1.41,3.4c-3.05,5.19-5.48,10.16-10.45,18.4" id="kvg:09b93-s2" kvg:type="&#12743;" />
		</g>
		<g id="kvg:09b93-g3" kvg:position="bottom">
			<g id="kvg:09b93-g4" kvg:element="&#30000;">
				<path d="M16.22,43.5c0.23,0.47,0.23,0.8,0.36,1.39c1.02,4.87,2.61,18.2,3.25,27.29" id="kvg:09b93-s3" kvg:type="&#12753;" />
				<path d="M17.28,45.19c7.92-1.23,22.51-3.35,28.42-4.37c2.17-0.38,3.29,0.96,3.17,2.3c-0.41,4.92-1.79,17.32-3.53,26.52" id="kvg:09b93-s4" kvg:type="&#12757;a" />
				<path d="M31.06,44.32c0.9,0.61,1.58,2.59,1.61,4.17c0.12,6.95,0.03,15.79,0.03,19.24" id="kvg:09b93-s5" kvg:type="&#12753;a" />
				<path d="M19.76,57.27c2.58-0.48,25.26-4,27.39-4.19" id="kvg:09b93-s6" kvg:type="&#12752;a" />
				<path d="M20.23,69.83c5.71-0.52,17.61-2.71,25.49-3.56" id="kvg:09b93-s7" kvg:type="&#12752;a" />
			</g>
			<g id="kvg:09b93-g5" kvg:element="&#28780;" kvg:original="&#28779;" kvg:variant="true">
				<path d="M15.95,80.82c0,5.5-2.46,13.61-3.1,15.18" id="kvg:09b93-s8" kvg:type="&#12756;" />
				<path d="M23.14,80.33c1.87,2.36,3.64,8.87,4.11,12.54" id="kvg:09b93-s9" kvg:type="&#12756;" />
				<path d="M31.88,78.94c2.05,1.98,5.3,8.14,5.81,11.21" id="kvg:09b93-s10" kvg:type="&#12756;" />
				<path d="M42.05,75.37c2.1,1.81,5.42,7.46,5.95,10.28" id="kvg:09b93-s11" kvg:type="&#12756;" />
			</g>
		</g>
	</g>
	<g id="kvg:09b93-g6" kvg:element="&#20045;" kvg:position="right">
		<g id="kvg:09b93-g7" kvg:element="&#20031;">
			<path d="M68.26,14.5c0.04,0.85,0.2,2.22-0.08,3.41c-1.81,7.65-6.65,21.54-14.38,32.59" id="kvg:09b93-s12" kvg:type="&#12754;" />
		</g>
		<path d="M63.36,36.5c0.84,0.15,2.4,0.29,3.23,0.15c11.66-1.91,19.91-3.41,28.09-4.34c1.54-0.18,2.57,0.02,3.78,0.18" id="kvg:09b93-s13" kvg:type="&#12752;" />
		<path d="M70.16,36.46c0.85,0.48,1.36,2.17,1.53,3.13c0.17,0.96,0,51.64-0.17,57.66" id="kvg:09b93-s14" kvg:type="&#12753;" />
		<path d="M72.07,53.69C78,53,84.75,51.75,90.61,50.81c1.38-0.22,1.89-0.31,3.37,0.18" id="kvg:09b93-s15" kvg:type="&#12752;b" />
		<path d="M71.99,72.63c4.36-0.51,11.89-1.67,21.86-2.76c0.89-0.1,3.18,0.1,3.63,0.2" id="kvg:09b93-s16" kvg:type="&#12752;b" />
	</g>
</g>
</g>
<g id="kvg:StrokeNumbers_09b93" style="font-size:8;fill:#808080">
	<text transform="matrix(1 0 0 1 20.50 14.50)">1</text>
	<text transform="matrix(1 0 0 1 33.50 18.50)">2</text>
	<text transform="matrix(1 0 0 1 9.50 50.50)">3</text>
	<text transform="matrix(1 0 0 1 20.50 41.50)">4</text>
	<text transform="matrix(1 0 0 1 36.50 50.50)">5</text>
	<text transform="matrix(1 0 0 1 22.25 54.25)">6</text>
	<text transform="matrix(1 0 0 1 23.50 66.50)">7</text>
	<text transform="matrix(1 0 0 1 9.50 81.50)">8</text>
	<text transform="matrix(1 0 0 1 18.50 87.50)">9</text>
	<text transform="matrix(1 0 0 1 25.50 84.50)">10</text>
	<text transform="matrix(1 0 0 1 36.50 80.50)">11</text>
	<text transform="matrix(1 0 0 1 56.25 13.50)">12</text>
	<text transform="matrix(1 0 0 1 69.50 32.50)">13</text>
	<text transform="matrix(1 0 0 1 61.25 47.50)">14</text>
	<text transform="matrix(1 0 0 1 75.50 49.50)">15</text>
	<text transform="matrix(1 0 0 1 76.25 68.50)">16</text>
</g>
</svg>