<svg xmlns="http://www.w3.org/2000/svg" xmlns:kvg="http://kanjivg.tagaini.net" height="109" meaning="sole, flatfish, flounder" viewBox="0 0 109 109" width="109">
<g id="kvg:StrokePaths_09c08" style="fill:none;stroke:#000000;stroke-width:3;stroke-linecap:round;stroke-linejoin:round;">
<g id="kvg:09c08" kvg:element="&#39944;">
	<g id="kvg:09c08-g1" kvg:element="&#39770;" kvg:position="left" kvg:radical="general">
		<g id="kvg:09c08-g2" kvg:element="&#131210;" kvg:original="&#21241;" kvg:position="top" kvg:variant="true">
			<path d="M24.5,12.25c0.04,0.57,0.08,1.48-0.08,2.31c-0.9,4.86-6.09,15.53-13.19,22.06" id="kvg:09c08-s1" kvg:type="&#12754;" />
			<path d="M22.89,21.88c1.93,0,13.82-2.44,15.85-2.73c1.74-0.25,2.13,2.17,1.41,3.4c-3.05,5.19-7.48,10.16-12.45,18.4" id="kvg:09c08-s2" kvg:type="&#12743;" />
		</g>
		<g id="kvg:09c08-g3" kvg:position="bottom">
			<g id="kvg:09c08-g4" kvg:element="&#30000;">
				<path d="M12.22,41.51c0.23,0.48,0.23,0.82,0.36,1.42c1.02,4.99,3.11,18.07,3.75,27.33" id="kvg:09c08-s3" kvg:type="&#12753;" />
				<path d="M13.28,42.76c7.92-0.98,22.01-1.68,27.92-2.53c2.17-0.31,3.29,1.09,3.17,2.45c-0.41,4.99-1.79,17.06-3.53,26.36" id="kvg:09c08-s4" kvg:type="&#12757;a" />
				<path d="M27.06,42.31c0.9,0.65,1.58,2.69,1.61,4.29c0.12,7.07,0.03,17.08,0.03,20.58" id="kvg:09c08-s5" kvg:type="&#12753;a" />
				<path d="M15.26,55.1c2.58-0.4,25.76-1.72,27.89-1.85" id="kvg:09c08-s6" kvg:type="&#12752;a" />
				<path d="M16.23,68.39c5.71-0.34,17.11-1.17,24.99-1.77" id="kvg:09c08-s7" kvg:type="&#12752;a" />
			</g>
			<g id="kvg:09c08-g5" kvg:element="&#28780;" kvg:original="&#28779;" kvg:variant="true">
				<path d="M13.19,80.82c0,5.32-2.24,13.16-2.82,14.68" id="kvg:09c08-s8" kvg:type="&#12756;" />
				<path d="M20.09,78.08c1.68,2.88,3.28,10.81,3.7,15.29" id="kvg:09c08-s9" kvg:type="&#12756;" />
				<path d="M29.15,76.69c2.12,2.29,5.49,9.41,6.02,12.96" id="kvg:09c08-s10" kvg:type="&#12756;" />
				<path d="M39.05,74.62c2.1,1.86,5.42,7.64,5.95,10.53" id="kvg:09c08-s11" kvg:type="&#12756;" />
			</g>
		</g>
	</g>
	<g id="kvg:09c08-g6" kvg:position="right">
		<g id="kvg:09c08-g7" kvg:element="&#19990;" kvg:position="top">
			<g id="kvg:09c08-g8" kvg:element="&#24319;">
				<g id="kvg:09c08-g9" kvg:element="&#21313;">
					<g id="kvg:09c08-g10" kvg:element="&#19968;">
						<path d="M47.75,29.88c1.17,0.34,3.33,0.38,4.5,0.34c9.04-0.31,26.12-3.46,40.13-4.09c1.96-0.09,3.13,0.16,4.11,0.33" id="kvg:09c08-s12" kvg:type="&#12752;" />
					</g>
					<path d="M67.39,16c0.67,0.31,1.08,1.41,1.21,2.03s1.43,22.2,1.29,26.11" id="kvg:09c08-s13" kvg:type="&#12753;" />
				</g>
				<path d="M84.05,14.75c0.67,0.31,1.08,1.41,1.21,2.03c0.13,0.63-1.79,16.35-2.18,22.92" id="kvg:09c08-s14" kvg:type="&#12753;" />
				<path d="M70.29,41.14c2.48,0,13.34-1.25,14.74-1.25" id="kvg:09c08-s15" kvg:type="&#12752;" />
			</g>
			<path d="M55,20.57c0.67,0.31,1.08,1.41,1.21,2.03s0.5,17.83,0.02,25.02c-0.16,2.35-0.24,4.12,2.32,3.91C69.42,50.66,80.25,49,90.97,48.7c2.02-0.06,3.71,0.13,4.49,0.28" id="kvg:09c08-s16" kvg:type="&#12759;" />
		</g>
		<g id="kvg:09c08-g11" kvg:element="&#26408;" kvg:position="bottom">
			<path d="M48.99,64.77c1.5,0.5,3.21,0.65,4.93,0.5c8.79-0.81,24.93-2.52,38.23-3.47c1.71-0.12,2.79,0.08,4.51,0.43" id="kvg:09c08-s17" kvg:type="&#12752;" />
			<path d="M70.32,54.5c0.72,0.29,1.29,1.29,1.29,1.88c0,6.09,0,38.49-0.14,42.12" id="kvg:09c08-s18" kvg:type="&#12753;" />
			<path d="M69.6,64.73c-4.33,8.33-15.92,21.05-24.91,25.77" id="kvg:09c08-s19" kvg:type="&#12754;" />
			<path d="M71.68,64.59c3.11,3.31,17.73,19.9,21.11,23.15c1.15,1.1,2.13,1.57,3.27,1.89" id="kvg:09c08-s20" kvg:type="&#12751;" />
		</g>
	</g>
</g>
</g>
<g id="kvg:StrokeNumbers_09c08" style="font-size:8;fill:#808080">
	<text transform="matrix(1 0 0 1 17.50 12.50)">1</text>
	<text transform="matrix(1 0 0 1 30.50 17.50)">2</text>
	<text transform="matrix(1 0 0 1 5.50 48.50)">3</text>
	<text transform="matrix(1 0 0 1 17.50 39.50)">4</text>
	<text transform="matrix(1 0 0 1 32.50 48.50)">5</text>
	<text transform="matrix(1 0 0 1 18.50 51.50)">6</text>
	<text transform="matrix(1 0 0 1 20.50 65.50)">7</text>
	<text transform="matrix(1 0 0 1 7.60 81.50)">8</text>
	<text transform="matrix(1 0 0 1 15.59 85.50)">9</text>
	<text transform="matrix(1 0 0 1 23.50 82.50)">10</text>
	<text transform="matrix(1 0 0 1 33.50 80.50)">11</text>
	<text transform="matrix(1 0 0 1 44.50 27.50)">12</text>
	<text transform="matrix(1 0 0 1 60.50 13.50)">13</text>
	<text transform="matrix(1 0 0 1 76.50 11.50)">14</text>
	<text transform="matrix(1 0 0 1 72.50 37.50)">15</text>
	<text transform="matrix(1 0 0 1 47.50 16.50)">16</text>
	<text transform="matrix(1 0 0 1 47.50 62.50)">17</text>
	<text transform="matrix(1 0 0 1 60.50 59.35)">18</text>
	<text transform="matrix(1 0 0 1 52.75 75.50)">19</text>
	<text transform="matrix(1 0 0 1 80.50 71.50)">20</text>
</g>
</svg>