<svg xmlns="http://www.w3.org/2000/svg" xmlns:kvg="http://kanjivg.tagaini.net" height="109" meaning="widower, unmarried man" viewBox="0 0 109 109" width="109">
<g id="kvg:StrokePaths_09c25" style="fill:none;stroke:#000000;stroke-width:3;stroke-linecap:round;stroke-linejoin:round;">
<g id="kvg:09c25" kvg:element="&#39973;">
	<g id="kvg:09c25-g1" kvg:element="&#39770;" kvg:position="left" kvg:radical="general">
		<g id="kvg:09c25-g2" kvg:element="&#131210;" kvg:original="&#21241;" kvg:position="top" kvg:variant="true">
			<path d="M25.49,12.75c0.04,0.56,0.24,1.5-0.09,2.26C23,20.5,17.75,28.5,9.74,36.62" id="kvg:09c25-s1" kvg:type="&#12754;" />
			<path d="M23.39,19.38c1.93,0,11.32-1.94,13.35-2.23c1.74-0.25,2.13,1.67,1.41,2.9c-3.05,5.19-3.98,8.16-8.95,16.4" id="kvg:09c25-s2" kvg:type="&#12743;" />
		</g>
		<g id="kvg:09c25-g3" kvg:position="bottom">
			<g id="kvg:09c25-g4" kvg:element="&#30000;">
				<path d="M14.62,38.58c0.19,0.55,0.2,0.93,0.31,1.61c0.88,5.64,2.35,19.84,2.92,30.25" id="kvg:09c25-s3" kvg:type="&#12753;" />
				<path d="M15.52,40.59c6.72-0.74,18.65-3.11,23.66-3.79c1.84-0.25,2.79,1.37,2.7,2.88c-0.33,5.57-0.46,18.15-1.9,28.49" id="kvg:09c25-s4" kvg:type="&#12757;a" />
				<path d="M27.2,39.05c0.76,0.54,1.35,2.15,1.38,3.4c0.13,5.51,0.08,21.81,0.09,24.54" id="kvg:09c25-s5" kvg:type="&#12753;a" />
				<path d="M17.74,53.44c2.19-0.33,21.41-2.44,23.21-2.49" id="kvg:09c25-s6" kvg:type="&#12752;a" />
				<path d="M18.18,67.8c4.84-0.12,14.92-1.61,21.6-1.93" id="kvg:09c25-s7" kvg:type="&#12752;a" />
			</g>
			<g id="kvg:09c25-g5" kvg:element="&#28780;" kvg:original="&#28779;" kvg:variant="true">
				<path d="M14.43,79.57c0,5.77-2.42,14.28-3.05,15.93" id="kvg:09c25-s8" kvg:type="&#12756;" />
				<path d="M21.39,77.83c1.41,2.36,2.75,8.87,3.11,12.54" id="kvg:09c25-s9" kvg:type="&#12756;" />
				<path d="M29.29,74.69c1.76,2.2,4.54,9.04,4.98,12.46" id="kvg:09c25-s10" kvg:type="&#12756;" />
				<path d="M37.8,72.87c1.83,1.73,4.74,7.1,5.2,9.78" id="kvg:09c25-s11" kvg:type="&#12756;" />
			</g>
		</g>
	</g>
	<g id="kvg:09c25-g6" kvg:position="right">
		<g id="kvg:09c25-g7" kvg:element="&#32594;" kvg:original="&#32593;" kvg:position="top" kvg:variant="true">
			<path d="M47.75,14.06c0.24,0.32,0.49,0.59,0.59,0.99c0.83,3.19,2.33,11.98,2.9,17.7" id="kvg:09c25-s12" kvg:type="&#12753;" />
			<path d="M49.25,16.22c5.3-1.25,40.38-3.56,43.2-3.98c1.03-0.15,2.42,1.08,2.15,2.87c-0.58,3.74-1.99,10.15-3.52,15.49" id="kvg:09c25-s13" kvg:type="&#12757;a" />
			<path d="M63.14,14.44c0.16,2.12,1.29,12.47,1.46,14.86" id="kvg:09c25-s14" kvg:type="&#12753;a" />
			<path d="M78.35,13.11c-0.16,3.45-0.97,12.47-1.29,14.6" id="kvg:09c25-s15" kvg:type="&#12753;a" />
			<path d="M52,31.01c3.31-0.47,34.91-2.42,39.45-3.14" id="kvg:09c25-s16" kvg:type="&#12752;a" />
		</g>
		<g id="kvg:09c25-g8" kvg:position="bottom">
			<path d="M69.75,35.25C71,35.75,72,37.47,72,38.5c0,10.5,0,53.75-0.25,60" id="kvg:09c25-s17" kvg:type="&#12753;" />
			<path d="M61.76,40.64c0.04,0.39,0.08,1.01-0.08,1.57c-0.97,3.31-6.52,10.56-14.13,15.01" id="kvg:09c25-s18" kvg:type="&#12754;" />
			<path d="M64.5,60.39c0.06,0.64,0.24,1.7-0.11,2.59C62,69,54.5,79,44.06,87.72" id="kvg:09c25-s19" kvg:type="&#12756;" />
			<path d="M81.77,41.83c4.6,2.36,11.89,9.71,13.04,13.38" id="kvg:09c25-s20" kvg:type="&#12754;" />
			<path d="M72.5,50.25c3.28,4.42,18.72,26.62,22.29,30.97c1.21,1.47,2.25,2.11,3.46,2.53" id="kvg:09c25-s21" kvg:type="&#12751;" />
		</g>
	</g>
</g>
</g>
<g id="kvg:StrokeNumbers_09c25" style="font-size:8;fill:#808080">
	<text transform="matrix(1 0 0 1 18.50 12.50)">1</text>
	<text transform="matrix(1 0 0 1 30.50 15.50)">2</text>
	<text transform="matrix(1 0 0 1 7.50 46.50)">3</text>
	<text transform="matrix(1 0 0 1 18.50 36.50)">4</text>
	<text transform="matrix(1 0 0 1 31.50 45.50)">5</text>
	<text transform="matrix(1 0 0 1 19.50 49.50)">6</text>
	<text transform="matrix(1 0 0 1 20.50 64.50)">7</text>
	<text transform="matrix(1 0 0 1 8.50 79.50)">8</text>
	<text transform="matrix(1 0 0 1 16.50 84.50)">9</text>
	<text transform="matrix(1 0 0 1 24.50 81.50)">10</text>
	<text transform="matrix(1 0 0 1 32.50 78.50)">11</text>
	<text transform="matrix(1 0 0 1 40.50 24.50)">12</text>
	<text transform="matrix(1 0 0 1 49.50 12.50)">13</text>
	<text transform="matrix(1 0 0 1 66.50 22.10)">14</text>
	<text transform="matrix(1 0 0 1 80.50 21.50)">15</text>
	<text transform="matrix(1 0 0 1 52.75 27.50)">16</text>
	<text transform="matrix(1 0 0 1 60.25 38.50)">17</text>
	<text transform="matrix(1 0 0 1 50.75 42.50)">18</text>
	<text transform="matrix(1 0 0 1 53.50 61.50)">19</text>
	<text transform="matrix(1 0 0 1 79.50 39.50)">20</text>
	<text transform="matrix(1 0 0 1 77.50 55.50)">21</text>
</g>
</svg>