<svg xmlns="http://www.w3.org/2000/svg" xmlns:kvg="http://kanjivg.tagaini.net" height="109" meaning="sillaginoid, (kokuji)" viewBox="0 0 109 109" width="109">
<g id="kvg:StrokePaths_09c5a" style="fill:none;stroke:#000000;stroke-width:3;stroke-linecap:round;stroke-linejoin:round;">
<g id="kvg:09c5a" kvg:element="&#40026;">
	<g id="kvg:09c5a-g1" kvg:element="&#39770;" kvg:position="left" kvg:radical="general">
		<g id="kvg:09c5a-g2" kvg:element="&#131210;" kvg:original="&#21241;" kvg:position="top" kvg:variant="true">
			<path d="M26.99,12.75c0.04,0.56,0.09,1.45-0.08,2.26c-1,4.76-6.77,15.21-14.67,21.61" id="kvg:09c5a-s1" kvg:type="&#12754;" />
			<path d="M24.39,22.38c1.93,0,13.82-2.44,15.85-2.73c1.74-0.25,2.13,2.17,1.41,3.4c-3.05,5.19-7.98,10.16-12.95,18.4" id="kvg:09c5a-s2" kvg:type="&#12743;" />
		</g>
		<g id="kvg:09c5a-g3" kvg:position="bottom">
			<g id="kvg:09c5a-g4" kvg:element="&#30000;">
				<path d="M14,41.87c0.22,0.5,0.22,0.83,0.34,1.45c0.98,5.06,1.99,18.24,2.58,27.57" id="kvg:09c5a-s3" kvg:type="&#12753;" />
				<path d="M15.02,43.68c7.69-0.57,21.35-2.54,27.09-3.08c2.11-0.2,3.18,1.26,3.07,2.62c-0.41,4.98-1.79,18.03-3.51,27.27" id="kvg:09c5a-s4" kvg:type="&#12757;a" />
				<path d="M28.39,42.45c0.87,0.7,1.53,2.78,1.55,4.39c0.1,7.1-0.03,17.14-0.04,20.65" id="kvg:09c5a-s5" kvg:type="&#12753;a" />
				<path d="M16.91,55.66c2.5-0.27,24.5-1.9,26.57-1.92" id="kvg:09c5a-s6" kvg:type="&#12752;a" />
				<path d="M17.33,68.52c5.53-0.04,17.08-1.25,24.72-1.44" id="kvg:09c5a-s7" kvg:type="&#12752;a" />
			</g>
			<g id="kvg:09c5a-g5" kvg:element="&#28780;" kvg:original="&#28779;" kvg:variant="true">
				<path d="M13.89,80.32c0,5.14-2.36,12.71-2.98,14.18" id="kvg:09c5a-s8" kvg:type="&#12756;" />
				<path d="M22.39,79.83c1.08,2.55,2.1,9.57,2.37,13.54" id="kvg:09c5a-s9" kvg:type="&#12756;" />
				<path d="M30.84,77.69c1.9,2.37,4.92,9.77,5.4,13.46" id="kvg:09c5a-s10" kvg:type="&#12756;" />
				<path d="M40.8,76.12c2.01,1.68,5.2,6.92,5.7,9.53" id="kvg:09c5a-s11" kvg:type="&#12756;" />
			</g>
		</g>
	</g>
	<g id="kvg:09c5a-g6" kvg:element="&#21916;" kvg:position="right">
		<g id="kvg:09c5a-g7" kvg:element="&#21513;" kvg:position="top">
			<g id="kvg:09c5a-g8" kvg:element="&#22763;" kvg:position="top">
				<path d="M51.36,23.15c1.15,0.36,3.25,0.33,4.4,0.21c11.94-1.21,22.7-3.12,36.17-3.61c1.91-0.07,3.06,0.06,4.02,0.23" id="kvg:09c5a-s12" kvg:type="&#12752;" />
				<path d="M70.28,11.26c1.15,0.49,1.85,2.39,2.08,3.48c0.23,1.09,0.01,9.66-0.22,16.58" id="kvg:09c5a-s13" kvg:type="&#12753;a" />
				<path d="M56.38,32.97c0.91,0.21,2.58,0.16,3.5,0.11c5.62-0.33,18.62-1.83,26.49-2.24c1.52-0.08,2.43,0.02,3.2,0.12" id="kvg:09c5a-s14" kvg:type="&#12752;" />
			</g>
			<g id="kvg:09c5a-g9" kvg:element="&#21475;" kvg:position="bottom">
				<path d="M56.82,40.23c0.3,0.23,0.61,0.41,0.74,0.69c1.04,2.22,2.29,8.34,3,12.33" id="kvg:09c5a-s15" kvg:type="&#12753;" />
				<path d="M58.69,41.41c7.35-0.93,25.22-2.57,29.01-2.88c1.39-0.11,2.22,1.16,2.02,1.83c-0.82,2.79-1.38,4.73-3.14,8.76" id="kvg:09c5a-s16" kvg:type="&#12757;b" />
				<path d="M60.85,51.78c4.45-0.35,21.85-1.96,27.5-2.31" id="kvg:09c5a-s17" kvg:type="&#12752;b" />
			</g>
		</g>
		<g id="kvg:09c5a-g10" kvg:position="bottom">
			<path d="M58.68,56.94c2.1,1.41,5.42,5.78,5.94,7.97" id="kvg:09c5a-s18" kvg:type="&#12756;" />
			<path d="M84.25,54.71c0.01,0.24,0.03,0.62-0.03,0.97c-0.32,2.04-2.13,6.51-4.61,9.25" id="kvg:09c5a-s19" kvg:type="&#12754;" />
			<path d="M48.1,68.31c1.17,0.5,3.32,0.54,4.5,0.5c9.15-0.31,29.35-2.12,42.44-2.8c1.95-0.1,3.13,0.24,4.11,0.49" id="kvg:09c5a-s20" kvg:type="&#12752;" />
			<g id="kvg:09c5a-g11" kvg:element="&#21475;">
				<path d="M57.58,77.25c0.36,0.32,0.73,0.59,0.88,0.99c1.25,3.18,2.97,13.5,3.82,19.22" id="kvg:09c5a-s21" kvg:type="&#12753;" />
				<path d="M59.82,78.44c8.81-1.33,22.8-2.19,27.34-2.64c1.66-0.16,2.66,1.66,2.42,2.63c-0.99,4.01-1.65,7.91-3.76,13.69" id="kvg:09c5a-s22" kvg:type="&#12757;b" />
				<path d="M62.64,94.86c5.34-0.51,18.53-1.22,25.31-1.73" id="kvg:09c5a-s23" kvg:type="&#12752;b" />
			</g>
		</g>
	</g>
</g>
</g>
<g id="kvg:StrokeNumbers_09c5a" style="font-size:8;fill:#808080">
	<text transform="matrix(1 0 0 1 19.50 12.50)">1</text>
	<text transform="matrix(1 0 0 1 32.50 17.50)">2</text>
	<text transform="matrix(1 0 0 1 7.50 50.50)">3</text>
	<text transform="matrix(1 0 0 1 18.50 40.50)">4</text>
	<text transform="matrix(1 0 0 1 33.50 49.50)">5</text>
	<text transform="matrix(1 0 0 1 19.50 52.50)">6</text>
	<text transform="matrix(1 0 0 1 20.50 66.50)">7</text>
	<text transform="matrix(1 0 0 1 8.50 79.50)">8</text>
	<text transform="matrix(1 0 0 1 16.50 78.50)">9</text>
	<text transform="matrix(1 0 0 1 21.50 77.50)">10</text>
	<text transform="matrix(1 0 0 1 33.50 75.50)">11</text>
	<text transform="matrix(1 0 0 1 48.50 19.50)">12</text>
	<text transform="matrix(1 0 0 1 57.50 10.50)">13</text>
	<text transform="matrix(1 0 0 1 46.50 33.50)">14</text>
	<text transform="matrix(1 0 0 1 49.50 46.50)">15</text>
	<text transform="matrix(1 0 0 1 59.25 39.50)">16</text>
	<text transform="matrix(1 0 0 1 62.50 48.50)">17</text>
	<text transform="matrix(1 0 0 1 49.50 57.50)">18</text>
	<text transform="matrix(1 0 0 1 73.50 57.50)">19</text>
	<text transform="matrix(1 0 0 1 47.50 65.40)">20</text>
	<text transform="matrix(1 0 0 1 51.50 84.50)">21</text>
	<text transform="matrix(1 0 0 1 60.50 75.33)">22</text>
	<text transform="matrix(1 0 0 1 65.50 91.50)">23</text>
</g>
</svg>