<svg xmlns="http://www.w3.org/2000/svg" xmlns:kvg="http://kanjivg.tagaini.net" height="109" meaning="wild duck, end, suffix" viewBox="0 0 109 109" width="109">
<g id="kvg:StrokePaths_09cec" style="fill:none;stroke:#000000;stroke-width:3;stroke-linecap:round;stroke-linejoin:round;">
<g id="kvg:09cec" kvg:element="&#40172;">
	<g id="kvg:09cec-g1" kvg:element="&#40165;" kvg:partial="true" kvg:position="top" kvg:radical="general">
		<path d="M50.22,8.68c0.02,0.25,0.04,0.64-0.04,0.99c-0.51,2.09-3.43,6.69-7.43,9.5" id="kvg:09cec-s1" kvg:type="&#12754;" />
		<path d="M31.13,20.35c0.46,0.31,0.82,1.75,0.82,2.29c0,5.54,0.05,26.32-0.23,35.04" id="kvg:09cec-s2" kvg:type="&#12753;" />
		<path d="M32.52,21.81c2.13-0.08,32.61-3.27,34.67-3.03c1.82,0.22,3.44,1.45,3.29,2.91C70.25,24,69.5,31.75,68.25,38.65" id="kvg:09cec-s3" kvg:type="&#12757;" />
		<path d="M32.86,29.72c2.61,0,33.42-2.74,36.37-2.74" id="kvg:09cec-s4" kvg:type="&#12752;" />
		<path d="M32.74,39.56c5.31-0.31,28.87-2.32,35.48-2.59" id="kvg:09cec-s5" kvg:type="&#12752;" />
		<path d="M32.03,48.04c13.4-1.09,44.65-3.8,50.42-4.13c2.79-0.16,5.41,0.05,6.42,0.21" id="kvg:09cec-s6" kvg:type="&#12752;" />
		<path d="M31.73,57.85c12.48-1.74,47.85-4.2,54.77-4.85c4.5-0.42,5.31,1.45,4.5,4.3c-2.25,7.93-4.32,14.82-8,19.86c-3.5,4.8-6.5,1.83-8.5-1.79" id="kvg:09cec-s7" kvg:type="&#12742;" />
	</g>
	<g id="kvg:09cec-g2" kvg:element="&#20960;" kvg:position="bottom">
		<g id="kvg:09cec-g3" kvg:element="&#20031;">
			<path d="M36.51,67.77c0.66,0.9,1.11,2.11,1.11,3.24c0,10.31-3.67,24.9-20.87,30.49" id="kvg:09cec-s8" kvg:type="&#12754;" />
		</g>
		<path d="M37.67,70.06c2.88-0.67,14.58-2.56,17.8-3.08c2.37-0.38,4.79,0.67,4.22,4.03c-0.58,3.36,0.15,17.25,0.12,19.71c-0.06,4.78,3.44,7.89,15.4,7.89c14.04,0,17.36-4.08,17.36-9.23" id="kvg:09cec-s9" kvg:type="&#12744;b" />
	</g>
</g>
</g>
<g id="kvg:StrokeNumbers_09cec" style="font-size:8;fill:#808080">
	<text transform="matrix(1 0 0 1 42.25 8.50)">1</text>
	<text transform="matrix(1 0 0 1 24.50 26.50)">2</text>
	<text transform="matrix(1 0 0 1 34.50 19.50)">3</text>
	<text transform="matrix(1 0 0 1 36.32 27.50)">4</text>
	<text transform="matrix(1 0 0 1 36.50 37.33)">5</text>
	<text transform="matrix(1 0 0 1 36.36 45.50)">6</text>
	<text transform="matrix(1 0 0 1 36.42 55.50)">7</text>
	<text transform="matrix(1 0 0 1 29.50 75.50)">8</text>
	<text transform="matrix(1 0 0 1 40.50 66.50)">9</text>
</g>
</svg>