<svg xmlns="http://www.w3.org/2000/svg" xmlns:kvg="http://kanjivg.tagaini.net" height="109" kun="&#12388;&#12368;&#12415;" meaning="thrush, (kokuji)" on="&#12488;&#12454;, &#12484;" viewBox="0 0 109 109" width="109">
<g id="kvg:StrokePaths_09dab" style="fill:none;stroke:#000000;stroke-width:3;stroke-linecap:round;stroke-linejoin:round;">
<g id="kvg:09dab" kvg:element="&#40363;">
	<g id="kvg:09dab-g1" kvg:element="&#26604;" kvg:position="left">
		<g id="kvg:09dab-g2" kvg:element="&#26463;" kvg:part="1">
			<g id="kvg:09dab-g3" kvg:element="&#26408;" kvg:part="1">
				<path d="M13.35,26.92c0.9,0.33,2.39,0.41,3.91,0.21c10.23-1.38,19.43-2.53,26.18-3.41c1.66-0.22,3.22-0.04,4.71,0.38" id="kvg:09dab-s1" kvg:type="&#12752;" />
			</g>
			<g id="kvg:09dab-g4" kvg:element="&#21475;" kvg:part="1">
				<path d="M13.32,37.71c0.2,0.44,0.41,0.81,0.5,1.36c0.7,4.37,2.9,14.83,3.38,22.68" id="kvg:09dab-s2" kvg:type="&#12753;" />
				<path d="M14.07,39.19C21,38,43.44,35.65,45.81,35.24c1.48-0.25,2.75,0.96,2.52,3.41c-0.67,7.1-2.8,16.4-3.63,21.22" id="kvg:09dab-s3" kvg:type="&#12757;" />
			</g>
		</g>
		<path d="M20.73,45.53c1.57,1.44,4.05,5.94,4.44,8.18" id="kvg:09dab-s4" kvg:type="&#12756;" />
		<path d="M40.98,41.8c0.01,0.24,0.03,0.61-0.03,0.95c-0.32,2-2.13,6.39-4.6,9.08" id="kvg:09dab-s5" kvg:type="&#12754;" />
		<g id="kvg:09dab-g5" kvg:element="&#26463;">
			<g id="kvg:09dab-g6" kvg:element="&#21475;" kvg:part="2">
				<path d="M17.04,59.84c6.62-0.99,21.58-2.38,27.76-2.87" id="kvg:09dab-s6" kvg:type="&#12752;" />
			</g>
			<g id="kvg:09dab-g7" kvg:element="&#26408;" kvg:part="2">
				<path d="M29.15,11.75c0.87,0.5,1.39,2.25,1.56,3.25c0.17,1,0,75.75-0.17,82" id="kvg:09dab-s7" kvg:type="&#12753;" />
				<path d="M31.13,58.25C27.5,67.73,18.06,81.14,10.5,86.5" id="kvg:09dab-s8" kvg:type="&#12754;" />
				<path d="M33.89,67c3.83,2.27,8.48,7.47,9.87,10.03" id="kvg:09dab-s9" kvg:type="&#12751;" />
			</g>
		</g>
	</g>
	<g id="kvg:09dab-g8" kvg:element="&#40165;" kvg:position="right" kvg:radical="tradit">
		<path d="M69.54,11.16c0.02,0.35,0.04,0.91-0.04,1.41c-0.48,2.94-3.2,9.22-6.92,12.88" id="kvg:09dab-s10" kvg:type="&#12754;" />
		<path d="M56.8,25.92c0.33,0.43,0.6,1.02,0.6,1.73c0,7.23,0.04,32.51-0.17,43.88" id="kvg:09dab-s11" kvg:type="&#12753;" />
		<path d="M57.81,28.25c1.55,0,22.5-3.67,24.01-3.56c2.24,0.16,3.3,2.15,3.13,4.02c-0.2,2.3-1.7,14.8-3.58,20.46" id="kvg:09dab-s12" kvg:type="&#12757;a" />
		<path d="M58.06,38.08c1.9,0.13,23.1-2.74,25.25-2.59" id="kvg:09dab-s13" kvg:type="&#12752;a" />
		<path d="M57.97,49.62c3.88-0.14,19.05-2.48,23.88-2.5" id="kvg:09dab-s14" kvg:type="&#12752;a" />
		<path d="M58.19,60.8c9.09-1.11,29.71-3.75,33.62-4.44c1.36-0.24,3.67-0.46,4.36-0.14" id="kvg:09dab-s15" kvg:type="&#12752;b" />
		<path d="M57.24,71.75c11.01-1.25,28.13-3.92,33.17-4.4c3.28-0.31,4.97,0.89,4.38,4.57C93.15,82.16,92,88.75,86.86,95.67c-4.14,5.58-6.47,0.54-7.8-0.74" id="kvg:09dab-s16" kvg:type="&#12742;a" />
		<g id="kvg:09dab-g9" kvg:element="&#28780;" kvg:original="&#28779;" kvg:variant="true">
			<path d="M52.44,80.23c0.57,4.96-0.91,10.9-2.6,13.94" id="kvg:09dab-s17" kvg:type="&#12756;" />
			<path d="M62.07,80.24c1.5,1.99,2.92,7.2,3.29,10.12" id="kvg:09dab-s18" kvg:type="&#12756;" />
			<path d="M71,77.54c1.93,1.83,4.97,7.32,5.46,10.01" id="kvg:09dab-s19" kvg:type="&#12756;" />
			<path d="M80.16,75.23c1.71,1.85,4.43,7.42,4.86,10.14" id="kvg:09dab-s20" kvg:type="&#12756;" />
		</g>
	</g>
</g>
</g>
<g id="kvg:StrokeNumbers_09dab" style="font-size:8;fill:#808080">
	<text transform="matrix(1 0 0 1 7.50 27.50)">1</text>
	<text transform="matrix(1 0 0 1 6.50 43.50)">2</text>
	<text transform="matrix(1 0 0 1 15.50 35.50)">3</text>
	<text transform="matrix(1 0 0 1 21.50 45.40)">4</text>
	<text transform="matrix(1 0 0 1 34.50 44.50)">5</text>
	<text transform="matrix(1 0 0 1 19.50 57.50)">6</text>
	<text transform="matrix(1 0 0 1 20.50 12.50)">7</text>
	<text transform="matrix(1 0 0 1 18.25 69.10)">8</text>
	<text transform="matrix(1 0 0 1 41.25 68.53)">9</text>
	<text transform="matrix(1 0 0 1 58.50 11.50)">10</text>
	<text transform="matrix(1 0 0 1 49.50 32.50)">11</text>
	<text transform="matrix(1 0 0 1 56.50 24.50)">12</text>
	<text transform="matrix(1 0 0 1 61.49 35.50)">13</text>
	<text transform="matrix(1 0 0 1 61.34 46.50)">14</text>
	<text transform="matrix(1 0 0 1 61.50 57.50)">15</text>
	<text transform="matrix(1 0 0 1 61.38 68.50)">16</text>
	<text transform="matrix(1 0 0 1 42.50 86.50)">17</text>
	<text transform="matrix(1 0 0 1 54.50 86.50)">18</text>
	<text transform="matrix(1 0 0 1 65.50 84.50)">19</text>
	<text transform="matrix(1 0 0 1 75.50 82.50)">20</text>
</g>
</svg>