<svg xmlns="http://www.w3.org/2000/svg" xmlns:kvg="http://kanjivg.tagaini.net" height="109" kun="&#12431;&#12375;" meaning="eagle" on="&#12471;&#12517;&#12454;, &#12472;&#12517;" viewBox="0 0 109 109" width="109">
<g id="kvg:StrokePaths_09df2" style="fill:none;stroke:#000000;stroke-width:3;stroke-linecap:round;stroke-linejoin:round;">
<g id="kvg:09df2" kvg:element="&#40434;">
	<g id="kvg:09df2-g1" kvg:element="&#23601;" kvg:position="top">
		<g id="kvg:09df2-g2" kvg:element="&#20140;" kvg:position="left">
			<g id="kvg:09df2-g3" kvg:element="&#20128;" kvg:position="top">
				<path d="M35.31,7.11c0.79,0.29,1.09,1.06,1.1,2.04c0.03,2.23-0.24,3.21-0.1,5.09" id="kvg:09df2-s1" kvg:type="&#12753;a" />
				<path d="M14.24,16.47c0.98,0.06,3.2,0.44,4.16,0.34c7.47-0.75,20.83-3.34,29.97-3.7c1.61-0.06,2.14-0.42,3.63-0.01" id="kvg:09df2-s2" kvg:type="&#12752;" />
			</g>
			<g id="kvg:09df2-g4" kvg:position="bottom">
				<g id="kvg:09df2-g5" kvg:element="&#21475;">
					<path d="M23.22,23.22c0.33,0.17,1.15,1.06,1.22,1.3c0.51,1.69,1.6,5.58,2.35,8.77" id="kvg:09df2-s3" kvg:type="&#12753;" />
					<path d="M24.73,23.5c5.04-0.66,15.24-2.48,18.66-2.75c1.42-0.11,2.73,0.92,2.16,2.21c-0.63,1.44-1.4,4.2-2.29,6.19" id="kvg:09df2-s4" kvg:type="&#12757;b" />
					<path d="M26.63,31.91c6.99-0.65,11.2-1.91,18.18-2.46" id="kvg:09df2-s5" kvg:type="&#12752;b" />
				</g>
				<g id="kvg:09df2-g6" kvg:element="&#23567;">
					<path d="M35.21,32.68c0.04,0.19,0.55,1.01,0.62,2.23c0.11,1.98-0.13,9.69-0.13,11.4c0,3.58-3.54,0.2-4.28-0.3" id="kvg:09df2-s6" kvg:type="&#12762;" />
					<path d="M24.62,36.56c0.02,0.25,0.05,0.63-0.05,0.99c-0.55,2.08-3.69,6.66-8,9.46" id="kvg:09df2-s7" kvg:type="&#12754;" />
					<path d="M41.79,37.53c1.87,0.89,4.45,3.37,4.92,4.76" id="kvg:09df2-s8" kvg:type="&#12756;" />
				</g>
			</g>
		</g>
		<g id="kvg:09df2-g7" kvg:element="&#23588;" kvg:position="right">
			<g id="kvg:09df2-g8" kvg:element="&#23586;">
				<path d="M53.95,22.33c0.72,0.32,2.02,0.34,2.74,0.32c5.81-0.2,24.02-3.55,31.71-3.54c1.19,0,1.91,0.15,2.5,0.31" id="kvg:09df2-s9" kvg:type="&#12752;" />
				<g id="kvg:09df2-g9" kvg:element="&#20799;" kvg:original="&#20843;">
					<g id="kvg:09df2-g10" kvg:element="&#20031;">
						<path d="M68.89,8.92c0.06,0.95,0.13,0.9,0.13,2.2c0,8.9-3.24,28.05-20.83,34.87" id="kvg:09df2-s10" kvg:type="&#12754;" />
					</g>
					<path d="M69.77,27.29c0.49,0.64,0.89,1.39,0.92,2.37c0.13,4.38-0.35,8.63-0.35,11.61c0,6.96,5.93,6.17,11.77,6.17c11.41,0,12.58-0.38,12.58-4.88" id="kvg:09df2-s11" kvg:type="&#12767;" />
				</g>
			</g>
			<g id="kvg:09df2-g11" kvg:element="&#20022;">
				<path d="M80.21,8.72c2.36,0.77,6.09,3.16,6.68,4.36" id="kvg:09df2-s12" kvg:type="&#12756;" />
			</g>
		</g>
	</g>
	<g id="kvg:09df2-g12" kvg:element="&#40165;" kvg:position="bottom" kvg:radical="general">
		<path d="M57.03,46.12c0.01,0.19,0.02,0.49-0.02,0.76c-0.28,1.6-1.89,5.12-4.09,7.28" id="kvg:09df2-s13" kvg:type="&#12754;" />
		<path d="M38.54,55.83c0.4,0.23,0.71,0.55,0.71,0.95c0,4.07,0.04,19.7-0.2,26.1" id="kvg:09df2-s14" kvg:type="&#12753;" />
		<path d="M39.75,56.54c1.85-0.06,27.94-2.59,29.75-2.59c2.67,0,3.97,1.08,3.74,2.14c-0.15,0.65-1.96,6.36-3.68,11.36" id="kvg:09df2-s15" kvg:type="&#12757;a" />
		<path d="M40.04,62.34c2.27,0,28.67-2.38,31.23-2.38" id="kvg:09df2-s16" kvg:type="&#12752;a" />
		<path d="M39.94,69.34c4.62-0.23,23.83-2.07,29.59-2.27" id="kvg:09df2-s17" kvg:type="&#12752;a" />
		<path d="M39.2,76.34c11.7-1.14,40.03-4.73,45.05-5.35c1.75-0.22,4.72-0.47,5.61-0.31" id="kvg:09df2-s18" kvg:type="&#12752;b" />
		<path d="M39.07,83.01c10.86-1.28,38.71-3.46,44.73-3.93c3.92-0.31,4.93,1.43,4.22,3.53c-1.96,5.82-4.4,11.86-7.27,15.83c-3.25,4.51-5,3.26-8.7,0.15" id="kvg:09df2-s19" kvg:type="&#12742;a" />
		<g id="kvg:09df2-g13" kvg:element="&#28780;" kvg:original="&#28779;" kvg:variant="true">
			<path d="M26.06,88.77c0.65,3.68-0.47,8.12-2.37,10.42" id="kvg:09df2-s20" kvg:type="&#12756;" />
			<path d="M38.86,89.2c1.71,1.72,3.34,6.45,3.76,9.12" id="kvg:09df2-s21" kvg:type="&#12756;" />
			<path d="M53.35,87.27c1.33,1.39,3.42,5.74,3.75,7.9" id="kvg:09df2-s22" kvg:type="&#12756;" />
			<path d="M64.81,85.93c1.8,1.08,4.64,4.43,5.09,6.11" id="kvg:09df2-s23" kvg:type="&#12756;" />
		</g>
	</g>
</g>
</g>
<g id="kvg:StrokeNumbers_09df2" style="font-size:8;fill:#808080">
	<text transform="matrix(1 0 0 1 27.50 7.70)">1</text>
	<text transform="matrix(1 0 0 1 7.25 16.70)">2</text>
	<text transform="matrix(1 0 0 1 18.25 29.70)">3</text>
	<text transform="matrix(1 0 0 1 26.50 21.70)">4</text>
	<text transform="matrix(1 0 0 1 30.50 29.70)">5</text>
	<text transform="matrix(1 0 0 1 29.50 40.70)">6</text>
	<text transform="matrix(1 0 0 1 17.50 38.38)">7</text>
	<text transform="matrix(1 0 0 1 46.50 37.70)">8</text>
	<text transform="matrix(1 0 0 1 53.50 19.70)">9</text>
	<text transform="matrix(1 0 0 1 56.50 9.70)">10</text>
	<text transform="matrix(1 0 0 1 72.50 30.70)">11</text>
	<text transform="matrix(1 0 0 1 74.50 6.70)">12</text>
	<text transform="matrix(1 0 0 1 46.50 52.93)">13</text>
	<text transform="matrix(1 0 0 1 29.25 63.85)">14</text>
	<text transform="matrix(1 0 0 1 38.50 54.70)">15</text>
	<text transform="matrix(1 0 0 1 43.24 61.70)">16</text>
	<text transform="matrix(1 0 0 1 43.28 68.70)">17</text>
	<text transform="matrix(1 0 0 1 43.25 74.55)">18</text>
	<text transform="matrix(1 0 0 1 43.24 81.70)">19</text>
	<text transform="matrix(1 0 0 1 17.50 88.70)">20</text>
	<text transform="matrix(1 0 0 1 32.50 93.70)">21</text>
	<text transform="matrix(1 0 0 1 44.50 91.70)">22</text>
	<text transform="matrix(1 0 0 1 58.50 90.70)">23</text>
</g>
</svg>