<svg xmlns="http://www.w3.org/2000/svg" xmlns:kvg="http://kanjivg.tagaini.net" height="109" meaning="stick to, glutinous, sticky, glue" viewBox="0 0 109 109" width="109">
<g id="kvg:StrokePaths_09ecf" style="fill:none;stroke:#000000;stroke-width:3;stroke-linecap:round;stroke-linejoin:round;">
<g id="kvg:09ecf" kvg:element="&#40655;">
	<g id="kvg:09ecf-g1" kvg:element="&#40653;" kvg:position="left" kvg:radical="tradit">
		<g id="kvg:09ecf-g2" kvg:position="top">
			<g id="kvg:09ecf-g3" kvg:element="&#31166;" kvg:variant="true">
				<g id="kvg:09ecf-g4" kvg:element="&#20031;" kvg:position="top">
					<path d="M47.53,10.5c0.07,0.28,0.15,0.72-0.14,1.12c-1.75,2.35-11.78,7.52-25.51,10.68" id="kvg:09ecf-s1" kvg:type="&#12754;" />
				</g>
				<g id="kvg:09ecf-g5" kvg:element="&#26408;" kvg:position="bottom" kvg:variant="true">
					<path d="M15.6,29.4c0.42,0.18,2.1,0.58,3.22,0.55c7.68-0.2,26.72-2.66,35.26-3.16c1.12-0.07,2.52,0.22,3.22,0.4" id="kvg:09ecf-s2" kvg:type="&#12752;" />
					<path d="M36.23,19.62c0.46,0.44,0.73,1.98,0.82,2.86c0.09,0.88,0,13.45-0.09,18.96" id="kvg:09ecf-s3" kvg:type="&#12753;" />
					<path d="M36.45,28.43C32.02,34.35,24.32,43.02,14.6,46.5" id="kvg:09ecf-s4" kvg:type="&#12754;" />
					<path d="M39.62,31.8c4.08,1.27,11.48,8.42,13.39,11.16" id="kvg:09ecf-s5" kvg:type="&#12756;/&#12751;" />
				</g>
			</g>
			<path d="M35.07,43.7c0.07,0.49-0.04,1.4-0.42,1.98c-3.09,4.7-10.57,14.19-22.9,18.93" id="kvg:09ecf-s6" kvg:type="&#12754;" />
			<path d="M37.28,47.33c4.31,1.53,14.09,7.72,16.56,11.17" id="kvg:09ecf-s7" kvg:type="&#12756;/&#12751;" />
		</g>
		<g id="kvg:09ecf-g6" kvg:element="&#27706;" kvg:original="&#27700;" kvg:position="bottom" kvg:variant="true">
			<path d="M36.99,56.14c0.06,0.4,0.9,2.09,0.9,4.64c0,15.27-0.19,27.06-0.19,31.23c0,8.86-5.18,1.26-6.25,0.21" id="kvg:09ecf-s8" kvg:type="&#12762;" />
			<path d="M21.28,64.5c2.33,1.23,6.03,5.05,6.61,6.96" id="kvg:09ecf-s9" kvg:type="&#12756;" />
			<path d="M16.17,86.23c1.28,1.16,2.35,1.66,3.63,0.66c0.76-0.59,6.84-5.81,10.05-8.64" id="kvg:09ecf-s10" kvg:type="&#12736;" />
			<path d="M50.66,61.71c0.02,0.19,0.04,0.5-0.04,0.78c-0.5,1.65-3.35,5.26-7.26,7.47" id="kvg:09ecf-s11" kvg:type="&#12754;" />
			<path d="M42.01,76.09c2.54,1.2,9.49,6.98,11.71,11.47" id="kvg:09ecf-s12" kvg:type="&#12756;" />
		</g>
	</g>
	<g id="kvg:09ecf-g7" kvg:element="&#21344;" kvg:position="right">
		<g id="kvg:09ecf-g8" kvg:element="&#21340;" kvg:original="&#12488;" kvg:position="top" kvg:variant="true">
			<path d="M73.31,13.13c0.76,0.45,2.36,3.35,2.51,4.25c0.15,0.9-0.25,38.12-0.25,51.25" id="kvg:09ecf-s13" kvg:type="&#12753;a" />
			<path d="M76.25,38.5c7.27-0.75,15.35-2.25,16.36-2.25c1.01,0,2.83,0,3.64,0.25" id="kvg:09ecf-s14" kvg:type="&#12752;b" />
		</g>
		<g id="kvg:09ecf-g9" kvg:element="&#21475;" kvg:position="bottom">
			<path d="M59.41,68.55c0.41,0.48,0.82,0.89,1,1.49c1.41,4.79,3.09,18.01,4.05,26.62" id="kvg:09ecf-s15" kvg:type="&#12753;" />
			<path d="M60.71,70.59c10.13-1.87,26.37-2.9,31.17-3.61c1.75-0.26,3.31,1.62,3.06,3.15c-1.04,6.33-2.34,13.84-3.77,21.88" id="kvg:09ecf-s16" kvg:type="&#12757;b" />
			<path d="M64.36,93.66C72,93.25,83.5,92.5,93.54,92.22" id="kvg:09ecf-s17" kvg:type="&#12752;b" />
		</g>
	</g>
</g>
</g>
<g id="kvg:StrokeNumbers_09ecf" style="font-size:8;fill:#808080">
	<text transform="matrix(1 0 0 1 39.25 9.50)">1</text>
	<text transform="matrix(1 0 0 1 8.50 30.55)">2</text>
	<text transform="matrix(1 0 0 1 30.50 27.50)">3</text>
	<text transform="matrix(1 0 0 1 21.50 38.50)">4</text>
	<text transform="matrix(1 0 0 1 51.50 36.50)">5</text>
	<text transform="matrix(1 0 0 1 26.50 48.50)">6</text>
	<text transform="matrix(1 0 0 1 41.50 47.18)">7</text>
	<text transform="matrix(1 0 0 1 29.50 62.50)">8</text>
	<text transform="matrix(1 0 0 1 15.25 70.03)">9</text>
	<text transform="matrix(1 0 0 1 5.50 87.50)">10</text>
	<text transform="matrix(1 0 0 1 42.50 62.88)">11</text>
	<text transform="matrix(1 0 0 1 41.50 88.50)">12</text>
	<text transform="matrix(1 0 0 1 64.50 10.50)">13</text>
	<text transform="matrix(1 0 0 1 78.50 34.50)">14</text>
	<text transform="matrix(1 0 0 1 51.50 76.50)">15</text>
	<text transform="matrix(1 0 0 1 62.25 66.50)">16</text>
	<text transform="matrix(1 0 0 1 67.50 89.50)">17</text>
</g>
</svg>